<svg viewBox="-5 0 212 321" fill="none" xmlns="http://www.w3.org/2000/svg" class="fs789u2"><path d="M190.116 0C196.68 0 202 5.32 202 11.883v297.059c0 6.563-5.32 11.883-11.884 11.883H11.883C5.32 320.825 0 315.505 0 308.942V11.884C0 5.32 5.32 0 11.883 0h178.233Z" fill="#19D3C5"/><mask id="kite_svg__a" style="mask-type:alpha" maskUnits="userSpaceOnUse" x="0" y="-1" width="202" height="322"><path d="M190.117 0C196.68 0 202 5.32 202 11.883v297.059c0 6.563-5.32 11.883-11.883 11.883H11.884C5.32 320.825 0 315.505 0 308.942V11.883C0 5.32 5.32 0 11.883 0h178.234Z" fill="#19D3C5"/></mask><g mask="url(#kite_svg__a)" fill="#773DBD"><path d="M24.237 72.898c27.476 0 49.75-22.273 49.75-49.75 0-27.475-22.274-49.749-49.75-49.749s-49.75 22.274-49.75 49.75 22.274 49.75 49.75 49.75ZM162.829 395.875c48.951 0 88.633-39.683 88.633-88.634s-39.682-88.634-88.633-88.634c-48.951 0-88.633 39.683-88.633 88.634s39.682 88.634 88.633 88.634Z"/></g><path d="M158.95 264.972h-18.215v32.731h18.215v-32.731Z" fill="#EA560D"/><path d="M141.891 281.335c0-6.64 3.109-12.554 7.951-16.366a20.72 20.72 0 0 0-12.865-4.45c-11.496 0-20.816 9.32-20.816 20.816 0 11.496 9.32 20.816 20.816 20.816 4.857 0 9.325-1.664 12.865-4.45-4.842-3.812-7.951-9.724-7.951-16.366Z" fill="#E30613"/><path d="M181.533 294.234v-.67h.271v-.136h-.687v.136h.271v.67h.145Zm1.336 0v-.808h-.212l-.241.554-.242-.554h-.212v.808h.148v-.609l.227.525h.155l.227-.527v.611h.15ZM183.52 281.335c0 11.496-9.319 20.816-20.813 20.816a20.734 20.734 0 0 1-12.865-4.45c4.842-3.812 7.951-9.727 7.951-16.366 0-6.64-3.109-12.554-7.951-16.366a20.722 20.722 0 0 1 12.865-4.45c11.494 0 20.813 9.322 20.813 20.816Z" fill="#F59E00"/><path d="M180.459 46.402h8.363v.915h-4.205l4.205 4.3v1.201l-3.527-3.598-4.836 3.633v-1.13l4.193-3.16-1.223-1.246h-2.97v-.915ZM187.432 54.526c0-.182.064-.338.19-.463a.633.633 0 0 1 .463-.19c.183 0 .338.064.464.19a.634.634 0 0 1 .189.463.634.634 0 0 1-.189.463.633.633 0 0 1-.464.19.633.633 0 0 1-.463-.19.631.631 0 0 1-.19-.463Zm-6.973-.451h5.975v.89h-5.975v-.89ZM180.375 58.672c0-.548.133-.942.397-1.183.266-.242.631-.363 1.099-.363h3.804v-1.01h.759v1.01h1.508v.88h-1.508v1.331h-.759v-1.33h-3.754c-.286 0-.483.066-.594.201-.111.136-.165.353-.165.653 0 .136.012.294.034.476h-.737a3.122 3.122 0 0 1-.084-.666ZM180.27 63.116c0-.594.135-1.112.409-1.556.273-.443.65-.786 1.133-1.027.484-.242 1.033-.363 1.652-.363.601 0 1.141.119 1.622.358.478.236.855.576 1.129 1.02.273.444.409.959.409 1.545 0 .555-.129 1.033-.387 1.437a2.484 2.484 0 0 1-1.082.927c-.464.215-.996.32-1.597.32a2.93 2.93 0 0 1-.274-.012V61.06c-.737.025-1.297.217-1.681.582-.385.364-.577.855-.577 1.474 0 .458.109.83.328 1.111.217.281.525.525.922.73l-.274.724c-.547-.221-.971-.552-1.276-.99-.304-.442-.456-.967-.456-1.575Zm3.707 1.77c.594-.015 1.057-.188 1.39-.518.332-.328.498-.754.498-1.277 0-.57-.168-1.03-.506-1.378-.337-.347-.798-.56-1.382-.628v3.8Z" fill="#fff"/><path d="M21.835 285.149c.43 0 .799.076 1.103.23.306.154.565.356.773.606v-3.147h1.714v8.863h-1.68v-.703c-.21.258-.47.469-.783.627-.313.161-.686.241-1.127.241a2.92 2.92 0 0 1-1.225-.256 3.032 3.032 0 0 1-.982-.703 3.276 3.276 0 0 1-.65-1.065 3.704 3.704 0 0 1-.234-1.333c0-.478.078-.923.235-1.334.156-.41.371-.764.65-1.064.275-.3.603-.534.98-.706a2.936 2.936 0 0 1 1.226-.256Zm.315 1.599c-.25 0-.478.045-.682.139a1.517 1.517 0 0 0-.52.375 1.687 1.687 0 0 0-.33.561 1.984 1.984 0 0 0-.115.684c0 .245.04.475.116.688.076.213.186.4.33.556.143.159.317.285.519.376.204.091.432.139.682.139.247 0 .47-.044.67-.133.203-.086.377-.21.52-.369.145-.158.256-.345.336-.56.079-.215.118-.448.118-.697 0-.25-.04-.482-.118-.697a1.7 1.7 0 0 0-.336-.561 1.558 1.558 0 0 0-1.19-.501Zm7.888-1.599c.46 0 .881.08 1.26.243.38.163.705.391.979.684.271.294.484.648.636 1.06.152.413.228.867.228 1.364a5.12 5.12 0 0 1-.032.58h-4.524c.043.232.117.43.217.595.1.165.224.302.365.411.143.108.304.189.484.241.18.05.371.076.573.076.276 0 .556-.055.839-.159a2.54 2.54 0 0 0 .773-.454l1.008 1.106a3.484 3.484 0 0 1-1.228.734 4.56 4.56 0 0 1-1.49.234c-.486 0-.933-.08-1.34-.241a3.055 3.055 0 0 1-1.046-.677 3.059 3.059 0 0 1-.682-1.056 3.657 3.657 0 0 1-.245-1.366c0-.499.08-.958.238-1.373.159-.414.378-.771.66-1.066a3.013 3.013 0 0 1 1.017-.691 3.422 3.422 0 0 1 1.31-.245Zm-.013 1.481c-.409 0-.732.113-.969.339-.237.226-.393.539-.467.938h2.826c-.079-.412-.237-.727-.474-.949-.239-.219-.543-.328-.916-.328Zm8.085-1.481c.439 0 .847.085 1.225.256.378.172.706.406.982.706.276.298.493.654.651 1.064.159.411.237.856.237 1.334 0 .48-.078.923-.234 1.333a3.238 3.238 0 0 1-.65 1.065 3.032 3.032 0 0 1-.981.703 2.92 2.92 0 0 1-1.225.256c-.444 0-.82-.08-1.13-.241-.31-.16-.569-.369-.78-.627v.703h-1.678v-8.863h1.711v3.147c.21-.25.47-.452.771-.606.304-.154.671-.23 1.101-.23Zm-.317 1.599c-.245 0-.469.043-.667.132-.2.087-.371.211-.517.369a1.631 1.631 0 0 0-.334.561c-.08.215-.117.447-.117.697 0 .252.039.484.117.697.078.215.191.402.334.56.146.159.318.28.517.369.2.087.422.133.667.133.254 0 .485-.046.684-.139.202-.091.376-.217.517-.376.144-.158.252-.343.328-.556.076-.213.115-.441.115-.688 0-.241-.039-.469-.115-.684a1.72 1.72 0 0 0-.328-.561 1.578 1.578 0 0 0-1.2-.514Zm6.485 4.951H42.56v-6.381h1.718v6.381Zm6.353-4.852H48.32v2.331c0 .197.024.365.076.504.05.139.12.249.204.334a.773.773 0 0 0 .302.187c.117.039.241.061.373.061.207 0 .413-.044.622-.128.208-.085.401-.181.577-.287l.632 1.342c-.282.193-.59.354-.93.48-.336.128-.733.191-1.185.191-.795 0-1.39-.217-1.792-.651-.4-.435-.6-1.067-.6-1.896v-2.47h-1.23v-1.529h1.23v-1.896h1.719v1.896h2.31v1.531h.003Zm-7.222-4.654a1.077 1.077 0 0 1 .78.32 1.106 1.106 0 0 1 .32.786 1.089 1.089 0 0 1-.32.779c-.1.098-.215.176-.35.231a1.145 1.145 0 0 1-.43.082c-.154 0-.297-.028-.432-.082a1.074 1.074 0 0 1-.35-.231 1.074 1.074 0 0 1-.31-.779 1.083 1.083 0 0 1 .31-.786 1.079 1.079 0 0 1 .782-.32Zm-16.79-4.259 1.805-5.21h1.145l-2.287 6.353h-1.303l-1.82-5.169-1.812 5.169h-1.283l-2.287-6.353h1.168l1.799 5.197 1.81-5.197h1.239l1.826 5.21Zm6.924-5.342c.482 0 .927.082 1.338.249.41.168.764.4 1.066.698.302.295.537.647.706 1.049.17.404.254.842.254 1.314 0 .473-.085.91-.254 1.313-.17.404-.404.754-.706 1.052a3.258 3.258 0 0 1-1.066.695c-.41.167-.856.252-1.338.252-.482 0-.927-.085-1.338-.252-.41-.168-.764-.4-1.064-.695a3.197 3.197 0 0 1-.702-1.052 3.352 3.352 0 0 1-.254-1.313c0-.474.085-.91.254-1.314.17-.404.404-.754.702-1.049.3-.298.654-.528 1.064-.698.41-.167.856-.249 1.338-.249Zm0 1.029c-.32 0-.617.057-.888.172a2.139 2.139 0 0 0-1.18 1.19c-.113.278-.169.584-.169.919 0 .334.056.64.17.92.112.278.269.519.47.724a2.203 2.203 0 0 0 1.597.645c.317 0 .612-.057.886-.17.276-.113.513-.271.712-.475.202-.205.359-.443.474-.724.113-.278.17-.584.17-.92 0-.335-.057-.641-.17-.919a2.14 2.14 0 0 0-1.186-1.19 2.263 2.263 0 0 0-.886-.172Zm8.32-1.029c.228 0 .434.015.626.045.189.031.369.085.538.161l-.267 1.077a2.057 2.057 0 0 0-.523-.184 2.697 2.697 0 0 0-.567-.063 1.63 1.63 0 0 0-.665.134 1.475 1.475 0 0 0-.525.385c-.148.167-.26.367-.341.601-.08.235-.12.498-.12.793v3.538h-1.092v-6.353h1.077v.836c.222-.31.493-.551.812-.718.32-.17.667-.252 1.047-.252Zm3.914 6.485h-1.09v-8.879h1.09v8.879Zm4.977-6.455c.5 0 .934.089 1.306.267.369.178.682.419.936.723v-3.381h1.097v8.878h-1.097v-.849c-.254.3-.567.537-.936.715-.37.178-.806.267-1.306.267a3.17 3.17 0 0 1-1.25-.248 3.073 3.073 0 0 1-1.681-1.735 3.519 3.519 0 0 1-.244-1.327c0-.482.08-.923.244-1.327.162-.404.386-.751.67-1.047a3.103 3.103 0 0 1 1.01-.688 3.17 3.17 0 0 1 1.252-.248Zm.127 1.03c-.33 0-.63.058-.9.178-.269.117-.5.282-.69.488a2.19 2.19 0 0 0-.441.726 2.555 2.555 0 0 0-.154.89c0 .317.052.613.156.888.106.278.254.519.445.726.191.208.424.371.693.491.27.119.567.18.893.18.321 0 .614-.059.884-.174.267-.115.497-.278.688-.482.191-.206.341-.447.45-.725.106-.278.16-.58.16-.906 0-.326-.054-.626-.16-.904a2.26 2.26 0 0 0-.45-.723 2.07 2.07 0 0 0-.688-.482 2.268 2.268 0 0 0-.887-.171Z" fill="#00AF9A"/><path d="M28.75 152.381c-2.22 0-4.193-.379-5.914-1.139-1.72-.759-3.101-1.814-4.144-3.17-1.043-1.354-1.729-2.927-2.054-4.714l4.958-1.26c.244 1.22.683 2.263 1.322 3.129a6.248 6.248 0 0 0 2.438 1.992c.988.461 2.105.69 3.353.69 1.841 0 3.353-.367 4.531-1.097 1.179-.732 1.768-1.775 1.768-3.129 0-.868-.251-1.558-.752-2.073-.5-.515-1.26-.942-2.276-1.28-1.015-.338-2.485-.698-4.408-1.077-2.221-.488-4.043-1.043-5.466-1.667-1.422-.624-2.527-1.469-3.31-2.539-.787-1.07-1.18-2.446-1.18-4.125 0-1.76.462-3.277 1.384-4.551.92-1.272 2.201-2.241 3.839-2.907 1.64-.663 3.53-.996 5.67-.996 1.95 0 3.671.338 5.163 1.016 1.491.678 2.71 1.62 3.659 2.825.946 1.206 1.624 2.609 2.031 4.206l-4.714 1.341c-.46-1.624-1.218-2.872-2.276-3.74-1.057-.868-2.384-1.299-3.984-1.299-1.679 0-3.042.34-4.083 1.016-1.042.678-1.565 1.57-1.565 2.682 0 .76.237 1.376.713 1.849.473.474 1.163.868 2.073 1.179.907.31 2.229.658 3.962 1.035 2.411.488 4.369 1.058 5.873 1.706 1.504.651 2.682 1.539 3.535 2.663.853 1.124 1.28 2.609 1.28 4.45 0 1.815-.489 3.4-1.465 4.756-.976 1.356-2.322 2.399-4.043 3.129-1.724.734-3.696 1.099-5.917 1.099ZM51.551 152.179c-2.167 0-3.725-.5-4.674-1.504-.95-1.001-1.423-2.438-1.423-4.307v-11.462h-3.25v-3.819h3.25v-5.365h4.675v5.365h4.307v3.819h-4.307v11.218c0 .732.217 1.26.65 1.585.434.326 1.07.489 1.911.489.434 0 1.016-.042 1.748-.124v3.698c-1.003.269-1.967.407-2.887.407ZM66.06 152.381c-1.868 0-3.523-.468-4.958-1.402-1.437-.935-2.561-2.229-3.372-3.881-.814-1.652-1.22-3.536-1.22-5.648 0-2.14.406-4.044 1.22-5.71.813-1.667 1.938-2.966 3.372-3.901 1.435-.934 3.09-1.403 4.958-1.403 1.381 0 2.656.306 3.82.915a8.743 8.743 0 0 1 2.965 2.539v-2.803h4.675v20.646h-4.675v-2.803c-.813 1.112-1.802 1.965-2.966 2.559-1.163.594-2.438.892-3.819.892Zm1.016-4.023c1.164 0 2.18-.279 3.048-.834.865-.554 1.535-1.353 2.011-2.398.474-1.043.713-2.269.713-3.679 0-2.167-.515-3.873-1.543-5.121-1.031-1.245-2.427-1.868-4.187-1.868-1.79 0-3.205.623-4.248 1.868-1.043 1.248-1.565 2.954-1.565 5.121 0 1.41.236 2.636.712 3.679.473 1.042 1.151 1.844 2.032 2.398.88.555 1.888.834 3.027.834ZM81.341 151.731v-20.646h4.675v3.617c.542-1.221 1.28-2.16 2.214-2.826.934-.663 2.039-.996 3.311-.996.271 0 .508.008.713.02.204.015.426.047.67.101v4.43a7.114 7.114 0 0 0-1.383-.123c-1.652 0-2.986.57-4.001 1.706-1.016 1.139-1.524 2.697-1.524 4.675v10.039H81.34v.003ZM95.727 151.73v-29.464h4.633v29.464h-4.633ZM106.578 128.24a2.867 2.867 0 0 1-2.133-.895 2.968 2.968 0 0 1-.875-2.155c0-.838.291-1.566.875-2.175a2.836 2.836 0 0 1 2.133-.914c.838 0 1.566.305 2.175.914.611.609.914 1.334.914 2.175 0 .841-.305 1.558-.914 2.155-.609.596-1.334.895-2.175.895Zm-2.357 2.845h4.714v20.645h-4.714v-20.645ZM112.796 131.085h4.674v3.008c.676-1.164 1.571-2.066 2.683-2.703 1.109-.636 2.384-.954 3.819-.954 2.329 0 4.151.752 5.465 2.256 1.315 1.504 1.97 3.585 1.97 6.238v12.803h-4.714v-12.478c0-1.57-.352-2.771-1.057-3.597-.705-.826-1.748-1.24-3.129-1.24-.976 0-1.841.264-2.601.794-.759.528-1.356 1.267-1.787 2.214-.434.949-.651 2.059-.651 3.333v10.974h-4.672v-20.648ZM145.066 160.103c-2.411 0-4.492-.527-6.24-1.585-1.748-1.058-2.904-2.547-3.474-4.47l4.47-1.178c.407 1.109 1.07 1.95 1.992 2.519.92.57 2.044.853 3.373.853 1.139 0 2.105-.202 2.907-.609a4.144 4.144 0 0 0 1.829-1.807c.419-.799.631-1.782.631-2.946v-2.724a8.532 8.532 0 0 1-2.946 2.398c-1.151.57-2.419.854-3.799.854-1.844 0-3.481-.439-4.919-1.322-1.437-.88-2.561-2.113-3.373-3.698-.813-1.585-1.22-3.395-1.22-5.427 0-2.031.407-3.846 1.22-5.446.814-1.597 1.938-2.845 3.373-3.74 1.435-.895 3.075-1.341 4.919-1.341 1.38 0 2.655.283 3.819.853a7.98 7.98 0 0 1 2.926 2.438v-2.64h4.633v19.711c0 1.923-.414 3.582-1.24 4.978-.826 1.395-2.005 2.465-3.536 3.21-1.531.747-3.313 1.119-5.345 1.119Zm-.244-12.517c1.164 0 2.175-.271 3.028-.814.853-.542 1.516-1.306 1.992-2.295.473-.989.712-2.16.712-3.516 0-2.058-.508-3.683-1.523-4.876-1.016-1.194-2.407-1.788-4.165-1.788-1.789 0-3.197.597-4.225 1.788-1.031 1.193-1.546 2.818-1.546 4.876 0 1.356.237 2.527.712 3.516.474.989 1.144 1.756 2.012 2.295.861.543 1.864.814 3.003.814ZM18.672 198.027v-28.612H32.41c1.678 0 3.143.326 4.388.977s2.194 1.543 2.845 2.682c.651 1.139.976 2.399.976 3.78 0 1.38-.352 2.608-1.057 3.678-.705 1.07-1.667 1.876-2.885 2.419 1.598.542 2.826 1.43 3.679 2.662.853 1.233 1.28 2.69 1.28 4.369 0 1.519-.346 2.892-1.036 4.125-.69 1.233-1.674 2.194-2.947 2.884-1.272.691-2.763 1.036-4.47 1.036H18.673Zm12.924-16.541c1.326 0 2.37-.372 3.128-1.117.757-.744 1.14-1.728 1.14-2.946 0-1.245-.38-2.221-1.14-2.926-.759-.705-1.829-1.058-3.21-1.058H23.51v8.047h8.087Zm.488 12.517c1.462 0 2.608-.392 3.434-1.178.826-.787 1.24-1.857 1.24-3.21 0-1.356-.411-2.439-1.24-3.252-.825-.814-1.972-1.22-3.434-1.22h-8.575v8.86h8.575ZM53.42 198.678c-1.869 0-3.523-.469-4.958-1.403-1.437-.935-2.56-2.229-3.373-3.881-.813-1.652-1.218-3.535-1.218-5.648 0-2.14.407-4.044 1.218-5.71.814-1.667 1.938-2.966 3.373-3.901 1.435-.934 3.09-1.403 4.958-1.403 1.383 0 2.655.306 3.82.915a8.766 8.766 0 0 1 2.968 2.54v-2.804h4.674v20.646h-4.675v-2.803c-.813 1.112-1.802 1.965-2.968 2.559-1.164.594-2.436.893-3.819.893Zm1.016-4.024c1.164 0 2.182-.279 3.047-.833.868-.555 1.539-1.354 2.012-2.399.473-1.043.713-2.268.713-3.679 0-2.167-.516-3.873-1.546-5.121-1.03-1.245-2.426-1.868-4.187-1.868-1.787 0-3.205.623-4.245 1.868-1.043 1.248-1.566 2.954-1.566 5.121 0 1.411.237 2.636.713 3.679.473 1.043 1.151 1.844 2.031 2.399.88.557 1.889.833 3.028.833ZM68.7 177.381h4.675v3.008c.676-1.164 1.57-2.066 2.683-2.702 1.11-.637 2.384-.955 3.819-.955 2.33 0 4.152.752 5.466 2.256 1.314 1.504 1.97 3.585 1.97 6.238v12.803h-4.714v-12.478c0-1.57-.353-2.771-1.058-3.597-.705-.826-1.748-1.24-3.129-1.24-.976 0-1.841.264-2.6.794-.76.528-1.357 1.267-1.788 2.214-.434.949-.651 2.059-.651 3.333v10.974h-4.672v-20.648ZM91.176 168.562h4.633v16.664l8.047-7.843h5.895l-8.698 8.575 8.9 12.071h-5.528l-6.585-8.9-2.031 1.992v6.908h-4.633v-29.467Z" fill="#fff"/><path d="M103.666 38.311a4.03 4.03 0 0 1 4.031-4.03h20.944a4.03 4.03 0 0 1 4.031 4.03v31.852a4.03 4.03 0 0 1-4.031 4.031h-20.944a4.03 4.03 0 0 1-4.031-4.03V38.31Z" fill="#A4A167"/><path d="M114.976 34.535a.87.87 0 0 0-.869.87V46.47c0 .48.389.87.869.87h6.402a.87.87 0 0 0 .869-.87V35.405a.87.87 0 0 0-.869-.87h-6.402Z" fill="url(#kite_svg__b)"/><path d="M122.635 46.531V35.466c0-.696.606-.896.909-.909h4.821a4.03 4.03 0 0 1 4.031 4.03v5.968c0 1.581-1.318 1.976-1.976 1.976h-3.399c-.566.026-1.802.135-2.213.356-.514.276-.711.276-1.264.276-.443 0-.909 0-.909-.632Z" fill="url(#kite_svg__c)"/><path d="M113.664 35.466v11.065c0 .568-.466.633-.909.633-.553 0-.751 0-1.265-.277-.411-.221-1.646-.33-2.213-.356h-3.398c-.659 0-1.976-.395-1.976-1.976v-5.967a4.03 4.03 0 0 1 4.031-4.03h4.821c.303.012.909.212.909.908Z" fill="url(#kite_svg__d)"/><path d="M103.942 48.981c0-1.58 1.37-2.028 2.055-2.055h3.32c.869 0 2.137.26 2.371.435.474.356 1.317.343 1.818.316h9.369c.5.027 1.343.04 1.818-.316.234-.175 1.501-.435 2.371-.435h3.319c.685.027 2.055.475 2.055 2.055v10.394c0 1.58-1.37 2.028-2.055 2.055h-1.86c-.092 0-.277.055-.277.276 0 .168.106.225.197.237h1.977c.658 0 1.976.396 1.976 1.976v5.968a4.03 4.03 0 0 1-4.031 4.03h-4.821c-.303-.013-.909-.213-.909-.908V62.062c0-.57-.317-1.067-1.028-1.067a6267 6267 0 0 1-8.101-.04c-.501-.026-1.344-.04-1.818.317-.234.175-1.502.434-2.371.434h-3.32c-.685-.026-2.055-.474-2.055-2.055v-10.67Z" fill="url(#kite_svg__e)"/><path d="M113.664 73.088V62.022c0-.538-.466-.632-.909-.632-.553 0-.751 0-1.265.277-.411.221-1.646.33-2.213.355h-3.398c-.659 0-1.976.396-1.976 1.976v5.968a4.031 4.031 0 0 0 4.031 4.03h4.821c.303-.013.909-.213.909-.908Z" fill="url(#kite_svg__f)"/><path d="M114.099 62.18c0-.48.389-.869.869-.869h6.402c.48 0 .869.39.869.87v10.907a.87.87 0 0 1-.869.869h-6.402a.87.87 0 0 1-.869-.87V62.18Z" fill="url(#kite_svg__g)"/><path d="M146.281 53.797c.238.324.427.681.551 1.064.13.385.204.798.204 1.23 0 .432-.074.844-.204 1.23-.124.38-.315.742-.555 1.063a.99.99 0 0 0 .204 1.38.99.99 0 0 0 1.38-.206 5.937 5.937 0 0 0 .845-1.608 5.976 5.976 0 0 0 .002-3.717 5.968 5.968 0 0 0-.847-1.608.982.982 0 0 0-1.376-.204.98.98 0 0 0-.204 1.376ZM149.655 51.96a7.829 7.829 0 0 1 1.172 4.13 7.807 7.807 0 0 1-1.172 4.132.994.994 0 0 0 .325 1.358.989.989 0 0 0 1.358-.324 9.778 9.778 0 0 0 1.459-5.165 9.784 9.784 0 0 0-1.459-5.166.984.984 0 0 0-1.358-.32.991.991 0 0 0-.325 1.354ZM153.239 50.085a11.836 11.836 0 0 1 1.624 6.004 11.8 11.8 0 0 1-1.626 6.001.987.987 0 0 0 .358 1.351.985.985 0 0 0 1.349-.355 13.813 13.813 0 0 0 1.887-6.997c0-2.549-.687-4.944-1.887-6.997a.987.987 0 0 0-1.705.993Z" fill="#00AF9A"/><path d="M156.812 48.206a15.885 15.885 0 0 1 2.078 7.883 15.908 15.908 0 0 1-2.078 7.884.982.982 0 0 0 .37 1.342.983.983 0 0 0 1.342-.366 17.842 17.842 0 0 0 2.338-8.858c0-3.22-.849-6.244-2.338-8.859a.984.984 0 0 0-1.712.974Z" fill="#00AF9A"/><defs><linearGradient id="kite_svg__b" x1="118.169" y1="61.324" x2="118.169" y2="73.957" gradientUnits="userSpaceOnUse"><stop stop-color="#EAD283"/><stop offset="1" stop-color="#F3E18D"/></linearGradient><linearGradient id="kite_svg__c" x1="118.169" y1="61.324" x2="118.169" y2="73.957" gradientUnits="userSpaceOnUse"><stop stop-color="#EAD283"/><stop offset="1" stop-color="#F3E18D"/></linearGradient><linearGradient id="kite_svg__d" x1="118.169" y1="61.324" x2="118.169" y2="73.957" gradientUnits="userSpaceOnUse"><stop stop-color="#EAD283"/><stop offset="1" stop-color="#F3E18D"/></linearGradient><linearGradient id="kite_svg__e" x1="118.169" y1="61.324" x2="118.169" y2="73.957" gradientUnits="userSpaceOnUse"><stop stop-color="#EAD283"/><stop offset="1" stop-color="#F3E18D"/></linearGradient><linearGradient id="kite_svg__f" x1="118.169" y1="61.324" x2="118.169" y2="73.957" gradientUnits="userSpaceOnUse"><stop stop-color="#EAD283"/><stop offset="1" stop-color="#F3E18D"/></linearGradient><linearGradient id="kite_svg__g" x1="118.169" y1="61.324" x2="118.169" y2="73.957" gradientUnits="userSpaceOnUse"><stop stop-color="#EAD283"/><stop offset="1" stop-color="#F3E18D"/></linearGradient></defs></svg>