<svg class="_11239p80" xmlns="http://www.w3.org/2000/svg" fill="none" viewBox="0 0 320 467"><g transform-origin="160px 100.24099731445312px" style="transform: translateY(247px); transform-origin: 160px 100.241px;"><path fill="url(#paint0_linear_216_4066)" d="M320 188.689c0 6.514-5.307 11.793-11.852 11.793H11.852C5.307 200.482 0 195.201 0 188.689V11.793C0 5.28 5.307 0 11.852 0h296.296C314.693 0 320 5.28 320 11.793v176.896z"/><path fill="#fff" d="M126.739 40.418V19.935h9.912c1.212 0 2.268.233 3.167.697.9.466 1.584 1.106 2.052 1.92.47.816.703 1.717.703 2.706 0 .99-.254 1.867-.762 2.633-.508.768-1.202 1.343-2.083 1.732 1.154.388 2.038 1.023 2.654 1.906.615.884.924 1.925.924 3.128 0 1.086-.25 2.07-.749 2.953a5.223 5.223 0 01-2.126 2.066c-.919.495-1.993.742-3.225.742h-10.467zm9.325-11.842c.958 0 1.711-.266 2.259-.8.547-.534.822-1.238.822-2.11 0-.893-.275-1.59-.822-2.095-.548-.504-1.32-.757-2.316-.757h-5.777v5.762h5.834zm.354 8.962c1.055 0 1.881-.28 2.477-.843.597-.563.894-1.33.894-2.298 0-.971-.297-1.747-.894-2.329-.596-.582-1.422-.872-2.477-.872h-6.188v6.344h6.188v-.002zM151.813 40.885c-1.349 0-2.541-.335-3.577-1.004-1.038-.67-1.848-1.596-2.435-2.779-.586-1.183-.879-2.53-.879-4.044 0-1.532.293-2.896.879-4.088.587-1.193 1.397-2.124 2.435-2.793 1.036-.67 2.228-1.004 3.577-1.004.998 0 1.917.219 2.756.655a6.31 6.31 0 012.142 1.82v-2.009h3.373V40.42h-3.373v-2.008a6.025 6.025 0 01-2.142 1.834 6.013 6.013 0 01-2.756.639zm.734-2.882c.841 0 1.574-.198 2.199-.596.625-.397 1.11-.97 1.452-1.716.342-.747.513-1.624.513-2.633 0-1.55-.373-2.773-1.114-3.666-.744-.892-1.751-1.339-3.021-1.339-1.29 0-2.312.447-3.065 1.339-.753.893-1.128 2.114-1.128 3.666 0 1.009.171 1.888.513 2.633.342.747.831 1.32 1.466 1.716.636.398 1.363.596 2.185.596zM162.842 25.638h3.372v2.153a5.194 5.194 0 011.936-1.934c.801-.456 1.72-.684 2.756-.684 1.682 0 2.996.538 3.945 1.615.948 1.076 1.423 2.566 1.423 4.465v9.166h-3.402v-8.932c0-1.125-.254-1.984-.762-2.576-.509-.591-1.262-.888-2.259-.888-.703 0-1.33.189-1.877.568-.548.377-.978.907-1.29 1.586-.313.678-.47 1.475-.47 2.386v7.857h-3.372V25.638zM179.056 40.419V19.324h3.343v11.93l5.807-5.616h4.254l-6.276 6.139 6.423 8.642h-3.99l-4.751-6.373-1.465 1.426v4.947h-3.345zM27.836 41.248c-1.603 0-3.026-.273-4.268-.816-1.242-.542-2.24-1.298-2.99-2.269-.753-.969-1.247-2.095-1.482-3.375l3.577-.902c.176.872.494 1.619.953 2.24a4.508 4.508 0 001.76 1.426c.713.33 1.52.495 2.42.495 1.33 0 2.42-.261 3.27-.785.85-.523 1.276-1.27 1.276-2.24 0-.62-.18-1.116-.543-1.485-.362-.368-.91-.674-1.644-.917-.733-.242-1.793-.5-3.182-.77-1.604-.35-2.918-.748-3.945-1.193-1.026-.446-1.823-1.052-2.39-1.82-.567-.765-.85-1.75-.85-2.952 0-1.261.332-2.347.997-3.26.665-.911 1.587-1.604 2.77-2.08s2.547-.712 4.09-.712c1.409 0 2.65.243 3.725.728 1.076.485 1.955 1.16 2.64 2.022.683.863 1.173 1.867 1.465 3.012l-3.403.96c-.332-1.165-.88-2.056-1.642-2.678-.762-.62-1.721-.93-2.874-.93-1.211 0-2.194.242-2.947.727-.753.485-1.129 1.126-1.129 1.92 0 .543.171.985.513 1.325.342.34.841.622 1.496.844.654.223 1.609.47 2.86.742 1.74.349 3.154.756 4.238 1.22 1.085.467 1.935 1.103 2.55 1.907.616.806.925 1.867.925 3.186 0 1.3-.352 2.435-1.057 3.405-.703.97-1.677 1.716-2.917 2.241-1.236.522-2.658.784-4.262.784zM44.29 41.102c-1.566 0-2.69-.358-3.373-1.077-.685-.716-1.027-1.746-1.027-3.084v-8.204h-2.345v-2.734h2.345v-3.841h3.373v3.84h3.108v2.735h-3.108v8.03c0 .524.157.903.468 1.136.312.233.773.35 1.378.35a12 12 0 001.261-.088v2.648a8.115 8.115 0 01-2.08.29zM54.76 41.248c-1.35 0-2.542-.335-3.578-1.004-1.037-.67-1.847-1.595-2.434-2.779-.587-1.183-.88-2.53-.88-4.044 0-1.532.295-2.895.88-4.088.587-1.193 1.397-2.124 2.434-2.793 1.036-.67 2.229-1.004 3.578-1.004.997 0 1.916.22 2.756.655a6.293 6.293 0 012.14 1.82v-2.008h3.373v14.78h-3.373v-2.008a6.019 6.019 0 01-2.14 1.834c-.841.425-1.76.639-2.756.639zm.732-2.88c.84 0 1.573-.198 2.2-.596.624-.397 1.109-.97 1.45-1.716.343-.747.514-1.624.514-2.633 0-1.551-.37-2.774-1.114-3.667-.743-.891-1.75-1.338-3.021-1.338-1.292 0-2.313.447-3.066 1.338-.753.893-1.129 2.114-1.129 3.667 0 1.009.171 1.887.513 2.633.343.747.832 1.32 1.466 1.716.636.396 1.365.596 2.187.596zM65.786 26h3.373v2.59c.391-.872.924-1.546 1.598-2.022.675-.476 1.47-.712 2.39-.712.195 0 .366.005.513.014.147.01.309.034.484.073v3.172a5.114 5.114 0 00-.997-.087c-1.192 0-2.155.408-2.888 1.223-.734.815-1.1 1.93-1.1 3.346v7.188h-3.373V26zM76.167 40.782V19.687h3.342v21.095h-3.342zM83.997 23.964c-.606 0-1.12-.212-1.539-.64a2.117 2.117 0 01-.631-1.542c0-.6.209-1.12.631-1.556a2.055 2.055 0 011.54-.655c.605 0 1.128.22 1.567.655.44.437.66.955.66 1.556 0 .601-.22 1.115-.66 1.542-.44.428-.962.64-1.568.64zm-1.7 2.037H85.7v14.78h-3.404v-14.78zM88.484 26h3.373v2.154a5.19 5.19 0 011.936-1.934c.8-.455 1.72-.684 2.757-.684 1.682 0 2.996.538 3.945 1.615.948 1.076 1.423 2.566 1.423 4.466v9.165h-3.402V31.85c0-1.125-.254-1.984-.762-2.576-.508-.591-1.261-.888-2.259-.888-.703 0-1.33.189-1.877.568-.548.377-.978.907-1.29 1.586-.313.678-.47 1.475-.47 2.387v7.856h-3.374V26.001zM111.77 46.776c-1.741 0-3.242-.38-4.503-1.136-1.261-.756-2.097-1.823-2.508-3.2l3.226-.844c.292.795.772 1.398 1.437 1.804.665.407 1.475.61 2.433.61.821 0 1.52-.146 2.097-.436a2.982 2.982 0 001.32-1.294c.302-.573.454-1.275.454-2.11v-1.949a6.129 6.129 0 01-2.126 1.717c-.831.407-1.745.61-2.743.61-1.33 0-2.513-.316-3.549-.945-1.037-.63-1.847-1.513-2.434-2.647-.587-1.136-.879-2.43-.879-3.884 0-1.454.294-2.755.879-3.898.587-1.145 1.397-2.037 2.434-2.677 1.036-.64 2.219-.96 3.549-.96.998 0 1.917.203 2.758.61.84.409 1.544.99 2.111 1.747v-1.89h3.344v14.111c0 1.377-.299 2.564-.895 3.564-.596.999-1.447 1.765-2.551 2.298-1.102.53-2.387.799-3.854.799zm-.176-8.962c.841 0 1.568-.194 2.185-.582.616-.389 1.095-.936 1.437-1.645.342-.707.513-1.546.513-2.517 0-1.473-.366-2.637-1.099-3.492-.734-.853-1.736-1.28-3.006-1.28-1.291 0-2.308.427-3.05 1.28-.743.854-1.114 2.018-1.114 3.492 0 .971.171 1.81.513 2.517.343.71.825 1.256 1.452 1.645.625.388 1.347.582 2.169.582zM249.841 25.242l2.482 7.039h.098l2.483-7.04h1.061l-3.07 8.363h-1.045l-3.071-8.362h1.062zM257.137 33.604v-6.272h.964v6.272h-.964zm.49-7.317a.685.685 0 01-.486-.192.618.618 0 01-.2-.461c0-.18.067-.334.2-.462a.685.685 0 01.486-.192c.188 0 .348.064.482.192a.611.611 0 01.204.462c0 .18-.068.333-.204.461a.672.672 0 01-.482.192zM259.865 33.604v-6.272h.931v.947h.066c.114-.31.321-.562.62-.755.3-.193.637-.29 1.013-.29.071 0 .159.002.265.004.106.003.187.007.241.012v.98a2.8 2.8 0 00-.224-.036 2.218 2.218 0 00-.364-.029c-.305 0-.577.064-.816.192a1.41 1.41 0 00-.768 1.278v3.969h-.964zM267.264 27.332v.817h-3.25v-.817h3.25zm-2.303-1.502h.964v5.977c0 .272.039.476.118.613a.615.615 0 00.31.269c.128.044.263.065.405.065.106 0 .193-.005.261-.016l.163-.033.196.866a1.939 1.939 0 01-.273.073c-.117.028-.266.041-.445.041-.273 0-.539-.058-.801-.175a1.597 1.597 0 01-.645-.535c-.169-.24-.253-.542-.253-.907V25.83zM272.666 31.04v-3.708h.963v6.272h-.963v-1.062h-.066c-.147.319-.375.59-.686.813-.31.22-.702.33-1.176.33-.392 0-.74-.086-1.045-.257a1.797 1.797 0 01-.718-.784c-.175-.351-.262-.793-.262-1.327v-3.985h.964v3.92c0 .457.128.822.384 1.094.258.272.588.408.988.408.239 0 .483-.06.731-.183.25-.123.46-.31.628-.564.172-.253.258-.575.258-.967zM277.239 33.75a2.55 2.55 0 01-1.082-.224 1.857 1.857 0 01-.771-.657c-.191-.289-.286-.637-.286-1.046 0-.359.071-.65.212-.873.142-.226.331-.403.568-.531.237-.128.498-.223.784-.286.288-.065.578-.117.869-.155.381-.05.69-.086.927-.11.24-.027.414-.072.523-.135.111-.063.167-.172.167-.327v-.032c0-.403-.11-.716-.33-.94-.218-.223-.549-.334-.993-.334-.46 0-.82.1-1.082.302-.261.201-.445.416-.551.645l-.914-.327c.163-.38.381-.677.653-.89.275-.215.574-.364.898-.449.327-.087.648-.13.964-.13.201 0 .433.024.694.073.264.046.518.143.763.29a1.7 1.7 0 01.617.665c.163.297.245.695.245 1.193v4.132h-.964v-.85h-.049a1.694 1.694 0 01-.326.437 1.896 1.896 0 01-.609.396c-.253.11-.562.164-.927.164zm.147-.865c.381 0 .703-.075.964-.225a1.526 1.526 0 00.8-1.326v-.882c-.041.049-.13.093-.269.134a4.545 4.545 0 01-.474.102 22.348 22.348 0 01-.923.123c-.25.032-.484.086-.702.16-.215.07-.389.177-.522.322-.131.141-.196.334-.196.58 0 .334.123.587.371.759.251.169.568.253.951.253zM282.836 25.242v8.362h-.963v-8.362h.963zM289.759 30.172a.805.805 0 010-1.137l6.826-6.826a.805.805 0 011.138 0l6.826 6.826a.805.805 0 010 1.137l-6.826 6.826a.805.805 0 01-1.138 0l-6.826-6.826z"/></g><g transform-origin="160px 164.24099731445312px" style="transform: translateY(182px); transform-origin: 160px 164.241px;"><path fill="url(#paint1_linear_216_4066)" d="M320 252.689c0 6.514-5.307 11.793-11.852 11.793H11.852C5.307 264.482 0 259.201 0 252.689V75.793C0 69.28 5.307 64 11.852 64h296.296C314.693 64 320 69.28 320 75.793v176.896z"/><path fill="#fff" d="M27.836 108.248c-1.603 0-3.026-.273-4.268-.816-1.242-.542-2.24-1.298-2.99-2.269-.753-.969-1.247-2.095-1.482-3.375l3.577-.902c.176.872.494 1.619.953 2.241a4.5 4.5 0 001.76 1.425c.713.33 1.52.495 2.42.495 1.33 0 2.42-.261 3.27-.785.85-.523 1.276-1.27 1.276-2.241 0-.62-.18-1.115-.543-1.484-.362-.368-.91-.674-1.644-.917-.733-.242-1.793-.5-3.182-.77-1.604-.35-2.918-.747-3.945-1.193-1.026-.446-1.823-1.052-2.39-1.82-.567-.765-.85-1.75-.85-2.952 0-1.261.332-2.347.997-3.26.665-.911 1.587-1.604 2.77-2.08s2.547-.712 4.09-.712c1.409 0 2.65.243 3.725.728 1.076.485 1.955 1.16 2.64 2.022.683.863 1.173 1.867 1.465 3.012l-3.403.96c-.332-1.165-.88-2.056-1.642-2.678-.762-.62-1.721-.93-2.874-.93-1.211 0-2.194.242-2.947.727-.753.485-1.129 1.126-1.129 1.92 0 .543.171.985.513 1.325.342.34.841.621 1.496.844.654.223 1.609.47 2.86.742 1.74.349 3.154.756 4.238 1.22 1.085.467 1.935 1.103 2.55 1.907.616.806.925 1.867.925 3.186 0 1.301-.352 2.435-1.057 3.405-.703.971-1.677 1.716-2.917 2.241-1.236.522-2.658.784-4.262.784zM44.29 108.102c-1.566 0-2.69-.358-3.373-1.077-.685-.717-1.027-1.746-1.027-3.084v-8.204h-2.345v-2.734h2.345v-3.841h3.373v3.84h3.108v2.735h-3.108v8.031c0 .523.157.902.468 1.135.312.233.773.349 1.378.349.314 0 .734-.028 1.261-.087v2.648a8.111 8.111 0 01-2.08.289zM54.76 108.248c-1.35 0-2.542-.335-3.578-1.004-1.037-.669-1.847-1.595-2.434-2.779-.587-1.183-.88-2.531-.88-4.044 0-1.532.295-2.896.88-4.088.587-1.193 1.397-2.124 2.434-2.793 1.036-.67 2.229-1.004 3.578-1.004.997 0 1.916.219 2.756.655a6.293 6.293 0 012.14 1.82v-2.009h3.373v14.781h-3.373v-2.008a6.016 6.016 0 01-2.14 1.834c-.841.425-1.76.639-2.756.639zm.732-2.88c.84 0 1.573-.198 2.2-.596.624-.397 1.109-.969 1.45-1.716.343-.747.514-1.624.514-2.633 0-1.551-.37-2.774-1.114-3.667-.743-.891-1.75-1.338-3.021-1.338-1.292 0-2.313.447-3.066 1.338-.753.893-1.129 2.114-1.129 3.667 0 1.009.171 1.887.513 2.633.343.747.832 1.319 1.466 1.716.636.396 1.365.596 2.187.596zM65.786 93h3.373v2.59c.391-.872.924-1.546 1.598-2.022.675-.475 1.47-.712 2.39-.712.195 0 .366.005.513.015.147.009.309.033.484.072v3.172a5.114 5.114 0 00-.997-.087c-1.192 0-2.155.408-2.888 1.223-.734.815-1.1 1.93-1.1 3.346v7.187h-3.373V93zM76.167 107.782V86.687h3.342v21.095h-3.342zM83.997 90.964c-.606 0-1.12-.212-1.539-.64a2.117 2.117 0 01-.631-1.542c0-.6.209-1.12.631-1.556a2.055 2.055 0 011.54-.655c.605 0 1.128.22 1.567.655.44.436.66.955.66 1.556 0 .601-.22 1.115-.66 1.542-.44.428-.962.64-1.568.64zm-1.7 2.037H85.7v14.781h-3.404V93.001zM88.484 93h3.373v2.154a5.19 5.19 0 011.936-1.934c.8-.455 1.72-.684 2.757-.684 1.682 0 2.996.538 3.945 1.615.948 1.077 1.423 2.566 1.423 4.466v9.165h-3.402V98.85c0-1.125-.254-1.984-.762-2.576-.508-.591-1.261-.888-2.259-.888-.703 0-1.33.189-1.877.568-.548.377-.978.907-1.29 1.586-.313.678-.47 1.475-.47 2.387v7.856h-3.374V93.001zM111.77 113.776c-1.741 0-3.242-.379-4.503-1.136-1.261-.756-2.097-1.823-2.508-3.2l3.226-.844c.292.795.772 1.398 1.437 1.804.665.407 1.475.61 2.433.61.821 0 1.52-.146 2.097-.436a2.98 2.98 0 001.32-1.294c.302-.573.454-1.275.454-2.109v-1.949a6.13 6.13 0 01-2.126 1.715c-.831.408-1.745.611-2.743.611-1.33 0-2.513-.316-3.549-.945-1.037-.63-1.847-1.513-2.434-2.647-.587-1.136-.879-2.43-.879-3.884 0-1.454.294-2.755.879-3.898.587-1.145 1.397-2.037 2.434-2.677 1.036-.64 2.219-.96 3.549-.96.998 0 1.917.203 2.758.61.84.408 1.544.99 2.111 1.747v-1.89h3.344v14.111c0 1.377-.299 2.565-.895 3.564-.596.999-1.447 1.765-2.551 2.298-1.102.531-2.387.799-3.854.799zm-.176-8.962c.841 0 1.568-.194 2.185-.582.616-.389 1.095-.936 1.437-1.645.342-.707.513-1.546.513-2.517 0-1.473-.366-2.637-1.099-3.492-.734-.853-1.736-1.28-3.006-1.28-1.291 0-2.308.427-3.05 1.28-.743.853-1.114 2.017-1.114 3.492 0 .971.171 1.81.513 2.517.343.709.825 1.256 1.452 1.645.625.388 1.347.582 2.169.582zM126.739 107.418V86.934h9.912c1.212 0 2.268.234 3.167.698.9.466 1.584 1.106 2.052 1.92.47.816.703 1.717.703 2.706 0 .99-.254 1.867-.762 2.633-.508.768-1.202 1.343-2.083 1.732 1.154.388 2.038 1.023 2.654 1.906.615.883.924 1.925.924 3.128 0 1.086-.25 2.071-.749 2.953a5.225 5.225 0 01-2.126 2.066c-.919.495-1.993.742-3.225.742h-10.467zm9.325-11.842c.958 0 1.711-.266 2.259-.8.547-.534.822-1.238.822-2.11 0-.893-.275-1.59-.822-2.095-.548-.504-1.32-.757-2.316-.757h-5.777v5.762h5.834zm.354 8.962c1.055 0 1.881-.281 2.477-.844.597-.563.894-1.329.894-2.298 0-.97-.297-1.746-.894-2.328-.596-.582-1.422-.872-2.477-.872h-6.188v6.344h6.188v-.002zM151.813 107.885c-1.349 0-2.541-.335-3.577-1.004-1.038-.669-1.848-1.596-2.435-2.779-.586-1.183-.879-2.531-.879-4.044 0-1.532.293-2.896.879-4.088.587-1.193 1.397-2.124 2.435-2.793 1.036-.67 2.228-1.004 3.577-1.004.998 0 1.917.219 2.756.655a6.31 6.31 0 012.142 1.82v-2.009h3.373v14.781h-3.373v-2.008a6.032 6.032 0 01-2.142 1.834 6.013 6.013 0 01-2.756.639zm.734-2.882c.841 0 1.574-.198 2.199-.596.625-.397 1.11-.969 1.452-1.716.342-.747.513-1.624.513-2.633 0-1.55-.373-2.774-1.114-3.666-.744-.892-1.751-1.339-3.021-1.339-1.29 0-2.312.447-3.065 1.339-.753.892-1.128 2.114-1.128 3.666 0 1.009.171 1.888.513 2.633.342.747.831 1.319 1.466 1.716.636.398 1.363.596 2.185.596zM162.842 92.638h3.372v2.153a5.194 5.194 0 011.936-1.934c.801-.456 1.72-.684 2.756-.684 1.682 0 2.996.538 3.945 1.614.948 1.077 1.423 2.567 1.423 4.466v9.166h-3.402v-8.932c0-1.125-.254-1.984-.762-2.576-.509-.591-1.262-.888-2.259-.888-.703 0-1.33.189-1.877.568-.548.377-.978.907-1.29 1.586-.313.678-.47 1.475-.47 2.386v7.857h-3.372V92.638zM179.056 107.371V86.277h3.343v11.929l5.807-5.616h4.254l-6.276 6.14 6.423 8.641h-3.99l-4.751-6.372-1.466 1.425v4.947h-3.344zM246.472 95.151l2.483 7.039h.098l2.482-7.039h1.062l-3.071 8.362h-1.045l-3.07-8.362h1.061zM253.768 103.513v-6.272h.964v6.272h-.964zm.49-7.317a.684.684 0 01-.485-.192.615.615 0 01-.201-.461c0-.18.067-.334.201-.461a.684.684 0 01.485-.192.67.67 0 01.482.192.61.61 0 01.204.46.61.61 0 01-.204.462.67.67 0 01-.482.192zM256.497 103.513v-6.272h.931v.948h.065c.114-.31.321-.562.621-.756.299-.193.637-.29 1.012-.29.071 0 .159.002.266.004.106.003.186.007.241.013v.98a2.928 2.928 0 00-.225-.037 2.208 2.208 0 00-.363-.029c-.305 0-.577.064-.817.192a1.44 1.44 0 00-.563.523 1.4 1.4 0 00-.205.755v3.969h-.963zM263.895 97.241v.817h-3.25v-.817h3.25zm-2.303-1.502h.964v5.977c0 .273.039.477.118.613a.613.613 0 00.311.269c.128.044.262.066.404.066a1.68 1.68 0 00.424-.049l.196.865a2.03 2.03 0 01-.718.114c-.272 0-.539-.058-.8-.175a1.59 1.59 0 01-.646-.535c-.168-.239-.253-.542-.253-.906v-6.24zM269.297 100.949v-3.708h.963v6.272h-.963v-1.062h-.065c-.147.319-.376.59-.686.813-.311.22-.703.33-1.176.33-.392 0-.741-.085-1.046-.257a1.799 1.799 0 01-.718-.784c-.174-.351-.261-.793-.261-1.327v-3.985h.963v3.92c0 .457.128.822.384 1.094.259.272.588.409.988.409.24 0 .483-.062.731-.184.25-.123.46-.31.629-.564.171-.253.257-.575.257-.967zM273.871 103.66c-.398 0-.758-.075-1.082-.225a1.855 1.855 0 01-.772-.657c-.19-.289-.286-.637-.286-1.045 0-.36.071-.651.213-.874.141-.226.33-.403.567-.531.237-.128.498-.223.784-.286.289-.065.579-.117.87-.155.381-.049.69-.086.927-.11.239-.027.413-.072.522-.135.112-.062.168-.171.168-.326v-.033c0-.403-.111-.716-.331-.94-.218-.222-.549-.334-.992-.334-.46 0-.821.1-1.082.302-.262.202-.445.417-.551.645l-.915-.326c.163-.381.381-.678.653-.89.275-.215.575-.365.898-.45.327-.087.648-.13.964-.13.201 0 .433.024.694.073.264.046.519.143.764.29.247.147.453.369.616.666.164.296.245.694.245 1.192v4.132h-.963v-.849h-.049a1.721 1.721 0 01-.327.436 1.852 1.852 0 01-.608.396c-.254.109-.562.164-.927.164zm.147-.866c.381 0 .702-.075.963-.224a1.527 1.527 0 00.801-1.327v-.882c-.041.049-.131.094-.27.135a4.573 4.573 0 01-.474.102 22.95 22.95 0 01-.922.122 3.747 3.747 0 00-.703.159 1.212 1.212 0 00-.522.323c-.131.141-.196.335-.196.58 0 .334.124.588.371.759.251.169.568.253.952.253zM279.467 95.151v8.362h-.963v-8.362h.963zM287.584 94.966c0-.914.74-1.654 1.654-1.654h9.094c.914 0 1.654.74 1.654 1.654v9.094c0 .913-.74 1.654-1.654 1.654h-9.094a1.654 1.654 0 01-1.654-1.654v-9.094z"/></g><g transform-origin="160px 233.24099731445312px" style="transform: translateY(114px); transform-origin: 160px 233.241px;"><path fill="url(#paint2_linear_216_4066)" d="M320 321.689c0 6.514-5.307 11.793-11.852 11.793H11.852C5.307 333.482 0 328.201 0 321.689V144.793C0 138.281 5.307 133 11.852 133h296.296c6.545 0 11.852 5.281 11.852 11.793v176.896z"/><path fill="#fff" d="M27.836 174.248c-1.603 0-3.026-.273-4.268-.815-1.242-.543-2.24-1.299-2.99-2.27-.753-.969-1.247-2.095-1.482-3.375l3.577-.902c.176.872.494 1.619.953 2.241a4.51 4.51 0 001.76 1.426c.713.329 1.52.494 2.42.494 1.33 0 2.42-.261 3.27-.785.85-.523 1.276-1.27 1.276-2.241 0-.62-.18-1.114-.543-1.484-.362-.368-.91-.674-1.644-.917-.733-.242-1.793-.499-3.182-.77-1.604-.349-2.918-.747-3.945-1.193-1.026-.446-1.823-1.052-2.39-1.819-.567-.766-.85-1.751-.85-2.953 0-1.261.332-2.347.997-3.259.665-.912 1.587-1.605 2.77-2.081s2.547-.712 4.09-.712c1.409 0 2.65.243 3.725.728 1.076.485 1.955 1.159 2.64 2.022.683.863 1.173 1.867 1.465 3.012l-3.403.959c-.332-1.164-.88-2.055-1.642-2.677-.762-.62-1.721-.931-2.874-.931-1.211 0-2.194.243-2.947.728-.753.485-1.129 1.126-1.129 1.921 0 .542.171.985.513 1.324.342.339.841.622 1.496.844.654.223 1.609.471 2.86.742 1.74.349 3.154.756 4.238 1.221 1.085.466 1.935 1.102 2.55 1.906.616.806.925 1.867.925 3.186 0 1.301-.352 2.435-1.057 3.405-.703.971-1.677 1.716-2.917 2.241-1.236.522-2.658.784-4.262.784zM44.29 174.102c-1.566 0-2.69-.358-3.373-1.077-.685-.716-1.027-1.746-1.027-3.084v-8.204h-2.345v-2.734h2.345v-3.841h3.373v3.841h3.108v2.734h-3.108v8.031c0 .523.157.902.468 1.135.312.234.773.349 1.378.349.314 0 .734-.028 1.261-.087v2.649a8.108 8.108 0 01-2.08.288zM54.76 174.248c-1.35 0-2.542-.335-3.578-1.004-1.037-.669-1.847-1.595-2.434-2.778-.587-1.184-.88-2.532-.88-4.045 0-1.532.295-2.895.88-4.088.587-1.193 1.397-2.124 2.434-2.793 1.036-.669 2.229-1.004 3.578-1.004a5.89 5.89 0 012.756.655 6.298 6.298 0 012.14 1.819v-2.007h3.373v14.78h-3.373v-2.007a6.023 6.023 0 01-2.14 1.833c-.841.425-1.76.639-2.756.639zm.732-2.88c.84 0 1.573-.198 2.2-.596.624-.397 1.109-.969 1.45-1.716.343-.747.514-1.624.514-2.633 0-1.551-.37-2.774-1.114-3.667-.743-.891-1.75-1.338-3.021-1.338-1.292 0-2.313.447-3.066 1.338-.753.893-1.129 2.114-1.129 3.667 0 1.009.171 1.887.513 2.633.343.747.832 1.319 1.466 1.716.636.396 1.365.596 2.187.596zM65.786 159.001h3.373v2.589c.391-.872.924-1.546 1.598-2.022.675-.475 1.47-.712 2.39-.712.195 0 .366.005.513.015.147.009.309.033.484.073v3.171a5.17 5.17 0 00-.997-.087c-1.192 0-2.155.408-2.888 1.223-.734.815-1.1 1.93-1.1 3.346v7.188h-3.373v-14.784zM76.167 173.782v-21.095h3.342v21.095h-3.342zM83.997 156.965c-.606 0-1.12-.213-1.539-.641a2.12 2.12 0 01-.631-1.542c0-.601.209-1.119.631-1.555a2.052 2.052 0 011.54-.655c.605 0 1.128.218 1.567.655.44.436.66.954.66 1.555s-.22 1.115-.66 1.542a2.17 2.17 0 01-1.568.641zm-1.7 2.036H85.7v14.781h-3.404v-14.781zM88.484 159.001h3.373v2.154a5.184 5.184 0 011.936-1.935c.8-.455 1.72-.684 2.757-.684 1.682 0 2.996.538 3.945 1.615.948 1.077 1.423 2.566 1.423 4.466v9.165h-3.402v-8.932c0-1.125-.254-1.984-.762-2.576-.508-.591-1.261-.888-2.259-.888-.703 0-1.33.189-1.877.568-.548.377-.978.907-1.29 1.586-.313.679-.47 1.475-.47 2.387v7.856h-3.374v-14.782zM111.77 179.776c-1.741 0-3.242-.379-4.503-1.135-1.261-.757-2.097-1.824-2.508-3.201l3.226-.844c.292.795.772 1.398 1.437 1.804.665.407 1.475.61 2.433.61.821 0 1.52-.146 2.097-.436a2.98 2.98 0 001.32-1.294c.302-.573.454-1.275.454-2.109v-1.949a6.134 6.134 0 01-2.126 1.716c-.831.407-1.745.61-2.743.61-1.33 0-2.513-.315-3.549-.945-1.037-.63-1.847-1.513-2.434-2.647-.587-1.135-.879-2.43-.879-3.884 0-1.454.294-2.755.879-3.898.587-1.145 1.397-2.036 2.434-2.677 1.036-.641 2.219-.96 3.549-.96.998 0 1.917.203 2.758.611a5.74 5.74 0 012.111 1.746v-1.89h3.344v14.111c0 1.377-.299 2.565-.895 3.564-.596.999-1.447 1.765-2.551 2.298-1.102.531-2.387.799-3.854.799zm-.176-8.962c.841 0 1.568-.193 2.185-.582.616-.389 1.095-.936 1.437-1.645.342-.707.513-1.546.513-2.516 0-1.474-.366-2.638-1.099-3.493-.734-.853-1.736-1.279-3.006-1.279-1.291 0-2.308.426-3.05 1.279-.743.854-1.114 2.018-1.114 3.493 0 .97.171 1.809.513 2.516.343.709.825 1.256 1.452 1.645.625.389 1.347.582 2.169.582zM126.739 173.418v-20.483h9.912c1.212 0 2.268.233 3.167.697.899.467 1.584 1.106 2.052 1.921.47.815.703 1.716.703 2.705 0 .99-.254 1.867-.762 2.633-.508.768-1.202 1.343-2.083 1.732 1.154.388 2.038 1.023 2.654 1.906.615.884.923 1.925.923 3.128 0 1.086-.249 2.071-.748 2.953a5.231 5.231 0 01-2.126 2.066c-.919.495-1.993.742-3.225.742h-10.467zm9.325-11.842c.958 0 1.711-.266 2.259-.801.547-.533.822-1.237.822-2.109 0-.893-.275-1.591-.822-2.095-.548-.504-1.32-.756-2.316-.756h-5.777v5.761h5.834zm.354 8.962c1.055 0 1.881-.28 2.477-.843.596-.563.894-1.329.894-2.298 0-.971-.298-1.747-.894-2.329-.596-.582-1.422-.872-2.477-.872h-6.188v6.344h6.188v-.002zM151.813 173.885c-1.349 0-2.542-.335-3.577-1.004-1.038-.669-1.848-1.595-2.435-2.779-.587-1.183-.879-2.531-.879-4.044 0-1.532.292-2.896.879-4.088.587-1.193 1.397-2.124 2.435-2.793 1.035-.669 2.228-1.004 3.577-1.004.997 0 1.917.219 2.756.655a6.314 6.314 0 012.142 1.819v-2.008h3.373v14.781h-3.373v-2.008a6.022 6.022 0 01-2.142 1.834 6.016 6.016 0 01-2.756.639zm.734-2.882c.841 0 1.574-.198 2.199-.596.625-.397 1.11-.969 1.452-1.716.342-.747.513-1.624.513-2.633 0-1.551-.373-2.773-1.114-3.666-.744-.892-1.751-1.339-3.022-1.339-1.289 0-2.311.447-3.064 1.339-.753.893-1.128 2.114-1.128 3.666 0 1.009.171 1.888.513 2.633.342.747.831 1.319 1.466 1.716.636.398 1.363.596 2.185.596zM162.841 158.638h3.373v2.153a5.192 5.192 0 011.936-1.934c.801-.455 1.72-.684 2.756-.684 1.681 0 2.995.538 3.945 1.615.948 1.076 1.423 2.566 1.423 4.466v9.165h-3.402v-8.932c0-1.125-.254-1.984-.763-2.576-.508-.591-1.261-.888-2.258-.888-.704 0-1.33.189-1.877.568-.548.377-.978.907-1.29 1.586-.313.678-.47 1.475-.47 2.387v7.856h-3.373v-14.782zM179.056 173.419v-21.095h3.343v11.93l5.807-5.616h4.254l-6.276 6.139 6.423 8.642h-3.99l-4.751-6.373-1.466 1.426v4.947h-3.344zM249.207 160.362l2.483 7.039h.098l2.482-7.039h1.062l-3.071 8.362h-1.045l-3.07-8.362h1.061zM256.504 168.724v-6.271h.963v6.271h-.963zm.49-7.317a.688.688 0 01-.486-.191.615.615 0 01-.2-.462c0-.18.066-.333.2-.461a.685.685 0 01.486-.192.67.67 0 01.481.192.61.61 0 01.205.461c0 .18-.069.334-.205.462a.673.673 0 01-.481.191zM259.232 168.724v-6.271h.931v.947h.065c.115-.31.322-.562.621-.755a1.82 1.82 0 011.012-.29 9.445 9.445 0 01.507.016v.98a2.79 2.79 0 00-.225-.037 2.21 2.21 0 00-.363-.028 1.72 1.72 0 00-.817.191 1.41 1.41 0 00-.767 1.278v3.969h-.964zM266.63 162.453v.816h-3.25v-.816h3.25zm-2.302-1.503h.963v5.978c0 .272.04.476.119.612a.61.61 0 00.31.269c.128.044.263.066.404.066.106 0 .193-.006.261-.017l.164-.032.196.865a1.988 1.988 0 01-.274.074 2.023 2.023 0 01-.445.041 1.94 1.94 0 01-.8-.176 1.58 1.58 0 01-.645-.535c-.169-.239-.253-.541-.253-.906v-6.239zM272.032 166.16v-3.707h.964v6.271h-.964v-1.062h-.065c-.147.319-.376.59-.686.813-.31.22-.702.331-1.176.331a2.09 2.09 0 01-1.045-.258 1.798 1.798 0 01-.719-.783c-.174-.352-.261-.794-.261-1.327v-3.985h.963v3.919c0 .458.128.822.384 1.095.259.272.588.408.988.408.24 0 .483-.061.731-.184.251-.122.46-.31.629-.563.171-.254.257-.576.257-.968zM276.606 168.871c-.397 0-.758-.075-1.082-.225a1.855 1.855 0 01-.772-.657c-.19-.288-.285-.637-.285-1.045 0-.359.07-.651.212-.874a1.5 1.5 0 01.567-.531c.237-.128.499-.223.784-.285.289-.066.579-.117.87-.156.381-.049.69-.085.927-.11.239-.027.414-.072.522-.135.112-.062.168-.171.168-.326v-.033c0-.403-.11-.716-.331-.939-.218-.223-.548-.335-.992-.335-.46 0-.821.101-1.082.302-.261.202-.445.417-.551.645l-.915-.326c.164-.381.381-.678.653-.89.275-.215.575-.365.899-.449a3.73 3.73 0 01.963-.131c.202 0 .433.024.694.073.264.047.519.143.764.29.248.147.453.369.616.666.164.297.245.694.245 1.192v4.132h-.963v-.849h-.049a1.678 1.678 0 01-.327.437 1.884 1.884 0 01-.608.396c-.253.109-.562.163-.927.163zm.147-.866c.381 0 .702-.074.964-.224a1.534 1.534 0 00.8-1.327v-.882c-.041.049-.131.094-.27.135a4.607 4.607 0 01-.473.102 18.966 18.966 0 01-.923.122 3.66 3.66 0 00-.702.16c-.215.07-.39.178-.523.322-.131.142-.196.335-.196.58 0 .335.124.588.372.759.25.169.567.253.951.253zM282.203 160.362v8.362h-.964v-8.362h.964zM291.856 157.74l7.789 13.492h-15.578l7.789-13.492z"/></g><g transform-origin="160px 302.2409973144531px" style="transform: translateY(44px); transform-origin: 160px 302.241px;"><path fill="url(#paint3_linear_216_4066)" d="M320 390.689c0 6.514-5.307 11.793-11.852 11.793H11.852C5.307 402.482 0 397.201 0 390.689V213.793C0 207.281 5.307 202 11.852 202h296.296c6.545 0 11.852 5.281 11.852 11.793v176.896z"/><path fill="#fff" d="M249.841 227.242l2.482 7.039h.098l2.483-7.039h1.061l-3.07 8.362h-1.045l-3.071-8.362h1.062zM257.137 235.604v-6.272h.964v6.272h-.964zm.49-7.317a.685.685 0 01-.486-.192.618.618 0 01-.2-.461c0-.18.067-.334.2-.462a.685.685 0 01.486-.192c.188 0 .348.064.482.192a.612.612 0 01.204.462.611.611 0 01-.204.461.672.672 0 01-.482.192zM259.865 235.604v-6.272h.931v.947h.066c.114-.31.321-.562.62-.755.3-.193.637-.29 1.013-.29.071 0 .159.002.265.004.106.003.187.007.241.013v.979a2.828 2.828 0 00-.224-.036 2.228 2.228 0 00-.364-.029c-.305 0-.577.064-.816.192a1.407 1.407 0 00-.768 1.278v3.969h-.964zM267.264 229.332v.817h-3.25v-.817h3.25zm-2.303-1.502h.964v5.977c0 .272.039.476.118.613a.615.615 0 00.31.269c.128.044.263.065.405.065.106 0 .193-.005.261-.016l.163-.033.196.866a1.949 1.949 0 01-.273.073 1.97 1.97 0 01-.445.041c-.273 0-.539-.058-.801-.175a1.6 1.6 0 01-.645-.535c-.169-.24-.253-.542-.253-.907v-6.238zM272.666 233.039v-3.707h.963v6.272h-.963v-1.062h-.066a2.062 2.062 0 01-.686.813c-.31.22-.702.33-1.176.33a2.1 2.1 0 01-1.045-.257 1.798 1.798 0 01-.718-.784c-.175-.351-.262-.793-.262-1.327v-3.985h.964v3.92c0 .457.128.822.384 1.094.258.272.588.408.988.408.239 0 .483-.061.731-.183.25-.123.46-.311.628-.564.172-.253.258-.576.258-.968zM277.239 235.751c-.397 0-.758-.075-1.082-.225a1.86 1.86 0 01-.771-.657c-.191-.289-.286-.637-.286-1.046 0-.359.071-.65.212-.873.142-.226.331-.403.568-.531.237-.128.498-.223.784-.286.288-.065.578-.117.869-.155.381-.049.69-.086.927-.11.24-.028.414-.072.523-.135.111-.063.167-.172.167-.327v-.032c0-.403-.11-.716-.33-.939-.218-.224-.549-.335-.993-.335-.46 0-.82.1-1.082.302-.261.201-.445.416-.551.645l-.914-.327c.163-.381.381-.677.653-.89.275-.215.574-.364.898-.449.327-.087.648-.13.964-.13.201 0 .433.024.694.073.264.046.518.143.763.29.248.147.454.369.617.665.163.297.245.695.245 1.193v4.132h-.964v-.85h-.049a1.694 1.694 0 01-.326.437 1.9 1.9 0 01-.609.396c-.253.109-.562.164-.927.164zm.147-.866c.381 0 .703-.075.964-.225a1.525 1.525 0 00.8-1.327v-.881c-.041.049-.13.093-.269.134a4.573 4.573 0 01-.474.102 19.553 19.553 0 01-.923.123c-.25.033-.484.086-.702.159a1.202 1.202 0 00-.522.323c-.131.141-.196.334-.196.579 0 .335.123.588.371.76.251.169.568.253.951.253zM282.836 227.242v8.362h-.963v-8.362h.963zM297.154 222.352l2.077 6.393h6.721l-5.438 3.951 2.077 6.392-5.437-3.951-5.438 3.951 2.077-6.392-5.438-3.951h6.722l2.077-6.393zM27.836 243.247c-1.603 0-3.026-.273-4.268-.815-1.242-.543-2.24-1.299-2.99-2.27-.753-.969-1.247-2.095-1.482-3.375l3.577-.902c.176.872.494 1.619.953 2.241a4.5 4.5 0 001.76 1.425c.713.33 1.52.495 2.42.495 1.33 0 2.42-.261 3.27-.785.85-.523 1.276-1.27 1.276-2.241 0-.62-.18-1.115-.543-1.484-.362-.368-.91-.674-1.644-.917-.733-.242-1.793-.499-3.182-.77-1.604-.349-2.918-.747-3.945-1.193-1.026-.446-1.823-1.052-2.39-1.819-.567-.766-.85-1.751-.85-2.953 0-1.261.332-2.347.997-3.259.665-.912 1.587-1.605 2.77-2.081s2.547-.712 4.09-.712c1.409 0 2.65.243 3.725.728 1.076.485 1.955 1.159 2.64 2.022.683.863 1.173 1.867 1.465 3.012l-3.403.959c-.332-1.164-.88-2.055-1.642-2.677-.762-.62-1.721-.931-2.874-.931-1.211 0-2.194.243-2.947.728-.753.485-1.129 1.126-1.129 1.921 0 .542.171.985.513 1.324.342.339.841.622 1.496.844.654.223 1.609.471 2.86.742 1.74.349 3.154.756 4.238 1.221 1.085.466 1.935 1.102 2.55 1.906.616.806.925 1.867.925 3.186 0 1.301-.352 2.435-1.057 3.405-.703.971-1.677 1.716-2.917 2.241-1.236.522-2.658.784-4.262.784zM44.29 243.101c-1.566 0-2.69-.359-3.373-1.077-.685-.717-1.027-1.746-1.027-3.085v-8.204h-2.345v-2.734h2.345v-3.841h3.373v3.841h3.108v2.734h-3.108v8.031c0 .524.157.903.468 1.136.312.233.773.349 1.378.349.314 0 .734-.029 1.261-.087v2.648a8.111 8.111 0 01-2.08.289zM54.76 243.247c-1.35 0-2.542-.335-3.578-1.004-1.037-.669-1.847-1.595-2.434-2.778-.587-1.184-.88-2.532-.88-4.045 0-1.532.295-2.895.88-4.088.587-1.193 1.397-2.124 2.434-2.793 1.036-.669 2.229-1.004 3.578-1.004a5.89 5.89 0 012.756.655 6.298 6.298 0 012.14 1.819v-2.007h3.373v14.78h-3.373v-2.008a6.016 6.016 0 01-2.14 1.834c-.841.425-1.76.639-2.756.639zm.732-2.88c.84 0 1.573-.198 2.2-.596.624-.397 1.109-.969 1.45-1.716.343-.747.514-1.624.514-2.633 0-1.551-.37-2.774-1.114-3.667-.743-.891-1.75-1.338-3.021-1.338-1.292 0-2.313.447-3.066 1.338-.753.893-1.129 2.114-1.129 3.667 0 1.009.171 1.887.513 2.633.343.747.832 1.319 1.466 1.716.636.396 1.365.596 2.187.596zM65.786 228h3.373v2.589c.391-.872.924-1.546 1.598-2.022.675-.475 1.47-.712 2.39-.712.195 0 .366.005.513.015.147.009.309.033.484.072v3.172a5.17 5.17 0 00-.997-.087c-1.192 0-2.155.408-2.888 1.223-.734.815-1.1 1.93-1.1 3.346v7.188h-3.373V228zM76.167 242.781v-21.095h3.342v21.095h-3.342zM83.997 225.964c-.606 0-1.12-.213-1.539-.641a2.12 2.12 0 01-.631-1.542c0-.601.209-1.119.631-1.556a2.054 2.054 0 011.54-.654 2.15 2.15 0 011.567.654c.44.437.66.955.66 1.556 0 .601-.22 1.115-.66 1.542a2.17 2.17 0 01-1.568.641zm-1.7 2.036H85.7v14.781h-3.404V228zM88.484 228h3.373v2.154a5.184 5.184 0 011.936-1.935c.8-.455 1.72-.684 2.757-.684 1.682 0 2.996.538 3.945 1.615.948 1.077 1.423 2.566 1.423 4.466v9.165h-3.402v-8.932c0-1.125-.254-1.984-.762-2.576-.508-.591-1.261-.888-2.259-.888-.703 0-1.33.189-1.877.568-.548.377-.978.907-1.29 1.586-.313.679-.47 1.475-.47 2.387v7.856h-3.374V228zM111.77 248.776c-1.741 0-3.242-.379-4.503-1.136-1.261-.756-2.097-1.824-2.508-3.2l3.226-.844c.292.795.772 1.397 1.437 1.803.665.408 1.475.611 2.433.611.821 0 1.52-.146 2.097-.436a2.991 2.991 0 001.32-1.294c.302-.573.454-1.276.454-2.11v-1.949a6.122 6.122 0 01-2.126 1.716c-.831.408-1.745.611-2.743.611-1.33 0-2.513-.316-3.549-.945-1.037-.63-1.847-1.513-2.434-2.647-.587-1.136-.879-2.43-.879-3.884 0-1.455.294-2.755.879-3.898.587-1.146 1.397-2.037 2.434-2.678 1.036-.64 2.219-.959 3.549-.959.998 0 1.917.203 2.758.611.84.407 1.544.989 2.111 1.746v-1.891h3.344v14.112c0 1.376-.299 2.564-.895 3.563-.596.999-1.447 1.765-2.551 2.298-1.102.532-2.387.8-3.854.8zm-.176-8.962c.841 0 1.568-.194 2.185-.582.616-.389 1.095-.936 1.437-1.645.342-.707.513-1.546.513-2.517 0-1.473-.366-2.637-1.099-3.492-.734-.853-1.736-1.28-3.006-1.28-1.291 0-2.308.427-3.05 1.28-.743.853-1.114 2.017-1.114 3.492 0 .971.171 1.81.513 2.517.343.709.825 1.256 1.452 1.645.625.388 1.347.582 2.169.582zM126.739 242.418v-20.483h9.912c1.212 0 2.268.233 3.167.697.899.467 1.584 1.106 2.052 1.921.47.815.703 1.716.703 2.706 0 .989-.254 1.866-.762 2.632-.508.768-1.202 1.343-2.083 1.732 1.154.389 2.038 1.023 2.654 1.906.615.884.923 1.926.923 3.128 0 1.086-.249 2.071-.748 2.953a5.231 5.231 0 01-2.126 2.066c-.919.495-1.993.742-3.225.742h-10.467zm9.325-11.842c.958 0 1.711-.266 2.259-.801.547-.532.822-1.237.822-2.109 0-.893-.275-1.591-.822-2.095-.548-.504-1.32-.756-2.316-.756h-5.777v5.761h5.834zm.354 8.962c1.055 0 1.881-.28 2.477-.843.596-.563.894-1.329.894-2.298 0-.971-.298-1.746-.894-2.328-.596-.583-1.422-.873-2.477-.873h-6.188v6.344h6.188v-.002zM151.813 242.884c-1.349 0-2.542-.334-3.577-1.004-1.038-.669-1.848-1.595-2.435-2.778s-.879-2.531-.879-4.044c0-1.532.292-2.896.879-4.089.587-1.192 1.397-2.123 2.435-2.792 1.035-.67 2.228-1.004 3.577-1.004.997 0 1.917.219 2.756.655a6.303 6.303 0 012.142 1.819v-2.008h3.373v14.781h-3.373v-2.008a6.02 6.02 0 01-2.142 1.833 6.016 6.016 0 01-2.756.639zm.734-2.881c.841 0 1.574-.198 2.199-.597.625-.396 1.11-.969 1.452-1.715.342-.747.513-1.624.513-2.633 0-1.551-.373-2.774-1.114-3.667-.744-.891-1.751-1.338-3.022-1.338-1.289 0-2.311.447-3.064 1.338-.753.893-1.128 2.114-1.128 3.667 0 1.009.171 1.887.513 2.633.342.746.831 1.319 1.466 1.715.636.399 1.363.597 2.185.597zM162.841 227.637h3.373v2.154a5.195 5.195 0 011.936-1.935c.801-.455 1.72-.683 2.756-.683 1.681 0 2.995.537 3.945 1.614.948 1.077 1.423 2.566 1.423 4.466v9.165h-3.402v-8.932c0-1.124-.254-1.984-.763-2.575-.508-.592-1.261-.888-2.258-.888-.704 0-1.33.188-1.877.567-.548.378-.978.908-1.29 1.586-.313.679-.47 1.475-.47 2.387v7.857h-3.373v-14.783zM179.056 242.418v-21.094h3.343v11.929l5.807-5.616h4.254l-6.276 6.139 6.423 8.642h-3.99l-4.751-6.372-1.466 1.426v4.946h-3.344z"/></g><g transform-origin="160px 366.2409973144531px" style="transform: translateY(-20px); transform-origin: 160px 366.241px;"><path fill="url(#paint4_linear_216_4066)" d="M320 454.689c0 6.514-5.307 11.793-11.852 11.793H11.852C5.307 466.482 0 461.201 0 454.689V277.793C0 271.281 5.307 266 11.852 266h296.296c6.545 0 11.852 5.281 11.852 11.793v176.896z"/><path fill="#fff" d="M27.836 307.248c-1.603 0-3.026-.273-4.268-.816-1.242-.542-2.24-1.298-2.99-2.269-.753-.969-1.247-2.095-1.482-3.375l3.577-.902c.176.872.494 1.619.953 2.241a4.5 4.5 0 001.76 1.425c.713.33 1.52.495 2.42.495 1.33 0 2.42-.261 3.27-.785.85-.523 1.276-1.27 1.276-2.241 0-.62-.18-1.115-.543-1.484-.362-.368-.91-.674-1.644-.917-.733-.242-1.793-.499-3.182-.771-1.604-.348-2.918-.746-3.945-1.192-1.026-.446-1.823-1.052-2.39-1.819-.567-.766-.85-1.751-.85-2.953 0-1.261.332-2.347.997-3.259.665-.912 1.587-1.605 2.77-2.081s2.547-.712 4.09-.712c1.409 0 2.65.243 3.725.728 1.076.485 1.955 1.159 2.64 2.022.683.863 1.173 1.867 1.465 3.012l-3.403.959c-.332-1.164-.88-2.055-1.642-2.677-.762-.62-1.721-.931-2.874-.931-1.211 0-2.194.243-2.947.728-.753.485-1.129 1.126-1.129 1.921 0 .542.171.984.513 1.324.342.339.841.622 1.496.844.654.223 1.609.471 2.86.742 1.74.349 3.154.756 4.238 1.221 1.085.466 1.935 1.102 2.55 1.906.616.806.925 1.867.925 3.186 0 1.301-.352 2.435-1.057 3.405-.703.971-1.677 1.716-2.917 2.241-1.236.522-2.658.784-4.262.784zM44.29 307.102c-1.566 0-2.69-.358-3.373-1.077-.685-.717-1.027-1.746-1.027-3.084v-8.204h-2.345v-2.734h2.345v-3.841h3.373v3.841h3.108v2.734h-3.108v8.031c0 .523.157.902.468 1.135.312.234.773.349 1.378.349.314 0 .734-.028 1.261-.087v2.649a8.152 8.152 0 01-2.08.288zM54.76 307.248c-1.35 0-2.542-.335-3.578-1.004-1.037-.669-1.847-1.595-2.434-2.779-.587-1.183-.88-2.531-.88-4.044 0-1.532.295-2.895.88-4.088.587-1.193 1.397-2.124 2.434-2.793 1.036-.669 2.229-1.004 3.578-1.004a5.89 5.89 0 012.756.655 6.298 6.298 0 012.14 1.819v-2.008h3.373v14.781h-3.373v-2.008a6.016 6.016 0 01-2.14 1.834c-.841.425-1.76.639-2.756.639zm.732-2.88c.84 0 1.573-.198 2.2-.596.624-.397 1.109-.969 1.45-1.716.343-.747.514-1.624.514-2.633 0-1.551-.37-2.774-1.114-3.667-.743-.891-1.75-1.338-3.021-1.338-1.292 0-2.313.447-3.066 1.338-.753.893-1.129 2.114-1.129 3.667 0 1.009.171 1.887.513 2.633.343.747.832 1.319 1.466 1.716.636.396 1.365.596 2.187.596zM65.786 292.001h3.373v2.589c.391-.872.924-1.546 1.598-2.022.675-.475 1.47-.712 2.39-.712.195 0 .366.005.513.015.147.009.309.033.484.072v3.172a5.17 5.17 0 00-.997-.087c-1.192 0-2.155.408-2.888 1.223-.734.815-1.1 1.93-1.1 3.346v7.187h-3.373v-14.783zM76.167 306.782v-21.095h3.342v21.095h-3.342zM83.997 289.964c-.606 0-1.12-.212-1.539-.64a2.12 2.12 0 01-.631-1.542c0-.601.209-1.119.631-1.556a2.055 2.055 0 011.54-.655c.605 0 1.128.219 1.567.655.44.437.66.955.66 1.556 0 .601-.22 1.115-.66 1.542-.44.428-.962.64-1.568.64zm-1.7 2.037H85.7v14.781h-3.404v-14.781zM88.484 292.001h3.373v2.154a5.184 5.184 0 011.936-1.935c.8-.455 1.72-.684 2.757-.684 1.682 0 2.996.538 3.945 1.615.948 1.077 1.423 2.566 1.423 4.466v9.165h-3.402v-8.932c0-1.125-.254-1.984-.762-2.576-.508-.591-1.261-.888-2.259-.888-.703 0-1.33.189-1.877.568-.548.377-.978.907-1.29 1.586-.313.679-.47 1.475-.47 2.387v7.856h-3.374v-14.782zM111.77 312.776c-1.741 0-3.242-.379-4.503-1.136-1.261-.756-2.097-1.823-2.508-3.2l3.226-.844c.292.795.772 1.398 1.437 1.804.665.407 1.475.61 2.433.61.821 0 1.52-.146 2.097-.436a2.98 2.98 0 001.32-1.294c.302-.573.454-1.275.454-2.109v-1.949a6.134 6.134 0 01-2.126 1.716c-.831.407-1.745.61-2.743.61-1.33 0-2.513-.316-3.549-.945-1.037-.63-1.847-1.513-2.434-2.647-.587-1.136-.879-2.43-.879-3.884 0-1.454.294-2.755.879-3.898.587-1.145 1.397-2.036 2.434-2.677 1.036-.641 2.219-.96 3.549-.96.998 0 1.917.203 2.758.611a5.74 5.74 0 012.111 1.746v-1.89h3.344v14.111c0 1.377-.299 2.565-.895 3.564-.596.999-1.447 1.765-2.551 2.298-1.102.531-2.387.799-3.854.799zm-.176-8.962c.841 0 1.568-.194 2.185-.582.616-.389 1.095-.936 1.437-1.645.342-.707.513-1.546.513-2.517 0-1.473-.366-2.637-1.099-3.492-.734-.853-1.736-1.28-3.006-1.28-1.291 0-2.308.427-3.05 1.28-.743.854-1.114 2.018-1.114 3.492 0 .971.171 1.81.513 2.517.343.709.825 1.256 1.452 1.645.625.388 1.347.582 2.169.582zM126.739 306.418v-20.484h9.912c1.212 0 2.268.234 3.167.698.899.467 1.584 1.106 2.052 1.921.47.815.703 1.716.703 2.705 0 .99-.254 1.867-.762 2.633-.508.768-1.202 1.343-2.083 1.732 1.154.388 2.038 1.023 2.654 1.906.615.883.923 1.925.923 3.128 0 1.086-.249 2.071-.748 2.953a5.231 5.231 0 01-2.126 2.066c-.919.495-1.993.742-3.225.742h-10.467zm9.325-11.842c.958 0 1.711-.266 2.259-.801.547-.533.822-1.237.822-2.109 0-.893-.275-1.591-.822-2.095-.548-.504-1.32-.756-2.316-.756h-5.777v5.761h5.834zm.354 8.962c1.055 0 1.881-.281 2.477-.844.596-.563.894-1.329.894-2.298 0-.97-.298-1.746-.894-2.328-.596-.582-1.422-.872-2.477-.872h-6.188v6.344h6.188v-.002zM151.813 306.885c-1.349 0-2.542-.335-3.577-1.004-1.038-.669-1.848-1.595-2.435-2.779-.587-1.183-.879-2.531-.879-4.044 0-1.532.292-2.896.879-4.088.587-1.193 1.397-2.124 2.435-2.793 1.035-.669 2.228-1.004 3.577-1.004.997 0 1.917.219 2.756.655a6.314 6.314 0 012.142 1.819v-2.008h3.373v14.781h-3.373v-2.008a6.022 6.022 0 01-2.142 1.834 6.016 6.016 0 01-2.756.639zm.734-2.882c.841 0 1.574-.198 2.199-.596.625-.397 1.11-.969 1.452-1.716.342-.747.513-1.624.513-2.633 0-1.551-.373-2.773-1.114-3.666-.744-.892-1.751-1.339-3.022-1.339-1.289 0-2.311.447-3.064 1.339-.753.893-1.128 2.114-1.128 3.666 0 1.009.171 1.888.513 2.633.342.747.831 1.319 1.466 1.716.636.398 1.363.596 2.185.596zM162.841 291.638h3.373v2.153a5.192 5.192 0 011.936-1.934c.801-.455 1.72-.684 2.756-.684 1.681 0 2.995.538 3.945 1.615.948 1.076 1.423 2.566 1.423 4.466v9.165h-3.402v-8.932c0-1.125-.254-1.984-.763-2.576-.508-.591-1.261-.888-2.258-.888-.704 0-1.33.189-1.877.568-.548.377-.978.907-1.29 1.586-.313.678-.47 1.475-.47 2.387v7.856h-3.373v-14.782zM179.056 306.419v-21.095h3.343v11.93l5.807-5.616h4.254l-6.276 6.139 6.423 8.642h-3.99l-4.751-6.373-1.466 1.426v4.947h-3.344z"/><path fill="#EA560D" d="M275.438 409.851H257.2v32.517h18.238v-32.517z"/><path fill="#E30613" d="M258.358 426.109c0-6.597 3.114-12.471 7.962-16.258a20.851 20.851 0 00-12.88-4.42c-11.51 0-20.842 9.258-20.842 20.68 0 11.421 9.332 20.68 20.842 20.68 4.863 0 9.336-1.653 12.88-4.421-4.848-3.788-7.962-9.663-7.962-16.261z"/><path fill="#F59E00" d="M300.044 426.109c0 11.421-9.332 20.679-20.842 20.679a20.855 20.855 0 01-12.88-4.42c4.848-3.786 7.961-9.661 7.961-16.257 0-6.596-3.113-12.471-7.961-16.258a20.851 20.851 0 0112.88-4.42c11.51-.002 20.842 9.257 20.842 20.676z"/><path fill="#fff" d="M301.499 297.486a6.205 6.205 0 11-12.41 0 6.205 6.205 0 0112.41 0zM247.981 293.124l2.482 7.039h.098l2.483-7.039h1.061l-3.07 8.362h-1.045l-3.071-8.362h1.062zM255.277 301.486v-6.271h.964v6.271h-.964zm.49-7.317a.685.685 0 01-.486-.192.617.617 0 01-.2-.461c0-.18.067-.333.2-.461a.685.685 0 01.486-.192.67.67 0 01.482.192.61.61 0 01.204.461.61.61 0 01-.204.461.67.67 0 01-.482.192zM258.006 301.486v-6.271h.931v.947h.065c.114-.311.321-.562.62-.756a1.83 1.83 0 011.013-.289 9.381 9.381 0 01.506.016v.98a2.656 2.656 0 00-.224-.037 2.228 2.228 0 00-.364-.029c-.304 0-.577.064-.816.192a1.407 1.407 0 00-.768 1.278v3.969h-.963zM265.404 295.215v.816h-3.25v-.816h3.25zm-2.303-1.503h.964v5.977c0 .273.039.477.118.613a.615.615 0 00.31.269c.128.044.263.066.405.066.106 0 .193-.006.261-.017l.163-.032.196.865a2.03 2.03 0 01-.718.115c-.273 0-.539-.059-.801-.176a1.593 1.593 0 01-.645-.535c-.168-.239-.253-.542-.253-.906v-6.239zM270.806 298.922v-3.707h.963v6.271h-.963v-1.062h-.066c-.147.319-.375.59-.686.813-.31.22-.702.331-1.175.331-.392 0-.741-.086-1.046-.258a1.793 1.793 0 01-.718-.784c-.175-.351-.262-.793-.262-1.327v-3.984h.964v3.919c0 .457.128.822.384 1.094.258.273.588.409.988.409.239 0 .483-.062.731-.184.25-.123.46-.31.628-.564.172-.253.258-.575.258-.967zM275.38 301.633c-.398 0-.758-.075-1.082-.225a1.849 1.849 0 01-.772-.657c-.191-.289-.286-.637-.286-1.045 0-.36.071-.651.212-.874.142-.226.331-.403.568-.531.237-.128.498-.223.784-.286.288-.065.578-.117.87-.155.381-.049.69-.085.926-.11.24-.027.414-.072.523-.135.112-.062.167-.171.167-.326v-.033c0-.403-.11-.716-.33-.939-.218-.223-.549-.335-.992-.335-.46 0-.821.101-1.082.302-.262.202-.446.417-.552.645l-.914-.326c.163-.381.381-.678.653-.89.275-.215.574-.365.898-.449.327-.088.648-.131.964-.131.201 0 .433.024.694.073.264.047.518.143.763.29a1.7 1.7 0 01.617.666c.163.296.245.694.245 1.192v4.132h-.964v-.849h-.049a1.711 1.711 0 01-.326.437 1.89 1.89 0 01-.609.396c-.253.108-.562.163-.926.163zm.147-.866c.381 0 .702-.075.963-.224a1.527 1.527 0 00.8-1.327v-.882c-.04.049-.13.094-.269.135a4.573 4.573 0 01-.474.102 23.785 23.785 0 01-.922.122 3.747 3.747 0 00-.703.159 1.212 1.212 0 00-.522.323c-.131.141-.196.335-.196.58 0 .335.124.588.371.759.251.169.568.253.952.253zM280.976 293.124v8.362h-.963v-8.362h.963z"/></g><defs><linearGradient id="paint0_linear_216_4066" x1="320.168" x2="88.137" y1="200.4" y2="33.659" gradientUnits="userSpaceOnUse"><stop stop-color="#F1DE7E"/><stop offset="1" stop-color="#F58844"/></linearGradient><linearGradient id="paint1_linear_216_4066" x1="320.168" x2="0.99" y1="258.277" y2="69.292" gradientUnits="userSpaceOnUse"><stop stop-color="#68D9CF"/><stop offset="1" stop-color="#9F81E2"/></linearGradient><linearGradient id="paint2_linear_216_4066" x1="320.168" x2="1.073" y1="333.4" y2="131.57" gradientUnits="userSpaceOnUse"><stop stop-color="#DAE093"/><stop offset="1" stop-color="#37A27E"/></linearGradient><linearGradient id="paint3_linear_216_4066" x1="320.168" x2="1.073" y1="402.4" y2="200.57" gradientUnits="userSpaceOnUse"><stop stop-color="#62C6AE"/><stop offset="1" stop-color="#144A89"/></linearGradient><linearGradient id="paint4_linear_216_4066" x1="320.168" x2="1.073" y1="466.4" y2="264.57" gradientUnits="userSpaceOnUse"><stop stop-color="#D5C8FA"/><stop offset="1" stop-color="#FD8178"/></linearGradient></defs></svg>