<svg viewBox="-30 0 200 100" fill="none" xmlns="http://www.w3.org/2000/svg" class="_19tbeq93"><g clip-path="url(#which_svg__a)"><path d="M62.864 97.78c33.494 0 60.645-21.392 60.645-47.78 0-26.39-27.151-47.781-60.645-47.781-33.493 0-60.645 21.392-60.645 47.78 0 26.389 27.151 47.78 60.645 47.78Z" fill="#fff"/><path d="M62.864 100c-16.695 0-32.413-5.147-44.255-14.471-5.812-4.578-10.38-9.915-13.579-15.881C1.692 63.43 0 56.82 0 49.999c0-6.821 1.692-13.435 5.03-19.647 3.195-5.96 7.767-11.303 13.579-15.88C30.45 5.146 46.169 0 62.864 0 79.56 0 95.277 5.147 107.12 14.471c5.812 4.578 10.384 9.92 13.579 15.881 3.339 6.212 5.03 12.828 5.03 19.647 0 6.82-1.691 13.431-5.03 19.649-3.195 5.96-7.767 11.303-13.579 15.88C95.277 94.86 79.559 100 62.864 100Zm0-95.563C30.648 4.437 4.437 24.877 4.437 50c0 25.123 26.211 45.564 58.427 45.564s58.427-20.441 58.427-45.564S95.081 4.437 62.864 4.437Z" fill="#EBEBEB"/><path d="M105.019 35.44c-3.695-6.055-9.585-11.165-17.04-14.774-7.605-3.683-16.436-5.588-25.54-5.502-8.894.078-17.522 2.051-24.948 5.708-7.278 3.578-13.07 8.59-16.774 14.496a.976.976 0 1 0 1.653 1.037c3.514-5.597 9.04-10.363 15.983-13.781 7.166-3.529 15.501-5.433 24.104-5.503 17.572-.152 33.634 7.441 40.897 19.348a.985.985 0 0 0 .836.45.979.979 0 0 0 .824-1.485l.005.007ZM104.704 61.78a.978.978 0 0 0-1.346.31c-3.502 5.604-9.02 10.38-15.957 13.81-7.16 3.54-15.492 5.46-24.095 5.55-17.581.177-33.646-7.382-40.93-19.276a.976.976 0 0 0-1.666 1.02c3.705 6.05 9.606 11.149 17.067 14.745 7.61 3.669 16.447 5.557 25.548 5.463 8.897-.094 17.52-2.082 24.94-5.752 7.262-3.591 13.054-8.614 16.749-14.525a.978.978 0 0 0-.31-1.345Z" fill="#EBEBEB"/><path d="m42.997 37.96-1.688 8.775h-.021l-1.784-8.775h-3.385l-1.763 8.775h-.021l-1.686-8.775h-3.84l3.261 14.134h3.859l1.81-8.659h.022l1.85 8.659h3.815l3.26-14.134h-3.69Z" fill="#000"/><mask id="which_svg__b" style="mask-type:luminance" maskUnits="userSpaceOnUse" x="28" y="37" width="69" height="16"><path d="M96.79 37.724H28.938v14.622h67.854V37.724Z" fill="#fff"/></mask><g mask="url(#which_svg__b)"><path d="M90.065 47.36v-.373c0-1.374.584-2.256 1.442-3.028.161-.145.33-.28.493-.412.566-.456 1.065-.873 1.065-1.517 0-.74-.495-1.182-1.283-1.182-.72 0-1.27.458-1.507 1.255l-.029.099H86.73c.257-2.892 2.458-4.478 5.346-4.478 2.776 0 4.715 1.569 4.715 3.89 0 1.585-.888 2.38-1.664 3.082-.942.862-1.395 1.517-1.42 2.295v.369h-3.642Z" fill="#000"/><path d="M93.713 48.876H85.73v3.214h7.982v-3.214Z" fill="#E81C30"/><path d="M80.388 52.094v-6.1c0-1.499-1.491-1.928-2.233-.565-.257.472-.378 1.16-.378 2.092v4.573h-3.62V37.96h3.62v6.168c1.205-2.556 4.045-2.883 5.445-1.33.51.565.783 1.378.783 2.421v6.875h-3.617ZM53.765 52.094v-6.1c0-1.499-1.49-1.928-2.233-.565-.257.472-.38 1.16-.38 2.092v4.573h-3.617V37.96h3.618v6.168c1.206-2.556 4.046-2.883 5.447-1.33.51.565.783 1.378.783 2.421v6.875h-3.618ZM62.41 42.115h-3.618v9.977h3.617v-9.977ZM73.17 48.397c-.153 2.245-1.85 3.95-4.493 3.95-3.195 0-5.169-2.008-5.169-5.242 0-3.187 1.997-5.242 5.09-5.242 2.44 0 4.328 1.22 4.525 3.939h-3.136c-.137-.67-.506-1.367-1.378-1.367-1.39 0-1.611 1.706-1.611 2.662 0 1.166.323 2.663 1.606 2.663.64 0 1.132-.51 1.377-1.365l3.188.002ZM60.599 41.451c-.998 0-2.008-.635-2.008-1.853s1.01-1.874 2.008-1.874c.997 0 2.006.644 2.006 1.874s-1.01 1.853-2.006 1.853Z" fill="#000"/></g><path d="M45.732 63.588h-3.31l-.648 1.875h-2.22l3.278-9.019h2.577l3.278 9.011H46.38l-.648-1.867Zm-2.739-1.674h2.16L44.088 58.8h-.026l-1.069 3.115ZM54.568 58.636l1.012 4.413h.028l.944-4.413h2.13l-1.848 6.827H54.69l-.985-4.194h-.026l-.986 4.194h-2.145L48.7 58.636h2.213l.944 4.413h.027l.998-4.413h1.686ZM64.996 63.48c0 .355.188.486.431.486.14 0 .275-.053.378-.149l.082 1.443c-.368.23-.795.347-1.229.338a1.688 1.688 0 0 1-1.402-.62 1.181 1.181 0 0 1-.23-.445c-.283.66-1.066 1.065-1.969 1.065-1.282 0-2.158-.728-2.158-1.983 0-1.363 1.173-2.118 3.102-2.118.27 0 .62.027.85.041v-.688c0-.5-.257-.796-.77-.796s-.81.338-.81.916l-2.035-.282c.12-1.363 1.214-2.213 2.941-2.213 1.942 0 2.819.85 2.819 2.293v2.712Zm-2.144-.85a4.852 4.852 0 0 0-.473-.027c-.887 0-1.349.284-1.349.836 0 .431.297.71.81.71.513 0 1.011-.296 1.011-1.12v-.4ZM71.336 60.782a2.239 2.239 0 0 0-.85-.149c-.81 0-1.484.533-1.484 1.686v3.144h-2.226v-6.827h1.93l.255 1.553c.27-1.16 1.187-1.89 2.485-1.66l-.11 2.253ZM76.785 64.208c-.282.932-1.08 1.42-2.063 1.42-1.524 0-2.738-1.255-2.738-3.428 0-2.387 1.159-3.727 2.873-3.727.957 0 1.632.419 1.875 1.04v-3.79h2.24v9.74h-1.93l-.257-1.255Zm-.053-2.698c0-.957-.58-1.42-1.174-1.42-.809 0-1.295.674-1.295 2.023 0 1.161.486 1.776 1.255 1.776.66 0 1.214-.514 1.214-1.58v-.799ZM81.805 63.345c.094.499.552.836 1.118.836.566 0 .932-.215.932-.648 0-1.185-3.683-.12-3.683-2.765 0-1.496 1.294-2.293 2.886-2.293 1.618 0 2.63.71 2.84 1.984l-1.848.215c-.053-.472-.39-.783-.971-.783-.513 0-.823.243-.823.648 0 1.202 3.71.081 3.71 2.806 0 1.484-1.268 2.281-3.048 2.281-1.484 0-2.672-.607-2.968-1.862l1.855-.419Z" fill="#000"/><path d="m58.74 12.424-3.109.302-.075-.792c1.175-1.283 1.8-1.9 1.726-2.662-.036-.375-.242-.59-.552-.56-.31.031-.46.28-.43.592a.76.76 0 0 0 .178.41l-.861.476a1.42 1.42 0 0 1-.355-.838c-.071-.728.415-1.46 1.406-1.555.99-.096 1.597.444 1.691 1.342.094.976-.678 1.85-1.397 2.533l1.683-.164.096.916ZM62.738 9.897c.05 1.484-.543 2.462-1.672 2.5-1.129.037-1.782-.9-1.834-2.383-.051-1.482.544-2.462 1.672-2.499 1.13-.037 1.786.9 1.834 2.382Zm-1.099.037c-.034-.972-.227-1.483-.71-1.47-.483.015-.635.533-.603 1.513.032.98.22 1.486.71 1.47.49-.016.635-.54.603-1.507v-.005ZM66.572 12.366l-3.122-.093.023-.795c1.326-1.125 2.023-1.658 2.046-2.431.01-.377-.167-.616-.479-.625a.491.491 0 0 0-.499.532.742.742 0 0 0 .13.43l-.913.364a1.42 1.42 0 0 1-.245-.874c.024-.73.597-1.397 1.59-1.366.991.03 1.536.642 1.51 1.542-.029.98-.904 1.748-1.703 2.336l1.688.05-.026.93ZM69.6 10.213a1.064 1.064 0 0 1 .758 1.173c-.076.849-.795 1.305-1.729 1.22-.905-.082-1.473-.675-1.479-1.402l.986-.24c0 .436.177.736.557.772.325.028.577-.15.612-.552.034-.374-.165-.607-.596-.646l-.398-.036.071-.777.375.034c.438.039.612-.158.648-.549.026-.296-.116-.545-.426-.571-.34-.032-.533.243-.598.63l-.906-.394c.178-.71.785-1.198 1.65-1.12.864.078 1.42.62 1.34 1.42-.054.587-.388.963-.863 1.034l-.002.004Z" fill="#E81C30"/><path d="M18.745 69.795c.295.575.178 1.143-.392 1.548-.694.495-1.468.404-2.13-.517l-1.026-1.437 4.246-3.032.99 1.386c.595.833.499 1.573-.2 2.072-.533.381-1.097.332-1.479-.029l-.009.009Zm-2.431-.098.436.611c.341.477.71.532 1.13.24.422-.293.471-.673.134-1.144l-.442-.61-1.258.903Zm1.805-1.288.387.532c.312.439.662.497 1.088.194.426-.304.477-.648.163-1.087l-.385-.54-1.253.9ZM20.767 74.293l-1.118-1.23-1.207.6-.606-.666 4.915-2.354.74.815-2.81 4.666-.624-.688.71-1.143Zm-.451-1.564.847.93 1.201-1.938v-.013l-2.048 1.021ZM27.212 74.981l.664.58-3.431 3.929-.623-.545.859-3.999-.018-.014-2.354 2.692-.655-.575 3.43-3.92.687.6-.874 3.872.018.014 2.297-2.633ZM27.979 82.07l.149-2.637-.313-.22-1.292 1.832-.76-.533 3.007-4.26.76.533-1.26 1.787.32.226 2.337-1.028.845.595-2.74 1.175-.178 3.148-.875-.617ZM33.33 79.278l-2.701 4.463-.796-.481 2.702-4.464.795.482ZM36.864 81.197l.787.403-2.388 4.64-.736-.378-.128-4.082-.02-.013-1.636 3.18-.778-.398 2.386-4.64.813.419.083 3.968.021.011 1.596-3.11ZM41.161 85.784l-1.013 2.506-.616-.252.135-.644c-.318.355-.866.433-1.394.218-1.065-.433-1.42-1.627-.795-3.177.645-1.598 1.797-2.213 2.97-1.738.912.37 1.242 1.097 1.107 1.953l-.92-.018c.106-.533-.015-1.001-.492-1.195-.659-.266-1.305.247-1.76 1.369-.425 1.05-.385 1.867.332 2.157.485.197.984.028 1.243-.632l.1-.245-.826-.334.257-.637 1.672.669ZM46.52 87.506c.593.262.854.78.667 1.45-.227.82-.887 1.242-1.977.933l-1.7-.472 1.397-5.032 1.64.456c.985.274 1.375.91 1.146 1.738-.177.632-.644.946-1.168.907l-.005.02Zm-1.953 1.452.723.2c.564.156.887-.028 1.03-.523.141-.496-.057-.819-.615-.973l-.722-.203-.415 1.499Zm.593-2.13.641.177c.518.146.827-.028.967-.532s-.037-.805-.555-.95l-.64-.177-.413 1.482ZM50.789 91.16a1.113 1.113 0 0 1-.094-.568v-.907c0-.518-.215-.687-.643-.772l-.66-.131-.403 2.023-.905-.178 1.013-5.117 1.802.355c1.125.224 1.566.86 1.38 1.795-.152.767-.745 1.11-1.293 1.065v.016c.415.154.616.465.625.983l.01.998c-.005.218.042.435.137.632l-.97-.194Zm-.124-4.563-.804-.16-.322 1.617.806.16c.59.117.87-.132.975-.659.097-.499-.057-.84-.655-.958ZM55.682 90.553l-1.652-.199-.518 1.243-.888-.108 2.173-4.993 1.093.131.928 5.366-.923-.11-.213-1.33Zm-1.364-.887 1.242.149-.355-2.253h-.004l-.883 2.104ZM61.071 86.992l.888.04-.226 5.21-.827-.035-1.826-3.66h-.025l-.16 3.573-.873-.037.225-5.213.912.039 1.738 3.571h.023l.151-3.488ZM63.132 87.035l1.491-.047c1.42-.045 2.322.777 2.377 2.532.055 1.756-.794 2.636-2.214 2.682l-1.489.047-.165-5.214Zm1.065 4.404.532-.018c.805-.025 1.335-.557 1.293-1.869-.043-1.311-.604-1.808-1.408-1.775l-.532.018.115 3.644ZM73.913 88.718c.233 1.677-.395 2.767-1.665 2.943-1.269.175-2.17-.7-2.403-2.379-.233-1.679.403-2.767 1.665-2.943 1.262-.175 2.17.7 2.403 2.379Zm-3.092.431c.164 1.175.618 1.837 1.33 1.738.712-.1.976-.861.813-2.036-.164-1.175-.62-1.839-1.339-1.738-.719.101-.981.86-.804 2.036ZM75.573 91.055l-1.086-5.103 2.84-.605.163.772-1.931.412.314 1.482 1.688-.355.16.75-1.689.354.448 2.102-.907.191ZM82.695 89.245 81.34 85.03l-1.345.434-.243-.751 3.584-1.154.24.75-1.345.434 1.358 4.215-.892.288ZM86.134 88.082l-2-4.815.856-.355.838 2.011 1.752-.73-.841-2.012.857-.355L89.6 86.64l-.857.355-.861-2.07-1.752.73.86 2.07-.856.356ZM93.718 84.563l-2.662 1.38-2.402-4.629 2.654-1.377.355.7-1.85.96.648 1.242 1.615-.838.345.666-1.614.838.682 1.317 1.858-.964.371.705ZM96.42 79.364l-.426-2.425.784-.532.574 3.55 1.114 1.62-.766.533-1.115-1.623-3.113-1.801.816-.561 2.112 1.267.02-.028ZM103.033 77.992l-2.307 1.92-3.34-4.008 2.307-1.915.504.607-1.598 1.335.9 1.08 1.397-1.165.481.575-1.399 1.166.95 1.14 1.608-1.34.497.605ZM105.007 74.243l-1.162 1.19.67 1.169-.628.642-2.641-4.764.77-.788 4.825 2.53-.65.663-1.184-.642Zm-1.526.541.878-.898-2.005-1.086-.013.01 1.14 1.974ZM109.388 70.999a1.117 1.117 0 0 1-.552-.167l-.81-.407c-.465-.229-.71-.111-.978.235l-.41.532 1.635 1.262-.563.731-4.137-3.179 1.118-1.455c.699-.91 1.464-1.023 2.22-.442.62.476.666 1.16.382 1.633l.012.009c.322-.304.689-.355 1.16-.125l.898.434c.193.102.408.156.626.158l-.601.78Zm-4.145-1.914-.501.652 1.309 1.003.498-.65c.368-.478.27-.838-.158-1.166-.427-.329-.781-.316-1.148.166v-.005Z" fill="#000"/></g><defs><clipPath id="which_svg__a"><path fill="#fff" d="M0 0h125.728v100H0z"/></clipPath></defs></svg>