<svg viewBox="0 0 430 133" xmlns="http://www.w3.org/2000/svg" class="Logo_svg__4mgLP"><g fill="none" fill-rule="evenodd"><path id="logotype" d="M303.672 130.72v-58h9.119v32.8l15.84-15.44h11.602l-17.122 16.88 17.52 23.76h-10.879l-12.961-17.519-4 3.919v13.6h-9.119M259.434 130.72V90.08h9.199V96c1.332-2.293 3.094-4.066 5.281-5.32 2.186-1.253 4.692-1.88 7.52-1.88 4.586 0 8.172 1.48 10.759 4.44 2.586 2.961 3.879 7.054 3.879 12.28v25.2h-9.279v-24.559c0-3.093-.693-5.454-2.08-7.081-1.387-1.626-3.439-2.44-6.16-2.44-1.92 0-3.627.521-5.119 1.561-1.494 1.039-2.668 2.493-3.52 4.359-.855 1.867-1.281 4.054-1.281 6.56v21.6h-9.199M231.354 124.08c2.293 0 4.293-.546 6-1.64 1.707-1.092 3.027-2.666 3.961-4.72.931-2.053 1.4-4.466 1.4-7.24 0-4.266-1.016-7.626-3.041-10.08-2.027-2.452-4.773-3.68-8.24-3.68-3.52 0-6.307 1.228-8.36 3.68-2.054 2.454-3.08 5.814-3.08 10.08 0 2.774.467 5.187 1.401 7.24.931 2.054 2.265 3.628 4 4.72 1.732 1.094 3.718 1.64 5.959 1.64zm-2 7.92c-3.68 0-6.934-.92-9.76-2.76-2.828-1.84-5.039-4.386-6.641-7.64-1.599-3.252-2.398-6.96-2.398-11.12 0-4.212.799-7.96 2.398-11.24 1.602-3.28 3.813-5.84 6.641-7.68 2.826-1.84 6.08-2.76 9.76-2.76 2.72 0 5.226.6 7.519 1.8 2.293 1.2 4.24 2.867 5.842 5v-5.52h9.199v40.64h-9.199v-5.519c-1.602 2.187-3.549 3.867-5.842 5.039-2.293 1.172-4.799 1.76-7.519 1.76zM187.356 122.8c2.879 0 5.132-.772 6.759-2.32 1.627-1.546 2.44-3.652 2.44-6.319s-.813-4.801-2.44-6.401c-1.627-1.599-3.88-2.4-6.759-2.4h-16.881v17.44h16.881zm-.961-24.639c2.613 0 4.666-.734 6.16-2.201 1.492-1.466 2.24-3.4 2.24-5.799 0-2.454-.748-4.373-2.24-5.761-1.494-1.386-3.6-2.08-6.32-2.08h-15.76v15.841h15.92zm-25.44 32.559V74.4h27.041c3.305 0 6.186.64 8.639 1.92 2.453 1.28 4.32 3.04 5.6 5.28 1.281 2.24 1.919 4.72 1.919 7.44 0 2.72-.693 5.134-2.08 7.24-1.386 2.108-3.279 3.694-5.679 4.76 3.146 1.068 5.56 2.814 7.24 5.24 1.68 2.427 2.519 5.294 2.519 8.6 0 2.988-.679 5.694-2.039 8.12-1.359 2.427-3.293 4.32-5.8 5.68-2.506 1.36-5.44 2.04-8.799 2.04h-28.561zM409.272 50.76c2.293 0 4.279-.532 5.959-1.599 1.679-1.067 2.986-2.573 3.92-4.521.933-1.946 1.4-4.252 1.4-6.92 0-4.053-1-7.252-3-9.599-2-2.347-4.734-3.521-8.199-3.521-3.522 0-6.295 1.174-8.321 3.521-2.027 2.347-3.041 5.546-3.041 9.599 0 2.668.467 4.974 1.401 6.92.933 1.948 2.252 3.454 3.961 4.521 1.705 1.067 3.679 1.599 5.92 1.599zm.48 24.641c-4.748 0-8.842-1.04-12.281-3.12-3.44-2.08-5.719-5.014-6.84-8.801l8.801-2.319c.799 2.185 2.105 3.839 3.92 4.96 1.812 1.12 4.025 1.679 6.638 1.679 2.241 0 4.147-.399 5.721-1.2a8.16 8.16 0 003.6-3.56c.826-1.574 1.24-3.507 1.24-5.799V51.88c-1.6 2.028-3.533 3.6-5.799 4.72-2.268 1.12-4.762 1.681-7.48 1.681-3.629 0-6.854-.867-9.68-2.601-2.828-1.732-5.041-4.16-6.641-7.279-1.599-3.12-2.4-6.681-2.4-10.681 0-4 .801-7.572 2.4-10.72 1.6-3.146 3.813-5.599 6.641-7.36 2.826-1.76 6.051-2.64 9.68-2.64 2.718 0 5.226.56 7.519 1.68 2.293 1.12 4.213 2.721 5.76 4.8v-5.199h9.121V57.08c0 3.787-.814 7.053-2.441 9.8-1.627 2.746-3.948 4.853-6.959 6.321-3.014 1.465-6.52 2.2-10.52 2.2zM346.233 58.92V18.281h9.199v5.92c1.332-2.293 3.094-4.067 5.281-5.321 2.186-1.253 4.691-1.88 7.52-1.88 4.585 0 8.171 1.48 10.759 4.44 2.586 2.961 3.879 7.055 3.879 12.28v25.2h-9.279V34.361c0-3.093-.693-5.453-2.08-7.08-1.387-1.627-3.44-2.441-6.16-2.441-1.92 0-3.627.521-5.119 1.561-1.495 1.039-2.668 2.493-3.52 4.359-.855 1.867-1.281 4.054-1.281 6.561V58.92h-9.199M329.352 58.921h9.281v-40.64h-9.281v40.64zm4.64-46.241c-1.654 0-3.054-.586-4.199-1.76-1.148-1.173-1.721-2.586-1.721-4.24 0-1.652.573-3.08 1.721-4.279 1.145-1.2 2.545-1.801 4.199-1.801 1.653 0 3.08.601 4.28 1.801 1.201 1.199 1.8 2.627 1.8 4.279 0 1.654-.599 3.067-1.8 4.24-1.2 1.174-2.627 1.76-4.28 1.76zM312.633 58.92h9.119v-58h-9.119zM284.313 58.92V18.281h9.201v7.12c1.066-2.401 2.519-4.253 4.359-5.561 1.84-1.306 4.012-1.96 6.52-1.96.533 0 1 .014 1.4.04.4.028.84.094 1.32.201v8.719c-.8-.16-1.707-.24-2.72-.24-3.254 0-5.879 1.12-7.879 3.36-2 2.241-3 5.308-3 9.201V58.92h-9.201M256.234 52.281c2.292 0 4.292-.547 6-1.641 1.706-1.092 3.026-2.666 3.959-4.72.934-2.052 1.401-4.465 1.401-7.24 0-4.266-1.014-7.626-3.039-10.08-2.029-2.452-4.776-3.68-8.24-3.68-3.522 0-6.309 1.228-8.362 3.68-2.052 2.454-3.08 5.814-3.08 10.08 0 2.775.467 5.188 1.401 7.24.933 2.054 2.267 3.628 4 4.72 1.732 1.094 3.72 1.641 5.96 1.641zm-1.999 7.92c-3.68 0-6.934-.92-9.76-2.761-2.828-1.84-5.041-4.386-6.641-7.64-1.599-3.252-2.4-6.96-2.4-11.12 0-4.212.801-7.96 2.4-11.24 1.6-3.279 3.813-5.84 6.641-7.68 2.826-1.84 6.08-2.76 9.76-2.76 2.718 0 5.226.6 7.519 1.8 2.293 1.2 4.24 2.867 5.84 5v-5.519h9.199V58.92h-9.199v-5.519c-1.6 2.187-3.547 3.867-5.84 5.039-2.293 1.173-4.801 1.761-7.519 1.761zM225.674 59.8c-4.268 0-7.334-.986-9.199-2.96-1.867-1.972-2.801-4.8-2.801-8.479V25.8h-6.398v-7.519h6.398V7.72h9.201v10.561h8.479V25.8h-8.479v22.08c0 1.441.426 2.481 1.279 3.12.854.64 2.106.96 3.76.96.854 0 2-.08 3.44-.24V59c-1.973.533-3.868.8-5.68.8M180.795 60.201c-4.373 0-8.254-.748-11.641-2.241-3.386-1.492-6.107-3.572-8.158-6.24-2.054-2.666-3.4-5.76-4.041-9.28l9.76-2.48c.48 2.401 1.346 4.454 2.6 6.161a12.28 12.28 0 004.8 3.919c1.946.908 4.147 1.361 6.6 1.361 3.627 0 6.6-.721 8.92-2.16 2.32-1.441 3.48-3.494 3.48-6.161 0-1.706-.494-3.066-1.48-4.08-.986-1.012-2.481-1.852-4.481-2.52-2-.666-4.892-1.372-8.679-2.119-4.373-.96-7.959-2.053-10.76-3.281-2.799-1.226-4.973-2.892-6.52-5-1.546-2.106-2.32-4.812-2.32-8.12 0-3.465.906-6.452 2.721-8.96 1.812-2.505 4.332-4.412 7.558-5.719 3.227-1.307 6.948-1.96 11.161-1.96 3.839 0 7.226.667 10.16 2 2.933 1.333 5.334 3.187 7.201 5.559 1.865 2.374 3.199 5.134 4 8.281l-9.281 2.639c-.907-3.2-2.399-5.652-4.479-7.36-2.08-1.706-4.695-2.56-7.842-2.56-3.306 0-5.986.668-8.039 2-2.054 1.334-3.08 3.094-3.08 5.281 0 1.493.467 2.707 1.401 3.639.931.934 2.293 1.708 4.08 2.321 1.785.613 4.386 1.293 7.799 2.04 4.746.96 8.601 2.08 11.56 3.359 2.961 1.28 5.279 3.028 6.961 5.24 1.68 2.214 2.52 5.134 2.52 8.76 0 3.574-.961 6.694-2.881 9.36-1.92 2.668-4.573 4.72-7.959 6.16-3.389 1.44-7.268 2.161-11.641 2.161" fill="currentcolor" class="Logo_logotype__tTFcm"/><path class="Logo_siteLogoCoin__eO3pb" d="M129.783 65.813c0 35.839-29.052 64.891-64.891 64.891C29.053 130.704 0 101.652 0 65.813 0 29.974 29.053.921 64.892.921s64.891 29.053 64.891 64.892" fill="#6935D3"/><path class="Logo_siteLogoCurve1__TGQBm" d="M39.076 65.814v-3.603c0-22.399 18.22-40.621 40.622-40.621h3.6v14.728h-3.6c-14.276 0-25.896 11.614-25.896 25.893v3.603H39.076" fill="#FFF"/><path class="Logo_siteLogoCurve2__bFu4e" d="M90.707 65.811v3.603c0 22.399-18.22 40.622-40.622 40.622h-3.599V95.308h3.599c14.277 0 25.897-11.615 25.897-25.894v-3.603h14.725" fill="#FFF"/></g></svg>