<svg xmlns="http://www.w3.org/2000/svg" xmlns:xlink="http://www.w3.org/1999/xlink" fill="none" viewBox="0 0 322 116"><g><g><g><path fill="#fff" d="M115.159 0H315.04A6.96 6.96 0 01322 6.96v101.236a6.959 6.959 0 01-6.96 6.959H115.159V0z"/><g fill="#000"><path d="M127.873 26.309V15.898h1.626v4.392h5.398v-4.392h1.612v10.411h-1.612v-4.57h-5.398v4.57h-1.626zM142.371 26.546c-.739 0-1.395-.168-1.967-.503a3.555 3.555 0 01-1.346-1.405c-.325-.602-.488-1.292-.488-2.07 0-.77.158-1.455.474-2.056a3.53 3.53 0 011.345-1.42c.582-.345 1.248-.517 1.997-.517.729 0 1.38.172 1.952.517a3.432 3.432 0 011.331 1.42c.325.601.488 1.287.488 2.055 0 .77-.163 1.46-.488 2.07a3.453 3.453 0 01-1.331 1.406c-.572.335-1.228.503-1.967.503zm0-1.346c.444 0 .828-.104 1.154-.31.325-.218.571-.523.739-.918.177-.394.266-.862.266-1.405 0-.542-.089-1.01-.266-1.404-.168-.405-.414-.71-.739-.917-.326-.217-.71-.326-1.154-.326-.444 0-.828.109-1.153.326a2.112 2.112 0 00-.755.917c-.177.394-.266.862-.266 1.404 0 .533.089.996.266 1.39.178.395.429.7.755.918.335.216.719.325 1.153.325zM150.455 26.546c-.838 0-1.494-.271-1.967-.814-.473-.542-.71-1.291-.71-2.248v-4.673h1.583v4.54c0 .602.133 1.06.399 1.376.266.315.66.473 1.183.473.375 0 .705-.099.991-.296.296-.207.522-.493.68-.858.168-.364.251-.788.251-1.271V18.81h1.583v7.498h-1.583v-1.11a2.65 2.65 0 01-.99.992c-.405.236-.878.355-1.42.355zM159.383 26.546c-.887 0-1.621-.207-2.203-.622-.572-.423-.947-.995-1.124-1.715l1.464-.355c.128.454.35.809.666 1.065.325.256.729.384 1.212.384s.863-.098 1.139-.295c.276-.207.414-.464.414-.77 0-.266-.099-.463-.296-.59-.187-.13-.542-.257-1.065-.385l-.266-.06a12.13 12.13 0 00-.281-.059c-.621-.138-1.124-.29-1.508-.458-.385-.168-.68-.395-.887-.68-.198-.286-.296-.656-.296-1.11 0-.463.123-.867.37-1.212a2.318 2.318 0 011.035-.814c.453-.197.971-.295 1.552-.295.809 0 1.46.182 1.953.547.493.365.838.872 1.035 1.523l-1.405.384c-.128-.384-.321-.68-.577-.887-.256-.217-.586-.325-.991-.325-.414 0-.754.089-1.02.266-.256.178-.385.41-.385.695 0 .256.114.449.341.577.236.118.655.246 1.257.384a.33.33 0 01.103.015c.03.01.064.02.104.03.67.138 1.202.29 1.597.458.394.168.695.4.902.695.217.286.325.67.325 1.154 0 .483-.128.912-.384 1.286-.257.365-.621.651-1.095.858-.473.207-1.035.31-1.686.31zM167.572 26.546c-.759 0-1.425-.168-1.997-.503a3.554 3.554 0 01-1.331-1.42c-.305-.611-.458-1.301-.458-2.07 0-.75.148-1.425.444-2.026a3.455 3.455 0 011.301-1.435c.572-.345 1.242-.517 2.011-.517.73 0 1.356.162 1.878.488.523.325.917.788 1.183 1.39.267.591.4 1.281.4 2.07 0 .148-.005.281-.015.4h-5.664c.049.768.271 1.35.665 1.745.395.384.927.576 1.598.576.502 0 .911-.118 1.227-.355.315-.236.582-.567.799-.99l1.271.473c-.295.7-.724 1.237-1.286 1.612-.562.374-1.238.562-2.026.562zm1.893-4.733c-.04-.62-.232-1.094-.577-1.42-.335-.335-.784-.502-1.346-.502-.591 0-1.074.167-1.449.503-.375.325-.616.798-.725 1.42h4.097zM176.643 26.309V15.898h4.88c1.015 0 1.804.276 2.366.828.562.552.843 1.297.843 2.233 0 .858-.237 1.558-.71 2.1-.463.542-1.119.858-1.967.947l2.485 4.303h-1.804l-2.455-4.244h-2.012v4.244h-1.626zm4.658-5.59c.562 0 1.001-.143 1.316-.429.316-.286.474-.715.474-1.287 0-.581-.158-1.015-.474-1.3-.315-.287-.754-.43-1.316-.43h-3.032v3.446h3.032zM189.581 26.546c-.759 0-1.424-.168-1.996-.503a3.548 3.548 0 01-1.331-1.42c-.306-.611-.459-1.301-.459-2.07 0-.75.148-1.425.444-2.026a3.462 3.462 0 011.301-1.435c.572-.345 1.243-.517 2.012-.517.729 0 1.355.162 1.878.488a3.04 3.04 0 011.183 1.39c.266.591.399 1.281.399 2.07 0 .148-.005.281-.015.4h-5.664c.05.768.271 1.35.666 1.745.394.384.927.576 1.597.576.503 0 .912-.118 1.227-.355.316-.236.582-.567.799-.99l1.272.473c-.296.7-.725 1.237-1.287 1.612-.562.374-1.237.562-2.026.562zm1.893-4.733c-.039-.62-.232-1.094-.577-1.42-.335-.335-.783-.502-1.345-.502-.592 0-1.075.167-1.45.503-.374.325-.616.798-.724 1.42h4.096zM194.775 26.309v-7.498h1.583v1.11a2.68 2.68 0 01.976-.991c.414-.237.892-.355 1.434-.355.838 0 1.494.27 1.967.813.473.542.71 1.291.71 2.248v4.673h-1.583v-4.54c0-.601-.133-1.06-.399-1.375-.266-.316-.66-.474-1.183-.474-.375 0-.71.104-1.006.31a2.018 2.018 0 00-.68.844c-.158.365-.236.789-.236 1.272v3.963h-1.583zM206.868 26.546c-.739 0-1.395-.168-1.966-.503a3.548 3.548 0 01-1.346-1.405c-.326-.602-.488-1.292-.488-2.07 0-.77.158-1.455.473-2.056a3.525 3.525 0 011.346-1.42c.581-.345 1.247-.517 1.996-.517.73 0 1.38.172 1.952.517a3.425 3.425 0 011.331 1.42c.326.601.488 1.287.488 2.055 0 .77-.162 1.46-.488 2.07a3.447 3.447 0 01-1.331 1.406c-.572.335-1.227.503-1.967.503zm0-1.346c.444 0 .829-.104 1.154-.31.325-.218.572-.523.739-.918.178-.394.267-.862.267-1.405 0-.542-.089-1.01-.267-1.404-.167-.405-.414-.71-.739-.917-.325-.217-.71-.326-1.154-.326-.443 0-.828.109-1.153.326a2.11 2.11 0 00-.754.917c-.178.394-.266.862-.266 1.404 0 .533.088.996.266 1.39.177.395.429.7.754.918.335.216.72.325 1.153.325zM214.38 26.309l-2.987-7.498h1.626l2.16 5.605 2.144-5.605h1.627l-2.988 7.498h-1.582zM222.189 26.486c-.513 0-.961-.098-1.346-.295a2.18 2.18 0 01-.858-.828 2.256 2.256 0 01-.295-1.14c0-.729.281-1.3.843-1.715.562-.414 1.34-.62 2.336-.62h1.73v-.637c0-.394-.138-.714-.414-.96-.266-.257-.645-.385-1.138-.385-.454 0-.824.118-1.109.355-.277.226-.469.542-.577.946l-1.523-.251c.118-.513.325-.947.621-1.302.295-.355.66-.62 1.094-.798a3.845 3.845 0 011.508-.281c.631 0 1.179.113 1.642.34a2.5 2.5 0 011.065.946c.256.395.384.858.384 1.39v5.058h-1.553v-1.287a2.702 2.702 0 01-.961 1.065c-.404.266-.887.4-1.449.4zm.444-1.242c.384 0 .724-.093 1.02-.28a2.079 2.079 0 00.946-1.745v-.326h-1.434c-.621 0-1.099.103-1.435.31a.993.993 0 00-.488.888c0 .355.129.636.385.843.256.207.591.31 1.006.31zM230.606 26.457c-.759 0-1.306-.178-1.642-.533-.335-.364-.502-.877-.502-1.537v-4.274h-1.198V18.81h1.198v-1.937h1.582v1.937h1.582v1.302h-1.582v4.2c0 .286.079.492.237.62.157.119.394.178.709.178.158 0 .365-.02.621-.059v1.272a4.03 4.03 0 01-1.005.133zM233.176 26.309v-7.498h1.582v7.498h-1.582zm.798-8.577a1.036 1.036 0 01-1.05-1.05 1.036 1.036 0 011.05-1.05c.286 0 .533.103.74.31.207.207.31.454.31.74s-.103.532-.31.74a1.01 1.01 0 01-.74.31zM240.301 26.546c-.739 0-1.395-.168-1.967-.503a3.553 3.553 0 01-1.345-1.405c-.326-.602-.488-1.292-.488-2.07 0-.77.157-1.455.473-2.056a3.525 3.525 0 011.346-1.42c.581-.345 1.247-.517 1.996-.517.73 0 1.38.172 1.952.517a3.425 3.425 0 011.331 1.42c.326.601.488 1.287.488 2.055 0 .77-.162 1.46-.488 2.07a3.447 3.447 0 01-1.331 1.406c-.572.335-1.227.503-1.967.503zm0-1.346c.444 0 .828-.104 1.154-.31.325-.218.572-.523.739-.918.178-.394.266-.862.266-1.405 0-.542-.088-1.01-.266-1.404-.167-.405-.414-.71-.739-.917-.326-.217-.71-.326-1.154-.326-.443 0-.828.109-1.153.326a2.103 2.103 0 00-.754.917c-.178.394-.267.862-.267 1.404 0 .533.089.996.267 1.39.177.395.428.7.754.918.335.216.72.325 1.153.325zM245.842 26.309v-7.498h1.582v1.11c.246-.425.572-.755.976-.991.414-.237.892-.355 1.434-.355.838 0 1.494.27 1.967.813.474.542.71 1.291.71 2.248v4.673h-1.582v-4.54c0-.601-.133-1.06-.399-1.375-.267-.316-.661-.474-1.184-.474-.374 0-.709.104-1.005.31a2.01 2.01 0 00-.68.844c-.158.365-.237.789-.237 1.272v3.963h-1.582zM257.314 26.546c-.888 0-1.622-.207-2.204-.622-.572-.423-.946-.995-1.124-1.715l1.464-.355c.129.454.35.809.666 1.065.325.256.729.384 1.213.384.483 0 .862-.098 1.138-.295.276-.207.414-.464.414-.77 0-.266-.098-.463-.295-.59-.188-.13-.543-.257-1.065-.385l-.266-.06a14.83 14.83 0 00-.281-.059c-.622-.138-1.124-.29-1.509-.458-.384-.168-.68-.395-.887-.68-.197-.286-.296-.656-.296-1.11 0-.463.123-.867.37-1.212a2.318 2.318 0 011.035-.814c.454-.197.971-.295 1.553-.295.808 0 1.459.182 1.952.547.493.365.838.872 1.035 1.523l-1.405.384c-.128-.384-.32-.68-.577-.887-.256-.217-.586-.325-.99-.325-.414 0-.755.089-1.021.266-.256.178-.384.41-.384.695 0 .256.113.449.34.577.236.118.655.246 1.257.384.039 0 .074.005.103.015.03.01.064.02.104.03.67.138 1.203.29 1.597.458.394.168.695.4.902.695.217.286.325.67.325 1.154 0 .483-.128.912-.384 1.286-.256.365-.621.651-1.094.858-.474.207-1.036.31-1.686.31z"/></g><g><path fill="#000" fill-rule="evenodd" d="M130.306 38.694a5.014 5.014 0 018.408 4.777 5.015 5.015 0 11-9.724 0 5.014 5.014 0 011.316-4.777zm-.518 6.484a4.089 4.089 0 004.064 3.616 4.094 4.094 0 004.064-3.615 5.014 5.014 0 01-8.128 0zm4.064-7.03a4.094 4.094 0 00-4.092 4.092 4.093 4.093 0 006.986 2.894 4.093 4.093 0 00-2.894-6.986zm0 1.353a.46.46 0 01.326.136l1.708 1.707a.462.462 0 01-.653.653l-.919-.92v3.44a.463.463 0 01-.924 0v-3.44l-.919.92a.462.462 0 01-.653-.653l1.708-1.708a.46.46 0 01.326-.135z" clip-rule="evenodd"/><g fill="#7A708C"><path d="M148.698 47.61c-.696 0-1.309-.123-1.84-.366a3.247 3.247 0 01-1.279-1.057c-.313-.461-.513-1-.6-1.618l1.057-.209c.061.478.209.892.444 1.24.234.347.539.613.913.795.374.183.805.275 1.292.275.713 0 1.292-.157 1.735-.47.453-.313.679-.748.679-1.305 0-.348-.092-.63-.274-.848-.183-.218-.466-.396-.848-.535-.383-.14-.927-.283-1.631-.43-.705-.14-1.275-.305-1.71-.497-.435-.2-.765-.46-.992-.783-.226-.33-.339-.743-.339-1.24 0-.521.139-.973.418-1.356.287-.383.678-.674 1.174-.875a4.4 4.4 0 011.696-.313c.609 0 1.144.113 1.605.34.462.217.836.522 1.123.913.295.383.504.835.626 1.357l-.992.222c-.156-.583-.435-1.044-.835-1.383-.4-.348-.909-.522-1.527-.522-.669 0-1.209.143-1.618.43-.408.287-.613.661-.613 1.123 0 .304.083.552.248.743.165.192.413.353.744.483.339.13.813.257 1.422.379.774.173 1.401.36 1.879.56.479.192.848.462 1.109.81.27.348.405.8.405 1.357 0 .556-.148 1.044-.444 1.461-.287.418-.696.744-1.226.979-.522.226-1.123.34-1.801.34zM155.747 47.596c-.487 0-.9-.091-1.24-.274a1.909 1.909 0 01-.743-.744 2.064 2.064 0 01-.248-1.005c0-.626.243-1.117.731-1.474.495-.357 1.187-.535 2.074-.535h1.67v-.652c0-.41-.147-.749-.443-1.018-.296-.27-.7-.405-1.214-.405-.469 0-.848.118-1.135.353-.287.234-.491.56-.613.978l-.94-.182a2.6 2.6 0 01.535-1.097c.253-.304.566-.53.94-.678a3.377 3.377 0 011.252-.222c.522 0 .975.096 1.357.287.392.183.692.448.901.796.209.34.313.735.313 1.188v4.501h-.953V46.2a2.612 2.612 0 01-.9 1.018c-.374.252-.822.378-1.344.378zm.222-.822c.409 0 .765-.1 1.07-.3.304-.2.535-.466.691-.796a2.35 2.35 0 00.248-1.07v-.326h-1.526c-.635 0-1.122.108-1.462.326-.33.217-.496.526-.496.926 0 .383.135.688.405.914.278.217.635.326 1.07.326zM162.718 47.413l-2.635-6.563h1.017l2.114 5.376 2.101-5.376h1.018l-2.623 6.563h-.992zM167.645 47.413V40.85h.979v6.563h-.979zm.496-7.66c-.2 0-.37-.069-.509-.208a.693.693 0 01-.209-.509c0-.2.07-.37.209-.509a.693.693 0 01.509-.209c.2 0 .369.07.509.21.139.138.208.308.208.508s-.069.37-.208.509a.694.694 0 01-.509.209zM170.768 47.413V40.85h.965v1.083c.235-.4.544-.713.927-.94.382-.235.83-.352 1.344-.352.73 0 1.3.235 1.709.705.409.46.613 1.1.613 1.918v4.15h-.978v-4.007c0-.635-.135-1.113-.405-1.435-.261-.322-.657-.483-1.187-.483a1.8 1.8 0 00-1.044.313 2.093 2.093 0 00-.718.888c-.174.374-.261.813-.261 1.318v3.405h-.965zM181.207 50.101c-.731 0-1.358-.156-1.879-.47a2.397 2.397 0 01-1.057-1.33l.913-.274c.157.4.409.704.757.913.348.218.774.326 1.279.326.426 0 .796-.078 1.109-.235.313-.148.552-.374.717-.678.174-.305.261-.679.261-1.122v-1.214c-.261.4-.596.713-1.004.94a2.846 2.846 0 01-1.357.326 2.97 2.97 0 01-1.566-.418 2.888 2.888 0 01-1.083-1.174c-.253-.505-.379-1.079-.379-1.723 0-.643.126-1.217.379-1.722a2.913 2.913 0 011.07-1.174c.461-.287.987-.43 1.579-.43.495 0 .948.112 1.357.338.408.227.743.535 1.004.927V40.85h.966v6.368c0 .591-.126 1.104-.378 1.54a2.464 2.464 0 01-1.07.991c-.461.235-1.001.352-1.618.352zm-.092-3.627c.435 0 .818-.1 1.148-.3.331-.21.588-.5.77-.874.183-.383.274-.827.274-1.331 0-.766-.195-1.375-.587-1.827-.391-.453-.926-.679-1.605-.679-.67 0-1.205.226-1.605.679-.4.452-.6 1.061-.6 1.826 0 .505.091.949.274 1.331.183.374.439.666.77.875.339.2.726.3 1.161.3zM192.915 47.61c-.695 0-1.309-.123-1.839-.366a3.247 3.247 0 01-1.279-1.057c-.313-.461-.513-1-.6-1.618l1.057-.209c.06.478.208.892.443 1.24.235.347.54.613.914.795.374.183.804.275 1.291.275.714 0 1.292-.157 1.736-.47.452-.313.678-.748.678-1.305 0-.348-.091-.63-.274-.848-.182-.218-.465-.396-.848-.535-.383-.14-.926-.283-1.631-.43-.704-.14-1.274-.305-1.709-.497-.435-.2-.766-.46-.992-.783-.226-.33-.339-.743-.339-1.24 0-.521.139-.973.417-1.356.287-.383.679-.674 1.175-.875a4.396 4.396 0 011.696-.313c.609 0 1.144.113 1.605.34.461.217.835.522 1.122.913.296.383.505.835.627 1.357l-.992.222c-.157-.583-.435-1.044-.835-1.383-.4-.348-.909-.522-1.527-.522-.67 0-1.209.143-1.618.43-.409.287-.613.661-.613 1.123 0 .304.082.552.248.743.165.192.413.353.743.483.34.13.814.257 1.423.379.774.173 1.4.36 1.879.56.478.192.848.462 1.109.81.27.348.404.8.404 1.357 0 .556-.147 1.044-.443 1.461-.287.418-.696.744-1.227.979-.522.226-1.122.34-1.801.34zM198.33 49.893V40.85h.966v1.135a2.844 2.844 0 011.005-.978 2.622 2.622 0 011.37-.366c.6 0 1.131.148 1.592.444.461.295.817.709 1.07 1.24.261.53.391 1.135.391 1.813 0 .67-.13 1.27-.391 1.8-.253.531-.614.945-1.083 1.24a2.862 2.862 0 01-1.579.444c-.505 0-.962-.117-1.37-.352a2.96 2.96 0 01-1.005-.992v3.615h-.966zm3.171-3.132c.444 0 .831-.105 1.161-.313.34-.218.601-.522.783-.914.183-.4.274-.865.274-1.396 0-.809-.2-1.448-.6-1.918-.4-.478-.939-.718-1.618-.718-.67 0-1.205.24-1.605.718-.4.47-.6 1.11-.6 1.918 0 .53.091.996.274 1.396.183.392.439.696.77.914.339.209.726.313 1.161.313zM208.222 47.596c-.487 0-.9-.091-1.24-.274a1.909 1.909 0 01-.743-.744 2.064 2.064 0 01-.248-1.005c0-.626.243-1.117.73-1.474.496-.357 1.188-.535 2.075-.535h1.67v-.652c0-.41-.147-.749-.443-1.018-.296-.27-.701-.405-1.214-.405-.47 0-.848.118-1.135.353-.287.234-.491.56-.613.978l-.94-.182a2.6 2.6 0 01.535-1.097c.252-.304.566-.53.94-.678a3.377 3.377 0 011.252-.222c.522 0 .975.096 1.357.287.392.183.692.448.901.796.209.34.313.735.313 1.188v4.501h-.953V46.2a2.612 2.612 0 01-.9 1.018c-.374.252-.822.378-1.344.378zm.222-.822c.409 0 .765-.1 1.07-.3.304-.2.535-.466.691-.796a2.35 2.35 0 00.248-1.07v-.326h-1.526c-.635 0-1.123.108-1.462.326-.33.217-.496.526-.496.926 0 .383.135.688.405.914.278.217.635.326 1.07.326zM216.261 47.622c-.644 0-1.213-.148-1.709-.444a3.118 3.118 0 01-1.135-1.24c-.27-.53-.405-1.134-.405-1.813 0-.67.131-1.266.391-1.788.27-.53.649-.943 1.136-1.24.496-.304 1.065-.456 1.709-.456.487 0 .927.091 1.318.274.391.183.718.44.979.77s.443.718.548 1.161l-.914.196a2.109 2.109 0 00-.678-1.11c-.322-.286-.74-.43-1.253-.43-.461 0-.861.118-1.2.353-.331.226-.588.539-.77.94a3.245 3.245 0 00-.261 1.33c0 .496.087.944.261 1.344.182.4.439.713.77.94.339.226.739.339 1.2.339.505 0 .922-.14 1.253-.418.339-.278.57-.64.691-1.083l.914.17a3.054 3.054 0 01-.548 1.161c-.253.33-.574.587-.966.77a3.11 3.11 0 01-1.331.274zM223.473 47.622c-.652 0-1.222-.148-1.709-.444a3.098 3.098 0 01-1.135-1.252c-.261-.53-.392-1.135-.392-1.814 0-.661.131-1.253.392-1.775.261-.53.635-.943 1.122-1.24.487-.304 1.052-.456 1.696-.456.609 0 1.135.144 1.579.43.444.28.783.675 1.018 1.188.235.505.352 1.087.352 1.749 0 .113-.004.213-.013.3h-5.167c.026.809.239 1.426.639 1.853.4.417.94.626 1.618.626.505 0 .909-.117 1.214-.352.313-.244.583-.583.809-1.018l.796.3c-.244.6-.609 1.07-1.096 1.41-.479.33-1.053.495-1.723.495zm1.945-4.071c-.018-.653-.209-1.161-.575-1.527-.356-.365-.822-.548-1.396-.548-.626 0-1.131.187-1.513.561-.383.366-.614.87-.692 1.514h4.176z"/></g></g><g><text fill="#000" xml:space="preserve" style="white-space:pre" font-family="Universal Sans" font-size="17.517" font-weight="850" letter-spacing="0"><tspan x="126.468" y="89.49">£5,600.00</tspan></text><g fill="#7A708C"><text xml:space="preserve" style="white-space:pre" font-family="Universal Sans" font-size="13.046" font-weight="450" letter-spacing="0"><tspan x="276" y="89.39">100</tspan></text><path d="M299.683 89l5.414-9.185h.874L300.557 89h-.874zm5.427.091c-.339 0-.656-.082-.952-.247a1.811 1.811 0 01-.678-.679 1.913 1.913 0 01-.248-.952c0-.34.082-.648.248-.927.165-.287.391-.513.678-.678.296-.165.613-.248.952-.248a1.85 1.85 0 011.618.926c.165.279.248.587.248.927 0 .339-.083.656-.248.952a1.85 1.85 0 01-1.618.926zm0-.77c.296 0 .548-.104.757-.313.217-.217.326-.482.326-.795 0-.305-.109-.561-.326-.77a1.011 1.011 0 00-.757-.326c-.295 0-.552.108-.769.326a1.046 1.046 0 00-.314.77c0 .313.105.578.314.796.217.208.474.313.769.313zm-4.514-4.814a1.92 1.92 0 01-.952-.248 1.82 1.82 0 01-.679-.678 1.923 1.923 0 01-.247-.952c0-.34.082-.648.247-.927.166-.287.392-.513.679-.678.296-.165.613-.248.952-.248a1.853 1.853 0 011.866 1.853c0 .339-.083.656-.248.952a1.852 1.852 0 01-1.618.926zm0-.77c.296 0 .548-.104.757-.312.217-.218.326-.483.326-.796 0-.305-.109-.561-.326-.77a1.011 1.011 0 00-.757-.326c-.295 0-.552.108-.77.326a1.049 1.049 0 00-.313.77c0 .313.105.578.313.796.218.208.475.313.77.313z"/></g></g><g stroke-linecap="round" stroke-width="3.503"><path stroke="#F0F0F0" d="M126.474 102.971H313"/><path stroke="#68EAD0" d="M126 103h186.3" pathLength="1" stroke-dashoffset="0px" stroke-dasharray="1px 1px"/></g></g><g><mask id="mask0_6764_175941" style="mask-type:alpha" width="116" height="116" x="0" y="0" maskUnits="userSpaceOnUse"><path fill="red" d="M0 6.96A6.96 6.96 0 016.96 0h108.199v115.156H6.959A6.96 6.96 0 010 108.196V6.959z"/></mask><g mask="url(#mask0_6764_175941)"><path fill="url(#renovationsPattern)" d="M0 7.058A6.96 6.96 0 016.96.1h108.199v115.159H6.959A6.96 6.96 0 010 108.298V7.058z"/></g></g></g></g><defs><pattern id="renovationsPattern" width="1" height="1" patternContentUnits="objectBoundingBox"><use href="#renovations" transform="matrix(.00327 0 0 .00327 -.042 0)" xlink:href="#renovations"/><image width="332" height="306" href="/images/homepage/family.jpg" xlink:href="/images/homepage/family.jpg" id="renovations"/></pattern></defs></svg>