<svg class="mr8pf51" xmlns="http://www.w3.org/2000/svg" fill="none" viewBox="0 0 295 178"><rect width="295" height="177.848" fill="#fff" rx="15.389"/><path fill="#192852" d="M16.791 21v-8.159h.893v3.616h4.635v-3.616h.893V21h-.893v-3.743h-4.635V21h-.893zm11.053.185c-.556 0-1.05-.13-1.483-.394a2.773 2.773 0 01-1.02-1.089c-.247-.471-.37-1.008-.37-1.61 0-.604.119-1.14.358-1.612a2.753 2.753 0 011.02-1.1c.44-.264.943-.395 1.507-.395.556 0 1.047.132 1.472.394.432.263.768.63 1.008 1.101s.36 1.008.36 1.611-.12 1.14-.36 1.611c-.24.464-.576.827-1.008 1.09-.425.262-.92.393-1.484.393zm0-.764c.402 0 .75-.093 1.043-.279.294-.185.518-.452.672-.8.163-.355.244-.772.244-1.25 0-.48-.081-.897-.244-1.253a1.755 1.755 0 00-.672-.81c-.293-.194-.641-.29-1.043-.29-.402 0-.753.096-1.054.29a1.9 1.9 0 00-.684.822c-.162.348-.244.761-.244 1.24 0 .471.082.885.244 1.24.162.348.39.618.684.811.301.186.652.279 1.054.279zm5.321.579l-1.808-5.83h.858l1.402 4.613 1.414-4.613h.811l1.414 4.613 1.402-4.613h.846L37.696 21h-.846l-1.425-4.59L34.023 21h-.858zm10.466 0v-5.841h.858v.846a1.868 1.868 0 011.704-1.02c.432 0 .791.1 1.077.301.294.201.502.487.626.858.17-.363.41-.645.719-.846.309-.209.676-.313 1.1-.313.58 0 1.028.166 1.345.498.317.325.475.808.475 1.45V21h-.869v-3.87c0-.464-.097-.812-.29-1.044-.193-.232-.486-.348-.88-.348-.294 0-.553.078-.777.232-.216.147-.39.363-.522.65-.123.277-.185.621-.185 1.03V21h-.87v-3.87c0-.464-.096-.812-.289-1.044-.193-.232-.487-.348-.88-.348-.286 0-.541.078-.766.232-.216.147-.39.363-.521.65-.131.277-.197.617-.197 1.02V21h-.858zm11.298.162c-.432 0-.8-.08-1.1-.243a1.696 1.696 0 01-.661-.66 1.84 1.84 0 01-.22-.893c0-.556.216-.993.649-1.31.44-.317 1.054-.475 1.842-.475h1.484v-.58c0-.363-.132-.664-.394-.903-.263-.24-.622-.36-1.078-.36-.417 0-.753.105-1.008.313-.255.209-.437.499-.545.87l-.835-.163a2.3 2.3 0 01.476-.973 2.04 2.04 0 01.834-.603 3.004 3.004 0 011.113-.197c.463 0 .865.085 1.205.255.348.162.614.398.8.707.185.301.278.653.278 1.055V21h-.846v-1.078c-.193.379-.46.68-.8.904-.332.224-.73.336-1.194.336zm.197-.73c.364 0 .68-.089.95-.266.271-.178.476-.414.615-.707.147-.294.22-.61.22-.95v-.29h-1.356c-.564 0-.996.096-1.298.29a.928.928 0 00-.44.822c0 .34.12.61.36.811.246.194.563.29.95.29zM59.59 21v-5.83h.858v.963c.209-.356.483-.634.823-.835.34-.209.738-.313 1.194-.313.648 0 1.154.209 1.518.626.363.41.544.977.544 1.704V21h-.869v-3.558c0-.564-.12-.989-.36-1.275-.23-.286-.582-.429-1.054-.429a1.6 1.6 0 00-.927.279c-.27.185-.483.448-.637.788-.155.332-.232.722-.232 1.17V21h-.858zm9.017 2.387c-.58 0-1.078-.123-1.495-.37a1.898 1.898 0 01-.858-1.067l.788-.255c.124.302.321.534.591.696.279.17.61.255.997.255.348 0 .645-.07.892-.209a1.29 1.29 0 00.58-.603c.139-.262.209-.59.209-.985v-1.02c-.201.364-.472.646-.812.846-.332.201-.722.302-1.17.302-.642 0-1.144-.205-1.507-.614-.355-.418-.533-.985-.533-1.704V15.17h.858v3.36c0 .557.116.978.347 1.264.232.278.584.417 1.055.417.34 0 .641-.089.904-.267.27-.185.479-.444.626-.776.154-.34.232-.734.232-1.182V15.17h.88v5.655c0 .526-.108.981-.324 1.368-.209.386-.51.68-.904.88-.386.21-.838.313-1.356.313zm7.44-.185V15.17h.857v1.009c.232-.371.53-.66.892-.87a2.333 2.333 0 011.217-.324c.533 0 1.005.132 1.414.394.41.263.726.63.95 1.101.232.471.348 1.008.348 1.611 0 .595-.116 1.128-.348 1.6a2.572 2.572 0 01-.962 1.1 2.54 2.54 0 01-1.402.394c-.448 0-.854-.104-1.217-.313a2.629 2.629 0 01-.892-.88v3.21h-.858zm2.816-2.782a1.89 1.89 0 001.031-.278c.301-.193.533-.463.695-.81.163-.356.244-.77.244-1.24 0-.72-.178-1.287-.533-1.705-.356-.425-.835-.637-1.438-.637-.594 0-1.07.213-1.425.637-.355.418-.533.985-.533 1.704 0 .471.081.885.243 1.24.162.348.39.618.684.811.301.186.645.279 1.032.279zm6.861.765c-.58 0-1.085-.13-1.518-.394a2.755 2.755 0 01-1.008-1.112c-.232-.471-.348-1.008-.348-1.611 0-.587.116-1.113.348-1.576.232-.472.564-.839.996-1.101.433-.27.935-.406 1.507-.406.54 0 1.008.128 1.402.383.394.247.696.598.904 1.054.209.448.313.966.313 1.553 0 .1-.004.19-.011.267h-4.59c.023.718.213 1.267.568 1.645.356.371.835.557 1.437.557.448 0 .808-.105 1.078-.313.278-.216.518-.518.719-.904l.707.266c-.217.534-.541.95-.974 1.252-.425.294-.935.44-1.53.44zm1.727-3.615c-.015-.58-.185-1.032-.51-1.356-.317-.325-.73-.487-1.24-.487-.556 0-1.004.166-1.344.498-.34.325-.545.773-.614 1.345h3.708zm4.894 3.615c-.556 0-1.05-.13-1.483-.394a2.774 2.774 0 01-1.02-1.089c-.247-.471-.371-1.008-.371-1.61 0-.604.12-1.14.36-1.612a2.754 2.754 0 011.02-1.1c.44-.264.942-.395 1.506-.395.556 0 1.047.132 1.472.394.432.263.768.63 1.008 1.101s.36 1.008.36 1.611-.12 1.14-.36 1.611c-.24.464-.576.827-1.008 1.09-.425.262-.92.393-1.484.393zm0-.764c.402 0 .75-.093 1.043-.279.294-.185.518-.452.672-.8.163-.355.244-.772.244-1.25 0-.48-.081-.897-.244-1.253a1.756 1.756 0 00-.672-.81c-.293-.194-.641-.29-1.043-.29-.402 0-.753.096-1.054.29a1.9 1.9 0 00-.684.822c-.162.348-.244.761-.244 1.24 0 .471.082.885.244 1.24.162.348.39.618.684.811.3.186.652.279 1.054.279zm4.368 2.781V15.17h.857v1.009c.232-.371.53-.66.892-.87a2.333 2.333 0 011.217-.324c.534 0 1.005.132 1.414.394.41.263.727.63.951 1.101.231.471.347 1.008.347 1.611 0 .595-.116 1.128-.347 1.6a2.574 2.574 0 01-.962 1.1c-.41.263-.877.394-1.403.394-.448 0-.853-.104-1.216-.313a2.629 2.629 0 01-.893-.88v3.21h-.858zm2.816-2.782c.394 0 .738-.092 1.031-.278.302-.193.533-.463.696-.81.162-.356.243-.77.243-1.24 0-.72-.178-1.287-.533-1.705-.356-.425-.835-.637-1.437-.637-.595 0-1.07.213-1.426.637-.355.418-.533.985-.533 1.704 0 .471.081.885.243 1.24.163.348.39.618.684.811.302.186.645.279 1.032.279zm4.3.58v-8.402h.858V21h-.858zm5.142.185c-.58 0-1.086-.13-1.518-.394a2.758 2.758 0 01-1.009-1.112c-.231-.471-.347-1.008-.347-1.611 0-.587.116-1.113.347-1.576.232-.472.564-.839.997-1.101.433-.27.935-.406 1.507-.406.541 0 1.008.128 1.402.383.394.247.695.598.904 1.054.209.448.313.966.313 1.553 0 .1-.004.19-.012.267h-4.589c.023.718.212 1.267.568 1.645.355.371.834.557 1.437.557.448 0 .807-.105 1.078-.313.278-.216.517-.518.718-.904l.707.266c-.216.534-.541.95-.973 1.252-.425.294-.935.44-1.53.44zm1.727-3.615c-.016-.58-.186-1.032-.51-1.356-.317-.325-.73-.487-1.24-.487-.557 0-1.005.166-1.345.498-.34.325-.544.773-.614 1.345h3.709zm7.652 3.615a2.623 2.623 0 01-1.426-.394 2.683 2.683 0 01-.962-1.1c-.224-.472-.336-1.005-.336-1.6 0-.603.112-1.14.336-1.61.232-.472.553-.84.962-1.102a2.601 2.601 0 011.414-.394c.448 0 .854.108 1.217.325.371.208.672.498.904.869v-3.581h.858V21h-.858v-1.008c-.232.37-.533.664-.904.88a2.376 2.376 0 01-1.205.313zm.15-.764c.387 0 .727-.093 1.02-.279.294-.193.522-.463.684-.81.17-.356.255-.77.255-1.24 0-.72-.178-1.287-.533-1.705-.355-.425-.831-.637-1.426-.637-.602 0-1.085.213-1.448.637-.356.418-.533.985-.533 1.704 0 .471.081.885.243 1.24.162.348.394.618.695.811.302.186.649.279 1.043.279zm7.199.764a2.802 2.802 0 01-1.484-.394 2.77 2.77 0 01-1.02-1.089c-.247-.471-.371-1.008-.371-1.61 0-.604.12-1.14.36-1.612a2.75 2.75 0 011.02-1.1 2.88 2.88 0 011.506-.395c.556 0 1.047.132 1.472.394.433.263.769.63 1.008 1.101.24.471.36 1.008.36 1.611s-.12 1.14-.36 1.611a2.686 2.686 0 01-1.008 1.09c-.425.262-.919.393-1.483.393zm0-.764c.401 0 .749-.093 1.043-.279a1.77 1.77 0 00.672-.8c.162-.355.243-.772.243-1.25 0-.48-.081-.897-.243-1.253a1.761 1.761 0 00-.672-.81 1.857 1.857 0 00-1.043-.29 1.91 1.91 0 00-1.055.29 1.896 1.896 0 00-.684.822c-.162.348-.243.761-.243 1.24 0 .471.081.885.243 1.24.162.348.39.618.684.811.301.186.653.279 1.055.279zm9.558 2.966c-.579 0-1.078-.123-1.495-.37a1.896 1.896 0 01-.857-1.067l.788-.255c.123.302.32.534.591.696.278.17.61.255.996.255.348 0 .645-.07.893-.209.255-.131.448-.332.579-.603.139-.262.209-.59.209-.985v-1.02a2.2 2.2 0 01-.811.846c-.333.201-.723.302-1.171.302-.641 0-1.143-.205-1.507-.614-.355-.418-.533-.985-.533-1.704V15.17h.858v3.36c0 .557.116.978.348 1.264.231.278.583.417 1.054.417.34 0 .641-.089.904-.267.271-.185.479-.444.626-.776.155-.34.232-.734.232-1.182V15.17h.881v5.655c0 .526-.109.981-.325 1.368-.209.386-.51.68-.904.88-.386.21-.838.313-1.356.313zm6.977-2.202a2.802 2.802 0 01-1.484-.394 2.784 2.784 0 01-1.02-1.089c-.247-.471-.37-1.008-.37-1.61 0-.604.119-1.14.359-1.612a2.75 2.75 0 011.02-1.1 2.88 2.88 0 011.506-.395c.557 0 1.047.132 1.472.394.433.263.769.63 1.008 1.101.24.471.36 1.008.36 1.611s-.12 1.14-.36 1.611a2.686 2.686 0 01-1.008 1.09c-.425.262-.919.393-1.483.393zm0-.764c.402 0 .749-.093 1.043-.279a1.77 1.77 0 00.672-.8c.162-.355.243-.772.243-1.25 0-.48-.081-.897-.243-1.253a1.761 1.761 0 00-.672-.81 1.854 1.854 0 00-1.043-.29 1.91 1.91 0 00-1.055.29 1.91 1.91 0 00-.684.822c-.162.348-.243.761-.243 1.24 0 .471.081.885.243 1.24.163.348.391.618.684.811.301.186.653.279 1.055.279zm6.337.764c-.656 0-1.166-.204-1.529-.614-.364-.417-.545-.989-.545-1.715V15.17h.869v3.559c0 .564.116.988.348 1.274.239.279.599.418 1.078.418.347 0 .652-.09.915-.267.271-.186.483-.444.638-.776a2.84 2.84 0 00.231-1.183v-3.024h.893V21h-.893v-.962a2.305 2.305 0 01-.811.846c-.34.201-.738.301-1.194.301zm8.796-.185l-1.808-5.83h.858l1.402 4.613 1.414-4.613h.811l1.414 4.613 1.402-4.613h.846L161.897 21h-.846l-1.425-4.59-1.402 4.59h-.858zm9.032.162c-.433 0-.8-.08-1.101-.243a1.696 1.696 0 01-.661-.66 1.838 1.838 0 01-.22-.893c0-.556.216-.993.649-1.31.44-.317 1.055-.475 1.843-.475h1.483v-.58a1.17 1.17 0 00-.394-.903c-.262-.24-.622-.36-1.078-.36-.417 0-.753.105-1.008.313-.255.209-.436.499-.545.87l-.834-.163c.093-.386.251-.71.475-.973.224-.27.502-.472.835-.603a3.002 3.002 0 011.112-.197c.464 0 .866.085 1.205.255.348.162.615.398.8.707.186.301.278.653.278 1.055V21h-.846v-1.078c-.193.379-.459.68-.799.904-.333.224-.731.336-1.194.336zm.197-.73c.363 0 .68-.089.95-.266.271-.178.475-.414.614-.707.147-.294.221-.61.221-.95v-.29h-1.356c-.564 0-.997.096-1.298.29a.928.928 0 00-.441.822c0 .34.12.61.36.811.247.194.564.29.95.29zm4.463.568v-5.83h.857v.963c.209-.356.483-.634.823-.835.34-.209.738-.313 1.194-.313.649 0 1.155.209 1.518.626.363.41.545.977.545 1.704V21h-.869v-3.558c0-.564-.12-.989-.36-1.275-.231-.286-.583-.429-1.054-.429-.348 0-.657.093-.927.279a1.862 1.862 0 00-.638.788c-.154.332-.232.722-.232 1.17V21h-.857zm8.449.081c-.533 0-.919-.127-1.159-.382-.232-.263-.348-.622-.348-1.078v-3.709h-.985v-.742H178V13.7h.858v1.472h1.298v.741h-1.298v3.662c0 .279.066.472.197.58.131.108.344.162.638.162.131 0 .285-.011.463-.034V21a2.97 2.97 0 01-.649.081zm6.587 0c-.533 0-.919-.127-1.159-.382-.232-.263-.348-.622-.348-1.078v-3.709h-.985v-.742h.985V13.7h.858v1.472h1.298v.741h-1.298v3.662c0 .279.066.472.197.58.131.108.344.162.637.162.132 0 .286-.011.464-.034V21a2.97 2.97 0 01-.649.081zm4.341.104a2.799 2.799 0 01-1.483-.394 2.77 2.77 0 01-1.02-1.089c-.247-.471-.371-1.008-.371-1.61 0-.604.12-1.14.359-1.612a2.75 2.75 0 011.02-1.1c.44-.264.943-.395 1.507-.395.556 0 1.047.132 1.472.394.432.263.768.63 1.008 1.101.239.471.359 1.008.359 1.611s-.12 1.14-.359 1.611a2.7 2.7 0 01-1.008 1.09c-.425.262-.92.393-1.484.393zm0-.764c.402 0 .75-.093 1.043-.279.294-.185.518-.452.672-.8.163-.355.244-.772.244-1.25 0-.48-.081-.897-.244-1.253a1.75 1.75 0 00-.672-.81c-.293-.194-.641-.29-1.043-.29-.402 0-.753.096-1.055.29a1.901 1.901 0 00-.683.822c-.163.348-.244.761-.244 1.24 0 .471.081.885.244 1.24.162.348.39.618.683.811.302.186.653.279 1.055.279zm9.304.764c-.657 0-1.209-.166-1.658-.498-.44-.332-.734-.784-.88-1.356l.822-.197c.116.41.325.734.626.974.302.24.669.359 1.101.359.464 0 .827-.1 1.09-.301.262-.201.394-.456.394-.765 0-.248-.085-.433-.255-.557-.162-.131-.46-.25-.893-.359a3.689 3.689 0 01-.243-.058 2.227 2.227 0 00-.243-.058c-.495-.093-.893-.204-1.194-.336-.301-.131-.533-.301-.695-.51-.155-.216-.232-.494-.232-.834 0-.34.092-.642.278-.904.185-.263.444-.46.776-.591a3.01 3.01 0 011.148-.209c.61 0 1.097.147 1.46.44.371.286.634.68.788 1.183l-.765.22c-.116-.356-.297-.63-.545-.823-.239-.2-.552-.301-.938-.301-.402 0-.727.088-.974.266-.239.178-.359.402-.359.672 0 .24.104.422.313.545.208.124.568.243 1.078.36a2.487 2.487 0 01.197.046c.517.1.927.216 1.228.347.309.132.541.31.696.534.162.224.243.521.243.892 0 .348-.097.66-.29.939-.185.27-.456.486-.811.649-.355.154-.777.231-1.263.231zm3.846-.185v-8.402h.858v3.534c.201-.355.471-.633.811-.834.34-.209.738-.313 1.194-.313.649 0 1.155.209 1.518.626.363.41.544.977.544 1.704V21h-.857v-3.558c0-.564-.12-.989-.359-1.275-.24-.286-.595-.429-1.067-.429-.347 0-.656.093-.927.279a1.86 1.86 0 00-.637.788c-.147.332-.22.722-.22 1.17V21h-.858zm8.333.162c-.433 0-.8-.08-1.101-.243a1.696 1.696 0 01-.661-.66 1.838 1.838 0 01-.22-.893c0-.556.216-.993.649-1.31.44-.317 1.055-.475 1.843-.475h1.483v-.58a1.17 1.17 0 00-.394-.903c-.262-.24-.622-.36-1.078-.36-.417 0-.753.105-1.008.313-.255.209-.436.499-.545.87l-.834-.163c.093-.386.251-.71.475-.973.224-.27.502-.472.835-.603a3.002 3.002 0 011.112-.197c.464 0 .865.085 1.205.255.348.162.615.398.8.707.186.301.278.653.278 1.055V21h-.846v-1.078c-.193.379-.459.68-.799.904-.333.224-.731.336-1.194.336zm.197-.73c.363 0 .68-.089.95-.266.271-.178.475-.414.614-.707.147-.294.221-.61.221-.95v-.29h-1.356c-.564 0-.997.096-1.298.29a.928.928 0 00-.441.822c0 .34.12.61.36.811.247.194.564.29.95.29zm4.463.568v-5.83h.857v1.055c.155-.34.371-.606.649-.8a1.641 1.641 0 011.148-.29c.046 0 .096.008.15.024v.811a1.91 1.91 0 00-.312-.023c-.495 0-.893.182-1.194.545-.294.355-.441.834-.441 1.437V21h-.857zm6.418.185c-.579 0-1.085-.13-1.518-.394a2.748 2.748 0 01-1.008-1.112c-.232-.471-.348-1.008-.348-1.611 0-.587.116-1.113.348-1.576.232-.472.564-.839.996-1.101.433-.27.935-.406 1.507-.406.541 0 1.008.128 1.402.383.394.247.696.598.904 1.054.209.448.313.966.313 1.553 0 .1-.004.19-.011.267h-4.59c.023.718.213 1.267.568 1.645.356.371.835.557 1.437.557.448 0 .808-.105 1.078-.313.278-.216.518-.518.719-.904l.707.266c-.217.534-.541.95-.974 1.252-.425.294-.935.44-1.53.44zm1.727-3.615c-.015-.58-.185-1.032-.51-1.356-.317-.325-.73-.487-1.24-.487-.556 0-1.004.166-1.344.498-.34.325-.545.773-.615 1.345h3.709zm7.049 3.511c-.533 0-.919-.127-1.158-.382-.232-.263-.348-.622-.348-1.078v-3.709h-.985v-.742h.985V13.7h.857v1.472h1.298v.741h-1.298v3.662c0 .279.066.472.197.58.132.108.344.162.638.162.131 0 .286-.011.463-.034V21a2.963 2.963 0 01-.649.081zm1.941-.081v-8.402h.857v3.534c.201-.355.472-.633.812-.834.34-.209.738-.313 1.193-.313.649 0 1.156.209 1.519.626.363.41.544.977.544 1.704V21h-.857v-3.558c0-.564-.12-.989-.36-1.275-.239-.286-.594-.429-1.066-.429-.347 0-.656.093-.927.279a1.86 1.86 0 00-.637.788c-.147.332-.221.722-.221 1.17V21h-.857zm6.733 0v-5.83h.87V21h-.87zm.441-6.803a.614.614 0 01-.452-.185.614.614 0 01-.186-.452c0-.178.062-.329.186-.452a.614.614 0 01.452-.186c.177 0 .328.062.452.186a.617.617 0 01.185.452.617.617 0 01-.185.452.617.617 0 01-.452.185zm4.338 6.988c-.657 0-1.209-.166-1.658-.498-.44-.332-.734-.784-.88-1.356l.823-.197c.115.41.324.734.625.974.302.24.669.359 1.101.359.464 0 .827-.1 1.09-.301.262-.201.394-.456.394-.765 0-.248-.085-.433-.255-.557-.162-.131-.46-.25-.893-.359a3.689 3.689 0 01-.243-.058 2.227 2.227 0 00-.243-.058c-.495-.093-.893-.204-1.194-.336-.301-.131-.533-.301-.695-.51-.155-.216-.232-.494-.232-.834 0-.34.093-.642.278-.904.185-.263.444-.46.776-.591a3.01 3.01 0 011.148-.209c.61 0 1.097.147 1.46.44.371.286.634.68.788 1.183l-.765.22c-.116-.356-.297-.63-.544-.823-.24-.2-.553-.301-.939-.301-.402 0-.726.088-.974.266-.239.178-.359.402-.359.672 0 .24.104.422.313.545.209.124.568.243 1.078.36a2.487 2.487 0 01.197.046c.517.1.927.216 1.228.347.309.132.541.31.696.534.162.224.243.521.243.892 0 .348-.097.66-.29.939-.185.27-.456.486-.811.649-.355.154-.777.231-1.263.231zM253.08 21l-1.808-5.83h.858l1.402 4.613 1.414-4.613h.811l1.414 4.613 1.403-4.613h.846L257.612 21h-.846l-1.426-4.59-1.402 4.59h-.858zm7.512 0v-5.83h.869V21h-.869zm.44-6.803a.617.617 0 01-.452-.185.617.617 0 01-.185-.452c0-.178.062-.329.185-.452a.617.617 0 01.452-.186c.178 0 .329.062.452.186a.614.614 0 01.186.452.614.614 0 01-.186.452.614.614 0 01-.452.185zm4.049 6.884c-.534 0-.92-.127-1.159-.382-.232-.263-.348-.622-.348-1.078v-3.709h-.985v-.742h.985V13.7h.858v1.472h1.298v.741h-1.298v3.662c0 .279.065.472.197.58.131.108.343.162.637.162.131 0 .286-.011.464-.034V21c-.24.054-.456.081-.649.081zm1.94-.081v-8.402h.858v3.534c.2-.355.471-.633.811-.834.34-.209.738-.313 1.194-.313.649 0 1.155.209 1.518.626.363.41.544.977.544 1.704V21h-.857v-3.558c0-.564-.12-.989-.359-1.275-.24-.286-.595-.429-1.067-.429-.347 0-.656.093-.927.279a1.86 1.86 0 00-.637.788c-.147.332-.22.722-.22 1.17V21h-.858zm8.565-2.202c0-.379.058-.7.174-.962a2.1 2.1 0 01.44-.637c.17-.163.39-.344.661-.545.239-.17.425-.317.556-.44.139-.132.255-.29.348-.476.092-.185.139-.401.139-.649 0-.293-.066-.56-.197-.8a1.437 1.437 0 00-.603-.59c-.27-.147-.61-.22-1.02-.22-.618 0-1.081.158-1.39.475a2.097 2.097 0 00-.568 1.147l-.87-.197c.07-.394.213-.761.429-1.101.217-.34.526-.614.927-.823.402-.216.897-.324 1.484-.324.61 0 1.116.115 1.518.347.41.224.711.522.904.893.201.363.301.75.301 1.159 0 .355-.058.664-.174.927a2.014 2.014 0 01-.44.637c-.17.17-.39.36-.661.568a9.155 9.155 0 00-.567.487c-.139.131-.255.29-.348.475a1.43 1.43 0 00-.139.649v.197h-.904v-.197zm.475 2.306a.631.631 0 01-.649-.649c0-.17.062-.316.185-.44a.631.631 0 01.464-.186.59.59 0 01.429.186c.123.123.185.27.185.44 0 .186-.062.34-.185.464a.59.59 0 01-.429.185z"/><path stroke="#000" stroke-opacity="0.25" stroke-width="0.278" d="M0 34.597L295 34.597"/><g><path fill="#088FE9" d="M63.847 57.126v-7.657l-2.094 1.387v-1.56l2.308-1.56h1.253v9.39h-1.467zm11.309.213c-.934 0-1.752-.209-2.454-.627a4.25 4.25 0 01-1.628-1.734c-.382-.738-.573-1.578-.573-2.52 0-.944.191-1.788.573-2.535a4.32 4.32 0 011.628-1.76c.702-.428 1.52-.641 2.454-.641.934 0 1.747.213 2.441.64a4.126 4.126 0 011.614 1.76c.373.748.56 1.593.56 2.535 0 .943-.187 1.783-.56 2.521a4.162 4.162 0 01-1.614 1.734c-.694.418-1.507.627-2.441.627zm-.013-1.334c.64 0 1.196-.147 1.667-.44.471-.302.831-.72 1.08-1.254.258-.533.387-1.151.387-1.854 0-.702-.129-1.325-.387-1.867a2.992 2.992 0 00-1.093-1.268c-.472-.31-1.023-.466-1.654-.466-.623 0-1.174.155-1.654.466a2.993 2.993 0 00-1.094 1.268c-.258.542-.387 1.165-.387 1.867 0 .703.13 1.32.387 1.854.258.534.622.952 1.094 1.254.471.293 1.022.44 1.654.44zm8.743 1.254c-.685 0-1.178-.16-1.48-.48-.303-.33-.454-.792-.454-1.387v-3.855h-1.08v-1.174h1.08v-1.747h1.427v1.747h1.427v1.174H83.38v3.788c0 .258.071.444.213.56.143.107.356.16.64.16.143 0 .33-.018.56-.053v1.147c-.31.08-.613.12-.906.12zm2.357-.133v-9.67h1.414v3.907c.222-.382.516-.68.88-.893.374-.214.8-.32 1.28-.32.766 0 1.361.244 1.788.733.427.49.64 1.165.64 2.028v4.215h-1.427V53.03c0-.543-.12-.956-.36-1.24-.24-.285-.596-.428-1.067-.428-.347 0-.65.094-.907.28a1.818 1.818 0 00-.614.76 2.869 2.869 0 00-.213 1.148v3.575h-1.414zm10.881.213c-.684 0-1.285-.151-1.8-.453a3.204 3.204 0 01-1.2-1.281c-.276-.551-.414-1.174-.414-1.867 0-.676.133-1.285.4-1.828a3.12 3.12 0 011.174-1.294c.515-.31 1.12-.466 1.814-.466.658 0 1.222.146 1.694.44a2.74 2.74 0 011.067 1.253c.24.534.36 1.156.36 1.868 0 .133-.005.253-.013.36h-5.11c.045.694.245 1.218.601 1.574.356.347.836.52 1.44.52.454 0 .823-.106 1.108-.32.284-.213.524-.511.72-.894l1.147.427c-.267.632-.653 1.116-1.16 1.454-.507.338-1.116.507-1.828.507zm1.708-4.268c-.036-.56-.21-.987-.52-1.28-.303-.303-.707-.454-1.214-.454-.534 0-.97.15-1.308.453-.337.294-.555.72-.653 1.28h3.695zm2.977 4.055v-6.763h1.427v1.187c.178-.391.418-.698.721-.92.311-.223.68-.334 1.107-.334.08 0 .151.005.213.014.071 0 .142.008.214.026v1.348a2.26 2.26 0 00-.441-.04c-.542 0-.982.19-1.32.573-.329.382-.494.903-.494 1.56v3.349h-1.427zm8.421 0v-9.404h4.282c.969 0 1.716.262 2.24.787.534.516.801 1.214.801 2.094 0 .871-.267 1.57-.801 2.094-.524.525-1.271.787-2.24.787h-2.815v3.642h-1.467zm4.135-4.922c.542 0 .96-.138 1.254-.414.293-.284.44-.68.44-1.187 0-.516-.147-.911-.44-1.187-.294-.276-.712-.414-1.254-.414h-2.668v3.202h2.668zm7.365 5.135c-.684 0-1.285-.151-1.8-.453a3.206 3.206 0 01-1.201-1.281c-.275-.551-.413-1.174-.413-1.867 0-.676.133-1.285.4-1.828a3.123 3.123 0 011.174-1.294c.515-.31 1.12-.466 1.814-.466.658 0 1.222.146 1.694.44.471.293.827.711 1.067 1.253.24.534.36 1.156.36 1.868 0 .133-.004.253-.013.36h-5.109c.044.694.245 1.218.6 1.574.356.347.836.52 1.441.52.453 0 .822-.106 1.107-.32a2.53 2.53 0 00.72-.894l1.147.427c-.267.632-.653 1.116-1.16 1.454-.507.338-1.116.507-1.828.507zm1.708-4.268c-.036-.56-.209-.987-.52-1.28-.303-.303-.707-.454-1.214-.454-.534 0-.97.15-1.307.453-.338.294-.556.72-.654 1.28h3.695zm2.977 4.055v-6.763h1.427v1.187c.178-.391.418-.698.721-.92.311-.223.68-.334 1.107-.334.08 0 .151.005.213.014.071 0 .142.008.214.026v1.348a2.253 2.253 0 00-.441-.04c-.542 0-.982.19-1.32.573-.329.382-.494.903-.494 1.56v3.349h-1.427zm7.352.213c-.801 0-1.463-.187-1.988-.56a2.652 2.652 0 01-1.014-1.548l1.321-.32c.116.41.316.73.6.96.294.232.658.348 1.094.348.436 0 .778-.09 1.027-.267.249-.187.374-.418.374-.694 0-.24-.089-.418-.267-.533-.169-.116-.489-.232-.961-.347l-.24-.053-.253-.054c-.56-.124-1.014-.262-1.361-.413-.347-.151-.613-.356-.8-.614-.178-.258-.267-.591-.267-1 0-.418.111-.783.334-1.094.222-.32.533-.565.933-.734a3.484 3.484 0 011.401-.266c.729 0 1.316.164 1.761.493.444.33.755.787.933 1.374l-1.267.347c-.115-.347-.289-.614-.52-.8-.231-.196-.529-.294-.894-.294-.373 0-.68.08-.92.24-.231.16-.347.37-.347.627 0 .231.102.405.307.52.213.107.591.223 1.134.347.035 0 .066.004.093.013.027.01.058.018.093.027.605.125 1.085.262 1.441.414.356.15.627.36.814.626.195.258.293.605.293 1.04 0 .436-.116.823-.347 1.161-.231.33-.56.587-.987.774-.427.187-.933.28-1.52.28zm7.398 0c-.666 0-1.258-.151-1.774-.453a3.203 3.203 0 01-1.213-1.268c-.294-.542-.441-1.165-.441-1.867 0-.694.143-1.312.427-1.854a3.184 3.184 0 011.214-1.28c.525-.312 1.125-.467 1.801-.467.658 0 1.245.155 1.761.466a3.1 3.1 0 011.2 1.28c.293.543.44 1.161.44 1.855s-.147 1.316-.44 1.867a3.119 3.119 0 01-1.2 1.267c-.516.303-1.108.454-1.775.454zm0-1.214c.401 0 .747-.093 1.041-.28.293-.195.516-.471.667-.827.16-.356.24-.778.24-1.267 0-.49-.08-.911-.24-1.267a1.733 1.733 0 00-.667-.827 1.833 1.833 0 00-1.041-.294c-.4 0-.746.098-1.04.294-.293.195-.52.471-.68.827-.16.355-.24.778-.24 1.267 0 .48.08.898.24 1.254.16.355.387.631.68.827.302.195.649.293 1.04.293zm4.998 1v-6.762h1.427v1c.222-.382.516-.68.88-.893.374-.214.805-.32 1.294-.32.756 0 1.347.244 1.774.733.427.49.64 1.165.64 2.028v4.215h-1.427V53.03c0-.543-.12-.956-.36-1.24-.24-.285-.596-.428-1.067-.428-.338 0-.64.094-.907.28a1.816 1.816 0 00-.614.76 2.874 2.874 0 00-.213 1.148v3.575h-1.427zm12.723 2.361a11.045 11.045 0 01-1.413-3.04 12.335 12.335 0 01-.467-3.375c0-1.139.155-2.246.467-3.322.32-1.085.787-2.08 1.4-2.988l1.067.72a9.518 9.518 0 00-1.227 2.628 10.999 10.999 0 000 5.962c.285.97.698 1.868 1.241 2.695l-1.068.72zm7.321-2.2c-.365 0-.662-.027-.894-.08a6.506 6.506 0 01-.76-.2 3.355 3.355 0 00-.574-.16 2.412 2.412 0 00-.546-.054c-.312 0-.592.031-.841.093a3.986 3.986 0 00-.72.227l-.093.054-.534-1.12c.56-.312.974-.628 1.241-.948.275-.329.413-.685.413-1.067 0-.169-.022-.329-.067-.48a1.993 1.993 0 00-.2-.454h-1.56v-1.093h1a4.753 4.753 0 01-.28-.72 3.484 3.484 0 01-.093-.841c0-.587.133-1.098.4-1.534a2.701 2.701 0 011.174-1.027c.506-.24 1.098-.36 1.774-.36.631 0 1.173.12 1.627.36.453.24.805.565 1.054.974.257.4.431.849.52 1.347l-1.401.36c-.089-.49-.284-.894-.587-1.214-.293-.329-.711-.493-1.253-.493-.561 0-1.005.15-1.334.453-.329.294-.494.698-.494 1.214 0 .267.04.511.12.734.08.222.191.47.334.747h2.654v1.093h-2.241c.027.063.049.125.067.187.027.062.049.129.067.2.044.151.066.311.066.48 0 .587-.187 1.134-.56 1.641.071-.009.182-.013.333-.013.223 0 .418.017.587.053.178.027.352.071.521.133.151.054.297.094.44.12.151.027.311.04.48.04.258 0 .471-.053.64-.16.169-.106.289-.293.36-.56l1.308.387c-.107.525-.347.938-.721 1.24-.364.294-.84.44-1.427.44zm6.807.053c-.809 0-1.476-.213-2.001-.64-.516-.436-.894-1.032-1.134-1.788l1.468-.293c.142.436.351.778.627 1.027.275.249.635.373 1.08.373.667 0 1.196-.27 1.587-.813.4-.551.627-1.41.681-2.575-.267.41-.623.73-1.068.96a3.106 3.106 0 01-1.48.348 3.3 3.3 0 01-1.587-.387 2.878 2.878 0 01-1.121-1.094c-.267-.48-.4-1.027-.4-1.64 0-.64.156-1.21.467-1.708a3.211 3.211 0 011.254-1.16 3.678 3.678 0 011.76-.427c.712 0 1.343.164 1.894.493.552.33.987.85 1.308 1.561.32.703.48 1.596.48 2.681 0 1.058-.151 1.97-.454 2.734-.293.756-.729 1.339-1.307 1.748-.578.4-1.263.6-2.054.6zm.093-4.548c.392 0 .734-.085 1.027-.254.303-.178.534-.413.694-.707.169-.302.253-.645.253-1.027 0-.373-.08-.716-.24-1.027a1.801 1.801 0 00-.68-.734 1.942 1.942 0 00-1.027-.266c-.391 0-.738.089-1.04.266a1.826 1.826 0 00-.681.72c-.16.303-.24.645-.24 1.028 0 .382.076.724.227 1.027.16.302.387.542.68.72.303.17.645.254 1.027.254zm5.451 4.441a.968.968 0 01-.694-.267.966.966 0 01-.266-.693c0-.249.088-.462.266-.64a.943.943 0 01.694-.28c.249 0 .462.093.64.28.187.178.28.391.28.64a.94.94 0 01-.28.694.873.873 0 01-.64.266zm5.475.107c-.818 0-1.511-.204-2.08-.614-.561-.418-.987-.995-1.281-1.734-.284-.738-.427-1.6-.427-2.587 0-.97.147-1.819.44-2.548.294-.738.721-1.312 1.281-1.72.569-.41 1.254-.614 2.054-.614.8 0 1.481.204 2.041.613.56.41.982.983 1.267 1.721.293.738.44 1.587.44 2.548 0 .987-.142 1.854-.427 2.6-.284.739-.707 1.312-1.267 1.721-.56.41-1.24.614-2.041.614zm0-1.334c.712 0 1.263-.316 1.654-.947.401-.631.601-1.516.601-2.654 0-1.112-.2-1.979-.601-2.601-.4-.632-.956-.947-1.667-.947-.72 0-1.285.315-1.694.947-.4.622-.6 1.49-.6 2.6 0 1.139.204 2.024.613 2.655.409.632.974.947 1.694.947zm8.15 1.32c-.613 0-1.156-.102-1.627-.306a2.973 2.973 0 01-1.12-.827 3.218 3.218 0 01-.614-1.187l1.294-.467c.142.445.378.805.707 1.08.338.276.778.414 1.32.414.596 0 1.076-.151 1.441-.454.365-.31.547-.72.547-1.227 0-.498-.182-.88-.547-1.147-.356-.267-.845-.4-1.467-.4h-.654v-1.2h.64c.552 0 .974-.13 1.268-.387.302-.267.453-.605.453-1.014 0-.427-.155-.76-.467-1-.302-.25-.702-.374-1.2-.374-.489 0-.885.124-1.187.373-.303.25-.525.592-.667 1.028l-1.281-.44c.223-.703.596-1.254 1.121-1.655.524-.409 1.209-.613 2.054-.613.64 0 1.191.115 1.654.347.462.222.809.529 1.04.92.24.391.36.822.36 1.294 0 .427-.102.814-.306 1.16-.205.347-.512.632-.921.854.543.213.943.52 1.201.92.266.4.4.863.4 1.387 0 .552-.138 1.05-.414 1.494-.266.445-.662.796-1.187 1.054-.516.25-1.129.374-1.841.374zm11.337.014c-.684 0-1.284-.151-1.8-.453a3.206 3.206 0 01-1.201-1.281c-.275-.551-.413-1.174-.413-1.867 0-.676.133-1.285.4-1.828a3.123 3.123 0 011.174-1.294c.515-.31 1.12-.466 1.814-.466.658 0 1.222.146 1.694.44.471.293.827.711 1.067 1.253.24.534.36 1.156.36 1.868 0 .133-.004.253-.013.36h-5.109c.044.694.245 1.218.6 1.574.356.347.836.52 1.441.52.453 0 .822-.106 1.107-.32a2.53 2.53 0 00.72-.894l1.147.427c-.266.632-.653 1.116-1.16 1.454-.507.338-1.116.507-1.828.507zm1.708-4.268c-.036-.56-.209-.987-.52-1.28-.303-.303-.707-.454-1.214-.454-.534 0-.969.15-1.307.453-.338.294-.556.72-.654 1.28h3.695zm4.804 4.215c-.463 0-.867-.09-1.214-.267a1.958 1.958 0 01-.774-.747 2.032 2.032 0 01-.267-1.027c0-.658.254-1.174.761-1.547.507-.374 1.209-.56 2.107-.56h1.561v-.574c0-.356-.125-.645-.374-.867-.24-.231-.582-.347-1.027-.347-.409 0-.742.107-1 .32-.249.205-.422.49-.52.854l-1.374-.227c.107-.462.293-.854.56-1.174.267-.32.596-.56.987-.72.4-.169.854-.253 1.361-.253.569 0 1.062.102 1.48.306.418.205.738.49.961.854.231.356.346.774.346 1.254v4.562h-1.4v-1.16c-.205.4-.494.72-.867.96-.365.24-.8.36-1.307.36zm.4-1.12c.347 0 .653-.085.92-.254a1.881 1.881 0 00.854-1.574v-.294h-1.294c-.56 0-.991.094-1.294.28a.895.895 0 00-.44.8c0 .32.116.574.347.761.231.187.533.28.907.28zm8.082 1.16c-.685 0-1.289-.151-1.814-.454a3.116 3.116 0 01-1.201-1.267c-.284-.542-.426-1.16-.426-1.854 0-.685.137-1.298.413-1.84a3.185 3.185 0 011.201-1.295c.524-.31 1.133-.466 1.827-.466.525 0 .991.097 1.401.293.417.187.76.458 1.027.814.266.346.458.751.573 1.213l-1.347.267a2.042 2.042 0 00-.587-.974c-.276-.248-.631-.373-1.067-.373-.418 0-.778.107-1.08.32a1.901 1.901 0 00-.667.84 2.991 2.991 0 00-.227 1.188c0 .444.075.844.227 1.2a1.9 1.9 0 00.667.84c.302.205.662.307 1.08.307.427 0 .782-.12 1.067-.36.294-.249.494-.565.6-.947l1.334.254c-.098.444-.28.84-.547 1.187a2.735 2.735 0 01-1.027.813c-.409.196-.885.294-1.427.294zm4.384-.2v-9.67h1.414v3.907a2.43 2.43 0 01.881-.893c.373-.214.8-.32 1.28-.32.765 0 1.361.244 1.788.733.426.49.64 1.165.64 2.028v4.215h-1.427V53.03c0-.543-.12-.956-.361-1.24-.24-.285-.595-.428-1.067-.428-.346 0-.649.094-.907.28a1.822 1.822 0 00-.613.76 2.874 2.874 0 00-.214 1.148v3.575h-1.414zm7.123 1.64a9.213 9.213 0 001.214-2.627c.276-.96.413-1.948.413-2.962 0-1.022-.137-2.018-.413-2.987a9.726 9.726 0 00-1.227-2.708l1.067-.72c.613.933 1.08 1.951 1.4 3.054.321 1.094.481 2.214.481 3.361 0 1.139-.16 2.25-.481 3.335a10.44 10.44 0 01-1.387 2.974l-1.067-.72z"/></g><path stroke="#000" stroke-opacity="0.25" stroke-width="0.278" d="M0 70.722L295 70.722"/><path fill="#088FE9" d="M61.907 93.25v-1.307l3.668-3.08c.33-.276.587-.516.774-.721.195-.205.36-.431.493-.68.134-.258.2-.543.2-.854 0-.498-.164-.894-.493-1.187-.32-.303-.756-.454-1.307-.454-.57 0-1.014.165-1.334.494-.311.32-.525.72-.64 1.2l-1.414-.333c.089-.463.267-.894.533-1.294a3.14 3.14 0 011.12-1c.48-.258 1.054-.387 1.721-.387.659 0 1.237.124 1.734.373.498.25.885.596 1.16 1.04.277.436.414.912.414 1.428 0 .56-.102 1.04-.306 1.44-.196.4-.436.748-.72 1.04-.285.294-.645.628-1.081 1.001l-2.334 1.974h4.468v1.308h-6.656zm15.978.214c-.934 0-1.752-.209-2.454-.627a4.25 4.25 0 01-1.628-1.734c-.382-.738-.573-1.578-.573-2.52 0-.944.191-1.788.573-2.535a4.32 4.32 0 011.628-1.76c.702-.428 1.52-.641 2.454-.641.934 0 1.747.213 2.44.64a4.126 4.126 0 011.615 1.76c.373.748.56 1.593.56 2.535 0 .943-.187 1.783-.56 2.521a4.162 4.162 0 01-1.614 1.734c-.694.418-1.507.627-2.441.627zm-.013-1.334c.64 0 1.196-.147 1.667-.44.471-.302.831-.72 1.08-1.254.258-.533.387-1.151.387-1.854 0-.702-.129-1.325-.387-1.867a2.993 2.993 0 00-1.093-1.267c-.472-.312-1.023-.467-1.654-.467-.623 0-1.174.155-1.654.467a2.993 2.993 0 00-1.094 1.267c-.258.542-.387 1.165-.387 1.867 0 .703.129 1.32.387 1.854s.622.952 1.094 1.254c.47.293 1.022.44 1.654.44zm8.743 1.254c-.685 0-1.178-.16-1.48-.48-.303-.33-.454-.792-.454-1.387v-3.855H83.6v-1.174h1.08V84.74h1.427v1.747h1.427v1.174h-1.427v3.788c0 .258.071.444.213.56.143.107.356.16.64.16.143 0 .33-.018.56-.053v1.147c-.31.08-.613.12-.906.12zm2.357-.133v-9.67h1.414v3.907c.222-.382.516-.68.88-.893.374-.214.8-.32 1.28-.32.765 0 1.361.244 1.788.733.427.49.64 1.165.64 2.028v4.215h-1.427v-4.095c0-.543-.12-.956-.36-1.24-.24-.285-.596-.428-1.067-.428-.347 0-.65.094-.907.28a1.817 1.817 0 00-.614.76 2.869 2.869 0 00-.213 1.148v3.575h-1.414zm10.881.213c-.684 0-1.285-.151-1.8-.454a3.204 3.204 0 01-1.2-1.28c-.276-.551-.414-1.174-.414-1.867 0-.676.133-1.285.4-1.828a3.12 3.12 0 011.174-1.294c.515-.31 1.12-.466 1.814-.466.658 0 1.222.146 1.694.44.471.293.827.711 1.067 1.254.24.533.36 1.156.36 1.867 0 .133-.005.253-.013.36h-5.11c.045.694.245 1.218.601 1.574.356.347.836.52 1.44.52.454 0 .823-.107 1.108-.32.284-.213.524-.511.72-.894l1.147.427c-.267.632-.653 1.116-1.16 1.454-.507.338-1.116.507-1.828.507zm1.708-4.268c-.036-.56-.209-.987-.521-1.28-.302-.303-.706-.454-1.213-.454-.534 0-.97.15-1.308.453-.338.294-.555.72-.653 1.28h3.695zm2.977 4.055v-6.763h1.427v1.187c.178-.391.418-.698.721-.92.311-.223.68-.334 1.107-.334.08 0 .151.005.213.014.071 0 .142.008.214.026v1.347a2.26 2.26 0 00-.441-.04c-.542 0-.982.192-1.32.574-.329.382-.494.903-.494 1.56v3.349h-1.427zm8.421 0v-9.404h4.281c.97 0 1.717.262 2.241.787.534.516.801 1.214.801 2.094 0 .872-.267 1.57-.801 2.094-.524.525-1.271.787-2.241.787h-2.814v3.642h-1.467zm4.135-4.922c.542 0 .96-.138 1.254-.414.293-.284.44-.68.44-1.187 0-.516-.147-.911-.44-1.187-.294-.276-.712-.414-1.254-.414h-2.668v3.202h2.668zm7.365 5.135c-.684 0-1.285-.151-1.8-.454a3.206 3.206 0 01-1.201-1.28c-.275-.551-.413-1.174-.413-1.867 0-.676.133-1.285.4-1.828a3.123 3.123 0 011.174-1.294c.515-.31 1.12-.466 1.814-.466.658 0 1.222.146 1.694.44.471.293.827.711 1.067 1.254.24.533.36 1.156.36 1.867 0 .133-.005.253-.013.36h-5.109c.044.694.244 1.218.6 1.574.356.347.836.52 1.441.52.453 0 .822-.107 1.107-.32.284-.213.524-.511.72-.894l1.147.427c-.267.632-.653 1.116-1.16 1.454-.507.338-1.116.507-1.828.507zm1.708-4.268c-.036-.56-.209-.987-.521-1.28-.302-.303-.706-.454-1.213-.454-.534 0-.97.15-1.307.453-.338.294-.556.72-.654 1.28h3.695zm6.004 4.268c-.667 0-1.258-.151-1.774-.454a3.205 3.205 0 01-1.214-1.267c-.293-.542-.44-1.165-.44-1.867 0-.694.142-1.312.427-1.854a3.177 3.177 0 011.214-1.28c.524-.312 1.125-.468 1.8-.468.658 0 1.245.156 1.761.467.516.303.916.73 1.201 1.28.293.543.44 1.161.44 1.855s-.147 1.316-.44 1.867a3.115 3.115 0 01-1.201 1.267c-.516.303-1.107.454-1.774.454zm0-1.214c.4 0 .747-.093 1.04-.28.294-.195.516-.471.667-.827.16-.356.24-.778.24-1.267 0-.49-.08-.912-.24-1.267-.151-.365-.373-.64-.667-.827a1.83 1.83 0 00-1.04-.294c-.4 0-.747.098-1.04.294a1.901 1.901 0 00-.681.827c-.16.356-.24.778-.24 1.267 0 .48.08.898.24 1.254.16.356.387.631.681.827.302.195.649.293 1.04.293zm4.997 3.535v-9.297h1.414v.974c.258-.374.582-.663.974-.867.391-.214.818-.32 1.28-.32.614 0 1.156.155 1.628.466.48.303.849.73 1.107 1.28.266.543.4 1.161.4 1.855s-.134 1.312-.4 1.854c-.258.542-.627.97-1.107 1.28-.472.303-1.014.454-1.628.454a2.72 2.72 0 01-1.28-.307 2.843 2.843 0 01-.974-.867v3.495h-1.414zm3.361-3.548c.401 0 .747-.093 1.041-.28.302-.196.533-.471.693-.827.161-.356.241-.774.241-1.254 0-.73-.178-1.307-.534-1.734-.356-.427-.836-.64-1.441-.64-.595 0-1.071.213-1.427.64-.347.427-.52 1.005-.52 1.734 0 .48.08.898.24 1.254.16.356.387.631.68.827.294.187.636.28 1.027.28zm4.908 1.014v-9.67h1.414v9.67h-1.414zm6.299.213c-.685 0-1.285-.151-1.801-.454a3.197 3.197 0 01-1.2-1.28c-.276-.551-.414-1.174-.414-1.867 0-.676.133-1.285.4-1.828a3.123 3.123 0 011.174-1.294c.516-.31 1.12-.466 1.814-.466.658 0 1.223.146 1.694.44.471.293.827.711 1.067 1.254.24.533.36 1.156.36 1.867 0 .133-.004.253-.013.36h-5.109c.045.694.245 1.218.601 1.574.355.347.835.52 1.44.52.454 0 .823-.107 1.107-.32.285-.213.525-.511.72-.894l1.148.427c-.267.632-.654 1.116-1.161 1.454-.507.338-1.116.507-1.827.507zm1.707-4.268c-.035-.56-.209-.987-.52-1.28-.302-.303-.707-.454-1.214-.454-.533 0-.969.15-1.307.453-.338.294-.556.72-.654 1.28h3.695zm7.782 6.416a11.02 11.02 0 01-1.414-3.042 12.335 12.335 0 01-.467-3.374c0-1.138.155-2.246.467-3.322.32-1.084.787-2.08 1.4-2.987l1.067.72a9.518 9.518 0 00-1.227 2.627c-.275.96-.413 1.948-.413 2.962 0 1.022.138 2.023.413 3 .285.97.698 1.868 1.241 2.695l-1.067.72zm7.32-2.201a4.1 4.1 0 01-.894-.08 6.506 6.506 0 01-.76-.2 3.373 3.373 0 00-.573-.16 2.427 2.427 0 00-.547-.054 3.48 3.48 0 00-.841.093 3.986 3.986 0 00-.72.227l-.093.054-.534-1.12c.56-.312.974-.628 1.241-.948.275-.329.413-.685.413-1.067 0-.169-.022-.329-.066-.48a2.043 2.043 0 00-.201-.454h-1.56V88.13h1a4.86 4.86 0 01-.28-.72 3.484 3.484 0 01-.093-.841c0-.587.133-1.098.4-1.534a2.707 2.707 0 011.174-1.027c.507-.24 1.098-.36 1.774-.36.631 0 1.174.12 1.627.36.454.24.805.565 1.054.974.258.4.431.849.52 1.347l-1.401.36c-.089-.49-.284-.894-.586-1.214-.294-.329-.712-.493-1.254-.493-.561 0-1.005.15-1.334.453-.329.294-.494.698-.494 1.214 0 .267.04.511.12.734.08.222.192.47.334.747h2.654v1.093h-2.241c.027.063.049.125.067.187.027.062.049.129.067.2.044.151.066.311.066.48 0 .587-.186 1.134-.56 1.641.071-.009.182-.013.334-.013.222 0 .418.017.587.053.177.027.351.071.52.133.151.054.298.094.44.12.151.027.311.04.48.04.258 0 .471-.053.64-.16.169-.106.289-.293.36-.56l1.308.387c-.107.525-.347.938-.721 1.24-.364.294-.84.44-1.427.44zm7.313.053c-.72 0-1.356-.165-1.907-.493-.552-.33-.987-.845-1.308-1.548-.32-.711-.48-1.61-.48-2.694 0-1.058.151-1.965.454-2.721.302-.765.738-1.347 1.307-1.748.578-.409 1.267-.613 2.067-.613.81 0 1.472.218 1.988.653.516.427.894 1.019 1.134 1.775l-1.468.293c-.142-.436-.351-.778-.626-1.027-.276-.25-.636-.374-1.081-.374-.667 0-1.2.276-1.601.827-.391.543-.613 1.396-.666 2.561.266-.409.618-.729 1.053-.96a3.192 3.192 0 011.494-.347 3.25 3.25 0 011.587.387c.472.258.841.627 1.108 1.107.275.471.413 1.014.413 1.627 0 .64-.156 1.21-.467 1.708-.302.498-.72.889-1.254 1.174a3.748 3.748 0 01-1.747.413zm0-1.254c.391 0 .734-.089 1.027-.267.302-.177.534-.418.694-.72.169-.302.253-.645.253-1.027 0-.382-.08-.725-.24-1.027a1.738 1.738 0 00-.68-.707 1.944 1.944 0 00-1.027-.267c-.392 0-.738.09-1.041.267a1.83 1.83 0 00-.693.707c-.16.294-.24.631-.24 1.014 0 .373.08.716.24 1.027.16.311.387.556.68.733.293.178.636.267 1.027.267zm5.312 1.147a.968.968 0 01-.694-.266.966.966 0 01-.267-.694c0-.249.089-.463.267-.64a.943.943 0 01.694-.28c.249 0 .462.093.64.28.187.177.28.391.28.64a.94.94 0 01-.28.694.873.873 0 01-.64.266zm5.475.107c-.818 0-1.512-.204-2.081-.614-.56-.417-.987-.995-1.28-1.734-.285-.738-.427-1.6-.427-2.587 0-.97.147-1.819.44-2.548.294-.738.72-1.311 1.281-1.72.569-.41 1.253-.614 2.054-.614.8 0 1.48.204 2.041.613.56.41.982.983 1.267 1.721.293.738.44 1.587.44 2.548 0 .987-.142 1.854-.427 2.6-.284.739-.707 1.312-1.267 1.721-.56.41-1.241.614-2.041.614zm0-1.334c.711 0 1.263-.316 1.654-.947.4-.631.6-1.516.6-2.654 0-1.112-.2-1.979-.6-2.601-.4-.632-.956-.947-1.667-.947-.721 0-1.285.315-1.694.947-.4.622-.6 1.49-.6 2.6 0 1.139.204 2.024.613 2.655.409.631.974.947 1.694.947zm6.986 1.12v-7.656l-2.094 1.388V85.42l2.308-1.56h1.254v9.39h-1.468zm9.922.214c-.685 0-1.285-.151-1.801-.454a3.204 3.204 0 01-1.2-1.28c-.276-.551-.414-1.174-.414-1.867 0-.676.134-1.285.4-1.828a3.123 3.123 0 011.174-1.294c.516-.31 1.121-.466 1.814-.466.658 0 1.223.146 1.694.44.472.293.827.711 1.067 1.254.241.533.361 1.156.361 1.867 0 .133-.005.253-.014.36h-5.108c.044.694.244 1.218.6 1.574.355.347.836.52 1.44.52.454 0 .823-.107 1.107-.32.285-.213.525-.511.721-.894l1.147.427c-.267.632-.654 1.116-1.161 1.454-.506.338-1.116.507-1.827.507zm1.707-4.268c-.035-.56-.209-.987-.52-1.28-.302-.303-.707-.454-1.214-.454-.533 0-.969.15-1.307.453-.338.294-.556.72-.653 1.28h3.694zm4.804 4.215c-.462 0-.867-.09-1.214-.267a1.962 1.962 0 01-.773-.747 2.032 2.032 0 01-.267-1.027c0-.658.253-1.174.76-1.547.507-.374 1.21-.56 2.108-.56h1.56v-.574c0-.356-.124-.645-.373-.867-.24-.231-.583-.347-1.027-.347-.409 0-.743.107-1.001.32-.249.205-.422.49-.52.854l-1.374-.227c.107-.462.294-.854.561-1.174.266-.32.595-.56.987-.72.4-.169.853-.254 1.36-.254.569 0 1.063.103 1.481.307.418.205.738.49.96.854.231.356.347.774.347 1.254v4.562h-1.401v-1.16c-.204.4-.493.72-.867.96-.364.24-.8.36-1.307.36zm.4-1.12c.347 0 .654-.085.921-.254a1.88 1.88 0 00.853-1.574v-.294h-1.293c-.561 0-.992.094-1.294.28a.893.893 0 00-.44.8c0 .32.115.574.346.761.232.187.534.28.907.28zm8.083 1.16c-.685 0-1.29-.151-1.815-.454a3.12 3.12 0 01-1.2-1.267c-.285-.542-.427-1.16-.427-1.854 0-.685.138-1.298.414-1.84a3.176 3.176 0 011.2-1.295c.525-.31 1.134-.466 1.828-.466.524 0 .991.097 1.4.293.418.187.76.458 1.027.814.267.346.458.751.574 1.213l-1.347.267a2.05 2.05 0 00-.587-.974c-.276-.249-.632-.373-1.067-.373-.418 0-.779.107-1.081.32a1.908 1.908 0 00-.667.84 3.009 3.009 0 00-.227 1.188c0 .444.076.844.227 1.2.151.356.374.636.667.84.302.205.663.307 1.081.307.426 0 .782-.12 1.067-.36.293-.249.493-.565.6-.947l1.334.253c-.098.445-.28.84-.547 1.188a2.735 2.735 0 01-1.027.813c-.409.196-.885.294-1.427.294zm4.384-.2v-9.67h1.414v3.907c.222-.382.516-.68.88-.893.374-.214.801-.32 1.281-.32.765 0 1.36.244 1.787.733.427.49.64 1.165.64 2.028v4.215h-1.427v-4.095c0-.543-.12-.956-.36-1.24-.24-.285-.596-.428-1.067-.428-.347 0-.649.094-.907.28a1.824 1.824 0 00-.614.76 2.874 2.874 0 00-.213 1.148v3.575h-1.414zm7.123 1.64a9.21 9.21 0 001.213-2.627c.276-.96.414-1.948.414-2.962 0-1.022-.138-2.018-.414-2.988a9.669 9.669 0 00-1.227-2.707l1.067-.72a11.21 11.21 0 011.401 3.054 11.91 11.91 0 010 6.696 10.468 10.468 0 01-1.387 2.975l-1.067-.72z"/><path stroke="#000" stroke-opacity="0.25" stroke-width="0.278" d="M0 106.848L295 106.848"/><path fill="#088FE9" d="M65.623 129.576c-.613 0-1.156-.102-1.627-.306a2.989 2.989 0 01-1.12-.827 3.218 3.218 0 01-.614-1.188l1.294-.466c.142.444.378.804.707 1.08.338.276.778.413 1.32.413.596 0 1.076-.151 1.44-.453.365-.311.548-.72.548-1.227 0-.498-.183-.881-.547-1.147-.356-.267-.845-.4-1.468-.4h-.653v-1.201h.64c.551 0 .974-.129 1.267-.387.303-.267.454-.604.454-1.014 0-.426-.156-.76-.467-1-.302-.249-.703-.373-1.2-.373-.49 0-.885.124-1.188.373-.302.249-.524.591-.667 1.027l-1.28-.44c.222-.703.596-1.254 1.12-1.654.525-.409 1.21-.614 2.055-.614.64 0 1.191.116 1.653.347.463.223.81.529 1.041.921.24.391.36.822.36 1.293 0 .427-.102.814-.307 1.161-.204.347-.511.631-.92.854.542.213.942.52 1.2.92.267.4.4.862.4 1.387a2.78 2.78 0 01-.413 1.494c-.267.445-.662.796-1.187 1.054-.516.249-1.13.373-1.84.373zm12.724.014c-.933 0-1.751-.209-2.454-.627a4.251 4.251 0 01-1.627-1.734c-.383-.738-.574-1.579-.574-2.521 0-.943.191-1.788.574-2.535a4.32 4.32 0 011.627-1.76c.703-.427 1.52-.641 2.454-.641.934 0 1.748.214 2.441.641a4.13 4.13 0 011.614 1.76c.374.747.56 1.592.56 2.535 0 .942-.186 1.783-.56 2.521a4.162 4.162 0 01-1.614 1.734c-.693.418-1.507.627-2.44.627zm-.013-1.334c.64 0 1.196-.147 1.667-.44a2.926 2.926 0 001.08-1.254c.259-.534.388-1.152.388-1.854 0-.703-.13-1.325-.387-1.868a2.992 2.992 0 00-1.094-1.267c-.471-.311-1.023-.467-1.654-.467-.622 0-1.174.156-1.654.467a2.992 2.992 0 00-1.094 1.267c-.258.543-.386 1.165-.386 1.868 0 .702.128 1.32.386 1.854.258.533.623.951 1.094 1.254.471.293 1.023.44 1.654.44zm8.743 1.254c-.684 0-1.178-.16-1.48-.481-.303-.329-.454-.791-.454-1.387v-3.855h-1.08v-1.173h1.08v-1.748h1.427v1.748h1.428v1.173H86.57v3.789c0 .257.072.444.214.56.142.106.355.16.64.16.142 0 .329-.018.56-.054v1.148c-.311.08-.613.12-.907.12zm2.358-.134v-9.67h1.413v3.908c.223-.382.516-.68.88-.894.374-.213.801-.32 1.281-.32.765 0 1.36.245 1.788.734.426.489.64 1.165.64 2.027v4.215H94.01v-4.095c0-.542-.12-.956-.36-1.24-.24-.285-.596-.427-1.068-.427-.346 0-.649.093-.907.28a1.819 1.819 0 00-.613.76 2.871 2.871 0 00-.214 1.147v3.575h-1.413zm10.881.214c-.685 0-1.285-.152-1.801-.454a3.203 3.203 0 01-1.2-1.28c-.276-.552-.414-1.174-.414-1.868 0-.676.133-1.285.4-1.827a3.122 3.122 0 011.174-1.294c.516-.311 1.12-.467 1.814-.467.658 0 1.223.147 1.694.44.471.294.827.712 1.067 1.254.24.534.36 1.156.36 1.868 0 .133-.004.253-.013.36h-5.109c.045.693.245 1.218.6 1.574.356.346.836.52 1.441.52.454 0 .823-.107 1.107-.32.285-.214.525-.512.72-.894l1.148.427c-.267.631-.654 1.116-1.161 1.454-.507.338-1.116.507-1.827.507zm1.707-4.269c-.035-.56-.209-.987-.52-1.28-.302-.303-.707-.454-1.214-.454-.534 0-.97.151-1.307.454-.338.293-.556.72-.654 1.28h3.695zm2.978 4.055v-6.762h1.427v1.187c.178-.392.418-.698.72-.921.311-.222.68-.333 1.107-.333.08 0 .151.004.214.013.071 0 .142.009.213.027v1.347a2.22 2.22 0 00-.44-.04c-.543 0-.983.191-1.321.574-.329.382-.493.902-.493 1.56v3.348h-1.427zm8.42 0v-9.403h4.282c.969 0 1.716.262 2.241.786.533.516.8 1.214.8 2.095 0 .871-.267 1.569-.8 2.094-.525.524-1.272.787-2.241.787h-2.815v3.641h-1.467zm4.135-4.922c.543 0 .961-.138 1.254-.413.293-.285.44-.68.44-1.187 0-.516-.147-.912-.44-1.187-.293-.276-.711-.414-1.254-.414h-2.668v3.201h2.668zm7.366 5.136c-.685 0-1.285-.152-1.801-.454a3.197 3.197 0 01-1.2-1.28c-.276-.552-.414-1.174-.414-1.868 0-.676.133-1.285.4-1.827a3.124 3.124 0 011.174-1.294c.516-.311 1.121-.467 1.814-.467.658 0 1.223.147 1.694.44.471.294.827.712 1.067 1.254.24.534.36 1.156.36 1.868 0 .133-.004.253-.013.36h-5.109c.045.693.245 1.218.601 1.574.355.346.835.52 1.44.52.454 0 .823-.107 1.107-.32.285-.214.525-.512.721-.894l1.147.427c-.267.631-.654 1.116-1.161 1.454-.507.338-1.116.507-1.827.507zm1.707-4.269c-.035-.56-.209-.987-.52-1.28-.302-.303-.707-.454-1.214-.454-.533 0-.969.151-1.307.454-.338.293-.556.72-.654 1.28h3.695zm6.004 4.269c-.666 0-1.258-.152-1.774-.454a3.204 3.204 0 01-1.213-1.267c-.294-.542-.441-1.165-.441-1.867 0-.694.143-1.312.427-1.855a3.183 3.183 0 011.214-1.28c.525-.311 1.125-.467 1.801-.467.658 0 1.245.156 1.761.467.515.302.915.729 1.2 1.28.293.543.44 1.161.44 1.855 0 .693-.147 1.316-.44 1.867a3.12 3.12 0 01-1.2 1.267c-.516.302-1.108.454-1.775.454zm0-1.214c.401 0 .747-.094 1.041-.28.293-.196.516-.472.667-.827.16-.356.24-.778.24-1.267 0-.49-.08-.912-.24-1.268a1.737 1.737 0 00-.667-.827 1.838 1.838 0 00-1.041-.293c-.4 0-.746.098-1.04.293-.293.196-.52.472-.68.827-.16.356-.24.778-.24 1.268 0 .48.08.898.24 1.253.16.356.387.632.68.827.302.196.649.294 1.04.294zm4.998 3.535v-9.297h1.413v.973a2.69 2.69 0 01.974-.867c.391-.213.818-.32 1.281-.32.613 0 1.156.156 1.627.467.48.302.849.729 1.107 1.28.267.543.4 1.161.4 1.855 0 .693-.133 1.311-.4 1.854a3.052 3.052 0 01-1.107 1.28c-.471.302-1.014.454-1.627.454-.463 0-.89-.103-1.281-.307a2.865 2.865 0 01-.974-.867v3.495h-1.413zm3.361-3.549c.4 0 .747-.093 1.04-.28.303-.195.534-.471.694-.827.16-.355.24-.773.24-1.253 0-.73-.178-1.308-.534-1.734-.355-.427-.835-.641-1.44-.641-.596 0-1.072.214-1.427.641-.347.426-.521 1.004-.521 1.734 0 .48.08.898.241 1.253.16.356.386.632.68.827.293.187.636.28 1.027.28zm4.907 1.014v-9.67h1.414v9.67h-1.414zm6.299.214c-.685 0-1.285-.152-1.801-.454a3.21 3.21 0 01-1.2-1.28c-.276-.552-.414-1.174-.414-1.868 0-.676.134-1.285.401-1.827a3.122 3.122 0 011.173-1.294c.516-.311 1.121-.467 1.814-.467.659 0 1.223.147 1.694.44.472.294.827.712 1.068 1.254.24.534.36 1.156.36 1.868 0 .133-.005.253-.014.36h-5.108c.044.693.244 1.218.6 1.574.356.346.836.52 1.44.52.454 0 .823-.107 1.108-.32.284-.214.524-.512.72-.894l1.147.427c-.267.631-.654 1.116-1.16 1.454-.507.338-1.116.507-1.828.507zm1.707-4.269c-.035-.56-.208-.987-.52-1.28-.302-.303-.707-.454-1.214-.454-.533 0-.969.151-1.307.454-.338.293-.555.72-.653 1.28h3.694zm7.782 6.416a11.048 11.048 0 01-1.414-3.041 12.379 12.379 0 01-.467-3.375 11.9 11.9 0 01.467-3.321c.32-1.085.787-2.081 1.401-2.988l1.067.72a9.476 9.476 0 00-1.227 2.628 10.674 10.674 0 00-.414 2.961c0 1.023.138 2.023.414 3.001.284.97.698 1.868 1.24 2.695l-1.067.72zm7.321-2.201c-.365 0-.663-.026-.894-.08a6.359 6.359 0 01-.76-.2 3.443 3.443 0 00-.574-.16 2.452 2.452 0 00-.547-.053c-.311 0-.591.031-.84.093a3.94 3.94 0 00-.72.227l-.094.053-.533-1.12c.56-.311.973-.627 1.24-.947.276-.329.414-.685.414-1.067a1.72 1.72 0 00-.067-.481 2.037 2.037 0 00-.2-.453h-1.561v-1.094h1.001a4.75 4.75 0 01-.28-.72 3.431 3.431 0 01-.094-.84c0-.587.134-1.099.4-1.534a2.704 2.704 0 011.174-1.027c.507-.241 1.098-.361 1.774-.361.631 0 1.174.12 1.627.361.454.24.805.564 1.054.973.258.4.431.85.52 1.347l-1.4.361c-.089-.489-.285-.894-.587-1.214-.294-.329-.711-.494-1.254-.494-.56 0-1.005.151-1.334.454-.329.293-.493.698-.493 1.214 0 .266.04.511.12.733.08.223.191.472.333.747h2.655v1.094h-2.241c.026.062.049.124.066.187.027.062.049.129.067.2.045.151.067.311.067.48 0 .587-.187 1.134-.56 1.641.071-.009.182-.014.333-.014.222 0 .418.018.587.054.178.026.351.071.52.133.151.053.298.093.44.12.151.027.312.04.481.04.257 0 .471-.053.64-.16.169-.107.289-.293.36-.56l1.307.387c-.107.524-.347.938-.72 1.24-.365.294-.841.44-1.427.44zm7.595-.16v-2.187h-4.442v-1.187l4.575-6.016h1.334v5.909h1.361v1.294h-1.361v2.187h-1.467zm-2.855-3.481h2.855v-3.735l-2.855 3.735zm7.493 3.588a.965.965 0 01-.693-.267.967.967 0 01-.267-.693c0-.249.089-.463.267-.641a.943.943 0 01.693-.28c.249 0 .463.094.641.28.186.178.28.392.28.641a.945.945 0 01-.28.693.875.875 0 01-.641.267zm5.32.107c-.604 0-1.138-.107-1.6-.32a3.283 3.283 0 01-1.147-.854 3.225 3.225 0 01-.627-1.201l1.427-.373c.142.436.382.778.72 1.027.338.249.756.373 1.254.373.614 0 1.103-.173 1.467-.52.365-.347.547-.822.547-1.427 0-.569-.178-1.023-.533-1.361-.356-.346-.832-.52-1.428-.52-.453 0-.831.094-1.133.28a2.67 2.67 0 00-.734.614l-1.321-.24.614-5.082h5.589v1.307h-4.309l-.306 2.521a2.98 2.98 0 01.853-.44 3.57 3.57 0 011.107-.16c.623 0 1.165.129 1.628.387a2.61 2.61 0 011.08 1.093c.258.463.387.996.387 1.601 0 .649-.147 1.223-.44 1.721a3.035 3.035 0 01-1.227 1.16c-.534.276-1.156.414-1.868.414zm6.569-.214v-7.656l-2.094 1.387v-1.561l2.307-1.56h1.254v9.39h-1.467zm9.922.214c-.685 0-1.285-.152-1.801-.454a3.206 3.206 0 01-1.201-1.28c-.275-.552-.413-1.174-.413-1.868 0-.676.133-1.285.4-1.827a3.124 3.124 0 011.174-1.294c.516-.311 1.12-.467 1.814-.467.658 0 1.223.147 1.694.44.471.294.827.712 1.067 1.254.24.534.36 1.156.36 1.868 0 .133-.004.253-.013.36h-5.109c.044.693.245 1.218.6 1.574.356.346.836.52 1.441.52.453 0 .822-.107 1.107-.32.284-.214.525-.512.72-.894l1.147.427c-.266.631-.653 1.116-1.16 1.454-.507.338-1.116.507-1.827.507zm1.707-4.269c-.036-.56-.209-.987-.52-1.28-.303-.303-.707-.454-1.214-.454-.534 0-.969.151-1.307.454-.338.293-.556.72-.654 1.28h3.695zm4.804 4.215c-.463 0-.867-.089-1.214-.266a1.962 1.962 0 01-1.04-1.775c0-.658.253-1.173.76-1.547.507-.373 1.209-.56 2.107-.56h1.561v-.574a1.11 1.11 0 00-.374-.867c-.24-.231-.582-.346-1.027-.346-.409 0-.742.106-1 .32-.249.204-.422.489-.52.853l-1.374-.226c.107-.463.293-.854.56-1.174.267-.32.596-.56.987-.72.4-.169.854-.254 1.361-.254.569 0 1.062.102 1.48.307.418.204.738.489.961.854.231.355.346.773.346 1.253v4.562h-1.4v-1.16c-.205.4-.494.72-.867.96-.365.24-.8.36-1.307.36zm.4-1.12c.347 0 .653-.085.92-.254a1.88 1.88 0 00.854-1.574v-.293h-1.294c-.56 0-.991.093-1.294.28a.896.896 0 00-.44.8c0 .321.116.574.347.761.231.186.533.28.907.28zm8.082 1.16c-.685 0-1.289-.151-1.814-.453a3.113 3.113 0 01-1.2-1.267c-.285-.543-.427-1.161-.427-1.854 0-.685.138-1.299.413-1.841a3.186 3.186 0 011.201-1.294c.524-.311 1.133-.467 1.827-.467.525 0 .992.098 1.401.294.418.186.76.458 1.027.813.266.347.458.752.573 1.214l-1.347.267a2.044 2.044 0 00-.587-.974c-.276-.249-.631-.373-1.067-.373-.418 0-.778.106-1.08.32a1.895 1.895 0 00-.667.84 3.008 3.008 0 00-.227 1.187c0 .445.076.845.227 1.201.151.355.373.635.667.84.302.205.662.307 1.08.307.427 0 .783-.12 1.067-.36.294-.249.494-.565.6-.947l1.334.253c-.098.445-.28.84-.547 1.187a2.73 2.73 0 01-1.027.814c-.409.195-.885.293-1.427.293zm4.385-.2v-9.67h1.413v3.908c.223-.382.516-.68.881-.894.373-.213.8-.32 1.28-.32.765 0 1.361.245 1.788.734.427.489.64 1.165.64 2.027v4.215h-1.427v-4.095c0-.542-.12-.956-.36-1.24-.241-.285-.596-.427-1.068-.427-.346 0-.649.093-.907.28a1.823 1.823 0 00-.613.76 2.876 2.876 0 00-.214 1.147v3.575h-1.413zm7.122 1.641a9.212 9.212 0 001.214-2.628c.276-.96.413-1.947.413-2.961 0-1.023-.137-2.019-.413-2.988a9.729 9.729 0 00-1.227-2.708l1.067-.72a11.24 11.24 0 011.4 3.055 11.87 11.87 0 01.481 3.361c0 1.138-.16 2.25-.481 3.335a10.438 10.438 0 01-1.387 2.974l-1.067-.72z"/><path stroke="#000" stroke-opacity="0.25" stroke-width="0.278" d="M0 142.973L295 142.973"/><path fill="#088FE9" d="M102.478 165.715c-.943 0-1.765-.209-2.468-.627a4.252 4.252 0 01-1.627-1.734c-.373-.747-.56-1.596-.56-2.548 0-.942.187-1.783.56-2.521a4.168 4.168 0 011.6-1.747c.703-.427 1.53-.64 2.482-.64.693 0 1.311.12 1.854.36.542.24.996.582 1.36 1.027.374.435.654.947.841 1.534l-1.401.36c-.213-.605-.542-1.072-.987-1.401-.445-.329-1-.493-1.667-.493-.658 0-1.223.155-1.694.467-.472.302-.832.72-1.08 1.253-.24.534-.36 1.134-.36 1.801 0 .703.12 1.321.36 1.854.248.525.604.934 1.066 1.227.472.294 1.036.441 1.694.441.445 0 .845-.076 1.201-.227.355-.16.653-.378.893-.654.241-.284.427-.622.561-1.014l1.374.347a4.134 4.134 0 01-.801 1.548 3.833 3.833 0 01-1.36 1.027c-.543.24-1.156.36-1.841.36zm7.754 0c-.756 0-1.347-.245-1.774-.734-.427-.489-.64-1.165-.64-2.027v-4.215h1.427v4.095c0 .542.12.956.36 1.24.24.285.596.427 1.067.427.338 0 .636-.089.894-.267.267-.187.471-.444.614-.773.151-.329.226-.712.226-1.148v-3.574h1.428v6.762h-1.428v-1c-.222.382-.52.68-.893.894-.365.213-.792.32-1.281.32zm8.053 0c-.8 0-1.463-.187-1.987-.56a2.656 2.656 0 01-1.014-1.548l1.321-.32c.115.409.315.729.6.961.293.231.658.346 1.094.346.435 0 .778-.089 1.027-.266.249-.187.373-.418.373-.694 0-.24-.089-.418-.267-.534-.169-.115-.489-.231-.96-.346l-.24-.054c-.08-.018-.165-.035-.254-.053-.56-.125-1.013-.262-1.36-.414-.347-.151-.614-.355-.8-.613-.178-.258-.267-.592-.267-1.001 0-.418.111-.782.333-1.093.223-.32.534-.565.934-.734a3.48 3.48 0 011.401-.267c.729 0 1.316.165 1.76.494.445.329.756.787.934 1.374l-1.267.346c-.116-.346-.289-.613-.52-.8-.232-.195-.53-.293-.894-.293-.374 0-.68.08-.92.24-.232.16-.347.369-.347.627 0 .231.102.404.307.52.213.107.591.222 1.133.347.036 0 .067.004.094.013.026.009.057.018.093.027.605.124 1.085.262 1.441.413.355.151.627.36.813.627.196.258.294.605.294 1.041 0 .435-.116.822-.347 1.16-.231.329-.56.587-.987.774-.427.186-.934.28-1.521.28zm6.613-.08c-.685 0-1.178-.16-1.481-.48-.302-.329-.453-.792-.453-1.388v-3.855h-1.08v-1.173h1.08v-1.748h1.427v1.748h1.427v1.173h-1.427v3.789c0 .258.071.444.214.56.142.107.355.16.64.16.142 0 .329-.018.56-.053v1.147c-.311.08-.613.12-.907.12zm5.241.08c-.667 0-1.258-.151-1.774-.454a3.2 3.2 0 01-1.214-1.267c-.293-.542-.44-1.165-.44-1.867 0-.694.142-1.312.427-1.854a3.172 3.172 0 011.214-1.281c.524-.311 1.125-.467 1.8-.467.658 0 1.245.156 1.761.467a3.09 3.09 0 011.201 1.281c.293.542.44 1.16.44 1.854 0 .693-.147 1.316-.44 1.867a3.109 3.109 0 01-1.201 1.267c-.516.303-1.107.454-1.774.454zm0-1.214c.4 0 .747-.093 1.04-.28.294-.196.516-.471.667-.827.16-.356.24-.778.24-1.267 0-.489-.08-.912-.24-1.267-.151-.365-.373-.641-.667-.827a1.827 1.827 0 00-1.04-.294c-.4 0-.747.098-1.04.294a1.896 1.896 0 00-.681.827c-.16.355-.24.778-.24 1.267 0 .48.08.898.24 1.254a1.9 1.9 0 00.681.826c.302.196.649.294 1.04.294zm4.997 1v-6.762h1.427v.907a2.2 2.2 0 01.761-.827c.32-.196.689-.294 1.107-.294.489 0 .902.111 1.24.334.338.213.578.529.72.947.205-.4.481-.712.827-.934.347-.231.756-.347 1.228-.347.675 0 1.196.191 1.56.574.365.382.547.947.547 1.694v4.708h-1.427v-4.415c0-.444-.098-.778-.294-1-.186-.231-.475-.347-.867-.347-.275 0-.52.071-.733.213a1.43 1.43 0 00-.507.641c-.116.284-.173.627-.173 1.027v3.881h-1.428v-4.415c0-.444-.093-.778-.28-1-.187-.231-.471-.347-.853-.347-.285 0-.534.071-.747.213a1.43 1.43 0 00-.507.641c-.116.275-.174.613-.174 1.013v3.895h-1.427zm13.883 0l3.628-9.39h1.667l3.628 9.39h-1.574l-.867-2.254h-4.095l-.853 2.254h-1.534zm2.881-3.548h3.108l-1.547-4.055-1.561 4.055zm7.347 3.548v-6.762h1.427v.907a2.2 2.2 0 01.761-.827c.32-.196.689-.294 1.107-.294.489 0 .902.111 1.24.334.338.213.578.529.721.947.204-.4.48-.712.827-.934.346-.231.755-.347 1.227-.347.675 0 1.196.191 1.56.574.365.382.547.947.547 1.694v4.708h-1.427v-4.415c0-.444-.098-.778-.294-1-.186-.231-.475-.347-.867-.347-.275 0-.52.071-.733.213a1.43 1.43 0 00-.507.641c-.116.284-.173.627-.173 1.027v3.881h-1.428v-4.415c0-.444-.093-.778-.28-1-.186-.231-.471-.347-.853-.347-.285 0-.534.071-.747.213a1.43 1.43 0 00-.507.641c-.116.275-.174.613-.174 1.013v3.895h-1.427zm14.308.214c-.667 0-1.259-.151-1.775-.454a3.197 3.197 0 01-1.213-1.267c-.294-.542-.44-1.165-.44-1.867 0-.694.142-1.312.426-1.854a3.179 3.179 0 011.214-1.281c.525-.311 1.125-.467 1.801-.467.658 0 1.245.156 1.761.467.515.302.915.729 1.2 1.281.293.542.44 1.16.44 1.854 0 .693-.147 1.316-.44 1.867a3.113 3.113 0 01-1.2 1.267c-.516.303-1.108.454-1.774.454zm0-1.214c.4 0 .746-.093 1.04-.28.293-.196.516-.471.667-.827.16-.356.24-.778.24-1.267 0-.489-.08-.912-.24-1.267-.151-.365-.374-.641-.667-.827a1.83 1.83 0 00-1.04-.294 1.83 1.83 0 00-1.041.294c-.293.195-.52.471-.68.827-.16.355-.24.778-.24 1.267 0 .48.08.898.24 1.254.16.355.387.631.68.826a1.87 1.87 0 001.041.294zm7.291 1.214c-.756 0-1.347-.245-1.774-.734-.427-.489-.64-1.165-.64-2.027v-4.215h1.427v4.095c0 .542.12.956.36 1.24.24.285.596.427 1.067.427.338 0 .636-.089.894-.267.266-.187.471-.444.613-.773.151-.329.227-.712.227-1.148v-3.574h1.427v6.762h-1.427v-1c-.222.382-.52.68-.894.894-.364.213-.791.32-1.28.32zm5.625-.214v-6.762h1.428v1c.222-.382.515-.68.88-.894.373-.213.805-.32 1.294-.32.756 0 1.347.245 1.774.734.427.489.64 1.165.64 2.027v4.215h-1.427v-4.095c0-.542-.12-.956-.36-1.24-.24-.285-.596-.427-1.067-.427a1.54 1.54 0 00-.907.28 1.817 1.817 0 00-.614.76c-.142.33-.213.712-.213 1.148v3.574h-1.428zm10.083.134c-.685 0-1.178-.16-1.481-.48-.302-.329-.453-.792-.453-1.388v-3.855h-1.081v-1.173h1.081v-1.748h1.427v1.748h1.427v1.173h-1.427v3.789c0 .258.071.444.213.56.143.107.356.16.641.16.142 0 .329-.018.56-.053v1.147c-.311.08-.614.12-.907.12z"/></svg>