<svg fill="none" xmlns="http://www.w3.org/2000/svg" viewBox="0 0 24 24"><circle cx="12" cy="12" r="12" fill="#EA5C5C"/><path d="M7.92 8.22c0 .19.063.347.21.483l3.181 3.167-3.181 3.187a.642.642 0 0 0-.21.482c0 .367.294.661.65.661.2 0 .347-.073.484-.21l3.191-3.187L15.447 16c.137.136.284.199.462.199a.65.65 0 0 0 .651-.66c0-.179-.063-.315-.21-.462L13.16 11.87l3.191-3.178a.626.626 0 0 0 .2-.471.647.647 0 0 0-.64-.661.612.612 0 0 0-.473.2l-3.192 3.187-3.202-3.188a.612.612 0 0 0-.472-.199.656.656 0 0 0-.65.66Z" fill="#fff"/></svg>
