<svg xmlns="http://www.w3.org/2000/svg" viewBox="-150 15 600 260" fill="none"><g><g><rect width="321" height="56.175" fill="#fff" rx="5.333"/><rect width="33.333" height="33.333" x="11.845" y="11.105" fill="#FFE1D7" rx="3.333"/><path fill="#E79D83" fill-rule="evenodd" d="M32.22 17.782c.34.059.568.383.509.723l-.613 3.517c.22.175.432.36.634.558l2.215-2.214a.625.625 0 1 1 .883.883l-2.214 2.215a8.1 8.1 0 0 1 .558.633l3.516-.612a.625.625 0 1 1 .215 1.231l-2.977.518a8.044 8.044 0 0 1 .477 1.044 3.126 3.126 0 0 1-1.576 3.803l-.068.043a235.984 235.984 0 0 1-1.303.817c-.502.312-1.115.693-1.8 1.114a.622.622 0 0 1-.169.103c-.447.275-.924.566-1.417.865-2.642 1.602-5.818 3.47-7.888 4.488l-.007.003a1.876 1.876 0 0 1-2.5-2.5l.004-.007c.655-1.333 1.663-3.125 2.725-4.937a328.561 328.561 0 0 1 4.484-7.36l.175-.28.043-.067a3.12 3.12 0 0 1 3.816-1.568l.017.006c.351.133.692.29 1.02.468l.518-2.979a.625.625 0 0 1 .723-.508Zm-1.864 13.002-2.463-2.464a.625.625 0 0 0-.884.884l2.252 2.252-.82.498c-2.643 1.603-5.773 3.442-7.786 4.433a.625.625 0 0 1-.832-.832c.558-1.135 1.384-2.623 2.287-4.18l1.806 1.806a.625.625 0 0 0 .884-.883l-2.038-2.038a241.11 241.11 0 0 1 1.492-2.492 326.157 326.157 0 0 1 2.526-4.097l2.439 2.439a.625.625 0 1 0 .884-.884l-2.645-2.644a1.87 1.87 0 0 1 2.068-.608 6.834 6.834 0 0 1 2.74 1.913c.02.023.04.044.063.064a6.837 6.837 0 0 1 1.913 2.737 1.876 1.876 0 0 1-.97 2.282.629.629 0 0 0-.064.036l-.096.06a209.125 209.125 0 0 1-1.297.814c-.417.26-.91.566-1.459.904Z" clip-rule="evenodd"/><path fill="#1E1937" d="M61.043 25.332c-1 0-1.87-.222-2.606-.666a4.575 4.575 0 0 1-1.686-1.856c-.387-.793-.581-1.69-.581-2.691 0-1.002.198-1.899.595-2.692a4.429 4.429 0 0 1 1.7-1.856c.746-.444 1.624-.666 2.635-.666.718 0 1.36.123 1.927.369a3.882 3.882 0 0 1 1.43 1.048c.388.444.68.977.879 1.6l-1.46.397c-.235-.632-.585-1.119-1.048-1.459-.463-.34-1.039-.51-1.728-.51-.708 0-1.313.165-1.813.496-.5.321-.879.77-1.134 1.346-.255.567-.382 1.209-.382 1.927 0 .755.127 1.42.382 1.997a2.951 2.951 0 0 0 1.12 1.318c.5.311 1.095.467 1.784.467.841 0 1.502-.217 1.984-.652.49-.434.784-1.086.878-1.955h-2.833V19.92h4.391v.567c0 1.067-.184 1.964-.552 2.692-.359.717-.874 1.256-1.544 1.615-.661.358-1.44.538-2.338.538Zm6.257-.227v-7.182h1.516v1.26c.189-.415.444-.74.765-.977.33-.236.723-.354 1.176-.354.085 0 .16.005.227.014.075 0 .15.01.226.028v1.431a2.39 2.39 0 0 0-.467-.042c-.576 0-1.044.203-1.403.609-.35.406-.524.959-.524 1.657v3.556H67.3Zm8.403.227c-.708 0-1.336-.16-1.884-.482a3.402 3.402 0 0 1-1.29-1.346c-.31-.576-.467-1.237-.467-1.983 0-.737.151-1.393.454-1.97a3.379 3.379 0 0 1 1.289-1.36c.557-.33 1.194-.495 1.912-.495.7 0 1.323.165 1.87.496.548.321.973.774 1.275 1.36.312.576.468 1.232.468 1.97 0 .736-.156 1.397-.468 1.982a3.305 3.305 0 0 1-1.275 1.346c-.547.321-1.175.482-1.884.482Zm0-1.29c.425 0 .793-.098 1.105-.297.312-.208.548-.5.708-.878.17-.378.255-.826.255-1.346 0-.52-.085-.968-.255-1.346-.16-.387-.396-.68-.708-.878-.312-.208-.68-.312-1.105-.312-.425 0-.793.104-1.105.312-.311.208-.552.5-.722.878-.17.378-.255.827-.255 1.346 0 .51.085.954.255 1.332.17.377.41.67.722.878.321.208.69.312 1.105.312Zm8.495 1.276c-.727 0-1.37-.16-1.927-.482a3.306 3.306 0 0 1-1.275-1.346c-.302-.576-.453-1.232-.453-1.969 0-.727.146-1.379.44-1.955a3.38 3.38 0 0 1 1.274-1.374c.557-.33 1.204-.496 1.94-.496.558 0 1.054.104 1.488.312.444.198.808.486 1.091.864.284.368.487.798.61 1.29l-1.431.282a2.17 2.17 0 0 0-.624-1.034c-.293-.264-.67-.396-1.133-.396-.444 0-.826.113-1.148.34a2.023 2.023 0 0 0-.708.892c-.16.378-.24.798-.24 1.26 0 .473.08.898.24 1.276.16.378.397.675.708.892.322.218.704.326 1.148.326.453 0 .831-.127 1.133-.382.312-.265.524-.6.638-1.006l1.416.27a3.15 3.15 0 0 1-.58 1.26 2.905 2.905 0 0 1-1.091.864c-.435.208-.94.312-1.516.312Zm7.857.014c-.727 0-1.364-.16-1.912-.482a3.403 3.403 0 0 1-1.275-1.36c-.293-.585-.44-1.246-.44-1.983 0-.718.142-1.365.426-1.94a3.314 3.314 0 0 1 1.246-1.375c.548-.33 1.19-.496 1.927-.496.699 0 1.299.156 1.8.468.5.311.877.755 1.133 1.331.255.567.382 1.228.382 1.984 0 .141-.005.269-.014.382h-5.426c.047.737.26 1.294.638 1.672.377.368.887.552 1.53.552.481 0 .873-.113 1.175-.34.303-.226.558-.543.765-.949l1.219.453c-.284.67-.695 1.186-1.233 1.545-.538.358-1.185.538-1.94.538Zm1.814-4.533c-.038-.595-.222-1.049-.553-1.36-.32-.322-.75-.482-1.289-.482-.567 0-1.03.16-1.388.482-.36.311-.59.765-.694 1.36h3.924Zm3.162 4.306v-7.182h1.516v1.26c.189-.415.444-.74.765-.977.33-.236.722-.354 1.176-.354.085 0 .16.005.226.014.076 0 .151.01.227.028v1.431a2.398 2.398 0 0 0-.468-.042c-.576 0-1.043.203-1.402.609-.35.406-.524.959-.524 1.657v3.556H97.03Zm5.215 0v-7.182h1.516v7.182h-1.516Zm.765-8.216a.992.992 0 0 1-1.006-1.006.992.992 0 0 1 1.006-1.006c.274 0 .51.1.709.297a.968.968 0 0 1 .297.709c0 .274-.099.51-.297.708a.97.97 0 0 1-.709.298Zm6.047 8.443c-.727 0-1.365-.16-1.912-.482a3.4 3.4 0 0 1-1.275-1.36c-.293-.585-.44-1.246-.44-1.983 0-.718.142-1.365.425-1.94a3.319 3.319 0 0 1 1.247-1.375c.548-.33 1.19-.496 1.927-.496.699 0 1.298.156 1.799.468.5.311.878.755 1.133 1.331.255.567.383 1.228.383 1.984 0 .141-.005.269-.014.382h-5.426c.047.737.259 1.294.637 1.672.378.368.888.552 1.53.552.482 0 .874-.113 1.176-.34.302-.226.557-.543.765-.949l1.218.453c-.283.67-.694 1.186-1.232 1.545-.538.358-1.185.538-1.941.538Zm1.813-4.533c-.037-.595-.222-1.049-.552-1.36-.321-.322-.751-.482-1.289-.482-.567 0-1.03.16-1.389.482-.358.311-.59.765-.694 1.36h3.924Zm5.741 4.533c-.85 0-1.554-.198-2.111-.595-.548-.406-.906-.954-1.076-1.643l1.402-.34c.123.434.335.774.638 1.02.311.245.698.368 1.161.368.463 0 .827-.095 1.091-.283.264-.199.397-.444.397-.737 0-.255-.095-.444-.284-.567-.179-.123-.519-.245-1.02-.368l-.255-.057a11.67 11.67 0 0 0-.269-.056c-.595-.133-1.076-.28-1.445-.44-.368-.16-.651-.377-.85-.651-.189-.274-.283-.628-.283-1.063 0-.444.118-.83.354-1.161.236-.34.567-.6.992-.78.434-.188.93-.283 1.487-.283.775 0 1.398.175 1.87.524.472.35.803.836.992 1.46l-1.346.368c-.123-.369-.307-.652-.552-.85-.246-.208-.562-.312-.95-.312-.396 0-.722.085-.977.255-.246.17-.368.392-.368.666 0 .245.108.43.325.552.227.114.628.236 1.205.369.037 0 .07.004.099.014.028.01.061.019.099.028.642.132 1.152.279 1.53.44.378.16.666.382.864.665.208.274.312.642.312 1.105 0 .463-.123.874-.369 1.233-.245.35-.595.623-1.048.821-.453.199-.992.298-1.615.298ZM262.809 25.275c-.387 0-.703-.028-.949-.085a6.913 6.913 0 0 1-.807-.212 3.6 3.6 0 0 0-.609-.17 2.578 2.578 0 0 0-.581-.057c-.331 0-.628.033-.893.1a4.261 4.261 0 0 0-.765.24l-.099.057-.567-1.19c.595-.33 1.035-.666 1.318-1.006.293-.35.439-.727.439-1.133 0-.18-.023-.35-.071-.51a2.15 2.15 0 0 0-.212-.482h-1.658v-1.162h1.063a5.137 5.137 0 0 1-.298-.765 3.692 3.692 0 0 1-.099-.892c0-.624.142-1.167.425-1.63a2.871 2.871 0 0 1 1.247-1.09c.538-.255 1.166-.383 1.884-.383.671 0 1.247.128 1.728.383.482.255.855.6 1.119 1.034.274.425.459.902.553 1.43l-1.488.383c-.094-.52-.302-.949-.623-1.289-.312-.35-.755-.524-1.332-.524-.595 0-1.067.16-1.416.482-.35.311-.524.74-.524 1.289 0 .283.042.543.127.779.085.236.203.5.354.793h2.819v1.162h-2.38c.029.066.052.132.071.198.029.066.052.137.071.213.047.16.071.33.071.51 0 .623-.198 1.204-.595 1.742.076-.01.194-.014.354-.014.236 0 .444.019.623.057.189.028.374.075.553.141.161.057.316.1.467.128.161.028.331.042.51.042.274 0 .501-.056.68-.17.18-.113.307-.311.383-.595l1.388.411c-.113.557-.368.997-.765 1.318-.387.311-.892.467-1.516.467Zm7.189.057c-.642 0-1.209-.113-1.7-.34a3.49 3.49 0 0 1-1.218-.907 3.432 3.432 0 0 1-.666-1.275l1.516-.396c.151.462.406.826.765 1.09.358.265.802.397 1.331.397.652 0 1.171-.184 1.559-.552.387-.369.58-.874.58-1.516 0-.605-.189-1.086-.566-1.445-.378-.369-.883-.553-1.516-.553-.482 0-.883.1-1.204.298a2.827 2.827 0 0 0-.779.651l-1.403-.255.652-5.397h5.936v1.388h-4.576l-.326 2.678c.264-.199.567-.354.907-.468.349-.113.741-.17 1.175-.17.661 0 1.238.137 1.729.411.5.274.883.661 1.147 1.162.274.49.411 1.058.411 1.7 0 .69-.156 1.298-.467 1.827-.303.52-.737.93-1.304 1.233-.566.293-1.228.439-1.983.439Zm8.447-.014c-.651 0-1.227-.109-1.728-.326a3.16 3.16 0 0 1-1.19-.878 3.433 3.433 0 0 1-.652-1.261l1.375-.496c.151.472.401.855.75 1.147.359.293.827.44 1.403.44.633 0 1.143-.161 1.53-.482.387-.33.581-.765.581-1.303 0-.53-.194-.935-.581-1.219-.378-.283-.897-.425-1.558-.425h-.695V19.24h.68c.586 0 1.035-.137 1.346-.41.321-.284.482-.643.482-1.077 0-.454-.165-.808-.496-1.063-.321-.264-.746-.396-1.275-.396-.519 0-.94.132-1.261.396-.321.265-.557.628-.708 1.091l-1.36-.467c.236-.747.633-1.332 1.19-1.757.557-.435 1.284-.652 2.182-.652.68 0 1.265.123 1.756.369.491.236.86.562 1.105.977.255.416.383.874.383 1.374 0 .454-.109.864-.326 1.233-.217.368-.543.67-.978.906.577.227 1.002.553 1.275.978.284.425.425.916.425 1.473 0 .586-.146 1.115-.439 1.587-.283.472-.703.845-1.261 1.12-.547.264-1.199.396-1.955.396Zm8.652.014c-.642 0-1.208-.113-1.7-.34a3.49 3.49 0 0 1-1.218-.907 3.446 3.446 0 0 1-.666-1.275l1.516-.396c.151.462.406.826.765 1.09.359.265.803.397 1.332.397.651 0 1.171-.184 1.558-.552.387-.369.581-.874.581-1.516 0-.605-.189-1.086-.567-1.445-.377-.369-.883-.553-1.516-.553-.481 0-.883.1-1.204.298a2.827 2.827 0 0 0-.779.651l-1.402-.255.651-5.397h5.936v1.388h-4.576l-.326 2.678a3.18 3.18 0 0 1 .907-.468c.35-.113.742-.17 1.176-.17.661 0 1.237.137 1.728.411.501.274.883.661 1.148 1.162.274.49.411 1.058.411 1.7 0 .69-.156 1.298-.468 1.827-.302.52-.737.93-1.303 1.233-.567.293-1.228.439-1.984.439Zm5.736-.113c-.293 0-.538-.095-.737-.284a1.03 1.03 0 0 1-.283-.736.93.93 0 0 1 .283-.68c.199-.199.444-.298.737-.298.265 0 .491.1.68.298a.907.907 0 0 1 .298.68c0 .292-.1.538-.298.736a.927.927 0 0 1-.68.284Zm3.427-.114v-8.131l-2.225 1.473v-1.658l2.451-1.657h1.332v9.973h-1.558Zm7.999 0v-2.323h-4.717v-1.26l4.859-6.39h1.416v6.276h1.445v1.374h-1.445v2.323h-1.558Zm-3.032-3.697h3.032V17.44l-3.032 3.967Z"/><path fill="#776D89" d="M56.498 44.772v-.862l3.525-3.063c.334-.292.6-.546.8-.763.209-.216.384-.462.525-.737.142-.275.213-.575.213-.9 0-.542-.184-.975-.55-1.3-.358-.333-.838-.5-1.438-.5-.625 0-1.108.175-1.45.525a2.47 2.47 0 0 0-.662 1.25l-.95-.212c.083-.409.246-.796.487-1.163.242-.375.58-.68 1.013-.912.433-.242.954-.363 1.562-.363.584 0 1.096.113 1.538.337.45.225.796.542 1.037.95.25.4.375.859.375 1.376 0 .45-.096.866-.287 1.25a3.978 3.978 0 0 1-.675.987c-.267.275-.604.588-1.013.938l-2.65 2.3h4.688v.862h-6.088Zm9.16 0v-7.625l-1.95 1.288v-1.038l2.113-1.425h.8v8.8h-.962Zm8.267.087c-.575 0-.992-.137-1.25-.412-.25-.283-.375-.67-.375-1.163v-4h-1.063v-.8H72.3v-1.587h.925v1.587h1.4v.8h-1.4v3.95c0 .3.07.509.212.625.142.117.37.175.688.175.141 0 .308-.012.5-.037v.775a3.21 3.21 0 0 1-.7.087Zm2.093-.087v-6.288h.924v1.138c.167-.367.4-.654.7-.862a1.766 1.766 0 0 1 1.238-.313c.05 0 .104.008.163.025v.875a2.061 2.061 0 0 0-.338-.025c-.533 0-.962.196-1.287.587-.317.384-.476.9-.476 1.55v3.313h-.924Zm5.96.175c-.467 0-.863-.088-1.188-.263a1.83 1.83 0 0 1-.712-.712 1.985 1.985 0 0 1-.238-.962c0-.6.234-1.071.7-1.413.475-.342 1.138-.513 1.988-.513h1.6v-.625c0-.391-.142-.716-.425-.975-.284-.258-.671-.387-1.163-.387-.45 0-.812.112-1.087.337-.275.226-.471.538-.588.938l-.9-.175c.1-.417.271-.767.513-1.05.241-.292.541-.508.9-.65a3.239 3.239 0 0 1 1.2-.212c.5 0 .933.091 1.3.275.375.174.662.429.862.762.2.325.3.704.3 1.137v4.313h-.912v-1.163a2.509 2.509 0 0 1-.863.975c-.358.242-.787.363-1.287.363Zm.212-.788c.392 0 .734-.095 1.025-.287.292-.192.513-.446.663-.763a2.26 2.26 0 0 0 .237-1.025v-.312h-1.462c-.609 0-1.075.104-1.4.313a1.001 1.001 0 0 0-.475.887c0 .367.129.658.387.875.267.208.609.313 1.025.313Zm4.814.613v-6.288h.925v1.038c.225-.383.52-.683.887-.9.367-.225.796-.337 1.288-.337.7 0 1.246.225 1.637.675.392.441.588 1.054.588 1.837v3.975h-.938v-3.837c0-.609-.129-1.067-.387-1.376-.25-.308-.63-.462-1.138-.462-.375 0-.708.1-1 .3-.291.2-.52.483-.687.85-.167.358-.25.78-.25 1.263v3.262h-.925Zm9.45.2c-.708 0-1.304-.18-1.788-.538-.475-.358-.791-.845-.95-1.462l.888-.212c.125.441.35.791.675 1.05.325.258.72.387 1.187.387.5 0 .892-.108 1.175-.325.284-.217.425-.492.425-.825 0-.267-.091-.467-.275-.6-.175-.142-.495-.27-.962-.388a3.958 3.958 0 0 1-.263-.062 2.4 2.4 0 0 0-.262-.063c-.533-.1-.963-.22-1.288-.362-.325-.142-.575-.325-.75-.55-.166-.233-.25-.533-.25-.9s.1-.692.3-.975c.2-.283.48-.496.838-.637.367-.15.78-.225 1.237-.225.659 0 1.184.158 1.575.475.4.308.684.733.85 1.275l-.825.237c-.125-.383-.32-.68-.587-.887-.258-.217-.596-.325-1.013-.325-.433 0-.783.095-1.05.287-.258.192-.387.433-.387.725 0 .258.112.454.337.587.225.134.613.263 1.163.388a2.3 2.3 0 0 1 .112.025l.1.025c.559.108 1 .233 1.325.375.334.142.584.333.75.575.175.242.263.563.263.963 0 .375-.104.712-.313 1.012-.2.292-.491.525-.875.7-.383.167-.837.25-1.362.25Zm5.971-.025c-.467 0-.863-.088-1.188-.263a1.824 1.824 0 0 1-.712-.712 1.978 1.978 0 0 1-.238-.962c0-.6.233-1.071.7-1.413.475-.342 1.138-.513 1.988-.513h1.6v-.625c0-.391-.142-.716-.425-.975-.284-.258-.671-.387-1.163-.387-.45 0-.812.112-1.087.337-.275.226-.471.538-.588.938l-.9-.175c.1-.417.271-.767.513-1.05a2.19 2.19 0 0 1 .9-.65 3.236 3.236 0 0 1 1.2-.212c.5 0 .933.091 1.3.275.375.174.662.429.862.762.2.325.3.704.3 1.137v4.313h-.912v-1.163a2.513 2.513 0 0 1-.863.975c-.358.242-.787.363-1.287.363Zm.212-.788c.392 0 .733-.095 1.025-.287.292-.192.513-.446.663-.763.158-.316.237-.658.237-1.025v-.312H103.1c-.609 0-1.075.104-1.4.313a1 1 0 0 0-.475.887c0 .367.129.658.387.875.267.208.608.313 1.025.313Zm7.489.813c-.617 0-1.163-.142-1.638-.425a2.986 2.986 0 0 1-1.087-1.188c-.259-.508-.388-1.087-.388-1.737 0-.642.125-1.212.375-1.712a2.881 2.881 0 0 1 1.088-1.188c.475-.292 1.02-.438 1.637-.438.467 0 .888.088 1.263.263.375.175.687.42.937.738.25.316.425.687.525 1.112l-.875.188a2.022 2.022 0 0 0-.65-1.063c-.308-.275-.708-.413-1.2-.413-.442 0-.825.113-1.15.338a2.132 2.132 0 0 0-.737.9c-.167.375-.25.8-.25 1.275 0 .475.083.904.25 1.288.175.383.42.683.737.9.325.216.708.325 1.15.325.483 0 .883-.134 1.2-.4.325-.267.546-.613.663-1.038l.875.162c-.1.417-.275.788-.525 1.113-.242.317-.55.563-.925.737a2.98 2.98 0 0 1-1.275.263Zm6.108-.113c-.575 0-.991-.137-1.25-.412-.25-.283-.375-.67-.375-1.163v-4h-1.062v-.8h1.062v-1.587h.925v1.587h1.4v.8h-1.4v3.95c0 .3.071.509.213.625.141.117.371.175.687.175.142 0 .309-.012.5-.037v.775a3.203 3.203 0 0 1-.7.087Zm2.019-.087v-6.288h.938v6.288h-.938Zm.475-7.337a.663.663 0 0 1-.487-.2.661.661 0 0 1-.2-.488.66.66 0 0 1 .2-.487.663.663 0 0 1 .487-.2c.192 0 .354.066.488.2.133.133.2.295.2.487a.665.665 0 0 1-.2.487.665.665 0 0 1-.488.2Zm5.179 7.537c-.6 0-1.133-.142-1.6-.425a2.992 2.992 0 0 1-1.1-1.175c-.267-.508-.4-1.087-.4-1.737 0-.65.129-1.23.388-1.738a2.963 2.963 0 0 1 1.1-1.188c.475-.283 1.016-.425 1.625-.425.6 0 1.129.142 1.587.425.467.284.829.68 1.088 1.188.258.508.387 1.087.387 1.738 0 .65-.129 1.229-.387 1.737-.259.5-.621.892-1.088 1.175-.458.283-.992.425-1.6.425Zm0-.825c.433 0 .808-.1 1.125-.3.317-.2.558-.488.725-.863.175-.383.263-.833.263-1.35 0-.516-.088-.966-.263-1.35a1.893 1.893 0 0 0-.725-.874c-.317-.209-.692-.313-1.125-.313a2.06 2.06 0 0 0-1.137.313 2.048 2.048 0 0 0-.738.887c-.175.375-.262.82-.262 1.338 0 .508.087.954.262 1.337.175.375.421.667.738.875.325.2.704.3 1.137.3Zm4.711.625v-6.288h.925v1.038a2.48 2.48 0 0 1 .887-.9c.367-.225.796-.337 1.288-.337.7 0 1.245.225 1.637.675.392.441.588 1.054.588 1.837v3.975h-.938v-3.837c0-.609-.129-1.067-.387-1.376-.25-.308-.63-.462-1.138-.462-.375 0-.708.1-1 .3a2 2 0 0 0-.687.85c-.167.358-.25.78-.25 1.263v3.262h-.925Zm9.45.2c-.709 0-1.304-.18-1.788-.538-.475-.358-.791-.845-.95-1.462l.888-.212c.125.441.35.791.675 1.05.325.258.721.387 1.187.387.5 0 .892-.108 1.175-.325.284-.217.425-.492.425-.825 0-.267-.091-.467-.275-.6-.175-.142-.496-.27-.962-.388a3.911 3.911 0 0 1-.263-.062 2.413 2.413 0 0 0-.262-.063c-.534-.1-.963-.22-1.288-.362-.325-.142-.575-.325-.75-.55-.166-.233-.25-.533-.25-.9s.1-.692.3-.975c.2-.283.479-.496.838-.637.366-.15.779-.225 1.237-.225.659 0 1.184.158 1.575.475.4.308.684.733.85 1.275l-.825.237c-.125-.383-.321-.68-.587-.887-.259-.217-.596-.325-1.013-.325-.433 0-.783.095-1.05.287-.258.192-.387.433-.387.725 0 .258.112.454.337.587.225.134.613.263 1.163.388a2.38 2.38 0 0 1 .212.05c.559.108 1 .233 1.325.375.334.142.584.333.75.575.175.242.263.563.263.963 0 .375-.104.712-.313 1.012-.2.292-.491.525-.875.7-.383.167-.837.25-1.362.25ZM274.134 44.772v-.862l3.525-3.063c.333-.292.6-.546.8-.763.208-.216.383-.462.525-.737.141-.275.212-.575.212-.9 0-.542-.183-.975-.55-1.3-.358-.333-.837-.5-1.437-.5-.625 0-1.109.175-1.45.525-.342.35-.563.767-.663 1.25l-.95-.212c.083-.409.246-.796.488-1.163a2.69 2.69 0 0 1 1.012-.912c.433-.242.954-.363 1.563-.363.583 0 1.095.113 1.537.337.45.225.796.542 1.038.95.25.4.375.859.375 1.376 0 .45-.096.866-.288 1.25a3.962 3.962 0 0 1-.675.987c-.267.275-.604.588-1.012.938l-2.65 2.3h4.687v.862h-6.087Zm10.975.2c-.758 0-1.396-.2-1.912-.6-.517-.4-.904-.946-1.163-1.638-.25-.7-.375-1.5-.375-2.4 0-.875.129-1.654.388-2.337.258-.692.641-1.233 1.15-1.625.516-.4 1.154-.6 1.912-.6.742 0 1.367.2 1.875.6.517.392.9.933 1.15 1.625.259.692.388 1.47.388 2.337 0 .9-.125 1.7-.375 2.4-.242.692-.621 1.238-1.138 1.638-.508.4-1.141.6-1.9.6Zm0-.9c.784 0 1.388-.32 1.813-.963.425-.65.637-1.575.637-2.775 0-1.158-.216-2.058-.65-2.7-.433-.65-1.033-.974-1.8-.974-.775 0-1.383.325-1.825.975-.433.641-.65 1.541-.65 2.7 0 1.191.217 2.112.65 2.762.434.65 1.042.975 1.825.975Zm4.95.8a.678.678 0 0 1-.5-.2.676.676 0 0 1-.2-.5c0-.183.066-.342.2-.475.133-.133.3-.2.5-.2.183 0 .337.067.462.2a.65.65 0 0 1 .2.475.68.68 0 0 1-.2.5.608.608 0 0 1-.462.2Zm5.619-.1v-2.237h-4.275v-.825l4.35-5.738h.875v5.688h1.4v.875h-1.4v2.237h-.95Zm-3.237-3.112h3.237v-4.238l-3.237 4.238Zm7.536 3.112 5.188-8.8h.837l-5.187 8.8h-.838Zm5.2.087c-.325 0-.629-.079-.912-.237a1.736 1.736 0 0 1-.65-.65 1.834 1.834 0 0 1-.238-.913c0-.325.079-.62.238-.887.158-.275.375-.492.65-.65.283-.158.587-.237.912-.237a1.772 1.772 0 0 1 1.55.887 1.7 1.7 0 0 1 .238.888c0 .325-.079.629-.238.912a1.773 1.773 0 0 1-1.55.887Zm0-.737c.284 0 .525-.1.725-.3.209-.208.313-.463.313-.763a.98.98 0 0 0-.313-.737.967.967 0 0 0-.725-.313c-.283 0-.529.105-.737.313-.2.2-.3.446-.3.737 0 .3.1.555.3.763.208.2.454.3.737.3Zm-4.325-4.612c-.325 0-.629-.08-.912-.238a1.736 1.736 0 0 1-.65-.65 1.834 1.834 0 0 1-.238-.913c0-.325.079-.62.238-.887.158-.275.375-.492.65-.65.283-.158.587-.237.912-.237a1.772 1.772 0 0 1 1.55.887 1.7 1.7 0 0 1 .238.887c0 .325-.079.63-.238.913a1.773 1.773 0 0 1-1.55.888Zm0-.738c.284 0 .525-.1.725-.3.209-.208.313-.462.313-.763a.98.98 0 0 0-.313-.737.967.967 0 0 0-.725-.313c-.283 0-.529.105-.737.313-.2.2-.3.446-.3.737 0 .3.1.555.3.763.208.2.454.3.737.3Z"/></g><g><rect width="321" height="56.175" y="65.175" fill="#fff" rx="5.333"/><rect width="33.33" height="33.33" x="11.845" y="76.281" fill="#326887" fill-opacity="0.2" rx="3.333"/><g><path fill="#326887" fill-rule="evenodd" d="M35.336 100.731h-12.86c-.59 0-1.075-.496-1.075-1.1v-7.72h15.01v7.72c0 .604-.485 1.1-1.075 1.1m-12.86-13.285h2.361v.863c0 .345.274.625.612.625.337 0 .611-.28.611-.625v-.863h5.671v.863c0 .345.274.625.611.625.338 0 .612-.28.612-.625v-.863h2.361c.59 0 1.075.496 1.075 1.1v2.092H21.4v-2.092c0-.604.486-1.1 1.076-1.1m12.86-1.25h-2.361v-1.79a.619.619 0 0 0-.611-.626.619.619 0 0 0-.612.625v1.79H26.06v-1.79a.619.619 0 0 0-.611-.625.619.619 0 0 0-.612.625v1.79h-2.361c-1.265 0-2.298 1.057-2.298 2.351v11.085c0 1.294 1.033 2.351 2.298 2.351h12.86c1.265 0 2.298-1.057 2.298-2.35V88.545c0-1.294-1.033-2.35-2.298-2.35" clip-rule="evenodd"/><path stroke="#326887" stroke-linecap="round" stroke-linejoin="round" stroke-width="1.25" d="m26.01 96.032 1.836 1.913 3.997-4.166"/></g><path fill="#1E1937" d="M56.88 90.28v-9.973h4.717c.586 0 1.096.114 1.53.34.435.227.76.538.978.935.226.387.34.822.34 1.303 0 .492-.123.926-.369 1.304-.245.378-.58.661-1.005.85.547.18.972.486 1.275.92.311.435.467.945.467 1.53 0 .53-.123 1.007-.368 1.431a2.65 2.65 0 0 1-1.034 1.006c-.444.236-.964.355-1.559.355H56.88Zm4.632-1.317c.539 0 .954-.142 1.247-.425.302-.293.453-.685.453-1.176 0-.481-.15-.869-.453-1.161-.293-.293-.704-.44-1.233-.44h-3.074v3.202h3.06Zm-.17-4.42c.491 0 .874-.132 1.148-.397.274-.273.41-.632.41-1.076 0-.444-.141-.798-.424-1.063-.274-.264-.661-.397-1.162-.397h-2.862v2.933h2.89Zm5.23 5.737v-7.182h1.515v7.183h-1.516Zm.764-8.216a.992.992 0 0 1-1.006-1.006.992.992 0 0 1 1.006-1.006c.274 0 .51.1.709.298a.967.967 0 0 1 .297.708c0 .274-.1.51-.297.708a.967.967 0 0 1-.709.298Zm2.76 8.217V80.01h1.502v10.27h-1.502Zm3.404 0V80.01H75v10.27H73.5Zm6.109.226c-.85 0-1.554-.198-2.111-.595-.548-.406-.907-.954-1.077-1.643l1.403-.34c.123.434.335.774.637 1.02.312.245.7.368 1.162.368.463 0 .826-.094 1.09-.283.265-.199.398-.444.398-.737 0-.255-.095-.444-.284-.566-.18-.123-.52-.246-1.02-.369l-.255-.056a12.282 12.282 0 0 0-.269-.057c-.595-.132-1.077-.279-1.445-.44-.368-.16-.652-.377-.85-.651-.189-.274-.283-.628-.283-1.063 0-.443.118-.83.354-1.161.236-.34.567-.6.992-.78.434-.188.93-.283 1.487-.283.775 0 1.398.175 1.87.525.472.349.803.835.992 1.459l-1.346.368c-.123-.368-.307-.652-.553-.85-.245-.208-.562-.312-.949-.312-.397 0-.722.085-.977.255-.246.17-.369.392-.369.666 0 .246.109.43.326.553.227.113.628.236 1.204.368.038 0 .071.005.1.014.028.01.06.02.099.028.642.133 1.152.28 1.53.44.377.16.665.382.864.665.208.274.312.643.312 1.106 0 .462-.123.873-.369 1.232-.245.35-.595.623-1.048.822-.454.198-.992.297-1.615.297ZM259.849 90.45a4.34 4.34 0 0 1-.949-.085 6.874 6.874 0 0 1-.808-.212 3.6 3.6 0 0 0-.609-.17 2.566 2.566 0 0 0-.581-.057c-.33 0-.628.033-.892.1-.265.056-.52.136-.765.24l-.099.057-.567-1.19c.595-.33 1.034-.666 1.318-1.006.292-.35.439-.727.439-1.133 0-.18-.024-.35-.071-.51a2.111 2.111 0 0 0-.213-.482h-1.657v-1.161h1.062a5.13 5.13 0 0 1-.297-.765 3.692 3.692 0 0 1-.099-.893c0-.623.141-1.166.425-1.63a2.869 2.869 0 0 1 1.246-1.09c.539-.255 1.167-.382 1.885-.382.67 0 1.246.127 1.728.382s.855.6 1.119 1.034c.274.425.458.902.553 1.431l-1.488.383c-.094-.52-.302-.95-.623-1.29-.312-.35-.756-.524-1.332-.524-.595 0-1.067.16-1.417.482-.349.311-.524.741-.524 1.289 0 .283.043.543.128.78.085.235.203.5.354.793h2.819v1.161h-2.38c.028.066.052.132.071.199.028.066.052.137.071.212.047.16.071.33.071.51 0 .623-.199 1.204-.595 1.742a3.16 3.16 0 0 1 .354-.014c.236 0 .444.02.623.057.189.028.373.076.553.142.16.056.316.099.467.127.161.028.331.043.51.043.274 0 .501-.057.68-.17.179-.114.307-.312.383-.595l1.388.41c-.113.558-.368.997-.765 1.318-.387.312-.893.468-1.516.468Zm7.142.043c-.652 0-1.228-.109-1.729-.326a3.16 3.16 0 0 1-1.19-.878 3.416 3.416 0 0 1-.651-1.261l1.374-.496c.151.472.401.855.751 1.148.358.292.826.439 1.402.439.633 0 1.143-.16 1.53-.482.387-.33.581-.765.581-1.303 0-.529-.194-.935-.581-1.219-.378-.283-.897-.424-1.558-.424h-.694v-1.276h.68c.585 0 1.034-.136 1.345-.41a1.37 1.37 0 0 0 .482-1.077c0-.453-.165-.807-.496-1.063-.321-.264-.746-.396-1.275-.396-.519 0-.939.132-1.261.397-.321.264-.557.628-.708 1.09l-1.36-.467c.236-.746.633-1.332 1.19-1.757.557-.434 1.285-.651 2.182-.651.68 0 1.265.122 1.756.368.492.236.86.562 1.105.977.255.416.383.874.383 1.374 0 .454-.109.865-.326 1.233-.217.368-.543.67-.977.907.576.226 1.001.552 1.275.977.283.425.425.916.425 1.474 0 .585-.147 1.114-.44 1.586-.283.472-.703.846-1.26 1.12-.548.264-1.2.396-1.955.396Zm9.106.014c-.765 0-1.441-.175-2.026-.524-.586-.35-1.049-.897-1.389-1.643-.34-.756-.51-1.71-.51-2.862 0-1.124.161-2.087.482-2.89.321-.812.784-1.43 1.388-1.856.614-.434 1.346-.651 2.196-.651.86 0 1.563.23 2.111.694.548.453.949 1.081 1.204 1.884l-1.558.311c-.151-.462-.373-.826-.666-1.09-.293-.265-.675-.397-1.147-.397-.709 0-1.275.293-1.7.878-.416.576-.652 1.483-.709 2.72a2.992 2.992 0 0 1 1.119-1.02 3.392 3.392 0 0 1 1.587-.368c.623 0 1.185.137 1.686.41.5.275.892.667 1.176 1.177.293.5.439 1.076.439 1.728 0 .68-.165 1.285-.496 1.813a3.388 3.388 0 0 1-1.332 1.247 3.979 3.979 0 0 1-1.855.44Zm0-1.332a2.06 2.06 0 0 0 1.09-.283c.322-.189.567-.444.737-.765.18-.32.269-.684.269-1.09 0-.407-.085-.77-.255-1.092a1.847 1.847 0 0 0-.722-.75 2.066 2.066 0 0 0-1.091-.284c-.416 0-.784.095-1.105.284-.312.18-.557.43-.737.75-.17.312-.255.671-.255 1.077 0 .397.085.76.255 1.091.17.33.411.59.723.78a2.06 2.06 0 0 0 1.091.282Zm6.274 1.106 3.754-8.586h-5.539v-1.388h7.14v1.388l-3.768 8.586h-1.587Zm5.496.113c-.293 0-.539-.095-.737-.284a1.026 1.026 0 0 1-.283-.736c0-.265.094-.491.283-.68a1 1 0 0 1 .737-.298c.264 0 .491.1.68.298a.906.906 0 0 1 .297.68c0 .293-.099.538-.297.737a.928.928 0 0 1-.68.283Zm5.359.113c-.859 0-1.568-.227-2.125-.68-.548-.463-.949-1.095-1.204-1.898l1.558-.312c.151.463.373.827.666 1.091.293.264.675.397 1.148.397.708 0 1.27-.288 1.685-.865.425-.585.666-1.496.723-2.734a2.954 2.954 0 0 1-1.133 1.02 3.305 3.305 0 0 1-1.573.369 3.507 3.507 0 0 1-1.686-.411 3.063 3.063 0 0 1-1.19-1.162c-.283-.51-.425-1.09-.425-1.742 0-.68.165-1.285.496-1.814.331-.529.774-.94 1.332-1.232a3.91 3.91 0 0 1 1.87-.454c.755 0 1.426.175 2.011.525.586.35 1.049.902 1.389 1.657.34.746.51 1.695.51 2.848 0 1.124-.161 2.092-.482 2.904-.312.803-.774 1.421-1.388 1.856-.614.425-1.341.637-2.182.637Zm.099-4.83c.416 0 .779-.09 1.091-.27a1.94 1.94 0 0 0 .737-.75c.179-.322.269-.685.269-1.091 0-.397-.085-.76-.255-1.091-.17-.33-.411-.59-.723-.78a2.06 2.06 0 0 0-1.09-.283c-.416 0-.784.095-1.105.283a1.94 1.94 0 0 0-.723.766c-.17.32-.255.684-.255 1.09s.08.77.241 1.091c.17.321.411.576.722.765.321.18.685.27 1.091.27Zm9.571 4.83c-.869 0-1.606-.217-2.21-.651-.595-.444-1.048-1.058-1.36-1.842-.302-.784-.453-1.7-.453-2.748 0-1.03.155-1.932.467-2.706.312-.784.765-1.393 1.36-1.828.605-.434 1.332-.651 2.182-.651.85 0 1.572.217 2.167.651.595.435 1.044 1.044 1.346 1.828.312.784.468 1.686.468 2.706 0 1.048-.152 1.969-.454 2.762-.302.784-.751 1.393-1.346 1.828-.595.434-1.317.651-2.167.651Zm0-1.416c.755 0 1.341-.336 1.757-1.006.425-.67.637-1.61.637-2.82 0-1.18-.212-2.1-.637-2.762-.425-.67-1.016-1.006-1.771-1.006-.765 0-1.365.335-1.799 1.006-.425.661-.638 1.582-.638 2.763 0 1.208.217 2.148.652 2.819.434.67 1.034 1.006 1.799 1.006Z"/><path fill="#776D89" d="m58.098 109.947 3.488-7.937h-5.25v-.863h6.25v.863l-3.488 7.937h-1Zm10.823.088c-.575 0-.991-.138-1.25-.413-.25-.283-.375-.671-.375-1.162v-4h-1.062v-.8h1.062v-1.588h.925v1.588h1.4v.8h-1.4v3.95c0 .3.071.508.213.625.142.116.37.175.687.175.142 0 .309-.013.5-.038v.775a3.17 3.17 0 0 1-.7.088Zm2.093-.088v-6.287h.925v1.137c.167-.366.4-.654.7-.862a1.764 1.764 0 0 1 1.238-.313.62.62 0 0 1 .162.025v.875a2.142 2.142 0 0 0-.337-.025c-.534 0-.963.196-1.288.588-.316.383-.475.9-.475 1.55v3.312h-.925Zm5.96.175c-.466 0-.862-.087-1.187-.262a1.832 1.832 0 0 1-.712-.713 1.98 1.98 0 0 1-.238-.962c0-.6.233-1.071.7-1.413.475-.341 1.138-.512 1.988-.512h1.6v-.625c0-.392-.142-.717-.425-.975-.284-.259-.671-.388-1.163-.388-.45 0-.812.113-1.087.338-.275.225-.471.537-.588.937l-.9-.175c.1-.416.27-.766.513-1.05.241-.291.541-.508.9-.65a3.252 3.252 0 0 1 1.2-.212c.5 0 .933.091 1.3.275.375.175.662.429.862.762.2.325.3.704.3 1.138v4.312h-.912v-1.162a2.515 2.515 0 0 1-.863.975c-.358.241-.787.362-1.287.362Zm.213-.787c.392 0 .733-.096 1.025-.288.292-.191.513-.446.663-.762.158-.317.237-.659.237-1.025v-.313H77.65c-.609 0-1.075.104-1.4.313a1 1 0 0 0-.475.887c0 .367.129.659.387.875.267.209.608.313 1.025.313Zm4.814.612v-6.287h.925v1.037a2.49 2.49 0 0 1 .887-.9c.367-.225.796-.337 1.288-.337.7 0 1.246.225 1.637.675.392.441.588 1.054.588 1.837v3.975h-.938v-3.837c0-.609-.129-1.067-.387-1.375-.25-.309-.63-.463-1.138-.463-.375 0-.708.1-1 .3-.291.2-.52.484-.687.85-.167.359-.25.779-.25 1.263v3.262H82Zm9.45.2c-.709 0-1.304-.179-1.788-.537-.475-.359-.791-.846-.95-1.463l.888-.212c.125.441.35.791.675 1.05.325.258.72.387 1.187.387.5 0 .892-.108 1.175-.325.284-.216.425-.491.425-.825 0-.266-.091-.466-.275-.6-.175-.141-.496-.271-.962-.387a4.173 4.173 0 0 1-.263-.063 2.27 2.27 0 0 0-.262-.062c-.534-.1-.963-.221-1.288-.363-.325-.141-.575-.325-.75-.55-.166-.233-.25-.533-.25-.9 0-.366.1-.691.3-.975.2-.283.48-.496.838-.637.366-.15.779-.225 1.237-.225.659 0 1.184.158 1.575.475.4.308.684.733.85 1.275l-.825.237c-.125-.383-.32-.679-.587-.887-.259-.217-.596-.325-1.013-.325-.433 0-.783.096-1.05.287-.258.192-.387.434-.387.725 0 .259.112.454.337.588.225.133.613.262 1.163.387l.112.025.1.025c.559.109 1 .234 1.325.375.334.142.584.334.75.575.175.242.263.563.263.963 0 .375-.104.712-.313 1.012-.2.292-.491.525-.875.7-.383.167-.837.25-1.362.25Zm5.97-.025c-.466 0-.862-.087-1.187-.262a1.833 1.833 0 0 1-.713-.713 1.981 1.981 0 0 1-.237-.962c0-.6.233-1.071.7-1.413.475-.341 1.137-.512 1.987-.512h1.6v-.625c0-.392-.141-.717-.425-.975-.283-.259-.67-.388-1.162-.388-.45 0-.813.113-1.088.338-.275.225-.47.537-.587.937l-.9-.175c.1-.416.27-.766.512-1.05.242-.291.542-.508.9-.65a3.253 3.253 0 0 1 1.2-.212c.5 0 .934.091 1.3.275.375.175.663.429.863.762.2.325.3.704.3 1.138v4.312h-.913v-1.162a2.513 2.513 0 0 1-.862.975c-.359.241-.788.362-1.288.362Zm.213-.787c.391 0 .733-.096 1.025-.288.291-.191.512-.446.662-.762.159-.317.238-.659.238-1.025v-.313h-1.463c-.608 0-1.075.104-1.4.313a1 1 0 0 0-.475.887c0 .367.13.659.388.875.267.209.608.313 1.025.313Zm7.488.812c-.616 0-1.162-.141-1.637-.425a2.99 2.99 0 0 1-1.088-1.187c-.258-.509-.387-1.088-.387-1.738 0-.641.125-1.212.375-1.712a2.887 2.887 0 0 1 1.087-1.188c.475-.291 1.021-.437 1.638-.437.467 0 .887.087 1.262.262.375.175.688.421.938.738a2.8 2.8 0 0 1 .525 1.112l-.875.188a2.023 2.023 0 0 0-.65-1.063c-.308-.275-.708-.412-1.2-.412-.442 0-.825.112-1.15.337a2.139 2.139 0 0 0-.738.9c-.166.375-.25.8-.25 1.275 0 .475.084.904.25 1.288.175.383.421.683.738.9.325.216.708.325 1.15.325.483 0 .883-.134 1.2-.4.325-.267.546-.613.662-1.038l.875.163c-.1.416-.275.787-.525 1.112-.241.317-.55.563-.925.738a2.98 2.98 0 0 1-1.275.262Zm6.109-.112c-.575 0-.992-.138-1.25-.413-.25-.283-.375-.671-.375-1.162v-4h-1.062v-.8h1.062v-1.588h.925v1.588h1.4v.8h-1.4v3.95c0 .3.071.508.213.625.141.116.37.175.687.175.142 0 .308-.013.5-.038v.775a3.17 3.17 0 0 1-.7.088Zm2.019-.088v-6.287h.938v6.287h-.938Zm.475-7.337a.662.662 0 0 1-.487-.2.662.662 0 0 1-.2-.488.66.66 0 0 1 .2-.487.659.659 0 0 1 .487-.2c.192 0 .354.066.488.2.133.133.2.296.2.487a.666.666 0 0 1-.2.488.666.666 0 0 1-.488.2Zm5.179 7.537c-.6 0-1.133-.141-1.6-.425a2.989 2.989 0 0 1-1.1-1.175c-.267-.508-.4-1.087-.4-1.737 0-.65.129-1.229.387-1.738a2.976 2.976 0 0 1 1.1-1.187c.475-.284 1.017-.425 1.625-.425.6 0 1.13.141 1.588.425.467.283.829.679 1.087 1.187.259.509.388 1.088.388 1.738 0 .65-.129 1.229-.388 1.737-.258.5-.62.892-1.087 1.175-.458.284-.992.425-1.6.425Zm0-.825c.433 0 .808-.1 1.125-.3a1.9 1.9 0 0 0 .725-.862c.175-.384.262-.834.262-1.35 0-.517-.087-.967-.262-1.35a1.89 1.89 0 0 0-.725-.875c-.317-.209-.692-.313-1.125-.313-.433 0-.813.104-1.138.313a2.052 2.052 0 0 0-.737.887c-.175.375-.263.821-.263 1.338 0 .508.088.954.263 1.337.175.375.421.667.737.875.325.2.705.3 1.138.3Zm4.71.625v-6.287h.925v1.037c.225-.383.521-.683.888-.9.367-.225.796-.337 1.287-.337.7 0 1.246.225 1.638.675.392.441.587 1.054.587 1.837v3.975h-.937v-3.837c0-.609-.129-1.067-.388-1.375-.25-.309-.629-.463-1.137-.463-.375 0-.708.1-1 .3-.292.2-.521.484-.688.85-.166.359-.25.779-.25 1.263v3.262h-.925Zm9.451.2c-.709 0-1.305-.179-1.788-.537-.475-.359-.792-.846-.95-1.463l.888-.212c.125.441.35.791.675 1.05.325.258.72.387 1.187.387.5 0 .892-.108 1.175-.325.283-.216.425-.491.425-.825 0-.266-.092-.466-.275-.6-.175-.141-.496-.271-.962-.387a4.119 4.119 0 0 1-.263-.063 2.28 2.28 0 0 0-.262-.062c-.534-.1-.963-.221-1.288-.363-.325-.141-.575-.325-.75-.55-.167-.233-.25-.533-.25-.9 0-.366.1-.691.3-.975.2-.283.479-.496.838-.637.366-.15.779-.225 1.237-.225.658 0 1.183.158 1.575.475.4.308.683.733.85 1.275l-.825.237c-.125-.383-.321-.679-.587-.887-.259-.217-.596-.325-1.013-.325-.433 0-.783.096-1.05.287-.258.192-.387.434-.387.725 0 .259.112.454.337.588.225.133.613.262 1.163.387l.112.025.1.025c.558.109 1 .234 1.325.375.333.142.583.334.75.575.175.242.263.563.263.963 0 .375-.105.712-.313 1.012-.2.292-.492.525-.875.7-.383.167-.837.25-1.362.25ZM278.57 109.947v-7.625l-1.95 1.288v-1.038l2.113-1.425h.8v8.8h-.963Zm6.867 0v-2.237h-4.275v-.825l4.35-5.738h.875v5.688h1.4v.875h-1.4v2.237h-.95Zm-3.238-3.112h3.238v-4.238l-3.238 4.238Zm7.03 3.212a.675.675 0 0 1-.5-.2.675.675 0 0 1-.2-.5c0-.183.066-.341.2-.475a.68.68 0 0 1 .5-.2.61.61 0 0 1 .462.2c.134.134.2.292.2.475 0 .2-.066.367-.2.5a.606.606 0 0 1-.462.2Zm4.938.1c-.758 0-1.396-.2-1.912-.6-.517-.4-.905-.946-1.163-1.637-.25-.7-.375-1.5-.375-2.4 0-.875.129-1.654.388-2.338.258-.691.641-1.233 1.15-1.625.516-.4 1.154-.6 1.912-.6.742 0 1.367.2 1.875.6.517.392.9.934 1.15 1.625.258.692.388 1.471.388 2.338 0 .9-.125 1.7-.375 2.4-.242.691-.621 1.237-1.138 1.637-.508.4-1.142.6-1.9.6Zm0-.9c.783 0 1.388-.321 1.813-.962.425-.65.637-1.575.637-2.775 0-1.159-.217-2.059-.65-2.7-.433-.65-1.033-.975-1.8-.975-.775 0-1.383.325-1.825.975-.433.641-.65 1.541-.65 2.7 0 1.191.217 2.112.65 2.762.433.65 1.042.975 1.825.975Zm5.81.7 5.188-8.8h.837l-5.187 8.8h-.838Zm5.2.088c-.325 0-.629-.079-.912-.238a1.733 1.733 0 0 1-.65-.65 1.842 1.842 0 0 1-.238-.912c0-.325.08-.621.238-.888a1.74 1.74 0 0 1 .65-.65c.283-.158.587-.237.912-.237a1.775 1.775 0 0 1 1.788 1.775c0 .325-.079.629-.238.912a1.733 1.733 0 0 1-.65.65 1.766 1.766 0 0 1-.9.238Zm0-.738c.284 0 .525-.1.725-.3.209-.208.313-.462.313-.762a.98.98 0 0 0-.313-.738.968.968 0 0 0-.725-.312c-.283 0-.529.104-.737.312-.2.2-.3.446-.3.738 0 .3.1.554.3.762.208.2.454.3.737.3Zm-4.325-4.612c-.325 0-.629-.079-.912-.238a1.733 1.733 0 0 1-.65-.65 1.842 1.842 0 0 1-.238-.912c0-.325.08-.621.238-.888a1.74 1.74 0 0 1 .65-.65c.283-.158.587-.237.912-.237a1.775 1.775 0 0 1 1.788 1.775c0 .325-.079.629-.238.912a1.733 1.733 0 0 1-.65.65 1.766 1.766 0 0 1-.9.238Zm0-.738c.284 0 .525-.1.725-.3.209-.208.313-.462.313-.762a.98.98 0 0 0-.313-.738.968.968 0 0 0-.725-.312c-.283 0-.529.104-.737.312-.2.2-.3.446-.3.738 0 .3.1.554.3.762.208.2.454.3.737.3Z"/></g><g><rect width="321" height="56.175" y="130.351" fill="#fff" rx="5.333"/><rect width="33.333" height="33.333" x="11.845" y="141.456" fill="#D4005B" fill-opacity="0.2" rx="3.333"/><path stroke="#D4005B" stroke-linecap="round" stroke-linejoin="round" stroke-width="1.25" d="m35.64 157.864-1.768-1.767a3.727 3.727 0 0 0-2.652-1.1h-4.833c-.44 0-.846-.23-1.073-.606l-1.147-1.912a1.251 1.251 0 0 0-1.72-.412 1.253 1.253 0 0 0-.424 1.699l1.146 1.916a3.776 3.776 0 0 0 3.217 1.819h1.553l-.398 2.5h-1.946a3.73 3.73 0 0 0-3.482 2.354l-.625 1.554a1.25 1.25 0 1 0 2.326.928l.62-1.553c.189-.476.65-.788 1.161-.787h1.548l-.108.675a3.742 3.742 0 0 0 .574 2.726l.696 1.043a1.252 1.252 0 0 0 2.084-1.387l-.695-1.041a1.26 1.26 0 0 1-.189-.929l.97-6.083h.748c.333.001.65.132.885.366l1.768 1.768a1.251 1.251 0 0 0 1.767-1.768l-.004-.003ZM33.247 146.739a1.584 1.584 0 0 0-2.24-.055l-.054.055-.983 1.016-.98-1.016a1.584 1.584 0 0 0-2.294 0 1.717 1.717 0 0 0 0 2.371l2.926 3.026c.183.192.488.2.681.016l.016-.016 2.928-3.026a1.719 1.719 0 0 0 0-2.371Z" clip-rule="evenodd"/><path fill="#1E1937" d="M57.29 155.456v-9.974h1.559v8.585h5.143v1.389H57.29Zm8.253 0v-7.183h1.516v7.183h-1.516Zm.765-8.217a.994.994 0 0 1-1.006-1.006.99.99 0 0 1 1.006-1.006c.274 0 .51.1.709.298a.966.966 0 0 1 .297.708c0 .274-.099.51-.297.709a.968.968 0 0 1-.709.297Zm3.384 8.217v-5.936h-1.318v-1.247h1.318v-.921c0-.68.189-1.223.567-1.629.387-.415.963-.623 1.728-.623.255 0 .529.028.822.085v1.261a2.991 2.991 0 0 0-.553-.043c-.34 0-.595.085-.765.255-.17.17-.255.421-.255.751v.864h1.572v1.247h-1.572v5.936h-1.544Zm7.505.226c-.727 0-1.365-.16-1.912-.481a3.406 3.406 0 0 1-1.275-1.36c-.293-.586-.44-1.247-.44-1.984 0-.717.142-1.364.426-1.94a3.317 3.317 0 0 1 1.246-1.375c.548-.33 1.19-.495 1.927-.495.699 0 1.299.155 1.8.467.5.312.877.756 1.132 1.332.255.566.383 1.228.383 1.983 0 .142-.005.269-.014.383h-5.426c.047.736.26 1.294.637 1.671.378.369.888.553 1.53.553.482 0 .874-.114 1.176-.34.302-.227.558-.543.765-.949l1.219.453c-.284.671-.695 1.185-1.233 1.544-.538.359-1.185.538-1.94.538Zm1.814-4.533c-.038-.595-.222-1.048-.553-1.36-.321-.321-.75-.482-1.29-.482-.566 0-1.029.161-1.387.482-.36.312-.59.765-.695 1.36h3.925Zm5.74 4.533c-.85 0-1.553-.198-2.11-.595-.548-.406-.907-.953-1.077-1.643l1.402-.34c.123.435.336.775.638 1.02.311.246.699.368 1.161.368.463 0 .827-.094 1.091-.283.265-.198.397-.444.397-.737 0-.255-.095-.443-.284-.566-.179-.123-.519-.246-1.02-.369l-.254-.056a12.94 12.94 0 0 0-.27-.057c-.595-.132-1.076-.278-1.445-.439-.368-.161-.651-.378-.85-.652-.188-.274-.283-.628-.283-1.062 0-.444.118-.831.354-1.162.236-.34.567-.6.992-.779.434-.189.93-.283 1.487-.283.775 0 1.398.174 1.87.524.473.349.803.836.992 1.459l-1.346.368c-.123-.368-.307-.651-.552-.85-.246-.207-.562-.311-.95-.311-.396 0-.722.085-.977.255-.245.17-.368.392-.368.665 0 .246.108.43.325.553.227.113.629.236 1.205.368.037 0 .07.005.099.014.028.01.061.019.099.029.642.132 1.152.278 1.53.439.378.161.666.382.864.666.208.274.312.642.312 1.105 0 .463-.123.873-.368 1.232-.246.35-.596.624-1.049.822-.453.198-.992.297-1.615.297Zm7.023-.085c-.727 0-1.25-.17-1.572-.51-.321-.349-.482-.84-.482-1.473v-4.094h-1.147v-1.247h1.147v-1.856h1.516v1.856h1.516v1.247h-1.516v4.023c0 .274.076.473.227.595.151.114.378.17.68.17.151 0 .35-.019.595-.056v1.218c-.33.085-.652.127-.963.127Zm5.394 2.777c-.746 0-1.388-.165-1.927-.496a2.392 2.392 0 0 1-1.076-1.402l1.388-.411c.132.34.34.6.624.779.292.18.642.269 1.048.269.378 0 .699-.071.963-.212a1.34 1.34 0 0 0 .595-.652c.142-.283.213-.633.213-1.048v-1.077a2.572 2.572 0 0 1-.935.949c-.388.227-.836.34-1.346.34-.794 0-1.412-.259-1.856-.779-.444-.519-.666-1.237-.666-2.153v-4.208h1.502v4.08c0 .576.123 1.016.368 1.318.255.293.628.439 1.12.439.358 0 .67-.094.934-.283.274-.189.487-.458.638-.808.16-.349.24-.755.24-1.218v-3.528h1.573v6.885c0 .661-.142 1.233-.425 1.714-.274.492-.67.865-1.19 1.12-.51.255-1.105.382-1.785.382Zm5.422-2.918v-10.271h1.501v10.271h-1.501Zm6.69.226c-.727 0-1.365-.16-1.913-.481a3.417 3.417 0 0 1-1.275-1.36c-.292-.586-.439-1.247-.439-1.984 0-.717.142-1.364.425-1.94a3.315 3.315 0 0 1 1.247-1.375c.548-.33 1.19-.495 1.926-.495.699 0 1.299.155 1.8.467.5.312.878.756 1.133 1.332.255.566.382 1.228.382 1.983 0 .142-.004.269-.014.383h-5.426c.048.736.26 1.294.638 1.671.378.369.888.553 1.53.553.482 0 .874-.114 1.176-.34.302-.227.557-.543.765-.949l1.218.453c-.283.671-.694 1.185-1.232 1.544-.539.359-1.186.538-1.941.538Zm1.813-4.533c-.038-.595-.222-1.048-.552-1.36-.321-.321-.751-.482-1.29-.482-.566 0-1.029.161-1.388.482-.359.312-.59.765-.694 1.36h3.924ZM264.857 155.626c-.387 0-.704-.029-.949-.085a6.748 6.748 0 0 1-.808-.213 3.657 3.657 0 0 0-.609-.17 2.616 2.616 0 0 0-.581-.056c-.33 0-.628.033-.892.099a4.15 4.15 0 0 0-.765.241l-.099.056-.567-1.19c.595-.33 1.034-.666 1.317-1.006.293-.349.44-.727.44-1.133 0-.179-.024-.349-.071-.51a2.134 2.134 0 0 0-.213-.482h-1.657v-1.161h1.062a5.13 5.13 0 0 1-.297-.765 3.698 3.698 0 0 1-.099-.893c0-.623.141-1.166.425-1.629a2.87 2.87 0 0 1 1.246-1.091c.539-.255 1.167-.382 1.884-.382.671 0 1.247.127 1.729.382.481.255.855.6 1.119 1.034.274.425.458.902.552 1.431l-1.487.383c-.094-.52-.302-.949-.623-1.289-.312-.35-.756-.525-1.332-.525-.595 0-1.067.161-1.417.482-.349.312-.524.742-.524 1.289 0 .284.043.543.128.779.085.237.203.501.354.794h2.819v1.161h-2.38c.028.067.052.133.071.199.028.066.052.137.071.212.047.161.07.331.07.51 0 .624-.198 1.204-.595 1.743.076-.01.194-.014.355-.014.236 0 .444.019.623.056.189.029.373.076.552.142.161.057.317.099.468.127.161.029.331.043.51.043.274 0 .501-.057.68-.17.179-.113.307-.312.382-.595l1.389.411c-.114.557-.369.996-.765 1.317-.387.312-.893.468-1.516.468Zm5.684-.17v-8.132l-2.224 1.473v-1.657l2.451-1.658h1.331v9.974h-1.558Zm5.506 0v-8.132l-2.224 1.473v-1.657l2.451-1.658h1.332v9.974h-1.559Zm7.107.226c-.859 0-1.568-.226-2.125-.68-.548-.462-.949-1.095-1.204-1.898l1.558-.312c.152.463.373.827.666 1.091.293.265.676.397 1.148.397.708 0 1.27-.288 1.686-.864.425-.586.665-1.497.722-2.734a2.96 2.96 0 0 1-1.133 1.02 3.31 3.31 0 0 1-1.573.368 3.505 3.505 0 0 1-1.686-.411 3.06 3.06 0 0 1-1.19-1.162c-.283-.51-.425-1.09-.425-1.742 0-.68.166-1.284.496-1.813.331-.529.775-.94 1.332-1.233a3.914 3.914 0 0 1 1.87-.453c.755 0 1.426.175 2.012.524.585.349 1.048.902 1.388 1.657.34.747.51 1.696.51 2.848 0 1.124-.161 2.092-.482 2.904-.311.803-.774 1.422-1.388 1.856-.614.425-1.341.637-2.182.637Zm.099-4.83c.416 0 .78-.09 1.091-.27.321-.188.567-.439.737-.75.179-.321.269-.685.269-1.091 0-.397-.085-.76-.255-1.091a1.918 1.918 0 0 0-.722-.779 2.065 2.065 0 0 0-1.091-.284c-.416 0-.784.095-1.105.284a1.941 1.941 0 0 0-.723.765c-.17.321-.255.685-.255 1.091 0 .406.081.769.241 1.09.17.322.411.577.723.765.321.18.684.27 1.09.27Zm5.789 4.717c-.292 0-.538-.094-.736-.283a1.029 1.029 0 0 1-.284-.737c0-.264.095-.491.284-.68a1 1 0 0 1 .736-.297c.265 0 .491.099.68.297a.905.905 0 0 1 .298.68 1 1 0 0 1-.298.737.926.926 0 0 1-.68.283Zm6.557-.113v-2.324h-4.718v-1.26l4.859-6.39h1.417v6.276h1.445v1.374h-1.445v2.324h-1.558Zm-3.032-3.698h3.032v-3.966l-3.032 3.966Zm10.662 3.924c-.643 0-1.209-.113-1.7-.34a3.482 3.482 0 0 1-1.219-.906 3.464 3.464 0 0 1-.666-1.275l1.516-.397c.151.463.406.827.765 1.091s.803.397 1.332.397c.652 0 1.171-.185 1.558-.553.388-.368.581-.873.581-1.516 0-.604-.189-1.086-.567-1.445-.377-.368-.883-.552-1.515-.552-.482 0-.883.099-1.205.297-.321.189-.58.406-.779.652l-1.402-.255.651-5.398h5.936v1.389h-4.576l-.325 2.677c.264-.198.566-.354.906-.467.35-.114.742-.17 1.176-.17.661 0 1.237.137 1.728.411.501.274.884.661 1.148 1.161.274.491.411 1.058.411 1.7 0 .69-.156 1.299-.468 1.828-.302.519-.736.93-1.303 1.232-.567.293-1.228.439-1.983.439Z"/><path fill="#776D89" d="M58.996 175.323a3.486 3.486 0 0 1-1.45-.288 2.867 2.867 0 0 1-1.05-.787 3.058 3.058 0 0 1-.587-1.113l.925-.25c.15.467.408.842.775 1.125.375.275.842.413 1.4.413.692 0 1.237-.192 1.637-.575.4-.392.6-.917.6-1.575 0-.634-.195-1.138-.587-1.513-.383-.383-.9-.575-1.55-.575-.525 0-.95.1-1.275.3-.325.2-.588.425-.788.675l-.862-.15.537-4.687h5.075v.862H57.56l-.338 2.875a3.201 3.201 0 0 1 2.075-.712c.584 0 1.096.125 1.538.375.45.241.796.583 1.037 1.025.242.441.363.945.363 1.512 0 .608-.133 1.142-.4 1.6a2.696 2.696 0 0 1-1.125 1.075c-.492.258-1.063.388-1.713.388Zm9.929-.113c-.575 0-.992-.137-1.25-.412-.25-.284-.375-.671-.375-1.163v-4h-1.063v-.8H67.3v-1.587h.925v1.587h1.4v.8h-1.4v3.95c0 .3.07.508.212.625.142.117.37.175.688.175.141 0 .308-.012.5-.037v.775a3.225 3.225 0 0 1-.7.087Zm2.093-.087v-6.288h.924v1.138c.167-.367.4-.655.7-.863a1.764 1.764 0 0 1 1.238-.312c.05 0 .104.008.163.025v.875a2.029 2.029 0 0 0-.338-.025c-.533 0-.962.195-1.287.587-.317.383-.476.9-.476 1.55v3.313h-.924Zm5.96.175c-.467 0-.863-.088-1.188-.263a1.83 1.83 0 0 1-.712-.712 1.988 1.988 0 0 1-.238-.963c0-.6.234-1.071.7-1.412.475-.342 1.138-.513 1.988-.513h1.6v-.625c0-.392-.142-.717-.425-.975-.284-.258-.671-.387-1.163-.387-.45 0-.812.112-1.087.337-.275.225-.471.538-.588.938l-.9-.175c.1-.417.271-.767.513-1.05a2.19 2.19 0 0 1 .9-.65 3.233 3.233 0 0 1 1.2-.213c.5 0 .933.092 1.3.275.375.175.662.429.862.763.2.325.3.704.3 1.137v4.313h-.912v-1.163a2.513 2.513 0 0 1-.863.975c-.358.242-.787.363-1.287.363Zm.212-.788c.392 0 .734-.096 1.025-.287.292-.192.513-.446.663-.763a2.26 2.26 0 0 0 .237-1.025v-.312h-1.462c-.609 0-1.075.104-1.4.312a1.001 1.001 0 0 0-.475.888c0 .366.129.658.387.875.267.208.609.312 1.025.312Zm4.814.613v-6.288h.925v1.038c.225-.384.52-.684.887-.9.367-.225.796-.338 1.288-.338.7 0 1.246.225 1.637.675.392.442.588 1.054.588 1.838v3.975h-.938v-3.838c0-.608-.129-1.067-.387-1.375-.25-.308-.63-.462-1.138-.462-.375 0-.708.1-1 .3-.291.2-.52.483-.687.85-.167.358-.25.779-.25 1.262v3.263h-.925Zm9.45.2c-.708 0-1.304-.18-1.788-.538-.475-.358-.791-.846-.95-1.462l.888-.213c.125.442.35.792.675 1.05.325.258.72.388 1.187.388.5 0 .892-.109 1.175-.325.284-.217.425-.492.425-.825 0-.267-.091-.467-.275-.6-.175-.142-.495-.271-.962-.388a4.14 4.14 0 0 1-.263-.062 2.495 2.495 0 0 0-.262-.063c-.533-.1-.963-.221-1.288-.362-.325-.142-.575-.325-.75-.55-.166-.234-.25-.534-.25-.9 0-.367.1-.692.3-.975.2-.284.48-.496.838-.638.367-.15.78-.225 1.237-.225.659 0 1.184.158 1.575.475.4.308.684.733.85 1.275l-.825.238c-.125-.384-.32-.68-.587-.888-.258-.217-.596-.325-1.013-.325-.433 0-.783.096-1.05.288-.258.191-.387.433-.387.725 0 .258.112.454.337.587.225.133.613.263 1.163.388.042.008.08.016.112.025l.1.025c.559.108 1 .233 1.325.375.334.141.584.333.75.575.175.241.263.562.263.962 0 .375-.104.713-.313 1.013-.2.291-.491.525-.875.7-.383.166-.837.25-1.362.25Zm5.97-.025c-.466 0-.862-.088-1.187-.263a1.83 1.83 0 0 1-.712-.712 1.988 1.988 0 0 1-.238-.963c0-.6.233-1.071.7-1.412.475-.342 1.138-.513 1.988-.513h1.6v-.625c0-.392-.142-.717-.425-.975-.284-.258-.671-.387-1.163-.387-.45 0-.813.112-1.087.337-.276.225-.471.538-.588.938l-.9-.175c.1-.417.27-.767.512-1.05a2.19 2.19 0 0 1 .9-.65 3.232 3.232 0 0 1 1.2-.213c.5 0 .934.092 1.3.275.376.175.663.429.863.763.2.325.3.704.3 1.137v4.313h-.912v-1.163a2.513 2.513 0 0 1-.863.975c-.358.242-.788.363-1.288.363Zm.213-.788c.392 0 .733-.096 1.025-.287.292-.192.512-.446.662-.763a2.26 2.26 0 0 0 .238-1.025v-.312H98.1c-.609 0-1.075.104-1.4.312a1.001 1.001 0 0 0-.475.888c0 .366.129.658.387.875.267.208.608.312 1.025.312Zm7.489.813c-.617 0-1.163-.142-1.638-.425a2.989 2.989 0 0 1-1.087-1.188c-.259-.508-.388-1.087-.388-1.737 0-.642.125-1.213.375-1.713a2.88 2.88 0 0 1 1.088-1.187c.475-.292 1.02-.438 1.637-.438.467 0 .888.088 1.263.263.375.175.687.42.937.737s.425.688.525 1.113l-.875.187c-.117-.442-.333-.796-.65-1.062-.308-.275-.708-.413-1.2-.413a1.97 1.97 0 0 0-1.15.338 2.125 2.125 0 0 0-.737.9c-.167.375-.25.8-.25 1.275 0 .475.083.904.25 1.287.175.383.42.683.737.9.325.217.708.325 1.15.325.483 0 .883-.133 1.2-.4.325-.267.546-.612.663-1.037l.875.162c-.1.417-.275.788-.525 1.113a2.45 2.45 0 0 1-.925.737 2.98 2.98 0 0 1-1.275.263Zm6.108-.113c-.575 0-.991-.137-1.25-.412-.25-.284-.375-.671-.375-1.163v-4h-1.062v-.8h1.062v-1.587h.925v1.587h1.4v.8h-1.4v3.95c0 .3.071.508.213.625.141.117.371.175.687.175.142 0 .309-.012.5-.037v.775a3.218 3.218 0 0 1-.7.087Zm2.019-.087v-6.288h.938v6.288h-.938Zm.475-7.338a.664.664 0 0 1-.487-.2.66.66 0 0 1-.2-.487.66.66 0 0 1 .2-.488.664.664 0 0 1 .487-.2c.192 0 .354.067.488.2.133.133.2.296.2.488a.664.664 0 0 1-.2.487.666.666 0 0 1-.488.2Zm5.179 7.538c-.6 0-1.133-.142-1.6-.425a2.996 2.996 0 0 1-1.1-1.175c-.267-.509-.4-1.088-.4-1.738 0-.65.129-1.229.388-1.737a2.959 2.959 0 0 1 1.1-1.188c.475-.283 1.016-.425 1.625-.425.6 0 1.129.142 1.587.425.467.283.829.679 1.088 1.188.258.508.387 1.087.387 1.737 0 .65-.129 1.229-.387 1.738-.259.5-.621.891-1.088 1.175-.458.283-.992.425-1.6.425Zm0-.825c.433 0 .808-.1 1.125-.3.317-.2.558-.488.725-.863.175-.383.263-.833.263-1.35 0-.517-.088-.967-.263-1.35a1.895 1.895 0 0 0-.725-.875c-.317-.208-.692-.312-1.125-.312-.433 0-.812.104-1.137.312a2.044 2.044 0 0 0-.738.888c-.175.375-.262.82-.262 1.337 0 .508.087.954.262 1.338.175.375.421.666.738.875.325.2.704.3 1.137.3Zm4.711.625v-6.288h.925v1.038a2.47 2.47 0 0 1 .887-.9c.367-.225.796-.338 1.288-.338.7 0 1.245.225 1.637.675.392.442.588 1.054.588 1.838v3.975h-.938v-3.838c0-.608-.129-1.067-.387-1.375-.25-.308-.63-.462-1.138-.462-.375 0-.708.1-1 .3-.292.2-.521.483-.687.85-.167.358-.25.779-.25 1.262v3.263h-.925Zm9.45.2c-.709 0-1.304-.18-1.788-.538-.475-.358-.791-.846-.95-1.462l.888-.213c.125.442.35.792.675 1.05.325.258.721.388 1.187.388.5 0 .892-.109 1.175-.325.284-.217.425-.492.425-.825 0-.267-.091-.467-.275-.6-.175-.142-.496-.271-.962-.388a4.088 4.088 0 0 1-.263-.062 2.51 2.51 0 0 0-.262-.063c-.534-.1-.963-.221-1.288-.362-.325-.142-.575-.325-.75-.55-.166-.234-.25-.534-.25-.9 0-.367.1-.692.3-.975.2-.284.479-.496.838-.638.366-.15.779-.225 1.237-.225.659 0 1.184.158 1.575.475.4.308.684.733.85 1.275l-.825.238c-.125-.384-.321-.68-.587-.888-.259-.217-.596-.325-1.013-.325-.433 0-.783.096-1.05.288-.258.191-.387.433-.387.725 0 .258.112.454.337.587.225.133.613.263 1.163.388a2.92 2.92 0 0 1 .212.05c.559.108 1 .233 1.325.375.334.141.584.333.75.575.175.241.263.562.263.962 0 .375-.104.713-.313 1.013-.2.291-.491.525-.875.7-.383.166-.837.25-1.362.25ZM285.864 175.123v-2.238h-4.275v-.825l4.35-5.737h.875v5.687h1.4v.875h-1.4v2.238h-.95Zm-3.238-3.113h3.238v-4.237l-3.238 4.237Zm7.03 3.213a.68.68 0 0 1-.5-.2.677.677 0 0 1-.2-.5c0-.184.066-.342.2-.475.133-.134.3-.2.5-.2.183 0 .337.066.462.2.134.133.2.291.2.475 0 .2-.066.366-.2.5a.61.61 0 0 1-.462.2Zm4.83.1a3.485 3.485 0 0 1-1.45-.288 2.867 2.867 0 0 1-1.05-.787 3.063 3.063 0 0 1-.588-1.113l.925-.25c.15.467.408.842.775 1.125.375.275.842.413 1.4.413.692 0 1.238-.192 1.638-.575.4-.392.6-.917.6-1.575 0-.634-.196-1.138-.588-1.513-.383-.383-.9-.575-1.55-.575-.525 0-.95.1-1.275.3a3.02 3.02 0 0 0-.787.675l-.863-.15.538-4.687h5.075v.862h-4.238l-.337 2.875a3.198 3.198 0 0 1 2.075-.712c.583 0 1.095.125 1.537.375.45.241.796.583 1.038 1.025.241.441.362.945.362 1.512 0 .608-.133 1.142-.4 1.6a2.692 2.692 0 0 1-1.125 1.075c-.492.258-1.062.388-1.712.388Zm5.491-.2 5.188-8.8h.837l-5.187 8.8h-.838Zm5.2.087c-.325 0-.629-.079-.912-.237a1.74 1.74 0 0 1-.65-.65 1.838 1.838 0 0 1-.238-.913c0-.325.079-.621.238-.887.158-.275.375-.492.65-.65.283-.159.587-.238.912-.238.325 0 .625.079.9.238.275.158.492.375.65.65.159.266.238.562.238.887 0 .325-.079.629-.238.913a1.775 1.775 0 0 1-1.55.887Zm0-.737c.284 0 .525-.1.725-.3.209-.209.313-.463.313-.763a.979.979 0 0 0-.313-.737.965.965 0 0 0-.725-.313c-.283 0-.529.104-.737.313a1 1 0 0 0-.3.737c0 .3.1.554.3.763.208.2.454.3.737.3Zm-4.325-4.613c-.325 0-.629-.079-.912-.237a1.74 1.74 0 0 1-.65-.65 1.838 1.838 0 0 1-.238-.913c0-.325.079-.621.238-.887.158-.275.375-.492.65-.65.283-.159.587-.238.912-.238.325 0 .625.079.9.238.275.158.492.375.65.65.159.266.238.562.238.887 0 .325-.079.629-.238.913a1.775 1.775 0 0 1-1.55.887Zm0-.737c.284 0 .525-.1.725-.3.209-.209.313-.463.313-.763a.979.979 0 0 0-.313-.737.965.965 0 0 0-.725-.313c-.283 0-.529.104-.737.313a1 1 0 0 0-.3.737c0 .3.1.554.3.763.208.2.454.3.737.3Z"/></g><g class="_1clhcdy2"><rect width="321" height="56.175" y="195.526" fill="#fff" rx="5.333"/><rect width="33.333" height="33.333" x="11.845" y="206.631" fill="#72A5A4" fill-opacity="0.19" rx="3.333"/><path fill="#72A5A4" fill-rule="evenodd" d="M33.357 229.245c-.41.747-1.557 1.192-3.07 1.192h-3.426c-1.54 0-2.724-.462-3.166-1.235-.42-.735-.09-1.569.258-2.138 1.52-2.484 2.577-3.993 4.42-3.993 1.55 0 2.634 1.116 3.883 2.899a.61.61 0 0 0 .785.186.596.596 0 0 0 .212-.868c-1.262-1.819-2.686-3.411-4.88-3.411-2.658 0-4.08 2.323-5.455 4.569-.729 1.19-.827 2.377-.276 3.342.67 1.172 2.207 1.844 4.22 1.844h3.426c1.992 0 3.499-.663 4.133-1.818.462-.841.417-1.849-.112-2.884l-.92.909c.188.53.184 1.014-.032 1.406Zm-1.512-13.061c.486.148.807 1.016.492 2.025-.31.99-1.04 1.527-1.53 1.408l-.032-.009c-.486-.148-.806-1.017-.492-2.025.31-.989 1.04-1.527 1.561-1.399Zm-1.426 4.565c.032.01.065.019.098.027 1.19.291 2.497-.682 2.976-2.215.5-1.6-.067-3.145-1.29-3.519-1.208-.368-2.583.613-3.075 2.188-.5 1.6.067 3.146 1.29 3.519Zm-8.198 2.329a.867.867 0 0 1-.568.187c-.485 0-1.03-.29-1.42-.756-.308-.366-.493-.809-.51-1.216-.009-.205.02-.584.31-.821a.869.869 0 0 1 .568-.185c.486 0 1.03.289 1.422.756.593.706.683 1.638.198 2.035Zm.732-2.798c-.624-.744-1.503-1.188-2.352-1.188-.508 0-.972.159-1.34.46-.504.414-.776 1.065-.747 1.788.029.675.308 1.359.787 1.93.625.745 1.504 1.189 2.352 1.189.509 0 .972-.16 1.34-.461 1.007-.824.99-2.492-.04-3.718Zm13.845 2.228c-.391.466-.936.756-1.421.756a.872.872 0 0 1-.569-.185c-.485-.398-.394-1.331.2-2.037.39-.466.935-.755 1.42-.755a.87.87 0 0 1 .568.185c.485.397.395 1.33-.198 2.036Zm.97-2.956a2.086 2.086 0 0 0-1.34-.46c-.848 0-1.727.444-2.351 1.188-1.029 1.226-1.047 2.894-.04 3.718.367.301.83.461 1.34.461.848 0 1.728-.444 2.352-1.189 1.029-1.225 1.046-2.893.04-3.718Zm-13.117-2.739c.061-.192.21-.529.557-.636.489-.121 1.223.412 1.537 1.401.155.487.17.997.042 1.4-.06.192-.21.53-.525.627l-.032.009c-.488.122-1.222-.412-1.536-1.4-.154-.487-.17-.998-.043-1.401Zm1.875 3.959a1.8 1.8 0 0 0 .099-.027c.613-.19 1.093-.704 1.317-1.41.202-.64.186-1.391-.044-2.114-.499-1.573-1.873-2.554-3.084-2.174-.613.19-1.093.704-1.317 1.41-.202.639-.187 1.39.043 2.114.487 1.531 1.798 2.498 2.986 2.201Z" clip-rule="evenodd"/><mask id="a" width="21" height="18" x="18" y="214" maskUnits="userSpaceOnUse" style="mask-type:luminance"/><path fill="#1E1937" d="M57.001 220.631v-9.987h4.548c1.03 0 1.823.278 2.38.835.567.548.85 1.29.85 2.225 0 .925-.283 1.667-.85 2.224-.557.557-1.35.836-2.38.836h-2.99v3.867h-1.558Zm4.392-5.227c.576 0 1.02-.147 1.332-.44.311-.302.467-.722.467-1.26 0-.548-.156-.968-.467-1.261-.312-.293-.756-.439-1.332-.439H58.56v3.4h2.833Zm7.823 5.454c-.727 0-1.365-.161-1.912-.482a3.4 3.4 0 0 1-1.276-1.36c-.292-.585-.439-1.247-.439-1.983 0-.718.142-1.365.425-1.941a3.308 3.308 0 0 1 1.247-1.374c.548-.331 1.19-.496 1.927-.496.698 0 1.298.156 1.799.467.5.312.878.756 1.133 1.332.255.567.383 1.228.383 1.983 0 .142-.005.27-.014.383h-5.426c.047.737.26 1.294.637 1.672.378.368.888.552 1.53.552.482 0 .874-.113 1.176-.34.302-.227.557-.543.765-.949l1.218.453c-.283.671-.694 1.186-1.232 1.544-.538.359-1.185.539-1.941.539Zm1.813-4.534c-.037-.595-.222-1.048-.552-1.36-.321-.321-.751-.481-1.29-.481-.566 0-1.029.16-1.388.481-.359.312-.59.765-.694 1.36h3.924Zm5.543 4.449c-.728 0-1.252-.17-1.573-.51-.321-.35-.482-.841-.482-1.474v-4.094H73.37v-1.246h1.147v-1.856h1.516v1.856h1.516v1.246h-1.516v4.024c0 .273.076.472.227.595.151.113.378.17.68.17.151 0 .35-.019.595-.057v1.218c-.33.085-.652.128-.963.128Zm5.04.085c-.85 0-1.554-.199-2.11-.595-.549-.406-.907-.954-1.078-1.644l1.403-.34c.123.435.335.775.638 1.02.311.246.698.369 1.161.369.463 0 .827-.095 1.091-.284.264-.198.397-.443.397-.736 0-.255-.095-.444-.284-.567-.18-.123-.52-.245-1.02-.368l-.255-.057a12.954 12.954 0 0 0-.269-.057c-.595-.132-1.076-.278-1.445-.439-.368-.16-.651-.378-.85-.651-.189-.274-.283-.628-.283-1.063 0-.444.118-.831.354-1.162a2.23 2.23 0 0 1 .992-.779c.434-.189.93-.283 1.487-.283.775 0 1.398.175 1.87.524.472.35.803.836.992 1.459l-1.346.369c-.123-.369-.307-.652-.553-.85-.245-.208-.561-.312-.949-.312-.396 0-.722.085-.977.255-.246.17-.368.392-.368.666 0 .245.108.429.325.552.227.114.628.236 1.205.369.037 0 .07.004.099.014.028.009.061.019.099.028.642.132 1.152.279 1.53.439.378.161.666.383.864.666.208.274.312.642.312 1.105 0 .463-.123.874-.369 1.233-.245.349-.595.623-1.048.821-.453.199-.992.298-1.615.298ZM265.77 220.801a4.32 4.32 0 0 1-.949-.085 6.924 6.924 0 0 1-.808-.212 3.562 3.562 0 0 0-.609-.17 2.553 2.553 0 0 0-.581-.057c-.33 0-.628.033-.892.099-.265.057-.52.137-.765.241l-.099.057-.567-1.19c.595-.331 1.034-.666 1.318-1.006.292-.35.439-.727.439-1.134 0-.179-.024-.349-.071-.51a2.108 2.108 0 0 0-.213-.481h-1.657v-1.162h1.062a5.13 5.13 0 0 1-.297-.765 3.69 3.69 0 0 1-.099-.892c0-.624.141-1.167.425-1.63a2.874 2.874 0 0 1 1.246-1.09c.539-.255 1.167-.383 1.885-.383.67 0 1.246.128 1.728.383s.855.599 1.119 1.034c.274.425.458.902.553 1.431l-1.488.382c-.094-.519-.302-.949-.623-1.289-.312-.35-.756-.524-1.332-.524-.595 0-1.067.16-1.417.481-.349.312-.524.742-.524 1.29 0 .283.043.543.128.779s.203.5.354.793h2.819v1.162h-2.38c.028.066.052.132.071.198.028.066.052.137.071.213.047.16.071.33.071.51 0 .623-.199 1.204-.595 1.742.075-.009.193-.014.354-.014.236 0 .444.019.623.057.189.028.373.075.553.141.16.057.316.099.467.128.161.028.331.042.51.042.274 0 .501-.056.68-.17.18-.113.307-.311.383-.595l1.388.411c-.113.557-.368.996-.765 1.318-.387.311-.893.467-1.516.467Zm7.142.043c-.652 0-1.228-.109-1.729-.326a3.16 3.16 0 0 1-1.19-.879 3.41 3.41 0 0 1-.651-1.26l1.374-.496c.151.472.401.854.751 1.147.359.293.826.439 1.402.439.633 0 1.143-.16 1.53-.481.387-.331.581-.765.581-1.304 0-.528-.194-.935-.581-1.218-.378-.283-.897-.425-1.558-.425h-.694v-1.275h.68c.585 0 1.034-.137 1.345-.411a1.37 1.37 0 0 0 .482-1.076c0-.454-.165-.808-.496-1.063-.321-.264-.746-.397-1.275-.397-.519 0-.939.133-1.261.397-.321.265-.557.628-.708 1.091l-1.36-.468c.236-.746.633-1.331 1.19-1.756.557-.435 1.285-.652 2.182-.652.68 0 1.265.123 1.756.368.492.237.86.562 1.105.978.255.415.383.874.383 1.374 0 .453-.109.864-.326 1.233-.217.368-.543.67-.977.906.576.227 1.001.553 1.275.978.283.425.425.916.425 1.473 0 .586-.147 1.115-.44 1.587-.283.472-.703.845-1.26 1.119-.548.264-1.2.397-1.955.397Zm8.978.014c-.774 0-1.464-.128-2.068-.383-.595-.255-1.058-.614-1.389-1.076a2.689 2.689 0 0 1-.495-1.601c0-.595.17-1.11.51-1.544.34-.444.807-.78 1.402-1.006-.453-.199-.807-.477-1.062-.836a2.184 2.184 0 0 1-.383-1.275c0-.52.146-.982.439-1.388.302-.416.718-.737 1.247-.964a4.299 4.299 0 0 1 1.771-.354c.661 0 1.256.118 1.785.354.529.227.939.548 1.232.964.302.406.454.868.454 1.388 0 .482-.128.902-.383 1.261-.255.359-.609.642-1.062.85.585.236 1.048.576 1.388 1.02.34.434.51.944.51 1.53 0 .604-.17 1.138-.51 1.601-.331.462-.793.821-1.388 1.076-.586.255-1.252.383-1.998.383Zm0-1.36c.671 0 1.209-.166 1.615-.496.406-.331.609-.77.609-1.318 0-.349-.094-.661-.283-.935a1.76 1.76 0 0 0-.779-.637 2.834 2.834 0 0 0-1.162-.227 3.01 3.01 0 0 0-1.204.227c-.34.151-.605.364-.793.637a1.608 1.608 0 0 0-.284.935c0 .558.203 1.002.609 1.332.407.321.964.482 1.672.482Zm-.014-4.76c.567 0 1.02-.132 1.36-.397.349-.274.524-.637.524-1.091 0-.453-.175-.821-.524-1.105-.35-.293-.803-.439-1.36-.439-.567 0-1.025.142-1.374.425-.35.283-.524.656-.524 1.119 0 .454.17.817.51 1.091.349.265.812.397 1.388.397Zm6.046 6.006c-.293 0-.539-.094-.737-.283a1.026 1.026 0 0 1-.283-.737c0-.264.094-.491.283-.68.198-.198.444-.297.737-.297.264 0 .491.099.68.297a.907.907 0 0 1 .297.68c0 .293-.099.539-.297.737a.928.928 0 0 1-.68.283Zm5.744.114c-.765 0-1.44-.175-2.025-.524-.586-.35-1.049-.898-1.389-1.644-.34-.755-.51-1.709-.51-2.861 0-1.124.161-2.088.482-2.89.321-.813.784-1.431 1.388-1.856.614-.435 1.346-.652 2.196-.652.859 0 1.563.231 2.111.694.548.454.949 1.082 1.204 1.884l-1.558.312c-.151-.463-.373-.826-.666-1.091-.293-.264-.675-.396-1.148-.396-.708 0-1.275.292-1.7.878-.415.576-.651 1.483-.708 2.72a2.97 2.97 0 0 1 1.119-1.02 3.381 3.381 0 0 1 1.587-.368c.623 0 1.185.137 1.686.41.5.274.892.666 1.176 1.176.292.501.439 1.077.439 1.729 0 .68-.166 1.284-.496 1.813a3.394 3.394 0 0 1-1.332 1.247 3.99 3.99 0 0 1-1.856.439Zm0-1.332c.416 0 .78-.094 1.091-.283.321-.189.567-.444.737-.765.179-.321.269-.685.269-1.091 0-.406-.085-.77-.255-1.091a1.852 1.852 0 0 0-.722-.751 2.065 2.065 0 0 0-1.091-.283c-.416 0-.784.094-1.105.283-.312.18-.558.43-.737.751-.17.312-.255.671-.255 1.077 0 .396.085.76.255 1.091.17.33.411.59.723.779.311.189.675.283 1.09.283Zm9.23 1.332c-.869 0-1.606-.217-2.21-.652-.595-.444-1.049-1.058-1.36-1.842-.302-.783-.454-1.7-.454-2.748 0-1.029.156-1.931.468-2.706.312-.784.765-1.393 1.36-1.827.604-.435 1.332-.652 2.182-.652.85 0 1.572.217 2.167.652.595.434 1.044 1.043 1.346 1.827.312.784.467 1.686.467 2.706 0 1.048-.151 1.969-.453 2.763-.302.783-.751 1.393-1.346 1.827-.595.435-1.317.652-2.167.652Zm0-1.417c.755 0 1.341-.335 1.756-1.006.425-.67.638-1.61.638-2.819 0-1.18-.213-2.101-.638-2.762-.425-.671-1.015-1.006-1.77-1.006-.765 0-1.365.335-1.8 1.006-.425.661-.637 1.582-.637 2.762 0 1.209.217 2.149.652 2.819.434.671 1.034 1.006 1.799 1.006Z"/><path fill="#776D89" d="M56.125 240.298v-.863l3.525-3.062c.333-.292.6-.546.8-.763.208-.216.383-.462.525-.737.142-.275.212-.575.212-.9 0-.542-.183-.975-.55-1.3-.358-.333-.837-.5-1.437-.5-.625 0-1.108.175-1.45.525a2.47 2.47 0 0 0-.663 1.25l-.95-.213c.084-.408.246-.795.488-1.162a2.7 2.7 0 0 1 1.012-.913c.434-.241.955-.362 1.563-.362.583 0 1.096.112 1.537.337.45.225.796.542 1.038.95.25.4.375.859.375 1.375 0 .45-.096.867-.288 1.25a3.973 3.973 0 0 1-.675.988c-.266.275-.604.587-1.012.937l-2.65 2.3h4.687v.863h-6.087Zm12.8.087c-.575 0-.992-.137-1.25-.412-.25-.283-.375-.671-.375-1.163v-4h-1.063v-.8H67.3v-1.587h.925v1.587h1.4v.8h-1.4v3.95c0 .3.07.509.212.625.142.117.37.175.688.175.141 0 .308-.012.5-.037v.775a3.225 3.225 0 0 1-.7.087Zm2.093-.087v-6.288h.924v1.138c.167-.367.4-.654.7-.863a1.77 1.77 0 0 1 1.238-.312c.05 0 .104.008.163.025v.875a2.029 2.029 0 0 0-.338-.025c-.533 0-.962.196-1.287.587-.317.384-.476.9-.476 1.55v3.313h-.924Zm5.96.175c-.467 0-.863-.088-1.188-.263a1.824 1.824 0 0 1-.712-.712 1.988 1.988 0 0 1-.238-.963c0-.6.234-1.07.7-1.412.475-.342 1.138-.513 1.988-.513h1.6v-.625c0-.391-.142-.716-.425-.975-.284-.258-.671-.387-1.163-.387-.45 0-.812.112-1.087.337-.275.225-.471.538-.588.938l-.9-.175c.1-.417.271-.767.513-1.05a2.2 2.2 0 0 1 .9-.65 3.233 3.233 0 0 1 1.2-.213c.5 0 .933.092 1.3.275.375.175.662.43.862.763.2.325.3.704.3 1.137v4.313h-.912v-1.163a2.5 2.5 0 0 1-.863.975c-.358.242-.787.363-1.287.363Zm.212-.788a1.82 1.82 0 0 0 1.025-.287c.292-.192.513-.446.663-.763.158-.316.237-.658.237-1.025v-.312h-1.462c-.609 0-1.075.104-1.4.312a1.004 1.004 0 0 0-.475.888c0 .367.129.658.387.875.267.208.609.312 1.025.312Zm4.814.613v-6.288h.925v1.038a2.49 2.49 0 0 1 .887-.9c.367-.225.796-.338 1.288-.338.7 0 1.246.225 1.637.675.392.442.588 1.055.588 1.838v3.975h-.938v-3.838c0-.608-.129-1.066-.387-1.375-.25-.308-.63-.462-1.138-.462-.375 0-.708.1-1 .3-.291.2-.52.483-.687.85-.167.358-.25.779-.25 1.262v3.263h-.925Zm9.45.2c-.708 0-1.304-.179-1.788-.538-.475-.358-.791-.845-.95-1.462l.888-.213c.125.442.35.792.675 1.05.325.259.72.388 1.187.388.5 0 .892-.108 1.175-.325.284-.217.425-.492.425-.825 0-.267-.091-.467-.275-.6-.175-.142-.495-.271-.962-.388a3.55 3.55 0 0 1-.263-.062 2.495 2.495 0 0 0-.262-.063c-.533-.1-.963-.22-1.288-.362-.325-.142-.575-.325-.75-.55-.166-.233-.25-.533-.25-.9s.1-.692.3-.975c.2-.283.48-.496.838-.638.367-.15.78-.225 1.237-.225.659 0 1.184.159 1.575.475.4.309.684.734.85 1.275l-.825.238c-.125-.383-.32-.679-.587-.888-.258-.216-.596-.325-1.013-.325-.433 0-.783.096-1.05.288-.258.192-.387.433-.387.725 0 .258.112.454.337.587.225.134.613.263 1.163.388.042.008.08.017.112.025l.1.025c.559.108 1 .233 1.325.375.334.142.584.333.75.575.175.242.263.562.263.962 0 .375-.104.713-.313 1.013-.2.292-.491.525-.875.7-.383.167-.837.25-1.362.25Zm5.97-.025c-.466 0-.862-.088-1.187-.263a1.823 1.823 0 0 1-.712-.712 1.988 1.988 0 0 1-.238-.963c0-.6.233-1.07.7-1.412.475-.342 1.138-.513 1.988-.513h1.6v-.625c0-.391-.142-.716-.425-.975-.284-.258-.671-.387-1.163-.387-.45 0-.813.112-1.087.337-.276.225-.471.538-.588.938l-.9-.175c.1-.417.27-.767.512-1.05a2.2 2.2 0 0 1 .9-.65 3.232 3.232 0 0 1 1.2-.213c.5 0 .934.092 1.3.275.376.175.663.43.863.763.2.325.3.704.3 1.137v4.313h-.912v-1.163a2.5 2.5 0 0 1-.863.975c-.358.242-.788.363-1.288.363Zm.213-.788a1.82 1.82 0 0 0 1.025-.287c.292-.192.512-.446.662-.763.159-.316.238-.658.238-1.025v-.312H98.1c-.609 0-1.075.104-1.4.312a1.003 1.003 0 0 0-.475.888c0 .367.129.658.387.875.267.208.608.312 1.025.312Zm7.489.813c-.617 0-1.163-.142-1.638-.425a2.989 2.989 0 0 1-1.087-1.188c-.259-.508-.388-1.087-.388-1.737 0-.642.125-1.213.375-1.713a2.88 2.88 0 0 1 1.088-1.187c.475-.292 1.02-.438 1.637-.438.467 0 .888.088 1.263.263.375.175.687.421.937.737.25.317.425.688.525 1.113l-.875.187a2.025 2.025 0 0 0-.65-1.062c-.308-.275-.708-.413-1.2-.413a1.97 1.97 0 0 0-1.15.338 2.137 2.137 0 0 0-.737.9c-.167.375-.25.8-.25 1.275 0 .475.083.904.25 1.287.175.384.42.684.737.9.325.217.708.325 1.15.325.483 0 .883-.133 1.2-.4.325-.266.546-.612.663-1.037l.875.162c-.1.417-.275.788-.525 1.113a2.44 2.44 0 0 1-.925.737 2.98 2.98 0 0 1-1.275.263Zm6.108-.113c-.575 0-.991-.137-1.25-.412-.25-.283-.375-.671-.375-1.163v-4h-1.062v-.8h1.062v-1.587h.925v1.587h1.4v.8h-1.4v3.95c0 .3.071.509.213.625.141.117.371.175.687.175.142 0 .309-.012.5-.037v.775a3.218 3.218 0 0 1-.7.087Zm2.019-.087v-6.288h.938v6.288h-.938Zm.475-7.338a.66.66 0 0 1-.487-.2.659.659 0 0 1-.2-.487c0-.192.066-.354.2-.488a.664.664 0 0 1 .487-.2c.192 0 .354.067.488.2.133.134.2.296.2.488a.662.662 0 0 1-.2.487.662.662 0 0 1-.488.2Zm5.179 7.538c-.6 0-1.133-.142-1.6-.425a2.989 2.989 0 0 1-1.1-1.175c-.267-.508-.4-1.088-.4-1.738 0-.65.129-1.229.388-1.737a2.972 2.972 0 0 1 1.1-1.188c.475-.283 1.016-.425 1.625-.425.6 0 1.129.142 1.587.425.467.284.829.68 1.088 1.188.258.508.387 1.087.387 1.737 0 .65-.129 1.23-.387 1.738-.259.5-.621.892-1.088 1.175-.458.283-.992.425-1.6.425Zm0-.825c.433 0 .808-.1 1.125-.3.317-.2.558-.488.725-.863.175-.383.263-.833.263-1.35 0-.516-.088-.966-.263-1.35a1.895 1.895 0 0 0-.725-.875c-.317-.208-.692-.312-1.125-.312-.433 0-.812.104-1.137.312a2.056 2.056 0 0 0-.738.888c-.175.375-.262.821-.262 1.337 0 .509.087.955.262 1.338.175.375.421.667.738.875.325.2.704.3 1.137.3Zm4.711.625v-6.288h.925v1.038c.225-.383.52-.683.887-.9.367-.225.796-.338 1.288-.338.7 0 1.245.225 1.637.675.392.442.588 1.055.588 1.838v3.975h-.938v-3.838c0-.608-.129-1.066-.387-1.375-.25-.308-.63-.462-1.138-.462-.375 0-.708.1-1 .3-.292.2-.521.483-.687.85-.167.358-.25.779-.25 1.262v3.263h-.925Zm9.45.2c-.709 0-1.304-.179-1.788-.538-.475-.358-.791-.845-.95-1.462l.888-.213c.125.442.35.792.675 1.05.325.259.721.388 1.187.388.5 0 .892-.108 1.175-.325.284-.217.425-.492.425-.825 0-.267-.091-.467-.275-.6-.175-.142-.496-.271-.962-.388a3.514 3.514 0 0 1-.263-.062 2.51 2.51 0 0 0-.262-.063c-.534-.1-.963-.22-1.288-.362-.325-.142-.575-.325-.75-.55-.166-.233-.25-.533-.25-.9s.1-.692.3-.975c.2-.283.479-.496.838-.638.366-.15.779-.225 1.237-.225.659 0 1.184.159 1.575.475.4.309.684.734.85 1.275l-.825.238c-.125-.383-.321-.679-.587-.888-.259-.216-.596-.325-1.013-.325-.433 0-.783.096-1.05.288-.258.192-.387.433-.387.725 0 .258.112.454.337.587.225.134.613.263 1.163.388.041.008.079.017.112.025l.1.025c.559.108 1 .233 1.325.375.334.142.584.333.75.575.175.242.263.562.263.962 0 .375-.104.713-.313 1.013-.2.292-.491.525-.875.7-.383.167-.837.25-1.362.25ZM286.102 240.298v-7.625l-1.95 1.287v-1.037l2.112-1.425h.8v8.8h-.962Zm3.554.1a.68.68 0 0 1-.5-.2.675.675 0 0 1-.2-.5c0-.183.066-.342.2-.475a.68.68 0 0 1 .5-.2.61.61 0 0 1 .462.2c.134.133.2.292.2.475 0 .2-.066.367-.2.5a.61.61 0 0 1-.462.2Zm4.83.1a3.485 3.485 0 0 1-1.45-.288 2.856 2.856 0 0 1-1.05-.787 3.047 3.047 0 0 1-.588-1.113l.925-.25c.15.467.408.842.775 1.125.375.275.842.413 1.4.413.692 0 1.238-.192 1.638-.575.4-.392.6-.917.6-1.575 0-.633-.196-1.138-.588-1.513-.383-.383-.9-.575-1.55-.575-.525 0-.95.1-1.275.3a3.02 3.02 0 0 0-.787.675l-.863-.15.538-4.687h5.075v.862h-4.238l-.337 2.875a3.219 3.219 0 0 1 2.075-.712c.583 0 1.095.125 1.537.375.45.242.796.583 1.038 1.025.241.442.362.946.362 1.512 0 .609-.133 1.142-.4 1.6a2.686 2.686 0 0 1-1.125 1.075c-.492.259-1.062.388-1.712.388Zm5.491-.2 5.188-8.8h.837l-5.187 8.8h-.838Zm5.2.087c-.325 0-.629-.079-.912-.237a1.733 1.733 0 0 1-.65-.65 1.835 1.835 0 0 1-.238-.913c0-.325.079-.62.238-.887.158-.275.375-.492.65-.65a1.842 1.842 0 0 1 1.812 0c.275.158.492.375.65.65.159.267.238.562.238.887 0 .325-.079.63-.238.913a1.775 1.775 0 0 1-1.55.887Zm0-.737c.284 0 .525-.1.725-.3.209-.208.313-.463.313-.763a.98.98 0 0 0-.313-.737.969.969 0 0 0-.725-.313 1.01 1.01 0 0 0-.737.313c-.2.2-.3.446-.3.737 0 .3.1.555.3.763.208.2.454.3.737.3Zm-4.325-4.613c-.325 0-.629-.079-.912-.237a1.733 1.733 0 0 1-.65-.65 1.835 1.835 0 0 1-.238-.913c0-.325.079-.62.238-.887.158-.275.375-.492.65-.65a1.842 1.842 0 0 1 1.812 0c.275.158.492.375.65.65.159.267.238.562.238.887 0 .325-.079.63-.238.913a1.775 1.775 0 0 1-1.55.887Zm0-.737c.284 0 .525-.1.725-.3.209-.208.313-.463.313-.763a.98.98 0 0 0-.313-.737.969.969 0 0 0-.725-.313 1.01 1.01 0 0 0-.737.313c-.2.2-.3.446-.3.737 0 .3.1.555.3.763.208.2.454.3.737.3Z"/></g></g></svg>