<svg class="_17595mk2 n8pskg60 n8pskg5u n8pskg96" xmlns="http://www.w3.org/2000/svg" fill="none" viewBox="-10 0 100 100"><rect width="83" height="83" y="0.326" fill="#fff" rx="12"/><path fill="#192852" d="M22.184 32.126v-4.83a4.792 4.792 0 014.787-4.786H31.8a1.092 1.092 0 000-2.184h-4.83a6.979 6.979 0 00-6.97 6.97v4.83a1.092 1.092 0 102.184 0zM31.8 61.143a1.092 1.092 0 010 2.183h-4.83a6.979 6.979 0 01-6.97-6.97v-4.83a1.092 1.092 0 012.184 0v4.83a4.793 4.793 0 004.787 4.787H31.8zM63 51.526v4.83a6.979 6.979 0 01-6.97 6.97H51.2a1.092 1.092 0 010-2.183h4.83a4.793 4.793 0 004.786-4.788v-4.829a1.092 1.092 0 012.184 0zM63 27.297v4.829a1.092 1.092 0 11-2.184 0v-4.83a4.793 4.793 0 00-4.787-4.786H51.2a1.092 1.092 0 110-2.184h4.83a6.979 6.979 0 016.97 6.97zM49.035 52.107a1.134 1.134 0 10-1.54-1.666 8.812 8.812 0 01-5.995 2.345c-2.23 0-4.36-.833-5.996-2.345a1.134 1.134 0 00-1.539 1.666 11.073 11.073 0 007.535 2.946c2.802 0 5.478-1.046 7.535-2.946zM43.768 36.535v8.063a2.9 2.9 0 01-2.897 2.897h-.924a1.134 1.134 0 110-2.267h.924a.63.63 0 00.63-.63v-8.063a1.134 1.134 0 112.267 0zM51.578 39.706v-3.234a1.07 1.07 0 00-2.142 0v3.234a1.07 1.07 0 002.142 0zM31.674 39.706a1.07 1.07 0 102.142 0v-3.234a1.07 1.07 0 00-2.142 0v3.234z"/></svg>