<svg xmlns="http://www.w3.org/2000/svg" xmlns:xlink="http://www.w3.org/1999/xlink" fill="none" viewBox="0 0 322 116"><path fill="#fff" d="M115.159 0h199.882A6.96 6.96 0 01322 6.96v101.236a6.959 6.959 0 01-6.959 6.959H115.159V0z"/><path fill="#000" d="M130.313 26.546c-1.075 0-1.913-.276-2.514-.828-.592-.563-.888-1.361-.888-2.396v-.34h1.627v.34c0 .581.153 1.025.459 1.33.305.296.744.444 1.316.444.581 0 1.025-.148 1.331-.443.315-.306.473-.745.473-1.316v-7.44h1.627v7.44c0 1.025-.301 1.819-.902 2.38-.592.553-1.435.829-2.529.829zM138.08 26.486c-.513 0-.962-.098-1.346-.295a2.167 2.167 0 01-.858-.828 2.257 2.257 0 01-.296-1.14c0-.729.281-1.3.843-1.715.562-.414 1.341-.62 2.337-.62h1.73v-.637c0-.394-.138-.714-.414-.96-.266-.257-.646-.385-1.139-.385-.453 0-.823.118-1.109.355-.276.226-.468.542-.577.946l-1.523-.251c.119-.513.326-.947.621-1.302a2.768 2.768 0 011.095-.798 3.841 3.841 0 011.508-.281c.631 0 1.178.113 1.642.34.463.227.818.542 1.064.946.257.395.385.858.385 1.39v5.058h-1.553v-1.287a2.709 2.709 0 01-.961 1.065c-.404.266-.887.4-1.449.4zm.443-1.242c.385 0 .725-.093 1.021-.28a2.09 2.09 0 00.946-1.745v-.326h-1.434c-.622 0-1.1.103-1.435.31a.993.993 0 00-.488.888c0 .355.128.636.385.843.256.207.591.31 1.005.31zM144.156 26.309v-7.498h1.583v1.006c.217-.395.498-.7.843-.917a2.306 2.306 0 011.227-.325c.542 0 1.001.123 1.376.37.374.236.64.586.798 1.05.227-.444.533-.79.917-1.036.385-.256.838-.384 1.361-.384.749 0 1.326.212 1.73.636.404.424.606 1.05.606 1.878v5.22h-1.582v-4.895c0-.493-.109-.863-.326-1.11-.207-.255-.527-.384-.961-.384-.305 0-.577.08-.813.237-.237.158-.424.394-.562.71-.128.315-.192.695-.192 1.139v4.303h-1.583v-4.895c0-.493-.103-.863-.31-1.11-.207-.255-.523-.384-.947-.384a1.46 1.46 0 00-.828.237c-.237.158-.424.394-.562.71-.128.305-.192.68-.192 1.124v4.318h-1.583zM160.004 26.546c-.759 0-1.424-.168-1.996-.503a3.547 3.547 0 01-1.331-1.42c-.306-.611-.459-1.301-.459-2.07 0-.75.148-1.425.444-2.026.306-.611.74-1.09 1.301-1.435.572-.345 1.243-.517 2.012-.517.729 0 1.355.162 1.878.488a3.04 3.04 0 011.183 1.39c.266.591.399 1.282.399 2.07 0 .148-.005.281-.015.4h-5.664c.05.769.272 1.35.666 1.745.394.384.927.576 1.597.576.503 0 .912-.118 1.228-.355.315-.236.581-.567.798-.99l1.272.473c-.296.7-.725 1.237-1.287 1.612-.562.374-1.237.562-2.026.562zm1.893-4.733c-.039-.62-.231-1.094-.577-1.42-.335-.335-.783-.502-1.345-.502-.592 0-1.075.167-1.45.503-.374.325-.616.798-.724 1.42h4.096zM167.89 26.546c-.888 0-1.622-.207-2.204-.622-.572-.423-.946-.995-1.124-1.715l1.464-.355c.129.454.35.809.666 1.065.325.256.729.384 1.213.384.483 0 .862-.098 1.138-.295.276-.207.414-.464.414-.77 0-.266-.098-.463-.295-.59-.188-.13-.543-.257-1.065-.385l-.266-.06a14.83 14.83 0 00-.281-.059c-.621-.138-1.124-.29-1.509-.458-.384-.168-.68-.395-.887-.68-.197-.286-.296-.656-.296-1.11 0-.463.123-.867.37-1.212a2.319 2.319 0 011.035-.814c.454-.197.971-.295 1.553-.295.808 0 1.459.182 1.952.547.493.365.838.872 1.035 1.523l-1.405.384c-.128-.384-.32-.68-.577-.887-.256-.217-.586-.325-.99-.325-.414 0-.755.089-1.021.266-.256.178-.384.41-.384.695 0 .257.113.449.34.577.236.118.655.246 1.257.384.039 0 .074.005.103.015.03.01.064.02.104.03.67.138 1.203.29 1.597.458.394.168.695.4.902.695.217.286.326.67.326 1.154 0 .483-.129.912-.385 1.286-.256.365-.621.651-1.094.858-.474.207-1.036.31-1.686.31zM171.96 18.826c.374-.01.66-.104.857-.28.207-.188.326-.435.355-.74-.059.01-.123.014-.192.014a.988.988 0 01-.725-.295 1.032 1.032 0 01-.28-.74c0-.266.093-.493.28-.68a.987.987 0 01.725-.296c.345 0 .621.133.828.4.207.256.311.61.311 1.064 0 .69-.178 1.262-.533 1.716-.345.443-.887.67-1.626.68v-.843zM179.762 26.309V15.883h4.747c1.075 0 1.903.291 2.485.873.591.572.887 1.345.887 2.322 0 .966-.296 1.74-.887 2.321-.582.582-1.41.873-2.485.873h-3.12v4.037h-1.627zm4.585-5.457c.601 0 1.064-.153 1.39-.458.325-.316.488-.755.488-1.316 0-.572-.163-1.011-.488-1.317-.326-.305-.789-.458-1.39-.458h-2.958v3.55h2.958zM189.518 26.309v-7.498h1.583v1.316c.197-.433.463-.773.798-1.02.345-.246.755-.37 1.228-.37.088 0 .167.005.236.015.079 0 .158.01.237.03v1.493a2.495 2.495 0 00-.488-.044c-.601 0-1.089.212-1.464.636-.365.424-.547 1-.547 1.73v3.712h-1.583zM198.275 26.546c-.759 0-1.424-.168-1.996-.503a3.547 3.547 0 01-1.331-1.42c-.306-.611-.459-1.301-.459-2.07 0-.75.148-1.425.444-2.026a3.462 3.462 0 011.301-1.435c.572-.345 1.243-.517 2.012-.517.729 0 1.355.162 1.878.488a3.04 3.04 0 011.183 1.39c.266.591.399 1.282.399 2.07 0 .148-.005.281-.015.4h-5.664c.05.769.272 1.35.666 1.745.394.384.927.576 1.597.576.503 0 .912-.118 1.227-.355.316-.236.582-.567.799-.99l1.272.473c-.296.7-.725 1.237-1.287 1.612-.562.374-1.237.562-2.026.562zm1.893-4.733c-.039-.62-.232-1.094-.577-1.42-.335-.335-.783-.502-1.345-.502-.592 0-1.075.167-1.45.503-.374.325-.616.798-.724 1.42h4.096zM206.161 26.546c-.888 0-1.622-.207-2.204-.622-.572-.423-.946-.995-1.124-1.715l1.464-.355c.129.454.35.809.666 1.065.325.256.729.384 1.213.384.483 0 .862-.098 1.138-.295.276-.207.414-.464.414-.77 0-.266-.098-.463-.295-.59-.188-.13-.543-.257-1.065-.385l-.266-.06a14.83 14.83 0 00-.281-.059c-.622-.138-1.124-.29-1.509-.458-.384-.168-.68-.395-.887-.68-.197-.286-.296-.656-.296-1.11 0-.463.123-.867.37-1.212a2.319 2.319 0 011.035-.814c.453-.197.971-.295 1.553-.295.808 0 1.459.182 1.952.547.493.365.838.872 1.035 1.523l-1.405.384c-.128-.384-.32-.68-.577-.887-.256-.217-.586-.325-.99-.325-.415 0-.755.089-1.021.266-.256.178-.384.41-.384.695 0 .257.113.449.34.577.236.118.655.246 1.257.384.039 0 .074.005.103.015.03.01.064.02.104.03.67.138 1.203.29 1.597.458.394.168.695.4.902.695.217.286.325.67.325 1.154 0 .483-.128.912-.384 1.286-.256.365-.621.651-1.094.858-.474.207-1.036.31-1.686.31zM214.349 26.546c-.759 0-1.425-.168-1.996-.503a3.547 3.547 0 01-1.331-1.42c-.306-.611-.459-1.301-.459-2.07 0-.75.148-1.425.444-2.026a3.456 3.456 0 011.301-1.435c.572-.345 1.242-.517 2.011-.517.73 0 1.356.162 1.879.488.522.325.916.788 1.183 1.39.266.591.399 1.282.399 2.07 0 .148-.005.281-.015.4h-5.664c.049.769.271 1.35.666 1.745.394.384.926.576 1.597.576.503 0 .912-.118 1.227-.355.316-.236.582-.567.799-.99l1.272.473c-.296.7-.725 1.237-1.287 1.612-.562.374-1.237.562-2.026.562zm1.893-4.733c-.039-.62-.232-1.094-.577-1.42-.335-.335-.784-.502-1.346-.502-.591 0-1.074.167-1.449.503-.374.325-.616.798-.724 1.42h4.096zM219.543 26.309v-7.498h1.582v1.11c.247-.424.572-.755.976-.991.414-.237.893-.355 1.435-.355.838 0 1.494.27 1.967.813.473.542.71 1.291.71 2.248v4.673h-1.583v-4.54c0-.601-.133-1.06-.399-1.375-.266-.316-.661-.474-1.183-.474-.375 0-.71.104-1.006.311a2.017 2.017 0 00-.68.843c-.158.365-.237.789-.237 1.272v3.963h-1.582zM230.721 26.457c-.759 0-1.306-.178-1.641-.533-.335-.364-.503-.877-.503-1.537v-4.274h-1.198V18.81h1.198v-1.937h1.583v1.937h1.582v1.302h-1.582v4.2c0 .286.078.492.236.62.158.119.395.178.71.178.158 0 .365-.02.621-.059v1.272c-.345.088-.68.133-1.006.133zM235.983 26.546c-.887 0-1.622-.207-2.203-.622-.572-.423-.947-.995-1.124-1.715l1.464-.355c.128.454.35.809.665 1.065.326.256.73.384 1.213.384.483 0 .863-.098 1.139-.295.276-.207.414-.464.414-.77 0-.266-.099-.463-.296-.59-.187-.13-.542-.257-1.065-.385l-.266-.06c-.089-.02-.182-.039-.281-.059-.621-.138-1.124-.29-1.508-.458-.385-.168-.681-.395-.888-.68-.197-.286-.295-.656-.295-1.11 0-.463.123-.867.369-1.212a2.33 2.33 0 011.035-.814c.454-.197.972-.295 1.553-.295.809 0 1.459.182 1.952.547.493.365.838.872 1.035 1.523l-1.404.384c-.129-.384-.321-.68-.577-.887-.256-.217-.587-.325-.991-.325-.414 0-.754.089-1.02.266-.257.178-.385.41-.385.695 0 .257.113.449.34.577.237.118.656.246 1.257.384.04 0 .074.005.104.015.029.01.064.02.103.03.671.138 1.203.29 1.597.458.395.168.696.4.903.695.216.286.325.67.325 1.154 0 .483-.128.912-.385 1.286-.256.365-.621.651-1.094.858-.473.207-1.035.31-1.686.31z"/><path fill="#7A708C" d="M131.676 47.609c-.696 0-1.31-.122-1.84-.365a3.246 3.246 0 01-1.279-1.057c-.313-.461-.513-1-.6-1.618l1.057-.21c.061.48.209.892.443 1.24.235.348.54.614.914.796.374.183.804.274 1.292.274.713 0 1.291-.156 1.735-.47.452-.313.679-.747.679-1.304 0-.348-.092-.63-.274-.848-.183-.218-.466-.396-.849-.535-.382-.14-.926-.283-1.631-.43-.704-.14-1.274-.305-1.709-.497-.435-.2-.766-.46-.992-.783-.226-.33-.339-.743-.339-1.24 0-.521.139-.974.418-1.356.287-.383.678-.675 1.174-.875a4.396 4.396 0 011.696-.313c.609 0 1.144.113 1.605.34.461.217.835.521 1.122.913.296.383.505.835.627 1.357l-.992.222c-.157-.583-.435-1.044-.835-1.383-.4-.348-.909-.522-1.527-.522-.67 0-1.209.143-1.618.43-.409.287-.613.661-.613 1.122 0 .305.083.553.248.744.165.192.413.352.744.483.339.13.813.257 1.422.378.774.174 1.401.361 1.879.562.478.19.848.46 1.109.808.27.349.405.8.405 1.358 0 .556-.148 1.044-.444 1.461-.287.418-.696.744-1.227.979-.522.226-1.122.339-1.8.339zM138.725 47.596c-.487 0-.9-.091-1.24-.274a1.918 1.918 0 01-.744-.744 2.074 2.074 0 01-.247-1.005c0-.626.243-1.117.73-1.474.496-.357 1.188-.535 2.075-.535h1.67v-.653a1.32 1.32 0 00-.443-1.017c-.296-.27-.701-.405-1.214-.405-.47 0-.848.118-1.135.352-.287.235-.492.562-.613.98l-.94-.184c.104-.434.283-.8.535-1.096a2.29 2.29 0 01.94-.678 3.377 3.377 0 011.252-.222c.522 0 .975.096 1.357.287.392.183.692.448.901.796.208.34.313.735.313 1.187v4.502h-.953V46.2a2.613 2.613 0 01-.9 1.017c-.374.253-.822.379-1.344.379zm.222-.822c.409 0 .765-.1 1.07-.3.304-.2.535-.466.691-.796a2.35 2.35 0 00.248-1.07v-.326h-1.526c-.636 0-1.123.108-1.462.326a1.045 1.045 0 00-.496.926c0 .383.135.687.405.914.278.217.635.326 1.07.326zM145.696 47.413l-2.636-6.563h1.018l2.114 5.376 2.101-5.376h1.018l-2.623 6.563h-.992zM150.623 47.413V40.85h.978v6.563h-.978zm.496-7.66a.69.69 0 01-.509-.208.69.69 0 01-.209-.509c0-.2.069-.37.209-.509a.69.69 0 01.509-.209c.2 0 .369.07.508.21a.69.69 0 01.209.508c0 .2-.069.37-.209.509a.69.69 0 01-.508.209zM153.745 47.413V40.85h.966v1.083a2.6 2.6 0 01.926-.94c.383-.235.831-.352 1.344-.352.731 0 1.301.235 1.71.705.409.46.613 1.1.613 1.918v4.15h-.979v-4.007c0-.635-.134-1.113-.404-1.435-.261-.322-.657-.483-1.188-.483-.391 0-.739.105-1.043.313a2.093 2.093 0 00-.718.888c-.174.374-.261.813-.261 1.318v3.405h-.966zM164.184 50.101c-.73 0-1.357-.156-1.879-.47a2.405 2.405 0 01-1.057-1.33l.914-.275c.156.4.409.705.757.914.348.217.774.326 1.278.326.427 0 .796-.078 1.11-.235.313-.148.552-.374.717-.678.174-.305.261-.679.261-1.123v-1.213c-.261.4-.596.713-1.005.94a2.84 2.84 0 01-1.357.326 2.97 2.97 0 01-1.565-.418 2.884 2.884 0 01-1.084-1.174c-.252-.505-.378-1.079-.378-1.723 0-.643.126-1.218.378-1.722a2.92 2.92 0 011.07-1.174c.462-.288.988-.431 1.579-.431.496 0 .949.113 1.357.34.409.225.744.534 1.005.926V40.85h.966v6.367c0 .592-.126 1.105-.379 1.54a2.458 2.458 0 01-1.07.992c-.461.235-1 .352-1.618.352zm-.091-3.627c.435 0 .818-.1 1.148-.3.331-.21.587-.5.77-.875.183-.382.274-.826.274-1.33 0-.766-.196-1.375-.587-1.827-.391-.453-.926-.679-1.605-.679-.67 0-1.205.226-1.605.679-.4.452-.6 1.06-.6 1.826 0 .505.091.949.274 1.331.182.374.439.666.77.875.339.2.726.3 1.161.3zM175.893 47.609c-.696 0-1.309-.122-1.84-.365a3.243 3.243 0 01-1.278-1.057c-.314-.461-.514-1-.601-1.618l1.057-.21c.061.48.209.892.444 1.24.235.348.539.614.913.796.374.183.805.274 1.292.274.714 0 1.292-.156 1.736-.47.452-.313.678-.747.678-1.304 0-.348-.091-.63-.274-.848-.183-.218-.465-.396-.848-.535-.383-.14-.926-.283-1.631-.43-.705-.14-1.274-.305-1.709-.497-.435-.2-.766-.46-.992-.783-.226-.33-.339-.743-.339-1.24 0-.521.139-.974.417-1.356.287-.383.679-.675 1.175-.875a4.396 4.396 0 011.696-.313c.609 0 1.144.113 1.605.34.461.217.835.521 1.122.913.296.383.505.835.626 1.357l-.991.222c-.157-.583-.435-1.044-.835-1.383-.401-.348-.91-.522-1.527-.522-.67 0-1.209.143-1.618.43-.409.287-.613.661-.613 1.122 0 .305.082.553.247.744.166.192.414.352.744.483.34.13.814.257 1.423.378.774.174 1.4.361 1.879.562.478.19.848.46 1.109.808.269.349.404.8.404 1.358 0 .556-.148 1.044-.443 1.461-.288.418-.696.744-1.227.979-.522.226-1.122.339-1.801.339zM181.308 49.892V40.85h.966v1.135a2.85 2.85 0 011.004-.979 2.628 2.628 0 011.37-.365c.601 0 1.131.148 1.592.444.461.295.818.709 1.07 1.24.261.53.392 1.134.392 1.813 0 .67-.131 1.27-.392 1.8-.252.531-.613.945-1.083 1.24a2.86 2.86 0 01-1.579.444c-.504 0-.961-.117-1.37-.352a2.966 2.966 0 01-1.004-.992v3.614h-.966zm3.171-3.131c.444 0 .831-.105 1.161-.313.339-.218.6-.522.783-.914.183-.4.274-.865.274-1.396 0-.809-.2-1.448-.6-1.918-.4-.479-.94-.718-1.618-.718-.67 0-1.205.24-1.605.718-.4.47-.6 1.109-.6 1.918 0 .53.091.996.274 1.396.182.392.439.696.77.914.339.208.726.313 1.161.313zM191.2 47.596c-.487 0-.901-.091-1.24-.274a1.918 1.918 0 01-.744-.744 2.074 2.074 0 01-.247-1.005c0-.626.243-1.117.73-1.474.496-.357 1.188-.535 2.075-.535h1.67v-.653a1.32 1.32 0 00-.443-1.017c-.296-.27-.701-.405-1.214-.405-.47 0-.848.118-1.135.352-.287.235-.492.562-.614.98l-.939-.184c.104-.434.283-.8.535-1.096.252-.304.565-.53.939-.678a3.386 3.386 0 011.253-.222c.522 0 .974.096 1.357.287.392.183.692.448.901.796.208.34.313.735.313 1.187v4.502h-.953V46.2a2.613 2.613 0 01-.9 1.017c-.374.253-.822.379-1.344.379zm.222-.822c.409 0 .765-.1 1.07-.3.304-.2.535-.466.691-.796a2.35 2.35 0 00.248-1.07v-.326h-1.527c-.635 0-1.122.108-1.461.326a1.045 1.045 0 00-.496.926c0 .383.135.687.405.914.278.217.635.326 1.07.326zM199.239 47.622c-.644 0-1.214-.148-1.709-.444a3.12 3.12 0 01-1.136-1.24c-.269-.53-.404-1.135-.404-1.813 0-.67.13-1.266.391-1.788.27-.53.648-.944 1.135-1.24.496-.304 1.066-.456 1.71-.456.487 0 .926.091 1.318.274.391.183.717.44.978.77s.444.718.548 1.161l-.913.196c-.122-.461-.348-.83-.678-1.11-.322-.286-.74-.43-1.253-.43-.461 0-.861.118-1.201.352-.33.227-.587.54-.769.94a3.245 3.245 0 00-.261 1.331c0 .496.087.944.261 1.344.182.4.439.713.769.94.34.226.74.339 1.201.339.504 0 .922-.14 1.253-.418.339-.278.569-.64.691-1.083l.914.17a3.058 3.058 0 01-.549 1.161c-.252.33-.574.587-.965.77a3.113 3.113 0 01-1.331.274zM206.451 47.622c-.652 0-1.222-.148-1.709-.444a3.107 3.107 0 01-1.136-1.252c-.261-.531-.391-1.136-.391-1.814 0-.661.13-1.253.391-1.775.261-.53.635-.944 1.123-1.24.487-.304 1.052-.456 1.696-.456.609 0 1.135.144 1.579.43a2.68 2.68 0 011.018 1.188c.235.505.352 1.087.352 1.748 0 .114-.004.214-.013.3h-5.167c.026.81.239 1.427.639 1.853.4.418.94.627 1.618.627.505 0 .909-.118 1.214-.352.313-.244.582-.583.809-1.018l.796.3c-.244.6-.609 1.07-1.097 1.41-.478.33-1.052.495-1.722.495zm1.944-4.071c-.017-.653-.208-1.162-.574-1.527-.357-.365-.822-.548-1.396-.548-.626 0-1.131.187-1.514.561-.382.366-.613.87-.691 1.514h4.175z"/><text fill="#000" style="white-space:pre" font-family="Universal Sans" font-size="17.517" font-weight="850" letter-spacing="0"><tspan x="126.468" y="100.948">£212.00</tspan></text><mask id="mask0_6762_175884" style="mask-type:alpha" width="116" height="116" x="0" y="0" maskUnits="userSpaceOnUse"><path fill="red" d="M0 6.96A6.96 6.96 0 016.96 0h108.199v115.156H6.959A6.96 6.96 0 010 108.196V6.959z"/></mask><g mask="url(#mask0_6762_175884)"><path fill="url(#giftPattern)" d="M0 5.057A5.057 5.057 0 015.057 0H126.05v115.483H5.057A5.057 5.057 0 010 110.426V5.057z"/></g><defs><pattern id="giftPattern" width="1" height="1" patternContentUnits="objectBoundingBox"><use href="#gift" transform="matrix(.0041 0 0 .00444 -.004 -.325)" xlink:href="#image0_6762_175884"/><image href="/images/homepage/gift.jpg" xlink:href="/images/homepage/gift.jpg" id="gift" width="252" height="338"/></pattern></defs></svg>