<svg class="_17d6l4p2" xmlns="http://www.w3.org/2000/svg" fill="none" viewBox="0 0 281 216"><g filter="url(#filter0_d_6620_176203)"><rect width="219" height="30.417" x="31" y="31" fill="#fff" rx="7.604" shape-rendering="crispEdges"/><path fill="#fff" d="M0 0H11.729V11.729H0z" transform="translate(38.604 40.344)"/><path fill="#A4E8E2" d="M50.333 46.208a5.864 5.864 0 11-11.729 0 5.864 5.864 0 0111.729 0z"/><path fill="#1E1937" d="M46.397 44.529a.375.375 0 01.63.403l-.03.047-2.421 3.228a1.002 1.002 0 01-1.478.137l-1.28-1.28a.375.375 0 01.488-.566l.042.036 1.264 1.264.011.009c.1.074.235.065.323-.016l.03-.034 2.421-3.228z"/><rect width="19.547" height="19.547" x="57.937" y="36.435" fill="#007A85" rx="2.443"/><path fill="#FFE300" d="M67.778 40.703c-1.965 0-3.49 1.429-3.49 3.1 0 1.48 1.08 2.276 1.08 2.276.108.084.08.128.005.197 0 0-1.085.882-1.085 2.246 0 1.87 1.673 3.131 3.49 3.131 2.033 0 3.478-1.477 3.478-3.11 0-1.404-1.04-2.233-1.04-2.233-.147-.127-.147-.148 0-.263 0 0 1.04-.782 1.04-2.245 0-1.652-1.484-3.099-3.478-3.099zm-.776 1.608c.099 0 .186.046.237.115a.294.294 0 01.238-.115c.114 0 .212.06.257.147a.287.287 0 01.257-.147c.114 0 .213.06.258.147a.288.288 0 01.257-.147c.157 0 .284.114.284.254s-.127.254-.284.254a.288.288 0 01-.257-.147.288.288 0 01-.258.147.287.287 0 01-.257-.148.288.288 0 01-.257.148.294.294 0 01-.238-.116.27.27 0 01-.076.07.247.247 0 01.123.21.247.247 0 01-.122.207.247.247 0 01.122.209.247.247 0 01-.122.207.272.272 0 01.06.05.297.297 0 01.222-.095c.104 0 .194.05.244.125a.292.292 0 01.244-.125c.103 0 .193.049.243.122a.292.292 0 01.243-.122c.156 0 .284.114.284.254s-.128.254-.284.254a.292.292 0 01-.243-.123.292.292 0 01-.243.123.291.291 0 01-.244-.125.291.291 0 01-.244.124.297.297 0 01-.222-.095.274.274 0 01-.061.05.247.247 0 01.123.21.247.247 0 01-.123.208.247.247 0 01.123.209.247.247 0 01-.123.209.27.27 0 01.076.069.293.293 0 01.238-.116c.114 0 .212.06.257.147a.287.287 0 01.257-.147c.114 0 .213.06.258.147a.288.288 0 01.257-.147c.157 0 .284.114.284.254s-.127.253-.284.253a.287.287 0 01-.257-.146.288.288 0 01-.258.146.287.287 0 01-.257-.147.287.287 0 01-.257.148.293.293 0 01-.237-.115.293.293 0 01-.238.116c-.157 0-.284-.113-.284-.254 0-.086.049-.163.123-.208a.247.247 0 01-.123-.21c0-.086.049-.162.123-.208a.247.247 0 01-.123-.209c0-.087.049-.163.123-.209a.247.247 0 01-.123-.208c0-.087.048-.163.121-.209a.247.247 0 01-.12-.208c0-.086.047-.162.12-.208a.247.247 0 01-.12-.208c0-.086.048-.163.122-.208a.248.248 0 01-.123-.21c0-.14.127-.253.284-.253zm0 4.726c.099 0 .186.046.237.115a.293.293 0 01.238-.115c.114 0 .212.06.257.147a.287.287 0 01.257-.147c.114 0 .213.06.258.147a.288.288 0 01.257-.147c.157 0 .284.114.284.254s-.127.253-.284.253a.288.288 0 01-.257-.146.288.288 0 01-.258.146.287.287 0 01-.257-.147.288.288 0 01-.257.147.294.294 0 01-.238-.114.27.27 0 01-.076.07.247.247 0 01.123.208.247.247 0 01-.122.208.246.246 0 01.122.209.247.247 0 01-.122.208.274.274 0 01.06.05.297.297 0 01.222-.096c.104 0 .194.05.244.125a.291.291 0 01.244-.125c.103 0 .193.049.243.122a.292.292 0 01.243-.122c.156 0 .284.114.284.254s-.128.254-.284.254a.292.292 0 01-.243-.123.292.292 0 01-.243.123.292.292 0 01-.244-.125.291.291 0 01-.244.124.297.297 0 01-.222-.095.273.273 0 01-.061.05.247.247 0 01.123.21.247.247 0 01-.123.208.247.247 0 01.123.209.247.247 0 01-.123.209c.03.018.055.042.076.069a.293.293 0 01.238-.116c.114 0 .212.06.257.148a.287.287 0 01.257-.148c.114 0 .213.06.258.147a.288.288 0 01.257-.147c.157 0 .284.114.284.254s-.127.254-.284.254a.288.288 0 01-.257-.147.288.288 0 01-.258.147.287.287 0 01-.257-.147.288.288 0 01-.257.147.293.293 0 01-.237-.114.293.293 0 01-.238.115c-.157 0-.284-.114-.284-.254 0-.086.049-.163.123-.208a.247.247 0 01-.123-.21c0-.086.049-.162.123-.208a.247.247 0 01-.123-.209c0-.086.049-.163.123-.208a.247.247 0 01-.123-.21c0-.085.048-.162.122-.207a.247.247 0 01-.122-.209c0-.086.048-.162.122-.208a.247.247 0 01-.122-.208c0-.086.049-.163.123-.208a.247.247 0 01-.123-.21c0-.14.127-.253.284-.253z"/><path fill="#776D89" d="M85.914 55.612v-5.59h.612v5.043h2.993v.547h-3.605zm5.48.111c-.296 0-.547-.055-.754-.166a1.163 1.163 0 01-.452-.453 1.26 1.26 0 01-.151-.611c0-.381.148-.68.445-.898.302-.217.722-.325 1.262-.325h1.017v-.397a.803.803 0 00-.27-.62c-.18-.164-.426-.246-.739-.246-.286 0-.516.072-.69.215-.175.143-.3.341-.374.595l-.572-.111c.064-.265.172-.487.326-.667.154-.185.344-.323.572-.413.227-.09.482-.135.762-.135.318 0 .593.058.826.175.238.111.42.272.548.484.127.207.19.447.19.723v2.74h-.58v-.74c-.132.26-.314.467-.547.62-.228.154-.5.23-.818.23zm.136-.5c.249 0 .466-.06.651-.182s.326-.284.42-.485c.102-.2.152-.418.152-.65v-.2h-.93c-.386 0-.682.067-.889.2a.636.636 0 00-.301.563c0 .233.082.418.246.556.17.132.386.198.65.198zm4.431.516c-.45 0-.828-.113-1.135-.341a1.633 1.633 0 01-.603-.93l.563-.134c.08.28.223.503.43.667.206.164.457.246.753.246.318 0 .567-.069.747-.206a.633.633 0 00.27-.524c0-.17-.058-.297-.175-.382-.111-.09-.315-.172-.611-.246a2.49 2.49 0 01-.167-.04 1.536 1.536 0 00-.167-.04 3.89 3.89 0 01-.818-.23 1.189 1.189 0 01-.476-.349c-.106-.148-.159-.339-.159-.572 0-.233.064-.439.19-.619.128-.18.305-.315.533-.405a2.06 2.06 0 01.786-.143c.418 0 .752.1 1 .302.254.196.434.466.54.81l-.524.15a1.14 1.14 0 00-.373-.563c-.164-.138-.379-.207-.643-.207-.275 0-.498.061-.667.183a.553.553 0 00-.246.46c0 .165.071.29.214.374.143.085.39.167.739.246.026.005.05.01.071.016l.064.016c.354.069.635.148.841.238.212.09.37.212.477.365.11.154.166.358.166.612 0 .238-.066.452-.198.643a1.315 1.315 0 01-.556.445 2.16 2.16 0 01-.865.158zm3.811-.071c-.365 0-.63-.087-.794-.262-.159-.18-.238-.426-.238-.739v-2.54h-.675v-.509h.675V50.61h.588v1.008h.889v.508h-.89v2.51c0 .19.046.323.136.397.09.074.235.11.436.11.09 0 .196-.007.318-.023v.492a2.042 2.042 0 01-.445.056zm3.338 1.453v-5.503h.588v.691a1.73 1.73 0 01.611-.595c.249-.149.527-.223.834-.223.365 0 .688.09.969.27.28.18.497.431.651.755.159.322.238.69.238 1.103 0 .408-.079.773-.238 1.096a1.765 1.765 0 01-.659.754c-.281.18-.601.27-.961.27-.307 0-.585-.071-.834-.214a1.8 1.8 0 01-.611-.603v2.2h-.588zm1.93-1.906c.27 0 .505-.063.706-.19.207-.133.366-.318.477-.556a2.03 2.03 0 00.167-.85c0-.492-.122-.881-.366-1.167-.243-.291-.571-.437-.984-.437-.408 0-.733.146-.977.437-.244.286-.365.675-.365 1.167 0 .323.055.606.166.85.112.238.268.423.469.556.206.127.442.19.707.19zm4.09.508c-.297 0-.548-.055-.755-.166a1.158 1.158 0 01-.452-.453 1.256 1.256 0 01-.151-.611c0-.381.148-.68.445-.898.301-.217.722-.325 1.262-.325h1.017v-.397a.803.803 0 00-.27-.62c-.18-.164-.427-.246-.739-.246-.286 0-.516.072-.691.215a1.17 1.17 0 00-.373.595l-.572-.111c.064-.265.172-.487.326-.667.153-.185.344-.323.572-.413.227-.09.481-.135.762-.135.318 0 .593.058.826.175.238.111.421.272.548.484.127.207.19.447.19.723v2.74h-.579v-.74a1.6 1.6 0 01-.548.62 1.43 1.43 0 01-.818.23zm.135-.5c.249 0 .466-.06.651-.182s.325-.284.421-.485c.1-.2.151-.418.151-.65v-.2h-.929c-.387 0-.683.067-.89.2a.637.637 0 00-.302.563c0 .233.083.418.247.556.169.132.386.198.651.198zm3.042.39v-3.995h.595v3.994h-.595zm.301-4.662a.422.422 0 01-.309-.127.42.42 0 01-.127-.31.42.42 0 01.127-.31.422.422 0 01.309-.126c.122 0 .225.042.31.127a.42.42 0 01.127.31.42.42 0 01-.127.31.422.422 0 01-.31.126zm3.187 4.788c-.365 0-.691-.09-.977-.27a1.84 1.84 0 01-.659-.754 2.53 2.53 0 01-.23-1.096c0-.413.077-.78.23-1.103a1.84 1.84 0 01.659-.755c.286-.18.609-.27.969-.27.307 0 .585.074.834.223.254.142.461.34.619.595v-2.454h.588v5.757h-.588v-.69a1.77 1.77 0 01-.619.603 1.628 1.628 0 01-.826.214zm.103-.524c.265 0 .498-.063.699-.19.201-.133.358-.318.469-.556.116-.244.174-.527.174-.85 0-.492-.121-.881-.365-1.167-.243-.291-.569-.437-.977-.437-.413 0-.743.146-.992.437-.244.286-.365.675-.365 1.167 0 .323.055.606.166.85.111.238.27.423.477.556.206.127.444.19.714.19zm7.219.524c-.424 0-.794-.097-1.112-.293-.312-.202-.558-.511-.738-.93-.175-.418-.263-.944-.263-1.58 0-.63.085-1.172.255-1.627.174-.461.428-.81.762-1.049.333-.243.73-.365 1.191-.365.476 0 .86.132 1.151.397.297.265.514.609.652 1.032l-.62.127a1.71 1.71 0 00-.437-.722c-.19-.18-.447-.27-.77-.27-.46 0-.828.193-1.104.58-.27.386-.418.966-.444 1.739.159-.27.378-.482.659-.636.286-.159.606-.238.961-.238.354 0 .675.082.96.246.292.159.517.384.675.675.159.286.239.609.239.969 0 .365-.088.696-.262.992-.175.297-.419.53-.731.7-.307.169-.648.253-1.024.253zm.008-.547c.27 0 .508-.061.714-.183.212-.122.376-.289.493-.5.116-.212.174-.448.174-.707 0-.265-.055-.5-.166-.707a1.241 1.241 0 00-.477-.5 1.38 1.38 0 00-.715-.183c-.269 0-.51.061-.722.183a1.272 1.272 0 00-.492.5 1.408 1.408 0 00-.175.707c0 .249.055.479.167.69.111.213.27.382.476.509.207.127.447.19.723.19zm4.292.476c-.365 0-.63-.087-.794-.262-.158-.18-.238-.426-.238-.739v-2.54h-.675v-.509h.675V50.61h.588v1.008h.889v.508h-.889v2.51c0 .19.045.323.135.397.09.074.235.11.437.11.089 0 .195-.007.317-.023v.492a2.039 2.039 0 01-.445.056zm1.33-.056v-5.757h.588v2.422a1.534 1.534 0 011.373-.786c.445 0 .792.143 1.041.429.248.28.373.67.373 1.167v2.525h-.588v-2.437c0-.387-.082-.678-.246-.874-.164-.196-.408-.294-.731-.294-.238 0-.45.064-.635.19a1.28 1.28 0 00-.437.54c-.1.228-.15.496-.15.803v2.072h-.588zm7.948.127c-.54 0-.958-.142-1.254-.428-.292-.286-.437-.689-.437-1.207v-.27h.611v.27c0 .354.093.622.278.802.185.18.453.27.802.27.35 0 .62-.09.81-.27.191-.18.286-.448.286-.802v-4.082h.611v4.082c0 .518-.15.92-.452 1.207-.297.285-.715.428-1.255.428zm4.452 0c-.45 0-.799-.14-1.048-.42-.249-.286-.373-.678-.373-1.176v-2.525h.595v2.438c0 .386.08.678.239.873.164.191.41.286.738.286.238 0 .447-.06.627-.182a1.28 1.28 0 00.437-.532c.106-.233.159-.503.159-.81v-2.073h.611v3.994h-.611v-.659a1.583 1.583 0 01-.556.58 1.577 1.577 0 01-.818.206zm3.28-.127v-3.994h.587v.66a1.58 1.58 0 01.564-.572c.233-.143.506-.215.818-.215.445 0 .792.143 1.04.429.249.28.374.67.374 1.167v2.525h-.596v-2.437c0-.387-.082-.678-.246-.874-.159-.196-.4-.294-.723-.294-.238 0-.45.064-.635.19a1.28 1.28 0 00-.437.54 1.883 1.883 0 00-.159.803v2.072h-.587z"/><path fill="#1E1937" d="M86.186 43.85v-6.336h4.455v.882h-3.465v1.79h3.087v.838h-3.087v1.944h3.465v.882h-4.455zm5.757 0v-6.336h4.455v.882h-3.465v1.79h3.087v.838h-3.087v1.944h3.465v.882h-4.455zM215.842 44.077a2.76 2.76 0 01-.603-.054 4.38 4.38 0 01-.513-.135 2.285 2.285 0 00-.756-.144c-.21 0-.399.02-.567.063-.168.036-.33.087-.486.153l-.063.036-.36-.756c.378-.21.657-.423.837-.64a1.1 1.1 0 00.234-1.043 1.363 1.363 0 00-.135-.306h-1.053v-.738h.675a3.246 3.246 0 01-.189-.486 2.342 2.342 0 01-.063-.567c0-.396.09-.741.27-1.035.186-.3.45-.531.792-.693.342-.162.741-.243 1.197-.243.426 0 .792.08 1.098.243.306.162.543.38.711.657.174.27.291.573.351.909l-.945.243a1.57 1.57 0 00-.396-.82c-.198-.221-.48-.332-.846-.332-.378 0-.678.102-.9.306-.222.198-.333.47-.333.819 0 .18.027.345.081.495.054.15.129.318.225.504h1.791v.738h-1.512c.018.042.033.084.045.126a.89.89 0 01.045.135c.03.102.045.21.045.324 0 .396-.126.765-.378 1.107.048-.006.123-.01.225-.01.15 0 .282.013.396.037.12.018.237.048.351.09.102.036.201.063.297.08.102.019.21.028.324.028a.795.795 0 00.432-.108c.114-.072.195-.198.243-.378l.882.26a1.394 1.394 0 01-.486.838c-.246.198-.567.297-.963.297zm2.324-.108v-.882l2.475-2.08c.222-.185.396-.347.522-.485.132-.138.243-.291.333-.46.09-.173.135-.365.135-.575 0-.336-.111-.603-.333-.801-.216-.204-.51-.306-.882-.306-.384 0-.684.11-.9.333a1.71 1.71 0 00-.432.81l-.954-.225c.06-.312.18-.603.36-.873.186-.276.438-.501.756-.675.324-.174.711-.261 1.161-.261.444 0 .834.084 1.17.252.336.168.597.402.783.702.186.294.279.615.279.963 0 .378-.069.702-.207.972-.132.27-.294.504-.486.702-.192.198-.435.423-.729.675l-1.575 1.332h3.015v.882h-4.491zm7.762.144c-.546 0-.996-.144-1.35-.432-.348-.294-.603-.696-.765-1.206l.99-.198c.096.294.237.525.423.693.186.168.429.252.729.252.45 0 .807-.183 1.071-.55.27-.371.423-.95.459-1.736-.18.276-.42.492-.72.648a2.098 2.098 0 01-.999.234c-.39 0-.747-.087-1.071-.261a1.942 1.942 0 01-.756-.738 2.24 2.24 0 01-.27-1.107 2.128 2.128 0 011.161-1.935c.36-.192.756-.288 1.188-.288.48 0 .906.11 1.278.333.372.222.666.573.882 1.053.216.474.324 1.077.324 1.809 0 .714-.102 1.329-.306 1.845-.198.51-.492.903-.882 1.179-.39.27-.852.405-1.386.405zm.063-3.07c.264 0 .495-.056.693-.17.204-.12.36-.28.468-.477.114-.204.171-.435.171-.693 0-.252-.054-.483-.162-.693a1.218 1.218 0 00-.459-.495 1.31 1.31 0 00-.693-.18c-.264 0-.498.06-.702.18-.198.12-.351.282-.459.486a1.458 1.458 0 00-.162.693c0 .258.051.489.153.693.108.204.261.366.459.486.204.114.435.17.693.17zm3.678 2.998a.652.652 0 01-.468-.18.652.652 0 01-.18-.468.59.59 0 01.18-.432.636.636 0 01.468-.19c.168 0 .312.064.432.19.126.12.189.264.189.432a.636.636 0 01-.189.468.59.59 0 01-.432.18zm3.405.072c-.546 0-.996-.144-1.35-.432-.348-.294-.603-.696-.765-1.206l.99-.198c.096.294.237.525.423.693.186.168.429.252.729.252.45 0 .807-.183 1.071-.55.27-.371.423-.95.459-1.736-.18.276-.42.492-.72.648a2.098 2.098 0 01-.999.234c-.39 0-.747-.087-1.071-.261a1.942 1.942 0 01-.756-.738 2.24 2.24 0 01-.27-1.107 2.128 2.128 0 011.161-1.935c.36-.192.756-.288 1.188-.288.48 0 .906.11 1.278.333.372.222.666.573.882 1.053.216.474.324 1.077.324 1.809 0 .714-.102 1.329-.306 1.845-.198.51-.492.903-.882 1.179-.39.27-.852.405-1.386.405zm.063-3.07c.264 0 .495-.056.693-.17.204-.12.36-.28.468-.477.114-.204.171-.435.171-.693 0-.252-.054-.483-.162-.693a1.218 1.218 0 00-.459-.495 1.31 1.31 0 00-.693-.18c-.264 0-.498.06-.702.18-.198.12-.351.282-.459.486a1.458 1.458 0 00-.162.693c0 .258.051.489.153.693.108.204.261.366.459.486.204.114.435.17.693.17zm5.72 3.07c-.546 0-.996-.144-1.35-.432-.348-.294-.603-.696-.765-1.206l.99-.198c.096.294.237.525.423.693.186.168.429.252.729.252.45 0 .807-.183 1.071-.55.27-.371.423-.95.459-1.736-.18.276-.42.492-.72.648a2.098 2.098 0 01-.999.234c-.39 0-.747-.087-1.071-.261a1.942 1.942 0 01-.756-.738 2.24 2.24 0 01-.27-1.107 2.128 2.128 0 011.161-1.935c.36-.192.756-.288 1.188-.288.48 0 .906.11 1.278.333.372.222.666.573.882 1.053.216.474.324 1.077.324 1.809 0 .714-.102 1.329-.306 1.845-.198.51-.492.903-.882 1.179-.39.27-.852.405-1.386.405zm.063-3.07c.264 0 .495-.056.693-.17.204-.12.36-.28.468-.477.114-.204.171-.435.171-.693 0-.252-.054-.483-.162-.693a1.218 1.218 0 00-.459-.495 1.31 1.31 0 00-.693-.18c-.264 0-.498.06-.702.18-.198.12-.351.282-.459.486a1.458 1.458 0 00-.162.693c0 .258.051.489.153.693.108.204.261.366.459.486.204.114.435.17.693.17z"/><path fill="#776D89" d="M202.891 54.674v-5.16h1.73c.523 0 .97.102 1.342.307.371.2.655.497.85.888.196.385.293.85.293 1.392 0 .543-.097 1.007-.293 1.393a2.05 2.05 0 01-.85.88c-.372.2-.819.3-1.342.3h-1.73zm1.723-.506c.601 0 1.07-.173 1.408-.52.337-.352.505-.867.505-1.547 0-.68-.168-1.195-.505-1.547-.338-.356-.807-.535-1.408-.535h-1.158v4.15h1.158zm3.535.506v-3.687h.55v3.687h-.55zm.279-4.303a.388.388 0 01-.286-.117.39.39 0 01-.118-.286.39.39 0 01.118-.286.388.388 0 01.286-.117c.112 0 .207.039.285.117a.387.387 0 01.118.286.387.387 0 01-.118.286.387.387 0 01-.285.117zm1.475 4.303v-3.687h.543v.667a1.2 1.2 0 01.41-.506 1.036 1.036 0 01.726-.183c.029 0 .061.005.095.015v.513a1.197 1.197 0 00-.198-.015.933.933 0 00-.755.345c-.185.224-.278.527-.278.909v1.942h-.543zm4.06.117a1.81 1.81 0 01-.96-.249 1.737 1.737 0 01-.638-.703 2.274 2.274 0 01-.22-1.02c0-.37.073-.703.22-.996a1.65 1.65 0 01.63-.697c.274-.17.592-.256.953-.256.342 0 .638.08.887.242.249.156.44.378.572.667.132.283.198.61.198.982 0 .063-.003.12-.007.168h-2.903c.014.455.134.802.359 1.041.225.235.528.352.909.352.283 0 .511-.066.682-.198.176-.136.327-.327.454-.571l.447.168a1.734 1.734 0 01-.615.792c-.269.186-.592.278-.968.278zm1.092-2.287c-.01-.366-.117-.652-.322-.857-.201-.206-.462-.308-.785-.308-.352 0-.635.105-.85.315-.215.205-.345.489-.389.85h2.346zm3.103 2.287c-.362 0-.682-.083-.96-.249a1.748 1.748 0 01-.638-.696 2.211 2.211 0 01-.227-1.02c0-.375.073-.71.22-1.003.151-.298.364-.53.637-.697a1.8 1.8 0 01.961-.256c.273 0 .52.051.74.154.22.102.403.246.55.432.146.186.249.403.308.652l-.513.11a1.189 1.189 0 00-.382-.623c-.18-.16-.415-.242-.703-.242-.259 0-.484.066-.675.198-.185.127-.33.303-.432.528-.098.22-.147.47-.147.748 0 .279.049.53.147.755.102.225.247.4.432.528.191.127.416.19.675.19.283 0 .518-.078.703-.234.191-.157.32-.36.389-.609l.513.096a1.71 1.71 0 01-.308.652c-.142.186-.322.33-.542.433-.22.102-.469.153-.748.153zm3.582-.066c-.337 0-.581-.08-.733-.241-.146-.167-.22-.394-.22-.682v-2.346h-.623v-.469h.623v-.93h.543v.93h.821v.47h-.821v2.316c0 .175.041.298.124.366.083.069.218.103.403.103.084 0 .181-.008.294-.022v.454a1.89 1.89 0 01-.411.051zm3.236-.05v-5.161h1.729c.523 0 .971.102 1.342.307.371.2.655.497.85.888.196.385.293.85.293 1.392 0 .543-.097 1.007-.293 1.393a2.05 2.05 0 01-.85.88c-.371.2-.819.3-1.342.3h-1.729zm1.722-.507c.601 0 1.07-.173 1.408-.52.337-.352.505-.867.505-1.547 0-.68-.168-1.195-.505-1.547-.338-.356-.807-.535-1.408-.535h-1.158v4.15h1.158zm5.082.623c-.366 0-.686-.083-.96-.249a1.751 1.751 0 01-.638-.703 2.287 2.287 0 01-.219-1.02c0-.37.073-.703.219-.996.147-.298.357-.53.631-.697a1.76 1.76 0 01.953-.256c.342 0 .638.08.887.242.249.156.44.378.572.667a2.318 2.318 0 01.19 1.15h-2.903c.015.455.135.802.36 1.041.224.235.527.352.908.352.284 0 .511-.066.682-.198.176-.136.328-.327.455-.571l.447.168a1.729 1.729 0 01-.616.792c-.269.186-.591.278-.968.278zm1.093-2.287c-.01-.366-.118-.652-.323-.857-.2-.206-.462-.308-.784-.308-.352 0-.635.105-.851.315-.215.205-.344.489-.388.85h2.346zm3.396 2.287a1.52 1.52 0 01-.77-.197 1.67 1.67 0 01-.564-.558v.638h-.542V49.36h.542v2.265c.147-.235.335-.418.564-.55.23-.137.487-.205.77-.205.337 0 .635.083.894.249.259.166.46.398.601.696.147.298.22.638.22 1.02 0 .376-.073.713-.22 1.01a1.62 1.62 0 01-1.495.946zm-.095-.483c.249 0 .466-.059.652-.176.191-.122.337-.293.44-.513.103-.225.154-.487.154-.785 0-.454-.112-.813-.337-1.077-.225-.27-.528-.404-.909-.404-.376 0-.677.135-.902.404-.225.264-.337.623-.337 1.077 0 .298.051.56.154.785.103.22.247.39.432.513.191.117.408.176.653.176zm2.764.366v-3.687h.55v3.687h-.55zm.278-4.303a.387.387 0 01-.285-.117.387.387 0 01-.118-.286c0-.112.039-.208.118-.286a.387.387 0 01.285-.117c.113 0 .208.039.286.117a.39.39 0 01.118.286.39.39 0 01-.118.286.388.388 0 01-.286.117zm2.561 4.354c-.337 0-.582-.08-.733-.241-.147-.167-.22-.394-.22-.682v-2.346h-.623v-.469h.623v-.93h.542v.93h.821v.47h-.821v2.316c0 .175.042.298.125.366.083.069.217.103.403.103.083 0 .181-.008.293-.022v.454a1.875 1.875 0 01-.41.051z"/></g><g filter="url(#filter1_d_6620_176203)"><rect width="219" height="30.417" x="31" y="68.827" fill="#fff" rx="7.604" shape-rendering="crispEdges"/><path fill="#fff" d="M0 0H11.729V11.729H0z" transform="translate(38.604 78.171)"/><g clip-path="url(#clip0_6620_176203)"><path fill="#EEE" fill-rule="evenodd" d="M44.33 89.14a5.104 5.104 0 100-10.208 5.104 5.104 0 000 10.207zm0 .76a5.864 5.864 0 100-11.729 5.864 5.864 0 000 11.729z" clip-rule="evenodd"/></g><rect width="19.547" height="19.547" x="57.877" y="74.26" fill="#FFDB04" rx="2.443"/><path fill="#FCCA12" d="M69.112 84.201l-.387-3.968-.392 4.034c.254-.028.513-.05.779-.066z"/><path fill="#59C247" d="M70.056 84.172l.001-3.94h-1.332l.387 3.97c.308-.02.624-.03.944-.03z"/><path fill="#176FC1" d="M68.333 84.267l.392-4.034h-3.482l.001 4.79c.819-.357 1.883-.623 3.089-.756zM67.138 86.064c.048.009.22.059.22.18v1.952h.582v-2.202h-.802v.07zM62.566 85.994v.07c.07.015.222.057.16.194l-.867 1.938h.458l.272-.604h.96l.238.604h.603l-.86-2.202h-.964zm.146 1.325l.39-.867.341.867h-.731zM71.483 85.994v.07c.07.015.222.057.16.194l-.867 1.938h.458l.272-.604h.96l.238.604h.603l-.861-2.202h-.963zm.146 1.325l.39-.867.34.867h-.73zM69.936 88.196l.92-2.202h-.437l-.673 1.615-.643-1.615h-.817v.07c.094.018.201.059.249.18l.776 1.952h.624zM65.904 88.196l.92-2.202h-.436l-.674 1.615-.642-1.615h-.817v.07c.094.018.2.059.248.18l.777 1.952h.624z"/><path fill="#776D89" d="M85.914 93.44v-5.59h.612v5.042h2.993v.548h-3.605zm5.48.11c-.296 0-.547-.055-.754-.166a1.162 1.162 0 01-.452-.453 1.26 1.26 0 01-.151-.61c0-.382.148-.681.445-.898.302-.217.722-.326 1.262-.326h1.017V90.7a.802.802 0 00-.27-.62c-.18-.163-.426-.245-.739-.245-.286 0-.516.071-.69.214-.175.143-.3.341-.374.596l-.572-.112c.064-.264.172-.487.326-.667.154-.185.344-.323.572-.413.227-.09.482-.135.762-.135.318 0 .593.059.826.175.238.111.42.273.548.485.127.206.19.447.19.722v2.74h-.58V92.7c-.132.26-.314.466-.547.62-.228.153-.5.23-.818.23zm.136-.5c.249 0 .466-.06.651-.182s.326-.283.42-.484c.102-.202.152-.419.152-.652v-.198h-.93c-.386 0-.682.066-.889.198a.636.636 0 00-.301.564c0 .233.082.418.246.556.17.132.386.199.65.199zm4.431.517c-.45 0-.828-.114-1.135-.342a1.633 1.633 0 01-.603-.929l.563-.135c.08.28.223.503.43.667.206.164.457.246.753.246.318 0 .567-.068.747-.206a.634.634 0 00.27-.524c0-.17-.058-.297-.175-.381-.111-.09-.315-.172-.611-.246a2.494 2.494 0 01-.167-.04 1.56 1.56 0 00-.167-.04 3.89 3.89 0 01-.818-.23 1.19 1.19 0 01-.476-.35c-.106-.148-.159-.338-.159-.571 0-.233.064-.44.19-.62.128-.18.305-.315.533-.405.233-.095.495-.143.786-.143.418 0 .752.101 1 .302.254.196.434.466.54.81l-.524.151a1.14 1.14 0 00-.373-.564c-.164-.137-.379-.206-.643-.206-.275 0-.498.06-.667.182a.553.553 0 00-.246.461c0 .164.071.289.214.373.143.085.39.167.739.246.026.006.05.01.071.016l.064.016c.354.069.635.148.841.238.212.09.37.212.477.366.11.153.166.357.166.611 0 .238-.066.453-.198.643a1.314 1.314 0 01-.556.445 2.16 2.16 0 01-.865.159zm3.811-.072c-.365 0-.63-.087-.794-.262-.159-.18-.238-.426-.238-.738v-2.541h-.675v-.508h.675v-1.009h.588v1.008h.889v.509h-.89v2.509c0 .19.046.323.136.397.09.074.235.111.436.111.09 0 .196-.008.318-.024v.493a2.036 2.036 0 01-.445.055zm3.338 1.453v-5.502h.588v.69a1.73 1.73 0 01.611-.595 1.6 1.6 0 01.834-.223c.365 0 .688.09.969.27.28.18.497.432.651.755.159.323.238.69.238 1.104 0 .407-.079.772-.238 1.095a1.765 1.765 0 01-.659.755c-.281.18-.601.27-.961.27-.307 0-.585-.072-.834-.215a1.8 1.8 0 01-.611-.603v2.2h-.588zm1.93-1.905c.27 0 .505-.064.706-.19.207-.133.366-.319.477-.557a2.03 2.03 0 00.167-.85c0-.492-.122-.88-.366-1.167-.243-.29-.571-.436-.984-.436-.408 0-.733.145-.977.436-.244.286-.365.675-.365 1.168 0 .322.055.606.166.85.112.237.268.423.469.555.206.127.442.19.707.19zm4.09.508c-.297 0-.548-.056-.755-.167a1.157 1.157 0 01-.452-.453 1.256 1.256 0 01-.151-.61c0-.382.148-.681.445-.898.301-.217.722-.326 1.262-.326h1.017V90.7a.802.802 0 00-.27-.62c-.18-.163-.427-.245-.739-.245-.286 0-.516.071-.691.214a1.17 1.17 0 00-.373.596l-.572-.112c.064-.264.172-.487.326-.667.153-.185.344-.323.572-.413.227-.09.481-.135.762-.135.318 0 .593.059.826.175.238.111.421.273.548.485.127.206.19.447.19.722v2.74h-.579V92.7c-.133.26-.315.466-.548.62a1.43 1.43 0 01-.818.23zm.135-.5c.249 0 .466-.061.651-.183s.325-.283.421-.484c.1-.202.151-.419.151-.652v-.198h-.929c-.387 0-.683.066-.89.198a.637.637 0 00-.302.564.69.69 0 00.247.556c.169.132.386.199.651.199zm3.042.389v-3.995h.595v3.995h-.595zm.301-4.662a.422.422 0 01-.309-.127.42.42 0 01-.127-.31.42.42 0 01.127-.309.422.422 0 01.309-.127c.122 0 .225.042.31.127a.42.42 0 01.127.31.42.42 0 01-.127.31.422.422 0 01-.31.126zm3.187 4.789c-.365 0-.691-.09-.977-.27a1.84 1.84 0 01-.659-.755 2.529 2.529 0 01-.23-1.095c0-.413.077-.781.23-1.104a1.84 1.84 0 01.659-.755c.286-.18.609-.27.969-.27a1.6 1.6 0 01.834.223c.254.143.461.341.619.595v-2.453h.588v5.757h-.588v-.691a1.77 1.77 0 01-.619.603 1.628 1.628 0 01-.826.215zm.103-.524c.265 0 .498-.064.699-.19.201-.133.358-.319.469-.557.116-.243.174-.527.174-.85 0-.492-.121-.88-.365-1.167-.243-.29-.569-.436-.977-.436-.413 0-.743.145-.992.436-.244.286-.365.675-.365 1.168 0 .322.055.606.166.85.111.237.27.423.477.555.206.127.444.19.714.19zm4.916.397v-.548l2.239-1.946a6.72 6.72 0 00.508-.484c.133-.138.244-.294.334-.469a1.23 1.23 0 00.135-.571c0-.344-.117-.62-.349-.826-.228-.212-.533-.318-.914-.318-.397 0-.704.111-.921.334a1.573 1.573 0 00-.421.794l-.603-.135c.053-.26.156-.506.31-.739.153-.238.367-.431.643-.58.275-.153.606-.23.992-.23.371 0 .696.072.977.215.286.143.506.344.659.603.159.254.238.545.238.874 0 .286-.061.55-.182.794-.117.238-.26.447-.429.627a9.722 9.722 0 01-.643.596l-1.684 1.46h2.978v.549h-3.867zm4.947 0v-3.995h.588v.66a1.58 1.58 0 01.564-.572c.233-.143.505-.215.818-.215.444 0 .791.143 1.04.43.249.28.373.669.373 1.166v2.526h-.595v-2.438c0-.387-.082-.678-.247-.874-.158-.195-.399-.293-.722-.293-.238 0-.45.063-.635.19a1.271 1.271 0 00-.437.54 1.884 1.884 0 00-.159.802v2.073h-.588zm6.218.127c-.365 0-.691-.09-.977-.27a1.84 1.84 0 01-.659-.755 2.529 2.529 0 01-.23-1.095c0-.413.077-.781.23-1.104a1.84 1.84 0 01.659-.755c.286-.18.609-.27.969-.27a1.6 1.6 0 01.834.223c.254.143.461.341.619.595v-2.453h.588v5.757h-.588v-.691a1.77 1.77 0 01-.619.603 1.628 1.628 0 01-.826.215zm.103-.524c.265 0 .498-.064.699-.19.201-.133.357-.319.469-.557.116-.243.174-.527.174-.85 0-.492-.121-.88-.365-1.167-.243-.29-.569-.436-.977-.436-.413 0-.743.145-.992.436-.244.286-.366.675-.366 1.168 0 .322.056.606.167.85.111.237.27.423.477.555.206.127.444.19.714.19zm6.56.524c-.54 0-.959-.143-1.255-.43-.291-.285-.437-.687-.437-1.206v-.27h.612v.27c0 .355.092.622.278.802.185.18.452.27.802.27.349 0 .619-.09.81-.27.19-.18.285-.447.285-.802v-4.082h.612v4.082c0 .519-.151.921-.453 1.207-.296.286-.714.429-1.254.429zm4.452 0c-.45 0-.8-.14-1.048-.421-.249-.286-.374-.678-.374-1.175v-2.526h.596v2.438c0 .387.079.678.238.874.164.19.41.286.739.286.238 0 .447-.061.627-.183.185-.127.331-.304.437-.532.105-.233.158-.503.158-.81v-2.073h.612v3.995h-.612v-.66a1.572 1.572 0 01-.555.58 1.58 1.58 0 01-.818.207zm3.279-.127v-3.995h.588v.66a1.58 1.58 0 01.564-.572c.233-.143.505-.215.818-.215.444 0 .791.143 1.04.43.249.28.373.669.373 1.166v2.526h-.596v-2.438c0-.387-.082-.678-.246-.874-.158-.195-.399-.293-.722-.293-.239 0-.45.063-.636.19-.185.127-.33.307-.436.54a1.884 1.884 0 00-.159.802v2.073h-.588z"/><path fill="#1E1937" d="M85.556 81.677l2.448-6.336h1.125l2.448 6.336h-1.062l-.585-1.521h-2.763l-.576 1.52h-1.035zm1.944-2.394h2.097l-1.044-2.736-1.053 2.736zm5.692 2.394l-1.818-4.563h.99l1.313 3.41 1.305-3.41h.99l-1.817 4.563h-.963zm3.634 0v-4.563h.963v4.563h-.963zm.486-5.22a.63.63 0 01-.639-.639.63.63 0 01.639-.64c.174 0 .324.064.45.19a.615.615 0 01.189.45.615.615 0 01-.19.45.615.615 0 01-.45.189zm3.148 5.22l-1.818-4.563h.99l1.314 3.41 1.305-3.41h.99l-1.818 4.563h-.963zm4.753.108a1.77 1.77 0 01-.819-.18 1.32 1.32 0 01-.522-.504c-.12-.21-.18-.441-.18-.693 0-.444.171-.792.513-1.044.342-.252.816-.378 1.422-.378h1.053v-.387a.748.748 0 00-.252-.585c-.162-.156-.393-.234-.693-.234-.276 0-.501.072-.675.216-.168.138-.285.33-.351.576l-.927-.153c.072-.312.198-.576.378-.792.18-.216.402-.378.666-.486a2.34 2.34 0 01.918-.171c.384 0 .717.069.999.207.282.138.498.33.648.576.156.24.234.522.234.846v3.078h-.945v-.783c-.138.27-.333.486-.585.648-.246.162-.54.243-.882.243zm.27-.756c.234 0 .441-.057.621-.171a1.268 1.268 0 00.576-1.062v-.198h-.873c-.378 0-.669.063-.873.189a.604.604 0 00-.297.54c0 .216.078.387.234.513.156.126.36.189.612.189zM214.703 81.904a2.76 2.76 0 01-.603-.054 4.38 4.38 0 01-.513-.135 2.285 2.285 0 00-.756-.144c-.21 0-.399.021-.567.063-.168.036-.33.087-.486.153l-.063.036-.36-.756c.378-.21.657-.423.837-.639a1.1 1.1 0 00.234-1.044 1.363 1.363 0 00-.135-.306h-1.053v-.738h.675a3.246 3.246 0 01-.189-.486 2.342 2.342 0 01-.063-.567c0-.396.09-.74.27-1.035.186-.3.45-.53.792-.693.342-.162.741-.243 1.197-.243.426 0 .792.081 1.098.243.306.162.543.381.711.657.174.27.291.573.351.91l-.945.242a1.57 1.57 0 00-.396-.819c-.198-.222-.48-.333-.846-.333-.378 0-.678.102-.9.306-.222.198-.333.471-.333.82 0 .18.027.344.081.494.054.15.129.318.225.504h1.791v.738h-1.512c.018.042.033.084.045.126a.89.89 0 01.045.135c.03.102.045.21.045.324 0 .396-.126.765-.378 1.107.048-.006.123-.009.225-.009.15 0 .282.012.396.036.12.018.237.048.351.09.102.036.201.063.297.081.102.018.21.027.324.027a.795.795 0 00.432-.108c.114-.072.195-.198.243-.378l.882.261a1.394 1.394 0 01-.486.837c-.246.198-.567.297-.963.297zm2.324-.108v-.882l2.475-2.079c.222-.186.396-.348.522-.486.132-.138.243-.29.333-.459.09-.174.135-.366.135-.576 0-.336-.111-.603-.333-.8-.216-.205-.51-.307-.882-.307-.384 0-.684.111-.9.333a1.71 1.71 0 00-.432.81l-.954-.225c.06-.312.18-.603.36-.873.186-.276.438-.5.756-.675.324-.174.711-.26 1.161-.26.444 0 .834.083 1.17.251.336.168.597.402.784.702.186.294.279.615.279.963 0 .378-.069.702-.207.972-.133.27-.295.504-.487.702-.192.198-.435.423-.729.675l-1.575 1.332h3.016v.882h-4.492zm7.692.144c-.408 0-.768-.072-1.08-.216a2.218 2.218 0 01-.774-.576 2.185 2.185 0 01-.423-.81l.963-.252c.096.294.258.525.486.693.228.168.51.252.846.252.414 0 .744-.117.99-.35.246-.235.369-.556.369-.964 0-.384-.12-.69-.36-.918-.24-.234-.561-.35-.963-.35-.306 0-.561.062-.765.188-.204.12-.369.258-.495.414l-.891-.162.414-3.429h3.772v.882H223.9l-.207 1.701c.168-.126.36-.225.576-.297.222-.072.471-.108.747-.108.42 0 .786.087 1.098.261.318.174.561.42.73.738.174.312.261.672.261 1.08 0 .438-.099.825-.297 1.161-.193.33-.469.591-.829.783-.36.186-.78.28-1.26.28zm3.644-.072a.652.652 0 01-.468-.18.652.652 0 01-.18-.468.59.59 0 01.18-.432.636.636 0 01.468-.189c.168 0 .312.063.432.19.126.12.189.263.189.431a.636.636 0 01-.189.468.59.59 0 01-.432.18zm3.695.072c-.552 0-1.02-.138-1.404-.414-.378-.282-.666-.672-.864-1.17-.192-.498-.288-1.08-.288-1.746 0-.654.099-1.227.297-1.719.198-.498.486-.885.864-1.16.384-.277.846-.415 1.386-.415.54 0 .999.138 1.377.414.378.276.663.663.855 1.161.198.498.297 1.071.297 1.72 0 .665-.096 1.25-.288 1.754-.192.498-.477.885-.855 1.161s-.837.414-1.377.414zm0-.9c.48 0 .852-.213 1.116-.639.27-.426.405-1.023.405-1.79 0-.75-.135-1.336-.405-1.756-.27-.426-.645-.639-1.125-.639-.486 0-.867.213-1.143.64-.27.42-.405 1.004-.405 1.754 0 .768.138 1.365.414 1.791.276.426.657.64 1.143.64zm6.091.9c-.552 0-1.02-.138-1.404-.414-.378-.282-.666-.672-.864-1.17-.192-.498-.288-1.08-.288-1.746 0-.654.099-1.227.297-1.719.198-.498.486-.885.864-1.16.384-.277.846-.415 1.386-.415.54 0 .999.138 1.377.414.378.276.663.663.855 1.161.198.498.297 1.071.297 1.72 0 .665-.096 1.25-.288 1.754-.192.498-.477.885-.855 1.161s-.837.414-1.377.414zm0-.9c.48 0 .852-.213 1.116-.639.27-.426.405-1.023.405-1.79 0-.75-.135-1.336-.405-1.756-.27-.426-.645-.639-1.125-.639-.486 0-.867.213-1.143.64-.27.42-.405 1.004-.405 1.754 0 .768.138 1.365.414 1.791.276.426.657.64 1.143.64z"/><path fill="#776D89" d="M202.891 92.501v-5.16h1.73c.523 0 .97.102 1.342.308.371.2.655.495.85.886.196.386.293.85.293 1.393s-.097 1.007-.293 1.393a2.05 2.05 0 01-.85.88c-.372.2-.819.3-1.342.3h-1.73zm1.723-.506c.601 0 1.07-.173 1.408-.52.337-.352.505-.867.505-1.547 0-.68-.168-1.195-.505-1.546-.338-.357-.807-.536-1.408-.536h-1.158v4.15h1.158zm3.535.506v-3.687h.55v3.687h-.55zm.279-4.303a.388.388 0 01-.286-.117.39.39 0 01-.118-.286.39.39 0 01.118-.286.388.388 0 01.286-.117c.112 0 .207.039.285.117a.387.387 0 01.118.286.387.387 0 01-.118.286.387.387 0 01-.285.117zm1.475 4.303v-3.687h.543v.667a1.2 1.2 0 01.41-.506 1.036 1.036 0 01.726-.183c.029 0 .061.005.095.015v.513a1.197 1.197 0 00-.198-.015.933.933 0 00-.755.345c-.185.224-.278.527-.278.909V92.5h-.543zm4.06.117a1.81 1.81 0 01-.96-.249 1.737 1.737 0 01-.638-.704 2.274 2.274 0 01-.22-1.018c0-.372.073-.704.22-.997a1.65 1.65 0 01.63-.697c.274-.17.592-.256.953-.256.342 0 .638.08.887.242.249.156.44.378.572.667.132.283.198.61.198.982 0 .064-.003.12-.007.169h-2.903c.014.454.134.801.359 1.04.225.235.528.352.909.352.283 0 .511-.066.682-.198.176-.136.327-.327.454-.571l.447.168a1.734 1.734 0 01-.615.792c-.269.186-.592.278-.968.278zm1.092-2.287c-.01-.366-.117-.652-.322-.857-.201-.206-.462-.308-.785-.308-.352 0-.635.105-.85.315-.215.205-.345.489-.389.85h2.346zm3.103 2.287c-.362 0-.682-.083-.96-.249a1.749 1.749 0 01-.638-.696 2.211 2.211 0 01-.227-1.02c0-.375.073-.71.22-1.003.151-.298.364-.53.637-.697a1.8 1.8 0 01.961-.256c.273 0 .52.051.74.154.22.102.403.246.55.432.146.186.249.403.308.653l-.513.11a1.189 1.189 0 00-.382-.624c-.18-.16-.415-.242-.703-.242-.259 0-.484.066-.675.198-.185.127-.33.303-.432.528-.098.22-.147.47-.147.748 0 .279.049.53.147.755.102.225.247.4.432.528.191.127.416.19.675.19.283 0 .518-.078.703-.234.191-.157.32-.36.389-.609l.513.096a1.71 1.71 0 01-.308.652c-.142.186-.322.33-.542.433-.22.102-.469.153-.748.153zm3.582-.066c-.337 0-.581-.08-.733-.241-.146-.167-.22-.394-.22-.682v-2.346h-.623v-.469h.623v-.93h.543v.93h.821v.47h-.821V91.6c0 .175.041.298.124.366.083.069.218.103.403.103.084 0 .181-.008.294-.022v.454a1.89 1.89 0 01-.411.051zm3.236-.05V87.34h1.729c.523 0 .971.102 1.342.308.371.2.655.495.85.886.196.386.293.85.293 1.393s-.097 1.007-.293 1.393a2.05 2.05 0 01-.85.88c-.371.2-.819.3-1.342.3h-1.729zm1.722-.507c.601 0 1.07-.173 1.408-.52.337-.352.505-.867.505-1.547 0-.68-.168-1.195-.505-1.546-.338-.357-.807-.536-1.408-.536h-1.158v4.15h1.158zm5.082.623c-.366 0-.686-.083-.96-.249a1.751 1.751 0 01-.638-.704 2.287 2.287 0 01-.219-1.018c0-.372.073-.704.219-.997.147-.298.357-.53.631-.697a1.76 1.76 0 01.953-.256c.342 0 .638.08.887.242.249.156.44.378.572.667a2.318 2.318 0 01.19 1.15h-2.903c.015.455.135.802.36 1.041.224.235.527.352.908.352.284 0 .511-.066.682-.198.176-.136.328-.327.455-.571l.447.168a1.729 1.729 0 01-.616.792c-.269.186-.591.278-.968.278zm1.093-2.287c-.01-.366-.118-.652-.323-.857-.2-.206-.462-.308-.784-.308-.352 0-.635.105-.851.315-.215.205-.344.489-.388.85h2.346zm3.396 2.287a1.52 1.52 0 01-.77-.197 1.67 1.67 0 01-.564-.558v.638h-.542v-5.314h.542v2.265c.147-.235.335-.418.564-.55.23-.137.487-.205.77-.205.337 0 .635.083.894.249.259.166.46.398.601.696.147.298.22.638.22 1.02 0 .375-.073.713-.22 1.01a1.62 1.62 0 01-1.495.946zm-.095-.483c.249 0 .466-.059.652-.176.191-.123.337-.294.44-.513.103-.225.154-.487.154-.785 0-.454-.112-.813-.337-1.077-.225-.27-.528-.404-.909-.404-.376 0-.677.135-.902.404-.225.264-.337.623-.337 1.077 0 .298.051.56.154.785.103.22.247.39.432.513.191.117.408.176.653.176zm2.764.366v-3.687h.55v3.687h-.55zm.278-4.303a.387.387 0 01-.285-.117.387.387 0 01-.118-.286c0-.112.039-.208.118-.286a.387.387 0 01.285-.117c.113 0 .208.039.286.117a.39.39 0 01.118.286.39.39 0 01-.118.286.388.388 0 01-.286.117zm2.561 4.355c-.337 0-.582-.081-.733-.242-.147-.167-.22-.394-.22-.682v-2.346h-.623v-.469h.623v-.93h.542v.93h.821v.47h-.821V91.6c0 .175.042.298.125.366.083.069.217.103.403.103.083 0 .181-.008.293-.022v.454a1.875 1.875 0 01-.41.051z"/></g><g filter="url(#filter2_d_6620_176203)"><rect width="219" height="30.417" x="31" y="105.659" fill="#fff" rx="7.604" shape-rendering="crispEdges"/><path fill="#fff" d="M0 0H11.729V11.729H0z" transform="translate(38.604 115.003)"/><path fill="#A4E8E2" d="M50.333 120.867a5.865 5.865 0 11-11.73 0 5.865 5.865 0 0111.73 0z"/><path fill="#1E1937" d="M46.397 119.188a.376.376 0 01.63.404l-.03.046-2.421 3.229a1.003 1.003 0 01-1.478.136l-1.28-1.279a.376.376 0 01.488-.567l.042.036 1.264 1.264.011.009a.25.25 0 00.323-.016l.03-.033 2.421-3.229z"/><rect width="19.547" height="19.547" x="57.937" y="111.094" fill="#009FDF" rx="2.443"/><path fill="#fff" fill-rule="evenodd" d="M62.356 121.101a5.226 5.226 0 1110.453 0 5.226 5.226 0 01-10.453 0zm6.224-4.665a.1.1 0 00-.121.098.1.1 0 00.068.094v.001c1.654.497 3.36 1.959 3.36 4.374 0 .779-.217 1.673-.598 2.276-.313.495-.884 1.091-1.825 1.115l-.027.001c-.312 0-.643-.116-.936-.218h-.003c-.303-.107-.617-.216-.916-.216-.298 0-.61.109-.914.215l-.001.001h-.002c-.293.102-.626.218-.936.218l-.028-.001c-.94-.024-1.511-.62-1.825-1.115-.381-.603-.599-1.497-.599-2.276 0-2.415 1.707-3.877 3.361-4.374v-.001a.1.1 0 00.069-.094.1.1 0 00-.122-.098c-2.195.478-3.767 2.467-3.738 4.73.019 1.496.532 2.389.958 2.874.514.585 1.2.92 1.883.92h.008c.442-.002.818-.116 1.15-.216l.002-.001.006-.001c.27-.082.505-.152.728-.152.224 0 .458.07.729.151l.006.002.002.001c.332.1.708.214 1.15.216h.008c.682 0 1.369-.335 1.883-.92.427-.485.94-1.378.958-2.874.029-2.263-1.543-4.252-3.738-4.73zm-2.025 7.284a2.395 2.395 0 01-.89.181c-.632 0-1.15-.283-1.542-.841a.1.1 0 01.084-.158.1.1 0 01.06.02c.383.282.772.47 1.185.47.288 0 .588-.065.917-.197.45-.181.839-.266 1.22-.266.382 0 .77.085 1.222.266.329.132.628.197.917.197.413 0 .803-.188 1.184-.47a.101.101 0 01.061-.02.101.101 0 01.084.158c-.392.558-.91.841-1.542.841-.393 0-.727-.113-.89-.181-.384-.158-.723-.234-1.035-.234-.314 0-.651.076-1.035.234zm2.95 1.57h-.014c-.07.011-.137.017-.197.017l-.054.001h-.035c-.37 0-.532 0-.772-.072l-.162-.047-.003-.001c-.193-.056-.433-.126-.686-.126-.255 0-.495.07-.689.127l-.162.047c-.24.072-.402.072-.773.072h-.034l-.054-.001c-.061 0-.128-.006-.198-.017h-.012c-.053 0-.097.04-.097.09 0 .037.021.067.054.081.58.239 1.323.393 1.965.393.641 0 1.383-.154 1.964-.393a.087.087 0 00.054-.081c0-.05-.043-.09-.096-.09zm-5.493-6.187h.875c.076 0 .138.062.138.138a.139.139 0 01-.138.138H64.6v.948a.15.15 0 01-.15.15.149.149 0 01-.15-.15v-.948h-.287a.138.138 0 010-.276zm1.291-.016a.147.147 0 00-.147.147v1.095c0 .081.066.148.147.148a.148.148 0 00.148-.148v-.446c0-.14.072-.212.185-.212s.179.072.179.212v.446c0 .081.067.148.148.148a.148.148 0 00.148-.148v-.539c0-.24-.13-.387-.354-.387-.15 0-.237.079-.306.167v-.336a.147.147 0 00-.147-.147zm2.558 1.242a.149.149 0 01-.148.148.149.149 0 01-.148-.148v-.771c0-.082.067-.147.148-.147.081 0 .148.065.148.147v.012c.069-.088.158-.167.307-.167.137 0 .24.06.295.165.09-.107.2-.165.342-.165.22 0 .351.132.351.383v.543a.148.148 0 01-.295 0v-.446c0-.14-.062-.212-.173-.212-.111 0-.179.072-.179.212v.446a.148.148 0 01-.147.148.149.149 0 01-.149-.148v-.446c0-.14-.062-.212-.173-.212-.11 0-.179.072-.179.212v.446zm-3.103.556c0 .017.006.039.012.056l.381 1.07c.028.077.084.123.156.123h.031c.072 0 .127-.045.154-.123l.268-.779.268.779c.028.078.082.123.155.123h.03c.073 0 .13-.046.157-.123l.38-1.07a.188.188 0 00.012-.058.144.144 0 00-.148-.144.15.15 0 00-.144.107l-.27.835-.272-.827c-.024-.072-.076-.119-.152-.119h-.023c-.076 0-.13.049-.152.119l-.272.827-.271-.835a.152.152 0 00-.146-.107c-.083 0-.154.062-.154.146zm3.34.054c0-.081.065-.148.147-.148.082 0 .14.067.14.148v.13h.139c.07 0 .126.05.126.12a.122.122 0 01-.126.121h-.14v.476c0 .068.03.101.096.101a.39.39 0 00.045-.004c.076-.01.12.03.123.102a.12.12 0 01-.078.116.425.425 0 01-.169.029c-.18 0-.303-.072-.303-.313v-.507h-.029a.123.123 0 01-.126-.121c0-.07.057-.12.126-.12h.028v-.13zm2.038.314v-.047a.148.148 0 10-.295 0v.771c0 .081.066.148.147.148a.148.148 0 00.148-.148v-.277c0-.209.084-.324.234-.36a.137.137 0 00.112-.138c0-.084-.054-.144-.145-.144-.088 0-.165.094-.2.195zm-2.59.327a.273.273 0 00-.273-.285c-.157 0-.27.114-.27.287 0 .144.102.289.27.289.18 0 .272-.132.272-.291zm-.005.398a.399.399 0 01-.31.15c-.321 0-.522-.248-.522-.543 0-.278.187-.545.512-.545.14 0 .26.06.32.147.011-.097.082-.139.145-.139.099 0 .152.069.152.151v.774a.147.147 0 01-.15.147c-.07 0-.138-.046-.147-.142zm-.723-2.325c.127 0 .273.095.273.285 0 .159-.092.291-.273.291-.167 0-.27-.145-.27-.289 0-.173.114-.287.27-.287zm-.041.833c.103 0 .24-.051.31-.15.008.096.076.142.146.142.086 0 .15-.066.15-.147v-.774c0-.082-.053-.151-.151-.151-.064 0-.134.042-.145.139-.06-.087-.18-.146-.32-.146-.326 0-.512.266-.512.544 0 .295.2.543.522.543zm2.422.802c-.103 0-.196.069-.225.211h.443c-.023-.142-.111-.211-.218-.211zm-.004-.236a.49.49 0 01.506.472c.006.11-.046.175-.164.175h-.56a.246.246 0 00.253.201.33.33 0 00.212-.071c.067-.048.14-.03.173.016.037.051.026.12-.027.167a.541.541 0 01-.363.124.52.52 0 01-.544-.543c0-.325.242-.541.514-.541zm.4-1.203c.028-.141.122-.21.224-.21.107 0 .196.069.218.21h-.442zm.726.026a.491.491 0 00-.506-.473.519.519 0 00-.513.541c0 .31.213.544.543.544a.537.537 0 00.363-.125c.054-.046.064-.115.028-.167-.033-.046-.107-.063-.174-.015a.336.336 0 01-.212.071.247.247 0 01-.252-.201h.56c.117 0 .17-.065.163-.175zm.762-.175a.549.549 0 00-.23-.067c-.095-.003-.135.033-.136.075 0 .046.041.064.085.078.02.007.056.016.097.028.05.013.106.028.145.04.166.053.238.144.238.294 0 .197-.153.334-.426.334a.735.735 0 01-.357-.094.12.12 0 01-.04-.157c.033-.065.111-.07.159-.046.07.035.152.065.236.068.092.004.162-.024.164-.081.002-.053-.05-.074-.11-.088l-.053-.012a2.127 2.127 0 01-.19-.047c-.125-.045-.213-.128-.213-.291 0-.181.156-.329.394-.329.165 0 .278.037.353.091.055.04.073.108.037.169-.035.059-.107.059-.153.035z" clip-rule="evenodd"/><path fill="#776D89" d="M85.914 130.272v-5.591h.612v5.043h2.993v.548h-3.605zm5.48.111c-.296 0-.547-.056-.754-.167a1.162 1.162 0 01-.452-.453c-.1-.185-.151-.389-.151-.611 0-.381.148-.68.445-.897.302-.217.722-.326 1.262-.326h1.017v-.397a.801.801 0 00-.27-.619c-.18-.165-.426-.247-.739-.247-.286 0-.516.072-.69.215-.175.143-.3.341-.374.595l-.572-.111c.064-.264.172-.487.326-.667a1.4 1.4 0 01.572-.413c.227-.09.482-.135.762-.135.318 0 .593.059.826.175.238.111.42.273.548.484.127.207.19.448.19.723v2.74h-.58v-.739a1.592 1.592 0 01-.547.619c-.228.154-.5.231-.818.231zm.136-.501c.249 0 .466-.06.651-.182s.326-.283.42-.485c.102-.201.152-.418.152-.651v-.198h-.93c-.386 0-.682.066-.889.198a.638.638 0 00-.301.564c0 .233.082.418.246.556.17.132.386.198.65.198zm4.431.517c-.45 0-.828-.114-1.135-.342a1.63 1.63 0 01-.603-.929l.563-.135c.08.281.223.503.43.667.206.164.457.246.753.246.318 0 .567-.069.747-.206a.635.635 0 00.27-.524c0-.17-.058-.297-.175-.381-.111-.09-.315-.172-.611-.247a2.107 2.107 0 01-.167-.039 1.609 1.609 0 00-.167-.04 3.922 3.922 0 01-.818-.23 1.19 1.19 0 01-.476-.35c-.106-.148-.159-.338-.159-.571 0-.233.064-.44.19-.62.128-.18.305-.315.533-.405.233-.095.495-.143.786-.143.418 0 .752.101 1 .302.254.196.434.466.54.81l-.524.151a1.137 1.137 0 00-.373-.564c-.164-.138-.379-.206-.643-.206-.275 0-.498.06-.667.182a.554.554 0 00-.246.461c0 .164.071.288.214.373.143.085.39.167.739.246l.071.016.064.016c.354.069.635.148.841.238.212.09.37.212.477.365.11.154.166.358.166.612a1.1 1.1 0 01-.198.643 1.316 1.316 0 01-.556.445 2.158 2.158 0 01-.865.159zm3.811-.072c-.365 0-.63-.087-.794-.262-.159-.18-.238-.426-.238-.738v-2.541h-.675v-.509h.675v-1.008h.588v1.008h.889v.509h-.89v2.509c0 .19.046.323.136.397.09.074.235.111.436.111.09 0 .196-.008.318-.024v.493a2.038 2.038 0 01-.445.055zm3.338 1.453v-5.503h.588v.691a1.73 1.73 0 01.611-.595c.249-.149.527-.223.834-.223.365 0 .688.09.969.27.28.18.497.432.651.755.159.323.238.69.238 1.103 0 .408-.079.773-.238 1.096a1.766 1.766 0 01-.659.755c-.281.18-.601.27-.961.27-.307 0-.585-.072-.834-.215a1.797 1.797 0 01-.611-.603v2.199h-.588zm1.93-1.905c.27 0 .505-.064.706-.191.207-.132.366-.318.477-.556a2.03 2.03 0 00.167-.85c0-.492-.122-.881-.366-1.167-.243-.291-.571-.437-.984-.437-.408 0-.733.146-.977.437-.244.286-.365.675-.365 1.167 0 .323.055.607.166.85.112.238.268.424.469.556.206.127.442.191.707.191zm4.09.508c-.297 0-.548-.056-.755-.167a1.157 1.157 0 01-.452-.453 1.255 1.255 0 01-.151-.611c0-.381.148-.68.445-.897.301-.217.722-.326 1.262-.326h1.017v-.397a.801.801 0 00-.27-.619c-.18-.165-.427-.247-.739-.247-.286 0-.516.072-.691.215a1.169 1.169 0 00-.373.595l-.572-.111a1.58 1.58 0 01.326-.667c.153-.185.344-.323.572-.413.227-.09.481-.135.762-.135.318 0 .593.059.826.175.238.111.421.273.548.484.127.207.19.448.19.723v2.74h-.579v-.739a1.597 1.597 0 01-.548.619 1.427 1.427 0 01-.818.231zm.135-.501c.249 0 .466-.06.651-.182s.325-.283.421-.485c.1-.201.151-.418.151-.651v-.198h-.929c-.387 0-.683.066-.89.198a.638.638 0 00-.302.564.69.69 0 00.247.556c.169.132.386.198.651.198zm3.042.39v-3.995h.595v3.995h-.595zm.301-4.662a.42.42 0 01-.309-.127.419.419 0 01-.127-.309c0-.122.042-.225.127-.31a.42.42 0 01.309-.127c.122 0 .225.042.31.127a.421.421 0 01.127.31.419.419 0 01-.127.309.421.421 0 01-.31.127zm3.187 4.789c-.365 0-.691-.09-.977-.27-.28-.18-.5-.432-.659-.755a2.529 2.529 0 01-.23-1.096c0-.413.077-.78.23-1.103.159-.323.379-.575.659-.755.286-.18.609-.27.969-.27.307 0 .585.074.834.223.254.143.461.341.619.595v-2.454h.588v5.758h-.588v-.691a1.769 1.769 0 01-.619.603 1.629 1.629 0 01-.826.215zm.103-.524c.265 0 .498-.064.699-.191.201-.132.358-.318.469-.556.116-.243.174-.527.174-.85 0-.492-.121-.881-.365-1.167-.243-.291-.569-.437-.977-.437-.413 0-.743.146-.992.437-.244.286-.365.675-.365 1.167 0 .323.055.607.166.85.111.238.27.424.477.556.206.127.444.191.714.191zm4.916.397v-.548l2.239-1.946c.212-.185.381-.347.508-.484.133-.138.244-.294.334-.469.09-.174.135-.365.135-.571 0-.345-.117-.62-.349-.826-.228-.212-.533-.318-.914-.318-.397 0-.704.111-.921.334a1.571 1.571 0 00-.421.794l-.603-.135c.053-.26.156-.506.31-.739a1.71 1.71 0 01.643-.58c.275-.153.606-.23.992-.23.371 0 .696.072.977.215.286.143.506.344.659.603.159.254.238.545.238.874 0 .285-.061.55-.182.794-.117.238-.26.447-.429.627a9.798 9.798 0 01-.643.596l-1.684 1.461h2.978v.548h-3.867zm4.947 0v-3.995h.588v.659c.143-.243.331-.434.564-.571a1.53 1.53 0 01.818-.215c.444 0 .791.143 1.04.429.249.281.373.67.373 1.167v2.526h-.595v-2.438c0-.387-.082-.678-.247-.874-.158-.196-.399-.294-.722-.294-.238 0-.45.064-.635.191a1.27 1.27 0 00-.437.54 1.885 1.885 0 00-.159.802v2.073h-.588zm6.218.127c-.365 0-.691-.09-.977-.27-.28-.18-.5-.432-.659-.755a2.529 2.529 0 01-.23-1.096c0-.413.077-.78.23-1.103.159-.323.379-.575.659-.755.286-.18.609-.27.969-.27.307 0 .585.074.834.223.254.143.461.341.619.595v-2.454h.588v5.758h-.588v-.691a1.769 1.769 0 01-.619.603 1.629 1.629 0 01-.826.215zm.103-.524c.265 0 .498-.064.699-.191.201-.132.357-.318.469-.556.116-.243.174-.527.174-.85 0-.492-.121-.881-.365-1.167-.243-.291-.569-.437-.977-.437-.413 0-.743.146-.992.437-.244.286-.366.675-.366 1.167 0 .323.056.607.167.85.111.238.27.424.477.556.206.127.444.191.714.191zm6.56.524c-.54 0-.959-.143-1.255-.429-.291-.286-.437-.688-.437-1.207v-.27h.612v.27c0 .354.092.622.278.802.185.18.452.27.802.27.349 0 .619-.09.81-.27.19-.18.285-.448.285-.802v-4.082h.612v4.082c0 .519-.151.921-.453 1.207-.296.286-.714.429-1.254.429zm4.452 0c-.45 0-.8-.141-1.048-.421-.249-.286-.374-.678-.374-1.175v-2.526h.596v2.438c0 .387.079.678.238.874.164.19.41.286.739.286.238 0 .447-.061.627-.183.185-.127.331-.305.437-.532.105-.233.158-.503.158-.81v-2.073h.612v3.995h-.612v-.66a1.57 1.57 0 01-.555.58 1.576 1.576 0 01-.818.207zm3.279-.127v-3.995h.588v.659c.143-.243.331-.434.564-.571a1.53 1.53 0 01.818-.215c.444 0 .791.143 1.04.429.249.281.373.67.373 1.167v2.526h-.596v-2.438c0-.387-.082-.678-.246-.874-.158-.196-.399-.294-.722-.294a1.1 1.1 0 00-.636.191c-.185.127-.33.307-.436.54a1.885 1.885 0 00-.159.802v2.073h-.588z"/><path fill="#1E1937" d="M87.698 118.509v-5.454h-2.106v-.882h5.193v.882h-2.097v5.454h-.99zm3.977 0v-6.525h.954v2.637c.15-.258.348-.459.594-.603a1.71 1.71 0 01.864-.216c.516 0 .918.165 1.206.495.288.33.432.786.432 1.368v2.844h-.963v-2.763c0-.366-.08-.645-.243-.837-.162-.192-.402-.288-.72-.288-.234 0-.438.063-.612.189-.174.12-.312.291-.414.513-.096.222-.144.48-.144.774v2.412h-.954zm6.541.108c-.312 0-.585-.06-.819-.18a1.32 1.32 0 01-.522-.504c-.12-.21-.18-.441-.18-.693 0-.444.171-.792.513-1.044.342-.252.816-.378 1.422-.378h1.053v-.387a.748.748 0 00-.252-.585c-.162-.156-.393-.234-.693-.234-.276 0-.5.072-.675.216-.168.138-.285.33-.35.576l-.928-.153c.072-.312.198-.576.378-.792.18-.216.402-.378.666-.486a2.34 2.34 0 01.918-.171c.384 0 .717.069 1 .207.281.138.497.33.647.576.156.24.234.522.234.846v3.078h-.945v-.783c-.138.27-.333.486-.585.648-.246.162-.54.243-.882.243zm.27-.756c.234 0 .441-.057.621-.171a1.268 1.268 0 00.576-1.062v-.198h-.873c-.378 0-.669.063-.873.189a.604.604 0 00-.297.54c0 .216.078.387.234.513.156.126.36.189.612.189zm3.429.648v-4.563h.963v.612a1.49 1.49 0 01.513-.558c.216-.132.465-.198.747-.198.33 0 .609.075.837.225.228.144.39.357.486.639.138-.27.324-.48.558-.63.234-.156.51-.234.828-.234.456 0 .807.129 1.053.387.246.258.369.639.369 1.143v3.177h-.963v-2.979c0-.3-.066-.525-.198-.675-.126-.156-.321-.234-.585-.234a.872.872 0 00-.495.144.967.967 0 00-.342.432 1.84 1.84 0 00-.117.693v2.619h-.963v-2.979c0-.3-.063-.525-.189-.675-.126-.156-.318-.234-.576-.234a.887.887 0 00-.504.144.967.967 0 00-.342.432 1.77 1.77 0 00-.117.684v2.628h-.963zm9.645.144c-.462 0-.867-.102-1.215-.306a2.162 2.162 0 01-.81-.864 2.779 2.779 0 01-.279-1.26c0-.456.09-.867.27-1.233.186-.372.45-.663.792-.873.348-.21.756-.315 1.224-.315.444 0 .825.099 1.143.297.318.198.558.48.72.846.162.36.243.78.243 1.26 0 .09-.003.171-.009.243h-3.447c.03.468.165.822.405 1.062.24.234.564.351.972.351.306 0 .555-.072.747-.216.192-.144.354-.345.486-.603l.774.288c-.18.426-.441.753-.783.981-.342.228-.753.342-1.233.342zm1.152-2.88c-.024-.378-.141-.666-.351-.864-.204-.204-.477-.306-.819-.306-.36 0-.654.102-.882.306-.228.198-.375.486-.441.864h2.493zm3.647 2.88c-.54 0-.987-.126-1.341-.378a1.79 1.79 0 01-.684-1.044l.891-.216c.078.276.213.492.405.648.198.156.444.234.738.234s.525-.06.693-.18c.168-.126.252-.282.252-.468 0-.162-.06-.282-.18-.36-.114-.078-.33-.156-.648-.234l-.162-.036a8.23 8.23 0 00-.171-.036 5.148 5.148 0 01-.918-.279 1.277 1.277 0 01-.54-.414c-.12-.174-.18-.399-.18-.675 0-.282.075-.528.225-.738.15-.216.36-.381.63-.495.276-.12.591-.18.945-.18.492 0 .888.111 1.188.333.3.222.51.531.63.927l-.855.234a1.133 1.133 0 00-.351-.54c-.156-.132-.357-.198-.603-.198-.252 0-.459.054-.621.162a.494.494 0 00-.234.423c0 .156.069.273.207.351.144.072.399.15.765.234a.2.2 0 01.063.009.865.865 0 00.063.018c.408.084.732.177.972.279.24.102.423.243.549.423.132.174.198.408.198.702s-.078.555-.234.783a1.548 1.548 0 01-.666.522c-.288.126-.63.189-1.026.189zm6.461-.144l-1.719-6.336h1.026l1.305 4.977 1.395-4.977h.963l1.386 4.995 1.305-4.995h1.017l-1.71 6.336h-1.143l-1.341-4.815-1.341 4.815h-1.143zm8.435.108c-.312 0-.585-.06-.819-.18a1.32 1.32 0 01-.522-.504c-.12-.21-.18-.441-.18-.693 0-.444.171-.792.513-1.044.342-.252.816-.378 1.422-.378h1.053v-.387a.748.748 0 00-.252-.585c-.162-.156-.393-.234-.693-.234-.276 0-.501.072-.675.216-.168.138-.285.33-.351.576l-.927-.153c.072-.312.198-.576.378-.792.18-.216.402-.378.666-.486a2.34 2.34 0 01.918-.171c.384 0 .717.069.999.207.282.138.498.33.648.576.156.24.234.522.234.846v3.078h-.945v-.783c-.138.27-.333.486-.585.648-.246.162-.54.243-.882.243zm.27-.756c.234 0 .441-.057.621-.171a1.268 1.268 0 00.576-1.062v-.198h-.873c-.378 0-.669.063-.873.189a.604.604 0 00-.297.54c0 .216.078.387.234.513.156.126.36.189.612.189zm4.853.738c-.462 0-.795-.108-.999-.324-.205-.222-.307-.534-.307-.936v-2.601h-.729v-.792h.729v-1.179h.964v1.179h.963v.792h-.963v2.556c0 .174.048.3.144.378.096.072.24.108.432.108.096 0 .222-.012.378-.036v.774c-.21.054-.414.081-.612.081zm3.527.054c-.462 0-.867-.102-1.215-.306a2.162 2.162 0 01-.81-.864 2.779 2.779 0 01-.279-1.26c0-.456.09-.867.27-1.233.186-.372.45-.663.792-.873.348-.21.756-.315 1.224-.315.444 0 .825.099 1.143.297.318.198.558.48.72.846.162.36.243.78.243 1.26 0 .09-.003.171-.009.243h-3.447c.03.468.165.822.405 1.062.24.234.564.351.972.351.306 0 .555-.072.747-.216.192-.144.354-.345.486-.603l.774.288c-.18.426-.441.753-.783.981-.342.228-.753.342-1.233.342zm1.152-2.88c-.024-.378-.141-.666-.351-.864-.204-.204-.477-.306-.819-.306-.36 0-.654.102-.882.306-.228.198-.375.486-.441.864h2.493zm2.009 2.736v-4.563h.963v.801c.12-.264.282-.471.486-.621.21-.15.459-.225.747-.225.054 0 .102.003.144.009.048 0 .096.006.144.018v.909a1.517 1.517 0 00-.297-.027c-.366 0-.663.129-.891.387-.222.258-.333.609-.333 1.053v2.259h-.963zM214.534 118.736a2.76 2.76 0 01-.603-.054 4.38 4.38 0 01-.513-.135 2.285 2.285 0 00-.756-.144c-.21 0-.399.021-.567.063-.168.036-.33.087-.486.153l-.063.036-.36-.756c.378-.21.657-.423.837-.639a1.1 1.1 0 00.234-1.044 1.363 1.363 0 00-.135-.306h-1.053v-.738h.675a3.246 3.246 0 01-.189-.486 2.342 2.342 0 01-.063-.567c0-.396.09-.741.27-1.035.186-.3.45-.531.792-.693.342-.162.741-.243 1.197-.243.426 0 .792.081 1.098.243.306.162.543.381.711.657.174.27.291.573.351.909l-.945.243a1.57 1.57 0 00-.396-.819c-.198-.222-.48-.333-.846-.333-.378 0-.678.102-.9.306-.222.198-.333.471-.333.819 0 .18.027.345.081.495.054.15.129.318.225.504h1.791v.738h-1.512c.018.042.033.084.045.126a.89.89 0 01.045.135c.03.102.045.21.045.324 0 .396-.126.765-.378 1.107.048-.006.123-.009.225-.009.15 0 .282.012.396.036.12.018.237.048.351.09.102.036.201.063.297.081.102.018.21.027.324.027a.795.795 0 00.432-.108c.114-.072.195-.198.243-.378l.882.261a1.394 1.394 0 01-.486.837c-.246.198-.567.297-.963.297zm4.537.027c-.414 0-.78-.069-1.098-.207a2.008 2.008 0 01-.756-.558 2.17 2.17 0 01-.414-.801l.873-.315c.096.3.255.543.477.729.228.186.525.279.891.279.402 0 .726-.102.972-.306.246-.21.369-.486.369-.828 0-.336-.123-.594-.369-.774-.24-.18-.57-.27-.99-.27h-.441v-.81h.432c.372 0 .657-.087.855-.261a.873.873 0 00.306-.684c0-.288-.105-.513-.315-.675-.204-.168-.474-.252-.81-.252-.33 0-.597.084-.801.252a1.457 1.457 0 00-.45.693l-.864-.297c.15-.474.402-.846.756-1.116.354-.276.816-.414 1.386-.414.432 0 .804.078 1.116.234.312.15.546.357.702.621.162.264.243.555.243.873 0 .288-.069.549-.207.783a1.565 1.565 0 01-.621.576c.366.144.636.351.81.621.18.27.27.582.27.936a1.86 1.86 0 01-1.08 1.719c-.348.168-.762.252-1.242.252zm5.704.009c-.492 0-.93-.081-1.314-.243a2.04 2.04 0 01-.882-.684 1.705 1.705 0 01-.315-1.017c0-.378.108-.705.324-.981.216-.282.513-.495.891-.639a1.584 1.584 0 01-.675-.531 1.388 1.388 0 01-.243-.81c0-.33.093-.624.279-.882.192-.264.456-.468.792-.612a2.73 2.73 0 011.125-.225c.42 0 .798.075 1.134.225.336.144.597.348.783.612.192.258.288.552.288.882 0 .306-.081.573-.243.801a1.648 1.648 0 01-.675.54c.372.15.666.366.882.648.216.276.324.6.324.972 0 .384-.108.723-.324 1.017a2.04 2.04 0 01-.882.684 3.15 3.15 0 01-1.269.243zm0-.864c.426 0 .768-.105 1.026-.315.258-.21.387-.489.387-.837 0-.222-.06-.42-.18-.594a1.113 1.113 0 00-.495-.405 1.8 1.8 0 00-.738-.144c-.288 0-.543.048-.765.144a1.174 1.174 0 00-.504.405c-.12.174-.18.372-.18.594 0 .354.129.636.387.846.258.204.612.306 1.062.306zm-.009-3.024c.36 0 .648-.084.864-.252a.837.837 0 00.333-.693.861.861 0 00-.333-.702c-.222-.186-.51-.279-.864-.279-.36 0-.651.09-.873.27a.87.87 0 00-.333.711c0 .288.108.519.324.693.222.168.516.252.882.252zm3.841 3.816a.652.652 0 01-.468-.18.652.652 0 01-.18-.468.59.59 0 01.18-.432.636.636 0 01.468-.189c.168 0 .312.063.432.189.126.12.189.264.189.432a.636.636 0 01-.189.468.59.59 0 01-.432.18zm3.695.072c-.552 0-1.02-.138-1.404-.414-.378-.282-.666-.672-.864-1.17-.192-.498-.288-1.08-.288-1.746 0-.654.099-1.227.297-1.719.198-.498.486-.885.864-1.161.384-.276.846-.414 1.386-.414.54 0 .999.138 1.377.414.378.276.663.663.855 1.161.198.498.297 1.071.297 1.719 0 .666-.096 1.251-.288 1.755-.192.498-.477.885-.855 1.161s-.837.414-1.377.414zm0-.9c.48 0 .852-.213 1.116-.639.27-.426.405-1.023.405-1.791 0-.75-.135-1.335-.405-1.755-.27-.426-.645-.639-1.125-.639-.486 0-.867.213-1.143.639-.27.42-.405 1.005-.405 1.755 0 .768.138 1.365.414 1.791.276.426.657.639 1.143.639zm6.09.9c-.552 0-1.02-.138-1.404-.414-.378-.282-.666-.672-.864-1.17-.192-.498-.288-1.08-.288-1.746 0-.654.099-1.227.297-1.719.198-.498.486-.885.864-1.161.384-.276.846-.414 1.386-.414.54 0 .999.138 1.377.414.378.276.664.663.856 1.161.198.498.297 1.071.297 1.719 0 .666-.096 1.251-.288 1.755-.192.498-.478.885-.856 1.161s-.837.414-1.377.414zm0-.9c.48 0 .852-.213 1.116-.639.27-.426.405-1.023.405-1.791 0-.75-.135-1.335-.405-1.755-.27-.426-.645-.639-1.125-.639-.486 0-.867.213-1.143.639-.27.42-.405 1.005-.405 1.755 0 .768.138 1.365.414 1.791.276.426.657.639 1.143.639z"/><path fill="#776D89" d="M202.891 129.333v-5.16h1.73c.523 0 .97.102 1.342.307.371.201.655.496.85.887.196.386.293.851.293 1.393 0 .543-.097 1.007-.293 1.393a2.057 2.057 0 01-.85.88c-.372.2-.819.3-1.342.3h-1.73zm1.723-.506c.601 0 1.07-.173 1.408-.52.337-.352.505-.868.505-1.547 0-.679-.168-1.195-.505-1.547-.338-.356-.807-.535-1.408-.535h-1.158v4.149h1.158zm3.535.506v-3.687h.55v3.687h-.55zm.279-4.303a.389.389 0 01-.286-.117.391.391 0 01-.118-.286c0-.112.04-.208.118-.286a.389.389 0 01.286-.117c.112 0 .207.039.285.117a.387.387 0 01.118.286.387.387 0 01-.118.286.388.388 0 01-.285.117zm1.475 4.303v-3.687h.543v.667a1.2 1.2 0 01.41-.506 1.037 1.037 0 01.726-.183.34.34 0 01.095.015v.513a1.174 1.174 0 00-.198-.015.932.932 0 00-.755.345c-.185.224-.278.527-.278.909v1.942h-.543zm4.06.117c-.367 0-.687-.083-.96-.249a1.732 1.732 0 01-.638-.704 2.272 2.272 0 01-.22-1.019c0-.371.073-.703.22-.996.147-.299.357-.531.63-.697.274-.171.592-.256.953-.256.342 0 .638.08.887.242a1.5 1.5 0 01.572.667c.132.283.198.61.198.982 0 .063-.003.12-.007.168h-2.903c.014.455.134.802.359 1.041.225.235.528.352.909.352.283 0 .511-.066.682-.198.176-.137.327-.327.454-.571l.447.168a1.738 1.738 0 01-.615.792c-.269.186-.592.278-.968.278zm1.092-2.287c-.01-.366-.117-.652-.322-.857-.201-.206-.462-.308-.785-.308-.352 0-.635.105-.85.315-.215.205-.345.489-.389.85h2.346zm3.103 2.287c-.362 0-.682-.083-.96-.249a1.749 1.749 0 01-.638-.696 2.212 2.212 0 01-.227-1.019c0-.376.073-.711.22-1.004.151-.299.364-.531.637-.697a1.8 1.8 0 01.961-.256c.273 0 .52.051.74.154.22.102.403.246.55.432.146.186.249.403.308.652l-.513.11a1.191 1.191 0 00-.382-.623c-.18-.161-.415-.242-.703-.242-.259 0-.484.066-.675.198-.185.127-.33.303-.432.528-.098.22-.147.469-.147.748 0 .278.049.53.147.755.102.225.247.401.432.528.191.127.416.19.675.19.283 0 .518-.078.703-.234.191-.157.32-.36.389-.609l.513.096a1.715 1.715 0 01-.308.652c-.142.186-.322.33-.542.432-.22.103-.469.154-.748.154zm3.582-.066c-.337 0-.581-.08-.733-.242-.146-.166-.22-.393-.22-.681v-2.346h-.623v-.469h.623v-.931h.543v.931h.821v.469h-.821v2.316c0 .176.041.299.124.367.083.068.218.103.403.103.084 0 .181-.008.294-.022v.454a1.901 1.901 0 01-.411.051zm3.236-.051v-5.16h1.729c.523 0 .971.102 1.342.307.371.201.655.496.85.887.196.386.293.851.293 1.393 0 .543-.097 1.007-.293 1.393a2.057 2.057 0 01-.85.88c-.371.2-.819.3-1.342.3h-1.729zm1.722-.506c.601 0 1.07-.173 1.408-.52.337-.352.505-.868.505-1.547 0-.679-.168-1.195-.505-1.547-.338-.356-.807-.535-1.408-.535h-1.158v4.149h1.158zm5.082.623c-.366 0-.686-.083-.96-.249a1.746 1.746 0 01-.638-.704 2.285 2.285 0 01-.219-1.019c0-.371.073-.703.219-.996a1.64 1.64 0 01.631-.697 1.76 1.76 0 01.953-.256c.342 0 .638.08.887.242a1.5 1.5 0 01.572.667c.131.283.197.61.197.982 0 .063-.002.12-.007.168h-2.903c.015.455.135.802.36 1.041.224.235.527.352.908.352.284 0 .511-.066.682-.198.176-.137.328-.327.455-.571l.447.168a1.733 1.733 0 01-.616.792c-.269.186-.591.278-.968.278zm1.093-2.287c-.01-.366-.118-.652-.323-.857-.2-.206-.462-.308-.784-.308-.352 0-.635.105-.851.315-.215.205-.344.489-.388.85h2.346zm3.396 2.287a1.52 1.52 0 01-.77-.198 1.66 1.66 0 01-.564-.557v.638h-.542v-5.314h.542v2.265c.147-.235.335-.418.564-.55.23-.137.487-.205.77-.205.337 0 .635.083.894.249.259.166.46.398.601.696.147.298.22.638.22 1.019 0 .376-.073.714-.22 1.012a1.62 1.62 0 01-1.495.945zm-.095-.483c.249 0 .466-.059.652-.176.191-.123.337-.294.44-.513a1.87 1.87 0 00.154-.785c0-.454-.112-.814-.337-1.077-.225-.269-.528-.404-.909-.404-.376 0-.677.135-.902.404-.225.263-.337.623-.337 1.077 0 .298.051.56.154.785.103.219.247.39.432.513.191.117.408.176.653.176zm2.764.366v-3.687h.55v3.687h-.55zm.278-4.303a.388.388 0 01-.285-.117.387.387 0 01-.118-.286c0-.112.039-.208.118-.286a.388.388 0 01.285-.117c.113 0 .208.039.286.117a.391.391 0 01.118.286c0 .112-.04.208-.118.286a.389.389 0 01-.286.117zm2.561 4.354c-.337 0-.582-.08-.733-.242-.147-.166-.22-.393-.22-.681v-2.346h-.623v-.469h.623v-.931h.542v.931h.821v.469h-.821v2.316c0 .176.042.299.125.367.083.068.217.103.403.103.083 0 .181-.008.293-.022v.454a1.886 1.886 0 01-.41.051z"/></g><g filter="url(#filter3_d_6620_176203)"><rect width="219" height="40.131" x="31" y="144.482" fill="#E7F9F7" rx="4.586" shape-rendering="crispEdges"/><path fill="#7A708C" d="M38.774 175.267v-6.054h2.657c.361 0 .674.069.937.207.264.132.462.318.594.559.137.235.206.496.206.782 0 .31-.077.582-.232.817-.155.235-.37.41-.645.525a1.51 1.51 0 011.092 1.496c0 .315-.072.599-.215.851a1.547 1.547 0 01-.628.602c-.27.144-.587.215-.954.215h-2.812zm2.726-.576c.378 0 .673-.103.886-.309.212-.207.318-.482.318-.826 0-.338-.106-.61-.319-.817-.212-.206-.507-.309-.885-.309h-2.064v2.261H41.5zm-.103-2.812c.35 0 .619-.094.808-.284.195-.195.292-.452.292-.774 0-.309-.1-.559-.3-.748-.196-.189-.474-.283-.835-.283h-1.926v2.089h1.96zm4.353 3.509c-.32 0-.593-.06-.816-.181a1.254 1.254 0 01-.49-.49 1.365 1.365 0 01-.164-.662c0-.413.16-.737.481-.972.327-.235.783-.352 1.368-.352h1.1v-.43a.869.869 0 00-.292-.671c-.195-.178-.461-.267-.8-.267-.31 0-.559.078-.748.232-.189.155-.324.37-.404.645l-.62-.12c.07-.287.187-.527.353-.722.167-.201.373-.35.62-.448.246-.097.521-.146.825-.146.344 0 .642.063.895.189.258.121.455.296.593.525.137.224.206.484.206.783v2.966h-.627v-.799a1.722 1.722 0 01-.594.67c-.246.167-.542.25-.886.25zm.147-.542c.269 0 .504-.066.705-.198.2-.132.352-.306.456-.524.108-.218.163-.453.163-.705v-.215h-1.006c-.419 0-.74.071-.963.215a.687.687 0 00-.327.61c0 .252.089.453.266.602.184.143.419.215.706.215zm4.799.559c-.487 0-.897-.123-1.23-.37a1.767 1.767 0 01-.653-1.006l.61-.146c.086.304.24.545.465.722.223.178.495.267.816.267.344 0 .614-.075.809-.224a.685.685 0 00.292-.567c0-.184-.063-.321-.189-.413-.12-.098-.341-.186-.662-.267a2.1 2.1 0 01-.18-.043 1.856 1.856 0 00-.181-.043 4.195 4.195 0 01-.886-.249 1.3 1.3 0 01-.516-.378c-.115-.161-.172-.367-.172-.62 0-.252.069-.475.206-.67.138-.195.33-.341.576-.439.253-.103.536-.155.852-.155.453 0 .814.109 1.083.327.276.212.47.505.585.877l-.567.164a1.233 1.233 0 00-.405-.611c-.177-.149-.41-.224-.696-.224-.298 0-.54.066-.722.198a.599.599 0 00-.267.499c0 .178.077.312.232.404.155.092.422.181.8.267a.94.94 0 01.077.017l.069.017c.384.075.688.161.912.258.229.098.4.229.516.396.12.166.18.387.18.662 0 .258-.072.49-.215.696a1.42 1.42 0 01-.602.482 2.333 2.333 0 01-.937.172zm4.694 0c-.43 0-.806-.097-1.127-.292a2.046 2.046 0 01-.748-.826 2.674 2.674 0 01-.258-1.195c0-.436.086-.826.258-1.17.172-.35.419-.622.74-.817a2.07 2.07 0 011.118-.301c.401 0 .748.095 1.04.284.293.184.516.444.671.783.155.332.232.716.232 1.152 0 .074-.003.14-.008.198h-3.406c.017.533.158.94.422 1.221.263.275.619.413 1.066.413.332 0 .599-.078.8-.233a2 2 0 00.533-.67l.524.197c-.16.396-.4.706-.722.929-.315.218-.694.327-1.135.327zm1.281-2.683c-.011-.43-.137-.765-.378-1.006-.235-.241-.542-.361-.92-.361-.413 0-.745.123-.998.369-.252.241-.404.574-.456.998h2.752zm3.52 2.683c-.396 0-.748-.097-1.058-.292a1.992 1.992 0 01-.714-.817 2.733 2.733 0 01-.249-1.187c0-.447.083-.846.25-1.195.171-.35.41-.622.713-.817.31-.195.66-.293 1.05-.293.332 0 .633.081.902.241.276.155.5.37.671.645v-2.657h.636v6.234h-.636v-.748a1.933 1.933 0 01-.67.654c-.27.155-.568.232-.895.232zm.112-.568c.286 0 .539-.068.757-.206.217-.143.386-.344.507-.602.126-.264.19-.57.19-.92 0-.533-.133-.955-.396-1.264-.264-.316-.617-.473-1.058-.473-.447 0-.806.157-1.075.473-.264.309-.396.731-.396 1.264 0 .35.06.656.18.92.121.258.293.459.517.602.223.138.481.206.774.206zm7.516.568c-.413 0-.78-.097-1.1-.292a2.06 2.06 0 01-.758-.809 2.531 2.531 0 01-.275-1.195c0-.447.09-.846.267-1.195.183-.35.435-.622.757-.817a2.14 2.14 0 011.118-.293c.412 0 .776.098 1.092.293.32.195.57.467.748.817.177.349.266.748.266 1.195 0 .447-.088.846-.266 1.195a2 2 0 01-.748.809 2.05 2.05 0 01-1.101.292zm0-.568c.298 0 .556-.068.774-.206a1.31 1.31 0 00.499-.593c.12-.264.18-.574.18-.929 0-.356-.06-.665-.18-.929a1.303 1.303 0 00-.5-.602 1.378 1.378 0 00-.773-.215c-.298 0-.56.072-.783.215a1.414 1.414 0 00-.507.611c-.12.258-.18.564-.18.92 0 .35.06.656.18.92.12.258.29.459.507.602.224.138.485.206.783.206zm3.24.43v-4.325h.637v.714c.155-.264.358-.47.61-.62.253-.154.548-.232.886-.232.482 0 .857.155 1.127.465.27.303.404.725.404 1.264v2.734h-.645v-2.64c0-.418-.089-.733-.267-.946-.172-.212-.433-.318-.782-.318-.258 0-.487.069-.688.207-.2.137-.358.332-.473.584a2.043 2.043 0 00-.172.869v2.244h-.636zm7.12 0v-6.234h.637v6.234h-.637zm3.153.121c-.32 0-.593-.06-.816-.181a1.254 1.254 0 01-.49-.49 1.365 1.365 0 01-.164-.662c0-.413.16-.737.482-.972.326-.235.782-.352 1.367-.352h1.1v-.43a.87.87 0 00-.292-.671c-.195-.178-.461-.267-.8-.267-.31 0-.559.078-.748.232-.189.155-.324.37-.404.645l-.62-.12c.07-.287.187-.527.353-.722.167-.201.373-.35.62-.448.246-.097.521-.146.825-.146.344 0 .642.063.895.189.257.121.455.296.593.525.138.224.206.484.206.783v2.966h-.627v-.799a1.722 1.722 0 01-.594.67c-.246.167-.542.25-.886.25zm.147-.542c.27 0 .504-.066.705-.198.2-.132.352-.306.456-.524.109-.218.163-.453.163-.705v-.215h-1.006c-.419 0-.74.071-.963.215a.687.687 0 00-.327.61c0 .252.089.453.266.602.184.143.419.215.706.215zm4.799.559c-.487 0-.897-.123-1.23-.37a1.767 1.767 0 01-.653-1.006l.61-.146c.086.304.24.545.465.722.223.178.495.267.817.267.343 0 .613-.075.808-.224a.685.685 0 00.292-.567c0-.184-.063-.321-.189-.413-.12-.098-.341-.186-.662-.267a2.083 2.083 0 01-.18-.043 1.865 1.865 0 00-.181-.043 4.196 4.196 0 01-.886-.249 1.3 1.3 0 01-.516-.378c-.115-.161-.172-.367-.172-.62 0-.252.069-.475.206-.67.138-.195.33-.341.576-.439.253-.103.537-.155.852-.155.453 0 .814.109 1.083.327.276.212.47.505.585.877l-.567.164a1.233 1.233 0 00-.405-.611c-.177-.149-.41-.224-.696-.224-.298 0-.539.066-.722.198a.599.599 0 00-.267.499c0 .178.077.312.232.404.155.092.422.181.8.267a.96.96 0 01.077.017l.07.017c.383.075.687.161.91.258.23.098.402.229.517.396.12.166.18.387.18.662 0 .258-.072.49-.215.696a1.42 1.42 0 01-.602.482 2.333 2.333 0 01-.937.172zm4.127-.077c-.396 0-.683-.095-.86-.284-.172-.195-.258-.462-.258-.8v-2.752h-.731v-.55h.73v-1.092h.637v1.092h.963v.55h-.963v2.718c0 .206.049.349.146.43.098.08.255.12.473.12.098 0 .212-.009.344-.026v.533a2.16 2.16 0 01-.481.061zm3.614 1.573v-5.959h.637v.748a1.88 1.88 0 01.662-.645c.27-.16.57-.241.903-.241a1.9 1.9 0 011.05.293c.303.195.538.467.704.817.172.349.258.748.258 1.195 0 .441-.086.837-.258 1.187a1.913 1.913 0 01-.713.817c-.304.195-.651.292-1.041.292-.333 0-.633-.077-.903-.232a1.959 1.959 0 01-.662-.654v2.382h-.637zm2.09-2.064c.293 0 .548-.068.766-.206.223-.143.395-.344.516-.602.12-.264.18-.57.18-.92 0-.533-.132-.955-.395-1.264-.264-.316-.62-.473-1.067-.473-.441 0-.794.157-1.058.473-.263.309-.395.731-.395 1.264 0 .35.06.656.18.92.12.258.29.459.508.602.223.138.479.206.765.206zm4.429.551c-.321 0-.593-.06-.816-.181a1.255 1.255 0 01-.49-.49 1.364 1.364 0 01-.164-.662c0-.413.16-.737.482-.972.326-.235.782-.352 1.367-.352h1.101v-.43a.87.87 0 00-.293-.671c-.195-.178-.461-.267-.8-.267-.309 0-.558.078-.748.232-.189.155-.324.37-.404.645l-.619-.12c.069-.287.186-.527.353-.722.166-.201.372-.35.619-.448.246-.097.521-.146.825-.146.344 0 .642.063.895.189.258.121.455.296.593.525.138.224.206.484.206.783v2.966h-.627v-.799a1.73 1.73 0 01-.594.67 1.54 1.54 0 01-.886.25zm.147-.542c.269 0 .504-.066.705-.198.2-.132.352-.306.456-.524.109-.218.163-.453.163-.705v-.215h-1.006c-.419 0-.74.071-.963.215a.687.687 0 00-.327.61c0 .252.089.453.267.602.183.143.418.215.705.215zm4.988 2.193c-.43 0-.8-.092-1.109-.275a1.41 1.41 0 01-.637-.791l.585-.19c.092.224.238.396.439.516.206.126.453.19.739.19.258 0 .479-.052.662-.155a.957.957 0 00.43-.447c.104-.195.155-.439.155-.731v-.757a1.625 1.625 0 01-.602.628 1.644 1.644 0 01-.868.223c-.476 0-.849-.152-1.118-.456-.264-.309-.396-.731-.396-1.264v-2.588h.637v2.494c0 .412.086.725.258.937.172.206.432.31.782.31.252 0 .476-.066.671-.198.201-.138.355-.33.464-.576.115-.253.172-.545.172-.877v-2.09h.654v4.196c0 .39-.08.728-.241 1.015a1.536 1.536 0 01-.671.654 2.093 2.093 0 01-1.006.232zm3.345-1.772v-4.334h.637v.628a1.384 1.384 0 011.264-.757c.321 0 .587.075.799.224.218.149.373.361.465.636a1.431 1.431 0 011.35-.86c.43 0 .762.124.997.37.236.241.353.599.353 1.075v3.018h-.645v-2.872c0-.344-.072-.602-.215-.774-.143-.172-.361-.258-.653-.258a.999.999 0 00-.577.172c-.16.109-.289.27-.387.482a1.893 1.893 0 00-.137.765v2.485h-.645v-2.872c0-.344-.072-.602-.215-.774-.143-.172-.361-.258-.654-.258a.979.979 0 00-.567.172c-.161.109-.29.27-.387.482a1.753 1.753 0 00-.146.757v2.493h-.637zm9.046.138c-.43 0-.806-.097-1.127-.292a2.048 2.048 0 01-.748-.826 2.674 2.674 0 01-.258-1.195c0-.436.086-.826.258-1.17.172-.35.419-.622.74-.817.321-.2.693-.301 1.117-.301.402 0 .749.095 1.041.284.292.184.516.444.671.783a2.696 2.696 0 01.223 1.35h-3.405c.017.533.158.94.421 1.221.264.275.62.413 1.067.413.332 0 .599-.078.799-.233.207-.16.385-.384.534-.67l.524.197a2.02 2.02 0 01-.722.929c-.315.218-.694.327-1.135.327zm1.281-2.683c-.011-.43-.138-.765-.378-1.006-.235-.241-.542-.361-.921-.361-.412 0-.745.123-.997.369-.252.241-.404.574-.456.998h2.752zm1.783 2.545v-4.325h.636v.714c.155-.264.359-.47.611-.62.252-.154.547-.232.886-.232.481 0 .857.155 1.126.465.27.303.404.725.404 1.264v2.734h-.645v-2.64c0-.418-.088-.733-.266-.946-.172-.212-.433-.318-.783-.318-.258 0-.487.069-.688.207-.2.137-.358.332-.473.584a2.054 2.054 0 00-.172.869v2.244h-.636zm6.269.061c-.395 0-.682-.095-.859-.284-.172-.195-.258-.462-.258-.8v-2.752h-.731v-.55h.731v-1.092h.636v1.092h.963v.55h-.963v2.718c0 .206.049.349.146.43.098.08.255.12.473.12.098 0 .212-.009.344-.026v.533a2.16 2.16 0 01-.482.061zm4.785.06c-.321 0-.593-.06-.817-.181a1.254 1.254 0 01-.49-.49 1.365 1.365 0 01-.164-.662c0-.413.161-.737.482-.972.327-.235.783-.352 1.367-.352h1.101v-.43a.869.869 0 00-.292-.671c-.195-.178-.462-.267-.8-.267-.31 0-.559.078-.748.232-.189.155-.324.37-.404.645l-.62-.12a1.71 1.71 0 01.353-.722c.166-.201.373-.35.619-.448.247-.097.522-.146.826-.146.344 0 .642.063.894.189.258.121.456.296.593.525.138.224.207.484.207.783v2.966h-.628v-.799a1.72 1.72 0 01-.593.67c-.247.167-.542.25-.886.25zm.146-.542a1.25 1.25 0 001.161-.722c.109-.218.163-.453.163-.705v-.215h-1.006c-.418 0-.739.071-.963.215a.687.687 0 00-.327.61c0 .252.089.453.267.602.183.143.418.215.705.215zm3.312.421v-4.334h.636v.628a1.384 1.384 0 011.264-.757c.321 0 .588.075.8.224a1.2 1.2 0 01.464.636 1.434 1.434 0 011.35-.86c.43 0 .763.124.998.37.235.241.352.599.352 1.075v3.018h-.644v-2.872c0-.344-.072-.602-.215-.774-.144-.172-.362-.258-.654-.258a.993.993 0 00-.576.172c-.161.109-.29.27-.387.482a1.875 1.875 0 00-.138.765v2.485h-.645v-2.872c0-.344-.071-.602-.215-.774-.143-.172-.361-.258-.653-.258a.982.982 0 00-.568.172c-.16.109-.289.27-.387.482a1.768 1.768 0 00-.146.757v2.493h-.636zm9.045.138c-.413 0-.78-.097-1.101-.292a2.055 2.055 0 01-.756-.809 2.525 2.525 0 01-.276-1.195c0-.447.089-.846.267-1.195.184-.35.436-.622.757-.817a2.14 2.14 0 011.118-.293c.413 0 .777.098 1.092.293.321.195.57.467.748.817.178.349.267.748.267 1.195 0 .447-.089.846-.267 1.195a2.001 2.001 0 01-1.849 1.101zm0-.568c.298 0 .556-.068.774-.206.218-.138.384-.335.499-.593.12-.264.18-.574.18-.929 0-.356-.06-.665-.18-.929a1.305 1.305 0 00-.499-.602 1.38 1.38 0 00-.774-.215c-.298 0-.559.072-.782.215a1.418 1.418 0 00-.508.611c-.12.258-.18.564-.18.92 0 .35.06.656.18.92.121.258.29.459.508.602.223.138.484.206.782.206zm4.703.568c-.488 0-.866-.152-1.135-.456-.27-.309-.405-.734-.405-1.273v-2.734h.645v2.64c0 .418.086.734.258.946.178.206.445.309.8.309.258 0 .485-.066.679-.197.201-.138.359-.33.473-.577.115-.252.172-.544.172-.877v-2.244h.663v4.325h-.663v-.713a1.701 1.701 0 01-.602.627 1.707 1.707 0 01-.885.224zm3.551-.138v-4.325h.637v.714c.155-.264.358-.47.61-.62a1.67 1.67 0 01.886-.232c.482 0 .857.155 1.127.465.269.303.404.725.404 1.264v2.734h-.645v-2.64c0-.418-.089-.733-.267-.946-.172-.212-.433-.318-.782-.318-.258 0-.488.069-.688.207a1.37 1.37 0 00-.473.584 2.039 2.039 0 00-.172.869v2.244h-.637zm6.27.061c-.396 0-.682-.095-.86-.284-.172-.195-.258-.462-.258-.8v-2.752h-.731v-.55h.731v-1.092h.636v1.092h.963v.55h-.963v2.718c0 .206.049.349.146.43.098.08.256.12.473.12.098 0 .213-.009.344-.026v.533a2.152 2.152 0 01-.481.061zm2.919.077c-.487 0-.897-.123-1.23-.37a1.766 1.766 0 01-.653-1.006l.61-.146c.086.304.241.545.465.722.223.178.496.267.817.267.344 0 .613-.075.808-.224a.685.685 0 00.292-.567c0-.184-.063-.321-.189-.413-.12-.098-.341-.186-.662-.267a2.126 2.126 0 01-.181-.043 1.825 1.825 0 00-.18-.043 4.204 4.204 0 01-.886-.249 1.295 1.295 0 01-.516-.378c-.115-.161-.172-.367-.172-.62 0-.252.069-.475.206-.67a1.25 1.25 0 01.577-.439c.252-.103.536-.155.851-.155.453 0 .814.109 1.084.327.275.212.47.505.584.877l-.567.164a1.236 1.236 0 00-.404-.611c-.178-.149-.41-.224-.697-.224-.298 0-.539.066-.722.198a.598.598 0 00-.267.499c0 .178.077.312.232.404.155.092.422.181.8.267a.91.91 0 01.077.017l.069.017c.384.075.688.161.912.258.229.098.401.229.516.396.12.166.18.387.18.662 0 .258-.071.49-.215.696a1.414 1.414 0 01-.602.482 2.33 2.33 0 01-.937.172z"/><path fill="#2C1C49" d="M38.806 161.361V154.5h4.825v.955h-3.752v1.94h3.343v.906h-3.343v2.105h3.752v.955h-4.825zm7.68.156c-.584 0-1.068-.136-1.452-.409a1.938 1.938 0 01-.74-1.13l.964-.234c.085.298.231.532.439.701.214.169.48.254.8.254.318 0 .568-.065.75-.195.181-.137.273-.306.273-.507 0-.175-.066-.305-.195-.39-.124-.084-.358-.169-.702-.253l-.176-.039a8.909 8.909 0 00-.185-.039 5.618 5.618 0 01-.994-.302 1.383 1.383 0 01-.585-.449c-.13-.188-.194-.432-.194-.731 0-.305.08-.571.243-.799.163-.234.39-.412.682-.536.3-.13.64-.195 1.024-.195.532 0 .961.12 1.286.361.325.24.552.575.682 1.004l-.925.253a1.233 1.233 0 00-.38-.585c-.17-.143-.387-.214-.654-.214-.273 0-.497.058-.672.175a.535.535 0 00-.253.458c0 .169.074.296.224.381.156.077.432.162.828.253.026 0 .049.003.068.01.02.006.043.013.069.019.441.091.792.192 1.052.302.26.111.458.263.595.458.143.189.214.442.214.761 0 .318-.084.601-.253.847-.17.241-.41.429-.722.566-.311.136-.682.204-1.11.204zm4.832-.058c-.5 0-.86-.117-1.082-.351-.22-.24-.331-.578-.331-1.014v-2.816h-.79v-.858h.79v-1.277h1.043v1.277h1.043v.858h-1.043v2.768c0 .188.052.325.156.409.104.078.26.117.468.117.103 0 .24-.013.409-.039v.838a2.633 2.633 0 01-.663.088zm1.694-.098v-4.941h1.043v4.941h-1.043zm.526-5.652a.682.682 0 01-.692-.692.684.684 0 01.692-.692c.189 0 .35.068.487.204a.667.667 0 01.205.488.665.665 0 01-.205.487.664.664 0 01-.487.205zm1.987 5.652v-4.941h1.043v.663c.142-.26.328-.461.555-.604a1.52 1.52 0 01.809-.215c.357 0 .66.081.906.244.247.156.423.386.527.692.15-.293.35-.52.604-.682.253-.169.552-.254.896-.254.494 0 .874.14 1.14.419.267.28.4.692.4 1.238v3.44h-1.042v-3.226c0-.324-.072-.568-.215-.73-.136-.169-.348-.254-.633-.254a.944.944 0 00-.536.156c-.156.104-.28.26-.37.468a1.991 1.991 0 00-.127.75v2.836h-1.043v-3.226c0-.324-.069-.568-.205-.73-.136-.169-.344-.254-.624-.254a.96.96 0 00-.545.156c-.156.104-.28.26-.37.468a1.914 1.914 0 00-.127.741v2.845h-1.043zm9.577.117c-.338 0-.634-.065-.887-.195a1.428 1.428 0 01-.566-.545 1.49 1.49 0 01-.195-.751c0-.481.186-.857.556-1.13.37-.273.884-.41 1.54-.41h1.14v-.419a.808.808 0 00-.273-.633c-.175-.169-.425-.254-.75-.254-.3 0-.543.078-.731.234-.182.15-.309.358-.38.624l-1.004-.166a2.03 2.03 0 01.41-.857c.194-.234.434-.41.72-.527.293-.123.624-.185.995-.185.415 0 .776.075 1.081.224.306.15.54.358.702.624.169.26.253.565.253.916v3.333H66.69v-.847c-.15.292-.36.526-.633.701-.267.176-.585.263-.956.263zm.292-.818c.253 0 .477-.062.672-.185a1.374 1.374 0 00.624-1.15v-.215h-.945c-.41 0-.725.068-.946.205a.653.653 0 00-.321.585c0 .233.084.419.253.555.17.137.39.205.663.205zm5.254.799c-.5 0-.86-.117-1.081-.351-.221-.24-.332-.578-.332-1.014v-2.816h-.79v-.858h.79v-1.277h1.043v1.277h1.043v.858h-1.043v2.768c0 .188.052.325.156.409.104.078.26.117.468.117.104 0 .24-.013.41-.039v.838a2.634 2.634 0 01-.663.088zm3.82.058c-.5 0-.939-.11-1.316-.331a2.335 2.335 0 01-.877-.936 3.004 3.004 0 01-.302-1.364c0-.494.098-.939.293-1.335.201-.403.487-.718.857-.946.377-.227.819-.341 1.326-.341.48 0 .893.107 1.237.322.345.214.605.52.78.916.175.39.263.845.263 1.364 0 .098-.003.186-.01.264h-3.732c.032.506.178.89.438 1.15.26.253.611.38 1.053.38.331 0 .6-.078.809-.234.208-.156.383-.374.526-.653l.838.312c-.195.461-.477.815-.848 1.062-.37.247-.815.37-1.335.37zm1.248-3.118c-.026-.41-.153-.722-.38-.936-.221-.221-.517-.331-.887-.331-.39 0-.709.11-.956.331-.246.214-.405.526-.477.936h2.7zm4.172 3.118c-.448 0-.848-.11-1.198-.331a2.317 2.317 0 01-.81-.936 3.117 3.117 0 01-.282-1.354c0-.507.094-.959.283-1.355a2.24 2.24 0 01.809-.936c.35-.227.747-.341 1.189-.341.344 0 .656.078.935.234.286.15.527.361.722.634v-2.836h1.033v7.065h-1.034v-.701a2.178 2.178 0 01-.72.633c-.28.15-.589.224-.927.224zm.215-.896c.286 0 .536-.068.75-.205.221-.143.39-.344.507-.604.117-.26.175-.565.175-.916 0-.533-.13-.955-.39-1.267-.253-.312-.6-.468-1.042-.468-.442 0-.793.156-1.053.468-.253.312-.38.734-.38 1.267 0 .351.059.656.176.916.117.26.282.461.497.604.22.137.474.205.76.205zm6.316.74v-4.941h1.043v.663c.143-.26.328-.461.555-.604a1.52 1.52 0 01.81-.215c.357 0 .659.081.906.244.246.156.422.386.526.692.15-.293.35-.52.604-.682.254-.169.552-.254.897-.254.494 0 .874.14 1.14.419.266.28.4.692.4 1.238v3.44h-1.043v-3.226c0-.324-.072-.568-.215-.73-.136-.169-.347-.254-.633-.254a.944.944 0 00-.536.156c-.156.104-.28.26-.37.468a1.991 1.991 0 00-.127.75v2.836h-1.043v-3.226c0-.324-.068-.568-.205-.73-.136-.169-.344-.254-.623-.254a.96.96 0 00-.546.156c-.156.104-.28.26-.37.468a1.914 1.914 0 00-.127.741v2.845h-1.043zm10.454.156c-.487 0-.92-.11-1.296-.331a2.344 2.344 0 01-.887-.926c-.215-.396-.322-.851-.322-1.364 0-.507.104-.959.312-1.355.214-.403.51-.715.887-.936a2.533 2.533 0 011.316-.341c.48 0 .91.114 1.286.341.377.221.67.533.877.936.215.396.322.848.322 1.355 0 .506-.107.961-.322 1.364-.208.396-.5.705-.877.926a2.514 2.514 0 01-1.296.331zm0-.887c.292 0 .546-.068.76-.204.215-.143.377-.345.487-.604.117-.26.176-.569.176-.926a2.24 2.24 0 00-.176-.926 1.26 1.26 0 00-.487-.604 1.338 1.338 0 00-.76-.215c-.293 0-.546.072-.76.215a1.39 1.39 0 00-.497.604 2.24 2.24 0 00-.176.926c0 .351.059.656.176.916.117.26.282.461.497.604.22.143.474.214.76.214zm3.651.731v-4.941h1.043v.731c.162-.279.377-.497.643-.653.273-.156.588-.234.946-.234.552 0 .984.179 1.296.536.312.358.468.851.468 1.482v3.079h-1.043v-2.992c0-.396-.088-.698-.263-.906-.176-.208-.436-.312-.78-.312-.247 0-.468.068-.663.205a1.33 1.33 0 00-.448.555 2.1 2.1 0 00-.156.839v2.611h-1.043zm7.367.098c-.5 0-.861-.117-1.082-.351-.221-.24-.331-.578-.331-1.014v-2.816h-.79v-.858h.79v-1.277h1.043v1.277h1.043v.858h-1.043v2.768c0 .188.052.325.156.409.104.078.26.117.467.117.104 0 .241-.013.41-.039v.838a2.635 2.635 0 01-.663.088zm1.722-.098v-7.065h1.034v2.855c.162-.279.376-.497.643-.653.273-.156.585-.234.935-.234.559 0 .995.179 1.306.536.312.358.468.851.468 1.482v3.079h-1.043v-2.992c0-.396-.087-.698-.263-.906-.175-.208-.435-.312-.779-.312-.254 0-.475.068-.663.205-.189.13-.338.315-.448.555a2.1 2.1 0 00-.156.839v2.611h-1.034zm5.69 0v-7.065h1.033v7.065h-1.033zm4.417 2.008c-.513 0-.955-.114-1.325-.341a1.645 1.645 0 01-.741-.965l.955-.282c.091.233.234.412.429.536.201.123.442.185.721.185.26 0 .481-.049.663-.146a.92.92 0 00.409-.449c.098-.195.146-.435.146-.721v-.741a1.76 1.76 0 01-.643.653 1.797 1.797 0 01-.926.234c-.545 0-.971-.178-1.276-.536-.306-.357-.458-.851-.458-1.481v-2.895h1.033v2.807c0 .396.084.699.253.906.175.202.432.303.77.303.247 0 .461-.065.643-.195.189-.13.335-.315.439-.556.11-.24.165-.52.165-.838v-2.427h1.082v4.737c0 .455-.097.848-.292 1.179a1.84 1.84 0 01-.819.77c-.351.175-.76.263-1.228.263zm7.825-1.91c-.5 0-.861-.117-1.082-.351-.221-.24-.331-.578-.331-1.014v-2.816h-.79v-.858h.79v-1.277h1.043v1.277h1.043v.858h-1.043v2.768c0 .188.052.325.156.409.104.078.26.117.467.117.104 0 .241-.013.41-.039v.838a2.641 2.641 0 01-.663.088zm3.829.058c-.487 0-.919-.11-1.296-.331a2.347 2.347 0 01-.887-.926c-.214-.396-.321-.851-.321-1.364 0-.507.104-.959.312-1.355.214-.403.51-.715.886-.936a2.535 2.535 0 011.316-.341c.481 0 .91.114 1.287.341.376.221.669.533.877.936.214.396.321.848.321 1.355 0 .506-.107.961-.321 1.364a2.283 2.283 0 01-.877.926 2.515 2.515 0 01-1.297.331zm0-.887c.293 0 .546-.068.761-.204a1.34 1.34 0 00.487-.604c.117-.26.175-.569.175-.926a2.24 2.24 0 00-.175-.926 1.264 1.264 0 00-.487-.604 1.34 1.34 0 00-.761-.215 1.34 1.34 0 00-.76.215c-.214.143-.38.344-.497.604a2.24 2.24 0 00-.175.926c0 .351.058.656.175.916.117.26.283.461.497.604.221.143.475.214.76.214zm5.289.829c-.5 0-.861-.117-1.082-.351-.221-.24-.331-.578-.331-1.014v-2.816h-.79v-.858h.79v-1.277h1.043v1.277h1.042v.858h-1.042v2.768c0 .188.052.325.156.409.103.078.259.117.467.117.104 0 .241-.013.41-.039v.838a2.641 2.641 0 01-.663.088zm3 .019c-.338 0-.634-.065-.887-.195a1.427 1.427 0 01-.565-.545 1.489 1.489 0 01-.195-.751c0-.481.185-.857.555-1.13.371-.273.884-.41 1.54-.41h1.14v-.419a.808.808 0 00-.273-.633c-.175-.169-.425-.254-.75-.254-.299 0-.542.078-.731.234-.182.15-.309.358-.38.624l-1.004-.166c.078-.337.215-.623.409-.857.195-.234.436-.41.722-.527.292-.123.623-.185.994-.185.416 0 .776.075 1.082.224.305.15.539.358.701.624.169.26.254.565.254.916v3.333h-1.024v-.847c-.149.292-.36.526-.633.701-.267.176-.585.263-.955.263zm.292-.818c.254 0 .478-.062.673-.185a1.38 1.38 0 00.623-1.15v-.215h-.945c-.409 0-.724.068-.945.205a.652.652 0 00-.322.585c0 .233.084.419.253.555.169.137.39.205.663.205zm3.625.701v-7.065h1.033v7.065h-1.033z"/><path fill="#1E1937" d="M211.675 168.519c-.314 0-.57-.023-.769-.069a5.658 5.658 0 01-.653-.172 2.917 2.917 0 00-.493-.138 2.116 2.116 0 00-.47-.046 2.96 2.96 0 00-.723.081c-.214.046-.42.111-.619.195l-.08.046-.459-.964c.482-.267.837-.539 1.067-.814.237-.283.355-.588.355-.917 0-.145-.019-.283-.057-.413a1.747 1.747 0 00-.172-.39h-1.342v-.94h.86a4.271 4.271 0 01-.241-.619 3.01 3.01 0 01-.08-.722c0-.505.115-.944.344-1.319a2.33 2.33 0 011.009-.883c.436-.206.944-.309 1.525-.309.543 0 1.009.103 1.399.309.39.207.692.486.906.837.221.344.371.73.447 1.158l-1.204.31a2.007 2.007 0 00-.504-1.044c-.253-.282-.612-.424-1.078-.424-.482 0-.864.13-1.147.39-.283.252-.424.6-.424 1.043 0 .23.034.44.103.631.069.191.164.405.287.642h2.281v.94h-1.926c.023.054.042.107.058.161.022.053.042.111.057.172.038.13.057.267.057.413 0 .504-.16.974-.481 1.41.061-.008.156-.011.286-.011.191 0 .36.015.505.045.153.023.302.062.447.115.13.046.256.08.378.103.13.023.268.035.413.035.222 0 .405-.046.55-.138.146-.092.249-.252.31-.482l1.124.333c-.092.451-.298.806-.619 1.066-.314.253-.723.379-1.227.379zm6.286.046c-.619 0-1.166-.142-1.64-.425-.474-.283-.848-.726-1.123-1.33-.276-.611-.413-1.383-.413-2.316 0-.909.13-1.689.39-2.339.26-.657.634-1.158 1.123-1.502.497-.352 1.09-.527 1.778-.527.695 0 1.265.187 1.708.561.443.367.768.876.975 1.525l-1.262.253c-.122-.375-.302-.669-.539-.883-.237-.214-.546-.321-.928-.321-.574 0-1.032.237-1.376.711-.337.466-.528 1.2-.574 2.201.23-.352.532-.627.906-.825a2.74 2.74 0 011.284-.299c.505 0 .96.111 1.365.333.405.222.722.539.952.952.237.405.355.871.355 1.398 0 .551-.134 1.04-.401 1.468-.26.428-.619.765-1.078 1.009a3.224 3.224 0 01-1.502.356zm0-1.078c.336 0 .631-.077.883-.23.26-.152.458-.359.596-.619.145-.26.218-.554.218-.883a1.85 1.85 0 00-.207-.882 1.487 1.487 0 00-.584-.608 1.672 1.672 0 00-.883-.229 1.73 1.73 0 00-.895.229 1.57 1.57 0 00-.596.608 1.794 1.794 0 00-.206.871c0 .321.069.615.206.883.138.267.333.478.585.63.252.153.547.23.883.23zm5.078.894l3.039-6.948h-4.483v-1.124h5.778v1.124l-3.05 6.948h-1.284zm4.448.092a.833.833 0 01-.596-.229.833.833 0 01-.229-.597.75.75 0 01.229-.55.807.807 0 01.596-.241.73.73 0 01.55.241.731.731 0 01.241.55.81.81 0 01-.241.597.752.752 0 01-.55.229zm4.338.092c-.696 0-1.269-.184-1.72-.551-.443-.374-.768-.887-.975-1.536l1.262-.252c.122.374.302.668.539.882.236.214.546.321.928.321.574 0 1.028-.233 1.365-.699.344-.474.539-1.212.584-2.213a2.39 2.39 0 01-.917.826 2.681 2.681 0 01-1.273.298c-.496 0-.951-.111-1.364-.333a2.47 2.47 0 01-.963-.94 2.859 2.859 0 01-.344-1.41 2.715 2.715 0 011.479-2.465 3.162 3.162 0 011.514-.367c.611 0 1.154.141 1.628.424.474.283.848.73 1.123 1.341.276.604.413 1.372.413 2.305 0 .91-.13 1.693-.39 2.351-.252.649-.627 1.15-1.123 1.502-.497.344-1.086.516-1.766.516zm.08-3.91c.336 0 .631-.073.883-.218.26-.153.459-.356.596-.608.145-.26.218-.554.218-.883a1.91 1.91 0 00-.206-.883 1.56 1.56 0 00-.585-.63 1.67 1.67 0 00-.883-.23 1.73 1.73 0 00-.894.23 1.569 1.569 0 00-.585.619c-.138.26-.206.554-.206.883 0 .328.065.623.194.883.138.26.333.466.585.619.26.145.554.218.883.218zm7.288 3.91c-.696 0-1.269-.184-1.72-.551-.444-.374-.768-.887-.975-1.536l1.261-.252c.123.374.302.668.539.882.237.214.547.321.929.321.573 0 1.028-.233 1.364-.699.344-.474.539-1.212.585-2.213a2.39 2.39 0 01-.917.826 2.684 2.684 0 01-1.273.298c-.497 0-.951-.111-1.364-.333a2.47 2.47 0 01-.963-.94 2.848 2.848 0 01-.344-1.41c0-.551.133-1.04.401-1.468a2.76 2.76 0 011.078-.997 3.158 3.158 0 011.513-.367c.612 0 1.155.141 1.628.424.474.283.849.73 1.124 1.341.275.604.413 1.372.413 2.305 0 .91-.13 1.693-.39 2.351-.252.649-.627 1.15-1.124 1.502-.496.344-1.085.516-1.765.516zm.08-3.91c.336 0 .631-.073.883-.218.26-.153.458-.356.596-.608.145-.26.218-.554.218-.883a1.9 1.9 0 00-.207-.883 1.55 1.55 0 00-.584-.63 1.672 1.672 0 00-.883-.23 1.73 1.73 0 00-.895.23 1.566 1.566 0 00-.584.619c-.138.26-.207.554-.207.883 0 .328.065.623.195.883.138.26.333.466.585.619.26.145.554.218.883.218z"/></g><defs><filter id="filter0_d_6620_176203" width="280.32" height="91.737" x="0.34" y="0.34" color-interpolation-filters="sRGB" filterUnits="userSpaceOnUse"><feFlood flood-opacity="0" result="BackgroundImageFix"/><feColorMatrix in="SourceAlpha" result="hardAlpha" values="0 0 0 0 0 0 0 0 0 0 0 0 0 0 0 0 0 0 127 0"/><feOffset/><feGaussianBlur stdDeviation="15.33"/><feComposite in2="hardAlpha" operator="out"/><feColorMatrix values="0 0 0 0 0 0 0 0 0 0 0 0 0 0 0 0 0 0 0.04 0"/><feBlend in2="BackgroundImageFix" result="effect1_dropShadow_6620_176203"/><feBlend in="SourceGraphic" in2="effect1_dropShadow_6620_176203" result="shape"/></filter><filter id="filter1_d_6620_176203" width="280.32" height="91.737" x="0.34" y="38.167" color-interpolation-filters="sRGB" filterUnits="userSpaceOnUse"><feFlood flood-opacity="0" result="BackgroundImageFix"/><feColorMatrix in="SourceAlpha" result="hardAlpha" values="0 0 0 0 0 0 0 0 0 0 0 0 0 0 0 0 0 0 127 0"/><feOffset/><feGaussianBlur stdDeviation="15.33"/><feComposite in2="hardAlpha" operator="out"/><feColorMatrix values="0 0 0 0 0 0 0 0 0 0 0 0 0 0 0 0 0 0 0.04 0"/><feBlend in2="BackgroundImageFix" result="effect1_dropShadow_6620_176203"/><feBlend in="SourceGraphic" in2="effect1_dropShadow_6620_176203" result="shape"/></filter><filter id="filter2_d_6620_176203" width="280.32" height="91.737" x="0.34" y="74.999" color-interpolation-filters="sRGB" filterUnits="userSpaceOnUse"><feFlood flood-opacity="0" result="BackgroundImageFix"/><feColorMatrix in="SourceAlpha" result="hardAlpha" values="0 0 0 0 0 0 0 0 0 0 0 0 0 0 0 0 0 0 127 0"/><feOffset/><feGaussianBlur stdDeviation="15.33"/><feComposite in2="hardAlpha" operator="out"/><feColorMatrix values="0 0 0 0 0 0 0 0 0 0 0 0 0 0 0 0 0 0 0.04 0"/><feBlend in2="BackgroundImageFix" result="effect1_dropShadow_6620_176203"/><feBlend in="SourceGraphic" in2="effect1_dropShadow_6620_176203" result="shape"/></filter><filter id="filter3_d_6620_176203" width="280.32" height="101.451" x="0.34" y="113.822" color-interpolation-filters="sRGB" filterUnits="userSpaceOnUse"><feFlood flood-opacity="0" result="BackgroundImageFix"/><feColorMatrix in="SourceAlpha" result="hardAlpha" values="0 0 0 0 0 0 0 0 0 0 0 0 0 0 0 0 0 0 127 0"/><feOffset/><feGaussianBlur stdDeviation="15.33"/><feComposite in2="hardAlpha" operator="out"/><feColorMatrix values="0 0 0 0 0 0 0 0 0 0 0 0 0 0 0 0 0 0 0.04 0"/><feBlend in2="BackgroundImageFix" result="effect1_dropShadow_6620_176203"/><feBlend in="SourceGraphic" in2="effect1_dropShadow_6620_176203" result="shape"/></filter><clipPath id="clip0_6620_176203"><path fill="#fff" d="M0 0H11.729V11.729H0z" transform="translate(38.466 78.171)"/></clipPath></defs></svg>