<svg viewBox="-5 0 212 321" fill="none" xmlns="http://www.w3.org/2000/svg" class="fs789u2"><path d="M190.119 0c6.563 0 11.883 5.32 11.883 11.883v297.059c0 6.563-5.32 11.883-11.883 11.883H11.883C5.32 320.825 0 315.505 0 308.942V11.883C0 5.32 5.32 0 11.883 0H190.12Z" fill="#1D1934"/><path d="M146.28 53.904c.239.323.428.68.551 1.063a3.804 3.804 0 0 1 0 2.456 3.61 3.61 0 0 1-.555 1.063.992.992 0 0 0 .204 1.382.99.99 0 0 0 1.38-.206 5.917 5.917 0 0 0 .844-1.61 5.942 5.942 0 0 0 .002-3.717 6.01 6.01 0 0 0-.846-1.61.985.985 0 1 0-1.58 1.178ZM149.656 52.066a7.801 7.801 0 0 1 1.172 4.131c0 1.521-.427 2.93-1.172 4.131a.987.987 0 0 0 1.684 1.033 9.793 9.793 0 0 0 1.46-5.166 9.777 9.777 0 0 0-1.46-5.166.985.985 0 0 0-1.358-.321.994.994 0 0 0-.326 1.358ZM153.241 50.193a11.856 11.856 0 0 1 1.623 6.004c0 2.194-.591 4.242-1.626 6.001a.986.986 0 1 0 1.704.996 13.822 13.822 0 0 0 1.887-6.997c0-2.547-.685-4.943-1.887-6.997a.985.985 0 1 0-1.701.993Z" fill="#3F3A60"/><path d="M156.812 48.314a15.887 15.887 0 0 1 2.078 7.883 15.931 15.931 0 0 1-2.078 7.885.981.981 0 0 0 .371 1.34.983.983 0 0 0 1.343-.366 17.85 17.85 0 0 0 2.337-8.86c0-3.219-.849-6.243-2.337-8.858a.986.986 0 0 0-1.714.976ZM21.805 285.225c.434 0 .803.076 1.111.232.308.154.567.358.78.61v-3.168h1.724v8.922h-1.69v-.71c-.21.261-.475.471-.788.632-.314.162-.692.243-1.134.243-.44 0-.853-.087-1.233-.259a3.014 3.014 0 0 1-.987-.709 3.27 3.27 0 0 1-.653-1.072 3.755 3.755 0 0 1-.234-1.343c0-.482.078-.929.234-1.341.156-.412.375-.77.653-1.069a3.002 3.002 0 0 1 2.217-.968Zm.317 1.612c-.252 0-.48.045-.686.139-.203.093-.38.217-.522.377a1.685 1.685 0 0 0-.332.564 2.022 2.022 0 0 0-.117.69c0 .248.039.48.117.693a1.612 1.612 0 0 0 .854.939c.207.093.434.139.686.139.247 0 .473-.044.677-.133a1.53 1.53 0 0 0 .523-.371c.148-.16.258-.347.338-.564a2.04 2.04 0 0 0 .12-.703c0-.251-.04-.486-.12-.703a1.684 1.684 0 0 0-.338-.564 1.53 1.53 0 0 0-.523-.371 1.66 1.66 0 0 0-.677-.132Zm7.941-1.612c.465 0 .888.082 1.27.245.384.165.711.395.985.69.273.295.486.651.64 1.067.151.415.227.873.227 1.372 0 .102-.004.204-.008.312a5.196 5.196 0 0 1-.024.271h-4.554c.043.235.117.434.219.599.102.165.223.304.369.415.143.11.306.191.486.24.182.05.373.076.577.076.277 0 .56-.054.844-.16a2.6 2.6 0 0 0 .779-.458l1.013 1.113a3.478 3.478 0 0 1-1.237.74 4.57 4.57 0 0 1-1.501.236c-.49 0-.942-.08-1.35-.243a3.04 3.04 0 0 1-1.052-.681 3.049 3.049 0 0 1-.686-1.061 3.666 3.666 0 0 1-.245-1.373c0-.504.08-.966.239-1.382.158-.419.382-.775.666-1.074.284-.298.627-.53 1.024-.697.4-.163.838-.247 1.32-.247Zm-.013 1.49c-.41 0-.735.115-.974.343-.239.228-.395.543-.47.944h2.844c-.08-.414-.239-.733-.478-.955-.238-.219-.546-.332-.922-.332Zm8.139-1.49c.442 0 .852.087 1.232.258.38.174.71.408.987.71.278.299.497.657.655 1.069.159.412.24.862.24 1.341 0 .482-.079.929-.235 1.343a3.33 3.33 0 0 1-.653 1.072 3.073 3.073 0 0 1-.987.709c-.38.174-.79.259-1.233.259-.445 0-.824-.081-1.137-.243a2.454 2.454 0 0 1-.785-.632v.71h-1.688v-8.922h1.723v3.168c.212-.252.47-.456.774-.61.306-.154.675-.232 1.107-.232Zm-.317 1.612c-.247 0-.47.043-.673.132a1.522 1.522 0 0 0-.52.371 1.7 1.7 0 0 0-.339.564c-.08.217-.12.452-.12.703 0 .252.04.486.12.703.08.217.191.404.339.564.147.159.319.283.52.371.202.089.426.133.673.133.256 0 .486-.046.69-.139.204-.093.377-.219.52-.38.144-.158.255-.345.333-.559.075-.213.115-.445.115-.693 0-.243-.04-.473-.115-.69a1.698 1.698 0 0 0-.332-.564 1.55 1.55 0 0 0-.521-.377 1.63 1.63 0 0 0-.69-.139Zm6.526 4.984h-1.731v-6.423h1.731v6.423Zm6.394-4.886h-2.325v2.345c0 .197.023.369.075.508a.9.9 0 0 0 .207.338c.086.087.186.15.303.189.117.039.243.061.376.061.208 0 .416-.044.625-.131.21-.086.403-.182.581-.288l.636 1.352a4.339 4.339 0 0 1-.935.483 3.38 3.38 0 0 1-1.194.194c-.798 0-1.4-.22-1.803-.658-.403-.436-.603-1.074-.603-1.909v-2.487h-1.237v-1.538h1.24v-1.909h1.729v1.909h2.325v1.541Zm-7.268-4.685a1.103 1.103 0 0 1 .785.321 1.137 1.137 0 0 1 0 1.578c-.1.099-.217.178-.351.232-.135.054-.28.082-.434.082-.156 0-.3-.028-.434-.082a1.055 1.055 0 0 1-.584-.584 1.15 1.15 0 0 1-.082-.434c0-.156.026-.301.082-.438a1.066 1.066 0 0 1 .584-.59c.132-.057.278-.085.434-.085Zm-16.902-4.287 1.818-5.244h1.152l-2.302 6.396h-1.312l-1.832-5.203-1.822 5.203H21.03l-2.302-6.396h1.178l1.812 5.231 1.822-5.231h1.245l1.836 5.244Zm6.971-5.379c.484 0 .935.083 1.348.252a3.193 3.193 0 0 1 1.784 1.757c.17.408.255.847.255 1.324 0 .475-.087.918-.256 1.323a3.23 3.23 0 0 1-.71 1.057 3.302 3.302 0 0 1-1.073.701 3.556 3.556 0 0 1-1.348.252c-.486 0-.933-.085-1.345-.252a3.206 3.206 0 0 1-1.779-1.758 3.357 3.357 0 0 1-.256-1.323c0-.475.084-.916.256-1.324.171-.405.406-.757.707-1.056.302-.3.658-.532 1.072-.701.412-.167.86-.252 1.345-.252Zm0 1.037a2.256 2.256 0 0 0-1.61.649c-.201.202-.36.443-.475.725a2.41 2.41 0 0 0-.171.924c0 .336.056.647.171.927a2.152 2.152 0 0 0 1.189 1.204c.274.115.573.171.896.171.32 0 .616-.056.892-.171.278-.115.516-.274.716-.478.202-.204.36-.447.475-.726.115-.28.172-.588.172-.927a2.41 2.41 0 0 0-.172-.924 2.172 2.172 0 0 0-.475-.725 2.257 2.257 0 0 0-1.608-.649Zm8.375-1.037c.228 0 .439.015.63.048.19.03.37.085.542.161l-.27 1.084a2.1 2.1 0 0 0-.524-.184 2.815 2.815 0 0 0-.57-.063c-.244 0-.465.046-.671.135-.204.091-.38.219-.527.388a1.759 1.759 0 0 0-.343.605c-.08.237-.122.501-.122.797v3.56h-1.102v-6.396h1.085v.842a2.34 2.34 0 0 1 .818-.725 2.252 2.252 0 0 1 1.054-.252Zm3.938 6.531h-1.098v-8.937h1.098v8.937Zm5.012-6.498c.504 0 .942.089 1.313.269.371.18.686.421.942.727v-3.405h1.104v8.937h-1.104v-.854c-.256.301-.571.54-.942.72-.373.18-.812.269-1.313.269-.449 0-.868-.083-1.258-.25a3.037 3.037 0 0 1-1.016-.694 3.225 3.225 0 0 1-.674-1.052 3.525 3.525 0 0 1-.245-1.337c0-.484.08-.928.245-1.336.162-.406.388-.757.674-1.053a3.143 3.143 0 0 1 1.016-.694c.39-.165.81-.247 1.258-.247Zm.128 1.035c-.332 0-.633.058-.904.178a2.081 2.081 0 0 0-.697.492c-.193.208-.34.454-.445.731-.102.28-.154.577-.154.896 0 .319.052.619.159.897.106.279.256.522.449.731.193.208.425.373.696.494.271.122.57.183.898.183.324 0 .621-.059.89-.176a2.092 2.092 0 0 0 1.143-1.215c.109-.28.161-.584.161-.911 0-.328-.054-.63-.16-.91a2.248 2.248 0 0 0-.452-.726 2.154 2.154 0 0 0-1.584-.664Z" fill="#3F3A60"/><path d="M28.729 152.403c-2.222 0-4.194-.38-5.915-1.139-1.72-.759-3.102-1.814-4.144-3.17-1.044-1.354-1.727-2.927-2.052-4.715l4.957-1.26c.243 1.219.684 2.263 1.322 3.128a6.24 6.24 0 0 0 2.438 1.992c.988.46 2.107.692 3.352.692 1.843 0 3.353-.366 4.533-1.097 1.178-.732 1.768-1.775 1.768-3.129 0-.866-.251-1.558-.753-2.072-.5-.514-1.26-.942-2.276-1.28-1.015-.339-2.486-.697-4.408-1.076-2.222-.489-4.045-1.044-5.466-1.667-1.421-.623-2.525-1.469-3.313-2.541-.785-1.069-1.178-2.445-1.178-4.124 0-1.762.46-3.278 1.382-4.552.92-1.274 2.2-2.241 3.84-2.905 1.639-.664 3.53-.996 5.67-.996 1.95 0 3.67.338 5.161 1.015 1.491.677 2.71 1.619 3.659 2.825.948 1.207 1.625 2.608 2.033 4.207l-4.715 1.341c-.46-1.625-1.22-2.87-2.276-3.738-1.057-.866-2.385-1.3-3.984-1.3-1.68 0-3.042.338-4.083 1.015-1.044.677-1.564 1.571-1.564 2.682 0 .76.236 1.376.711 1.849.473.475 1.165.868 2.072 1.178.907.312 2.229.657 3.962 1.037 2.41.488 4.37 1.057 5.873 1.708 1.504.65 2.682 1.538 3.537 2.662.853 1.124 1.28 2.608 1.28 4.45 0 1.816-.488 3.4-1.464 4.756-.977 1.356-2.324 2.397-4.045 3.128-1.722.729-3.692 1.096-5.914 1.096ZM51.528 152.199c-2.168 0-3.725-.501-4.674-1.503-.948-1.003-1.423-2.439-1.423-4.307v-11.461h-3.25v-3.82h3.252v-5.366h4.674v5.366h4.307v3.82h-4.307v11.218c0 .731.217 1.26.65 1.586.435.325 1.07.488 1.91.488.434 0 1.015-.041 1.747-.122v3.7a11.203 11.203 0 0 1-2.886.401ZM66.039 152.403c-1.87 0-3.522-.466-4.958-1.401-1.436-.936-2.56-2.229-3.374-3.882-.814-1.651-1.22-3.537-1.22-5.65 0-2.139.409-4.044 1.22-5.711.814-1.666 1.938-2.966 3.374-3.901 1.436-.935 3.09-1.401 4.958-1.401 1.382 0 2.655.303 3.82.913a8.716 8.716 0 0 1 2.967 2.541v-2.803h4.673v20.646h-4.673v-2.805c-.814 1.111-1.801 1.964-2.966 2.56-1.166.595-2.441.894-3.821.894Zm1.015-4.022c1.163 0 2.18-.278 3.049-.834.865-.555 1.536-1.354 2.01-2.397.476-1.044.713-2.27.713-3.678 0-2.167-.515-3.875-1.545-5.12-1.03-1.246-2.426-1.87-4.186-1.87-1.79 0-3.204.622-4.248 1.87-1.044 1.247-1.564 2.953-1.564 5.12 0 1.411.236 2.636.711 3.678.475 1.043 1.153 1.842 2.033 2.397.88.556 1.89.834 3.027.834ZM81.318 151.752v-20.647h4.673v3.617c.543-1.219 1.28-2.161 2.215-2.825.935-.664 2.038-.995 3.313-.995.272 0 .508.006.712.019.204.013.428.048.67.102v4.431a6.97 6.97 0 0 0-1.382-.122c-1.653 0-2.987.568-4.003 1.708-1.015 1.139-1.523 2.696-1.523 4.673v10.039h-4.675ZM95.707 151.752v-29.464h4.632v29.464h-4.632ZM106.558 128.261c-.84 0-1.552-.297-2.133-.894a2.966 2.966 0 0 1-.875-2.154c0-.84.291-1.565.875-2.174a2.835 2.835 0 0 1 2.133-.916c.839 0 1.564.306 2.174.916.61.609.915 1.334.915 2.174 0 .839-.303 1.557-.915 2.154a3.001 3.001 0 0 1-2.174.894Zm-2.359 2.847h4.715v20.646h-4.715v-20.646ZM112.776 151.752v-20.647h4.673v3.008c.677-1.165 1.571-2.066 2.684-2.704 1.111-.635 2.383-.954 3.821-.954 2.33 0 4.151.75 5.466 2.254 1.312 1.503 1.97 3.584 1.97 6.238v12.803h-4.715v-12.478c0-1.571-.352-2.771-1.057-3.597-.705-.827-1.746-1.239-3.128-1.239-.977 0-1.842.265-2.602.792-.759.527-1.356 1.267-1.788 2.215-.434.948-.651 2.059-.651 3.333v10.972h-4.673v.004ZM145.046 160.125c-2.413 0-4.492-.529-6.24-1.586-1.749-1.057-2.906-2.547-3.476-4.472l4.471-1.178c.406 1.111 1.07 1.951 1.992 2.519.92.569 2.046.853 3.372.853 1.139 0 2.107-.204 2.905-.61a4.154 4.154 0 0 0 1.829-1.807c.419-.801.629-1.782.629-2.947v-2.723a8.511 8.511 0 0 1-2.946 2.398c-1.152.568-2.419.855-3.801.855-1.845 0-3.483-.441-4.917-1.322-1.436-.88-2.56-2.113-3.374-3.697-.813-1.586-1.219-3.393-1.219-5.426 0-2.033.408-3.847 1.219-5.446.814-1.599 1.938-2.844 3.374-3.738 1.436-.894 3.075-1.341 4.917-1.341 1.382 0 2.655.284 3.82.852a7.969 7.969 0 0 1 2.927 2.439v-2.64h4.635v19.711c0 1.925-.415 3.582-1.241 4.978-.827 1.395-2.005 2.464-3.535 3.211-1.529.744-3.311 1.117-5.341 1.117Zm-.246-12.517c1.165 0 2.174-.271 3.027-.814.853-.542 1.517-1.306 1.992-2.295.475-.989.711-2.161.711-3.515 0-2.059-.507-3.684-1.523-4.877-1.015-1.192-2.406-1.788-4.165-1.788-1.79 0-3.199.596-4.227 1.788-1.031 1.193-1.545 2.818-1.545 4.877 0 1.356.237 2.528.712 3.515.475.989 1.143 1.755 2.011 2.295.866.543 1.87.814 3.007.814ZM18.65 169.437H32.39c1.68 0 3.142.326 4.39.977 1.245.651 2.195 1.544 2.844 2.681.65 1.139.976 2.398.976 3.78 0 1.382-.351 2.608-1.057 3.678-.705 1.071-1.666 1.876-2.885 2.419 1.599.542 2.825 1.43 3.677 2.662.853 1.232 1.28 2.69 1.28 4.37 0 1.516-.344 2.892-1.034 4.124-.69 1.233-1.673 2.194-2.947 2.886-1.274.692-2.764 1.037-4.47 1.037H18.651v-28.614Zm12.923 12.072c1.328 0 2.372-.373 3.129-1.117.757-.744 1.139-1.727 1.139-2.946 0-1.246-.38-2.222-1.14-2.927-.758-.703-1.828-1.057-3.21-1.057h-8.006v8.047h8.088Zm.488 12.517c1.463 0 2.608-.392 3.435-1.178.827-.785 1.239-1.855 1.239-3.211 0-1.354-.412-2.439-1.239-3.252-.827-.814-1.972-1.22-3.435-1.22h-8.576v8.861h8.576ZM53.398 198.7c-1.87 0-3.521-.467-4.958-1.402-1.436-.935-2.56-2.228-3.373-3.881-.814-1.651-1.22-3.537-1.22-5.65 0-2.139.406-4.044 1.22-5.711.813-1.666 1.937-2.966 3.373-3.901 1.437-.935 3.09-1.401 4.958-1.401 1.382 0 2.656.304 3.82.913a8.744 8.744 0 0 1 2.97 2.541v-2.803h4.673v20.644h-4.674v-2.803c-.814 1.111-1.803 1.963-2.968 2.56-1.165.594-2.439.894-3.82.894Zm1.015-4.023c1.166 0 2.181-.277 3.049-.833.868-.555 1.538-1.354 2.011-2.397.473-1.044.712-2.27.712-3.678 0-2.167-.517-3.875-1.545-5.12-1.03-1.246-2.426-1.871-4.185-1.871-1.788 0-3.205.623-4.246 1.871-1.044 1.247-1.565 2.953-1.565 5.12 0 1.41.237 2.636.712 3.678.473 1.043 1.15 1.842 2.033 2.397.879.556 1.888.833 3.024.833ZM68.68 198.049v-20.647h4.673v3.007c.677-1.165 1.57-2.065 2.684-2.703 1.11-.636 2.382-.955 3.82-.955 2.33 0 4.151.751 5.466 2.255 1.313 1.503 1.97 3.584 1.97 6.237v12.806h-4.715v-12.476c0-1.571-.351-2.77-1.056-3.597-.706-.827-1.747-1.239-3.13-1.239-.975 0-1.841.265-2.6.792-.76.527-1.357 1.267-1.788 2.215-.434.948-.651 2.059-.651 3.333v10.972h-4.674ZM91.153 198.049v-29.464h4.632v16.663l8.047-7.844h5.893l-8.698 8.575 8.9 12.07h-5.526l-6.585-8.9-2.033 1.992v6.908h-4.63ZM180.462 32.46h8.366v3.672c0 .499-.094.93-.28 1.295-.187.364-.445.64-.773.827-.329.186-.692.28-1.087.28-.427 0-.804-.107-1.128-.322a1.915 1.915 0 0 1-.724-.891c-.15.475-.408.846-.773 1.11-.364.265-.796.398-1.295.398-.436 0-.829-.1-1.176-.298a2.115 2.115 0 0 1-.827-.861c-.202-.375-.303-.818-.303-1.326v-3.883Zm.796 3.767c0 .523.143.931.427 1.224.284.293.666.44 1.141.44.467 0 .844-.147 1.129-.44.284-.293.427-.7.427-1.224v-2.85h-3.124v2.85Zm3.886-.143c0 .484.132.857.397 1.124.264.265.62.397 1.063.397.427 0 .772-.137 1.033-.41.26-.273.392-.66.392-1.159v-2.662h-2.888v2.71h.003ZM180.273 42.548c0-.673.212-1.196.635-1.57.424-.372 1.009-.557 1.754-.557h3.779v.892h-3.647c-.579 0-1.011.121-1.302.362-.288.241-.434.608-.434 1.1 0 .356.093.67.28.944.187.274.451.488.796.647.345.158.747.238 1.207.238h3.1v.916h-5.977v-.916h.987a2.331 2.331 0 0 1-.862-.83c-.212-.35-.316-.758-.316-1.226ZM180.273 49.512c0-.672.171-1.239.51-1.692.34-.456.805-.76 1.39-.91l.202.845c-.421.12-.753.332-.998.642-.245.308-.369.686-.369 1.128 0 .475.102.849.308 1.118.206.269.467.403.784.403.253 0 .444-.084.577-.256.13-.171.251-.477.362-.92.015-.08.035-.16.059-.243.024-.082.043-.169.058-.256.096-.508.211-.915.345-1.224.135-.308.31-.544.53-.707.217-.162.501-.243.85-.243s.658.096.927.284c.269.191.473.458.611.803.139.345.209.736.209 1.17 0 .624-.148 1.126-.445 1.503-.297.376-.703.645-1.217.803l-.226-.783c.365-.12.647-.304.851-.553.201-.25.303-.573.303-.968 0-.412-.091-.742-.273-.992-.182-.25-.412-.375-.69-.375a.609.609 0 0 0-.558.321c-.125.215-.249.582-.368 1.104-.009.04-.016.076-.024.107l-.024.095c-.102.532-.221.953-.356 1.265-.135.313-.317.551-.547.714-.23.163-.533.243-.915.243-.356 0-.675-.098-.957-.29a1.95 1.95 0 0 1-.666-.838c-.163-.367-.243-.799-.243-1.298ZM180.462 53.433h5.977v.892h-5.977v-.892Zm6.975.451a.63.63 0 0 1 .191-.464.635.635 0 0 1 .464-.191.63.63 0 0 1 .465.19c.125.127.19.283.19.465a.63.63 0 0 1-.19.464.636.636 0 0 1-.465.191.63.63 0 0 1-.464-.19.63.63 0 0 1-.191-.465ZM186.439 56.273v.879h-.987c.364.215.651.494.861.844.211.35.315.757.315 1.223 0 .666-.213 1.185-.636 1.556-.423.373-1.009.558-1.753.558h-3.78v-.892h3.648c.577 0 1.013-.122 1.306-.362.293-.241.44-.604.44-1.087a1.65 1.65 0 0 0-.284-.95 1.916 1.916 0 0 0-.803-.654c-.345-.158-.746-.238-1.206-.238h-3.101v-.877h5.98ZM180.273 65.73c0-.594.136-1.112.41-1.555a2.74 2.74 0 0 1 1.135-1.029c.483-.24 1.032-.362 1.651-.362.601 0 1.143.12 1.623.356.479.239.854.577 1.128 1.022.273.442.41.959.41 1.545 0 .555-.128 1.032-.386 1.438a2.484 2.484 0 0 1-1.081.927c-.462.212-.996.32-1.599.32a3.33 3.33 0 0 1-.273-.01v-4.706c-.738.024-1.298.217-1.682.581-.384.365-.577.855-.577 1.474 0 .46.109.828.328 1.11.217.283.525.526.92.732l-.274.724c-.546-.221-.972-.553-1.278-.991-.306-.439-.455-.966-.455-1.575Zm3.706 1.771c.594-.015 1.056-.189 1.39-.516.332-.33.499-.755.499-1.278 0-.571-.169-1.03-.505-1.378-.337-.35-.799-.558-1.384-.63v3.802ZM180.273 72.016c0-.672.171-1.239.51-1.692.34-.456.805-.76 1.39-.91l.202.845c-.421.119-.753.332-.998.642-.245.308-.369.686-.369 1.128 0 .475.102.849.308 1.118.206.269.467.403.784.403.253 0 .444-.084.577-.256.13-.171.251-.477.362-.92.015-.08.035-.16.059-.243.024-.082.043-.17.058-.256.096-.508.211-.915.345-1.224.135-.308.31-.544.53-.707.217-.163.501-.243.85-.243s.658.096.927.284c.269.191.473.458.611.803.139.345.209.736.209 1.17 0 .624-.148 1.126-.445 1.503-.297.376-.703.645-1.217.803l-.226-.783c.365-.12.647-.304.851-.554.201-.25.303-.572.303-.967 0-.412-.091-.742-.273-.992-.182-.25-.412-.375-.69-.375a.609.609 0 0 0-.558.32c-.125.216-.249.582-.368 1.105-.009.04-.016.076-.024.107l-.024.095c-.102.532-.221.953-.356 1.265-.135.312-.317.551-.547.714-.23.163-.533.243-.915.243-.356 0-.675-.098-.957-.29a1.95 1.95 0 0 1-.666-.838c-.163-.367-.243-.799-.243-1.298ZM180.273 78.018c0-.673.171-1.24.51-1.693.34-.455.805-.76 1.39-.909l.202.844c-.421.12-.753.332-.998.642-.245.308-.369.686-.369 1.129 0 .475.102.848.308 1.117.206.27.467.404.784.404.253 0 .444-.085.577-.256.13-.172.251-.478.362-.92.015-.08.035-.16.059-.243.024-.083.043-.17.058-.256.096-.508.211-.916.345-1.224.135-.308.31-.545.53-.707.217-.163.501-.243.85-.243s.658.095.927.284c.269.19.473.458.611.803.139.345.209.735.209 1.17 0 .624-.148 1.125-.445 1.503-.297.375-.703.644-1.217.803l-.226-.784c.365-.12.647-.303.851-.553.201-.25.303-.573.303-.968 0-.412-.091-.742-.273-.991-.182-.25-.412-.376-.69-.376a.609.609 0 0 0-.558.322c-.125.214-.249.58-.368 1.104-.009.039-.016.076-.024.106l-.024.096c-.102.531-.221.952-.356 1.265-.135.312-.317.55-.547.713-.23.163-.533.243-.915.243-.356 0-.675-.097-.957-.29a1.95 1.95 0 0 1-.666-.838c-.163-.367-.243-.798-.243-1.297Z" fill="#fff"/><path d="M158.799 264.706H140.58v32.739h18.219v-32.739Z" fill="#EA560D"/><path d="M141.737 281.074c0-6.641 3.109-12.556 7.952-16.368a20.73 20.73 0 0 0-12.866-4.452c-11.498 0-20.818 9.321-20.818 20.82 0 11.5 9.32 20.821 20.818 20.821 4.858 0 9.325-1.665 12.866-4.453-4.843-3.81-7.952-9.726-7.952-16.368Z" fill="#E30613"/><path d="M183.375 281.074c0 11.5-9.321 20.821-20.818 20.821a20.725 20.725 0 0 1-12.866-4.453c4.843-3.812 7.952-9.726 7.952-16.368 0-6.641-3.109-12.556-7.952-16.368a20.728 20.728 0 0 1 12.866-4.452c11.497 0 20.818 9.323 20.818 20.82Z" fill="#F59E00"/><path d="M103.666 38.864a3.991 3.991 0 0 1 3.991-3.991h21.024a3.99 3.99 0 0 1 3.991 3.99v31.933a3.99 3.99 0 0 1-3.991 3.99h-21.024a3.991 3.991 0 0 1-3.991-3.99V38.864Z" fill="#A4A167"/><path d="M114.976 35.128a.87.87 0 0 0-.869.87v11.064c0 .48.389.87.869.87h6.402c.48 0 .87-.39.87-.87V35.997a.87.87 0 0 0-.87-.87h-6.402Z" fill="url(#bca_svg__a)"/><path d="M122.635 47.123V36.059c0-.695.606-.895.909-.909h4.821a4.031 4.031 0 0 1 4.031 4.031v5.968c0 1.58-1.317 1.975-1.976 1.975h-3.399c-.566.027-1.802.135-2.213.356-.513.277-.711.277-1.264.277-.443 0-.909 0-.909-.633Z" fill="url(#bca_svg__b)"/><path d="M113.664 36.058v11.066c0 .567-.466.632-.909.632-.553 0-.751 0-1.264-.277-.411-.221-1.647-.33-2.213-.355h-3.399c-.659 0-1.976-.396-1.976-1.976V39.18a4.03 4.03 0 0 1 4.031-4.03h4.821c.303.013.909.213.909.908Z" fill="url(#bca_svg__c)"/><path d="M103.943 49.574c0-1.581 1.37-2.029 2.054-2.055h3.32c.869 0 2.137.259 2.371.434.474.356 1.317.343 1.818.317h9.369c.5.026 1.344.04 1.818-.317.234-.175 1.501-.434 2.371-.434h3.319c.685.026 2.055.474 2.055 2.055v10.393c0 1.58-1.37 2.029-2.055 2.055h-1.86c-.092 0-.277.055-.277.277 0 .167.106.225.198.237h1.976c.659 0 1.976.395 1.976 1.976v5.967a4.031 4.031 0 0 1-4.031 4.03h-4.821c-.303-.012-.909-.213-.909-.908V62.655c0-.57-.316-1.068-1.028-1.068-.711 0-8.101-.04-8.101-.04-.501-.025-1.344-.039-1.818.317-.234.175-1.502.435-2.371.435h-3.32c-.684-.027-2.054-.475-2.054-2.055v-10.67Z" fill="url(#bca_svg__d)"/><path d="M113.664 73.68V62.615c0-.539-.466-.633-.909-.633-.553 0-.751 0-1.264.277-.411.221-1.647.33-2.213.356h-3.399c-.659 0-1.976.395-1.976 1.976v5.967a4.03 4.03 0 0 0 4.031 4.03h4.821c.303-.012.909-.212.909-.908Z" fill="url(#bca_svg__e)"/><path d="M114.099 62.773c0-.48.389-.87.869-.87h6.402c.48 0 .87.39.87.87V73.68c0 .48-.39.87-.87.87h-6.402a.87.87 0 0 1-.869-.87V62.773Z" fill="url(#bca_svg__f)"/><defs><linearGradient id="bca_svg__a" x1="118.169" y1="61.916" x2="118.169" y2="74.55" gradientUnits="userSpaceOnUse"><stop stop-color="#EAD283"/><stop offset="1" stop-color="#F3E18D"/></linearGradient><linearGradient id="bca_svg__b" x1="118.169" y1="61.916" x2="118.169" y2="74.55" gradientUnits="userSpaceOnUse"><stop stop-color="#EAD283"/><stop offset="1" stop-color="#F3E18D"/></linearGradient><linearGradient id="bca_svg__c" x1="118.169" y1="61.916" x2="118.169" y2="74.55" gradientUnits="userSpaceOnUse"><stop stop-color="#EAD283"/><stop offset="1" stop-color="#F3E18D"/></linearGradient><linearGradient id="bca_svg__d" x1="118.169" y1="61.916" x2="118.169" y2="74.55" gradientUnits="userSpaceOnUse"><stop stop-color="#EAD283"/><stop offset="1" stop-color="#F3E18D"/></linearGradient><linearGradient id="bca_svg__e" x1="118.169" y1="61.916" x2="118.169" y2="74.55" gradientUnits="userSpaceOnUse"><stop stop-color="#EAD283"/><stop offset="1" stop-color="#F3E18D"/></linearGradient><linearGradient id="bca_svg__f" x1="118.169" y1="61.916" x2="118.169" y2="74.55" gradientUnits="userSpaceOnUse"><stop stop-color="#EAD283"/><stop offset="1" stop-color="#F3E18D"/></linearGradient></defs></svg>