<svg class="_1shgxu21" viewBox="0 0 8 13" xmlns="http://www.w3.org/2000/svg"><path d="M4.892 8.8v-.24c0-.267.053-.499.16-.696.107-.197.24-.365.4-.504.16-.139.39-.315.688-.528.384-.277.699-.53.944-.76.245-.23.456-.53.632-.904.176-.373.264-.821.264-1.344 0-.533-.13-1.053-.392-1.56-.261-.507-.68-.93-1.256-1.272C5.756.651 5.02.48 4.124.48c-.79 0-1.47.133-2.04.4-.57.267-1.021.63-1.352 1.088-.33.459-.56.981-.688 1.568l1.824.48c.128-.533.36-.965.696-1.296.336-.33.835-.496 1.496-.496.427 0 .787.075 1.08.224.293.15.512.352.656.608a1.7 1.7 0 01.216.848c0 .299-.056.55-.168.752-.112.203-.25.376-.416.52a6.179 6.179 0 01-.696.504 8.093 8.093 0 00-.912.68c-.235.208-.435.49-.6.848-.165.357-.248.808-.248 1.352v.24h1.92zm-.928 3.328c.32 0 .595-.115.824-.344.23-.23.344-.52.344-.872 0-.31-.115-.579-.344-.808a1.124 1.124 0 00-.824-.344c-.341 0-.63.115-.864.344-.235.23-.352.499-.352.808a1.189 1.189 0 001.216 1.216z" fill="currentColor" fill-rule="nonzero"/></svg>