<svg viewBox="-40 0 200 100" fill="none" xmlns="http://www.w3.org/2000/svg" class="_19tbeq93"><path d="M19.026 94.328c-.402 0-.804-.04-1.206-.04v5.39h-1.891v-14.16c.845-.16 1.85-.28 2.735-.28 2.011 0 3.902.321 4.868 2.292.321.644.482 1.328.482 2.052 0 3.137-2.051 4.746-4.988 4.746Zm.04-7.482c-.401 0-.844.04-1.246.08v5.753c.402.04.804.04 1.206.04 1.931 0 3.018-1.006 3.018-2.936.04-1.971-1.006-2.937-2.977-2.937ZM30.853 91.19c-.242-.08-.604-.08-.925-.08-.926 0-1.73.563-2.213 1.328v7.28h-1.77v-9.935h1.408l.201 1.006c.564-.805 1.529-1.287 2.535-1.287.321 0 .603.04.925.16l-.161 1.529ZM36.243 99.96c-3.138 0-4.787-2.293-4.787-5.27 0-2.896 1.81-5.229 4.867-5.229s4.787 2.333 4.787 5.23c-.04 2.936-1.77 5.269-4.867 5.269Zm.08-9.131c-2.091 0-2.976 2.01-2.976 3.821 0 1.85.804 3.902 2.896 3.902 2.092 0 2.936-2.052 2.936-3.902 0-1.77-.764-3.821-2.856-3.821ZM46.179 99.96c-1.288 0-2.092-.483-2.535-1.489-.2-.482-.281-1.246-.281-2.493V90.99h-1.448v-1.207h1.448v-1.891l1.77-.684v2.575h2.775v1.166h-2.775v5.109c0 .764.08 1.327.2 1.65.202.482.604.804 1.248.804.523 0 1.086-.242 1.81-.724l.282 1.287c-.845.603-1.65.885-2.494.885ZM57.643 95.093c-.885.04-1.73 0-2.535 0h-4.022c.08 1.81 1.086 3.459 3.057 3.459 1.167 0 2.172-.402 3.178-1.167l.201 1.448c-1.086.805-2.333 1.167-3.62 1.167-3.138 0-4.747-2.373-4.747-5.31 0-2.815 1.61-5.188 4.667-5.188a3.81 3.81 0 0 1 2.132.643c1.287.845 1.77 2.213 1.77 3.741 0 .362-.041.764-.081 1.207Zm-3.983-4.184c-1.609 0-2.413 1.367-2.574 2.856h4.747c0-.08.04-.121.04-.201 0-1.368-.724-2.655-2.213-2.655ZM63.918 99.96c-2.937 0-4.907-2.213-4.907-5.109 0-3.097 2.01-5.39 5.148-5.39 1.086 0 2.092.282 3.017.925l-.362 1.368c-.844-.563-1.69-.885-2.614-.885-2.092 0-3.299 1.77-3.299 3.74 0 2.012 1.046 3.943 3.258 3.943.966 0 1.931-.282 2.816-.885l.322 1.327a6.33 6.33 0 0 1-3.379.966ZM72.285 99.96c-1.287 0-2.092-.483-2.534-1.489-.202-.482-.282-1.246-.282-2.493V90.99h-1.448v-1.207h1.448v-1.891l1.77-.684v2.575h2.776v1.166h-2.776v5.109c0 .764.08 1.327.2 1.65.202.482.604.804 1.248.804.523 0 1.086-.242 1.81-.724l.282 1.287c-.845.603-1.65.885-2.494.885ZM83.709 95.093c-.885.04-1.73 0-2.534 0h-4.023c.08 1.81 1.086 3.459 3.057 3.459 1.167 0 2.172-.402 3.178-1.167l.201 1.448c-1.086.805-2.333 1.167-3.62 1.167-3.138 0-4.747-2.373-4.747-5.31 0-2.815 1.61-5.188 4.666-5.188a3.81 3.81 0 0 1 2.132.643c1.288.845 1.77 2.213 1.77 3.741 0 .362 0 .764-.08 1.207Zm-3.942-4.184c-1.61 0-2.414 1.367-2.575 2.856h4.747c0-.08.04-.121.04-.201-.04-1.368-.764-2.655-2.212-2.655ZM92.438 99.678l-.201-.885c-.765.765-1.931 1.167-2.856 1.167-2.655 0-4.305-2.172-4.305-5.149 0-3.138 2.213-5.31 4.586-5.31.845 0 1.81.322 2.414.725v-5.27h1.77v14.762h-1.408v-.04Zm-.403-7.964c-.442-.362-1.327-.724-2.212-.724-1.327 0-2.896 1.166-2.896 3.74 0 2.414 1.086 3.782 2.695 3.782.965 0 1.89-.483 2.413-1.046v-5.752ZM0 62.43c1.086.482 2.454.764 4.103.764 8.246 0 14.763-5.27 19.348-15.608l5.27-12.792h8.326l1.85-3.62h-8.889l.322-.804c3.017-7.24 6.919-10.942 11.585-10.942 1.006 0 2.252.322 3.78.926l2.737-4.183c-1.127-.523-2.977-1.006-4.787-1.006-8.246 0-14.763 5.27-19.389 15.647l-.16.362H8.85L7 34.794h15.607l-2.012 4.787H2.615l-1.85 3.581h18.583l-2.01 4.867c-3.018 7.24-6.88 10.941-11.465 10.941-1.006 0-2.212-.322-3.7-.925L0 62.43ZM93.162 36.163c-1.328-1.288-2.776-1.931-4.385-1.931-1.086 0-2.011.281-2.816.804-.804.563-1.247 1.288-1.287 2.172-.04.644.161 1.207.563 1.69.403.482 1.167 1.006 2.213 1.569l2.896 1.609c.885.482 1.569 1.126 1.97 1.93.403.765.604 1.65.524 2.575-.12 2.454-1.126 4.384-2.977 5.792-1.85 1.408-4.143 2.132-6.878 2.132-2.414 0-4.546-.603-6.396-1.81l2.333-3.861c.523.563 1.287 1.045 2.293 1.528 1.005.483 1.89.684 2.654.684 1.288 0 2.334-.362 3.219-1.046.885-.684 1.327-1.609 1.407-2.776.04-.603-.16-1.126-.563-1.609-.402-.482-1.126-1.006-2.172-1.609l-2.936-1.649c-.885-.523-1.569-1.206-1.971-2.011a5.14 5.14 0 0 1-.563-2.574c.12-2.132 1.045-3.822 2.775-5.11 1.73-1.286 3.782-1.93 6.195-1.93 1.65 0 3.66.523 5.953 1.569l-2.051 3.861ZM75.262 35.438c-1.006-.804-2.334-1.206-4.063-1.206-2.615 0-4.827 1.046-6.557 3.097-1.73 2.092-2.695 4.626-2.856 7.643-.121 1.85.322 3.339 1.328 4.424 1.005 1.086 2.172 1.65 3.5 1.65 2.09 0 4.102-.644 6.073-1.931l-.684 4.143a15.92 15.92 0 0 1-6.194 1.247c-2.816 0-4.948-.804-6.355-2.413-1.408-1.61-2.052-3.781-1.892-6.436.242-4.345 1.65-7.924 4.184-10.7 2.534-2.776 5.672-4.183 9.372-4.183 2.213 0 3.902.402 5.109 1.126l-.965 3.54ZM53.46 36.163c-1.328-1.288-2.776-1.931-4.385-1.931-1.086 0-2.011.281-2.816.804-.804.563-1.247 1.288-1.287 2.172-.04.644.16 1.207.563 1.69.403.483 1.167 1.006 2.213 1.569l2.896 1.609c.885.482 1.569 1.126 1.97 1.93.403.765.604 1.65.524 2.575-.121 2.454-1.127 4.384-2.977 5.792-1.85 1.408-4.143 2.132-6.879 2.132-2.413 0-4.545-.603-6.395-1.81l2.333-3.861c.523.563 1.287 1.045 2.293 1.528 1.005.483 1.89.684 2.654.684 1.287 0 2.333-.362 3.218-1.046.885-.684 1.328-1.609 1.408-2.776.04-.603-.16-1.126-.563-1.609-.402-.482-1.126-1.006-2.172-1.609l-2.937-1.649c-.885-.523-1.568-1.207-1.97-2.011a5.14 5.14 0 0 1-.564-2.575c.121-2.132 1.046-3.821 2.776-5.108 1.73-1.287 3.781-1.931 6.195-1.931 1.649 0 3.66.523 5.953 1.569l-2.052 3.861Z" fill="#000"/><path d="M60.58.04c-1.53 0-3.058.04-4.627.121-4.465.201-8.93.644-13.355 1.489-4.424.844-8.809 2.01-13.032 3.821-2.132.885-4.184 1.93-6.155 3.298-.965.684-1.93 1.408-2.816 2.213a16.36 16.36 0 0 0-2.453 2.776c-.724 1.046-1.328 2.212-1.69 3.5a9.84 9.84 0 0 0-.322 3.901 11.8 11.8 0 0 0 1.046 3.62c.04.121.121.242.161.362.08.121.241.202.402.202a.532.532 0 0 0 .523-.523c0-.08 0-.122-.04-.202-.04-.12-.12-.241-.16-.362-.403-1.045-.685-2.172-.725-3.298-.04-1.126.08-2.212.442-3.258a10.123 10.123 0 0 1 1.57-2.896c1.327-1.73 3.097-3.138 4.987-4.305 1.89-1.166 3.862-2.091 5.913-2.896 2.052-.804 4.143-1.448 6.275-2.011a70.266 70.266 0 0 1 6.437-1.368 101.49 101.49 0 0 1 13.033-1.327c4.344-.161 8.769-.12 13.113.08 2.172.08 4.345.282 6.517.483 2.172.201 4.344.523 6.476.885 4.304.764 8.528 1.89 12.51 3.74 1.971.926 3.902 2.052 5.672 3.42.885.684 1.73 1.408 2.494 2.212.764.805 1.528 1.69 2.172 2.615 1.327 1.85 2.333 3.982 2.976 6.234.644 2.253.925 4.626.885 7-.04 4.786-1.287 9.493-3.178 13.757a50.435 50.435 0 0 1-3.338 6.154 50.529 50.529 0 0 1-4.143 5.511 48.51 48.51 0 0 1-4.747 4.787c-.845.724-1.69 1.448-2.535 2.092a55.294 55.294 0 0 1-2.654 1.93c-3.62 2.414-7.482 4.264-11.464 5.39l-.725.202a5.42 5.42 0 0 0-.764.2c-.483.122-1.006.202-1.488.282-1.006.161-2.011.282-3.017.322a37.75 37.75 0 0 1-3.017 0c-1.006-.08-2.011-.16-3.057-.322-4.063-.643-8.045-2.132-11.907-4.102-3.82-1.972-7.521-4.345-11.102-7.12l-.04-.04-.04-.041a.571.571 0 0 0-.242-.08c-.24 0-.402.16-.402.402 0 .08.04.16.08.241 2.937 3.781 7 7.563 11.907 10.941l-.04-.04c3.299 2.213 6.919 3.942 10.82 4.867 1.153.28 2.322.48 3.5.603 1.167.122 2.374.202 3.58.161 1.207-.04 2.414-.12 3.58-.321.604-.08 1.207-.201 1.77-.362.322-.08.523-.121.845-.202l.885-.24c4.585-1.328 8.89-3.662 12.711-6.638 3.822-2.977 7.16-6.637 9.976-10.66 1.408-2.011 2.655-4.143 3.781-6.315a52.886 52.886 0 0 0 2.896-6.798c1.489-4.344 2.454-8.97 2.454-13.556v-1.006a27.992 27.992 0 0 0-1.086-7.28 22.934 22.934 0 0 0-3.097-6.477 26.13 26.13 0 0 0-4.747-5.108 33.246 33.246 0 0 0-5.712-3.741c-4.022-2.092-8.286-3.54-12.63-4.586-2.173-.523-4.385-.925-6.557-1.287a124.057 124.057 0 0 0-6.637-.764C67.015.12 64.803.04 62.55 0h-1.97v.04Z" fill="#000"/></svg>