<svg class="_1feyr222" xmlns="http://www.w3.org/2000/svg" xmlns:xlink="http://www.w3.org/1999/xlink" fill="none" viewBox="0 0 321 282"><g clip-path="url(#clip0_6295_174261)"><path fill="url(#mapPattern)" d="M0 0H321V132.98H0z" transform-origin="160.5px 66.48999786376953px" style="transform: scale(1.5); transform-origin: 160.5px 66.49px;"/><g><path fill="#fff" d="M0 0H321V148.423H0z" transform="translate(0 132.98)"/><g><g><g fill-rule="evenodd" clip-rule="evenodd"><path fill="#FFE1E8" d="M14.775 150.84a3.084 3.084 0 013.084-3.084h32.378a3.084 3.084 0 013.084 3.084v32.378a3.083 3.083 0 01-3.084 3.083H17.859a3.083 3.083 0 01-3.084-3.083V150.84z"/><path fill="#B63D58" d="M34.169 155.946c-6.188 0-11.204 5.016-11.204 11.203 0 6.188 5.016 11.204 11.204 11.204 6.187 0 11.203-5.016 11.203-11.204 0-6.187-5.016-11.203-11.203-11.203zm-12.807 11.203c0-7.072 5.734-12.806 12.807-12.806s12.807 5.734 12.807 12.806c0 7.073-5.734 12.807-12.807 12.807s-12.807-5.734-12.807-12.807zm14.96-7.966c.33-.107.692.01.896.291a17.539 17.539 0 013.355 10.064.799.799 0 01-.802.813h-2.4v4.001a.801.801 0 11-1.603 0v-14.406c0-.348.224-.656.554-.763zm1.05 9.565h1.565a15.935 15.935 0 00-1.565-5.914v5.914zm-7.205-9.604c.443 0 .802.359.802.802v3.201a.8.8 0 00.798.8.8.8 0 00.8-.8v-3.201a.802.802 0 111.603 0v3.201a2.406 2.406 0 01-1.6 2.266v8.939a.802.802 0 11-1.604 0v-8.939a2.406 2.406 0 01-1.6-2.266v-3.201c0-.443.358-.802.8-.802z"/></g></g><g><g><path fill="#2C1C49" d="M262.766 163.375c-.421 0-.776-.026-1.064-.077a12.07 12.07 0 01-.925-.216 4.714 4.714 0 00-.678-.17 3.107 3.107 0 00-.663-.061c-.36 0-.668.036-.925.107a5.602 5.602 0 00-.771.247l-.062.046-.771-1.649c.627-.34 1.095-.684 1.403-1.033.319-.35.478-.746.478-1.188 0-.123-.015-.236-.046-.339a3.465 3.465 0 00-.077-.308h-1.773v-1.588h1.002a5.019 5.019 0 01-.247-.756 3.595 3.595 0 01-.092-.832c0-.679.164-1.275.493-1.789a3.176 3.176 0 011.388-1.202c.606-.288 1.305-.432 2.097-.432.76 0 1.408.139 1.942.416.535.268.951.632 1.249 1.095.308.463.519.982.632 1.557l-2.081.571c-.113-.494-.319-.889-.617-1.188-.288-.308-.678-.462-1.172-.462-.524 0-.935.144-1.233.432-.298.277-.447.657-.447 1.141 0 .246.031.483.092.709.072.216.175.462.309.74h2.79v1.588h-2.282a.323.323 0 01.016.108c.01.041.015.082.015.123.021.072.031.165.031.278a3.35 3.35 0 01-.586 1.896c.072-.01.175-.015.309-.015.205 0 .395.015.57.046.175.021.339.051.493.092.144.031.293.062.448.093.154.031.313.046.478.046.277 0 .503-.056.678-.169.175-.113.293-.314.355-.602l1.958.54c-.113.678-.396 1.218-.848 1.619-.442.39-1.064.586-1.866.586zM266.843 163.236v-1.943l4.148-3.376c.339-.278.606-.514.801-.709.206-.206.375-.432.509-.679.134-.257.201-.539.201-.848 0-.473-.16-.853-.478-1.141-.309-.288-.725-.431-1.249-.431-.545 0-.977.159-1.295.477-.309.319-.525.73-.648 1.234l-2.128-.493a4.108 4.108 0 01.663-1.558 3.635 3.635 0 011.342-1.171c.565-.309 1.249-.463 2.05-.463.792 0 1.486.149 2.082.447a3.227 3.227 0 011.403 1.234c.329.524.493 1.125.493 1.803 0 .597-.113 1.131-.339 1.604a4.657 4.657 0 01-.833 1.203c-.318.328-.74.704-1.264 1.125l-2.097 1.742h4.549v1.943h-7.91zM280.786 163.483c-.843 0-1.598-.185-2.266-.555-.658-.381-1.188-.982-1.588-1.804-.391-.833-.586-1.881-.586-3.146 0-1.223.18-2.271.539-3.145.36-.874.879-1.542 1.558-2.004.688-.463 1.505-.694 2.451-.694.946 0 1.732.247 2.359.74.637.483 1.1 1.182 1.388 2.097l-2.205.447c-.134-.421-.334-.75-.601-.987-.268-.236-.602-.354-1.003-.354-.637 0-1.151.262-1.541.786-.391.524-.617 1.372-.679 2.544.298-.411.679-.73 1.141-.956a3.542 3.542 0 011.604-.355 3.68 3.68 0 011.773.432c.534.278.961.689 1.279 1.234.319.534.478 1.161.478 1.881 0 .76-.19 1.433-.57 2.019a3.74 3.74 0 01-1.496 1.357 4.553 4.553 0 01-2.035.463zm-.015-1.85c.38 0 .709-.083.986-.247a1.57 1.57 0 00.648-.694 2.15 2.15 0 00.231-1.002c0-.37-.077-.699-.231-.987a1.57 1.57 0 00-.648-.694 1.871 1.871 0 00-.971-.246c-.37 0-.699.082-.987.246a1.719 1.719 0 00-.647.679 2.054 2.054 0 00-.231.986c0 .37.071.705.215 1.003.155.298.37.534.648.709.288.164.617.247.987.247zM287.274 163.359c-.38 0-.704-.128-.971-.385a1.35 1.35 0 01-.386-.971c0-.35.129-.653.386-.91a1.35 1.35 0 01.971-.386c.36 0 .668.129.925.386s.386.56.386.91c0 .38-.129.704-.386.971a1.26 1.26 0 01-.925.385zM293.826 163.483c-.935 0-1.742-.226-2.42-.679-.679-.462-1.198-1.12-1.558-1.973-.349-.853-.524-1.861-.524-3.022 0-1.162.175-2.169.524-3.022.36-.853.879-1.506 1.558-1.958.678-.463 1.48-.694 2.405-.694.925 0 1.722.231 2.39.694.668.452 1.177 1.105 1.526 1.958.36.853.54 1.86.54 3.022 0 1.161-.18 2.169-.54 3.022-.349.853-.858 1.511-1.526 1.973-.668.453-1.46.679-2.375.679zm0-1.989c.689 0 1.223-.324 1.604-.972.39-.657.586-1.562.586-2.713s-.196-2.051-.586-2.698c-.391-.658-.931-.987-1.619-.987-.699 0-1.249.329-1.65.987-.401.647-.601 1.547-.601 2.698s.2 2.056.601 2.713c.401.648.956.972 1.665.972zM301.977 163.236v-8.31l-2.436 1.619v-2.329l2.729-1.834h1.912v10.854h-2.205z"/><path fill="#7A708C" d="M214.53 181.995c-.617 0-1.16-.108-1.631-.324a2.878 2.878 0 01-1.133-.936 3.352 3.352 0 01-.532-1.434l.937-.185c.054.424.185.79.393 1.098.208.309.478.544.81.706.331.161.713.242 1.144.242.632 0 1.145-.138 1.538-.416.401-.277.602-.663.602-1.156 0-.309-.081-.559-.243-.752-.162-.193-.413-.351-.752-.474s-.821-.25-1.445-.382c-.625-.123-1.13-.269-1.515-.439-.386-.177-.679-.409-.879-.694-.2-.293-.301-.659-.301-1.098 0-.463.124-.864.37-1.203a2.392 2.392 0 011.041-.775 3.897 3.897 0 011.503-.277c.54 0 1.014.1 1.423.3.408.193.74.463.994.81.262.339.447.74.555 1.203l-.879.196c-.138-.516-.385-.925-.74-1.226-.354-.308-.805-.462-1.353-.462-.593 0-1.071.127-1.434.381-.362.255-.543.586-.543.995 0 .27.073.489.22.659.146.17.366.312.659.428.3.115.721.227 1.26.335.686.154 1.241.32 1.665.497.424.17.752.409.983.717.239.309.359.71.359 1.203 0 .493-.131.925-.393 1.295-.255.37-.617.659-1.087.867-.463.201-.995.301-1.596.301zM221.667 182.007c-.578 0-1.083-.132-1.515-.394a2.743 2.743 0 01-1.006-1.11c-.231-.47-.347-1.006-.347-1.607 0-.586.116-1.11.347-1.573.232-.47.563-.836.995-1.098.431-.27.933-.405 1.503-.405.54 0 1.006.127 1.399.382.393.246.694.597.902 1.052.208.447.312.964.312 1.549 0 .101-.003.189-.011.266h-4.579c.023.717.212 1.265.566 1.642.355.37.833.555 1.434.555.447 0 .806-.104 1.076-.312.277-.216.516-.516.717-.902l.705.266c-.216.532-.54.948-.971 1.249-.424.293-.933.44-1.527.44zm1.723-3.608c-.015-.578-.185-1.029-.509-1.353-.316-.324-.728-.486-1.237-.486-.555 0-1.002.166-1.341.497-.34.324-.544.771-.613 1.342h3.7zM227.499 181.902c-.532 0-.917-.127-1.156-.381-.232-.262-.347-.621-.347-1.076v-3.7h-.983v-.74h.983v-1.468h.856v1.468h1.295v.74h-1.295v3.654c0 .278.065.47.196.578.131.108.343.162.636.162.131 0 .285-.011.463-.034v.717c-.239.053-.455.08-.648.08zM231.248 181.902c-.532 0-.917-.127-1.156-.381-.231-.262-.347-.621-.347-1.076v-3.7h-.983v-.74h.983v-1.468h.856v1.468h1.295v.74h-1.295v3.654c0 .278.065.47.196.578.131.108.343.162.636.162.131 0 .285-.011.463-.034v.717c-.239.053-.455.08-.648.08zM233.092 181.822v-8.384h.855v8.384h-.855zM238.222 182.007c-.578 0-1.083-.132-1.515-.394a2.736 2.736 0 01-1.006-1.11c-.231-.47-.347-1.006-.347-1.607 0-.586.116-1.11.347-1.573a2.59 2.59 0 01.995-1.098c.431-.27.932-.405 1.503-.405.539 0 1.006.127 1.399.382.393.246.694.597.902 1.052.208.447.312.964.312 1.549 0 .101-.004.189-.011.266h-4.58c.024.717.212 1.265.567 1.642.355.37.833.555 1.434.555.447 0 .806-.104 1.075-.312.278-.216.517-.516.717-.902l.706.266a2.73 2.73 0 01-.972 1.249c-.424.293-.932.44-1.526.44zm1.723-3.608c-.015-.578-.185-1.029-.509-1.353-.316-.324-.728-.486-1.237-.486-.555 0-1.002.166-1.342.497-.339.324-.543.771-.612 1.342h3.7zM244.678 182.007a2.618 2.618 0 01-1.423-.394 2.672 2.672 0 01-.959-1.098c-.224-.47-.336-1.002-.336-1.596 0-.601.112-1.137.336-1.607.231-.47.551-.837.959-1.099a2.596 2.596 0 011.411-.393c.447 0 .852.108 1.214.324.37.208.671.497.902.867v-3.573h.856v8.384h-.856v-1.006c-.231.37-.532.662-.902.878a2.371 2.371 0 01-1.202.313zm.15-.764c.386 0 .725-.092 1.018-.277a1.91 1.91 0 00.682-.81c.17-.354.254-.767.254-1.237 0-.717-.177-1.283-.532-1.7-.354-.424-.828-.636-1.422-.636-.601 0-1.083.212-1.445.636-.355.417-.532.983-.532 1.7 0 .47.081.883.243 1.237.161.347.393.617.693.81.301.185.648.277 1.041.277zM251.824 181.822l3.203-8.141h.972l3.203 8.141h-.948l-.868-2.221h-3.781l-.856 2.221h-.925zm2.093-3.03h3.169l-1.585-4.082-1.584 4.082zM260.478 184.019v-8.014h.856v1.006a2.52 2.52 0 01.89-.867 2.327 2.327 0 011.214-.324c.532 0 1.003.131 1.411.393.409.262.725.629.948 1.099.232.47.347 1.006.347 1.607 0 .594-.115 1.126-.347 1.596-.223.47-.543.836-.959 1.098a2.538 2.538 0 01-1.4.394c-.447 0-.851-.105-1.214-.313a2.622 2.622 0 01-.89-.878v3.203h-.856zm2.81-2.776c.393 0 .736-.092 1.029-.277.301-.193.532-.463.694-.81.162-.354.243-.767.243-1.237 0-.717-.177-1.283-.532-1.7-.355-.424-.833-.636-1.434-.636-.593 0-1.068.212-1.422.636-.355.417-.532.983-.532 1.7 0 .47.081.883.243 1.237.162.347.389.617.682.81.301.185.644.277 1.029.277zM267.672 184.019v-8.014h.855v1.006c.231-.37.528-.659.891-.867a2.325 2.325 0 011.214-.324c.532 0 1.002.131 1.411.393.408.262.724.629.948 1.099.231.47.347 1.006.347 1.607 0 .594-.116 1.126-.347 1.596-.224.47-.544.836-.96 1.098a2.537 2.537 0 01-1.399.394c-.447 0-.852-.105-1.214-.313a2.616 2.616 0 01-.891-.878v3.203h-.855zm2.809-2.776c.394 0 .737-.092 1.03-.277.3-.193.532-.463.693-.81.162-.354.243-.767.243-1.237 0-.717-.177-1.283-.532-1.7-.354-.424-.832-.636-1.434-.636-.593 0-1.067.212-1.422.636-.354.417-.532.983-.532 1.7 0 .47.081.883.243 1.237.162.347.389.617.682.81.301.185.644.277 1.029.277zM274.772 181.822v-8.384h.856v8.384h-.856zM279.903 182.007c-.579 0-1.084-.132-1.515-.394a2.736 2.736 0 01-1.006-1.11c-.232-.47-.347-1.006-.347-1.607 0-.586.115-1.11.347-1.573.231-.47.562-.836.994-1.098.432-.27.933-.405 1.503-.405.54 0 1.006.127 1.4.382.393.246.693.597.902 1.052.208.447.312.964.312 1.549 0 .101-.004.189-.012.266h-4.579c.023.717.212 1.265.567 1.642.354.37.832.555 1.434.555.447 0 .805-.104 1.075-.312.278-.216.516-.516.717-.902l.705.266c-.216.532-.539.948-.971 1.249-.424.293-.933.44-1.526.44zm1.723-3.608c-.016-.578-.185-1.029-.509-1.353-.316-.324-.729-.486-1.238-.486-.555 0-1.002.166-1.341.497-.339.324-.543.771-.613 1.342h3.701zM287.191 181.822v-8.153h3.527c.801 0 1.418.22 1.85.659.439.44.659 1.014.659 1.723 0 .717-.22 1.292-.659 1.723-.432.432-1.049.648-1.85.648h-2.637v3.4h-.89zm3.469-4.186c.539 0 .948-.139 1.225-.417.286-.285.428-.674.428-1.168 0-.485-.142-.871-.428-1.156-.277-.285-.686-.428-1.225-.428h-2.579v3.169h2.579zM295.782 181.983c-.432 0-.798-.081-1.099-.242a1.692 1.692 0 01-.659-.66 1.826 1.826 0 01-.22-.89c0-.555.216-.991.648-1.307.439-.316 1.052-.474 1.838-.474h1.48v-.578a1.17 1.17 0 00-.393-.902c-.262-.239-.62-.358-1.075-.358-.416 0-.752.104-1.006.312-.255.208-.436.497-.544.867l-.832-.162c.092-.385.25-.709.474-.971.223-.27.501-.47.832-.601a3.003 3.003 0 011.111-.197c.462 0 .863.085 1.202.254.347.162.613.397.798.706.185.3.278.651.278 1.052v3.99h-.845v-1.076a2.31 2.31 0 01-.797.902c-.332.224-.729.335-1.191.335zm.196-.728c.362 0 .679-.089.948-.266.27-.177.474-.412.613-.705.147-.293.22-.609.22-.949v-.289h-1.353c-.563 0-.994.097-1.295.289a.928.928 0 00-.44.821c0 .34.12.609.359.81.247.193.563.289.948.289zM302.686 184.204c-.578 0-1.075-.124-1.492-.37a1.896 1.896 0 01-.855-1.064l.786-.255c.123.301.32.532.59.694.277.17.609.255.994.255.347 0 .644-.07.89-.209.255-.131.448-.331.579-.601.138-.262.208-.59.208-.983v-1.017c-.201.362-.47.643-.81.844-.331.2-.72.3-1.168.3-.639 0-1.141-.204-1.503-.612-.354-.417-.532-.983-.532-1.7v-3.481h.856v3.354c0 .555.116.975.347 1.26.231.277.582.416 1.052.416.339 0 .64-.088.902-.266.27-.185.478-.443.625-.775.154-.339.231-.732.231-1.179v-2.81h.879v5.643c0 .524-.108.979-.324 1.365a2.068 2.068 0 01-.902.878c-.386.209-.837.313-1.353.313z"/></g></g></g><g><g><rect width="104.149" height="25.859" x="14.776" y="240.771" fill="#FFE1E8" rx="12.93"/><g><path fill="#2C1C49" d="M16.117 208.689v-10.854h7.925v1.942h-5.72v2.421h5.072v1.85h-5.072v2.698h5.72v1.943h-7.925zM25.804 208.689v-11.178h2.127v11.178h-2.127zM33.779 208.689v-10.885h5.18c1.182 0 2.092.313 2.729.94.637.617.956 1.47.956 2.56 0 1.069-.319 1.917-.956 2.544s-1.547.94-2.73.94h-2.975v3.901H33.78zm4.933-5.782c.535 0 .946-.139 1.234-.416.298-.278.447-.673.447-1.187 0-.535-.15-.936-.447-1.203-.288-.267-.7-.401-1.234-.401h-2.729v3.207h2.73zM47.573 208.936c-.822 0-1.542-.175-2.159-.525a3.741 3.741 0 01-1.434-1.48c-.329-.637-.493-1.357-.493-2.158 0-.792.16-1.506.478-2.143a3.747 3.747 0 011.403-1.511c.617-.37 1.341-.555 2.174-.555.802 0 1.48.174 2.035.524.565.349.992.843 1.28 1.48.288.637.431 1.388.431 2.251 0 .175-.005.329-.015.462h-5.72c.072.658.283 1.147.632 1.465.36.309.833.463 1.419.463.452 0 .822-.108 1.11-.324a2.59 2.59 0 00.74-.848l1.696.632c-.33.74-.797 1.306-1.403 1.696-.596.38-1.321.571-2.174.571zm1.65-5.058c-.052-.524-.227-.914-.525-1.171-.288-.268-.673-.401-1.156-.401-.494 0-.91.133-1.249.401-.329.257-.555.647-.678 1.171h3.607zM58.565 207.81c-.298.36-.653.637-1.064.833a3.126 3.126 0 01-1.357.293 3.453 3.453 0 01-1.88-.525 3.67 3.67 0 01-1.28-1.48c-.309-.637-.463-1.362-.463-2.174 0-.801.154-1.521.462-2.158.309-.638.736-1.136 1.28-1.496.545-.36 1.172-.539 1.881-.539.494 0 .946.102 1.357.308.411.195.766.473 1.064.833v-.895h2.128v10.808h-2.128v-3.808zm-1.912-.694c.39 0 .73-.092 1.018-.277a1.88 1.88 0 00.663-.817c.154-.35.23-.771.23-1.265 0-.73-.169-1.305-.508-1.727-.34-.431-.807-.647-1.403-.647s-1.069.216-1.418.647c-.34.422-.51.997-.51 1.727 0 .494.078.915.232 1.265.154.349.375.621.663.817.298.185.642.277 1.033.277zM65.514 208.936c-.894 0-1.593-.293-2.096-.879-.504-.586-.756-1.388-.756-2.405v-4.842h2.159v4.718c0 .514.118.91.354 1.187.237.268.591.401 1.064.401.319 0 .601-.082.848-.246.247-.175.437-.417.57-.725.134-.308.2-.668.2-1.079v-4.256h2.16v7.879h-2.16v-1.049c-.246.412-.57.73-.97.956-.391.226-.848.34-1.373.34zM75.744 208.936c-.823 0-1.542-.175-2.159-.525a3.74 3.74 0 01-1.434-1.48c-.328-.637-.493-1.357-.493-2.158 0-.792.16-1.506.478-2.143a3.746 3.746 0 011.403-1.511c.617-.37 1.341-.555 2.174-.555.802 0 1.48.174 2.035.524.566.349.992.843 1.28 1.48.288.637.431 1.388.431 2.251 0 .175-.005.329-.015.462h-5.72c.072.658.283 1.147.632 1.465.36.309.833.463 1.419.463.452 0 .822-.108 1.11-.324a2.59 2.59 0 00.74-.848l1.696.632c-.33.74-.797 1.306-1.403 1.696-.596.38-1.321.571-2.174.571zm1.65-5.058c-.052-.524-.227-.914-.525-1.171-.287-.268-.673-.401-1.156-.401-.493 0-.91.133-1.249.401-.329.257-.555.647-.678 1.171h3.608zM81.095 208.689v-7.879h2.159v1.049c.246-.411.565-.73.956-.956.4-.226.863-.339 1.387-.339.894 0 1.588.293 2.082.878.503.586.755 1.388.755 2.406v4.841h-2.143v-4.718c0-.514-.123-.905-.37-1.172-.237-.277-.586-.416-1.049-.416-.329 0-.616.087-.863.262a1.622 1.622 0 00-.555.709c-.134.309-.2.668-.2 1.079v4.256h-2.159zm4.718-9.128c-.226 0-.432-.03-.617-.092a5.45 5.45 0 01-.601-.262 3.393 3.393 0 00-.432-.185.874.874 0 00-.37-.077.819.819 0 00-.447.138c-.134.093-.252.247-.355.463l-1.125-.648c.185-.483.432-.832.74-1.048a1.808 1.808 0 011.064-.324c.226 0 .426.031.601.093.185.061.38.144.586.246.175.083.324.149.447.201.123.041.257.062.401.062a.653.653 0 00.432-.155 1.21 1.21 0 00.339-.431l1.172.647c-.165.452-.406.797-.725 1.033a1.87 1.87 0 01-1.11.339zM94.053 208.936c-.791 0-1.5-.175-2.127-.525a3.85 3.85 0 01-1.465-1.464c-.35-.638-.524-1.367-.524-2.19 0-.801.175-1.521.524-2.158a3.794 3.794 0 011.465-1.496c.627-.36 1.341-.539 2.143-.539.791 0 1.495.179 2.112.539a3.69 3.69 0 011.45 1.496c.349.627.524 1.346.524 2.158 0 .812-.175 1.537-.525 2.174a3.712 3.712 0 01-1.449 1.48c-.617.35-1.326.525-2.128.525zm0-1.82c.391 0 .725-.092 1.003-.277.287-.185.508-.453.663-.802.154-.36.23-.786.23-1.28 0-.493-.076-.92-.23-1.279-.144-.36-.36-.633-.648-.818a1.84 1.84 0 00-1.018-.277c-.39 0-.73.098-1.017.293-.288.185-.509.457-.663.817-.154.36-.231.781-.231 1.264s.077.905.23 1.265c.155.349.376.621.664.817a1.89 1.89 0 001.017.277zM108.529 208.936c-1.1 0-2.066-.242-2.899-.725a4.987 4.987 0 01-1.912-2.004c-.442-.864-.663-1.845-.663-2.945 0-1.09.216-2.061.648-2.914a4.858 4.858 0 011.896-2.02c.833-.493 1.809-.74 2.93-.74.832 0 1.562.144 2.189.432a4.18 4.18 0 011.573 1.202 5.13 5.13 0 01.955 1.804l-2.081.54c-.236-.596-.576-1.059-1.018-1.388-.431-.339-.981-.509-1.649-.509s-1.244.16-1.727.478a3.006 3.006 0 00-1.095 1.295 4.36 4.36 0 00-.37 1.82c0 .719.123 1.351.37 1.896.247.535.607.951 1.079 1.249.484.298 1.064.447 1.743.447.442 0 .837-.077 1.187-.231.349-.154.642-.37.879-.648.236-.277.426-.606.57-.986l2.066.508a4.912 4.912 0 01-.925 1.804 4.177 4.177 0 01-1.573 1.203c-.637.288-1.361.432-2.173.432zM114.686 208.689v-7.879h2.144v7.879h-2.144zm.078-8.881l.786-2.266h2.636l-1.495 2.266h-1.927zM118.963 208.689v-7.879h2.158v1.357c.195-.462.463-.817.802-1.064.349-.257.766-.385 1.249-.385.102 0 .2.005.293.015.092.01.179.026.262.046v2.02a3.12 3.12 0 00-.571-.046c-.606 0-1.1.206-1.48.617-.37.401-.555.956-.555 1.665v3.654h-2.158zM128.745 208.92c-.823 0-1.547-.175-2.174-.524a3.823 3.823 0 01-1.465-1.48c-.339-.627-.509-1.342-.509-2.143 0-.792.17-1.506.509-2.143a3.788 3.788 0 011.449-1.511c.627-.37 1.357-.555 2.19-.555.627 0 1.187.113 1.68.339.494.226.9.55 1.218.971.319.411.54.889.663 1.434l-2.004.416a2.106 2.106 0 00-.571-.94c-.257-.247-.591-.37-1.002-.37-.401 0-.75.108-1.048.324a1.957 1.957 0 00-.663.848 3.002 3.002 0 00-.216 1.156c0 .432.072.822.216 1.172.154.349.375.627.663.832.298.206.647.309 1.048.309s.735-.114 1.002-.34c.268-.236.458-.539.571-.909l2.02.401c-.124.514-.34.976-.648 1.387a3.276 3.276 0 01-1.187.972c-.493.236-1.074.354-1.742.354zM136.416 208.936c-.894 0-1.593-.293-2.097-.879-.503-.586-.755-1.388-.755-2.405v-4.842h2.158v4.718c0 .514.119.91.355 1.187.236.268.591.401 1.064.401.319 0 .601-.082.848-.246.247-.175.437-.417.57-.725.134-.308.201-.668.201-1.079v-4.256h2.158v7.879h-2.158v-1.049a2.62 2.62 0 01-.972.956c-.39.226-.848.34-1.372.34zM142.914 208.689v-11.178h2.128v11.178h-2.128zM150.651 208.936c-.791 0-1.5-.175-2.127-.525a3.85 3.85 0 01-1.465-1.464c-.349-.638-.524-1.367-.524-2.19 0-.801.175-1.521.524-2.158a3.791 3.791 0 011.465-1.496c.627-.36 1.341-.539 2.143-.539.791 0 1.495.179 2.112.539.627.36 1.11.858 1.449 1.496.35.627.525 1.346.525 2.158 0 .812-.175 1.537-.525 2.174a3.71 3.71 0 01-1.449 1.48c-.617.35-1.326.525-2.128.525zm0-1.82c.391 0 .725-.092 1.003-.277.287-.185.508-.453.663-.802.154-.36.231-.786.231-1.28 0-.493-.077-.92-.231-1.279-.144-.36-.36-.633-.648-.818a1.841 1.841 0 00-1.018-.277c-.39 0-.729.098-1.017.293-.288.185-.509.457-.663.817-.154.36-.231.781-.231 1.264s.077.905.231 1.265c.154.349.375.621.663.817.298.185.637.277 1.017.277zM160.254 208.689v-10.854h2.899l3.037 7.817 3.007-7.817h2.898v10.854h-2.204v-7.247l-2.837 7.247h-1.727l-2.868-7.277v7.277h-2.205zM178.13 208.936c-.792 0-1.501-.175-2.128-.525a3.85 3.85 0 01-1.465-1.464c-.349-.638-.524-1.367-.524-2.19 0-.801.175-1.521.524-2.158a3.798 3.798 0 011.465-1.496c.627-.36 1.342-.539 2.143-.539.792 0 1.496.179 2.113.539.627.36 1.11.858 1.449 1.496.349.627.524 1.346.524 2.158 0 .812-.175 1.537-.524 2.174a3.71 3.71 0 01-1.449 1.48c-.617.35-1.326.525-2.128.525zm0-1.82c.39 0 .724-.092 1.002-.277.288-.185.509-.453.663-.802.154-.36.231-.786.231-1.28 0-.493-.077-.92-.231-1.279-.144-.36-.36-.633-.648-.818a1.838 1.838 0 00-1.017-.277c-.391 0-.73.098-1.018.293-.288.185-.509.457-.663.817-.154.36-.231.781-.231 1.264s.077.905.231 1.265c.154.349.375.621.663.817.298.185.638.277 1.018.277zM183.872 208.689v-7.879h2.158v1.357c.196-.462.463-.817.802-1.064.35-.257.766-.385 1.249-.385.103 0 .2.005.293.015.092.01.18.026.262.046v2.02a3.108 3.108 0 00-.57-.046c-.607 0-1.1.206-1.481.617-.37.401-.555.956-.555 1.665v3.654h-2.158zM192.035 208.843a2.96 2.96 0 01-1.341-.293 2.3 2.3 0 01-.91-.832 2.321 2.321 0 01-.324-1.218c0-.771.293-1.378.879-1.82.596-.442 1.408-.663 2.436-.663h1.65v-.555c0-.329-.113-.596-.339-.802-.226-.205-.54-.308-.941-.308-.401 0-.724.103-.971.308-.237.206-.401.484-.494.833l-2.066-.324c.124-.545.34-1.012.648-1.403.319-.39.72-.688 1.203-.894.483-.206 1.033-.308 1.649-.308.689 0 1.29.123 1.804.37.514.236.91.575 1.187 1.017.278.442.417.946.417 1.511v5.227h-2.097v-1.264a2.533 2.533 0 01-.941 1.033c-.4.257-.884.385-1.449.385zm.663-1.634c.319 0 .606-.077.863-.232.268-.164.473-.37.617-.616.154-.257.231-.53.231-.817v-.278h-1.171c-.545 0-.961.087-1.249.262a.835.835 0 00-.432.756c0 .287.103.514.308.678.206.165.484.247.833.247zM201.622 208.936a3.452 3.452 0 01-1.881-.525 3.665 3.665 0 01-1.28-1.48c-.308-.637-.463-1.362-.463-2.174 0-.801.155-1.521.463-2.158.308-.638.735-1.136 1.28-1.496.544-.36 1.171-.539 1.881-.539.493 0 .945.102 1.357.308.411.195.765.473 1.063.833v-4.194h2.128v11.178h-2.128v-.879c-.298.36-.652.637-1.063.833a3.13 3.13 0 01-1.357.293zm.509-1.82c.39 0 .729-.092 1.017-.277.288-.196.509-.468.663-.817.154-.35.231-.771.231-1.265 0-.73-.169-1.305-.508-1.727-.34-.431-.807-.647-1.403-.647-.597 0-1.069.216-1.419.647-.339.422-.509.997-.509 1.727 0 .494.077.915.232 1.265.154.349.375.621.663.817.298.185.642.277 1.033.277zM211.917 208.936c-.791 0-1.501-.175-2.128-.525a3.848 3.848 0 01-1.464-1.464c-.35-.638-.525-1.367-.525-2.19 0-.801.175-1.521.525-2.158a3.789 3.789 0 011.464-1.496c.627-.36 1.342-.539 2.143-.539.792 0 1.496.179 2.113.539.627.36 1.11.858 1.449 1.496.349.627.524 1.346.524 2.158 0 .812-.175 1.537-.524 2.174a3.71 3.71 0 01-1.449 1.48c-.617.35-1.326.525-2.128.525zm0-1.82c.391 0 .725-.092 1.002-.277.288-.185.509-.453.663-.802.154-.36.231-.786.231-1.28 0-.493-.077-.92-.231-1.279-.144-.36-.36-.633-.647-.818a1.841 1.841 0 00-1.018-.277c-.391 0-.73.098-1.018.293-.287.185-.508.457-.663.817-.154.36-.231.781-.231 1.264s.077.905.231 1.265c.155.349.376.621.663.817.298.185.638.277 1.018.277z"/><path fill="#7A708C" d="M18.661 229.556c-.617 0-1.16-.108-1.63-.324a2.87 2.87 0 01-1.134-.936 3.346 3.346 0 01-.532-1.434l.937-.185c.054.424.185.79.393 1.098.208.309.478.544.81.706.331.162.713.243 1.144.243.633 0 1.145-.139 1.538-.417.401-.277.602-.663.602-1.156 0-.308-.081-.559-.243-.752-.162-.192-.413-.35-.752-.474-.339-.123-.82-.25-1.445-.381-.625-.124-1.13-.27-1.515-.44-.386-.177-.678-.408-.879-.694-.2-.292-.3-.659-.3-1.098 0-.463.123-.863.37-1.203a2.376 2.376 0 011.04-.774 3.898 3.898 0 011.503-.278c.54 0 1.014.1 1.423.301.408.192.74.462.994.809.262.339.447.74.555 1.203l-.879.196c-.138-.516-.385-.925-.74-1.225-.354-.309-.805-.463-1.352-.463-.594 0-1.072.127-1.434.382-.363.254-.544.586-.544.994 0 .27.073.49.22.659.146.17.366.312.659.428.3.116.72.228 1.26.335.686.155 1.241.32 1.665.498.425.169.752.408.983.717.24.308.359.709.359 1.202 0 .494-.131.925-.393 1.295-.255.37-.617.659-1.087.868-.463.2-.995.3-1.596.3zM24.908 229.545c-.432 0-.798-.081-1.099-.243a1.694 1.694 0 01-.659-.659 1.839 1.839 0 01-.22-.891c0-.555.216-.99.648-1.306.44-.316 1.052-.474 1.839-.474h1.48v-.579a1.17 1.17 0 00-.393-.902c-.263-.239-.62-.358-1.076-.358-.416 0-.751.104-1.006.312-.254.208-.435.497-.543.867l-.833-.161c.093-.386.25-.71.474-.972.224-.27.501-.47.833-.601a2.997 2.997 0 011.11-.197c.462 0 .863.085 1.203.255.346.162.612.397.797.705.185.301.278.651.278 1.052v3.99h-.844v-1.076a2.315 2.315 0 01-.798.902c-.332.224-.729.336-1.191.336zm.197-.729c.362 0 .678-.088.948-.266.27-.177.474-.412.613-.705a2.09 2.09 0 00.22-.948v-.289h-1.354c-.563 0-.994.096-1.295.289a.925.925 0 00-.44.821c0 .339.12.609.36.809.246.193.562.289.948.289zM31.156 229.464c-.532 0-.918-.127-1.156-.382-.232-.262-.347-.62-.347-1.075v-3.701h-.983v-.74h.983v-1.468h.855v1.468h1.295v.74h-1.295v3.654c0 .278.066.471.197.579.131.108.343.162.636.162.13 0 .285-.012.462-.035v.717a2.965 2.965 0 01-.647.081zM35.058 229.568c-.655 0-1.164-.204-1.527-.613-.362-.416-.543-.987-.543-1.711v-3.678h.867v3.55c0 .563.116.987.347 1.272.239.278.598.417 1.076.417.346 0 .65-.089.913-.266.27-.185.482-.444.636-.775.154-.339.231-.732.231-1.18v-3.018h.89v5.817h-.89v-.96c-.2.355-.47.636-.81.844-.338.201-.735.301-1.19.301zM39.834 229.383v-5.817h.855v1.053c.154-.34.37-.606.648-.798a1.63 1.63 0 011.145-.289c.046 0 .096.007.15.023v.809a1.958 1.958 0 00-.312-.023c-.494 0-.89.181-1.191.544-.293.354-.44.832-.44 1.433v3.065h-.855zM46.087 229.568a2.614 2.614 0 01-1.422-.393 2.674 2.674 0 01-.96-1.099c-.223-.47-.335-1.002-.335-1.596 0-.601.112-1.137.335-1.607a2.68 2.68 0 01.96-1.099 2.593 2.593 0 011.41-.393c.448 0 .853.108 1.215.324.37.208.67.497.902.867v-3.573h.856v8.384h-.856v-1.006a2.59 2.59 0 01-.902.879 2.373 2.373 0 01-1.203.312zm.15-.763c.386 0 .725-.093 1.018-.278.293-.193.52-.462.682-.809.17-.355.255-.767.255-1.238 0-.717-.177-1.283-.532-1.7-.355-.423-.829-.635-1.422-.635-.602 0-1.083.212-1.446.635-.354.417-.532.983-.532 1.7 0 .471.081.883.243 1.238.162.347.393.616.694.809.3.185.647.278 1.04.278zM52.53 229.545c-.432 0-.799-.081-1.1-.243a1.692 1.692 0 01-.658-.659 1.838 1.838 0 01-.22-.891c0-.555.216-.99.648-1.306.439-.316 1.052-.474 1.838-.474h1.48v-.579a1.17 1.17 0 00-.393-.902c-.262-.239-.62-.358-1.075-.358-.417 0-.752.104-1.006.312-.255.208-.436.497-.544.867l-.832-.161c.092-.386.25-.71.474-.972.223-.27.5-.47.832-.601a2.997 2.997 0 011.11-.197c.463 0 .864.085 1.203.255.347.162.613.397.798.705.185.301.277.651.277 1.052v3.99h-.844v-1.076a2.315 2.315 0 01-.798.902c-.331.224-.728.336-1.19.336zm.196-.729c.362 0 .678-.088.948-.266.27-.177.474-.412.613-.705a2.09 2.09 0 00.22-.948v-.289h-1.353c-.563 0-.995.096-1.295.289a.925.925 0 00-.44.821c0 .339.12.609.359.809.246.193.563.289.948.289zM59.434 231.765c-.578 0-1.076-.123-1.492-.37a1.894 1.894 0 01-.856-1.064l.787-.254c.123.3.32.532.59.693.277.17.608.255.994.255.347 0 .644-.07.89-.208.255-.131.447-.332.578-.602.14-.262.209-.589.209-.983v-1.017c-.2.362-.47.644-.81.844-.331.2-.72.301-1.168.301-.64 0-1.14-.205-1.503-.613-.355-.417-.532-.983-.532-1.7v-3.481h.856v3.354c0 .555.115.975.347 1.26.23.278.582.416 1.052.416.34 0 .64-.088.902-.266a1.79 1.79 0 00.624-.774c.154-.339.232-.733.232-1.18v-2.81h.878v5.643c0 .525-.108.979-.323 1.365a2.075 2.075 0 01-.902.879c-.386.208-.837.312-1.353.312zM63.516 230.296c.239-.023.424-.111.554-.266a.846.846 0 00.22-.578.764.764 0 01-.15.012.62.62 0 01-.44-.174.648.648 0 01-.173-.462c0-.17.058-.312.173-.428a.62.62 0 01.44-.174c.216 0 .39.085.52.255.131.169.197.412.197.728 0 .455-.112.833-.335 1.134-.224.3-.56.458-1.007.474v-.521zM68.81 229.383v-.798l3.26-2.833a9.8 9.8 0 00.741-.706c.193-.2.355-.427.486-.682a1.79 1.79 0 00.196-.832c0-.501-.17-.902-.508-1.203-.332-.308-.775-.463-1.33-.463-.579 0-1.026.162-1.342.486-.316.324-.52.709-.613 1.157l-.878-.197c.077-.378.227-.736.45-1.075.224-.347.536-.629.937-.845.401-.223.883-.335 1.446-.335.54 0 1.013.104 1.422.312.416.208.736.501.96.879.231.37.347.794.347 1.272 0 .416-.089.802-.266 1.156-.17.347-.378.652-.625.914-.246.254-.559.543-.936.867l-2.452 2.128h4.337v.798H68.81zM75.54 229.383v-.798l3.261-2.833c.309-.27.555-.505.74-.706.193-.2.355-.427.486-.682.131-.254.197-.532.197-.832 0-.501-.17-.902-.51-1.203-.33-.308-.774-.463-1.329-.463-.578 0-1.025.162-1.341.486-.316.324-.52.709-.613 1.157l-.88-.197c.078-.378.228-.736.452-1.075.224-.347.536-.629.936-.845.401-.223.883-.335 1.446-.335.54 0 1.014.104 1.422.312.417.208.736.501.96.879.231.37.347.794.347 1.272 0 .416-.089.802-.266 1.156a3.68 3.68 0 01-.624.914c-.247.254-.56.543-.937.867l-2.452 2.128h4.337v.798H75.54zM87.578 229.568c-.787 0-1.395-.208-1.827-.625-.424-.416-.636-1.002-.636-1.757v-.393h.89v.393c0 .516.135.906.405 1.168.27.262.659.393 1.168.393.509 0 .902-.131 1.18-.393.277-.262.416-.652.416-1.168v-5.944h.89v5.944c0 .755-.22 1.341-.66 1.757-.43.417-1.04.625-1.826.625zM94.061 229.568c-.655 0-1.164-.204-1.526-.613-.363-.416-.544-.987-.544-1.711v-3.678h.867v3.55c0 .563.116.987.347 1.272.24.278.598.417 1.076.417.347 0 .651-.089.913-.266.27-.185.482-.444.636-.775.154-.339.231-.732.231-1.18v-3.018h.89v5.817h-.89v-.96c-.2.355-.47.636-.809.844-.34.201-.736.301-1.19.301zM98.837 229.383v-5.817h.856v.96c.208-.355.481-.632.821-.832.339-.209.736-.313 1.191-.313.647 0 1.152.208 1.514.625.363.408.544.975.544 1.7v3.677h-.867v-3.55c0-.563-.12-.987-.359-1.272-.231-.285-.582-.428-1.052-.428-.347 0-.655.092-.925.277-.27.185-.482.448-.636.787-.154.331-.231.721-.231 1.168v3.018h-.856zM108.018 229.383v-.798l3.26-2.833c.309-.27.556-.505.741-.706.192-.2.354-.427.485-.682a1.79 1.79 0 00.197-.832c0-.501-.17-.902-.509-1.203-.331-.308-.775-.463-1.33-.463-.578 0-1.025.162-1.341.486a2.28 2.28 0 00-.613 1.157l-.879-.197c.077-.378.228-.736.451-1.075.224-.347.536-.629.937-.845.401-.223.882-.335 1.445-.335.54 0 1.014.104 1.423.312.416.208.736.501.959.879.232.37.347.794.347 1.272 0 .416-.088.802-.266 1.156a3.68 3.68 0 01-.624.914c-.247.254-.559.543-.937.867l-2.451 2.128h4.336v.798h-5.631zM118.171 229.568c-.702 0-1.291-.185-1.769-.555-.478-.37-.837-.875-1.076-1.515-.231-.648-.347-1.388-.347-2.22 0-.81.12-1.531.359-2.163.239-.639.594-1.141 1.064-1.503.478-.37 1.067-.555 1.769-.555.686 0 1.264.185 1.735.555.477.362.832.864 1.063 1.503.239.64.359 1.361.359 2.163 0 .832-.116 1.572-.347 2.22-.224.64-.574 1.145-1.052 1.515-.471.37-1.056.555-1.758.555zm0-.833c.725 0 1.284-.297 1.677-.89.393-.601.589-1.457.589-2.567 0-1.072-.2-1.904-.601-2.498-.401-.601-.956-.902-1.665-.902-.717 0-1.28.301-1.688.902-.401.594-.602 1.426-.602 2.498 0 1.102.201 1.954.602 2.555.401.602.963.902 1.688.902zM122.528 229.383v-.798l3.261-2.833c.309-.27.555-.505.74-.706.193-.2.355-.427.486-.682a1.79 1.79 0 00.197-.832c0-.501-.17-.902-.509-1.203-.332-.308-.775-.463-1.33-.463-.578 0-1.025.162-1.341.486a2.28 2.28 0 00-.613 1.157l-.879-.197c.077-.378.227-.736.451-1.075.224-.347.536-.629.937-.845.4-.223.882-.335 1.445-.335.54 0 1.014.104 1.422.312.417.208.737.501.96.879.231.37.347.794.347 1.272 0 .416-.089.802-.266 1.156-.17.347-.378.652-.624.914-.247.254-.559.543-.937.867l-2.451 2.128h4.336v.798h-5.632zM129.259 229.383v-.798l3.261-2.833c.308-.27.555-.505.74-.706.192-.2.354-.427.485-.682a1.79 1.79 0 00.197-.832c0-.501-.17-.902-.509-1.203-.331-.308-.775-.463-1.33-.463-.578 0-1.025.162-1.341.486-.316.324-.52.709-.613 1.157l-.879-.197c.077-.378.228-.736.451-1.075.224-.347.536-.629.937-.845.401-.223.883-.335 1.445-.335.54 0 1.014.104 1.423.312.416.208.736.501.959.879.232.37.347.794.347 1.272 0 .416-.088.802-.266 1.156a3.654 3.654 0 01-.624.914c-.247.254-.559.543-.937.867l-2.451 2.128h4.336v.798h-5.631zM136.047 230.296c.239-.023.424-.111.555-.266.139-.146.212-.339.22-.578a.769.769 0 01-.15.012.621.621 0 01-.44-.174.65.65 0 01-.173-.462c0-.17.058-.312.173-.428a.621.621 0 01.44-.174c.215 0 .389.085.52.255.131.169.197.412.197.728 0 .455-.112.833-.336 1.134-.223.3-.559.458-1.006.474v-.521zM142.995 229.383v-7.054l-1.804 1.191v-.96l1.955-1.318h.74v8.141h-.891zM148.873 229.568c-.616 0-1.156-.143-1.618-.428-.455-.293-.814-.744-1.076-1.353-.254-.609-.381-1.376-.381-2.301 0-.917.123-1.708.37-2.371.254-.67.624-1.179 1.11-1.526.485-.355 1.063-.532 1.734-.532.694 0 1.253.193 1.677.578.432.386.748.887.948 1.503l-.902.185c-.146-.439-.358-.79-.636-1.052-.277-.262-.651-.393-1.122-.393-.67 0-1.206.281-1.607.844-.393.563-.609 1.407-.647 2.533.231-.394.551-.702.959-.925a2.828 2.828 0 011.4-.347c.516 0 .982.119 1.399.358.424.231.751.559.983.983.231.416.347.887.347 1.411 0 .532-.128 1.013-.382 1.445a2.702 2.702 0 01-1.064 1.018c-.447.246-.944.37-1.492.37zm.012-.798c.393 0 .74-.089 1.041-.266.308-.177.547-.42.717-.729.169-.308.254-.651.254-1.029 0-.385-.081-.728-.243-1.029a1.801 1.801 0 00-.694-.728 2 2 0 00-1.04-.266c-.394 0-.744.088-1.053.266-.308.177-.547.42-.717.728a2.066 2.066 0 00-.254 1.029c0 .363.081.698.243 1.006.162.309.393.555.694.74.3.185.651.278 1.052.278zM153.702 225.023a.623.623 0 01-.462-.185.623.623 0 01-.185-.462.6.6 0 01.185-.44.627.627 0 01.462-.185c.17 0 .313.062.428.185a.6.6 0 01.185.44.623.623 0 01-.185.462.56.56 0 01-.428.185zm0 4.452a.623.623 0 01-.462-.185.623.623 0 01-.185-.462.6.6 0 01.185-.44.627.627 0 01.462-.185c.17 0 .313.062.428.185a.6.6 0 01.185.44.623.623 0 01-.185.462.56.56 0 01-.428.185zM157.032 229.383v-7.054l-1.804 1.191v-.96l1.954-1.318h.74v8.141h-.89zM159.557 229.383v-.798l3.26-2.833c.309-.27.555-.505.741-.706.192-.2.354-.427.485-.682a1.79 1.79 0 00.197-.832c0-.501-.17-.902-.509-1.203-.332-.308-.775-.463-1.33-.463-.578 0-1.025.162-1.341.486a2.28 2.28 0 00-.613 1.157l-.879-.197c.077-.378.228-.736.451-1.075.224-.347.536-.629.937-.845.401-.223.882-.335 1.445-.335.54 0 1.014.104 1.422.312.417.208.737.501.96.879.232.37.347.794.347 1.272 0 .416-.089.802-.266 1.156a3.68 3.68 0 01-.624.914c-.247.254-.559.543-.937.867l-2.451 2.128h4.336v.798h-5.631z"/></g><g fill="#B63D58"><path fill-rule="evenodd" d="M35.093 245.621a8.08 8.08 0 100 16.159 8.08 8.08 0 000-16.159zm-9.236 8.079a9.237 9.237 0 1118.473.001 9.237 9.237 0 01-18.473-.001zm10.789-5.744a.577.577 0 01.646.21 12.648 12.648 0 012.42 7.257.58.58 0 01-.579.587h-1.73v2.885a.578.578 0 01-1.157 0v-10.389c0-.251.162-.473.4-.55zm.757 6.898h1.129a11.486 11.486 0 00-1.13-4.265v4.265zm-5.196-6.926c.32 0 .578.258.578.578v2.308a.577.577 0 001.153 0v-2.308a.578.578 0 111.156 0v2.308c0 .754-.482 1.396-1.154 1.634v6.447a.578.578 0 01-1.157 0v-6.447a1.734 1.734 0 01-1.154-1.634v-2.308c0-.32.259-.578.578-.578z" clip-rule="evenodd"/><path d="M51.717 256.684v-8.141h5.724v1.133h-4.452v2.301h3.966v1.076h-3.966v2.497h4.452v1.134h-5.724zM60.443 256.822c-.4 0-.752-.077-1.052-.231a1.702 1.702 0 01-.902-1.538c0-.57.22-1.017.659-1.341.44-.324 1.048-.486 1.827-.486h1.353v-.497a.962.962 0 00-.324-.752c-.208-.2-.505-.3-.89-.3-.355 0-.644.092-.868.277-.215.177-.366.424-.45.74l-1.192-.196a2.41 2.41 0 01.486-1.018c.231-.277.517-.486.856-.624.347-.147.74-.22 1.18-.22.493 0 .92.089 1.283.266.362.177.64.424.832.74.2.308.301.671.301 1.087v3.955h-1.214v-1.006a2.114 2.114 0 01-.752.832c-.316.208-.694.312-1.133.312zm.347-.971c.3 0 .566-.073.798-.22a1.631 1.631 0 00.74-1.364v-.255h-1.122c-.486 0-.86.081-1.122.243a.776.776 0 00-.381.694c0 .278.1.497.3.659.201.162.463.243.787.243zM67.025 256.799c-.594 0-1.022-.139-1.284-.416-.262-.285-.393-.686-.393-1.203v-3.341h-.937v-1.018h.937v-1.515h1.237v1.515h1.237v1.018h-1.237v3.284c0 .223.062.385.185.485.123.093.308.139.555.139.123 0 .285-.015.486-.046v.994c-.27.07-.532.104-.787.104zM69.034 256.684v-5.863h1.237v5.863h-1.237zm.624-6.707a.81.81 0 01-.821-.821.807.807 0 01.821-.821.79.79 0 01.579.243.787.787 0 01.242.578.79.79 0 01-.242.578.79.79 0 01-.579.243zM72.015 256.684v-5.863h1.238v.867c.192-.331.447-.59.763-.775a2.22 2.22 0 011.121-.277c.656 0 1.168.212 1.538.636.37.424.556 1.01.556 1.758v3.654h-1.238v-3.55c0-.471-.104-.829-.312-1.076-.208-.246-.516-.37-.925-.37-.293 0-.555.081-.786.243-.224.154-.401.374-.532.659a2.488 2.488 0 00-.185.995v3.099h-1.238zM81.53 259.066c-.68 0-1.265-.151-1.758-.451a2.125 2.125 0 01-.972-1.249l1.18-.312c.115.316.308.559.578.728.277.17.609.255.994.255.34 0 .629-.062.868-.185.239-.116.42-.293.543-.532.124-.232.185-.521.185-.868v-.832a2.406 2.406 0 01-1.954.971 2.65 2.65 0 01-1.4-.37 2.638 2.638 0 01-.959-1.052c-.224-.455-.335-.972-.335-1.55 0-.578.111-1.091.335-1.538.231-.454.551-.809.96-1.064a2.595 2.595 0 011.399-.381 2.406 2.406 0 011.954.971v-.786h1.226v5.62c0 .539-.12 1.006-.359 1.399a2.24 2.24 0 01-.994.913c-.424.209-.921.313-1.492.313zm-.07-3.492c.34 0 .636-.078.89-.232.255-.162.451-.389.59-.682.139-.293.208-.64.208-1.041 0-.601-.15-1.079-.45-1.434-.301-.354-.714-.532-1.238-.532s-.94.178-1.249.532c-.3.355-.451.833-.451 1.434 0 .401.07.748.208 1.041.139.293.335.52.59.682.262.154.563.232.902.232zM92.724 256.869c-.81 0-1.519-.182-2.128-.544a3.681 3.681 0 01-1.41-1.503c-.332-.64-.498-1.368-.498-2.186 0-.817.166-1.549.498-2.197a3.748 3.748 0 011.41-1.526c.61-.37 1.319-.555 2.128-.555.81 0 1.515.185 2.116.555a3.576 3.576 0 011.4 1.526c.323.648.485 1.38.485 2.197 0 .818-.162 1.546-.486 2.186a3.605 3.605 0 01-1.399 1.503c-.601.362-1.306.544-2.116.544zm-.011-1.157c.555 0 1.036-.127 1.445-.381.409-.262.72-.625.937-1.087.223-.463.335-.999.335-1.608 0-.609-.112-1.148-.335-1.619a2.592 2.592 0 00-.949-1.098c-.408-.27-.886-.405-1.433-.405-.54 0-1.018.135-1.434.405a2.592 2.592 0 00-.948 1.098c-.224.471-.336 1.01-.336 1.619s.112 1.145.335 1.608c.224.462.54.825.949 1.087.408.254.886.381 1.434.381zM100.225 256.869c-.655 0-1.167-.212-1.537-.636-.37-.424-.556-1.01-.556-1.758v-3.654h1.238v3.55c0 .47.104.829.312 1.075.208.247.516.37.925.37.293 0 .551-.077.775-.231.231-.162.408-.385.532-.671.131-.285.196-.616.196-.994v-3.099h1.238v5.863h-1.238v-.868c-.192.332-.451.59-.774.775a2.161 2.161 0 01-1.111.278zM107.045 256.799c-.594 0-1.021-.139-1.283-.416-.263-.285-.394-.686-.394-1.203v-3.341h-.936v-1.018h.936v-1.515h1.238v1.515h1.237v1.018h-1.237v3.284c0 .223.061.385.185.485.123.093.308.139.555.139.123 0 .285-.015.485-.046v.994c-.269.07-.532.104-.786.104z"/></g></g><path fill="#F1F1F1" d="M280.367 253.699c0-7.14 5.788-12.928 12.929-12.928 7.14 0 12.928 5.788 12.928 12.928 0 7.141-5.788 12.929-12.928 12.929-7.141 0-12.929-5.788-12.929-12.929z"/><path fill="#7A708C" fill-rule="evenodd" d="M294.145 248.825v1.621h3.768c.347 0 .628.282.628.628v7.536a.628.628 0 01-.628.628h-8.791a.628.628 0 01-.628-.628v-7.536c0-.346.281-.628.628-.628h3.767v-1.623l-.709.71a.628.628 0 01-.888-.888l1.784-1.785a.616.616 0 01.438-.181l.005.001a.62.62 0 01.437.18l1.785 1.785a.629.629 0 01-.888.888l-.708-.708zm-1.256 1.622h-2.512a.628.628 0 110 1.256h2.512v-1.256zm3.769 1.256h-2.512v-1.256h2.512a.628.628 0 100 1.256zm.627 0v-1.256 1.256zm-4.395 0h-3.14v6.28h7.535v-6.28h-3.14v3.141a.628.628 0 01-1.255 0v-3.141z" clip-rule="evenodd"/></g></g></g><defs><pattern id="mapPattern" width="1" height="1" patternContentUnits="objectBoundingBox"><use href="#map" transform="matrix(.00079 0 0 .0019 0 -.692)" xlink:href="#map"/><image href="/images/homepage/spend-local-map.jpg" xlink:href="/images/homepage/spend-local-map.jpg" id="map" width="1266" height="1250"/></pattern><clipPath id="clip0_6295_174261"><rect width="321" height="281.404" fill="#fff" rx="8.458"/></clipPath><filter id="b" width="267.473" height="240.898" x="-24.236" y="-24.138" color-interpolation-filters="sRGB" filterUnits="userSpaceOnUse"><feFlood flood-opacity="0" result="BackgroundImageFix"/><feColorMatrix in="SourceAlpha" result="hardAlpha" values="0 0 0 0 0 0 0 0 0 0 0 0 0 0 0 0 0 0 127 0"/><feOffset/><feGaussianBlur stdDeviation="12.118"/><feComposite in2="hardAlpha" operator="out"/><feColorMatrix values="0 0 0 0 0 0 0 0 0 0 0 0 0 0 0 0 0 0 0.04 0"/><feBlend in2="BackgroundImageFix" result="effect1_dropShadow_4558_159747"/><feBlend in="SourceGraphic" in2="effect1_dropShadow_4558_159747" result="shape"/></filter></defs></svg>