<svg class="n8pskg5w" xmlns="http://www.w3.org/2000/svg" fill="none" viewBox="0 0 320 112"><path fill="url(#paint0_linear_6618_175611)" d="M0 6.717A6.717 6.717 0 016.717 0h114.189v111.147H6.716A6.717 6.717 0 010 104.43V6.717z"/><path fill="#fff" d="M120.906 0h192.376a6.717 6.717 0 016.717 6.717v97.713a6.717 6.717 0 01-6.717 6.717H120.906V0z"/><path fill="#7A708C" d="M136.155 40.854c-.672 0-1.264-.118-1.776-.353a3.136 3.136 0 01-1.234-1.02 3.644 3.644 0 01-.579-1.562l1.02-.201c.059.462.201.86.428 1.196.227.336.521.592.882.769.361.176.776.264 1.246.264.689 0 1.247-.151 1.676-.453.436-.303.654-.722.654-1.26 0-.336-.088-.608-.264-.818-.176-.21-.449-.382-.819-.517-.369-.134-.894-.273-1.574-.415-.68-.135-1.23-.294-1.65-.479-.42-.193-.739-.445-.957-.756-.218-.319-.327-.718-.327-1.196 0-.504.134-.94.403-1.31.277-.37.654-.65 1.133-.844a4.244 4.244 0 011.637-.302c.588 0 1.104.11 1.549.327.445.21.806.504 1.084.882.285.37.487.806.604 1.31l-.957.214c-.151-.563-.42-1.008-.806-1.335-.386-.336-.878-.504-1.474-.504-.646 0-1.167.139-1.561.416-.395.277-.592.638-.592 1.083 0 .294.079.533.239.718.16.184.399.34.718.466.327.126.785.248 1.373.365.747.168 1.351.349 1.813.542.462.184.819.445 1.071.78.26.336.39.773.39 1.31 0 .538-.143 1.008-.428 1.41-.277.404-.672.719-1.184.945-.504.219-1.083.328-1.738.328zM142.959 40.841c-.47 0-.869-.088-1.197-.264a1.837 1.837 0 01-.717-.718 1.995 1.995 0 01-.24-.97c0-.604.235-1.079.706-1.423.478-.344 1.146-.516 2.002-.516h1.612v-.63c0-.395-.143-.722-.428-.983-.286-.26-.676-.39-1.171-.39-.454 0-.819.113-1.096.34-.277.227-.474.542-.592.945l-.907-.177c.101-.42.273-.772.517-1.057a2.21 2.21 0 01.906-.655 3.262 3.262 0 011.209-.215c.504 0 .941.093 1.31.278.378.176.668.432.869.768.202.327.303.71.303 1.146v4.345h-.92v-1.171c-.21.411-.499.739-.869.982-.361.244-.793.365-1.297.365zm.214-.793c.395 0 .739-.097 1.033-.29.294-.193.516-.449.667-.768.16-.32.24-.663.24-1.033v-.315h-1.474c-.613 0-1.083.105-1.411.315-.319.21-.478.508-.478.894 0 .37.13.664.39.882.269.21.613.315 1.033.315zM149.688 40.665l-2.545-6.335h.983l2.04 5.189 2.028-5.189h.982l-2.531 6.335h-.957zM154.443 40.665V34.33h.944v6.335h-.944zm.478-7.393a.667.667 0 01-.491-.201.67.67 0 01-.202-.492.67.67 0 01.202-.49.667.667 0 01.491-.202c.193 0 .357.067.491.201a.666.666 0 01.202.491.666.666 0 01-.202.492.667.667 0 01-.491.201zM157.457 40.665V34.33h.931v1.045c.227-.386.525-.688.895-.907.369-.226.802-.34 1.297-.34.705 0 1.255.227 1.65.68.394.446.592 1.063.592 1.852v4.005h-.945v-3.867c0-.612-.13-1.074-.39-1.385-.252-.31-.634-.466-1.146-.466-.378 0-.714.1-1.008.302a2.023 2.023 0 00-.693.857c-.168.36-.252.785-.252 1.272v3.287h-.931zM167.532 43.26c-.705 0-1.31-.152-1.813-.454a2.317 2.317 0 01-1.021-1.285l.882-.264c.151.386.395.68.73.882.336.21.748.314 1.235.314.411 0 .768-.075 1.07-.226.303-.143.533-.361.693-.655.168-.294.252-.655.252-1.083v-1.172a2.709 2.709 0 01-.97.907c-.395.21-.831.315-1.31.315a2.866 2.866 0 01-1.511-.403 2.78 2.78 0 01-1.045-1.134c-.244-.486-.366-1.04-.366-1.662 0-.621.122-1.175.366-1.662a2.813 2.813 0 011.032-1.134 2.823 2.823 0 011.524-.415c.479 0 .915.109 1.31.327.395.218.718.516.97.894v-1.02h.932v6.146c0 .571-.122 1.066-.365 1.486-.244.42-.588.74-1.033.957-.445.227-.966.34-1.562.34zm-.088-3.502c.42 0 .789-.096 1.108-.29a2.02 2.02 0 00.743-.843c.177-.37.265-.798.265-1.285 0-.739-.189-1.327-.567-1.763-.378-.437-.894-.655-1.549-.655-.647 0-1.163.218-1.549.655-.386.436-.579 1.024-.579 1.763 0 .487.088.915.264 1.285.176.36.424.642.743.843.328.194.701.29 1.121.29zM178.833 40.854c-.671 0-1.263-.118-1.775-.353a3.14 3.14 0 01-1.235-1.02 3.644 3.644 0 01-.579-1.562l1.02-.201c.059.462.202.86.428 1.196.227.336.521.592.882.769.361.176.777.264 1.247.264.688 0 1.247-.151 1.675-.453.437-.303.655-.722.655-1.26 0-.336-.088-.608-.265-.818-.176-.21-.449-.382-.818-.517-.37-.134-.894-.273-1.575-.415-.68-.135-1.23-.294-1.649-.479-.42-.193-.739-.445-.958-.756-.218-.319-.327-.718-.327-1.196 0-.504.134-.94.403-1.31.277-.37.655-.65 1.133-.844a4.246 4.246 0 011.638-.302c.587 0 1.104.11 1.549.327.445.21.806.504 1.083.882.285.37.487.806.605 1.31l-.958.214c-.151-.563-.419-1.008-.806-1.335-.386-.336-.877-.504-1.473-.504-.647 0-1.167.139-1.562.416-.395.277-.592.638-.592 1.083 0 .294.08.533.239.718.16.184.399.34.718.466.328.126.785.248 1.373.365.747.168 1.352.349 1.814.542.461.184.818.445 1.07.78.26.336.391.773.391 1.31 0 .538-.143 1.008-.429 1.41-.277.404-.671.719-1.183.945-.504.219-1.084.328-1.739.328zM184.06 43.058V34.33h.932v1.096c.252-.403.575-.718.97-.945a2.531 2.531 0 011.322-.352c.579 0 1.091.142 1.536.428.445.285.79.684 1.033 1.196.252.512.378 1.096.378 1.75 0 .647-.126 1.227-.378 1.739a2.794 2.794 0 01-1.045 1.196 2.76 2.76 0 01-1.524.428c-.487 0-.928-.113-1.322-.34a2.855 2.855 0 01-.97-.957v3.489h-.932zm3.06-3.023c.428 0 .802-.1 1.121-.302a2.05 2.05 0 00.756-.882c.176-.386.264-.835.264-1.347 0-.781-.193-1.398-.579-1.852-.386-.461-.907-.692-1.562-.692-.646 0-1.163.23-1.549.692-.386.454-.579 1.07-.579 1.852 0 .512.088.961.264 1.347.177.378.424.672.743.882.328.202.701.302 1.121.302zM193.607 40.841c-.47 0-.869-.088-1.196-.264a1.84 1.84 0 01-.718-.718 1.994 1.994 0 01-.239-.97c0-.604.235-1.079.705-1.423.478-.344 1.146-.516 2.002-.516h1.612v-.63c0-.395-.142-.722-.428-.983-.285-.26-.676-.39-1.171-.39-.453 0-.819.113-1.096.34-.277.227-.474.542-.592.945l-.906-.177c.1-.42.272-.772.516-1.057.243-.294.546-.513.907-.655a3.262 3.262 0 011.209-.215c.504 0 .94.093 1.31.278.377.176.667.432.869.768.201.327.302.71.302 1.146v4.345h-.92v-1.171a2.517 2.517 0 01-.869.982c-.361.244-.793.365-1.297.365zm.214-.793c.395 0 .739-.097 1.033-.29.294-.193.516-.449.668-.768.159-.32.239-.663.239-1.033v-.315h-1.474c-.613 0-1.083.105-1.41.315a1.01 1.01 0 00-.479.894c0 .37.13.664.391.882.268.21.613.315 1.032.315zM201.367 40.867c-.622 0-1.172-.143-1.65-.429a3.007 3.007 0 01-1.096-1.196c-.26-.512-.391-1.096-.391-1.75 0-.647.126-1.222.378-1.726a2.913 2.913 0 011.096-1.197c.479-.294 1.029-.44 1.65-.44.47 0 .894.088 1.272.264.378.176.693.424.945.743.251.32.428.693.528 1.12l-.881.19a2.04 2.04 0 00-.655-1.07c-.311-.278-.714-.416-1.209-.416-.445 0-.831.113-1.159.34a2.15 2.15 0 00-.743.907 3.131 3.131 0 00-.252 1.284c0 .479.084.911.252 1.297.176.387.424.689.743.907.328.218.714.328 1.159.328.487 0 .89-.135 1.209-.403.327-.269.55-.617.667-1.046l.882.164c-.101.42-.277.794-.529 1.12-.243.32-.554.568-.932.744a3.003 3.003 0 01-1.284.265zM208.328 40.867c-.63 0-1.18-.143-1.65-.429a2.994 2.994 0 01-1.096-1.209c-.252-.512-.378-1.096-.378-1.75 0-.639.126-1.21.378-1.713a2.825 2.825 0 011.083-1.197c.47-.294 1.016-.44 1.637-.44.588 0 1.096.138 1.524.415.429.269.756.65.983 1.146.226.487.34 1.05.34 1.688 0 .109-.004.206-.013.29h-4.987c.025.78.231 1.377.617 1.788.386.403.907.604 1.562.604.487 0 .877-.113 1.171-.34.302-.235.562-.562.781-.982l.768.29c-.235.579-.588 1.032-1.058 1.36-.462.319-1.016.479-1.662.479zm1.876-3.93c-.017-.63-.201-1.12-.554-1.473-.344-.353-.793-.53-1.348-.53-.604 0-1.091.181-1.461.542-.369.353-.591.84-.667 1.461h4.03z"/><path fill="#000" d="M138.035 21.744c-1.012 0-1.89-.224-2.634-.673a4.625 4.625 0 01-1.704-1.875c-.392-.802-.587-1.71-.587-2.72 0-1.013.2-1.92.601-2.721a4.48 4.48 0 011.718-1.876c.754-.449 1.642-.673 2.663-.673.726 0 1.375.124 1.948.372a3.936 3.936 0 011.446 1.06c.391.448.687.988.888 1.618l-1.475.4c-.239-.639-.592-1.13-1.06-1.474-.468-.344-1.05-.516-1.747-.516-.716 0-1.326.168-1.832.502a3.03 3.03 0 00-1.146 1.36c-.258.572-.386 1.222-.386 1.947 0 .764.128 1.437.386 2.019a2.986 2.986 0 001.131 1.332c.506.315 1.108.472 1.804.472.85 0 1.518-.22 2.005-.659.496-.439.792-1.097.888-1.976h-2.864v-1.388h4.439v.572c0 1.079-.186 1.986-.559 2.72-.362.726-.883 1.27-1.56 1.633-.669.363-1.456.544-2.363.544zM144.359 21.515v-7.26h1.532v1.275c.191-.42.449-.75.773-.988.334-.239.731-.358 1.189-.358.086 0 .162.005.229.014a.94.94 0 01.229.03v1.445a2.411 2.411 0 00-.473-.043c-.582 0-1.054.205-1.417.616-.353.41-.53.969-.53 1.675v3.594h-1.532zM152.852 21.744c-.716 0-1.351-.162-1.904-.487a3.436 3.436 0 01-1.303-1.36c-.315-.582-.473-1.25-.473-2.004 0-.745.153-1.408.458-1.99a3.42 3.42 0 011.303-1.375c.563-.334 1.208-.501 1.933-.501.707 0 1.337.167 1.89.5.554.325.983.784 1.289 1.375.315.583.472 1.246.472 1.99 0 .745-.157 1.413-.472 2.005a3.343 3.343 0 01-1.289 1.36c-.553.325-1.188.487-1.904.487zm0-1.303c.429 0 .802-.1 1.117-.3.315-.21.553-.506.716-.888.171-.382.257-.835.257-1.36 0-.525-.086-.979-.257-1.36-.163-.392-.401-.688-.716-.888-.315-.21-.688-.315-1.117-.315-.43 0-.802.105-1.117.315-.315.21-.558.506-.73.887-.172.382-.258.836-.258 1.36 0 .516.086.965.258 1.346.172.382.415.678.73.888.325.21.697.315 1.117.315zM161.438 21.73c-.735 0-1.385-.162-1.948-.487a3.341 3.341 0 01-1.288-1.36c-.306-.582-.459-1.246-.459-1.99 0-.735.148-1.394.444-1.976a3.419 3.419 0 011.289-1.39c.563-.333 1.217-.5 1.962-.5.563 0 1.064.105 1.503.315.449.2.816.491 1.103.873.286.372.491.807.615 1.303l-1.446.286a2.19 2.19 0 00-.63-1.045c-.296-.267-.678-.4-1.145-.4-.449 0-.836.114-1.16.343-.315.22-.554.52-.716.902a3.231 3.231 0 00-.244 1.274c0 .478.082.907.244 1.289.162.382.401.682.716.902.324.22.711.33 1.16.33.458 0 .84-.13 1.145-.387.315-.268.53-.606.644-1.017l1.432.272c-.105.477-.3.902-.587 1.274a2.935 2.935 0 01-1.102.874c-.439.21-.95.315-1.532.315zM169.379 21.744c-.735 0-1.379-.162-1.933-.487a3.441 3.441 0 01-1.289-1.374c-.295-.592-.443-1.26-.443-2.005 0-.725.143-1.379.429-1.961a3.352 3.352 0 011.26-1.39c.554-.333 1.203-.5 1.947-.5.707 0 1.313.157 1.819.472.506.315.888.764 1.145 1.346.258.573.387 1.241.387 2.005 0 .143-.005.272-.014.386h-5.484c.047.745.262 1.308.644 1.69.382.372.897.558 1.546.558.487 0 .883-.114 1.189-.343.305-.23.563-.55.773-.96l1.231.458c-.286.678-.701 1.198-1.245 1.561-.544.363-1.198.544-1.962.544zm1.833-4.582c-.038-.601-.224-1.06-.559-1.374-.324-.325-.758-.487-1.303-.487-.572 0-1.04.162-1.403.487-.362.315-.596.773-.701 1.374h3.966zM174.408 21.515v-7.26h1.532v1.275c.191-.42.449-.75.773-.988.334-.239.73-.358 1.189-.358.086 0 .162.005.229.014.076 0 .152.01.229.03v1.445a2.411 2.411 0 00-.473-.043c-.582 0-1.054.205-1.417.616-.353.41-.53.969-.53 1.675v3.594h-1.532zM179.679 21.515v-7.26h1.532v7.26h-1.532zm.773-8.305a1.002 1.002 0 01-1.016-1.017 1.002 1.002 0 011.016-1.016c.277 0 .516.1.716.301.201.2.301.44.301.716 0 .277-.1.515-.301.716-.2.2-.439.3-.716.3zM186.564 21.744c-.735 0-1.379-.162-1.933-.487a3.441 3.441 0 01-1.289-1.374c-.296-.592-.444-1.26-.444-2.005 0-.725.144-1.379.43-1.961a3.352 3.352 0 011.26-1.39c.554-.333 1.203-.5 1.947-.5.707 0 1.313.157 1.819.472.506.315.887.764 1.145 1.346.258.573.387 1.241.387 2.005 0 .143-.005.272-.015.386h-5.484c.048.745.263 1.308.645 1.69.382.372.897.558 1.546.558.487 0 .883-.114 1.189-.343.305-.23.563-.55.773-.96l1.231.458c-.286.678-.701 1.198-1.246 1.561-.544.363-1.198.544-1.961.544zm1.833-4.582c-.039-.601-.225-1.06-.559-1.374-.324-.325-.759-.487-1.303-.487-.573 0-1.04.162-1.403.487-.363.315-.597.773-.702 1.374h3.967zM194.199 21.744c-.859 0-1.571-.2-2.134-.601-.553-.41-.916-.964-1.088-1.661l1.418-.344c.124.44.338.783.644 1.031.315.248.706.372 1.174.372.468 0 .835-.095 1.102-.286.268-.2.401-.448.401-.744 0-.258-.095-.45-.286-.573-.181-.124-.525-.248-1.031-.372l-.258-.058c-.086-.019-.176-.038-.272-.057-.601-.134-1.088-.282-1.46-.444-.372-.162-.659-.382-.859-.659-.191-.276-.287-.634-.287-1.073 0-.449.12-.84.358-1.174a2.252 2.252 0 011.003-.788c.439-.19.94-.286 1.503-.286.783 0 1.413.176 1.89.53.477.353.811.844 1.002 1.474l-1.36.373c-.124-.373-.31-.66-.558-.86-.248-.21-.568-.315-.96-.315-.401 0-.73.086-.988.258-.248.172-.372.396-.372.673 0 .248.11.434.329.558.23.115.635.24 1.218.373a.32.32 0 01.1.014c.028.01.062.02.1.029.649.133 1.165.281 1.546.444.382.162.673.386.874.673.21.276.315.649.315 1.116 0 .468-.124.883-.373 1.246-.248.353-.601.63-1.059.83-.458.201-1.002.301-1.632.301z"/><text fill="#000" style="white-space:pre" font-family="Universal Sans" font-size="16.793" font-weight="850" letter-spacing="0"><tspan x="131.923" y="86.35">£125.00</tspan></text><text fill="#7A708C" style="white-space:pre" font-family="Universal Sans" font-size="12.594" font-weight="450" letter-spacing="0"><tspan x="284" y="84.867" style="padding-right:20px">0</tspan></text><path fill="#7A708C" d="M300.625 85l5.226-8.867h.844L301.469 85h-.844zm5.239.088c-.327 0-.634-.08-.919-.24a1.742 1.742 0 01-.655-.654 1.85 1.85 0 01-.24-.92c0-.327.08-.625.24-.894.159-.277.377-.495.655-.655.285-.16.592-.239.919-.239a1.788 1.788 0 011.801 1.789c0 .327-.08.633-.239.919a1.788 1.788 0 01-1.562.894zm0-.743c.285 0 .529-.1.73-.302.21-.21.315-.466.315-.768a.99.99 0 00-.315-.744.975.975 0 00-.73-.314c-.286 0-.533.105-.743.314-.202.202-.302.45-.302.744 0 .302.1.558.302.768.21.201.457.302.743.302zm-4.358-4.647c-.327 0-.634-.08-.919-.24a1.755 1.755 0 01-.655-.654 1.85 1.85 0 01-.239-.92c0-.327.079-.625.239-.894.16-.277.378-.495.655-.655.285-.16.592-.24.919-.24a1.785 1.785 0 011.562.895c.16.269.239.567.239.894 0 .328-.079.634-.239.92a1.784 1.784 0 01-1.562.894zm0-.743c.286 0 .529-.101.731-.303.21-.21.315-.466.315-.768a.99.99 0 00-.315-.743.977.977 0 00-.731-.315c-.285 0-.533.105-.743.315-.201.202-.302.45-.302.743 0 .302.101.558.302.768.21.202.458.303.743.303z"/><path stroke="#F0F0F0" stroke-linecap="round" stroke-width="3.359" d="M131.923 99.29h177.058"/><path stroke="#68EAD0" stroke-linecap="round" stroke-width="3.359" d="M131.923 99.29h62.896" pathLength="1" stroke-dashoffset="0px" stroke-dasharray="0px 1px"/><defs><linearGradient id="paint0_linear_6618_175611" x1="120.857" x2="70.953" y1="-0.058" y2="136.935" gradientUnits="userSpaceOnUse"><stop stop-color="#D5C8FA"/><stop offset="1" stop-color="#FD8178"/></linearGradient></defs></svg>