<svg xmlns="http://www.w3.org/2000/svg" fill="none" viewBox="0 0 321 74"><rect width="321" height="74" fill="#fff" rx="10"/><path fill="#6935D3" d="M10 27c0-5.523 4.477-10 10-10h20c5.523 0 10 4.477 10 10v20c0 5.523-4.477 10-10 10H20c-5.523 0-10-4.477-10-10V27z"/><path fill="#fff" d="M23.138 37.335V36.32c0-6.316 5.133-11.448 11.451-11.448h1.016v4.145h-1.016a7.306 7.306 0 00-7.305 7.303v1.015h-4.146zM37.692 37.335v1.015c0 6.316-5.133 11.449-11.451 11.449h-1.016v-4.145h1.016a7.306 7.306 0 007.305-7.304v-1.015h4.146z"/><path fill="#000" d="M64.31 24.229c-2.126 0-3.479-1.048-3.593-2.628l-.006-.09h1.587l.006.064c.076.768.895 1.276 2.057 1.276 1.104 0 1.879-.546 1.879-1.333v-.006c0-.66-.476-1.06-1.657-1.314l-.984-.203c-1.872-.394-2.685-1.27-2.685-2.635v-.006c0-1.638 1.41-2.742 3.39-2.742 2.031 0 3.294 1.11 3.408 2.583l.007.083H66.15l-.013-.076c-.114-.711-.793-1.22-1.84-1.213-1.016 0-1.74.476-1.74 1.257v.006c0 .648.464 1.054 1.606 1.295l.984.21c1.93.406 2.736 1.18 2.736 2.564v.007c0 1.783-1.378 2.9-3.574 2.9zM72.211 24.032c-1.593 0-2.247-.534-2.247-1.873v-3.872h-1.08v-1.225h1.08v-1.701h1.606v1.701h1.466v1.225H71.57v3.498c0 .692.273.984.933.984.222 0 .343-.007.533-.026v1.219c-.228.044-.52.07-.825.07zM76.424 24.114c-1.32 0-2.279-.812-2.279-2.075v-.013c0-1.238.946-1.962 2.635-2.063l1.783-.108v-.597c0-.692-.45-1.072-1.301-1.072-.724 0-1.193.26-1.352.717l-.006.025h-1.492l.006-.057c.153-1.168 1.27-1.942 2.92-1.942 1.784 0 2.787.863 2.787 2.33V24h-1.562v-.952h-.108c-.38.673-1.117 1.066-2.03 1.066zm-.717-2.152c0 .59.501.94 1.2.94.952 0 1.656-.622 1.656-1.447v-.559l-1.561.102c-.883.057-1.295.38-1.295.952v.012zM81.945 24v-6.938h1.58v1.066h.108c.235-.742.87-1.18 1.784-1.18.241 0 .489.032.641.076v1.415a3.984 3.984 0 00-.787-.088c-1.054 0-1.746.628-1.746 1.618V24h-1.58zM87.338 24v-9.623h1.581V24h-1.58zM91.653 15.9a.937.937 0 01-.946-.933c0-.514.425-.933.946-.933a.94.94 0 01.94.933c0 .52-.426.933-.94.933zm-.794 8.1v-6.938h1.581V24h-1.58zM94.305 24v-6.938h1.58v1.06h.108c.33-.743.997-1.193 2-1.193 1.548 0 2.393.933 2.393 2.583V24h-1.581v-4.12c0-1.079-.438-1.625-1.397-1.625-.939 0-1.523.66-1.523 1.701V24h-1.58zM105.157 26.438c-1.828 0-2.926-.781-3.085-1.95l.007-.018h1.58l.006.019c.108.444.635.755 1.518.755 1.079 0 1.707-.501 1.707-1.39v-1.327h-.108c-.4.743-1.155 1.15-2.114 1.15-1.758 0-2.85-1.36-2.85-3.327v-.013c0-2.006 1.092-3.39 2.882-3.39.959 0 1.708.47 2.101 1.258h.083v-1.143h1.58v6.767c0 1.6-1.282 2.608-3.307 2.608zm0-4.019c1.098 0 1.758-.844 1.758-2.069v-.013c0-1.225-.666-2.075-1.758-2.075-1.098 0-1.72.85-1.72 2.075v.013c0 1.225.622 2.07 1.72 2.07zM113.875 24v-9.16h3.828c1.739 0 2.786.876 2.786 2.28v.012c0 .958-.711 1.809-1.631 1.955v.114c1.232.114 2.082 1.003 2.082 2.19v.013c0 1.606-1.193 2.596-3.148 2.596h-3.917zm3.428-7.884h-1.79V18.7h1.58c1.162 0 1.778-.451 1.778-1.282v-.013c0-.813-.578-1.289-1.568-1.289zm.051 3.745h-1.841v2.863h1.904c1.206 0 1.847-.501 1.847-1.434v-.013c0-.927-.66-1.416-1.91-1.416zM124.372 24.114c-1.32 0-2.278-.812-2.278-2.075v-.013c0-1.238.945-1.962 2.634-2.063l1.784-.108v-.597c0-.692-.451-1.072-1.302-1.072-.723 0-1.193.26-1.352.717l-.006.025h-1.492l.006-.057c.153-1.168 1.27-1.942 2.92-1.942 1.784 0 2.787.863 2.787 2.33V24h-1.561v-.952h-.108c-.381.673-1.118 1.066-2.032 1.066zm-.717-2.152c0 .59.502.94 1.2.94.952 0 1.657-.622 1.657-1.447v-.559l-1.562.102c-.882.057-1.295.38-1.295.952v.012zM129.893 24v-6.938h1.581v1.06h.107c.331-.743.997-1.193 2-1.193 1.549 0 2.393.933 2.393 2.583V24h-1.581v-4.12c0-1.079-.438-1.625-1.396-1.625-.939 0-1.523.66-1.523 1.701V24h-1.581zM137.826 24v-9.623h1.58v5.529h.108l2.558-2.844h1.828l-2.793 2.933L144.091 24h-1.904l-2.228-3.002-.553.564V24h-1.58z"/><path fill="#3C3C43" fill-opacity="0.6" d="M287.098 24v-6.843h1.105v1.029h.101c.343-.724.984-1.15 1.994-1.15 1.536 0 2.393.908 2.393 2.533V24h-1.105v-4.164c0-1.231-.508-1.822-1.599-1.822-1.092 0-1.784.736-1.784 1.936V24h-1.105zM297.424 24.12c-1.949 0-3.155-1.345-3.155-3.535v-.013c0-2.196 1.206-3.535 3.155-3.535 1.949 0 3.155 1.339 3.155 3.535v.013c0 2.19-1.206 3.536-3.155 3.536zm0-.977c1.295 0 2.025-.946 2.025-2.558v-.013c0-1.618-.73-2.558-2.025-2.558s-2.025.94-2.025 2.558v.013c0 1.612.73 2.558 2.025 2.558zM303.281 24l-1.917-6.843h1.105l1.345 5.472h.102l1.53-5.472h1.047l1.53 5.472h.102l1.345-5.472h1.098L308.651 24h-1.11l-1.53-5.294h-.102L304.386 24h-1.105z"/><path fill="#000" d="M63.688 42v-3.942l-3.25-5.218h1.301l2.47 4.07h.101l2.47-4.07h1.3l-3.25 5.218V42h-1.142zM71.202 42.12c-1.949 0-3.155-1.345-3.155-3.535v-.013c0-2.196 1.206-3.535 3.155-3.535 1.948 0 3.155 1.339 3.155 3.535v.013c0 2.19-1.207 3.536-3.155 3.536zm0-.977c1.295 0 2.025-.946 2.025-2.558v-.013c0-1.618-.73-2.558-2.025-2.558s-2.025.94-2.025 2.558v.013c0 1.612.73 2.558 2.025 2.558zM78.284 42.12c-1.555 0-2.355-.913-2.355-2.532v-4.43h1.105v4.163c0 1.232.444 1.822 1.536 1.822 1.206 0 1.847-.736 1.847-1.936v-4.05h1.104V42h-1.104v-1.022h-.102c-.336.73-1.028 1.143-2.031 1.143zM89.433 42.12c-1.523 0-2.57-.736-2.698-1.866h1.13c.184.572.73.946 1.606.946.92 0 1.574-.438 1.574-1.06v-.013c0-.463-.349-.787-1.193-.99l-1.06-.254c-1.282-.304-1.86-.863-1.86-1.847v-.006c0-1.136 1.092-1.993 2.546-1.993 1.434 0 2.43.717 2.583 1.834h-1.085c-.146-.54-.68-.914-1.505-.914-.812 0-1.409.419-1.409 1.022v.013c0 .463.343.755 1.149.952l1.054.254c1.288.31 1.91.87 1.91 1.847v.013c0 1.218-1.187 2.063-2.742 2.063zM93.811 44.285v-9.128h1.105v1.092h.101c.42-.762 1.18-1.212 2.133-1.212 1.733 0 2.869 1.403 2.869 3.535v.013c0 2.145-1.13 3.536-2.869 3.536-.94 0-1.758-.47-2.133-1.2h-.101v3.364H93.81zm3.085-3.142c1.25 0 1.993-.965 1.993-2.558v-.013c0-1.593-.742-2.558-1.993-2.558-1.244 0-2.006.978-2.006 2.558v.013c0 1.58.762 2.558 2.006 2.558zM104.461 42.12c-1.955 0-3.136-1.37-3.136-3.516v-.006c0-2.114 1.206-3.561 3.066-3.561 1.86 0 2.99 1.383 2.99 3.427v.432h-4.926c.032 1.416.812 2.24 2.031 2.24.927 0 1.498-.437 1.682-.85l.026-.057h1.104l-.013.05c-.234.927-1.212 1.842-2.824 1.842zm-.076-6.1c-1.016 0-1.79.692-1.911 1.994h3.783c-.114-1.352-.863-1.994-1.872-1.994zM109.016 42v-6.843h1.105v1.029h.102c.342-.724.983-1.15 1.993-1.15 1.536 0 2.393.908 2.393 2.533V42h-1.105v-4.164c0-1.231-.508-1.822-1.599-1.822-1.092 0-1.784.736-1.784 1.936V42h-1.105zM118.961 42.05c-1.409 0-1.999-.52-1.999-1.827V36.07h-1.079v-.914h1.079v-1.77h1.143v1.77h1.498v.914h-1.498v3.872c0 .806.279 1.13.99 1.13.197 0 .304-.006.508-.025v.94a3.666 3.666 0 01-.642.063zM124.417 41.81v-.965c1.161-.26 1.955-1.105 1.955-2.089 0-.342-.07-.64-.165-.926h-1.79v-.864h1.422c-.178-.4-.324-.812-.324-1.314 0-1.663 1.244-2.678 3.282-2.678.736 0 1.46.127 1.904.336v1.016c-.343-.19-1.149-.343-1.847-.343-1.346 0-2.171.622-2.171 1.644 0 .514.146.933.317 1.34h3.053v.863h-2.704c.089.266.146.558.146.882 0 .882-.457 1.58-1.326 2.031v.089h4.989v.978h-6.741zM132.857 42v-.787l3.098-3.352c1.168-1.263 1.511-1.739 1.511-2.539v-.012c0-.965-.654-1.689-1.733-1.689-1.098 0-1.828.717-1.828 1.796l-.007.013-1.091-.006-.013-.007c.006-1.625 1.263-2.793 3.015-2.793 1.6 0 2.825 1.086 2.825 2.565v.013c0 1.047-.451 1.809-2.108 3.516l-2.082 2.152v.102h4.342V42h-5.929zM143.862 42.216c-1.675 0-3.446-1.18-3.446-4.628v-.012c0-3.123 1.301-4.952 3.523-4.952 1.536 0 2.678.902 2.989 2.254l.019.082h-1.149l-.025-.07c-.279-.767-.92-1.243-1.847-1.243-1.663 0-2.342 1.625-2.412 3.535-.007.07-.007.146-.007.216h.121c.336-.75 1.2-1.416 2.437-1.416 1.721 0 3.003 1.308 3.003 3.066v.013c0 1.828-1.358 3.155-3.206 3.155zm-2.082-3.168c0 1.206.908 2.158 2.07 2.158 1.149 0 2.069-.933 2.069-2.12v-.012c0-1.219-.863-2.095-2.05-2.095-1.187 0-2.089.87-2.089 2.063v.006zM149.288 42.063a.831.831 0 01-.825-.825c0-.457.374-.825.825-.825.457 0 .825.368.825.825 0 .451-.368.825-.825.825zM154.72 42.216c-2.025 0-3.231-1.847-3.231-4.793v-.012c0-2.946 1.206-4.787 3.231-4.787 2.024 0 3.243 1.841 3.243 4.787v.012c0 2.946-1.219 4.793-3.243 4.793zm0-.997c1.313 0 2.094-1.46 2.094-3.796v-.012c0-2.336-.781-3.784-2.094-3.784-1.314 0-2.083 1.448-2.083 3.784v.012c0 2.336.769 3.796 2.083 3.796zM162.005 42v-7.89h-.102l-2.329 1.688v-1.206l2.437-1.752h1.136V42h-1.142zM171.612 44.285c-1.238-1.644-1.803-3.56-1.803-5.922 0-2.355.558-4.279 1.803-5.923h.926c-.92 1.175-1.606 3.72-1.606 5.923 0 2.221.686 4.748 1.606 5.922h-.926zM173.666 38.706v-.762h1.251a6.72 6.72 0 01-.019-.52v-.013c0-.19.006-.369.025-.546h-1.257v-.762h1.378c.52-2.145 2.348-3.13 4.43-3.13.476 0 1.099.051 1.365.14v1.029c-.279-.07-.889-.115-1.365-.115-1.529 0-2.754.66-3.211 2.076h3.408v.762h-3.567a5.327 5.327 0 00-.032.565v.012c0 .172.006.343.025.502h3.574v.762h-3.428c.445 1.44 1.683 2.107 3.231 2.107.476 0 1.086-.032 1.365-.114v1.028c-.26.095-.889.14-1.365.14-2.101 0-3.929-1.003-4.437-3.161h-1.371zM185.408 42.152c-1.892 0-3.117-1.053-3.238-2.5l-.006-.077h1.098l.006.064c.089.901.921 1.523 2.14 1.523 1.199 0 2.018-.673 2.018-1.644v-.013c0-1.123-.806-1.752-2.088-1.752h-1.149v-.964h1.098c1.092 0 1.854-.673 1.854-1.587v-.013c0-.959-.629-1.51-1.746-1.51-1.079 0-1.847.57-1.942 1.497l-.007.064h-1.098l.006-.064c.146-1.491 1.327-2.488 3.041-2.488 1.746 0 2.894.971 2.894 2.361v.013c0 1.13-.799 1.904-1.942 2.146v.025c1.333.114 2.241.946 2.241 2.247v.013c0 1.53-1.346 2.66-3.18 2.66zM193.429 42.216c-2.025 0-3.231-1.847-3.231-4.793v-.012c0-2.946 1.206-4.787 3.231-4.787s3.244 1.841 3.244 4.787v.012c0 2.946-1.219 4.793-3.244 4.793zm0-.997c1.314 0 2.095-1.46 2.095-3.796v-.012c0-2.336-.781-3.784-2.095-3.784s-2.082 1.448-2.082 3.784v.012c0 2.336.768 3.796 2.082 3.796zM198.874 42.063a.831.831 0 01-.825-.825c0-.457.374-.825.825-.825.457 0 .825.368.825.825 0 .451-.368.825-.825.825zM204.305 42.216c-2.024 0-3.23-1.847-3.23-4.793v-.012c0-2.946 1.206-4.787 3.23-4.787 2.025 0 3.244 1.841 3.244 4.787v.012c0 2.946-1.219 4.793-3.244 4.793zm0-.997c1.314 0 2.095-1.46 2.095-3.796v-.012c0-2.336-.781-3.784-2.095-3.784-1.313 0-2.082 1.448-2.082 3.784v.012c0 2.336.769 3.796 2.082 3.796zM212.416 42.216c-2.025 0-3.231-1.847-3.231-4.793v-.012c0-2.946 1.206-4.787 3.231-4.787s3.244 1.841 3.244 4.787v.012c0 2.946-1.219 4.793-3.244 4.793zm0-.997c1.314 0 2.095-1.46 2.095-3.796v-.012c0-2.336-.781-3.784-2.095-3.784s-2.082 1.448-2.082 3.784v.012c0 2.336.768 3.796 2.082 3.796zM218.064 44.285h-.927c.92-1.174 1.606-3.7 1.606-5.922 0-2.203-.686-4.748-1.606-5.923h.927c1.244 1.645 1.802 3.568 1.802 5.923 0 2.361-.565 4.278-1.802 5.922zM227.81 42.12c-1.301 0-2.285-.786-2.285-2.03v-.013c0-1.22.901-1.924 2.494-2.019l1.962-.12v-.623c0-.844-.514-1.3-1.536-1.3-.819 0-1.359.304-1.536.837l-.007.02h-1.104l.006-.039c.178-1.073 1.219-1.796 2.679-1.796 1.669 0 2.602.857 2.602 2.278V42h-1.104v-1.01h-.102c-.431.73-1.149 1.13-2.069 1.13zm-1.155-2.056c0 .692.59 1.098 1.383 1.098 1.124 0 1.943-.736 1.943-1.714v-.622l-1.828.114c-1.041.064-1.498.432-1.498 1.111v.013zM235.457 42.05c-1.409 0-2-.52-2-1.827V36.07h-1.079v-.914h1.079v-1.77h1.143v1.77h1.498v.914H234.6v3.872c0 .806.279 1.13.99 1.13.197 0 .305-.006.508-.025v.94a3.655 3.655 0 01-.641.063zM61.168 60v-9.16h5.675v1.029H62.31v2.939h4.298v1.015H62.31v3.149h4.533V60h-5.675zM68.758 60v-9.56h1.104V60h-1.104zM75.622 60v-9.16h3.454c1.72 0 2.939 1.187 2.939 2.927v.012c0 1.74-1.22 2.952-2.94 2.952h-2.31V60h-1.143zm3.162-8.144h-2.019v3.86h2.019c1.307 0 2.063-.718 2.063-1.924v-.013c0-1.206-.756-1.923-2.063-1.923zM86.272 60.12c-1.955 0-3.136-1.37-3.136-3.516v-.006c0-2.114 1.206-3.561 3.066-3.561 1.86 0 2.99 1.383 2.99 3.427v.432h-4.926c.032 1.416.813 2.24 2.031 2.24.927 0 1.498-.437 1.683-.85l.025-.057h1.104l-.012.05c-.235.927-1.213 1.842-2.825 1.842zm-.076-6.1c-1.016 0-1.79.692-1.91 1.994h3.782c-.114-1.352-.863-1.994-1.872-1.994zM95.601 62.285v-3.313H95.5c-.375.723-1.162 1.149-2.14 1.149-1.739 0-2.875-1.403-2.875-3.536v-.013c0-2.145 1.13-3.535 2.876-3.535.92 0 1.726.482 2.164 1.263h.076v-1.143h1.105v9.128H95.6zm-1.98-3.142c1.231 0 2.012-.99 2.012-2.558v-.013c0-1.574-.78-2.558-2.019-2.558-1.25 0-2 .965-2 2.558v.013c0 1.593.75 2.558 2.007 2.558zM100.963 60.12c-1.555 0-2.355-.913-2.355-2.532v-4.43h1.105v4.163c0 1.232.444 1.822 1.536 1.822 1.206 0 1.847-.736 1.847-1.936v-4.05h1.104V60h-1.104v-1.022h-.102c-.336.73-1.028 1.143-2.031 1.143zM108.978 60.12c-1.955 0-3.135-1.37-3.135-3.516v-.006c0-2.114 1.206-3.561 3.066-3.561 1.859 0 2.989 1.383 2.989 3.427v.432h-4.925c.031 1.416.812 2.24 2.031 2.24.927 0 1.498-.437 1.682-.85l.025-.057h1.105l-.013.05c-.235.927-1.212 1.842-2.825 1.842zm-.076-6.1c-1.015 0-1.79.692-1.91 1.994h3.783c-.114-1.352-.863-1.994-1.873-1.994zM117.273 52.16c-.489 0-.819-.24-1.168-.59l-.07-.07c-.235-.234-.368-.304-.539-.304-.305 0-.483.317-.483.965v.025h-.888v-.07c0-1.092.457-1.758 1.269-1.758.489 0 .819.241 1.168.59l.07.07c.235.235.368.305.539.305.305 0 .483-.318.483-.965v-.025h.889v.07c0 1.091-.458 1.758-1.27 1.758zM113.534 60v-6.843h1.105v1.029h.101c.343-.724.984-1.15 1.993-1.15 1.537 0 2.393.908 2.393 2.533V60h-1.104v-4.164c0-1.231-.508-1.822-1.6-1.822-1.091 0-1.783.736-1.783 1.936V60h-1.105zM123.86 60.12c-1.949 0-3.155-1.345-3.155-3.535v-.013c0-2.196 1.206-3.535 3.155-3.535 1.949 0 3.155 1.339 3.155 3.535v.013c0 2.19-1.206 3.536-3.155 3.536zm0-.977c1.295 0 2.025-.946 2.025-2.558v-.013c0-1.618-.73-2.558-2.025-2.558s-2.025.94-2.025 2.558v.013c0 1.612.73 2.558 2.025 2.558zM136.057 60.216c-2.489 0-4.044-1.841-4.044-4.786v-.013c0-2.952 1.549-4.793 4.037-4.793 1.93 0 3.434 1.213 3.707 2.971l-.006.013h-1.149l-.006-.013c-.305-1.174-1.283-1.917-2.546-1.917-1.758 0-2.863 1.448-2.863 3.739v.013c0 2.291 1.105 3.732 2.87 3.732 1.275 0 2.247-.654 2.532-1.707l.013-.013h1.155v.013c-.304 1.675-1.752 2.76-3.7 2.76zM142.46 52.205h-.965l1.123-2.158h1.308l-1.466 2.158zM141.482 60v-6.843h1.104V60h-1.104zM144.59 60v-6.843h1.105v1.016h.102c.26-.717.901-1.136 1.828-1.136.209 0 .444.025.552.044v1.073a3.977 3.977 0 00-.679-.064c-1.054 0-1.803.667-1.803 1.67V60h-1.105zM152.073 60.12c-1.917 0-3.143-1.39-3.143-3.56v-.013c0-2.127 1.219-3.51 3.136-3.51 1.663 0 2.66.958 2.863 2.177l.006.038h-1.098l-.006-.02c-.172-.672-.781-1.218-1.765-1.218-1.231 0-2.006.99-2.006 2.533v.013c0 1.574.787 2.583 2.006 2.583.921 0 1.505-.406 1.759-1.168l.012-.038 1.092-.006-.013.07c-.279 1.237-1.199 2.12-2.843 2.12zM158.761 60.12c-1.555 0-2.355-.913-2.355-2.532v-4.43h1.105v4.163c0 1.232.444 1.822 1.536 1.822 1.206 0 1.847-.736 1.847-1.936v-4.05h1.104V60h-1.104v-1.022h-.102c-.336.73-1.028 1.143-2.031 1.143zM164.047 60v-9.56h1.104V60h-1.104zM170.006 60.12c-1.949 0-3.155-1.345-3.155-3.535v-.013c0-2.196 1.206-3.535 3.155-3.535 1.948 0 3.154 1.339 3.154 3.535v.013c0 2.19-1.206 3.536-3.154 3.536zm0-.977c1.294 0 2.024-.946 2.024-2.558v-.013c0-1.618-.73-2.558-2.024-2.558-1.295 0-2.025.94-2.025 2.558v.013c0 1.612.73 2.558 2.025 2.558zM178.514 60v-9.16h1.327l3.135 7.643h.102l3.136-7.643h1.326V60h-1.066v-6.995h-.07L183.51 60h-.965l-2.895-6.995h-.07V60h-1.066zM192.471 60.12c-1.949 0-3.155-1.345-3.155-3.535v-.013c0-2.196 1.206-3.535 3.155-3.535 1.948 0 3.155 1.339 3.155 3.535v.013c0 2.19-1.207 3.536-3.155 3.536zm0-.977c1.295 0 2.025-.946 2.025-2.558v-.013c0-1.618-.73-2.558-2.025-2.558s-2.025.94-2.025 2.558v.013c0 1.612.73 2.558 2.025 2.558zM197.261 60v-6.843h1.105v1.016h.101c.261-.717.902-1.136 1.829-1.136.209 0 .444.025.552.044v1.073a3.977 3.977 0 00-.679-.064c-1.054 0-1.803.667-1.803 1.67V60h-1.105zM204.013 60.12c-1.301 0-2.285-.786-2.285-2.03v-.013c0-1.22.902-1.924 2.495-2.019l1.961-.12v-.623c0-.844-.514-1.3-1.536-1.3-.819 0-1.358.304-1.536.837l-.006.02h-1.105l.007-.039c.177-1.073 1.218-1.796 2.678-1.796 1.67 0 2.603.857 2.603 2.278V60h-1.105v-1.01h-.101c-.432.73-1.149 1.13-2.07 1.13zm-1.155-2.056c0 .692.591 1.098 1.384 1.098 1.124 0 1.942-.736 1.942-1.714v-.622l-1.828.114c-1.041.064-1.498.432-1.498 1.111v.013zM211.756 60.12c-1.733 0-2.869-1.402-2.869-3.535v-.013c0-2.145 1.13-3.535 2.869-3.535.939 0 1.758.47 2.133 1.2h.101V50.44h1.105V60h-1.105v-1.092h-.101c-.419.762-1.181 1.213-2.133 1.213zm.254-.977c1.244 0 2.006-.977 2.006-2.558v-.013c0-1.58-.762-2.558-2.006-2.558-1.251 0-1.993.965-1.993 2.558v.013c0 1.593.742 2.558 1.993 2.558zM219.949 60.12c-1.949 0-3.155-1.345-3.155-3.535v-.013c0-2.196 1.206-3.535 3.155-3.535 1.949 0 3.155 1.339 3.155 3.535v.013c0 2.19-1.206 3.536-3.155 3.536zm0-.977c1.295 0 2.025-.946 2.025-2.558v-.013c0-1.618-.73-2.558-2.025-2.558s-2.025.94-2.025 2.558v.013c0 1.612.73 2.558 2.025 2.558z"/></svg>