<svg class="_1clhcdy3" xmlns="http://www.w3.org/2000/svg" width="321" height="60" fill="none" viewBox="-30 20 421 60"><rect width="321" height="60" fill="#fff" rx="10"/><path fill="#6935D3" d="M10 20c0-5.523 4.477-10 10-10h20c5.523 0 10 4.477 10 10v20c0 5.523-4.477 10-10 10H20c-5.523 0-10-4.477-10-10V20z"/><path fill="#fff" d="M23.138 30.335V29.32c0-6.316 5.133-11.448 11.451-11.448h1.016v4.145h-1.016a7.306 7.306 0 00-7.305 7.303v1.015h-4.146zM37.692 30.335v1.015c0 6.316-5.133 11.449-11.451 11.449h-1.016v-4.145h1.016a7.306 7.306 0 007.305-7.304v-1.015h4.146z"/><path fill="#000" d="M64.31 26.229c-2.126 0-3.479-1.048-3.593-2.628l-.006-.09h1.587l.006.064c.076.768.895 1.276 2.057 1.276 1.104 0 1.879-.546 1.879-1.333v-.006c0-.66-.476-1.06-1.657-1.314l-.984-.203c-1.872-.394-2.685-1.27-2.685-2.635v-.006c0-1.638 1.41-2.742 3.39-2.742 2.031 0 3.294 1.11 3.408 2.583l.007.083H66.15l-.013-.076c-.114-.711-.793-1.22-1.84-1.213-1.016 0-1.74.476-1.74 1.257v.006c0 .648.464 1.054 1.606 1.295l.984.21c1.93.406 2.736 1.18 2.736 2.564v.007c0 1.783-1.378 2.9-3.574 2.9zM72.211 26.032c-1.593 0-2.247-.534-2.247-1.873v-3.872h-1.08v-1.225h1.08v-1.701h1.606v1.701h1.466v1.225H71.57v3.498c0 .692.273.984.933.984.222 0 .343-.007.533-.026v1.219c-.228.044-.52.07-.825.07zM76.424 26.114c-1.32 0-2.279-.812-2.279-2.075v-.013c0-1.238.946-1.962 2.635-2.063l1.783-.108v-.597c0-.692-.45-1.072-1.301-1.072-.724 0-1.193.26-1.352.717l-.006.025h-1.492l.006-.057c.153-1.168 1.27-1.942 2.92-1.942 1.784 0 2.787.863 2.787 2.33V26h-1.562v-.952h-.108c-.38.673-1.117 1.066-2.03 1.066zm-.717-2.152c0 .59.501.94 1.2.94.952 0 1.656-.622 1.656-1.447v-.559l-1.561.102c-.883.057-1.295.38-1.295.952v.012zM81.945 26v-6.938h1.58v1.066h.108c.235-.742.87-1.18 1.784-1.18.241 0 .489.032.641.076v1.415a3.984 3.984 0 00-.787-.088c-1.054 0-1.746.628-1.746 1.618V26h-1.58zM87.338 26v-9.623h1.581V26h-1.58zM91.653 17.9a.937.937 0 01-.946-.933c0-.514.425-.933.946-.933a.94.94 0 01.94.933c0 .52-.426.933-.94.933zm-.794 8.1v-6.938h1.581V26h-1.58zM94.305 26v-6.938h1.58v1.06h.108c.33-.743.997-1.193 2-1.193 1.548 0 2.393.933 2.393 2.583V26h-1.581v-4.12c0-1.079-.438-1.625-1.397-1.625-.939 0-1.523.66-1.523 1.701V26h-1.58zM105.157 28.438c-1.828 0-2.926-.781-3.085-1.95l.007-.018h1.58l.006.019c.108.444.635.755 1.518.755 1.079 0 1.707-.501 1.707-1.39v-1.327h-.108c-.4.743-1.155 1.15-2.114 1.15-1.758 0-2.85-1.36-2.85-3.327v-.013c0-2.006 1.092-3.39 2.882-3.39.959 0 1.708.47 2.101 1.258h.083v-1.143h1.58v6.767c0 1.6-1.282 2.608-3.307 2.608zm0-4.019c1.098 0 1.758-.844 1.758-2.069v-.013c0-1.225-.666-2.075-1.758-2.075-1.098 0-1.72.85-1.72 2.075v.013c0 1.225.622 2.07 1.72 2.07zM113.875 26v-9.16h3.828c1.739 0 2.786.876 2.786 2.28v.012c0 .958-.711 1.809-1.631 1.955v.114c1.232.114 2.082 1.003 2.082 2.19v.013c0 1.606-1.193 2.596-3.148 2.596h-3.917zm3.428-7.884h-1.79V20.7h1.58c1.162 0 1.778-.451 1.778-1.282v-.013c0-.813-.578-1.289-1.568-1.289zm.051 3.745h-1.841v2.863h1.904c1.206 0 1.847-.501 1.847-1.434v-.013c0-.927-.66-1.416-1.91-1.416zM124.372 26.114c-1.32 0-2.278-.812-2.278-2.075v-.013c0-1.238.945-1.962 2.634-2.063l1.784-.108v-.597c0-.692-.451-1.072-1.302-1.072-.723 0-1.193.26-1.352.717l-.006.025h-1.492l.006-.057c.153-1.168 1.27-1.942 2.92-1.942 1.784 0 2.787.863 2.787 2.33V26h-1.561v-.952h-.108c-.381.673-1.118 1.066-2.032 1.066zm-.717-2.152c0 .59.502.94 1.2.94.952 0 1.657-.622 1.657-1.447v-.559l-1.562.102c-.882.057-1.295.38-1.295.952v.012zM129.893 26v-6.938h1.581v1.06h.107c.331-.743.997-1.193 2-1.193 1.549 0 2.393.933 2.393 2.583V26h-1.581v-4.12c0-1.079-.438-1.625-1.396-1.625-.939 0-1.523.66-1.523 1.701V26h-1.581zM137.826 26v-9.623h1.58v5.529h.108l2.558-2.844h1.828l-2.793 2.933L144.091 26h-1.904l-2.228-3.002-.553.564V26h-1.58z"/><path fill="#3C3C43" fill-opacity="0.6" d="M287.098 26v-6.843h1.105v1.029h.101c.343-.724.984-1.15 1.994-1.15 1.536 0 2.393.908 2.393 2.533V26h-1.105v-4.164c0-1.231-.508-1.822-1.599-1.822-1.092 0-1.784.736-1.784 1.936V26h-1.105zM297.424 26.12c-1.949 0-3.155-1.345-3.155-3.535v-.013c0-2.196 1.206-3.535 3.155-3.535 1.949 0 3.155 1.339 3.155 3.535v.013c0 2.19-1.206 3.536-3.155 3.536zm0-.977c1.295 0 2.025-.946 2.025-2.558v-.013c0-1.618-.73-2.558-2.025-2.558s-2.025.94-2.025 2.558v.013c0 1.612.73 2.558 2.025 2.558zM303.281 26l-1.917-6.843h1.105l1.345 5.472h.102l1.53-5.472h1.047l1.53 5.472h.102l1.345-5.472h1.098L308.651 26h-1.11l-1.53-5.294h-.102L304.386 26h-1.105z"/><path fill="#000" d="M63.688 44v-3.942l-3.25-5.218h1.301l2.47 4.07h.101l2.47-4.07h1.3l-3.25 5.218V44h-1.142zM71.202 44.12c-1.949 0-3.155-1.345-3.155-3.535v-.013c0-2.196 1.206-3.535 3.155-3.535 1.948 0 3.155 1.339 3.155 3.535v.013c0 2.19-1.207 3.536-3.155 3.536zm0-.977c1.295 0 2.025-.946 2.025-2.558v-.013c0-1.618-.73-2.558-2.025-2.558s-2.025.94-2.025 2.558v.013c0 1.612.73 2.558 2.025 2.558zM78.284 44.12c-1.555 0-2.355-.913-2.355-2.532v-4.43h1.105v4.163c0 1.232.444 1.822 1.536 1.822 1.206 0 1.847-.736 1.847-1.936v-4.05h1.104V44h-1.104v-1.022h-.102c-.336.73-1.028 1.143-2.031 1.143zM89.433 44.12c-1.523 0-2.57-.736-2.698-1.866h1.13c.184.572.73.946 1.606.946.92 0 1.574-.438 1.574-1.06v-.013c0-.463-.349-.787-1.193-.99l-1.06-.254c-1.282-.304-1.86-.863-1.86-1.847v-.006c0-1.136 1.092-1.993 2.546-1.993 1.434 0 2.43.717 2.583 1.834h-1.085c-.146-.54-.68-.914-1.505-.914-.812 0-1.409.419-1.409 1.022v.013c0 .463.343.755 1.149.952l1.054.254c1.288.31 1.91.87 1.91 1.847v.013c0 1.218-1.187 2.063-2.742 2.063zM93.811 46.285v-9.128h1.105v1.092h.101c.42-.762 1.18-1.212 2.133-1.212 1.733 0 2.869 1.403 2.869 3.535v.013c0 2.145-1.13 3.536-2.869 3.536-.94 0-1.758-.47-2.133-1.2h-.101v3.364H93.81zm3.085-3.142c1.25 0 1.993-.965 1.993-2.558v-.013c0-1.593-.742-2.558-1.993-2.558-1.244 0-2.006.978-2.006 2.558v.013c0 1.58.762 2.558 2.006 2.558zM104.461 44.12c-1.955 0-3.136-1.37-3.136-3.516v-.006c0-2.114 1.206-3.561 3.066-3.561 1.86 0 2.99 1.383 2.99 3.427v.432h-4.926c.032 1.416.812 2.24 2.031 2.24.927 0 1.498-.437 1.682-.85l.026-.057h1.104l-.013.05c-.234.927-1.212 1.842-2.824 1.842zm-.076-6.1c-1.016 0-1.79.692-1.911 1.994h3.783c-.114-1.352-.863-1.994-1.872-1.994zM109.016 44v-6.843h1.105v1.029h.102c.342-.724.983-1.15 1.993-1.15 1.536 0 2.393.908 2.393 2.533V44h-1.105v-4.164c0-1.231-.508-1.822-1.599-1.822-1.092 0-1.784.736-1.784 1.936V44h-1.105zM118.961 44.05c-1.409 0-1.999-.52-1.999-1.827V38.07h-1.079v-.914h1.079v-1.77h1.143v1.77h1.498v.914h-1.498v3.872c0 .806.279 1.13.99 1.13.197 0 .304-.006.508-.025v.94a3.666 3.666 0 01-.642.063zM124.417 43.81v-.965c1.161-.26 1.955-1.105 1.955-2.089 0-.342-.07-.64-.165-.926h-1.79v-.864h1.422c-.178-.4-.324-.812-.324-1.314 0-1.663 1.244-2.678 3.282-2.678.736 0 1.46.127 1.904.336v1.016c-.343-.19-1.149-.343-1.847-.343-1.346 0-2.171.622-2.171 1.644 0 .514.146.933.317 1.34h3.053v.863h-2.704c.089.266.146.558.146.882 0 .882-.457 1.58-1.326 2.031v.089h4.989v.978h-6.741zM135.987 44.152c-1.943 0-3.326-1.092-3.326-2.628v-.012c0-1.13.793-2.07 1.967-2.343v-.025c-1.003-.311-1.637-1.073-1.637-2.038v-.012c0-1.384 1.263-2.406 2.996-2.406s2.996 1.022 2.996 2.406v.012c0 .965-.635 1.727-1.638 2.038v.025c1.174.273 1.968 1.213 1.968 2.343v.012c0 1.536-1.384 2.628-3.326 2.628zm0-5.433c1.104 0 1.86-.629 1.86-1.517v-.013c0-.889-.756-1.517-1.86-1.517-1.105 0-1.86.628-1.86 1.517v.013c0 .888.755 1.517 1.86 1.517zm0 4.437c1.263 0 2.164-.711 2.164-1.701v-.013c0-1.003-.895-1.72-2.164-1.72-1.27 0-2.165.717-2.165 1.72v.013c0 .99.902 1.7 2.165 1.7zM141.545 44.063a.832.832 0 01-.825-.825c0-.457.375-.825.825-.825a.824.824 0 110 1.65zM144.165 44v-.787l3.098-3.352c1.168-1.263 1.511-1.739 1.511-2.539v-.012c0-.965-.654-1.689-1.733-1.689-1.098 0-1.828.717-1.828 1.796l-.007.013-1.092-.006-.012-.007c.006-1.625 1.263-2.793 3.015-2.793 1.599 0 2.825 1.086 2.825 2.565v.013c0 1.047-.451 1.809-2.108 3.516l-2.082 2.152v.102h4.342V44h-5.929zM155.062 44.152c-1.942 0-3.326-1.092-3.326-2.628v-.012c0-1.13.794-2.07 1.968-2.343v-.025c-1.003-.311-1.638-1.073-1.638-2.038v-.012c0-1.384 1.263-2.406 2.996-2.406s2.996 1.022 2.996 2.406v.012c0 .965-.634 1.727-1.637 2.038v.025c1.174.273 1.967 1.213 1.967 2.343v.012c0 1.536-1.383 2.628-3.326 2.628zm0-5.433c1.105 0 1.86-.629 1.86-1.517v-.013c0-.889-.755-1.517-1.86-1.517-1.104 0-1.86.628-1.86 1.517v.013c0 .888.756 1.517 1.86 1.517zm0 4.437c1.263 0 2.165-.711 2.165-1.701v-.013c0-1.003-.895-1.72-2.165-1.72-1.269 0-2.164.717-2.164 1.72v.013c0 .99.901 1.7 2.164 1.7zM165.621 44.12c-1.301 0-2.285-.786-2.285-2.03v-.013c0-1.22.901-1.924 2.495-2.019l1.961-.12v-.623c0-.844-.514-1.3-1.536-1.3-.819 0-1.358.304-1.536.837l-.007.02h-1.104l.006-.039c.178-1.073 1.219-1.796 2.679-1.796 1.669 0 2.603.857 2.603 2.278V44h-1.105v-1.01h-.102c-.431.73-1.148 1.13-2.069 1.13zm-1.155-2.056c0 .692.59 1.098 1.384 1.098 1.123 0 1.942-.736 1.942-1.714v-.622l-1.828.114c-1.041.064-1.498.432-1.498 1.111v.013zM173.268 44.05c-1.409 0-1.999-.52-1.999-1.827V38.07h-1.079v-.914h1.079v-1.77h1.142v1.77h1.498v.914h-1.498v3.872c0 .806.28 1.13.991 1.13.196 0 .304-.006.507-.025v.94a3.645 3.645 0 01-.641.063zM179.2 44v-9.16h3.504c1.682 0 2.71.883 2.71 2.28v.012c0 .946-.698 1.809-1.581 1.968v.101c1.251.159 2.044 1.016 2.044 2.222v.012c0 1.606-1.155 2.565-3.104 2.565H179.2zm3.262-8.15h-2.12v2.939h1.828c1.384 0 2.089-.495 2.089-1.46v-.013c0-.927-.66-1.466-1.797-1.466zm.032 3.922h-2.152v3.219h2.26c1.377 0 2.101-.559 2.101-1.613v-.012c0-1.054-.749-1.593-2.209-1.593zM187.589 44v-9.56h1.105V44h-1.105zM192.615 44.12c-1.301 0-2.285-.786-2.285-2.03v-.013c0-1.22.901-1.924 2.494-2.019l1.962-.12v-.623c0-.844-.514-1.3-1.536-1.3-.819 0-1.359.304-1.536.837l-.007.02h-1.104l.006-.039c.178-1.073 1.219-1.796 2.679-1.796 1.669 0 2.602.857 2.602 2.278V44h-1.104v-1.01h-.102c-.431.73-1.149 1.13-2.069 1.13zm-1.155-2.056c0 .692.59 1.098 1.383 1.098 1.124 0 1.943-.736 1.943-1.714v-.622l-1.828.114c-1.041.064-1.498.432-1.498 1.111v.013zM200.63 44.12c-1.917 0-3.142-1.39-3.142-3.56v-.013c0-2.127 1.219-3.51 3.136-3.51 1.663 0 2.66.958 2.863 2.177l.006.038h-1.098l-.007-.02c-.171-.672-.78-1.218-1.764-1.218-1.232 0-2.006.99-2.006 2.533v.013c0 1.574.787 2.583 2.006 2.583.92 0 1.504-.406 1.758-1.168l.013-.038 1.092-.006-.013.07c-.279 1.237-1.2 2.12-2.844 2.12zM205.091 44v-9.56h1.104v5.707h.102l2.958-2.99h1.339l-2.983 2.876 3.18 3.967h-1.39l-2.565-3.218-.641.622V44h-1.104zM218.728 44.216c-2.006 0-3.301-1.054-3.434-2.546l-.006-.07h1.142l.007.07c.082.914 1.034 1.492 2.355 1.492 1.244 0 2.152-.641 2.152-1.574v-.007c0-.761-.527-1.282-1.784-1.561l-1.016-.222c-1.834-.406-2.628-1.25-2.628-2.577v-.007c.007-1.517 1.333-2.59 3.225-2.59 1.828 0 3.104 1.08 3.199 2.444l.006.09h-1.142l-.013-.083c-.127-.806-.888-1.403-2.082-1.397-1.142.007-2.025.546-2.025 1.505v.006c0 .73.502 1.225 1.746 1.498l1.016.229c1.91.425 2.666 1.193 2.666 2.513v.006c0 1.714-1.34 2.78-3.384 2.78zM223.862 44v-9.56h1.104v3.745h.102c.342-.723.984-1.148 1.993-1.148 1.536 0 2.393.907 2.393 2.532V44h-1.105v-4.164c0-1.231-.507-1.822-1.599-1.822s-1.784.736-1.784 1.936V44h-1.104zM234.168 44.12c-1.955 0-3.135-1.37-3.135-3.516v-.006c0-2.114 1.206-3.561 3.066-3.561 1.859 0 2.989 1.383 2.989 3.427v.432h-4.925c.031 1.416.812 2.24 2.031 2.24.927 0 1.498-.437 1.682-.85l.025-.057h1.105l-.013.05c-.235.927-1.212 1.842-2.825 1.842zm-.076-6.1c-1.015 0-1.79.692-1.91 1.994h3.783c-.114-1.352-.863-1.994-1.873-1.994zM241.517 44.12c-1.955 0-3.136-1.37-3.136-3.516v-.006c0-2.114 1.206-3.561 3.066-3.561 1.86 0 2.99 1.383 2.99 3.427v.432h-4.926c.032 1.416.813 2.24 2.032 2.24.926 0 1.498-.437 1.682-.85l.025-.057h1.105l-.013.05c-.235.927-1.213 1.842-2.825 1.842zm-.076-6.1c-1.016 0-1.79.692-1.911 1.994h3.784c-.115-1.352-.864-1.994-1.873-1.994zM246.073 46.285v-9.128h1.104v1.092h.102c.419-.762 1.181-1.212 2.133-1.212 1.733 0 2.869 1.403 2.869 3.535v.013c0 2.145-1.13 3.536-2.869 3.536-.94 0-1.758-.47-2.133-1.2h-.102v3.364h-1.104zm3.085-3.142c1.25 0 1.993-.965 1.993-2.558v-.013c0-1.593-.743-2.558-1.993-2.558-1.244 0-2.006.978-2.006 2.558v.013c0 1.58.762 2.558 2.006 2.558zM261.335 44.216c-2.488 0-4.043-1.841-4.043-4.786v-.013c0-2.952 1.549-4.793 4.037-4.793 1.93 0 3.434 1.213 3.707 2.971l-.006.013h-1.149l-.007-.013c-.304-1.174-1.282-1.917-2.545-1.917-1.758 0-2.863 1.448-2.863 3.739v.013c0 2.291 1.105 3.732 2.869 3.732 1.276 0 2.247-.654 2.533-1.707l.013-.013h1.155v.013c-.305 1.675-1.752 2.76-3.701 2.76zM269.547 44.12c-1.948 0-3.154-1.345-3.154-3.535v-.013c0-2.196 1.206-3.535 3.154-3.535 1.949 0 3.155 1.339 3.155 3.535v.013c0 2.19-1.206 3.536-3.155 3.536zm0-.977c1.295 0 2.025-.946 2.025-2.558v-.013c0-1.618-.73-2.558-2.025-2.558-1.294 0-2.024.94-2.024 2.558v.013c0 1.612.73 2.558 2.024 2.558zM274.795 44v-5.929h-1.136v-.914h1.136v-.761c0-1.365.686-2.019 1.987-2.019.267 0 .508.019.736.063v.883a2.998 2.998 0 00-.514-.032c-.787 0-1.104.387-1.104 1.136v.73h1.555v.914H275.9V44h-1.105zM279.427 44v-5.929h-1.136v-.914h1.136v-.761c0-1.365.686-2.019 1.987-2.019.267 0 .508.019.736.063v.883a2.998 2.998 0 00-.514-.032c-.787 0-1.104.387-1.104 1.136v.73h1.555v.914h-1.555V44h-1.105zM286.103 44.12c-1.955 0-3.136-1.37-3.136-3.516v-.006c0-2.114 1.206-3.561 3.066-3.561 1.86 0 2.99 1.383 2.99 3.427v.432h-4.926c.032 1.416.813 2.24 2.031 2.24.927 0 1.498-.437 1.683-.85l.025-.057h1.104l-.012.05c-.235.927-1.213 1.842-2.825 1.842zm-.076-6.1c-1.016 0-1.79.692-1.911 1.994h3.783c-.114-1.352-.863-1.994-1.872-1.994zM293.452 44.12c-1.955 0-3.136-1.37-3.136-3.516v-.006c0-2.114 1.206-3.561 3.066-3.561 1.86 0 2.99 1.383 2.99 3.427v.432h-4.926c.032 1.416.812 2.24 2.031 2.24.927 0 1.498-.437 1.682-.85l.026-.057h1.104l-.013.05c-.234.927-1.212 1.842-2.824 1.842zm-.076-6.1c-1.016 0-1.79.692-1.911 1.994h3.783c-.114-1.352-.863-1.994-1.872-1.994z"/></svg>