<svg class="_1feyr225" xmlns="http://www.w3.org/2000/svg" fill="none" viewBox="0 0 202 321"><path fill="#19D3C5" d="M190.118 0C196.681 0 202 5.32 202 11.882v297.061c0 6.563-5.321 11.882-11.882 11.882H11.882C5.32 320.825 0 315.504 0 308.943V11.882C0 5.32 5.32 0 11.882 0h178.236z"/><path fill="#00AF9A" d="M146.281 53.905c.238.323.428.68.551 1.063.13.385.204.798.204 1.23 0 .432-.074.844-.204 1.23a3.68 3.68 0 01-.555 1.063.99.99 0 00.204 1.381.99.99 0 001.381-.206 5.963 5.963 0 00.844-1.609 5.976 5.976 0 00.002-3.716 5.994 5.994 0 00-.846-1.609.984.984 0 10-1.581 1.173zM149.655 52.066a7.828 7.828 0 011.172 4.132 7.807 7.807 0 01-1.172 4.131.994.994 0 00.325 1.358.988.988 0 001.358-.324 9.778 9.778 0 001.459-5.165 9.784 9.784 0 00-1.459-5.166.984.984 0 00-1.358-.32.991.991 0 00-.325 1.354zM153.239 50.192a11.837 11.837 0 011.624 6.004c0 2.193-.592 4.242-1.626 6.001a.987.987 0 00.358 1.351.985.985 0 001.349-.355 13.813 13.813 0 001.887-6.997c0-2.549-.687-4.944-1.887-6.997a.987.987 0 00-1.705.993z"/><path fill="#00AF9A" d="M156.812 48.314a15.885 15.885 0 012.078 7.882 15.908 15.908 0 01-2.078 7.884.982.982 0 00.37 1.342.983.983 0 001.342-.366 17.843 17.843 0 002.338-8.858c0-3.219-.849-6.244-2.338-8.859a.985.985 0 00-1.712.974zM21.804 285.224c.434 0 .804.077 1.11.232.309.156.568.358.779.611v-3.168h1.723v8.92h-1.691v-.708c-.21.26-.475.472-.79.632-.314.162-.69.242-1.133.242-.44 0-.853-.087-1.232-.259a3.033 3.033 0 01-.987-.709 3.256 3.256 0 01-.653-1.07 3.728 3.728 0 01-.236-1.342c0-.481.078-.93.236-1.343.157-.412.374-.77.653-1.07.279-.3.608-.536.987-.71.383-.17.793-.258 1.234-.258zm.319 1.613c-.251 0-.48.047-.685.138a1.564 1.564 0 00-.855.941 2.053 2.053 0 00-.117.689c0 .249.038.479.117.693a1.583 1.583 0 001.54 1.077c.249 0 .474-.045.677-.132a1.56 1.56 0 00.523-.372c.147-.16.26-.347.338-.564.079-.215.12-.449.12-.702 0-.251-.041-.485-.12-.702a1.694 1.694 0 00-.338-.564 1.507 1.507 0 00-.524-.37 1.66 1.66 0 00-.676-.132zm7.942-1.613c.463 0 .887.083 1.268.245.383.164.71.394.985.689.274.296.487.651.64 1.068.151.415.228.873.228 1.373 0 .102-.005.204-.011.312-.008.107-.015.196-.023.273h-4.553c.045.234.117.434.219.599.102.166.223.303.368.415.143.111.306.192.487.243.181.051.373.076.577.076a2.564 2.564 0 001.623-.617l1.015 1.113a3.453 3.453 0 01-1.236.738 4.566 4.566 0 01-1.5.236c-.492 0-.94-.08-1.349-.242a3.087 3.087 0 01-1.053-.681 3.047 3.047 0 01-.685-1.061 3.698 3.698 0 01-.247-1.375c0-.504.081-.963.24-1.383.16-.419.381-.776.666-1.074.286-.298.628-.53 1.024-.696a3.388 3.388 0 011.317-.251zm-.013 1.492c-.41 0-.736.115-.974.342-.239.228-.396.543-.47.945h2.844c-.079-.415-.239-.734-.477-.955-.242-.222-.549-.332-.923-.332zm8.137-1.492a2.992 2.992 0 012.221.968c.279.3.496.658.656 1.07.16.413.238.862.238 1.343 0 .483-.079.93-.236 1.342-.158.413-.375.77-.653 1.07a3.08 3.08 0 01-.987.709 2.954 2.954 0 01-1.234.259c-.445 0-.824-.08-1.137-.242a2.46 2.46 0 01-.785-.632v.708h-1.69v-8.92h1.722v3.168c.213-.251.473-.455.777-.611.306-.155.676-.232 1.108-.232zm-.317 1.613c-.246 0-.472.045-.672.132a1.545 1.545 0 00-.521.37 1.73 1.73 0 00-.338.564c-.081.217-.12.451-.12.702 0 .253.039.487.12.702.078.217.191.404.338.564.147.159.319.283.521.372.2.087.425.132.672.132.258 0 .487-.047.69-.138a1.597 1.597 0 00.853-.939 2.03 2.03 0 00.115-.693c0-.243-.039-.472-.115-.689a1.655 1.655 0 00-.332-.564 1.528 1.528 0 00-.521-.377 1.645 1.645 0 00-.69-.138zm6.525 4.982h-1.73v-6.422h1.73v6.422zm6.397-4.884H48.47v2.346c0 .198.026.368.075.507.05.138.119.251.206.338a.779.779 0 00.304.189c.117.041.243.06.374.06.207 0 .417-.043.626-.13a4.62 4.62 0 00.58-.287l.637 1.351a4.359 4.359 0 01-.936.483c-.34.127-.739.193-1.194.193-.8 0-1.4-.219-1.802-.657-.402-.436-.602-1.074-.602-1.908v-2.485h-1.24v-1.538h1.24v-1.909h1.73v1.909h2.325v1.538h.002zm-7.271-4.685a1.097 1.097 0 01.785.322 1.119 1.119 0 01.236 1.225 1.088 1.088 0 01-.587.583 1.132 1.132 0 01-.434.083c-.156 0-.3-.028-.434-.083a1.059 1.059 0 01-.583-.583 1.128 1.128 0 01-.083-.434c0-.155.027-.3.083-.438.055-.136.132-.256.232-.353a1.097 1.097 0 01.785-.322zm-16.9-4.286l1.816-5.245h1.151l-2.302 6.395h-1.312l-1.832-5.203-1.823 5.203h-1.294l-2.302-6.395h1.18l1.81 5.232 1.823-5.232h1.246l1.838 5.245zm6.969-5.379c.485 0 .934.083 1.347.251.412.171.77.403 1.074.7.304.298.54.651.71 1.058.17.406.256.846.256 1.323s-.085.917-.255 1.323c-.17.407-.407.76-.711 1.058a3.304 3.304 0 01-1.074.699 3.52 3.52 0 01-1.347.254 3.52 3.52 0 01-1.347-.254 3.25 3.25 0 01-1.072-.699 3.231 3.231 0 01-.706-1.058 3.384 3.384 0 01-.255-1.323c0-.477.085-.915.255-1.323.17-.407.406-.758.706-1.058.3-.297.657-.531 1.072-.7a3.545 3.545 0 011.347-.251zm0 1.037c-.323 0-.621.057-.896.172-.272.115-.51.272-.712.474a2.17 2.17 0 00-.475.724c-.115.28-.172.589-.172.925 0 .338.057.647.172.925.115.281.273.524.475.728.202.204.44.364.712.479.273.115.573.172.896.172.32 0 .617-.057.891-.172a2.17 2.17 0 001.194-1.207c.115-.28.172-.589.172-.925 0-.336-.057-.645-.172-.925a2.124 2.124 0 00-.477-.724 2.25 2.25 0 00-1.608-.646zm8.376-1.037c.227 0 .438.015.63.047a2.1 2.1 0 01.542.162l-.268 1.083a2.012 2.012 0 00-.526-.185 2.667 2.667 0 00-.572-.064 1.66 1.66 0 00-.67.134c-.204.089-.38.219-.528.387-.149.168-.264.37-.342.606-.081.237-.122.5-.122.798v3.561h-1.097v-6.395h1.083v.843c.223-.313.497-.555.816-.723a2.204 2.204 0 011.054-.254zm3.94 6.529H44.81v-8.937h1.098v8.937zm5.01-6.497c.502 0 .94.09 1.312.268a2.8 2.8 0 01.943.728v-3.404h1.104v8.937h-1.104v-.855c-.256.3-.57.541-.943.721-.372.179-.81.271-1.312.271a3.19 3.19 0 01-1.26-.249 3.086 3.086 0 01-1.017-.694 3.228 3.228 0 01-.676-1.053 3.538 3.538 0 01-.247-1.336c0-.485.08-.93.247-1.336.164-.406.39-.757.676-1.053a3.094 3.094 0 011.017-.694c.392-.17.81-.251 1.26-.251zm.127 1.034c-.332 0-.634.06-.906.179a2.09 2.09 0 00-1.14 1.221 2.585 2.585 0 00-.156.896c0 .319.054.617.158.895.106.279.255.524.449.73a2.117 2.117 0 001.593.677c.324 0 .62-.058.89-.175.267-.117.5-.279.693-.485.194-.206.343-.451.451-.73.108-.28.162-.585.162-.912 0-.328-.053-.63-.162-.909a2.233 2.233 0 00-.451-.727 2.051 2.051 0 00-.694-.485 2.22 2.22 0 00-.887-.175z"/><path fill="#fff" d="M18.65 198.049v-28.611h13.738c1.678 0 3.142.325 4.389.974 1.246.651 2.195 1.544 2.844 2.683.65 1.138.974 2.397.974 3.78 0 1.381-.353 2.608-1.057 3.678-.704 1.07-1.666 1.877-2.885 2.419 1.598.543 2.825 1.43 3.678 2.662.853 1.234 1.281 2.689 1.281 4.369 0 1.517-.345 2.894-1.036 4.126-.691 1.233-1.672 2.193-2.946 2.884-1.273.692-2.764 1.036-4.47 1.036H18.65zm12.925-16.54c1.328 0 2.37-.373 3.13-1.117.757-.745 1.138-1.728 1.138-2.947 0-1.246-.381-2.221-1.139-2.927-.76-.704-1.83-1.057-3.21-1.057h-8.007v8.048h8.088zm.487 12.517c1.462 0 2.608-.391 3.434-1.178.827-.785 1.24-1.855 1.24-3.21 0-1.356-.413-2.438-1.24-3.251-.828-.813-1.972-1.219-3.434-1.219h-8.575v8.861h8.575v-.003zM53.398 198.7c-1.87 0-3.523-.468-4.959-1.402-1.436-.934-2.56-2.227-3.374-3.88-.813-1.653-1.22-3.536-1.22-5.648 0-2.14.407-4.044 1.22-5.71.813-1.666 1.936-2.968 3.374-3.902 1.436-.934 3.089-1.402 4.959-1.402 1.383 0 2.655.304 3.82.915a8.746 8.746 0 012.969 2.54v-2.804h4.674v20.647h-4.674v-2.804c-.813 1.11-1.802 1.963-2.968 2.559-1.166.591-2.438.891-3.821.891zm1.017-4.025c1.166 0 2.18-.278 3.049-.834.867-.555 1.538-1.355 2.012-2.397.472-1.043.71-2.268.71-3.679 0-2.167-.516-3.874-1.544-5.12-1.03-1.247-2.425-1.87-4.187-1.87-1.787 0-3.204.623-4.246 1.87-1.045 1.246-1.566 2.953-1.566 5.12 0 1.411.236 2.636.71 3.679.473 1.042 1.152 1.842 2.032 2.397.881.558 1.892.834 3.03.834zM68.68 177.403h4.673v3.008c.677-1.166 1.572-2.066 2.683-2.702 1.11-.636 2.383-.955 3.82-.955 2.33 0 4.151.751 5.466 2.255 1.315 1.504 1.97 3.585 1.97 6.24v12.803h-4.714v-12.478c0-1.572-.353-2.77-1.058-3.597-.704-.828-1.746-1.24-3.13-1.24-.974 0-1.841.263-2.599.793-.76.528-1.355 1.266-1.787 2.215-.434.949-.65 2.059-.65 3.333v10.974h-4.675v-20.649zM91.153 198.049v-29.464h4.634v16.664l8.048-7.844h5.893l-8.699 8.573 8.901 12.071h-5.527l-6.585-8.901-2.031 1.992v6.909h-4.634zM28.729 152.404c-2.221 0-4.194-.381-5.915-1.139-1.72-.757-3.102-1.814-4.144-3.169-1.045-1.356-1.727-2.926-2.053-4.715l4.96-1.259c.244 1.219.682 2.263 1.32 3.129a6.225 6.225 0 002.438 1.992c.99.461 2.106.691 3.353.691 1.842 0 3.353-.366 4.531-1.098 1.179-.732 1.768-1.774 1.768-3.129 0-.866-.25-1.558-.753-2.072-.502-.515-1.26-.941-2.276-1.281-1.017-.338-2.485-.698-4.41-1.077-2.221-.487-4.044-1.042-5.465-1.665-1.422-.624-2.526-1.47-3.313-2.54-.785-1.07-1.178-2.445-1.178-4.125 0-1.762.459-3.279 1.382-4.553.921-1.272 2.2-2.242 3.84-2.906 1.638-.664 3.53-.996 5.67-.996 1.95 0 3.672.338 5.16 1.017 1.492.677 2.711 1.619 3.66 2.825.947 1.207 1.625 2.609 2.032 4.206l-4.715 1.34c-.46-1.625-1.219-2.872-2.274-3.74-1.057-.865-2.385-1.299-3.984-1.299-1.681 0-3.043.34-4.085 1.017-1.045.678-1.566 1.572-1.566 2.682 0 .76.236 1.375.71 1.849.473.474 1.166.868 2.073 1.179.906.31 2.23.657 3.961 1.036 2.41.487 4.37 1.057 5.874 1.706 1.504.651 2.683 1.538 3.536 2.661.853 1.126 1.28 2.608 1.28 4.451 0 1.816-.487 3.401-1.463 4.754-.975 1.356-2.324 2.398-4.045 3.13-1.716.732-3.686 1.098-5.91 1.098zM51.528 152.199c-2.168 0-3.725-.502-4.674-1.504-.949-1.002-1.423-2.438-1.423-4.308v-11.46H42.18v-3.821h3.25v-5.365h4.675v5.365h4.308v3.821h-4.308v11.218c0 .732.217 1.259.649 1.585.434.325 1.07.487 1.91.487.434 0 1.017-.041 1.746-.121v3.699c-.997.268-1.96.404-2.882.404zM66.039 152.404c-1.87 0-3.523-.468-4.959-1.402-1.436-.934-2.561-2.228-3.374-3.881-.813-1.653-1.22-3.536-1.22-5.648 0-2.14.407-4.044 1.22-5.71.813-1.666 1.936-2.968 3.374-3.902 1.436-.934 3.089-1.402 4.959-1.402 1.38 0 2.655.305 3.82.915a8.757 8.757 0 012.969 2.54v-2.804H77.5v20.647h-4.673v-2.804c-.813 1.11-1.802 1.964-2.968 2.559-1.166.592-2.44.892-3.821.892zm1.015-4.025c1.163 0 2.18-.279 3.048-.834.866-.556 1.536-1.356 2.01-2.398.475-1.042.711-2.268.711-3.678 0-2.168-.514-3.874-1.544-5.121-1.032-1.247-2.425-1.87-4.187-1.87-1.79 0-3.204.623-4.248 1.87-1.043 1.247-1.566 2.953-1.566 5.121 0 1.41.236 2.636.71 3.678.475 1.042 1.151 1.842 2.032 2.398.885.557 1.896.834 3.034.834zM81.318 151.753v-20.647h4.674v3.617c.543-1.219 1.28-2.162 2.215-2.826.934-.663 2.038-.995 3.312-.995.27 0 .508.006.71.021.205.015.428.047.67.102v4.43a7.116 7.116 0 00-1.382-.122c-1.653 0-2.987.568-4.002 1.706-1.017 1.139-1.523 2.696-1.523 4.674v10.04h-4.674zM95.706 151.753v-29.465h4.633v29.465h-4.633zM106.558 128.262a2.87 2.87 0 01-2.134-.894 2.97 2.97 0 01-.874-2.155c0-.84.291-1.566.874-2.174a2.83 2.83 0 012.134-.915c.84 0 1.566.304 2.174.915.611.608.915 1.334.915 2.174 0 .84-.304 1.557-.915 2.155-.611.596-1.336.894-2.174.894zm-2.36 2.844h4.715v20.647h-4.715v-20.647zM112.776 131.106h4.674v3.008c.677-1.166 1.572-2.065 2.683-2.702 1.11-.636 2.383-.955 3.821-.955 2.329 0 4.15.751 5.465 2.255 1.315 1.504 1.97 3.585 1.97 6.24v12.803h-4.714v-12.478c0-1.572-.353-2.769-1.058-3.597-.704-.828-1.746-1.24-3.129-1.24-.974 0-1.842.264-2.6.793-.759.528-1.355 1.266-1.787 2.215-.434.949-.651 2.059-.651 3.334v10.973h-4.674v-20.649zM145.045 160.124c-2.413 0-4.491-.528-6.24-1.585-1.747-1.057-2.906-2.546-3.474-4.472l4.472-1.178c.406 1.11 1.07 1.951 1.991 2.519.921.568 2.045.853 3.372.853 1.138 0 2.106-.202 2.906-.611a4.163 4.163 0 001.83-1.808c.419-.8.629-1.783.629-2.947v-2.723a8.511 8.511 0 01-2.946 2.398c-1.151.568-2.419.853-3.8.853-1.844 0-3.482-.44-4.916-1.321-1.436-.881-2.561-2.113-3.374-3.698-.813-1.585-1.219-3.393-1.219-5.427 0-2.031.406-3.846 1.219-5.446.813-1.598 1.936-2.844 3.374-3.74 1.436-.893 3.074-1.34 4.916-1.34 1.381 0 2.655.285 3.821.853a7.936 7.936 0 012.925 2.438V131.1h4.634v19.71c0 1.923-.413 3.583-1.24 4.978-.828 1.396-2.007 2.466-3.536 3.211-1.532.753-3.313 1.125-5.344 1.125zm-.245-12.518c1.166 0 2.174-.27 3.027-.812.854-.543 1.517-1.307 1.992-2.296.474-.989.71-2.159.71-3.514 0-2.06-.508-3.685-1.523-4.876-1.017-1.192-2.406-1.79-4.165-1.79-1.79 0-3.198.596-4.228 1.79-1.029 1.193-1.544 2.818-1.544 4.876 0 1.355.236 2.527.71 3.514.475.989 1.145 1.755 2.013 2.296.868.542 1.87.812 3.008.812z"/><path fill="#EA560D" d="M158.794 264.712h-18.217v32.739h18.217v-32.739z"/><path fill="#E30613" d="M141.735 281.082c0-6.641 3.11-12.556 7.952-16.368a20.724 20.724 0 00-12.867-4.451c-11.498 0-20.819 9.323-20.819 20.821 0 11.499 9.321 20.821 20.819 20.821 4.857 0 9.325-1.663 12.867-4.45-4.842-3.817-7.952-9.731-7.952-16.373z"/><path fill="#F59E00" d="M183.372 281.082c0 11.499-9.32 20.821-20.818 20.821a20.735 20.735 0 01-12.867-4.45c4.842-3.812 7.952-9.727 7.952-16.369 0-6.641-3.11-12.556-7.952-16.368a20.723 20.723 0 0112.867-4.45c11.498-.005 20.818 9.318 20.818 20.816z"/><path fill="#A4A167" d="M103.666 38.272a3.991 3.991 0 013.991-3.991h21.024a3.991 3.991 0 013.991 3.99v31.932a3.991 3.991 0 01-3.991 3.991h-21.024a3.991 3.991 0 01-3.991-3.99V38.271z"/><path fill="url(#paint0_linear_6292_174217)" d="M114.976 34.535a.87.87 0 00-.869.87V46.47c0 .48.389.87.869.87h6.402a.87.87 0 00.869-.87V35.405a.87.87 0 00-.869-.87h-6.402z"/><path fill="url(#paint1_linear_6292_174217)" d="M122.635 46.531V35.466c0-.696.606-.896.909-.909h4.821a4.03 4.03 0 014.031 4.03v5.968c0 1.581-1.318 1.976-1.976 1.976h-3.399c-.566.026-1.802.135-2.213.356-.514.276-.711.276-1.264.276-.443 0-.909 0-.909-.632z"/><path fill="url(#paint2_linear_6292_174217)" d="M113.664 35.466v11.065c0 .568-.466.633-.909.633-.553 0-.751 0-1.265-.277-.411-.221-1.646-.33-2.213-.356h-3.398c-.659 0-1.976-.395-1.976-1.976v-5.967a4.03 4.03 0 014.031-4.03h4.821c.303.012.909.212.909.908z"/><path fill="url(#paint3_linear_6292_174217)" d="M103.942 48.981c0-1.58 1.37-2.028 2.055-2.055h3.32c.869 0 2.137.26 2.371.435.474.356 1.317.343 1.818.316h9.369c.5.027 1.343.04 1.818-.316.233-.175 1.501-.435 2.371-.435h3.319c.685.027 2.055.475 2.055 2.055v10.394c0 1.58-1.37 2.028-2.055 2.055h-1.86c-.092 0-.277.055-.277.276 0 .168.106.225.197.237h1.977c.658 0 1.976.396 1.976 1.976v5.968a4.03 4.03 0 01-4.031 4.03h-4.821c-.303-.013-.909-.213-.909-.908V62.062c0-.57-.317-1.067-1.028-1.067-.711 0-8.101-.04-8.101-.04-.501-.026-1.344-.04-1.818.317-.234.175-1.502.434-2.371.434h-3.32c-.685-.026-2.055-.474-2.055-2.055v-10.67z"/><path fill="url(#paint4_linear_6292_174217)" d="M113.664 73.088V62.022c0-.538-.466-.632-.909-.632-.553 0-.751 0-1.265.277-.411.221-1.646.33-2.213.355h-3.398c-.659 0-1.976.396-1.976 1.976v5.968a4.03 4.03 0 004.031 4.03h4.821c.303-.013.909-.213.909-.908z"/><path fill="url(#paint5_linear_6292_174217)" d="M114.099 62.18c0-.48.389-.869.869-.869h6.402c.48 0 .869.39.869.87v10.907a.87.87 0 01-.869.869h-6.402a.87.87 0 01-.869-.87V62.18z"/><defs><linearGradient id="paint0_linear_6292_174217" x1="118.169" x2="118.169" y1="61.324" y2="73.957" gradientUnits="userSpaceOnUse"><stop stop-color="#EAD283"/><stop offset="1" stop-color="#F3E18D"/></linearGradient><linearGradient id="paint1_linear_6292_174217" x1="118.169" x2="118.169" y1="61.324" y2="73.957" gradientUnits="userSpaceOnUse"><stop stop-color="#EAD283"/><stop offset="1" stop-color="#F3E18D"/></linearGradient><linearGradient id="paint2_linear_6292_174217" x1="118.169" x2="118.169" y1="61.324" y2="73.957" gradientUnits="userSpaceOnUse"><stop stop-color="#EAD283"/><stop offset="1" stop-color="#F3E18D"/></linearGradient><linearGradient id="paint3_linear_6292_174217" x1="118.169" x2="118.169" y1="61.324" y2="73.957" gradientUnits="userSpaceOnUse"><stop stop-color="#EAD283"/><stop offset="1" stop-color="#F3E18D"/></linearGradient><linearGradient id="paint4_linear_6292_174217" x1="118.169" x2="118.169" y1="61.324" y2="73.957" gradientUnits="userSpaceOnUse"><stop stop-color="#EAD283"/><stop offset="1" stop-color="#F3E18D"/></linearGradient><linearGradient id="paint5_linear_6292_174217" x1="118.169" x2="118.169" y1="61.324" y2="73.957" gradientUnits="userSpaceOnUse"><stop stop-color="#EAD283"/><stop offset="1" stop-color="#F3E18D"/></linearGradient></defs></svg>