<svg xmlns="http://www.w3.org/2000/svg" xmlns:xlink="http://www.w3.org/1999/xlink" fill="none" viewBox="0 0 322 116"><g><g><g><path fill="#fff" d="M115.159 0H315.04A6.96 6.96 0 01322 6.96v101.236a6.959 6.959 0 01-6.96 6.959H115.159V0z"/><g fill="#2C1C49"><path d="M127.826 25.309V15.245h1.572v8.663h5.19v1.401h-6.762zM136.153 25.309v-7.248h1.53v7.248h-1.53zm.772-8.292a1.003 1.003 0 01-1.015-1.015 1.003 1.003 0 011.015-1.014c.277 0 .515.1.715.3.2.2.3.438.3.715 0 .276-.1.514-.3.714-.2.2-.438.3-.715.3zM142.441 25.538c-.858 0-1.568-.2-2.13-.6-.553-.41-.915-.963-1.086-1.659l1.415-.343c.124.438.338.781.643 1.03.315.247.706.37 1.173.37.467 0 .833-.094 1.1-.285.267-.2.401-.448.401-.743 0-.258-.096-.448-.286-.572-.181-.124-.525-.248-1.03-.372l-.257-.057a12.524 12.524 0 00-.272-.057c-.6-.134-1.086-.281-1.458-.443-.371-.162-.657-.382-.857-.658-.191-.276-.286-.634-.286-1.072 0-.448.119-.839.357-1.172a2.245 2.245 0 011.001-.787c.438-.19.938-.286 1.501-.286.781 0 1.41.177 1.887.53.476.352.81.843 1 1.472l-1.358.372c-.124-.372-.309-.658-.557-.858-.248-.21-.567-.315-.958-.315-.4 0-.729.086-.986.258-.248.171-.372.395-.372.671 0 .248.11.434.329.558.228.114.634.238 1.215.372.038 0 .071.004.1.014.029.01.062.019.1.029.648.133 1.163.28 1.544.443.381.162.672.386.872.672.21.276.315.648.315 1.115 0 .467-.124.881-.372 1.243-.248.353-.601.63-1.058.83-.458.2-1.001.3-1.63.3zM151.058 25.538c-.495 0-.953-.11-1.372-.329a3.054 3.054 0 01-1.044-.93v1.03h-1.515V14.945h1.515v4.16c.277-.4.624-.71 1.044-.93a2.82 2.82 0 011.372-.343c.658 0 1.239.167 1.744.5.515.325.91.782 1.187 1.373.286.582.429 1.244.429 1.987 0 .744-.143 1.406-.429 1.987a3.272 3.272 0 01-1.187 1.373c-.505.324-1.086.486-1.744.486zm-.329-1.315c.429 0 .801-.1 1.115-.3a2.01 2.01 0 00.744-.887c.171-.381.257-.83.257-1.344 0-.781-.19-1.4-.572-1.858-.381-.458-.896-.686-1.544-.686-.638 0-1.148.228-1.529.686-.372.457-.558 1.077-.558 1.858 0 .515.086.963.258 1.344.171.381.414.677.729.886.314.2.681.3 1.1.3zM159.32 25.538c-.715 0-1.349-.162-1.902-.486a3.432 3.432 0 01-1.3-1.358c-.315-.582-.472-1.249-.472-2.002 0-.743.152-1.405.457-1.987a3.412 3.412 0 011.301-1.372c.562-.334 1.206-.5 1.93-.5.705 0 1.334.166 1.887.5.553.324.982.781 1.287 1.372.314.582.471 1.244.471 1.987 0 .744-.157 1.41-.471 2.002a3.335 3.335 0 01-1.287 1.358c-.553.324-1.186.486-1.901.486zm0-1.301c.429 0 .8-.1 1.115-.3.314-.21.553-.506.715-.887.171-.38.257-.834.257-1.358 0-.524-.086-.977-.257-1.358-.162-.39-.401-.686-.715-.886-.315-.21-.686-.315-1.115-.315-.429 0-.801.105-1.115.315-.315.21-.558.505-.729.886-.172.381-.258.834-.258 1.358 0 .515.086.963.258 1.344.171.381.414.677.729.886.324.21.695.315 1.115.315zM164.675 25.309v-7.248h1.53v1.072c.238-.41.553-.729.944-.957.4-.23.862-.344 1.386-.344.81 0 1.444.262 1.902.787.457.524.686 1.248.686 2.173v4.517h-1.53V20.92c0-.581-.129-1.024-.386-1.33-.257-.304-.638-.457-1.144-.457-.362 0-.686.1-.972.3a1.95 1.95 0 00-.657.815c-.153.353-.229.763-.229 1.23v3.831h-1.53zM172.677 26.381c.363-.019.639-.114.83-.286.2-.171.314-.405.343-.7-.058.01-.12.014-.186.014a.953.953 0 01-.701-.286.997.997 0 01-.271-.715c0-.267.09-.49.271-.672a.98.98 0 01.701-.271c.333 0 .6.128.8.386.2.248.301.59.301 1.03 0 .666-.172 1.214-.515 1.643-.334.439-.858.662-1.573.672v-.815zM180.449 25.309v-5.99h-1.33v-1.258h1.33v-.93c0-.685.19-1.233.571-1.643.391-.42.973-.63 1.745-.63.257 0 .533.03.829.087v1.272a3.093 3.093 0 00-.558-.043c-.343 0-.6.086-.772.257-.171.172-.257.424-.257.758v.872h1.587v1.258h-1.587v5.99h-1.558zM184.918 25.309v-7.248h1.53v7.248h-1.53zm.772-8.292a1 1 0 01-1.015-1.015 1 1 0 011.015-1.014c.276 0 .515.1.715.3.2.2.3.438.3.715 0 .276-.1.514-.3.714-.2.2-.439.3-.715.3zM188.604 25.309v-7.248h1.53v1.072c.238-.41.552-.729.943-.957.4-.23.863-.344 1.387-.344.81 0 1.444.262 1.901.787.458.524.686 1.248.686 2.173v4.517h-1.529V20.92c0-.581-.129-1.024-.386-1.33-.258-.304-.639-.457-1.144-.457-.362 0-.686.1-.972.3-.277.191-.496.463-.658.815-.152.353-.228.763-.228 1.23v3.831h-1.53zM199.008 25.48c-.496 0-.93-.095-1.301-.285a2.088 2.088 0 01-.829-.8 2.176 2.176 0 01-.286-1.102c0-.705.271-1.258.814-1.658.544-.4 1.297-.6 2.259-.6h1.673v-.615c0-.381-.134-.691-.401-.93-.257-.247-.624-.371-1.1-.371-.439 0-.796.114-1.072.343-.267.22-.453.524-.558.915l-1.472-.243a2.97 2.97 0 01.6-1.258c.286-.343.639-.6 1.058-.772a3.717 3.717 0 011.458-.272c.61 0 1.139.11 1.587.33.448.218.791.523 1.029.914.248.381.372.83.372 1.344v4.889h-1.501v-1.244a2.617 2.617 0 01-.929 1.03c-.391.257-.858.386-1.401.386zm.428-1.2c.372 0 .701-.09.987-.272a2.014 2.014 0 00.915-1.687v-.314h-1.387c-.6 0-1.063.1-1.387.3a.96.96 0 00-.471.858c0 .343.124.614.371.815.248.2.572.3.972.3zM204.753 25.309V14.945h1.516v10.364h-1.516zM208.188 25.309V14.945h1.515v10.364h-1.515zM214.667 28.254c-.753 0-1.401-.167-1.944-.5a2.412 2.412 0 01-1.087-1.416l1.401-.414c.134.343.343.605.629.786.296.181.648.272 1.058.272.381 0 .705-.072.972-.215.267-.143.467-.362.601-.657.143-.286.214-.639.214-1.058v-1.087c-.238.41-.553.73-.943.958-.391.229-.844.343-1.359.343-.8 0-1.424-.262-1.872-.786-.448-.524-.672-1.249-.672-2.173V18.06h1.515v4.117c0 .582.124 1.025.372 1.33.257.295.634.443 1.129.443.362 0 .677-.095.944-.286.276-.19.491-.462.643-.815.162-.353.243-.762.243-1.23v-3.559h1.587v6.948c0 .667-.143 1.244-.429 1.73a2.702 2.702 0 01-1.201 1.129c-.514.257-1.115.386-1.801.386zM220.667 22.536v-7.291h1.544v7.29h-1.544zm.786 2.887c-.286 0-.529-.095-.729-.285-.2-.2-.3-.448-.3-.744 0-.267.1-.495.3-.686.2-.2.443-.3.729-.3.267 0 .496.1.686.3.2.19.301.42.301.686 0 .296-.101.543-.301.744a.934.934 0 01-.686.285z"/></g><g fill="#7A708C"><path d="M130.719 47.196c-.696 0-1.309-.122-1.84-.366a3.246 3.246 0 01-1.279-1.057c-.313-.46-.513-1-.6-1.618l1.057-.208c.061.478.209.891.444 1.24.234.347.539.613.913.795.374.183.805.274 1.292.274.713 0 1.292-.156 1.735-.47.453-.313.679-.748.679-1.304 0-.348-.092-.631-.274-.849-.183-.217-.466-.395-.848-.535-.383-.139-.927-.282-1.631-.43-.705-.14-1.275-.305-1.71-.496-.435-.2-.765-.461-.992-.783-.226-.33-.339-.744-.339-1.24 0-.522.139-.974.418-1.357.287-.382.678-.674 1.174-.874a4.401 4.401 0 011.696-.313c.609 0 1.144.113 1.605.34.462.217.836.521 1.123.913.295.382.504.835.626 1.357l-.992.221c-.156-.582-.435-1.043-.835-1.383-.4-.348-.909-.522-1.527-.522-.669 0-1.209.144-1.618.431-.408.287-.613.661-.613 1.122 0 .305.083.553.248.744.165.191.413.352.744.483.339.13.813.256 1.422.378.774.174 1.401.361 1.879.561.479.192.848.461 1.109.81.27.347.405.8.405 1.356 0 .557-.148 1.044-.444 1.462-.287.417-.696.744-1.226.978-.522.227-1.123.34-1.801.34zM137.768 47.183c-.487 0-.9-.092-1.24-.274a1.909 1.909 0 01-.743-.744 2.064 2.064 0 01-.248-1.005c0-.626.243-1.118.73-1.474.496-.357 1.188-.535 2.075-.535h1.67v-.653c0-.409-.147-.748-.443-1.018-.296-.27-.7-.404-1.214-.404-.469 0-.848.117-1.135.352-.287.235-.491.561-.613.979l-.94-.183a2.6 2.6 0 01.535-1.096c.253-.304.566-.53.94-.678a3.377 3.377 0 011.252-.222c.522 0 .975.095 1.357.287.392.182.692.448.901.796.209.34.313.735.313 1.187V47h-.953v-1.214a2.613 2.613 0 01-.9 1.018c-.374.253-.822.379-1.344.379zm.222-.822c.409 0 .765-.1 1.07-.3.304-.2.535-.466.691-.797a2.35 2.35 0 00.248-1.07v-.326h-1.526c-.635 0-1.122.11-1.462.327-.33.217-.496.526-.496.926 0 .383.135.687.405.913.278.218.635.327 1.07.327zM144.739 47l-2.635-6.563h1.017l2.114 5.376 2.101-5.377h1.018L145.731 47h-.992zM149.666 47v-6.563h.979V47h-.979zm.496-7.66c-.2 0-.37-.07-.509-.208a.693.693 0 01-.209-.51c0-.2.07-.369.209-.508a.693.693 0 01.509-.209c.2 0 .369.07.509.209.139.14.208.309.208.509s-.069.37-.208.509a.694.694 0 01-.509.209zM152.789 47v-6.563h.965v1.083c.235-.4.544-.714.927-.94.382-.235.83-.352 1.344-.352.73 0 1.3.235 1.709.704.409.461.613 1.1.613 1.918V47h-.978v-4.006c0-.635-.135-1.113-.405-1.435-.261-.322-.657-.483-1.187-.483a1.8 1.8 0 00-1.044.313 2.093 2.093 0 00-.718.887c-.174.374-.261.814-.261 1.318V47h-.965zM163.228 49.688c-.731 0-1.358-.157-1.879-.47a2.397 2.397 0 01-1.057-1.33l.913-.275c.157.4.409.705.757.914.348.217.774.326 1.279.326.426 0 .796-.078 1.109-.235.313-.148.552-.374.717-.678.174-.305.261-.679.261-1.123v-1.213c-.261.4-.596.713-1.004.94a2.846 2.846 0 01-1.357.326 2.97 2.97 0 01-1.566-.418 2.889 2.889 0 01-1.083-1.174c-.253-.505-.379-1.08-.379-1.723 0-.644.126-1.218.379-1.722a2.913 2.913 0 011.07-1.175c.461-.287.987-.43 1.579-.43.495 0 .948.113 1.357.339.408.226.743.535 1.004.926v-1.056h.966v6.367c0 .592-.126 1.105-.378 1.54a2.464 2.464 0 01-1.07.992c-.461.235-1.001.352-1.618.352zm-.092-3.628c.435 0 .818-.1 1.148-.3.331-.208.588-.5.77-.874.183-.383.274-.826.274-1.33 0-.766-.195-1.375-.587-1.828-.391-.452-.926-.678-1.605-.678-.67 0-1.205.226-1.605.678-.4.453-.6 1.062-.6 1.827 0 .505.091.948.274 1.331.183.374.439.666.77.874.339.2.726.3 1.161.3zM174.936 47.196c-.695 0-1.309-.122-1.839-.366a3.246 3.246 0 01-1.279-1.057c-.313-.46-.513-1-.6-1.618l1.057-.208c.06.478.208.891.443 1.24.235.347.54.613.914.795.374.183.804.274 1.291.274.714 0 1.292-.156 1.736-.47.452-.313.678-.748.678-1.304 0-.348-.091-.631-.274-.849-.182-.217-.465-.395-.848-.535-.383-.139-.926-.282-1.631-.43-.704-.14-1.274-.305-1.709-.496-.435-.2-.766-.461-.992-.783-.226-.33-.339-.744-.339-1.24 0-.522.139-.974.417-1.357.287-.382.679-.674 1.175-.874a4.398 4.398 0 011.696-.313c.609 0 1.144.113 1.605.34.461.217.835.521 1.122.913.296.382.505.835.627 1.357l-.992.221c-.157-.582-.435-1.043-.835-1.383-.4-.348-.909-.522-1.527-.522-.67 0-1.209.144-1.618.431-.409.287-.613.661-.613 1.122 0 .305.082.553.248.744.165.191.413.352.743.483.34.13.814.256 1.423.378.774.174 1.4.361 1.879.561.478.192.848.461 1.109.81.27.347.404.8.404 1.356 0 .557-.147 1.044-.443 1.462-.287.417-.696.744-1.227.978-.522.227-1.122.34-1.801.34zM180.351 49.48v-9.043h.966v1.135a2.845 2.845 0 011.005-.979 2.622 2.622 0 011.37-.365c.6 0 1.131.148 1.592.443.461.296.817.71 1.07 1.24.261.53.391 1.135.391 1.814 0 .67-.13 1.27-.391 1.8-.253.531-.614.944-1.083 1.24a2.862 2.862 0 01-1.579.444c-.505 0-.962-.118-1.37-.353a2.96 2.96 0 01-1.005-.991v3.614h-.966zm3.171-3.132c.444 0 .831-.105 1.161-.314.34-.217.601-.521.783-.913.183-.4.274-.866.274-1.396 0-.81-.2-1.449-.6-1.918-.4-.479-.939-.718-1.618-.718-.67 0-1.205.24-1.605.718-.4.47-.6 1.109-.6 1.918 0 .53.091.996.274 1.396.183.392.439.696.77.913.339.21.726.314 1.161.314zM190.243 47.183c-.487 0-.9-.092-1.24-.274a1.909 1.909 0 01-.743-.744 2.064 2.064 0 01-.248-1.005c0-.626.243-1.118.73-1.474.496-.357 1.188-.535 2.075-.535h1.67v-.653c0-.409-.147-.748-.443-1.018-.296-.27-.701-.404-1.214-.404-.47 0-.848.117-1.135.352-.287.235-.492.561-.613.979l-.94-.183a2.6 2.6 0 01.535-1.096c.252-.304.566-.53.94-.678a3.377 3.377 0 011.252-.222c.522 0 .975.095 1.357.287.392.182.692.448.901.796.209.34.313.735.313 1.187V47h-.953v-1.214a2.613 2.613 0 01-.9 1.018c-.374.253-.822.379-1.344.379zm.222-.822c.409 0 .765-.1 1.07-.3.304-.2.535-.466.691-.797a2.35 2.35 0 00.248-1.07v-.326h-1.526c-.635 0-1.123.11-1.462.327-.33.217-.496.526-.496.926 0 .383.135.687.405.913.278.218.635.327 1.07.327zM198.282 47.209c-.644 0-1.213-.148-1.709-.444a3.117 3.117 0 01-1.135-1.24c-.27-.53-.405-1.135-.405-1.813 0-.67.131-1.266.391-1.788.27-.53.649-.944 1.136-1.24.496-.304 1.065-.456 1.709-.456.487 0 .927.091 1.318.274.391.182.718.44.979.77s.443.717.548 1.161l-.914.196c-.122-.461-.348-.831-.678-1.11-.322-.286-.74-.43-1.253-.43-.461 0-.861.117-1.2.352-.331.226-.588.54-.77.94a3.244 3.244 0 00-.261 1.33c0 .497.087.945.261 1.345.182.4.439.713.77.94.339.225.739.338 1.2.338.505 0 .922-.139 1.253-.417.339-.278.57-.64.691-1.083l.914.17a3.056 3.056 0 01-.548 1.16c-.253.331-.574.588-.966.77a3.11 3.11 0 01-1.331.275zM205.494 47.209c-.652 0-1.222-.148-1.709-.444a3.097 3.097 0 01-1.135-1.252c-.261-.531-.392-1.136-.392-1.814 0-.661.131-1.253.392-1.775.261-.53.635-.944 1.122-1.24.487-.304 1.052-.456 1.696-.456.609 0 1.135.143 1.579.43.444.279.783.675 1.018 1.188.235.504.352 1.087.352 1.748 0 .113-.004.213-.013.3h-5.167c.026.81.239 1.427.639 1.853.4.418.94.627 1.618.627.505 0 .909-.118 1.214-.353.313-.243.583-.583.809-1.017l.796.3c-.244.6-.609 1.07-1.096 1.409-.479.33-1.053.496-1.723.496zm1.945-4.071c-.018-.653-.209-1.162-.575-1.527-.356-.365-.822-.548-1.396-.548-.626 0-1.131.187-1.513.561-.383.365-.614.87-.692 1.514h4.176z"/></g><g><g><text fill="#000" xml:space="preserve" style="white-space:pre" font-family="Universal Sans" font-size="17.517" font-weight="850" letter-spacing="0"><tspan x="126.468" y="89.49">£940.00</tspan></text><g fill="#7A708C"><text xml:space="preserve" style="white-space:pre" font-family="Universal Sans" font-size="13.046" font-weight="450" letter-spacing="0"><tspan x="276" y="89.39">100</tspan></text><path d="M299.683 89l5.414-9.185h.874L300.557 89h-.874zm5.427.091c-.339 0-.656-.082-.952-.247a1.811 1.811 0 01-.678-.679 1.913 1.913 0 01-.248-.952c0-.34.082-.648.248-.927.165-.287.391-.513.678-.678.296-.165.613-.248.952-.248a1.85 1.85 0 011.618.926c.165.279.248.587.248.927 0 .339-.083.656-.248.952a1.85 1.85 0 01-1.618.926zm0-.77c.296 0 .548-.104.757-.313.217-.217.326-.482.326-.795 0-.305-.109-.561-.326-.77a1.011 1.011 0 00-.757-.326c-.295 0-.552.108-.769.326a1.046 1.046 0 00-.314.77c0 .313.105.578.314.796.217.208.474.313.769.313zm-4.514-4.814a1.92 1.92 0 01-.952-.248 1.82 1.82 0 01-.679-.678 1.923 1.923 0 01-.247-.952c0-.34.082-.648.247-.927.166-.287.392-.513.679-.678.296-.165.613-.248.952-.248a1.853 1.853 0 011.866 1.853c0 .339-.083.656-.248.952a1.852 1.852 0 01-1.618.926zm0-.77c.296 0 .548-.104.757-.312.217-.218.326-.483.326-.796 0-.305-.109-.561-.326-.77a1.011 1.011 0 00-.757-.326c-.295 0-.552.108-.77.326a1.049 1.049 0 00-.313.77c0 .313.105.578.313.796.218.208.475.313.77.313z"/></g></g><g stroke-linecap="round" stroke-width="3.503"><path stroke="#F0F0F0" d="M126.468 102.971h184.223"/><path stroke="#68EAD0" d="M126 103h184" pathLength="1" stroke-dashoffset="0px" stroke-dasharray="1px 1px"/></g></g></g><g><mask id="mask0_6764_175967" style="mask-type:alpha" width="116" height="116" x="0" y="0" maskUnits="userSpaceOnUse"><path fill="red" d="M0 6.96A6.96 6.96 0 016.96 0h108.199v115.155H6.959A6.959 6.959 0 010 108.196V6.959z"/></mask><g mask="url(#mask0_6764_175967)"><path fill="url(#travelPattern)" d="M0 7.058A6.96 6.96 0 016.96.098h108.199v115.159H6.959A6.959 6.959 0 010 108.298V7.058z"/></g></g></g></g><defs><pattern id="travelPattern" width="1" height="1" patternContentUnits="objectBoundingBox"><use href="#travel" transform="matrix(.00327 0 0 .00327 -.042 0)" xlink:href="#travel"/><image href="/images/homepage/lisbon.jpg" xlink:href="/images/homepage/lisbon.jpg" id="travel" width="332" height="306" data-name="Rectangle 12.png"/></pattern></defs></svg>