<svg class="_1clhcdy0" xmlns="http://www.w3.org/2000/svg" fill="none" viewBox="-30 -81 387 298"><rect width="316.501" height="197.198" fill="#fff" rx="9.99"/><path fill="#191919" d="M29.644 54.2v-2.67l5.703-4.644c.467-.382.834-.707 1.103-.975.283-.283.516-.594.7-.933.183-.353.275-.742.275-1.166 0-.65-.219-1.173-.657-1.569-.424-.396-.996-.593-1.717-.593-.75 0-1.343.219-1.781.657-.424.438-.721 1.003-.89 1.696l-2.926-.679c.155-.777.459-1.49.911-2.14.453-.665 1.067-1.202 1.845-1.612.777-.424 1.717-.636 2.82-.636 1.088 0 2.042.205 2.861.615.834.395 1.477.96 1.93 1.696.452.72.678 1.547.678 2.48 0 .82-.155 1.555-.466 2.205a6.373 6.373 0 01-1.145 1.654c-.438.452-1.018.968-1.738 1.547l-2.884 2.396h6.254V54.2H29.644zM42.648 55.706c.621 0 1.095-.12 1.42-.36.34-.241.544-.587.615-1.04-.07.015-.163.022-.276.022a1.7 1.7 0 01-1.25-.51 1.813 1.813 0 01-.488-1.271c0-.48.162-.884.487-1.209a1.7 1.7 0 011.251-.508c.58 0 1.046.218 1.4.657.353.438.53 1.024.53 1.76 0 1.13-.29 2.063-.87 2.798-.58.749-1.52 1.123-2.82 1.123v-1.462zM53.446 54.54c-1.004 0-1.887-.17-2.65-.51-.75-.353-1.364-.812-1.845-1.377a5.327 5.327 0 01-.996-1.95l2.989-.785c.198.608.516 1.074.954 1.4.438.31.975.465 1.611.465.778 0 1.4-.226 1.866-.678.48-.452.72-1.074.72-1.866 0-.749-.232-1.335-.699-1.76-.466-.437-1.088-.657-1.865-.657-.58 0-1.075.12-1.485.36-.41.241-.727.51-.954.807l-2.777-.51 1.06-8.204h9.159v2.671h-6.509l-.424 3.18c.368-.24.778-.424 1.23-.55.452-.128.96-.192 1.526-.192.976 0 1.824.205 2.544.615.735.41 1.294.982 1.675 1.718.396.735.594 1.583.594 2.544 0 1.017-.233 1.929-.7 2.734-.466.806-1.13 1.435-1.993 1.887-.862.439-1.872.658-3.031.658zM67.543 54.54c-1.187 0-2.24-.191-3.159-.573-.918-.396-1.632-.94-2.141-1.632-.509-.707-.763-1.52-.763-2.438 0-.862.233-1.605.7-2.227.466-.621 1.116-1.109 1.95-1.462-.636-.311-1.13-.728-1.484-1.251-.354-.537-.53-1.16-.53-1.866 0-.806.226-1.52.678-2.141.467-.636 1.11-1.13 1.93-1.484.833-.354 1.76-.53 2.777-.53 1.017 0 1.936.176 2.756.53.82.353 1.463.848 1.93 1.484.48.622.72 1.335.72 2.141 0 .707-.184 1.322-.551 1.845-.353.523-.848.94-1.484 1.25.834.368 1.484.863 1.95 1.484.467.622.7 1.364.7 2.227 0 .904-.255 1.71-.763 2.416-.51.707-1.223 1.258-2.142 1.654-.904.382-1.929.573-3.074.573zm0-2.587c.82 0 1.477-.205 1.972-.615.495-.424.742-.982.742-1.675a2.09 2.09 0 00-.34-1.187 2.19 2.19 0 00-.953-.784c-.41-.198-.884-.297-1.42-.297-.552 0-1.04.099-1.464.297a2.316 2.316 0 00-.996.784 2.09 2.09 0 00-.34 1.187c0 .693.248 1.251.743 1.675.509.41 1.194.615 2.056.615zm-.021-6.657c.707 0 1.272-.177 1.696-.53.438-.353.657-.82.657-1.4 0-.607-.219-1.102-.657-1.483-.438-.382-1.003-.573-1.696-.573-.693 0-1.258.191-1.696.573-.438.367-.657.862-.657 1.484 0 .58.212 1.046.636 1.399.438.353 1.01.53 1.717.53zM77.1 54.2l5.321-12.254h-7.653v-2.671h10.77v2.671L80.195 54.2H77.1zM86.293 54.37c-.523 0-.968-.177-1.335-.53a1.857 1.857 0 01-.53-1.336c0-.48.176-.897.53-1.25.367-.354.812-.53 1.335-.53.495 0 .92.176 1.272.53.354.353.53.77.53 1.25 0 .523-.176.968-.53 1.336-.353.353-.777.53-1.272.53zM95.515 54.54c-1.286 0-2.396-.311-3.329-.933-.933-.636-1.646-1.54-2.14-2.714-.482-1.173-.722-2.558-.722-4.155 0-1.597.24-2.983.721-4.156.495-1.173 1.209-2.07 2.141-2.692.933-.636 2.036-.954 3.308-.954 1.272 0 2.367.318 3.286.954.918.622 1.618 1.52 2.099 2.692.494 1.173.742 2.559.742 4.156 0 1.597-.248 2.982-.742 4.155-.481 1.173-1.18 2.078-2.1 2.714-.918.622-2.006.933-3.264.933zm0-2.735c.947 0 1.682-.446 2.205-1.336.537-.904.805-2.148.805-3.731 0-1.583-.268-2.82-.805-3.71-.537-.905-1.28-1.357-2.226-1.357-.961 0-1.718.452-2.269 1.357-.551.89-.827 2.127-.827 3.71 0 1.583.276 2.827.827 3.731.551.89 1.315 1.336 2.29 1.336zM110.158 54.54c-1.287 0-2.396-.311-3.329-.933-.933-.636-1.647-1.54-2.141-2.714-.481-1.173-.721-2.558-.721-4.155 0-1.597.24-2.983.721-4.156.494-1.173 1.208-2.07 2.141-2.692.933-.636 2.035-.954 3.307-.954 1.272 0 2.368.318 3.286.954.919.622 1.619 1.52 2.099 2.692.495 1.173.742 2.559.742 4.156 0 1.597-.247 2.982-.742 4.155-.48 1.173-1.18 2.078-2.099 2.714-.918.622-2.007.933-3.264.933zm0-2.735c.947 0 1.681-.446 2.204-1.336.538-.904.806-2.148.806-3.731 0-1.583-.268-2.82-.806-3.71-.537-.905-1.279-1.357-2.226-1.357-.961 0-1.717.452-2.268 1.357-.551.89-.827 2.127-.827 3.71 0 1.583.276 2.827.827 3.731.551.89 1.314 1.336 2.29 1.336z"/><path fill="#1E1937" d="M274.482 78.221c-.283 0-.512-.021-.689-.064a3.319 3.319 0 01-.562-.17 6.175 6.175 0 00-.445-.126 1.446 1.446 0 00-.424-.053 3.18 3.18 0 00-1.315.275l-.095.053-.329-.657c.453-.254.788-.52 1.007-.795.227-.276.34-.565.34-.87 0-.197-.032-.374-.096-.53a2.727 2.727 0 00-.244-.508h-1.272v-.647h.901a3.398 3.398 0 01-.265-.646 2.684 2.684 0 01-.095-.742c0-.46.102-.862.307-1.209.212-.346.513-.611.901-.795.396-.19.852-.286 1.368-.286.488 0 .908.099 1.261.297.354.19.629.448.827.774.198.325.325.685.382 1.08l-.795.15a2.144 2.144 0 00-.509-1.093c-.269-.303-.661-.455-1.177-.455-.544 0-.971.14-1.282.424-.311.275-.467.657-.467 1.144 0 .248.039.474.117.679.078.205.187.43.328.678h2.301v.647h-1.993c.035.07.067.145.095.223.036.077.067.155.096.233.056.183.084.37.084.561 0 .474-.166.912-.498 1.315.064-.007.166-.01.308-.01.219 0 .403.017.551.052.155.036.314.085.477.149.148.056.286.099.413.127.128.028.272.042.435.042.212 0 .392-.046.541-.137.148-.1.258-.262.328-.488l.721.233c-.085.382-.269.668-.551.859a1.69 1.69 0 01-.986.286zM278.669 78.083v-6.466l-1.654 1.092v-.88l1.792-1.208h.678v7.462h-.816zM281.047 78.92a.73.73 0 00.509-.243.778.778 0 00.201-.53.72.72 0 01-.138.01.568.568 0 01-.402-.159.596.596 0 01-.159-.424c0-.155.053-.286.159-.392a.568.568 0 01.402-.159c.198 0 .357.078.477.233.121.156.181.379.181.668 0 .417-.103.763-.308 1.04-.205.275-.512.42-.922.434v-.477zM283.25 78.083v-.731l2.99-2.597c.282-.248.509-.463.678-.647.177-.184.325-.392.445-.625.121-.234.181-.488.181-.764 0-.459-.156-.826-.467-1.102-.304-.283-.71-.424-1.219-.424-.53 0-.94.148-1.229.445-.29.297-.477.65-.562 1.06l-.806-.18c.071-.346.209-.675.414-.986a2.28 2.28 0 01.858-.774c.368-.205.809-.307 1.325-.307.495 0 .929.095 1.304.286.382.19.675.46.88.806.212.339.318.728.318 1.166 0 .381-.081.735-.244 1.06a3.364 3.364 0 01-.572.837c-.226.234-.513.499-.859.795l-2.247 1.95h3.975v.732h-5.163zM292.558 78.253c-.643 0-1.183-.17-1.622-.509-.438-.34-.766-.802-.985-1.389-.212-.593-.318-1.272-.318-2.035 0-.742.109-1.403.328-1.982.219-.587.544-1.046.975-1.378.439-.34.979-.51 1.622-.51.629 0 1.159.17 1.59.51.438.332.764.791.976 1.378.219.586.328 1.247.328 1.982 0 .763-.106 1.442-.318 2.035-.205.587-.526 1.05-.965 1.389-.431.34-.968.509-1.611.509zm0-.763c.665 0 1.177-.272 1.537-.817.361-.55.541-1.335.541-2.353 0-.982-.184-1.745-.551-2.29-.368-.55-.877-.826-1.527-.826-.657 0-1.173.275-1.547.826-.368.544-.552 1.308-.552 2.29 0 1.01.184 1.792.552 2.343.367.551.883.827 1.547.827zM299.701 78.253c-.643 0-1.184-.17-1.622-.509-.438-.34-.767-.802-.986-1.389-.212-.593-.318-1.272-.318-2.035 0-.742.11-1.403.329-1.982.219-.587.544-1.046.975-1.378.438-.34.979-.51 1.622-.51.629 0 1.159.17 1.59.51.438.332.763.791.975 1.378.219.586.329 1.247.329 1.982 0 .763-.106 1.442-.318 2.035-.205.587-.526 1.05-.965 1.389-.431.34-.968.509-1.611.509zm0-.763c.664 0 1.177-.272 1.537-.817.361-.55.541-1.335.541-2.353 0-.982-.184-1.745-.551-2.29-.368-.55-.877-.826-1.527-.826-.657 0-1.173.275-1.548.826-.367.544-.551 1.308-.551 2.29 0 1.01.184 1.792.551 2.343.368.551.884.827 1.548.827zM274.482 123.935c-.283 0-.512-.021-.689-.063a3.277 3.277 0 01-.562-.17 6.264 6.264 0 00-.445-.127 1.456 1.456 0 00-.424-.053c-.247 0-.481.025-.7.074a3.72 3.72 0 00-.615.202l-.095.053-.329-.658c.453-.254.788-.519 1.007-.795.227-.275.34-.565.34-.869 0-.198-.032-.374-.096-.53a2.752 2.752 0 00-.244-.509h-1.272v-.646h.901a3.403 3.403 0 01-.265-.647 2.682 2.682 0 01-.095-.742c0-.459.102-.862.307-1.208.212-.347.513-.612.901-.795.396-.191.852-.287 1.368-.287.488 0 .908.099 1.261.297.354.191.629.449.827.774.198.325.325.686.382 1.081l-.795.149a2.145 2.145 0 00-.509-1.092c-.269-.304-.661-.456-1.177-.456-.544 0-.971.141-1.282.424-.311.276-.467.657-.467 1.145 0 .247.039.473.117.678.078.205.187.431.328.679h2.301v.646h-1.993c.035.071.067.145.095.223.036.078.067.155.096.233.056.184.084.371.084.562 0 .473-.166.912-.498 1.314.064-.007.166-.01.308-.01.219 0 .403.018.551.053.155.035.314.085.477.148.148.057.286.099.413.127.128.029.272.043.435.043.212 0 .392-.046.541-.138.148-.099.258-.261.328-.488l.721.234c-.085.381-.269.667-.551.858a1.688 1.688 0 01-.986.286zM280.155 123.967c-.566 0-1.06-.13-1.484-.392-.417-.268-.746-.682-.986-1.24-.233-.558-.35-1.262-.35-2.11 0-.841.113-1.565.339-2.173.234-.615.573-1.081 1.018-1.399.445-.325.975-.488 1.59-.488.636 0 1.148.177 1.537.53.396.354.686.813.869 1.378l-.826.17c-.135-.403-.329-.724-.584-.965-.254-.24-.597-.36-1.028-.36-.615 0-1.106.258-1.473.774-.361.516-.559 1.29-.594 2.321.212-.36.505-.643.88-.848a2.597 2.597 0 011.283-.318c.473 0 .901.11 1.282.329.389.212.689.512.901.901.212.382.318.813.318 1.293 0 .488-.116.929-.349 1.325a2.484 2.484 0 01-.976.933c-.41.226-.865.339-1.367.339zm.01-.731c.361 0 .679-.081.954-.244.283-.162.502-.385.658-.668.155-.282.233-.597.233-.943 0-.354-.074-.668-.223-.944a1.647 1.647 0 00-.636-.667 1.835 1.835 0 00-.954-.244c-.36 0-.682.081-.964.244a1.708 1.708 0 00-.658.667c-.155.276-.233.59-.233.944 0 .332.074.639.223.922.148.283.36.509.636.678.275.17.597.255.964.255zM287.03 123.967c-.643 0-1.183-.169-1.622-.509-.438-.339-.766-.802-.985-1.388-.212-.594-.318-1.272-.318-2.035 0-.743.109-1.403.328-1.983.219-.586.544-1.046.975-1.378.439-.339.979-.509 1.622-.509.629 0 1.159.17 1.59.509.438.332.764.792.976 1.378.219.587.328 1.248.328 1.983 0 .763-.106 1.441-.318 2.035-.205.586-.526 1.049-.964 1.388-.432.34-.969.509-1.612.509zm0-.763c.665 0 1.177-.272 1.537-.816.361-.551.541-1.336.541-2.353 0-.983-.184-1.746-.551-2.29-.368-.551-.877-.827-1.527-.827-.657 0-1.173.276-1.547.827-.368.544-.552 1.307-.552 2.29 0 1.01.184 1.791.552 2.342.367.551.883.827 1.547.827zM294.173 123.967c-.643 0-1.184-.169-1.622-.509-.438-.339-.766-.802-.986-1.388-.212-.594-.318-1.272-.318-2.035 0-.743.11-1.403.329-1.983.219-.586.544-1.046.975-1.378.438-.339.979-.509 1.622-.509.629 0 1.159.17 1.59.509.438.332.763.792.975 1.378.22.587.329 1.248.329 1.983 0 .763-.106 1.441-.318 2.035-.205.586-.526 1.049-.965 1.388-.431.34-.968.509-1.611.509zm0-.763c.664 0 1.177-.272 1.537-.816.361-.551.541-1.336.541-2.353 0-.983-.184-1.746-.551-2.29-.368-.551-.877-.827-1.527-.827-.657 0-1.173.276-1.548.827-.367.544-.551 1.307-.551 2.29 0 1.01.184 1.791.551 2.342.368.551.884.827 1.548.827zM274.482 170.975c-.283 0-.512-.021-.689-.064a3.36 3.36 0 01-.562-.169 6.345 6.345 0 00-.445-.128 1.456 1.456 0 00-.424-.053c-.247 0-.481.025-.7.075a3.625 3.625 0 00-.615.201l-.095.053-.329-.657c.453-.255.788-.52 1.007-.795.227-.276.34-.566.34-.87 0-.197-.032-.374-.096-.53a2.716 2.716 0 00-.244-.508h-1.272v-.647h.901a3.403 3.403 0 01-.265-.647 2.682 2.682 0 01-.095-.742c0-.459.102-.862.307-1.208.212-.346.513-.611.901-.795.396-.191.852-.286 1.368-.286.488 0 .908.099 1.261.296.354.191.629.449.827.774.198.325.325.686.382 1.082l-.795.148a2.145 2.145 0 00-.509-1.092c-.269-.304-.661-.456-1.177-.456-.544 0-.971.142-1.282.424-.311.276-.467.658-.467 1.145 0 .247.039.474.117.679.078.205.187.431.328.678h2.301v.647h-1.993c.035.07.067.144.095.222.036.078.067.156.096.233.056.184.084.371.084.562 0 .474-.166.912-.498 1.315.064-.007.166-.011.308-.011.219 0 .403.018.551.053.155.035.314.085.477.149.148.056.286.098.413.127.128.028.272.042.435.042.212 0 .392-.046.541-.138.148-.099.258-.261.328-.487l.721.233c-.085.382-.269.668-.551.859-.276.19-.604.286-.986.286zM280.115 171.007c-.643 0-1.184-.17-1.622-.509-.438-.339-.766-.802-.986-1.389-.212-.594-.318-1.272-.318-2.035 0-.742.11-1.403.329-1.982.219-.587.544-1.046.975-1.379.438-.339.979-.508 1.622-.508.629 0 1.159.169 1.59.508.438.333.763.792.975 1.379.22.586.329 1.247.329 1.982 0 .763-.106 1.441-.318 2.035-.205.587-.526 1.05-.965 1.389-.431.339-.968.509-1.611.509zm0-.764c.664 0 1.177-.272 1.537-.816.361-.551.541-1.336.541-2.353 0-.983-.184-1.746-.551-2.29-.368-.551-.877-.827-1.527-.827-.657 0-1.173.276-1.547.827-.368.544-.552 1.307-.552 2.29 0 1.01.184 1.791.552 2.342.367.552.883.827 1.547.827z"/><path stroke="#F0F0F0" stroke-width="0.766" d="M255.753 121.494H13.251M255.753 73.91H13.251"/><path fill="#1E1937" d="M40.95 177.758v-6.466l-1.654 1.092v-.88l1.792-1.208h.678v7.462h-.816zM43.36 174.928v-.71h3.18v.71h-3.18zM50.032 177.928c-.474 0-.89-.081-1.251-.244a2.355 2.355 0 01-.859-.646 2.671 2.671 0 01-.477-.923l.721-.265c.134.41.353.739.657.986.304.241.7.361 1.187.361.559 0 1.011-.145 1.357-.435.347-.29.52-.671.52-1.145 0-.473-.173-.834-.52-1.081-.346-.247-.816-.371-1.41-.371h-.519v-.7h.498c.523 0 .926-.12 1.209-.36.29-.24.434-.555.434-.944 0-.402-.145-.72-.434-.954-.29-.233-.675-.349-1.156-.349-.438 0-.795.109-1.07.328-.276.219-.47.527-.583.922l-.742-.222c.162-.551.445-.982.848-1.293.41-.311.936-.467 1.579-.467.495 0 .919.089 1.272.265.36.177.636.421.827.732.19.304.286.639.286 1.007 0 .346-.092.664-.276.954a1.963 1.963 0 01-.773.678c.452.17.791.421 1.017.753.233.325.35.699.35 1.123 0 .41-.106.792-.318 1.145-.212.347-.523.626-.933.838-.41.205-.89.307-1.441.307z"/><path fill="#68D9CF" d="M81.351 130.135c0-1.692 1.317-3.063 2.94-3.063H96.79c1.624 0 2.94 1.371 2.94 3.063v37.047H81.352v-37.047z" style="transform-box: fill-box; transform: none; transform-origin: 90.5405px 100%;" transform-origin="90.54050064086914px 100%"/><path fill="#1E1937" d="M83.484 178.947v-1.897h-3.626v-.7l3.69-4.865h.741v4.823h1.188v.742h-1.188v1.897h-.805zm-2.746-2.639h2.746v-3.594l-2.746 3.594zM86.292 176.117v-.71h3.18v.71h-3.18zM91.957 178.947v-6.466l-1.654 1.092v-.88l1.791-1.208h.679v7.462h-.816zM97.42 179.117c-.644 0-1.184-.17-1.623-.509-.438-.339-.766-.802-.985-1.388-.212-.594-.318-1.272-.318-2.036 0-.742.11-1.402.328-1.982.22-.587.544-1.046.975-1.378.439-.339.98-.509 1.622-.509.63 0 1.16.17 1.59.509.439.332.764.791.976 1.378.219.587.328 1.247.328 1.982 0 .764-.106 1.442-.318 2.036-.205.586-.526 1.049-.964 1.388-.431.339-.969.509-1.612.509zm0-.763c.664 0 1.176-.272 1.537-.816.36-.552.54-1.336.54-2.354 0-.982-.184-1.745-.551-2.289-.368-.552-.876-.827-1.527-.827-.657 0-1.173.275-1.547.827-.368.544-.552 1.307-.552 2.289 0 1.011.184 1.792.552 2.343.367.551.883.827 1.547.827z"/><path fill="#68D9CF" d="M125.072 106.974a3.063 3.063 0 013.063-3.063h13.018a3.063 3.063 0 013.063 3.063v60.208h-19.144v-60.208z" style="transform-box: fill-box; transform: none; transform-origin: 134.644px 100%;" transform-origin="134.64400100708008px 100%"/><path fill="#1E1937" d="M125.595 178.947v-6.466l-1.654 1.092v-.88l1.791-1.208h.679v7.462h-.816zM129.425 178.947v-6.466l-1.654 1.092v-.88l1.792-1.208h.678v7.462h-.816zM131.835 176.117v-.71h3.18v.71h-3.18zM137.499 178.947v-6.466l-1.653 1.092v-.88l1.791-1.208h.679v7.462h-.817zM141.096 178.947l2.958-6.731h-4.452v-.731h5.3v.731l-2.958 6.731h-.848z"/><path fill="#68D9CF" d="M172.176 131.458a3.063 3.063 0 013.063-3.063h13.018a3.063 3.063 0 013.063 3.063v35.724h-19.144v-35.724z" style="transform-box: fill-box; transform: none; transform-origin: 181.748px 100%;" transform-origin="181.7480010986328px 100%"/><path fill="#1E1937" d="M169.698 178.947v-6.466l-1.654 1.092v-.88l1.792-1.208h.678v7.462h-.816zM174.991 179.117c-.558 0-1.056-.092-1.494-.276-.439-.19-.778-.455-1.018-.795a2.034 2.034 0 01-.361-1.187c0-.459.138-.859.414-1.198.275-.346.65-.604 1.124-.774a1.882 1.882 0 01-.838-.625 1.619 1.619 0 01-.307-.975c0-.382.106-.721.318-1.018.212-.297.505-.53.88-.7a3.131 3.131 0 011.282-.254c.474 0 .898.085 1.272.254.382.17.679.403.891.7.212.297.318.636.318 1.018a1.6 1.6 0 01-.308.964 2.02 2.02 0 01-.848.647c.467.163.834.417 1.103.763.275.347.413.746.413 1.198 0 .445-.12.841-.36 1.187-.241.34-.576.605-1.007.795-.431.184-.923.276-1.474.276zm0-.742c.601 0 1.081-.141 1.442-.424.36-.29.54-.668.54-1.134 0-.304-.084-.573-.254-.806a1.596 1.596 0 00-.7-.562 2.471 2.471 0 00-1.028-.201c-.396 0-.745.067-1.049.201a1.667 1.667 0 00-.71.562 1.371 1.371 0 00-.244.806c0 .473.18.851.54 1.134.361.283.848.424 1.463.424zm0-3.795c.495 0 .894-.113 1.198-.339.304-.233.456-.537.456-.912 0-.389-.156-.703-.467-.943-.303-.241-.699-.361-1.187-.361-.495 0-.894.12-1.198.361a1.125 1.125 0 00-.455.943c0 .375.148.679.445.912.304.226.706.339 1.208.339zM178.919 176.117v-.71h3.181v.71h-3.181zM183.068 178.947v-.731l2.99-2.597c.282-.248.509-.463.678-.647.177-.184.325-.392.445-.625.12-.233.181-.488.181-.763 0-.46-.156-.827-.467-1.103-.304-.283-.71-.424-1.219-.424-.53 0-.94.148-1.23.445-.289.297-.477.65-.561 1.06l-.806-.18c.071-.346.208-.675.413-.986.205-.318.492-.576.859-.774.368-.204.809-.307 1.325-.307.495 0 .929.095 1.304.286.382.191.675.46.88.806.212.339.318.728.318 1.166 0 .382-.082.735-.244 1.06a3.383 3.383 0 01-.572.837c-.227.234-.513.499-.859.795l-2.247 1.951h3.975v.731h-5.163zM192.716 178.947v-1.897h-3.626v-.7l3.689-4.865h.742v4.823h1.188v.742h-1.188v1.897h-.805zm-2.746-2.639h2.746v-3.594l-2.746 3.594z"/><path fill="#68D9CF" d="M221.779 143.982a3.064 3.064 0 013.063-3.063h13.019a3.064 3.064 0 013.063 3.063v23.2h-19.145v-23.2z" style="transform-box: fill-box; transform: none; transform-origin: 231.352px 100%;" transform-origin="231.35150909423828px 100%"/><path fill="#1E1937" d="M218.286 178.947v-.731l2.989-2.597c.283-.248.509-.463.679-.647.177-.184.325-.392.445-.625.12-.233.18-.488.18-.763 0-.46-.155-.827-.466-1.103-.304-.283-.71-.424-1.219-.424-.53 0-.94.148-1.23.445-.29.297-.477.65-.562 1.06l-.805-.18c.07-.346.208-.675.413-.986.205-.318.491-.576.859-.774.367-.204.809-.307 1.325-.307.495 0 .929.095 1.304.286.381.191.675.46.88.806.212.339.318.728.318 1.166 0 .382-.082.735-.244 1.06a3.386 3.386 0 01-.573.837c-.226.234-.512.499-.858.795l-2.248 1.951h3.976v.731h-5.163zM227.243 179.117c-.459 0-.869-.081-1.23-.244a2.417 2.417 0 01-.89-.668 2.583 2.583 0 01-.498-.943l.784-.212c.127.396.346.714.657.954.318.233.714.35 1.188.35.586 0 1.049-.163 1.388-.488.34-.332.509-.777.509-1.336 0-.537-.166-.964-.498-1.282-.325-.325-.763-.488-1.315-.488-.445 0-.805.085-1.081.255-.275.169-.498.36-.668.572l-.731-.127.456-3.975h4.304v.731h-3.594l-.286 2.438a2.729 2.729 0 011.759-.604c.495 0 .93.106 1.304.318.382.205.675.495.88.869.205.375.308.802.308 1.283 0 .516-.113.968-.34 1.357a2.288 2.288 0 01-.954.911c-.417.219-.901.329-1.452.329zM231.063 176.117v-.71h3.18v.71h-3.18zM237.734 179.117c-.473 0-.89-.081-1.25-.244a2.35 2.35 0 01-.859-.646 2.671 2.671 0 01-.477-.923l.721-.265c.134.41.353.739.657.986.304.24.7.361 1.187.361.559 0 1.011-.145 1.357-.435.346-.29.52-.671.52-1.145 0-.473-.174-.834-.52-1.081-.346-.248-.816-.371-1.41-.371h-.519v-.7h.498c.523 0 .926-.12 1.209-.36.289-.24.434-.555.434-.944 0-.402-.145-.72-.434-.954-.29-.233-.675-.35-1.156-.35-.438 0-.795.11-1.071.329-.275.219-.469.527-.583.922l-.742-.222c.163-.551.446-.983.848-1.294.41-.31.937-.466 1.58-.466.495 0 .919.088 1.272.265.36.177.636.421.827.732.191.303.286.639.286 1.007 0 .346-.092.664-.276.954a1.964 1.964 0 01-.773.678c.452.17.791.42 1.017.753.233.325.35.699.35 1.123 0 .41-.106.792-.318 1.145a2.3 2.3 0 01-.933.838c-.41.204-.89.307-1.442.307zM242.939 178.947v-6.466l-1.654 1.092v-.88l1.791-1.208h.679v7.462h-.816z"/><path fill="#68D9CF" d="M37.617 138.821a3.063 3.063 0 013.063-3.063H53.7a3.063 3.063 0 013.063 3.063v28.445H37.617v-28.445z" style="transform-box: fill-box; transform: none; transform-origin: 47.19px 100%;" transform-origin="47.19000053405762px 100%"/><path stroke="#F0F0F0" stroke-width="0.766" d="M255.753 167.775H13.251"/><path fill="#191919" d="M22.117 54.19c-.58 0-1.068-.034-1.463-.105-.382-.07-.806-.17-1.272-.297a6.389 6.389 0 00-.933-.233 4.252 4.252 0 00-.912-.085c-.494 0-.918.05-1.272.148a7.686 7.686 0 00-1.06.34l-.085.063-1.06-2.268c.862-.467 1.505-.94 1.93-1.42.438-.481.657-1.026.657-1.633 0-.17-.021-.325-.064-.467a4.649 4.649 0 00-.106-.424H14.04v-2.183h1.378a6.861 6.861 0 01-.34-1.04 4.897 4.897 0 01-.126-1.144c0-.933.226-1.753.678-2.46.452-.72 1.088-1.271 1.908-1.653.834-.396 1.795-.594 2.884-.594 1.045 0 1.936.191 2.67.573.736.367 1.308.87 1.718 1.505a5.85 5.85 0 01.87 2.141l-2.863.785c-.155-.679-.438-1.223-.848-1.633-.396-.424-.933-.636-1.611-.636-.72 0-1.286.198-1.696.594-.41.382-.615.904-.615 1.569 0 .339.042.664.127.975.1.297.24.636.424 1.018h3.838v2.183h-3.138a.47.47 0 01.021.149.698.698 0 01.021.17c.029.098.043.225.043.381 0 .933-.269 1.802-.806 2.608.099-.014.24-.021.424-.021.283 0 .544.02.785.063.24.028.466.07.678.127.198.043.403.085.615.127.212.043.43.064.657.064.382 0 .692-.078.933-.233.24-.156.403-.431.487-.827l2.693.742c-.155.933-.544 1.675-1.166 2.226-.608.537-1.463.806-2.565.806z"/><path fill="#6D6D6D" d="M16.272 21.095c-.566 0-1.064-.1-1.495-.297a2.638 2.638 0 01-1.039-.859 3.064 3.064 0 01-.487-1.314l.858-.17c.05.389.17.724.36 1.007.191.283.439.498.743.647.303.148.653.222 1.049.222.58 0 1.05-.127 1.41-.381.367-.255.551-.608.551-1.06 0-.283-.074-.513-.223-.69-.148-.176-.378-.32-.689-.434-.31-.113-.752-.23-1.325-.35-.572-.113-1.035-.247-1.388-.403-.354-.162-.622-.374-.806-.636-.184-.268-.276-.604-.276-1.007 0-.424.114-.791.34-1.102.233-.311.55-.548.954-.71.41-.17.869-.255 1.378-.255.494 0 .93.092 1.304.276.374.176.678.424.911.742.24.31.41.678.51 1.102l-.806.18c-.128-.473-.354-.848-.679-1.123-.325-.283-.738-.424-1.24-.424-.544 0-.983.117-1.315.35-.332.233-.498.537-.498.911 0 .248.067.45.201.604.135.156.336.287.605.393.275.106.66.208 1.155.307.63.142 1.138.294 1.527.456.388.155.689.374.9.657.22.283.33.65.33 1.103 0 .452-.12.848-.361 1.187-.233.34-.566.604-.997.795-.424.184-.911.276-1.462.276zM20.67 22.95v-7.346h.785v.922c.212-.34.484-.604.816-.795a2.134 2.134 0 011.113-.297c.488 0 .919.12 1.293.36.375.24.665.576.87 1.007.212.432.318.923.318 1.474 0 .544-.106 1.032-.318 1.463a2.352 2.352 0 01-.88 1.007c-.375.24-.802.36-1.283.36-.41 0-.78-.095-1.113-.286a2.404 2.404 0 01-.816-.806v2.937h-.785zm2.576-2.544c.36 0 .675-.085.944-.255.275-.177.487-.424.636-.742.148-.325.222-.703.222-1.134 0-.657-.162-1.177-.487-1.558-.325-.39-.763-.583-1.315-.583-.544 0-.978.194-1.303.583-.326.381-.488.9-.488 1.558 0 .43.074.809.223 1.134.148.318.356.565.625.742.275.17.59.255.943.255zM29.523 21.105c-.53 0-.993-.12-1.39-.36a2.52 2.52 0 01-.921-1.018c-.212-.431-.318-.922-.318-1.473 0-.537.106-1.018.318-1.442.212-.431.515-.767.911-1.007.396-.247.855-.371 1.378-.371.495 0 .923.117 1.283.35.36.226.636.547.827.964.19.41.286.884.286 1.42 0 .093-.003.174-.01.245h-4.198c.02.657.194 1.159.52 1.505.324.34.762.509 1.314.509.41 0 .738-.096.985-.287.255-.197.474-.473.658-.826l.646.244a2.5 2.5 0 01-.89 1.144c-.389.269-.855.403-1.4.403zm1.579-3.307c-.014-.53-.17-.944-.466-1.24-.29-.297-.668-.446-1.135-.446-.509 0-.918.152-1.23.456-.31.297-.498.707-.561 1.23h3.392zM33.3 20.936v-5.332h.784v.88c.191-.326.442-.58.753-.764.31-.19.675-.286 1.092-.286.593 0 1.056.19 1.388.572.333.375.499.894.499 1.559v3.37h-.795v-3.254c0-.516-.11-.904-.329-1.166-.212-.261-.534-.392-.965-.392-.318 0-.6.085-.848.254-.247.17-.441.41-.583.721-.141.304-.212.661-.212 1.07v2.768H33.3zM41.028 21.01c-.487 0-.84-.117-1.06-.35-.212-.24-.318-.569-.318-.986v-3.392h-.901v-.678h.901v-1.347h.785v1.347h1.187v.678h-1.188v3.35c0 .254.06.43.18.53.12.099.315.148.584.148.12 0 .261-.01.424-.032v.658c-.22.049-.417.074-.594.074zM47.053 21.01c-.488 0-.841-.117-1.06-.35-.212-.24-.318-.569-.318-.986v-3.392h-.901v-.678h.9v-1.347h.785v1.347h1.188v.678h-1.188v3.35c0 .254.06.43.18.53.12.099.315.148.584.148.12 0 .261-.01.424-.032v.658c-.22.049-.417.074-.594.074zM48.828 20.936V13.25h.784v3.233a2.045 2.045 0 011.834-1.05c.594 0 1.057.192 1.389.573.332.375.498.894.498 1.559v3.37h-.785v-3.254c0-.516-.109-.904-.328-1.166-.22-.261-.544-.392-.975-.392-.318 0-.601.085-.848.254-.248.17-.442.41-.583.721-.135.304-.202.661-.202 1.07v2.768h-.784zM54.987 20.936v-5.332h.795v5.332h-.795zm.402-6.223a.563.563 0 01-.413-.17.563.563 0 01-.17-.413c0-.163.057-.3.17-.413a.563.563 0 01.413-.17c.163 0 .3.057.414.17.113.113.17.25.17.413 0 .163-.057.3-.17.413a.563.563 0 01-.413.17zM59.357 21.105c-.6 0-1.106-.152-1.515-.456-.403-.303-.672-.717-.806-1.24l.752-.18c.107.374.297.671.573.89.276.22.611.329 1.007.329.424 0 .756-.092.996-.276.24-.183.36-.417.36-.7 0-.226-.077-.395-.232-.508-.149-.12-.42-.23-.817-.329a3.393 3.393 0 01-.222-.053 2.036 2.036 0 00-.223-.053c-.452-.085-.816-.187-1.092-.307a1.588 1.588 0 01-.636-.467c-.141-.197-.212-.452-.212-.763 0-.31.085-.586.255-.827.17-.24.406-.42.71-.54.31-.127.66-.191 1.05-.191.558 0 1.003.134 1.335.403.34.261.58.622.72 1.081l-.699.201c-.106-.325-.272-.576-.498-.752-.22-.184-.505-.276-.859-.276-.367 0-.664.081-.89.244-.22.162-.329.367-.329.615 0 .219.096.385.286.498.191.113.52.223.986.329l.096.02.084.022c.474.092.849.198 1.124.318.283.12.495.283.636.488.149.205.223.477.223.816 0 .318-.089.604-.265.858-.17.248-.417.446-.742.594-.325.142-.71.212-1.156.212zM65.557 20.936v-5.343h.784v.774a1.71 1.71 0 011.558-.933c.396 0 .725.092.986.275.269.184.46.446.572.785.156-.332.375-.59.658-.774.282-.19.618-.286 1.007-.286.53 0 .94.152 1.23.456.29.297.434.738.434 1.325v3.72h-.795v-3.54c0-.424-.088-.742-.265-.954-.177-.212-.445-.318-.806-.318-.268 0-.505.07-.71.212a1.4 1.4 0 00-.477.594c-.113.254-.17.569-.17.943v3.064h-.794v-3.541c0-.424-.089-.742-.266-.954-.176-.212-.445-.318-.805-.318-.262 0-.495.07-.7.212a1.4 1.4 0 00-.477.594c-.12.254-.18.565-.18.932v3.075h-.784zM76.707 21.105c-.509 0-.961-.12-1.357-.36a2.537 2.537 0 01-.933-.997c-.226-.43-.34-.922-.34-1.473s.11-1.042.33-1.474a2.52 2.52 0 01.932-1.007c.403-.24.862-.36 1.378-.36.51 0 .958.12 1.347.36.395.24.703.576.922 1.007.219.432.328.923.328 1.474 0 .551-.109 1.042-.328 1.473-.22.424-.527.756-.922.997-.389.24-.841.36-1.357.36zm0-.7c.367 0 .685-.084.954-.254.268-.17.473-.413.615-.731.148-.325.222-.707.222-1.145 0-.438-.074-.82-.222-1.145a1.606 1.606 0 00-.615-.742 1.696 1.696 0 00-.954-.265c-.368 0-.69.088-.965.265a1.738 1.738 0 00-.625.753c-.149.318-.223.696-.223 1.134 0 .43.074.809.223 1.134.148.318.357.565.625.742.276.17.597.255.965.255zM80.701 20.936v-5.332h.785v.88c.19-.326.442-.58.753-.764.31-.19.674-.286 1.091-.286.594 0 1.057.19 1.39.572.331.375.497.894.497 1.559v3.37h-.795v-3.254c0-.516-.11-.904-.328-1.166-.212-.261-.534-.392-.965-.392-.318 0-.6.085-.848.254-.247.17-.442.41-.583.721-.141.304-.212.661-.212 1.07v2.768H80.7zM88.43 21.01c-.488 0-.841-.117-1.06-.35-.212-.24-.318-.569-.318-.986v-3.392h-.901v-.678h.9v-1.347h.785v1.347h1.187v.678h-1.187v3.35c0 .254.06.43.18.53.12.099.315.148.583.148.12 0 .262-.01.424-.032v.658c-.219.049-.416.074-.593.074zM90.205 20.936V13.25h.784v3.233a2.045 2.045 0 011.834-1.05c.594 0 1.056.192 1.389.573.332.375.498.894.498 1.559v3.37h-.785v-3.254c0-.516-.11-.904-.328-1.166-.22-.261-.544-.392-.975-.392-.319 0-.601.085-.849.254-.247.17-.441.41-.583.721-.134.304-.201.661-.201 1.07v2.768h-.784z"/></svg>