<svg class="mr8pf50" xmlns="http://www.w3.org/2000/svg" fill="none" viewBox="-10 0 353 273"><rect width="321" height="272.16" x="1" fill="#fff" rx="12"/><path fill="#fff" d="M1 12C1 5.373 6.373 0 13 0h297c6.627 0 12 5.373 12 12v26.88H1V12z"/><path fill="#192852" d="M19.057 23.44v-8.891h.973v3.94h5.051v-3.94h.973v8.891h-.973v-4.08H20.03v4.08h-.973zm12.045.202c-.606 0-1.145-.143-1.616-.43a3.022 3.022 0 01-1.112-1.186c-.27-.514-.404-1.1-.404-1.756 0-.657.13-1.242.392-1.756a3 3 0 011.111-1.2c.48-.286 1.027-.429 1.642-.429.606 0 1.14.143 1.604.43.471.286.838.686 1.099 1.2.26.513.391 1.098.391 1.755 0 .657-.13 1.242-.391 1.756-.261.505-.627.9-1.099 1.187-.463.286-1.002.43-1.617.43zm0-.834c.438 0 .817-.1 1.137-.303.32-.202.564-.492.733-.871.176-.387.265-.842.265-1.364 0-.522-.089-.977-.265-1.364a1.914 1.914 0 00-.733-.884c-.32-.21-.699-.316-1.137-.316-.438 0-.82.105-1.149.316-.32.21-.568.51-.745.897-.177.378-.265.829-.265 1.35 0 .515.088.965.265 1.352.177.38.425.674.745.884.328.203.712.303 1.15.303zm5.799.632l-1.97-6.353h.934l1.528 5.027 1.541-5.027h.884l1.541 5.027 1.528-5.027h.922l-1.97 6.353h-.922l-1.553-5.001-1.529 5.001h-.934zm11.406 0v-6.365h.934v.922c.185-.346.434-.615.745-.809.32-.202.69-.303 1.112-.303.471 0 .863.11 1.174.328.32.22.548.531.682.935.186-.396.447-.703.783-.922.337-.227.737-.34 1.2-.34.632 0 1.12.18 1.465.542.346.354.518.88.518 1.579v4.433h-.947v-4.218c0-.506-.105-.884-.316-1.137-.21-.253-.53-.379-.96-.379-.32 0-.602.084-.846.253-.236.16-.425.395-.568.707-.135.303-.202.678-.202 1.124v3.65h-.948v-4.218c0-.506-.105-.884-.315-1.137-.21-.253-.53-.379-.96-.379-.312 0-.59.084-.834.253-.236.16-.425.395-.568.707-.143.303-.215.674-.215 1.111v3.663h-.934zm12.312.177c-.471 0-.871-.089-1.2-.265a1.847 1.847 0 01-.72-.72 2.005 2.005 0 01-.24-.973c0-.606.236-1.082.708-1.427.48-.345 1.149-.518 2.008-.518h1.616v-.631c0-.396-.143-.724-.43-.985-.285-.261-.677-.392-1.174-.392-.454 0-.82.114-1.098.341-.278.227-.476.543-.594.947l-.91-.177c.102-.42.274-.774.518-1.06.245-.295.548-.514.91-.657a3.273 3.273 0 011.212-.215c.505 0 .943.093 1.314.278.379.177.67.434.871.77.202.329.303.712.303 1.15v4.357h-.922v-1.175c-.21.413-.5.741-.871.986-.362.244-.796.366-1.301.366zm.215-.796c.395 0 .74-.097 1.035-.29.295-.194.518-.45.67-.77.16-.32.24-.666.24-1.036v-.316H61.3c-.615 0-1.086.105-1.415.316-.32.21-.48.509-.48.896 0 .37.131.666.392.884.27.21.615.316 1.036.316zm4.863.619v-6.353h.935v1.049a2.51 2.51 0 01.897-.91c.37-.227.804-.34 1.3-.34.708 0 1.26.227 1.655.681.396.446.594 1.065.594 1.857v4.016h-.948v-3.877c0-.615-.13-1.078-.391-1.39-.253-.311-.636-.467-1.15-.467-.378 0-.715.101-1.01.303a2.028 2.028 0 00-.694.859c-.169.362-.253.787-.253 1.276v3.296h-.935zm9.826 2.602c-.631 0-1.174-.135-1.629-.404a2.068 2.068 0 01-.934-1.162l.858-.278c.135.328.35.58.644.758.303.185.666.277 1.087.277.378 0 .703-.075.972-.227.278-.143.488-.362.632-.657.151-.286.227-.644.227-1.073v-1.112a2.39 2.39 0 01-.884.922c-.362.22-.787.329-1.276.329-.699 0-1.246-.223-1.642-.67-.387-.454-.58-1.073-.58-1.856v-3.802h.934v3.663c0 .606.126 1.065.379 1.377.252.303.636.454 1.15.454.37 0 .698-.097.984-.29.295-.202.522-.485.682-.846.169-.371.253-.8.253-1.289v-3.069h.96v6.164c0 .572-.118 1.069-.354 1.49a2.26 2.26 0 01-.985.96c-.421.227-.913.34-1.478.34zm8.108-.202v-8.753h.934v1.099c.253-.404.577-.72.973-.947a2.54 2.54 0 011.326-.354c.58 0 1.094.143 1.54.43.447.286.792.686 1.036 1.2.253.513.38 1.098.38 1.755 0 .648-.127 1.23-.38 1.743a2.804 2.804 0 01-1.048 1.2c-.446.286-.956.43-1.528.43-.489 0-.93-.115-1.326-.342a2.864 2.864 0 01-.973-.96v3.499h-.934zm3.069-3.032c.429 0 .804-.1 1.124-.303.328-.21.58-.505.758-.884.176-.387.265-.837.265-1.351 0-.783-.194-1.402-.581-1.857-.388-.463-.91-.694-1.566-.694-.649 0-1.166.231-1.554.694-.387.455-.58 1.074-.58 1.857 0 .514.088.964.264 1.351.177.38.426.674.746.884a2.1 2.1 0 001.124.303zm7.477.834c-.631 0-1.183-.143-1.654-.43A3.003 3.003 0 0191.424 22c-.253-.513-.379-1.099-.379-1.755 0-.64.126-1.213.379-1.718a2.832 2.832 0 011.086-1.2c.472-.295 1.019-.442 1.642-.442.59 0 1.099.14 1.528.417.43.27.758.652.985 1.15.228.488.341 1.052.341 1.692 0 .11-.004.206-.012.29h-5.002c.026.783.232 1.381.62 1.793.387.405.909.607 1.565.607.489 0 .88-.114 1.175-.341.303-.236.564-.564.783-.985l.77.29c-.235.581-.589 1.036-1.06 1.364-.464.32-1.02.48-1.668.48zm1.882-3.94c-.017-.632-.202-1.125-.555-1.478-.346-.354-.796-.53-1.352-.53-.606 0-1.094.18-1.465.543-.37.353-.594.841-.67 1.465h4.042zm5.334 3.94c-.607 0-1.145-.143-1.617-.43a3.022 3.022 0 01-1.111-1.186c-.27-.514-.405-1.1-.405-1.756 0-.657.13-1.242.392-1.756.27-.513.64-.913 1.111-1.2.48-.286 1.028-.429 1.642-.429.606 0 1.141.143 1.604.43.472.286.838.686 1.099 1.2.261.513.392 1.098.392 1.755 0 .657-.131 1.242-.392 1.756a2.93 2.93 0 01-1.099 1.187c-.463.286-1.002.43-1.616.43zm0-.834c.437 0 .816-.1 1.136-.303.32-.202.564-.492.733-.871.177-.387.265-.842.265-1.364 0-.522-.088-.977-.265-1.364a1.918 1.918 0 00-.733-.884c-.32-.21-.699-.316-1.136-.316-.438 0-.821.105-1.15.316-.32.21-.568.51-.745.897-.177.378-.265.829-.265 1.35 0 .515.088.965.265 1.352.177.38.425.674.745.884.329.203.712.303 1.15.303zm4.759 3.032v-8.753h.935v1.099c.252-.404.576-.72.972-.947a2.542 2.542 0 011.326-.354c.581 0 1.095.143 1.541.43.446.286.792.686 1.036 1.2.252.513.379 1.098.379 1.755 0 .648-.127 1.23-.379 1.743a2.802 2.802 0 01-1.049 1.2c-.446.286-.955.43-1.528.43-.488 0-.93-.115-1.326-.342a2.856 2.856 0 01-.972-.96v3.499h-.935zm3.069-3.032c.43 0 .804-.1 1.124-.303a2.05 2.05 0 00.758-.884c.177-.387.265-.837.265-1.351 0-.783-.193-1.402-.581-1.857-.387-.463-.909-.694-1.566-.694-.648 0-1.166.231-1.553.694-.388.455-.581 1.074-.581 1.857 0 .514.088.964.265 1.351.177.38.425.674.745.884a2.1 2.1 0 001.124.303zm4.687.632v-9.157h.934v9.157h-.934zm5.603.202c-.632 0-1.183-.143-1.655-.43A3.004 3.004 0 01116.758 22c-.253-.513-.379-1.099-.379-1.755 0-.64.126-1.213.379-1.718a2.825 2.825 0 011.086-1.2c.471-.295 1.019-.442 1.642-.442.589 0 1.098.14 1.528.417.429.27.758.652.985 1.15.227.488.341 1.052.341 1.692 0 .11-.004.206-.013.29h-5.001c.025.783.232 1.381.619 1.793.387.405.909.607 1.566.607.488 0 .88-.114 1.174-.341.304-.236.565-.564.784-.985l.77.29c-.236.581-.589 1.036-1.061 1.364-.463.32-1.019.48-1.667.48zm1.882-3.94c-.017-.632-.202-1.125-.556-1.478-.345-.354-.796-.53-1.351-.53-.607 0-1.095.18-1.465.543-.371.353-.594.841-.67 1.465h4.042zm8.339 3.94a2.857 2.857 0 01-1.554-.43 2.923 2.923 0 01-1.048-1.2c-.244-.513-.366-1.094-.366-1.742 0-.657.122-1.242.366-1.756a2.922 2.922 0 011.048-1.2c.455-.286.969-.429 1.541-.429.489 0 .931.118 1.326.354.404.227.733.543.985.947v-3.903h.935v9.157h-.935v-1.099a2.824 2.824 0 01-.985.96 2.586 2.586 0 01-1.313.341zm.164-.834c.421 0 .791-.1 1.111-.303.32-.21.569-.505.746-.884.185-.387.277-.837.277-1.351 0-.783-.193-1.402-.581-1.857-.387-.463-.905-.694-1.553-.694-.657 0-1.183.231-1.579.694-.387.455-.581 1.074-.581 1.857 0 .514.089.964.266 1.351.176.38.429.674.757.884.329.203.708.303 1.137.303zm7.844.834c-.606 0-1.145-.143-1.616-.43a3.024 3.024 0 01-1.112-1.186c-.269-.514-.404-1.1-.404-1.756 0-.657.131-1.242.392-1.756a3 3 0 011.111-1.2c.48-.286 1.027-.429 1.642-.429.606 0 1.141.143 1.604.43.471.286.838.686 1.099 1.2.261.513.391 1.098.391 1.755 0 .657-.13 1.242-.391 1.756-.261.505-.628.9-1.099 1.187-.463.286-1.002.43-1.617.43zm0-.834c.438 0 .817-.1 1.137-.303.32-.202.564-.492.732-.871.177-.387.266-.842.266-1.364 0-.522-.089-.977-.266-1.364a1.91 1.91 0 00-.732-.884c-.32-.21-.699-.316-1.137-.316a2.08 2.08 0 00-1.149.316c-.32.21-.568.51-.745.897-.177.378-.265.829-.265 1.35 0 .515.088.965.265 1.352.177.38.425.674.745.884.328.203.711.303 1.149.303zm10.417 3.234c-.632 0-1.175-.135-1.629-.404a2.07 2.07 0 01-.935-1.162l.859-.278c.135.328.349.58.644.758.303.185.665.277 1.086.277.379 0 .703-.075.973-.227.278-.143.488-.362.631-.657.152-.286.228-.644.228-1.073v-1.112a2.389 2.389 0 01-.885.922c-.362.22-.787.329-1.275.329-.699 0-1.246-.223-1.642-.67-.387-.454-.581-1.073-.581-1.856v-3.802h.935v3.663c0 .606.126 1.065.379 1.377.252.303.635.454 1.149.454.37 0 .699-.097.985-.29.295-.202.522-.485.682-.846.168-.371.253-.8.253-1.289v-3.069h.959v6.164c0 .572-.117 1.069-.353 1.49-.228.42-.556.74-.985.96-.421.227-.914.34-1.478.34zm7.603-2.4c-.606 0-1.145-.143-1.617-.43a3.022 3.022 0 01-1.111-1.186c-.27-.514-.404-1.1-.404-1.756 0-.657.13-1.242.391-1.756.27-.513.64-.913 1.112-1.2.48-.286 1.027-.429 1.642-.429.606 0 1.14.143 1.604.43.471.286.837.686 1.098 1.2.261.513.392 1.098.392 1.755 0 .657-.131 1.242-.392 1.756-.261.505-.627.9-1.098 1.187-.464.286-1.002.43-1.617.43zm0-.834c.438 0 .817-.1 1.137-.303.32-.202.564-.492.732-.871.177-.387.265-.842.265-1.364 0-.522-.088-.977-.265-1.364a1.91 1.91 0 00-.732-.884c-.32-.21-.699-.316-1.137-.316a2.08 2.08 0 00-1.149.316c-.32.21-.569.51-.746.897-.176.378-.265.829-.265 1.35 0 .515.089.965.265 1.352.177.38.426.674.746.884.328.203.711.303 1.149.303zm6.906.834c-.715 0-1.271-.223-1.667-.67-.395-.454-.593-1.077-.593-1.869v-4.016h.947v3.878c0 .614.126 1.077.379 1.389.261.303.652.454 1.174.454.379 0 .712-.096.998-.29.295-.202.526-.484.695-.846.168-.37.252-.8.252-1.288v-3.297h.973v6.353h-.973v-1.048a2.508 2.508 0 01-.884.922c-.37.219-.804.328-1.301.328zm9.586-.202l-1.971-6.353h.935l1.528 5.027 1.541-5.027h.884l1.541 5.027 1.528-5.027h.922l-1.97 6.353h-.922l-1.554-5.001-1.528 5.001h-.934zm9.842.177c-.471 0-.871-.089-1.199-.265a1.848 1.848 0 01-.72-.72 2.005 2.005 0 01-.24-.973c0-.606.235-1.082.707-1.427.48-.345 1.149-.518 2.008-.518h1.617v-.631c0-.396-.143-.724-.43-.985-.286-.261-.677-.392-1.174-.392-.455 0-.821.114-1.099.341-.278.227-.476.543-.594.947l-.909-.177c.101-.42.274-.774.518-1.06a2.22 2.22 0 01.909-.657 3.273 3.273 0 011.213-.215c.505 0 .943.093 1.313.278.379.177.67.434.872.77.202.329.303.712.303 1.15v4.357h-.922v-1.175a2.536 2.536 0 01-.872.986c-.362.244-.795.366-1.301.366zm.215-.796c.396 0 .741-.097 1.036-.29.294-.194.518-.45.669-.77.16-.32.24-.666.24-1.036v-.316h-1.478c-.614 0-1.086.105-1.414.316-.32.21-.48.509-.48.896 0 .37.13.666.391.884.27.21.615.316 1.036.316zm4.864.619v-6.353h.934v1.049c.228-.388.527-.69.897-.91.37-.227.804-.34 1.301-.34.707 0 1.259.227 1.654.681.396.446.594 1.065.594 1.857v4.016h-.947v-3.877c0-.615-.131-1.078-.392-1.39-.252-.311-.635-.467-1.149-.467a1.74 1.74 0 00-1.01.303 2.024 2.024 0 00-.695.859c-.169.362-.253.787-.253 1.276v3.296h-.934zm9.207.088c-.58 0-1.001-.138-1.262-.416-.253-.287-.379-.678-.379-1.175v-4.042h-1.074v-.808h1.074v-1.604h.934v1.604h1.415v.808h-1.415v3.992c0 .303.072.513.215.631.143.118.375.177.695.177.143 0 .311-.013.505-.038v.783a3.246 3.246 0 01-.708.088zm7.179 0c-.581 0-1.002-.138-1.263-.416-.253-.287-.379-.678-.379-1.175v-4.042h-1.074v-.808h1.074v-1.604h.934v1.604h1.415v.808h-1.415v3.992c0 .303.072.513.215.631.143.118.375.177.695.177.143 0 .311-.013.505-.038v.783a3.245 3.245 0 01-.707.088zm4.73.114c-.606 0-1.145-.143-1.616-.43a3.024 3.024 0 01-1.112-1.186c-.269-.514-.404-1.1-.404-1.756 0-.657.131-1.242.392-1.756a3 3 0 011.111-1.2c.48-.286 1.027-.429 1.642-.429.606 0 1.141.143 1.604.43.472.286.838.686 1.099 1.2.261.513.391 1.098.391 1.755 0 .657-.13 1.242-.391 1.756a2.93 2.93 0 01-1.099 1.187c-.463.286-1.002.43-1.617.43zm0-.834c.438 0 .817-.1 1.137-.303.32-.202.564-.492.733-.871.177-.387.265-.842.265-1.364 0-.522-.088-.977-.265-1.364a1.918 1.918 0 00-.733-.884c-.32-.21-.699-.316-1.137-.316-.437 0-.82.105-1.149.316-.32.21-.568.51-.745.897-.177.378-.265.829-.265 1.35 0 .515.088.965.265 1.352.177.38.425.674.745.884a2.15 2.15 0 001.149.303zm10.139.834c-.715 0-1.317-.18-1.806-.543-.48-.362-.8-.855-.96-1.478l.897-.214c.126.446.354.8.682 1.06.329.262.728.392 1.2.392.505 0 .901-.11 1.187-.328.286-.22.43-.497.43-.834 0-.27-.093-.471-.278-.606-.177-.143-.501-.274-.973-.392a4.061 4.061 0 01-.265-.063 2.469 2.469 0 00-.265-.063c-.539-.101-.973-.223-1.301-.366-.328-.143-.581-.329-.758-.556-.168-.236-.252-.539-.252-.91 0-.37.101-.698.303-.984.202-.287.484-.501.846-.645.37-.151.787-.227 1.25-.227.665 0 1.196.16 1.592.48.404.312.69.741.858 1.288l-.833.24c-.126-.387-.324-.686-.594-.896-.261-.22-.602-.329-1.023-.329-.438 0-.791.097-1.061.29-.261.194-.391.439-.391.733 0 .261.113.46.341.594.227.134.619.265 1.174.391.042.009.08.017.114.026l.101.025c.564.11 1.01.236 1.339.379.337.143.589.336.758.58.176.245.265.569.265.973 0 .38-.105.72-.316 1.023-.202.295-.497.53-.884.708-.387.168-.846.252-1.377.252zm4.192-.202v-9.157h.935v3.853c.218-.388.513-.69.884-.91.37-.227.804-.34 1.301-.34.707 0 1.258.227 1.654.681.396.446.594 1.065.594 1.857v4.016h-.935v-3.877c0-.615-.13-1.078-.391-1.39-.262-.311-.649-.467-1.162-.467-.379 0-.716.101-1.011.303a2.022 2.022 0 00-.694.859c-.16.362-.24.787-.24 1.276v3.296h-.935zm9.081.177c-.472 0-.872-.089-1.2-.265a1.848 1.848 0 01-.72-.72 2.005 2.005 0 01-.24-.973c0-.606.236-1.082.707-1.427.48-.345 1.15-.518 2.009-.518h1.616v-.631c0-.396-.143-.724-.429-.985-.286-.261-.678-.392-1.175-.392-.454 0-.821.114-1.099.341-.277.227-.475.543-.593.947l-.91-.177a2.52 2.52 0 01.518-1.06c.244-.295.548-.514.91-.657a3.272 3.272 0 011.212-.215c.505 0 .943.093 1.314.278.379.177.669.434.871.77.202.329.303.712.303 1.15v4.357h-.922v-1.175c-.21.413-.501.741-.871.986-.362.244-.796.366-1.301.366zm.215-.796a1.84 1.84 0 001.035-.29c.295-.194.518-.45.67-.77.16-.32.24-.666.24-1.036v-.316h-1.478c-.615 0-1.086.105-1.415.316-.32.21-.48.509-.48.896 0 .37.131.666.392.884.269.21.615.316 1.036.316zm4.863.619v-6.353h.935v1.15c.168-.37.404-.661.707-.872a1.785 1.785 0 011.25-.316c.051 0 .106.009.165.026v.884a2.082 2.082 0 00-.341-.026c-.539 0-.973.198-1.301.594-.32.387-.48.91-.48 1.566v3.347h-.935zm6.995.202c-.632 0-1.183-.143-1.655-.43A3.013 3.013 0 01241.02 22c-.252-.513-.378-1.099-.378-1.755 0-.64.126-1.213.378-1.718a2.833 2.833 0 011.087-1.2c.471-.295 1.018-.442 1.642-.442.589 0 1.098.14 1.528.417.429.27.758.652.985 1.15.227.488.341 1.052.341 1.692 0 .11-.004.206-.013.29h-5.001c.025.783.231 1.381.619 1.793.387.405.909.607 1.566.607.488 0 .88-.114 1.174-.341.303-.236.564-.564.783-.985l.771.29c-.236.581-.59 1.036-1.061 1.364-.463.32-1.019.48-1.667.48zm1.882-3.94c-.017-.632-.202-1.125-.556-1.478-.345-.354-.796-.53-1.351-.53-.607 0-1.095.18-1.466.543-.37.353-.593.841-.669 1.465h4.042zm7.682 3.826c-.581 0-1.002-.138-1.263-.416-.253-.287-.379-.678-.379-1.175v-4.042h-1.074v-.808h1.074v-1.604h.935v1.604h1.414v.808h-1.414v3.992c0 .303.071.513.214.631.143.118.375.177.695.177.143 0 .312-.013.505-.038v.783a3.245 3.245 0 01-.707.088zm2.114-.088v-9.157h.935v3.853c.219-.388.514-.69.884-.91.371-.227.804-.34 1.301-.34.707 0 1.259.227 1.655.681.395.446.593 1.065.593 1.857v4.016h-.934v-3.877c0-.615-.131-1.078-.392-1.39-.261-.311-.648-.467-1.162-.467a1.74 1.74 0 00-1.01.303 2.024 2.024 0 00-.695.859c-.16.362-.24.787-.24 1.276v3.296h-.935zm7.338 0v-6.353h.948v6.353h-.948zm.48-7.414a.67.67 0 01-.492-.202.669.669 0 01-.202-.492.67.67 0 01.202-.493.67.67 0 01.492-.202c.194 0 .358.067.493.202a.67.67 0 01.202.493.669.669 0 01-.202.492.67.67 0 01-.493.202zm4.728 7.616c-.716 0-1.318-.18-1.806-.543-.48-.362-.8-.855-.96-1.478l.897-.214c.126.446.353.8.682 1.06.328.262.728.392 1.199.392.506 0 .901-.11 1.188-.328.286-.22.429-.497.429-.834 0-.27-.093-.471-.278-.606-.177-.143-.501-.274-.972-.392a4.084 4.084 0 01-.266-.063 2.413 2.413 0 00-.265-.063c-.539-.101-.972-.223-1.301-.366-.328-.143-.581-.329-.757-.556-.169-.236-.253-.539-.253-.91 0-.37.101-.698.303-.984.202-.287.484-.501.846-.645a3.28 3.28 0 011.251-.227c.665 0 1.195.16 1.591.48.404.312.69.741.859 1.288l-.834.24c-.126-.387-.324-.686-.593-.896-.261-.22-.602-.329-1.023-.329-.438 0-.792.097-1.061.29-.261.194-.392.439-.392.733a.65.65 0 00.341.594c.228.134.619.265 1.175.391.042.009.08.017.113.026l.102.025c.564.11 1.01.236 1.338.379.337.143.59.336.758.58.177.245.265.569.265.973 0 .38-.105.72-.315 1.023-.203.295-.497.53-.885.708-.387.168-.846.252-1.376.252zm8.56-.202l-1.97-6.353h.935l1.528 5.027 1.541-5.027h.884l1.541 5.027 1.528-5.027h.922l-1.97 6.353h-.922l-1.554-5.001-1.528 5.001h-.935zm8.187 0v-6.353h.947v6.353h-.947zm.48-7.414a.67.67 0 01-.493-.202.669.669 0 01-.202-.492.67.67 0 01.202-.493.671.671 0 01.493-.202.67.67 0 01.492.202.67.67 0 01.202.493.669.669 0 01-.202.492.67.67 0 01-.492.202zm4.411 7.502c-.581 0-1.002-.138-1.263-.416-.252-.287-.379-.678-.379-1.175v-4.042h-1.073v-.808h1.073v-1.604h.935v1.604h1.415v.808h-1.415v3.992c0 .303.072.513.215.631.143.118.374.177.694.177.143 0 .312-.013.506-.038v.783a3.253 3.253 0 01-.708.088zm2.115-.088v-9.157h.934v3.853c.219-.388.514-.69.884-.91.371-.227.805-.34 1.301-.34.708 0 1.259.227 1.655.681.396.446.593 1.065.593 1.857v4.016h-.934v-3.877c0-.615-.131-1.078-.392-1.39-.261-.311-.648-.467-1.162-.467-.379 0-.715.101-1.01.303a2.031 2.031 0 00-.695.859c-.16.362-.24.787-.24 1.276v3.296h-.934zm9.334-2.4c0-.412.063-.762.189-1.048.135-.286.295-.518.48-.695.185-.176.425-.374.72-.593.261-.185.463-.345.606-.48a1.82 1.82 0 00.379-.518c.101-.202.152-.438.152-.707 0-.32-.072-.61-.215-.872a1.562 1.562 0 00-.657-.644c-.295-.16-.665-.24-1.111-.24-.674 0-1.179.173-1.516.518a2.294 2.294 0 00-.619 1.25l-.947-.214c.076-.43.232-.83.467-1.2.236-.37.573-.67 1.011-.897.438-.236.976-.353 1.616-.353.665 0 1.217.126 1.655.378.446.245.774.569.985.973.219.396.328.817.328 1.263 0 .387-.063.724-.189 1.01-.126.278-.286.51-.48.695a7.49 7.49 0 01-.72.619 9.904 9.904 0 00-.619.53 1.839 1.839 0 00-.379.518 1.563 1.563 0 00-.151.707v.215h-.985v-.215zm.517 2.514a.688.688 0 01-.707-.707c0-.186.068-.346.202-.48a.686.686 0 01.505-.203c.177 0 .333.068.468.202a.658.658 0 01.202.48c0 .203-.068.37-.202.506a.643.643 0 01-.468.202z"/><path stroke="#000" stroke-opacity="0.25" stroke-width="0.303" d="M0.758 38.729L322.242 38.729"/><path fill="#fff" d="M1 50.88c0-6.627 5.373-12 12-12h297c6.627 0 12 5.373 12 12v14.88c0 6.627-5.373 12-12 12H13c-6.627 0-12-5.373-12-12V50.88z"/><path fill="#088FE9" d="M70.337 63.82v-8.344l-2.282 1.512v-1.7l2.515-1.701h1.366V63.82h-1.599zm12.325.233c-1.018 0-1.91-.228-2.675-.684a4.633 4.633 0 01-1.774-1.89c-.416-.804-.625-1.72-.625-2.747s.209-1.947.625-2.761a4.708 4.708 0 011.774-1.92c.765-.464 1.657-.697 2.675-.697 1.017 0 1.904.233 2.66.698a4.496 4.496 0 011.758 1.919c.407.814.61 1.734.61 2.761 0 1.028-.203 1.943-.61 2.748a4.536 4.536 0 01-1.758 1.89c-.756.455-1.643.683-2.66.683zm-.015-1.454c.698 0 1.303-.16 1.817-.48.514-.33.906-.785 1.177-1.366.281-.581.422-1.255.422-2.02 0-.766-.14-1.444-.422-2.036a3.26 3.26 0 00-1.192-1.38c-.513-.34-1.114-.51-1.802-.51-.678 0-1.28.17-1.803.51-.513.329-.91.79-1.191 1.38-.282.591-.422 1.27-.422 2.035 0 .766.14 1.44.422 2.02a3.278 3.278 0 001.191 1.367c.514.32 1.115.48 1.803.48zm9.528 1.366c-.746 0-1.284-.174-1.614-.523-.329-.358-.494-.862-.494-1.512v-4.2H88.89v-1.28h1.177v-1.904h1.556v1.904h1.555v1.28h-1.555v4.128c0 .28.077.484.232.61.155.116.388.175.698.175.155 0 .358-.02.61-.059v1.25a3.96 3.96 0 01-.988.131zm2.569-.145V53.281h1.54v4.26c.243-.417.563-.742.96-.974a2.762 2.762 0 011.395-.35c.834 0 1.483.267 1.948.8.465.533.698 1.27.698 2.21v4.593H99.73v-4.463c0-.59-.131-1.041-.393-1.351-.261-.31-.649-.466-1.163-.466a1.64 1.64 0 00-.988.306c-.281.194-.504.47-.669.828-.155.359-.232.776-.232 1.25v3.896h-1.541zm11.858.233c-.746 0-1.4-.165-1.962-.495a3.493 3.493 0 01-1.309-1.395c-.3-.6-.45-1.28-.45-2.035 0-.737.145-1.4.436-1.992a3.4 3.4 0 011.279-1.41c.562-.339 1.221-.508 1.977-.508.717 0 1.332.16 1.846.48.514.32.901.775 1.163 1.366.262.581.392 1.26.392 2.035 0 .145-.005.276-.014.392h-5.568c.049.756.267 1.328.655 1.715.387.378.911.567 1.57.567.494 0 .896-.116 1.206-.349.31-.232.572-.557.785-.973l1.25.465c-.291.688-.712 1.216-1.265 1.584-.552.368-1.216.553-1.991.553zm1.861-4.652c-.039-.61-.228-1.076-.567-1.395-.33-.33-.771-.495-1.323-.495-.582 0-1.056.165-1.425.495-.368.32-.605.785-.712 1.395h4.027zm3.244 4.419v-7.37h1.556v1.294c.193-.426.455-.76.785-1.003.339-.242.741-.363 1.206-.363.087 0 .165.004.233.014a.95.95 0 01.232.03v1.467a2.441 2.441 0 00-.479-.043c-.592 0-1.071.208-1.44.625-.358.416-.537.983-.537 1.7v3.649h-1.556zm9.177 0V53.572h4.666c1.056 0 1.87.286 2.442.858.582.562.872 1.322.872 2.282 0 .95-.29 1.71-.872 2.282-.572.572-1.386.858-2.442.858h-3.067v3.968h-1.599zm4.506-5.364c.591 0 1.047-.15 1.367-.45.319-.31.479-.742.479-1.294 0-.562-.16-.993-.479-1.294-.32-.3-.776-.45-1.367-.45h-2.907v3.488h2.907zm8.027 5.597c-.746 0-1.4-.165-1.962-.495a3.493 3.493 0 01-1.309-1.395c-.3-.6-.45-1.28-.45-2.035 0-.737.145-1.4.436-1.992a3.4 3.4 0 011.279-1.41c.562-.339 1.221-.508 1.977-.508.717 0 1.332.16 1.846.48.514.32.901.775 1.163 1.366.262.581.392 1.26.392 2.035 0 .145-.004.276-.014.392h-5.567c.048.756.266 1.328.654 1.715.387.378.911.567 1.57.567.494 0 .896-.116 1.206-.349.31-.232.572-.557.785-.973l1.25.465c-.291.688-.712 1.216-1.265 1.584-.552.368-1.216.553-1.991.553zm1.861-4.652c-.039-.61-.228-1.076-.567-1.395-.33-.33-.771-.495-1.323-.495-.582 0-1.056.165-1.425.495-.368.32-.605.785-.712 1.395h4.027zm3.244 4.419v-7.37h1.556v1.294c.193-.426.455-.76.785-1.003.339-.242.741-.363 1.206-.363.087 0 .165.004.233.014a.95.95 0 01.232.03v1.467a2.441 2.441 0 00-.479-.043c-.592 0-1.071.208-1.439.625-.359.416-.538.983-.538 1.7v3.649h-1.556zm8.012.233c-.872 0-1.594-.204-2.166-.61-.562-.418-.93-.98-1.105-1.687l1.439-.349c.126.446.344.795.654 1.047.32.252.717.378 1.192.378s.848-.097 1.12-.291c.271-.204.407-.456.407-.756 0-.262-.097-.455-.291-.581-.184-.127-.533-.252-1.047-.378l-.261-.059-.277-.058c-.61-.135-1.104-.286-1.482-.45-.378-.165-.669-.388-.872-.669-.194-.281-.291-.644-.291-1.09 0-.456.121-.853.363-1.192a2.29 2.29 0 011.018-.8c.446-.193.954-.29 1.526-.29.795 0 1.434.179 1.919.537.484.359.824.858 1.017 1.498l-1.381.378c-.126-.378-.315-.669-.567-.873-.251-.213-.576-.32-.973-.32-.407 0-.742.088-1.003.262-.252.175-.378.402-.378.683 0 .252.111.441.334.567.233.117.644.243 1.236.378a.32.32 0 01.101.015c.029.01.063.02.102.029.659.136 1.182.286 1.57.45.388.165.683.393.887.684.213.28.319.659.319 1.134 0 .474-.126.896-.378 1.264-.251.359-.61.64-1.075.843-.465.204-1.018.306-1.657.306zm8.063 0c-.727 0-1.371-.165-1.933-.495a3.486 3.486 0 01-1.323-1.38c-.32-.592-.48-1.27-.48-2.036 0-.756.155-1.429.465-2.02a3.47 3.47 0 011.323-1.396c.572-.339 1.226-.508 1.962-.508.717 0 1.357.17 1.919.508.562.33.998.795 1.308 1.396.32.591.48 1.264.48 2.02s-.16 1.435-.48 2.035a3.391 3.391 0 01-1.308 1.381c-.562.33-1.206.495-1.933.495zm0-1.323c.436 0 .814-.102 1.134-.305.319-.214.562-.514.726-.902.175-.387.262-.848.262-1.38 0-.534-.087-.994-.262-1.382-.164-.397-.407-.697-.726-.9-.32-.214-.698-.32-1.134-.32-.436 0-.814.106-1.134.32a2.07 2.07 0 00-.741.9c-.175.388-.262.848-.262 1.381 0 .524.087.98.262 1.367.174.387.421.688.741.901.329.213.707.32 1.134.32zm5.445 1.09v-7.37h1.556v1.09c.242-.416.562-.74.959-.974.407-.232.877-.348 1.41-.348.824 0 1.468.266 1.934.8.465.532.697 1.269.697 2.209v4.593h-1.555v-4.463c0-.59-.131-1.041-.393-1.351-.261-.31-.649-.466-1.162-.466-.369 0-.698.102-.989.306-.281.194-.504.47-.669.828-.155.359-.232.776-.232 1.25v3.896h-1.556zm13.867 2.573a12.015 12.015 0 01-1.541-3.314 13.482 13.482 0 01-.509-3.678c0-1.24.17-2.447.509-3.62a11.656 11.656 0 011.526-3.255l1.163.784a10.354 10.354 0 00-1.337 2.864 11.617 11.617 0 00-.451 3.227c0 1.114.15 2.205.451 3.27a10.94 10.94 0 001.351 2.937l-1.162.785zm7.977-2.399c-.397 0-.722-.029-.974-.087a7.085 7.085 0 01-.828-.218 3.69 3.69 0 00-.625-.174 2.64 2.64 0 00-.596-.058 3.78 3.78 0 00-.916.101c-.271.059-.533.14-.785.248l-.102.058-.581-1.221c.611-.34 1.061-.684 1.352-1.032.3-.359.45-.747.45-1.163 0-.184-.024-.359-.072-.524a2.223 2.223 0 00-.218-.494h-1.701v-1.192h1.09a5.183 5.183 0 01-.305-.785 3.774 3.774 0 01-.102-.916c0-.64.146-1.196.436-1.671a2.953 2.953 0 011.279-1.12c.553-.261 1.197-.392 1.934-.392.688 0 1.279.13 1.773.392s.877.616 1.149 1.062c.281.436.47.925.566 1.468l-1.526.392c-.097-.533-.31-.974-.639-1.322-.32-.36-.776-.538-1.367-.538-.61 0-1.095.164-1.453.494-.359.32-.538.76-.538 1.323 0 .29.043.557.131.8.087.241.208.513.363.813h2.893v1.192h-2.442c.029.068.053.136.072.204.029.068.054.14.073.218.048.164.073.339.073.523 0 .64-.204 1.236-.611 1.788a3.25 3.25 0 01.363-.015c.243 0 .456.02.64.058.194.03.383.078.567.146.165.058.325.102.48.13.164.03.339.044.523.044.281 0 .514-.058.698-.174.184-.116.315-.32.392-.61l1.425.42c-.117.573-.378 1.023-.785 1.353-.398.32-.916.48-1.556.48zm7.418.059c-.881 0-1.608-.233-2.18-.698-.562-.475-.974-1.124-1.236-1.948l1.599-.32c.155.475.383.848.684 1.12.3.27.693.407 1.177.407.727 0 1.303-.296 1.73-.887.436-.601.683-1.536.741-2.806a3.032 3.032 0 01-1.163 1.047c-.475.252-1.012.378-1.613.378-.63 0-1.207-.14-1.73-.422a3.131 3.131 0 01-1.221-1.192c-.291-.523-.436-1.119-.436-1.788 0-.697.169-1.318.509-1.86a3.5 3.5 0 011.366-1.265 4.012 4.012 0 011.919-.465c.775 0 1.463.18 2.064.538.601.358 1.076.925 1.424 1.7.349.766.524 1.74.524 2.922 0 1.153-.165 2.147-.494 2.98-.32.824-.795 1.459-1.425 1.904-.63.436-1.376.655-2.239.655zm.102-4.957c.427 0 .8-.092 1.119-.276.33-.194.582-.451.756-.77.184-.33.277-.703.277-1.12 0-.407-.088-.78-.262-1.12a1.976 1.976 0 00-.741-.799 2.119 2.119 0 00-1.12-.29c-.426 0-.804.096-1.134.29a2 2 0 00-.741.785 2.36 2.36 0 00-.262 1.12c0 .416.083.79.248 1.119.174.33.421.59.741.785.329.184.702.276 1.119.276zm5.94 4.84c-.3 0-.552-.097-.756-.29a1.053 1.053 0 01-.291-.756c0-.272.097-.504.291-.698.204-.203.456-.305.756-.305.271 0 .504.102.698.305a.931.931 0 01.305.698c0 .3-.102.552-.305.756a.953.953 0 01-.698.29zm5.967.117c-.891 0-1.647-.223-2.267-.67-.611-.455-1.076-1.084-1.396-1.889-.31-.804-.465-1.744-.465-2.82 0-1.056.16-1.981.48-2.776.319-.805.785-1.43 1.395-1.875.62-.446 1.366-.669 2.239-.669.872 0 1.613.223 2.224.669.61.445 1.07 1.07 1.381 1.875.319.804.479 1.73.479 2.776 0 1.076-.155 2.02-.465 2.835-.31.804-.77 1.43-1.381 1.875-.61.446-1.352.669-2.224.669zm0-1.454c.775 0 1.376-.344 1.803-1.032.436-.688.654-1.652.654-2.893 0-1.211-.218-2.156-.654-2.834-.436-.688-1.042-1.032-1.817-1.032-.785 0-1.401.344-1.846 1.032-.437.678-.655 1.623-.655 2.834 0 1.24.223 2.205.669 2.893.446.688 1.061 1.032 1.846 1.032zm8.882 1.439c-.669 0-1.26-.111-1.774-.334a3.257 3.257 0 01-1.221-.901 3.496 3.496 0 01-.668-1.294l1.41-.509c.155.484.412.877.77 1.177.368.3.848.451 1.439.451.65 0 1.173-.165 1.57-.494.397-.34.596-.785.596-1.337 0-.543-.199-.96-.596-1.25-.387-.291-.92-.437-1.599-.437h-.712v-1.308h.698c.6 0 1.061-.14 1.381-.422a1.41 1.41 0 00.494-1.104c0-.465-.17-.829-.509-1.09-.329-.272-.766-.407-1.308-.407-.533 0-.964.135-1.294.407-.329.27-.572.644-.727 1.119l-1.395-.48c.242-.765.649-1.366 1.221-1.802.572-.446 1.318-.669 2.238-.669.698 0 1.299.126 1.803.378.504.242.882.577 1.134 1.003.261.426.392.896.392 1.41 0 .465-.111.887-.334 1.265-.223.378-.557.688-1.003.93.591.232 1.027.567 1.308 1.003.291.436.436.94.436 1.512 0 .6-.15 1.143-.45 1.628-.291.484-.722.867-1.294 1.148-.562.271-1.231.407-2.006.407zm12.355.015c-.747 0-1.401-.165-1.963-.495a3.49 3.49 0 01-1.308-1.395c-.3-.6-.451-1.28-.451-2.035 0-.737.146-1.4.436-1.992.301-.6.727-1.07 1.28-1.41.562-.339 1.221-.508 1.977-.508.717 0 1.332.16 1.846.48.513.32.901.775 1.163 1.366.261.581.392 1.26.392 2.035 0 .145-.005.276-.015.392h-5.567c.049.756.267 1.328.654 1.715.388.378.911.567 1.57.567.494 0 .897-.116 1.207-.349.31-.232.571-.557.785-.973l1.25.465c-.291.688-.713 1.216-1.265 1.584-.552.368-1.216.553-1.991.553zm1.86-4.652c-.039-.61-.228-1.076-.567-1.395-.329-.33-.77-.495-1.322-.495-.582 0-1.057.165-1.425.495-.368.32-.606.785-.712 1.395h4.026zm5.235 4.593c-.504 0-.944-.096-1.322-.29a2.131 2.131 0 01-.844-.814 2.224 2.224 0 01-.29-1.12c0-.717.276-1.279.828-1.686.553-.407 1.318-.61 2.297-.61h1.701v-.625c0-.388-.136-.703-.407-.945-.262-.252-.635-.378-1.12-.378-.445 0-.809.116-1.09.349-.271.223-.46.533-.567.93l-1.497-.247c.116-.504.32-.93.611-1.28.29-.348.649-.61 1.075-.784a3.783 3.783 0 011.483-.276c.62 0 1.158.111 1.613.334a2.45 2.45 0 011.047.93c.252.388.378.843.378 1.367v4.971h-1.526v-1.265a2.663 2.663 0 01-.945 1.047c-.397.262-.872.392-1.425.392zm.436-1.22c.378 0 .713-.093 1.003-.277.291-.194.519-.44.684-.741.164-.31.247-.635.247-.974v-.32h-1.41c-.611 0-1.081.102-1.41.305a.975.975 0 00-.48.873c0 .349.126.625.378.828.252.204.581.305.988.305zm8.808 1.264c-.746 0-1.405-.165-1.977-.494a3.391 3.391 0 01-1.308-1.381c-.31-.591-.465-1.265-.465-2.02 0-.747.15-1.416.45-2.007.311-.6.747-1.07 1.309-1.41.571-.339 1.235-.508 1.991-.508.572 0 1.081.106 1.526.32.456.203.829.498 1.12.886.29.378.499.819.625 1.323l-1.468.29a2.23 2.23 0 00-.64-1.06c-.3-.272-.688-.407-1.163-.407-.455 0-.848.116-1.177.348-.32.223-.562.529-.727.916a3.272 3.272 0 00-.247 1.294c0 .484.082.92.247 1.308.165.388.407.693.727.916.329.223.722.334 1.177.334.465 0 .853-.13 1.163-.392.32-.272.538-.616.654-1.032l1.454.276a3.248 3.248 0 01-.596 1.294 2.98 2.98 0 01-1.12.886c-.445.213-.964.32-1.555.32zm4.778-.218V53.281h1.541v4.26c.242-.417.562-.742.959-.974a2.767 2.767 0 011.396-.35c.833 0 1.483.267 1.948.8.465.533.698 1.27.698 2.21v4.593h-1.556v-4.463c0-.59-.131-1.041-.392-1.351-.262-.31-.65-.466-1.163-.466-.378 0-.708.102-.989.306-.281.194-.504.47-.668.828-.155.359-.233.776-.233 1.25v3.896h-1.541zm7.762 1.788a10.014 10.014 0 001.323-2.864c.301-1.046.451-2.122.451-3.227 0-1.114-.15-2.2-.451-3.256-.3-1.066-.746-2.05-1.337-2.95l1.163-.785a12.256 12.256 0 011.526 3.328c.349 1.192.523 2.413.523 3.663 0 1.24-.174 2.452-.523 3.634a11.386 11.386 0 01-1.512 3.242l-1.163-.785z"/><path stroke="#000" stroke-opacity="0.25" stroke-width="0.303" d="M0.758 77.609L322.242 77.609"/><path fill="#fff" d="M1 89.76c0-6.627 5.373-12 12-12h297c6.627 0 12 5.373 12 12v14.88c0 6.627-5.373 12-12 12H13c-6.627 0-12-5.373-12-12V89.76z"/><path fill="#088FE9" d="M68.223 102.7v-1.425l3.998-3.357c.358-.3.64-.562.843-.785.213-.223.392-.47.538-.742.145-.28.218-.59.218-.93 0-.543-.18-.974-.538-1.294-.35-.33-.824-.494-1.425-.494-.62 0-1.105.18-1.454.538-.339.349-.571.785-.697 1.308l-1.541-.363a3.82 3.82 0 01.581-1.41c.3-.446.708-.81 1.222-1.09.523-.281 1.148-.422 1.875-.422.717 0 1.347.136 1.89.407.542.271.963.65 1.264 1.134.3.475.45.993.45 1.555 0 .61-.11 1.134-.334 1.57a4.37 4.37 0 01-.785 1.134c-.31.32-.702.683-1.177 1.09l-2.544 2.151h4.87v1.425h-7.254zm17.412.233c-1.017 0-1.909-.228-2.674-.684a4.63 4.63 0 01-1.774-1.889c-.416-.805-.625-1.72-.625-2.748 0-1.027.209-1.947.625-2.761a4.708 4.708 0 011.774-1.92c.765-.464 1.657-.697 2.674-.697 1.018 0 1.905.233 2.66.698a4.497 4.497 0 011.76 1.918c.406.815.61 1.735.61 2.762 0 1.028-.204 1.943-.61 2.748a4.533 4.533 0 01-1.76 1.889c-.755.456-1.642.684-2.66.684zm-.014-1.454c.698 0 1.303-.16 1.817-.48a3.18 3.18 0 001.177-1.366c.281-.581.422-1.255.422-2.02 0-.766-.14-1.445-.422-2.036a3.26 3.26 0 00-1.192-1.38c-.513-.34-1.114-.51-1.802-.51-.678 0-1.28.17-1.803.51a3.26 3.26 0 00-1.192 1.38c-.28.591-.421 1.27-.421 2.035 0 .766.14 1.44.421 2.02A3.276 3.276 0 0083.818 101c.514.32 1.115.48 1.803.48zm9.528 1.366c-.746 0-1.284-.174-1.614-.523-.33-.358-.494-.862-.494-1.512v-4.2h-1.177v-1.28h1.177v-1.904h1.556v1.904h1.555v1.28h-1.555v4.128c0 .281.077.484.232.61.155.116.388.175.698.175.155 0 .358-.02.61-.059v1.251a3.97 3.97 0 01-.988.13zm2.569-.145V92.161h1.54v4.26c.243-.417.563-.742.96-.975a2.762 2.762 0 011.395-.348c.834 0 1.483.266 1.948.8.465.532.698 1.269.698 2.209v4.593h-1.555v-4.463c0-.59-.131-1.041-.393-1.351-.261-.31-.649-.466-1.163-.466-.378 0-.707.102-.988.306a1.98 1.98 0 00-.669.828c-.155.359-.232.775-.232 1.25v3.896h-1.541zm11.858.233c-.746 0-1.4-.165-1.962-.495a3.484 3.484 0 01-1.309-1.395c-.3-.601-.45-1.28-.45-2.035 0-.737.145-1.4.436-1.992a3.4 3.4 0 011.279-1.41c.562-.339 1.221-.508 1.977-.508.717 0 1.332.16 1.846.48.514.32.901.775 1.163 1.366.261.581.392 1.26.392 2.035 0 .145-.005.276-.014.392h-5.568c.049.756.267 1.328.655 1.716.387.377.91.566 1.569.566.495 0 .897-.116 1.207-.348.31-.233.572-.558.785-.974l1.25.465c-.291.688-.712 1.216-1.265 1.584-.552.368-1.216.553-1.991.553zm1.861-4.652c-.039-.61-.228-1.076-.567-1.395-.33-.33-.771-.495-1.323-.495-.582 0-1.056.165-1.425.495-.368.32-.605.785-.712 1.395h4.027zm3.244 4.419v-7.37h1.556v1.294c.193-.426.455-.76.785-1.003.339-.242.741-.363 1.206-.363.087 0 .165.004.233.014a.95.95 0 01.232.03v1.467a2.445 2.445 0 00-.48-.043c-.591 0-1.07.208-1.439.625-.358.416-.537.983-.537 1.7v3.649h-1.556zm9.177 0V92.452h4.666c1.056 0 1.87.286 2.442.858.581.562.872 1.322.872 2.282 0 .95-.291 1.71-.872 2.282-.572.572-1.386.858-2.442.858h-3.067v3.968h-1.599zm4.506-5.364c.591 0 1.047-.15 1.366-.45.32-.31.48-.742.48-1.294 0-.562-.16-.993-.48-1.294-.319-.3-.775-.45-1.366-.45h-2.907v3.488h2.907zm8.027 5.597c-.746 0-1.4-.165-1.962-.495a3.484 3.484 0 01-1.309-1.395c-.3-.601-.45-1.28-.45-2.035 0-.737.145-1.4.436-1.992a3.4 3.4 0 011.279-1.41c.562-.339 1.221-.508 1.977-.508.717 0 1.332.16 1.846.48.514.32.901.775 1.163 1.366.261.581.392 1.26.392 2.035 0 .145-.005.276-.014.392h-5.568c.049.756.267 1.328.655 1.716.387.377.91.566 1.569.566.495 0 .897-.116 1.207-.348.31-.233.572-.558.785-.974l1.25.465c-.291.688-.712 1.216-1.265 1.584-.552.368-1.216.553-1.991.553zm1.861-4.652c-.039-.61-.228-1.076-.567-1.395-.33-.33-.771-.495-1.323-.495-.582 0-1.056.165-1.425.495-.368.32-.605.785-.712 1.395h4.027zm6.543 4.652c-.727 0-1.371-.165-1.933-.495a3.485 3.485 0 01-1.323-1.381c-.32-.591-.48-1.269-.48-2.035 0-.756.155-1.429.465-2.02a3.47 3.47 0 011.323-1.396c.572-.339 1.226-.508 1.962-.508.718 0 1.357.17 1.919.508.562.33.998.795 1.308 1.396.32.591.48 1.264.48 2.02s-.16 1.435-.48 2.035a3.383 3.383 0 01-1.308 1.381c-.562.33-1.206.495-1.933.495zm0-1.323c.436 0 .814-.102 1.134-.305.32-.214.562-.514.727-.902.174-.387.261-.848.261-1.38 0-.534-.087-.994-.261-1.382-.165-.397-.407-.697-.727-.9-.32-.214-.698-.32-1.134-.32-.436 0-.814.106-1.134.32a2.07 2.07 0 00-.741.9c-.175.388-.262.848-.262 1.381 0 .524.087.979.262 1.367.174.387.421.688.741.901.33.213.708.32 1.134.32zm5.446 3.852V95.33h1.54v1.061a2.915 2.915 0 011.062-.945 2.865 2.865 0 011.395-.348c.669 0 1.26.17 1.773.508.524.33.926.795 1.207 1.396.291.591.436 1.264.436 2.02s-.145 1.43-.436 2.021a3.318 3.318 0 01-1.207 1.395c-.513.33-1.104.495-1.773.495-.504 0-.969-.112-1.395-.335a3.089 3.089 0 01-1.062-.945v3.809h-1.54zm3.663-3.867c.436 0 .814-.101 1.133-.305.33-.213.582-.514.756-.901.175-.388.262-.843.262-1.367 0-.794-.194-1.424-.581-1.89-.388-.464-.911-.697-1.57-.697-.65 0-1.168.233-1.556.698-.378.465-.567 1.095-.567 1.89 0 .523.088.978.262 1.366.174.387.422.688.741.901.32.204.693.305 1.12.305zm5.348 1.105V92.161h1.54V102.7h-1.54zm6.864.233c-.746 0-1.4-.165-1.962-.495a3.491 3.491 0 01-1.309-1.395c-.3-.601-.45-1.28-.45-2.035 0-.737.145-1.4.436-1.992a3.4 3.4 0 011.279-1.41c.562-.339 1.221-.508 1.977-.508.717 0 1.332.16 1.846.48.514.32.901.775 1.163 1.366.262.581.392 1.26.392 2.035 0 .145-.005.276-.014.392h-5.567c.048.756.266 1.328.654 1.716.387.377.911.566 1.57.566.494 0 .896-.116 1.206-.348.31-.233.572-.558.785-.974l1.25.465c-.291.688-.712 1.216-1.265 1.584-.552.368-1.216.553-1.991.553zm1.861-4.652c-.039-.61-.228-1.076-.567-1.395-.33-.33-.771-.495-1.323-.495-.582 0-1.056.165-1.425.495-.368.32-.605.785-.712 1.395h4.027zm8.48 6.992a12.02 12.02 0 01-1.541-3.314 13.485 13.485 0 01-.509-3.678c0-1.24.17-2.447.509-3.62a11.656 11.656 0 011.526-3.255l1.163.784a10.351 10.351 0 00-1.337 2.864 11.616 11.616 0 00-.451 3.227c0 1.114.15 2.205.451 3.271a10.91 10.91 0 001.352 2.936l-1.163.785zm7.977-2.399c-.397 0-.721-.029-.973-.087a6.95 6.95 0 01-.829-.218 3.702 3.702 0 00-.625-.174 2.624 2.624 0 00-.596-.058c-.339 0-.644.034-.916.101a4.476 4.476 0 00-.785.247l-.102.059-.581-1.221c.611-.34 1.061-.684 1.352-1.032.3-.359.451-.747.451-1.163 0-.184-.025-.359-.073-.524a2.222 2.222 0 00-.218-.494h-1.701v-1.192h1.09a5.291 5.291 0 01-.305-.785 3.774 3.774 0 01-.102-.915c0-.64.146-1.197.436-1.672a2.95 2.95 0 011.28-1.12c.552-.261 1.196-.392 1.933-.392.688 0 1.279.13 1.773.392s.877.616 1.149 1.062c.281.436.47.925.566 1.468l-1.526.392c-.097-.533-.31-.974-.639-1.323-.32-.358-.776-.537-1.367-.537-.61 0-1.095.164-1.453.494-.359.32-.538.76-.538 1.323 0 .29.043.557.131.8.087.241.208.513.363.813h2.893v1.192h-2.442c.029.068.053.136.072.204.029.068.054.14.073.218.048.164.073.339.073.523 0 .64-.204 1.236-.611 1.788.078-.01.199-.015.364-.015.242 0 .455.02.639.059.194.029.383.077.567.145.165.058.325.102.48.131.164.029.339.043.523.043.281 0 .514-.058.698-.174.184-.116.315-.32.392-.611l1.425.422c-.117.572-.378 1.022-.785 1.352-.398.32-.916.479-1.556.479zm7.97.059c-.785 0-1.478-.18-2.079-.538-.601-.359-1.075-.921-1.424-1.686-.349-.776-.524-1.754-.524-2.937 0-1.153.165-2.141.495-2.965.329-.834.804-1.468 1.424-1.904.63-.446 1.381-.669 2.253-.669.882 0 1.604.238 2.166.712.562.466.974 1.11 1.236 1.934l-1.599.32c-.155-.475-.383-.849-.684-1.12-.3-.271-.692-.407-1.177-.407-.727 0-1.308.3-1.744.901-.427.591-.669 1.522-.727 2.791a3.06 3.06 0 011.148-1.046 3.479 3.479 0 011.628-.378c.64 0 1.217.14 1.73.421.514.281.916.684 1.207 1.207.3.513.45 1.105.45 1.773 0 .698-.169 1.318-.509 1.861a3.474 3.474 0 01-1.366 1.279 4.09 4.09 0 01-1.904.451zm0-1.367c.426 0 .799-.097 1.119-.291.33-.193.582-.455.756-.784a2.26 2.26 0 00.276-1.12c0-.416-.087-.79-.261-1.119a1.896 1.896 0 00-.742-.77 2.118 2.118 0 00-1.119-.291c-.426 0-.804.097-1.134.29a1.99 1.99 0 00-.756.771c-.174.32-.261.688-.261 1.105 0 .407.087.78.261 1.119.175.339.422.606.742.799a2.11 2.11 0 001.119.291zm5.788 1.25c-.3 0-.552-.097-.756-.29a1.058 1.058 0 01-.29-.756c0-.272.097-.504.29-.698.204-.204.456-.305.756-.305.272 0 .504.101.698.305a.93.93 0 01.305.698c0 .3-.102.552-.305.756a.954.954 0 01-.698.29zm5.967.117c-.891 0-1.647-.223-2.267-.669-.611-.456-1.076-1.085-1.396-1.89-.31-.804-.465-1.744-.465-2.82 0-1.056.16-1.981.48-2.776.32-.805.785-1.43 1.395-1.875.62-.446 1.367-.669 2.239-.669.872 0 1.613.223 2.224.669.61.445 1.071 1.07 1.381 1.875.32.804.479 1.73.479 2.776 0 1.076-.155 2.02-.465 2.835-.31.804-.77 1.429-1.381 1.875-.61.446-1.352.669-2.224.669zm0-1.454c.776 0 1.376-.344 1.803-1.032.436-.688.654-1.652.654-2.893 0-1.211-.218-2.156-.654-2.834-.436-.688-1.042-1.032-1.817-1.032-.785 0-1.401.344-1.846 1.032-.436.678-.654 1.623-.654 2.834 0 1.24.222 2.205.668 2.893.446.688 1.061 1.032 1.846 1.032zm7.614 1.221v-8.344l-2.282 1.512v-1.7l2.514-1.701h1.367V102.7h-1.599zm10.812.233c-.746 0-1.4-.165-1.962-.495a3.498 3.498 0 01-1.309-1.395c-.3-.601-.45-1.28-.45-2.035 0-.737.145-1.4.436-1.992a3.4 3.4 0 011.279-1.41c.562-.339 1.221-.508 1.977-.508.717 0 1.333.16 1.846.48.514.32.901.775 1.163 1.366.262.581.392 1.26.392 2.035 0 .145-.004.276-.014.392h-5.567c.048.756.266 1.328.654 1.716.387.377.911.566 1.57.566.494 0 .896-.116 1.206-.348.31-.233.572-.558.785-.974l1.25.465c-.291.688-.712 1.216-1.264 1.584-.553.368-1.217.553-1.992.553zm1.861-4.652c-.039-.61-.228-1.076-.567-1.395-.33-.33-.771-.495-1.323-.495-.581 0-1.056.165-1.424.495-.369.32-.606.785-.713 1.395h4.027zm5.235 4.593c-.504 0-.945-.096-1.323-.29a2.14 2.14 0 01-.843-.814 2.217 2.217 0 01-.291-1.12c0-.717.276-1.279.829-1.686.552-.407 1.318-.61 2.297-.61h1.7v-.625c0-.388-.135-.703-.407-.945-.261-.252-.635-.378-1.119-.378-.446 0-.809.116-1.09.349-.272.223-.461.533-.567.93l-1.497-.247c.116-.504.319-.93.61-1.28.291-.348.649-.61 1.076-.784.436-.184.93-.276 1.482-.276.621 0 1.159.111 1.614.334a2.46 2.46 0 011.047.93c.252.388.378.843.378 1.367v4.971h-1.527v-1.265a2.666 2.666 0 01-.945 1.047c-.397.262-.872.392-1.424.392zm.436-1.221c.378 0 .712-.092 1.003-.276a2.046 2.046 0 00.93-1.715v-.32h-1.41c-.61 0-1.08.102-1.41.305a.975.975 0 00-.479.873c0 .348.126.625.377.828.252.204.582.305.989.305zm8.808 1.265c-.747 0-1.406-.165-1.977-.494a3.404 3.404 0 01-1.309-1.381c-.31-.591-.465-1.265-.465-2.02 0-.747.151-1.415.451-2.007.31-.6.746-1.07 1.308-1.41.572-.339 1.236-.508 1.992-.508.571 0 1.08.106 1.526.32.455.203.828.498 1.119.886.291.378.499.819.625 1.323l-1.468.29a2.227 2.227 0 00-.639-1.06c-.301-.272-.689-.407-1.163-.407-.456 0-.848.116-1.178.348-.32.223-.562.528-.727.916a3.29 3.29 0 00-.247 1.294c0 .484.083.92.247 1.308.165.388.407.693.727.916.33.223.722.334 1.178.334.465 0 .852-.131 1.163-.392.319-.272.537-.616.654-1.032l1.453.276a3.225 3.225 0 01-.596 1.294c-.29.377-.664.673-1.119.886-.446.213-.964.32-1.555.32zm4.778-.218V92.161h1.541v4.26c.242-.417.562-.742.959-.975a2.762 2.762 0 011.395-.348c.834 0 1.483.266 1.948.8.465.532.698 1.269.698 2.209v4.593h-1.555v-4.463c0-.59-.131-1.041-.393-1.351-.261-.31-.649-.466-1.163-.466-.378 0-.707.102-.988.306-.281.194-.504.47-.669.828-.155.359-.232.775-.232 1.25v3.896h-1.541zm7.762 1.788a10.073 10.073 0 001.323-2.864c.3-1.046.45-2.122.45-3.227 0-1.114-.15-2.2-.45-3.256a10.596 10.596 0 00-1.338-2.95l1.163-.785a12.196 12.196 0 011.526 3.328 12.97 12.97 0 010 7.297 11.414 11.414 0 01-1.511 3.242l-1.163-.785z"/><path stroke="#000" stroke-opacity="0.25" stroke-width="0.303" d="M0.758 116.489L322.242 116.489"/><path fill="#fff" d="M1 128.64c0-6.627 5.373-12 12-12h297c6.627 0 12 5.373 12 12v14.88c0 6.627-5.373 12-12 12H13c-6.627 0-12-5.373-12-12v-14.88z"/><path fill="#088FE9" d="M72.273 141.798c-.669 0-1.26-.111-1.774-.334a3.245 3.245 0 01-1.22-.902 3.498 3.498 0 01-.67-1.293l1.41-.509c.156.485.413.877.771 1.177.368.301.848.451 1.44.451.648 0 1.172-.165 1.57-.494.396-.339.595-.785.595-1.337 0-.543-.199-.96-.596-1.251-.388-.29-.92-.436-1.599-.436h-.712v-1.308h.698c.6 0 1.06-.14 1.38-.421a1.41 1.41 0 00.495-1.105c0-.465-.17-.829-.509-1.09-.33-.272-.766-.407-1.308-.407-.533 0-.965.135-1.294.407-.33.271-.572.644-.727 1.119l-1.395-.48c.242-.765.65-1.366 1.22-1.802.573-.446 1.319-.669 2.24-.669.697 0 1.298.126 1.802.378.504.242.882.577 1.134 1.003.261.426.392.896.392 1.41 0 .465-.111.887-.334 1.265-.223.378-.557.688-1.003.93.59.233 1.027.567 1.308 1.003.29.436.436.94.436 1.512 0 .6-.15 1.143-.45 1.628-.291.484-.722.867-1.294 1.148-.562.271-1.23.407-2.006.407zm13.866.015c-1.017 0-1.909-.228-2.674-.684a4.63 4.63 0 01-1.774-1.889c-.416-.805-.625-1.72-.625-2.748 0-1.027.209-1.947.625-2.761a4.708 4.708 0 011.774-1.919c.765-.465 1.657-.698 2.674-.698 1.018 0 1.904.233 2.66.698a4.493 4.493 0 011.76 1.919c.406.814.61 1.734.61 2.761 0 1.028-.204 1.943-.61 2.748a4.533 4.533 0 01-1.76 1.889c-.756.456-1.642.684-2.66.684zm-.014-1.454c.698 0 1.303-.16 1.817-.48a3.18 3.18 0 001.177-1.366c.281-.582.422-1.255.422-2.021 0-.765-.14-1.444-.422-2.035a3.264 3.264 0 00-1.192-1.381c-.513-.339-1.114-.508-1.802-.508-.679 0-1.28.169-1.803.508-.513.33-.91.79-1.192 1.381-.28.591-.421 1.27-.421 2.035 0 .766.14 1.439.421 2.021a3.276 3.276 0 001.192 1.366c.514.32 1.115.48 1.803.48zm9.528 1.366c-.746 0-1.284-.174-1.614-.523-.33-.358-.494-.862-.494-1.512v-4.201h-1.177v-1.279h1.177v-1.904H95.1v1.904h1.556v1.279H95.1v4.129c0 .281.078.484.233.61.155.116.388.175.698.175.155 0 .358-.02.61-.059v1.251c-.339.087-.668.13-.988.13zm2.569-.145v-10.539h1.54v4.259c.243-.416.563-.741.96-.973a2.757 2.757 0 011.395-.349c.834 0 1.483.266 1.948.799.465.533.698 1.27.698 2.21v4.593h-1.555v-4.463c0-.591-.131-1.041-.393-1.351-.262-.311-.649-.466-1.163-.466-.378 0-.707.102-.988.306-.281.194-.504.47-.669.828-.155.359-.233.776-.233 1.25v3.896h-1.54zm11.858.233c-.746 0-1.4-.165-1.963-.495a3.489 3.489 0 01-1.308-1.395c-.3-.601-.45-1.279-.45-2.035 0-.737.145-1.4.436-1.992.3-.6.726-1.07 1.279-1.41.562-.339 1.221-.508 1.977-.508.717 0 1.332.16 1.846.479.513.32.901.776 1.163 1.367.261.581.392 1.26.392 2.035a5.1 5.1 0 01-.014.392h-5.568c.049.756.267 1.328.654 1.716.388.377.911.566 1.57.566.495 0 .897-.116 1.207-.348.31-.233.572-.558.785-.974l1.25.465c-.291.688-.712 1.216-1.265 1.584-.552.368-1.216.553-1.991.553zm1.86-4.652c-.038-.61-.227-1.076-.566-1.395-.33-.33-.771-.495-1.323-.495-.582 0-1.057.165-1.425.495-.368.319-.605.785-.712 1.395h4.026zm3.245 4.419v-7.37h1.556v1.294c.193-.426.455-.761.784-1.003.34-.242.742-.363 1.207-.363.087 0 .165.004.233.014a.97.97 0 01.232.029v1.468a2.454 2.454 0 00-.48-.043c-.591 0-1.07.208-1.439.625-.358.416-.537.983-.537 1.7v3.649h-1.556zm9.177 0v-10.248h4.666c1.056 0 1.87.286 2.442.858.581.562.872 1.323.872 2.282 0 .95-.291 1.71-.872 2.282-.572.572-1.386.858-2.442.858h-3.067v3.968h-1.599zm4.506-5.364c.591 0 1.047-.15 1.366-.45.32-.311.48-.742.48-1.294 0-.562-.16-.993-.48-1.294-.319-.3-.775-.45-1.366-.45h-2.907v3.488h2.907zm8.027 5.597c-.746 0-1.4-.165-1.963-.495a3.489 3.489 0 01-1.308-1.395c-.3-.601-.45-1.279-.45-2.035 0-.737.145-1.4.436-1.992.3-.6.727-1.07 1.279-1.41.562-.339 1.221-.508 1.977-.508.717 0 1.332.16 1.846.479.513.32.901.776 1.163 1.367.261.581.392 1.26.392 2.035a5.1 5.1 0 01-.014.392h-5.568c.049.756.267 1.328.654 1.716.388.377.911.566 1.57.566.495 0 .897-.116 1.207-.348.31-.233.572-.558.785-.974l1.25.465c-.291.688-.712 1.216-1.265 1.584-.552.368-1.216.553-1.991.553zm1.86-4.652c-.038-.61-.227-1.076-.566-1.395-.33-.33-.771-.495-1.323-.495-.582 0-1.057.165-1.425.495-.368.319-.605.785-.712 1.395h4.026zm6.544 4.652c-.727 0-1.371-.165-1.933-.495a3.478 3.478 0 01-1.323-1.381c-.32-.591-.48-1.269-.48-2.035 0-.755.155-1.429.465-2.02a3.473 3.473 0 011.323-1.396c.572-.339 1.226-.508 1.962-.508.717 0 1.357.169 1.919.508.562.33.998.795 1.308 1.396.32.591.48 1.265.48 2.02 0 .756-.16 1.435-.48 2.035a3.383 3.383 0 01-1.308 1.381c-.562.33-1.206.495-1.933.495zm0-1.323c.436 0 .814-.102 1.134-.305.319-.214.562-.514.726-.902.175-.387.262-.848.262-1.381s-.087-.993-.262-1.381c-.164-.397-.407-.697-.726-.901-.32-.213-.698-.32-1.134-.32-.436 0-.814.107-1.134.32-.32.213-.567.514-.741.901-.175.388-.262.848-.262 1.381 0 .524.087.979.262 1.367.174.387.421.688.741.901.33.213.707.32 1.134.32zm5.446 3.852V134.21h1.54v1.061a2.91 2.91 0 011.061-.944 2.866 2.866 0 011.396-.349c.669 0 1.26.169 1.773.508.524.33.926.795 1.207 1.396.291.591.436 1.265.436 2.02 0 .756-.145 1.43-.436 2.021a3.318 3.318 0 01-1.207 1.395c-.513.33-1.104.495-1.773.495a2.97 2.97 0 01-1.396-.335 3.094 3.094 0 01-1.061-.945v3.809h-1.54zm3.663-3.867c.436 0 .814-.101 1.133-.305.33-.213.582-.514.756-.901.175-.388.262-.843.262-1.367 0-.794-.194-1.424-.581-1.889-.388-.465-.911-.698-1.57-.698-.65 0-1.168.233-1.556.698-.378.465-.567 1.095-.567 1.889 0 .524.088.979.262 1.367.174.387.422.688.741.901.32.204.693.305 1.12.305zm5.348 1.105v-10.539h1.54v10.539h-1.54zm6.864.233c-.746 0-1.4-.165-1.962-.495a3.491 3.491 0 01-1.309-1.395c-.3-.601-.45-1.279-.45-2.035 0-.737.145-1.4.436-1.992.3-.6.727-1.07 1.279-1.41.562-.339 1.221-.508 1.977-.508.717 0 1.332.16 1.846.479.514.32.901.776 1.163 1.367.261.581.392 1.26.392 2.035a5.1 5.1 0 01-.014.392h-5.568c.049.756.267 1.328.655 1.716.387.377.91.566 1.569.566.495 0 .897-.116 1.207-.348.31-.233.572-.558.785-.974l1.25.465c-.291.688-.712 1.216-1.265 1.584-.552.368-1.216.553-1.991.553zm1.861-4.652c-.039-.61-.228-1.076-.567-1.395-.33-.33-.771-.495-1.323-.495-.582 0-1.056.165-1.425.495-.368.319-.605.785-.712 1.395h4.027zm8.48 6.992a12.02 12.02 0 01-1.541-3.314 13.487 13.487 0 01-.509-3.678c0-1.24.17-2.447.509-3.619a11.64 11.64 0 011.526-3.256l1.163.784a10.356 10.356 0 00-1.337 2.864 11.618 11.618 0 00-.451 3.227c0 1.114.15 2.205.451 3.271.31 1.056.76 2.035 1.351 2.936l-1.162.785zm7.977-2.399c-.397 0-.722-.029-.974-.087a6.987 6.987 0 01-.828-.218 3.702 3.702 0 00-.625-.174 2.63 2.63 0 00-.596-.058c-.339 0-.645.034-.916.101a4.476 4.476 0 00-.785.247l-.102.059-.581-1.221c.611-.34 1.061-.684 1.352-1.032.3-.359.45-.747.45-1.163 0-.184-.024-.359-.072-.524a2.24 2.24 0 00-.218-.494h-1.701v-1.192h1.09a5.249 5.249 0 01-.305-.785 3.77 3.77 0 01-.102-.916c0-.639.146-1.196.436-1.671a2.945 2.945 0 011.279-1.119c.553-.262 1.197-.393 1.934-.393.688 0 1.279.131 1.773.393.494.261.877.615 1.149 1.061.281.436.47.925.566 1.468l-1.526.392c-.097-.533-.31-.974-.639-1.322-.32-.359-.776-.538-1.367-.538-.61 0-1.095.164-1.453.494-.359.32-.538.761-.538 1.323 0 .29.043.557.131.799.087.242.208.514.363.814h2.893v1.192h-2.442c.029.068.053.136.072.204.029.067.054.14.073.218.048.164.073.339.073.523 0 .64-.204 1.236-.611 1.788a3.15 3.15 0 01.363-.015c.243 0 .456.02.64.059.194.029.383.077.567.145.165.058.325.102.48.131.164.029.339.043.523.043.281 0 .514-.058.698-.174.184-.116.315-.32.392-.611l1.425.422c-.117.572-.378 1.022-.785 1.352-.398.32-.916.479-1.556.479zm8.277-.174v-2.384h-4.84v-1.294l4.986-6.555h1.453v6.439h1.483v1.41h-1.483v2.384h-1.599zm-3.11-3.794h3.11v-4.07l-3.11 4.07zm8.165 3.91c-.3 0-.552-.097-.756-.29a1.058 1.058 0 01-.29-.756c0-.272.097-.504.29-.698.204-.204.456-.305.756-.305.272 0 .504.101.698.305a.927.927 0 01.305.698c0 .3-.101.552-.305.756a.954.954 0 01-.698.29zm5.798.117c-.659 0-1.24-.117-1.744-.349a3.58 3.58 0 01-1.25-.931 3.523 3.523 0 01-.684-1.308l1.556-.407c.155.475.416.848.785 1.119.368.272.823.407 1.366.407.669 0 1.202-.189 1.599-.566.397-.378.596-.897.596-1.556 0-.62-.194-1.114-.581-1.482-.388-.378-.907-.567-1.556-.567-.494 0-.906.101-1.235.305-.33.194-.596.417-.8.669l-1.439-.262.669-5.538h6.09v1.424h-4.695l-.334 2.747c.271-.203.581-.363.93-.479a3.912 3.912 0 011.207-.175c.678 0 1.269.141 1.773.422.514.281.906.678 1.177 1.192.281.504.422 1.085.422 1.744 0 .708-.16 1.333-.48 1.875-.31.533-.756.955-1.337 1.265-.581.3-1.26.451-2.035.451zm7.158-.233v-8.344l-2.282 1.512v-1.701l2.515-1.7h1.366v10.233h-1.599zm10.813.233c-.747 0-1.401-.165-1.963-.495a3.489 3.489 0 01-1.308-1.395c-.3-.601-.451-1.279-.451-2.035 0-.737.146-1.4.436-1.992.301-.6.727-1.07 1.28-1.41.562-.339 1.221-.508 1.977-.508.717 0 1.332.16 1.846.479.513.32.901.776 1.162 1.367.262.581.393 1.26.393 2.035 0 .145-.005.276-.015.392h-5.567c.049.756.267 1.328.654 1.716.388.377.911.566 1.57.566.494 0 .897-.116 1.207-.348.31-.233.571-.558.785-.974l1.25.465c-.291.688-.713 1.216-1.265 1.584-.552.368-1.216.553-1.991.553zm1.86-4.652c-.039-.61-.228-1.076-.567-1.395-.329-.33-.77-.495-1.322-.495-.582 0-1.057.165-1.425.495-.368.319-.606.785-.712 1.395h4.026zm5.235 4.593c-.504 0-.945-.096-1.322-.29a2.136 2.136 0 01-1.134-1.934c0-.717.276-1.279.828-1.686.553-.407 1.318-.61 2.297-.61h1.701v-.625c0-.388-.136-.703-.407-.945-.262-.252-.635-.378-1.12-.378-.445 0-.809.116-1.09.349-.271.223-.46.533-.567.93l-1.497-.247c.116-.504.32-.93.611-1.279.29-.349.649-.611 1.075-.785a3.785 3.785 0 011.483-.276c.62 0 1.158.111 1.613.334.456.223.805.533 1.047.93.252.388.378.843.378 1.367v4.971h-1.526v-1.265a2.666 2.666 0 01-.945 1.047c-.397.262-.872.392-1.425.392zm.436-1.221c.378 0 .713-.092 1.003-.276.291-.194.519-.441.684-.741.164-.31.247-.635.247-.974v-.32h-1.41c-.611 0-1.081.102-1.41.305a.977.977 0 00-.48.873c0 .348.126.625.378.828.252.204.581.305.988.305zm8.808 1.265c-.746 0-1.405-.165-1.977-.494a3.395 3.395 0 01-1.308-1.381c-.31-.591-.465-1.265-.465-2.021 0-.746.15-1.414.45-2.006.311-.6.747-1.07 1.309-1.41.571-.339 1.235-.508 1.991-.508.572 0 1.081.106 1.526.319.456.204.829.5 1.12.887.29.378.499.819.625 1.323l-1.468.291a2.227 2.227 0 00-.64-1.061c-.3-.272-.688-.407-1.163-.407-.455 0-.848.116-1.177.348-.32.223-.562.529-.727.916a3.273 3.273 0 00-.247 1.294c0 .484.082.92.247 1.308.165.388.407.693.727.916.329.223.722.334 1.177.334.465 0 .853-.131 1.163-.392.32-.272.538-.616.654-1.032l1.454.276a3.252 3.252 0 01-.596 1.294 2.976 2.976 0 01-1.12.886c-.445.213-.964.32-1.555.32zm4.778-.218v-10.539h1.541v4.259c.242-.416.562-.741.959-.973a2.76 2.76 0 011.396-.349c.833 0 1.483.266 1.948.799.465.533.697 1.27.697 2.21v4.593h-1.555v-4.463c0-.591-.131-1.041-.392-1.351-.262-.311-.65-.466-1.163-.466a1.64 1.64 0 00-.989.306c-.281.194-.504.47-.668.828-.155.359-.233.776-.233 1.25v3.896h-1.541zm7.762 1.788a10.019 10.019 0 001.323-2.864 11.866 11.866 0 000-6.483 10.576 10.576 0 00-1.337-2.951l1.163-.784a12.254 12.254 0 011.526 3.328 12.97 12.97 0 01.523 3.663c0 1.241-.174 2.452-.523 3.634a11.39 11.39 0 01-1.512 3.242l-1.163-.785z"/><path stroke="#000" stroke-opacity="0.25" stroke-width="0.303" d="M0.758 155.369L322.242 155.369"/><path fill="#fff" d="M1 167.52c0-6.627 5.373-12 12-12h297c6.627 0 12 5.373 12 12v14.88c0 6.627-5.373 12-12 12H13c-6.627 0-12-5.373-12-12v-14.88z"/><path fill="#088FE9" d="M73.793 180.46v-2.384h-4.84v-1.294l4.985-6.555h1.454v6.439h1.483v1.41h-1.483v2.384h-1.599zm-3.11-3.794h3.11v-4.07l-3.11 4.07zm15.999 4.027c-1.018 0-1.91-.228-2.675-.684a4.63 4.63 0 01-1.773-1.889c-.417-.805-.625-1.72-.625-2.748 0-1.027.208-1.947.625-2.761a4.708 4.708 0 011.773-1.919c.766-.465 1.657-.698 2.675-.698 1.017 0 1.904.233 2.66.698a4.494 4.494 0 011.759 1.919c.407.814.61 1.734.61 2.761 0 1.028-.203 1.943-.61 2.748a4.533 4.533 0 01-1.759 1.889c-.756.456-1.643.684-2.66.684zm-.015-1.454c.698 0 1.304-.16 1.817-.48a3.18 3.18 0 001.178-1.366c.28-.582.421-1.255.421-2.021 0-.765-.14-1.444-.421-2.035a3.264 3.264 0 00-1.192-1.381c-.514-.339-1.115-.508-1.803-.508-.678 0-1.279.169-1.802.508-.514.33-.911.79-1.192 1.381-.281.591-.422 1.27-.422 2.035 0 .766.14 1.439.422 2.021a3.277 3.277 0 001.192 1.366c.514.32 1.114.48 1.802.48zm9.528 1.366c-.746 0-1.284-.174-1.613-.523-.33-.358-.494-.862-.494-1.512v-4.201H92.91v-1.279h1.178v-1.904h1.555v1.904h1.555v1.279h-1.555v4.129c0 .281.078.484.233.61.155.116.387.175.697.175.155 0 .359-.02.61-.059v1.251a3.97 3.97 0 01-.988.13zm2.57-.145v-10.539h1.54v4.259c.242-.416.562-.741.959-.973a2.763 2.763 0 011.396-.349c.833 0 1.483.266 1.948.799.465.533.698 1.27.698 2.21v4.593h-1.556v-4.463c0-.591-.131-1.041-.392-1.351-.262-.31-.65-.466-1.163-.466a1.64 1.64 0 00-.989.306c-.281.194-.504.47-.668.828-.155.359-.233.776-.233 1.25v3.896h-1.54zm11.857.233c-.746 0-1.4-.165-1.962-.495a3.489 3.489 0 01-1.308-1.395c-.301-.601-.451-1.279-.451-2.035 0-.737.146-1.4.436-1.992.301-.6.727-1.07 1.279-1.41.563-.339 1.221-.508 1.977-.508.717 0 1.333.16 1.846.479.514.32.902.776 1.163 1.367.262.581.393 1.26.393 2.035 0 .145-.005.276-.015.392h-5.567c.048.756.266 1.328.654 1.716.388.377.911.566 1.57.566.494 0 .896-.116 1.206-.348.311-.233.572-.558.785-.974l1.25.465c-.29.688-.712 1.216-1.264 1.584-.553.368-1.216.553-1.992.553zm1.861-4.652c-.039-.61-.228-1.076-.567-1.395-.329-.33-.77-.495-1.323-.495-.581 0-1.056.165-1.424.495-.368.319-.606.785-.712 1.395h4.026zm3.245 4.419v-7.37h1.555v1.294a2.5 2.5 0 01.785-1.003c.339-.242.741-.363 1.207-.363.087 0 .164.004.232.014.078 0 .155.01.233.029v1.468a2.469 2.469 0 00-.48-.043c-.591 0-1.071.208-1.439.625-.359.416-.538.983-.538 1.7v3.649h-1.555zm9.176 0v-10.248h4.666c1.057 0 1.871.286 2.443.858.581.562.872 1.323.872 2.282 0 .95-.291 1.71-.872 2.282-.572.572-1.386.858-2.443.858h-3.067v3.968h-1.599zm4.507-5.364c.591 0 1.046-.15 1.366-.45.32-.31.48-.742.48-1.294 0-.562-.16-.993-.48-1.294-.32-.3-.775-.45-1.366-.45h-2.908v3.488h2.908zm8.026 5.597c-.746 0-1.4-.165-1.962-.495a3.489 3.489 0 01-1.308-1.395c-.301-.601-.451-1.279-.451-2.035 0-.737.146-1.4.436-1.992.301-.6.727-1.07 1.279-1.41.563-.339 1.221-.508 1.977-.508.717 0 1.333.16 1.846.479.514.32.902.776 1.163 1.367.262.581.393 1.26.393 2.035 0 .145-.005.276-.015.392h-5.567c.048.756.266 1.328.654 1.716.388.377.911.566 1.57.566.494 0 .896-.116 1.206-.348.311-.233.572-.558.785-.974l1.251.465c-.291.688-.713 1.216-1.265 1.584-.552.368-1.216.553-1.992.553zm1.861-4.652c-.039-.61-.228-1.076-.567-1.395-.329-.33-.77-.495-1.323-.495-.581 0-1.056.165-1.424.495-.368.319-.606.785-.712 1.395h4.026zm6.543 4.652c-.726 0-1.371-.165-1.933-.495a3.485 3.485 0 01-1.323-1.381c-.319-.591-.479-1.269-.479-2.035 0-.755.155-1.429.465-2.02a3.473 3.473 0 011.323-1.396c.571-.339 1.225-.508 1.962-.508.717 0 1.357.169 1.919.508.562.33.998.795 1.308 1.396.32.591.48 1.265.48 2.02 0 .756-.16 1.435-.48 2.035a3.383 3.383 0 01-1.308 1.381c-.562.33-1.207.495-1.934.495zm0-1.323c.437 0 .814-.102 1.134-.305.32-.214.562-.514.727-.902.174-.387.262-.848.262-1.381s-.088-.993-.262-1.381c-.165-.397-.407-.697-.727-.901-.32-.213-.697-.32-1.134-.32-.436 0-.814.107-1.133.32a2.08 2.08 0 00-.742.901c-.174.388-.261.848-.261 1.381 0 .524.087.979.261 1.367.175.387.422.688.742.901.329.213.707.32 1.133.32zm5.446 3.852V173.09h1.541v1.061a2.91 2.91 0 011.061-.944 2.863 2.863 0 011.396-.349c.668 0 1.259.169 1.773.508.523.33.925.795 1.206 1.396.291.591.436 1.265.436 2.02 0 .756-.145 1.43-.436 2.021a3.323 3.323 0 01-1.206 1.395c-.514.33-1.105.495-1.773.495-.504 0-.97-.112-1.396-.335a3.094 3.094 0 01-1.061-.945v3.809h-1.541zm3.663-3.867c.436 0 .814-.101 1.134-.305.329-.213.581-.514.756-.901.174-.388.262-.843.262-1.367 0-.794-.194-1.424-.582-1.889-.388-.465-.911-.698-1.57-.698-.649 0-1.168.233-1.555.698-.378.465-.567 1.095-.567 1.889 0 .524.087.979.262 1.367.174.387.421.688.741.901.32.204.693.305 1.119.305zm5.348 1.105v-10.539h1.541v10.539h-1.541zm6.865.233c-.747 0-1.401-.165-1.963-.495a3.489 3.489 0 01-1.308-1.395c-.301-.601-.451-1.279-.451-2.035 0-.737.146-1.4.436-1.992.301-.6.727-1.07 1.28-1.41.562-.339 1.221-.508 1.976-.508.718 0 1.333.16 1.847.479.513.32.901.776 1.162 1.367.262.581.393 1.26.393 2.035 0 .145-.005.276-.015.392h-5.567c.048.756.267 1.328.654 1.716.388.377.911.566 1.57.566.494 0 .896-.116 1.207-.348.31-.233.571-.558.784-.974l1.251.465c-.291.688-.713 1.216-1.265 1.584-.552.368-1.216.553-1.991.553zm1.86-4.652c-.039-.61-.228-1.076-.567-1.395-.329-.33-.77-.495-1.323-.495-.581 0-1.056.165-1.424.495-.368.319-.606.785-.712 1.395h4.026zm8.48 6.992a12.048 12.048 0 01-1.541-3.314 13.486 13.486 0 01-.508-3.678c0-1.24.169-2.447.508-3.619a11.642 11.642 0 011.527-3.256l1.163.784a10.33 10.33 0 00-1.338 2.864c-.3 1.047-.45 2.122-.45 3.227 0 1.114.15 2.205.45 3.271a10.94 10.94 0 001.352 2.936l-1.163.785zm7.978-2.399c-.397 0-.722-.029-.974-.087a6.938 6.938 0 01-.828-.218 3.71 3.71 0 00-.626-.174 2.618 2.618 0 00-.596-.058 3.82 3.82 0 00-.915.101 4.45 4.45 0 00-.785.247l-.102.059-.581-1.221c.61-.34 1.061-.684 1.351-1.032.301-.359.451-.747.451-1.163 0-.184-.024-.359-.073-.524a2.194 2.194 0 00-.218-.494h-1.7v-1.192h1.09a5.143 5.143 0 01-.305-.785 3.77 3.77 0 01-.102-.916c0-.639.145-1.196.436-1.671a2.94 2.94 0 011.279-1.119c.552-.262 1.197-.393 1.933-.393.688 0 1.28.131 1.774.393.494.261.877.615 1.148 1.061.281.436.47.925.567 1.468l-1.526.392c-.097-.533-.31-.974-.64-1.322-.32-.359-.775-.538-1.366-.538-.611 0-1.095.164-1.454.494-.358.32-.538.761-.538 1.323 0 .29.044.557.131.799.087.242.208.514.364.814h2.892v1.192h-2.442c.029.068.053.136.073.204.029.067.053.14.073.218.048.164.072.339.072.523 0 .64-.203 1.236-.61 1.788.077-.01.198-.015.363-.015.242 0 .456.02.64.059.193.029.382.077.567.145.164.058.324.102.479.131.165.029.339.043.524.043.281 0 .513-.058.697-.174.184-.116.315-.32.393-.611l1.424.422c-.116.572-.378 1.022-.785 1.352-.397.32-.915.479-1.555.479zm7.328.044c-.669 0-1.26-.111-1.774-.334a3.243 3.243 0 01-1.221-.902 3.49 3.49 0 01-.668-1.293l1.41-.509c.155.485.412.877.77 1.177.368.301.848.451 1.439.451.649 0 1.173-.165 1.57-.494.397-.339.596-.785.596-1.337 0-.543-.199-.96-.596-1.251-.388-.29-.921-.436-1.599-.436h-.712v-1.308h.698c.6 0 1.061-.14 1.38-.421.33-.291.495-.659.495-1.105 0-.465-.17-.829-.509-1.09-.33-.272-.766-.407-1.308-.407-.533 0-.965.135-1.294.407-.33.271-.572.644-.727 1.119l-1.395-.48c.242-.765.649-1.366 1.221-1.802.571-.446 1.318-.669 2.238-.669.698 0 1.299.126 1.803.378.504.242.882.577 1.134 1.003.261.426.392.896.392 1.41 0 .465-.111.887-.334 1.265-.223.378-.558.688-1.003.93.591.233 1.027.567 1.308 1.003.291.436.436.94.436 1.512 0 .6-.15 1.143-.451 1.628-.29.484-.722.867-1.293 1.148-.562.271-1.231.407-2.006.407zm5.961-.102c-.3 0-.552-.097-.756-.29a1.058 1.058 0 01-.29-.756c0-.272.097-.504.29-.698.204-.204.456-.305.756-.305.272 0 .504.101.698.305a.927.927 0 01.305.698c0 .3-.101.552-.305.756a.954.954 0 01-.698.29zm5.895.117c-.785 0-1.478-.18-2.079-.538-.601-.359-1.076-.921-1.424-1.686-.349-.776-.524-1.754-.524-2.937 0-1.153.165-2.141.494-2.965.33-.833.805-1.468 1.425-1.904.63-.446 1.381-.669 2.253-.669.882 0 1.604.237 2.166.712.562.465.974 1.11 1.236 1.934l-1.599.319c-.156-.474-.383-.848-.684-1.119-.3-.271-.693-.407-1.177-.407-.727 0-1.308.301-1.744.901-.427.592-.669 1.522-.727 2.791a3.066 3.066 0 011.148-1.046 3.476 3.476 0 011.628-.378c.64 0 1.216.14 1.73.421.514.281.916.684 1.206 1.207.301.513.451 1.105.451 1.773 0 .698-.17 1.318-.509 1.861a3.48 3.48 0 01-1.366 1.279c-.582.3-1.216.451-1.904.451zm0-1.367c.426 0 .799-.097 1.119-.291.329-.193.581-.455.756-.784a2.26 2.26 0 00.276-1.12c0-.416-.087-.79-.262-1.119a1.889 1.889 0 00-.741-.77 2.116 2.116 0 00-1.119-.291 2.19 2.19 0 00-1.134.291c-.32.184-.572.441-.756.77-.174.32-.262.688-.262 1.105 0 .407.088.78.262 1.119.175.339.422.606.741.799.32.194.693.291 1.12.291zm7.175 1.134v-8.344l-2.282 1.512v-1.701l2.514-1.7h1.367v10.233h-1.599zm10.812.233c-.746 0-1.4-.165-1.962-.495a3.489 3.489 0 01-1.308-1.395c-.301-.601-.451-1.279-.451-2.035 0-.737.145-1.4.436-1.992.3-.6.727-1.07 1.279-1.41.562-.339 1.221-.508 1.977-.508.717 0 1.333.16 1.846.479.514.32.901.776 1.163 1.367.262.581.393 1.26.393 2.035 0 .145-.005.276-.015.392h-5.567c.048.756.266 1.328.654 1.716.387.377.911.566 1.57.566.494 0 .896-.116 1.206-.348.31-.233.572-.558.785-.974l1.25.465c-.29.688-.712 1.216-1.264 1.584-.553.368-1.217.553-1.992.553zm1.861-4.652c-.039-.61-.228-1.076-.567-1.395-.33-.33-.771-.495-1.323-.495-.581 0-1.056.165-1.424.495-.369.319-.606.785-.713 1.395h4.027zm5.235 4.593c-.504 0-.945-.096-1.323-.29a2.14 2.14 0 01-.843-.814 2.217 2.217 0 01-.291-1.12c0-.717.276-1.279.829-1.686.552-.407 1.318-.61 2.297-.61h1.7v-.625c0-.388-.135-.703-.407-.945-.261-.252-.634-.378-1.119-.378-.446 0-.809.116-1.09.349-.272.223-.461.533-.567.93l-1.497-.247c.116-.504.319-.93.61-1.279a2.71 2.71 0 011.076-.785c.436-.184.93-.276 1.483-.276.62 0 1.158.111 1.613.334.455.223.804.533 1.047.93.252.388.378.843.378 1.367v4.971h-1.527v-1.265a2.666 2.666 0 01-.945 1.047c-.397.262-.872.392-1.424.392zm.436-1.221c.378 0 .712-.092 1.003-.276a2.046 2.046 0 00.93-1.715v-.32h-1.41c-.61 0-1.08.102-1.41.305a.976.976 0 00-.479.873c0 .348.126.625.378.828.251.204.581.305.988.305zm8.808 1.265c-.747 0-1.405-.165-1.977-.494a3.395 3.395 0 01-1.308-1.381c-.311-.591-.466-1.265-.466-2.021 0-.746.151-1.414.451-2.006.31-.6.746-1.07 1.308-1.41.572-.339 1.236-.508 1.992-.508.571 0 1.08.106 1.526.319.455.204.829.5 1.119.887.291.378.499.819.625 1.323l-1.468.291a2.225 2.225 0 00-.639-1.061c-.301-.272-.688-.407-1.163-.407-.456 0-.848.116-1.178.348-.32.223-.562.529-.727.916a3.291 3.291 0 00-.247 1.294c0 .484.083.92.247 1.308.165.388.407.693.727.916.33.223.722.334 1.178.334.465 0 .852-.131 1.163-.392.319-.272.537-.616.654-1.032l1.453.276a3.225 3.225 0 01-.596 1.294c-.29.378-.663.673-1.119.886-.446.213-.964.32-1.555.32zm4.778-.218v-10.539h1.541v4.259c.242-.416.562-.741.959-.973a2.757 2.757 0 011.395-.349c.834 0 1.483.266 1.948.799.465.533.698 1.27.698 2.21v4.593h-1.555v-4.463c0-.591-.131-1.041-.393-1.351-.261-.31-.649-.466-1.163-.466-.378 0-.707.102-.988.306-.281.194-.504.47-.669.828-.155.359-.232.776-.232 1.25v3.896h-1.541zm7.762 1.788a10.073 10.073 0 001.323-2.864c.3-1.046.45-2.122.45-3.227 0-1.114-.15-2.199-.45-3.256a10.608 10.608 0 00-1.338-2.951l1.163-.784a12.194 12.194 0 011.526 3.328 12.97 12.97 0 010 7.297 11.414 11.414 0 01-1.511 3.242l-1.163-.785z"/><path stroke="#000" stroke-opacity="0.25" stroke-width="0.303" d="M0.758 194.249L322.242 194.249"/><path fill="#fff" d="M1 206.4c0-6.627 5.373-12 12-12h297c6.627 0 12 5.373 12 12v14.88c0 6.627-5.373 12-12 12H13c-6.627 0-12-5.373-12-12V206.4z"/><path fill="#088FE9" d="M72.058 219.573c-.659 0-1.24-.117-1.744-.349a3.585 3.585 0 01-1.25-.931 3.52 3.52 0 01-.683-1.308l1.555-.407c.155.475.417.848.785 1.119.368.272.824.407 1.366.407.669 0 1.202-.189 1.6-.567.397-.377.595-.896.595-1.555 0-.62-.194-1.114-.581-1.483-.388-.377-.906-.566-1.555-.566-.495 0-.907.101-1.236.305-.33.194-.596.417-.8.668l-1.439-.261.669-5.538h6.09v1.424h-4.695l-.334 2.747c.272-.203.582-.363.93-.479.359-.117.761-.175 1.207-.175.678 0 1.27.141 1.773.422.514.281.906.678 1.178 1.192.28.504.421 1.085.421 1.744 0 .708-.16 1.333-.48 1.875-.31.533-.755.955-1.337 1.265-.581.3-1.26.451-2.035.451zm13.946 0c-1.017 0-1.909-.228-2.674-.684A4.63 4.63 0 0181.556 217c-.416-.805-.625-1.72-.625-2.748 0-1.027.209-1.947.625-2.761a4.702 4.702 0 011.774-1.919c.765-.465 1.657-.698 2.674-.698 1.018 0 1.905.233 2.66.698a4.494 4.494 0 011.76 1.919c.406.814.61 1.734.61 2.761 0 1.028-.204 1.943-.61 2.748a4.533 4.533 0 01-1.76 1.889c-.755.456-1.642.684-2.66.684zm-.014-1.454c.698 0 1.303-.16 1.817-.48a3.18 3.18 0 001.177-1.366c.281-.582.422-1.255.422-2.021 0-.765-.14-1.444-.422-2.035a3.264 3.264 0 00-1.192-1.381c-.513-.339-1.114-.508-1.802-.508-.678 0-1.28.169-1.802.508-.514.33-.912.79-1.192 1.381-.281.591-.422 1.27-.422 2.035 0 .766.14 1.439.422 2.021a3.276 3.276 0 001.192 1.366c.513.32 1.114.48 1.802.48zm9.528 1.366c-.746 0-1.284-.174-1.614-.523-.329-.359-.494-.862-.494-1.512v-4.201h-1.177v-1.279h1.177v-1.904h1.556v1.904h1.555v1.279h-1.555v4.129c0 .281.077.484.232.61.155.116.388.175.698.175.155 0 .358-.02.61-.059v1.251a3.97 3.97 0 01-.988.13zm2.569-.145v-10.539h1.54v4.259c.243-.416.563-.741.96-.974a2.768 2.768 0 011.396-.348c.833 0 1.482.266 1.947.799.466.533.698 1.27.698 2.21v4.593h-1.555v-4.463c0-.591-.131-1.041-.393-1.351-.261-.311-.649-.466-1.163-.466-.378 0-.707.102-.988.306-.281.193-.504.47-.669.828-.155.359-.232.775-.232 1.25v3.896h-1.541zm11.858.233c-.746 0-1.4-.165-1.962-.495a3.491 3.491 0 01-1.309-1.395c-.3-.601-.45-1.279-.45-2.035 0-.737.145-1.4.436-1.992.3-.6.727-1.07 1.279-1.41.562-.339 1.221-.508 1.977-.508.717 0 1.332.16 1.846.479.514.32.901.776 1.163 1.367.262.581.392 1.259.392 2.035a5.1 5.1 0 01-.014.392h-5.568c.049.756.267 1.328.655 1.715.387.378.911.567 1.57.567.494 0 .896-.116 1.206-.348.31-.233.572-.558.785-.974l1.25.465c-.291.688-.712 1.216-1.265 1.584-.552.368-1.216.553-1.991.553zm1.861-4.652c-.039-.611-.228-1.076-.567-1.395-.33-.33-.771-.495-1.323-.495-.582 0-1.056.165-1.425.495-.368.319-.605.784-.712 1.395h4.027zm3.244 4.419v-7.37h1.556v1.294c.193-.426.455-.761.785-1.003.339-.242.741-.363 1.206-.363.087 0 .165.004.233.014a.97.97 0 01.232.029v1.468a2.451 2.451 0 00-.479-.043c-.592 0-1.071.208-1.44.625-.358.416-.537.983-.537 1.7v3.649h-1.556zm9.177 0v-10.248h4.666c1.056 0 1.87.286 2.442.858.582.562.872 1.322.872 2.282 0 .95-.29 1.71-.872 2.282-.572.572-1.386.858-2.442.858h-3.067v3.968h-1.599zm4.506-5.364c.591 0 1.047-.15 1.367-.45.319-.311.479-.742.479-1.294 0-.562-.16-.993-.479-1.294-.32-.3-.776-.45-1.367-.45h-2.907v3.488h2.907zm8.027 5.597c-.746 0-1.4-.165-1.962-.495a3.491 3.491 0 01-1.309-1.395c-.3-.601-.45-1.279-.45-2.035 0-.737.145-1.4.436-1.992.3-.6.727-1.07 1.279-1.41.562-.339 1.221-.508 1.977-.508.717 0 1.332.16 1.846.479.514.32.901.776 1.163 1.367.262.581.392 1.259.392 2.035 0 .145-.004.276-.014.392h-5.567c.048.756.266 1.328.654 1.715.387.378.911.567 1.57.567.494 0 .896-.116 1.206-.348.31-.233.572-.558.785-.974l1.25.465c-.291.688-.712 1.216-1.265 1.584-.552.368-1.216.553-1.991.553zm1.861-4.652c-.039-.611-.228-1.076-.567-1.395-.33-.33-.771-.495-1.323-.495-.582 0-1.056.165-1.425.495-.368.319-.605.784-.712 1.395h4.027zm6.543 4.652c-.727 0-1.371-.165-1.933-.495a3.485 3.485 0 01-1.323-1.381c-.32-.591-.48-1.269-.48-2.035 0-.756.155-1.429.465-2.02a3.473 3.473 0 011.323-1.396c.572-.339 1.226-.508 1.963-.508.717 0 1.356.169 1.918.508.562.33.998.795 1.309 1.396.319.591.479 1.264.479 2.02s-.16 1.435-.479 2.035a3.392 3.392 0 01-1.309 1.381c-.562.33-1.206.495-1.933.495zm0-1.323c.436 0 .814-.102 1.134-.305.32-.214.562-.514.727-.902.174-.387.261-.848.261-1.381s-.087-.993-.261-1.381c-.165-.397-.407-.697-.727-.901-.32-.213-.698-.32-1.134-.32-.436 0-.814.107-1.134.32-.32.213-.567.514-.741.901-.175.388-.262.848-.262 1.381 0 .524.087.979.262 1.367.174.387.421.688.741.901.33.213.708.32 1.134.32zm5.446 3.852V211.97h1.54v1.061a2.924 2.924 0 011.062-.945 2.87 2.87 0 011.395-.348c.669 0 1.26.169 1.773.508.524.33.926.795 1.207 1.396.291.591.436 1.264.436 2.02s-.145 1.43-.436 2.021a3.318 3.318 0 01-1.207 1.395c-.513.33-1.104.495-1.773.495-.504 0-.969-.112-1.395-.335a3.098 3.098 0 01-1.062-.945v3.809h-1.54zm3.663-3.867c.436 0 .814-.102 1.134-.305a2.04 2.04 0 00.755-.901c.175-.388.262-.843.262-1.367 0-.794-.194-1.424-.581-1.889-.388-.465-.911-.698-1.57-.698-.65 0-1.168.233-1.556.698-.378.465-.567 1.095-.567 1.889 0 .524.088.979.262 1.367.175.387.422.688.741.901.32.203.693.305 1.12.305zm5.348 1.105v-10.539h1.54v10.539h-1.54zm6.864.233c-.746 0-1.4-.165-1.962-.495a3.498 3.498 0 01-1.309-1.395c-.3-.601-.45-1.279-.45-2.035 0-.737.145-1.4.436-1.992.3-.6.727-1.07 1.279-1.41.562-.339 1.221-.508 1.977-.508.717 0 1.332.16 1.846.479.514.32.901.776 1.163 1.367.262.581.392 1.259.392 2.035 0 .145-.004.276-.014.392h-5.567c.048.756.266 1.328.654 1.715.387.378.911.567 1.57.567.494 0 .896-.116 1.206-.348.31-.233.572-.558.785-.974l1.25.465c-.291.688-.712 1.216-1.264 1.584-.553.368-1.217.553-1.992.553zm1.861-4.652c-.039-.611-.228-1.076-.567-1.395-.33-.33-.771-.495-1.323-.495-.581 0-1.056.165-1.425.495-.368.319-.605.784-.712 1.395h4.027zm8.48 6.992a12.02 12.02 0 01-1.541-3.314 13.487 13.487 0 01-.509-3.678c0-1.24.17-2.447.509-3.619a11.687 11.687 0 011.526-3.257l1.163.785a10.356 10.356 0 00-1.337 2.864 11.618 11.618 0 00-.451 3.227c0 1.114.15 2.205.451 3.271a10.94 10.94 0 001.352 2.936l-1.163.785zm7.978-2.399c-.398 0-.722-.029-.974-.087a6.95 6.95 0 01-.829-.218 3.702 3.702 0 00-.625-.174 2.624 2.624 0 00-.596-.058c-.339 0-.644.033-.916.101a4.394 4.394 0 00-.785.247l-.101.059-.582-1.221c.611-.34 1.061-.684 1.352-1.033.3-.358.451-.746.451-1.162 0-.185-.025-.359-.073-.524a2.24 2.24 0 00-.218-.494h-1.701v-1.192h1.09a5.291 5.291 0 01-.305-.785 3.77 3.77 0 01-.102-.916c0-.639.146-1.196.436-1.671a2.95 2.95 0 011.28-1.12c.552-.261 1.196-.392 1.933-.392.688 0 1.279.131 1.773.392.495.262.877.616 1.149 1.062.281.436.47.925.567 1.468l-1.527.392c-.097-.533-.31-.974-.639-1.323-.32-.358-.776-.537-1.367-.537-.61 0-1.095.164-1.453.494-.359.32-.538.761-.538 1.323 0 .29.043.557.131.799.087.242.208.514.363.814h2.893v1.192h-2.442c.029.068.053.136.072.204.029.067.054.14.073.218.049.164.073.339.073.523 0 .64-.204 1.235-.611 1.788.078-.01.199-.015.364-.015.242 0 .455.02.639.058.194.03.383.078.567.146.165.058.325.102.48.131.165.029.339.043.523.043.281 0 .514-.058.698-.174.184-.116.315-.32.392-.611l1.425.422c-.116.572-.378 1.022-.785 1.352-.397.32-.916.479-1.555.479zm7.327.044c-.668 0-1.259-.111-1.773-.334a3.243 3.243 0 01-1.221-.902 3.506 3.506 0 01-.669-1.293l1.41-.509c.155.485.412.877.771 1.177.368.301.848.451 1.439.451.649 0 1.172-.165 1.57-.494.397-.339.596-.785.596-1.338 0-.542-.199-.959-.596-1.25-.388-.29-.921-.436-1.599-.436h-.713v-1.308h.698c.601 0 1.061-.14 1.381-.422.329-.29.494-.658.494-1.104 0-.465-.169-.829-.509-1.09-.329-.272-.765-.407-1.308-.407-.533 0-.964.135-1.293.407-.33.271-.572.644-.727 1.119l-1.396-.48c.243-.765.65-1.366 1.221-1.802.572-.446 1.318-.669 2.239-.669.698 0 1.298.126 1.802.378.504.242.882.577 1.134 1.003.262.426.393.896.393 1.41 0 .465-.112.887-.335 1.265-.223.378-.557.688-1.003.93.591.232 1.027.567 1.309 1.003.29.436.436.94.436 1.512 0 .6-.151 1.143-.451 1.628-.291.484-.722.867-1.294 1.148-.562.271-1.23.407-2.006.407zm5.962-.102c-.301 0-.552-.097-.756-.29a1.055 1.055 0 01-.291-.756c0-.272.097-.504.291-.698.204-.204.455-.305.756-.305.271 0 .504.101.698.305a.93.93 0 01.305.698c0 .3-.102.552-.305.756a.956.956 0 01-.698.29zm5.967.117c-.892 0-1.647-.223-2.268-.669-.61-.456-1.075-1.085-1.395-1.89-.31-.804-.465-1.744-.465-2.82 0-1.056.16-1.982.479-2.776.32-.805.785-1.43 1.396-1.875.62-.446 1.366-.669 2.238-.669.873 0 1.614.223 2.224.669.611.445 1.071 1.07 1.381 1.875.32.804.48 1.73.48 2.776 0 1.076-.155 2.021-.465 2.835-.31.804-.771 1.429-1.381 1.875-.611.446-1.352.669-2.224.669zm0-1.454c.775 0 1.376-.344 1.802-1.032.436-.688.655-1.652.655-2.893 0-1.211-.219-2.156-.655-2.834-.436-.688-1.041-1.032-1.817-1.032-.785 0-1.4.344-1.846 1.032-.436.678-.654 1.623-.654 2.834 0 1.241.223 2.205.669 2.893.446.688 1.061 1.032 1.846 1.032zm7.613 1.221v-8.344l-2.282 1.512v-1.701l2.515-1.7h1.366v10.233h-1.599zm10.813.233c-.746 0-1.401-.165-1.963-.495a3.489 3.489 0 01-1.308-1.395c-.3-.601-.45-1.279-.45-2.035 0-.737.145-1.4.436-1.992.3-.6.726-1.07 1.279-1.41.562-.339 1.221-.508 1.977-.508.717 0 1.332.16 1.846.479.513.32.901.776 1.163 1.367.261.581.392 1.259.392 2.035a5.1 5.1 0 01-.014.392h-5.568c.049.756.267 1.328.654 1.715.388.378.911.567 1.57.567.495 0 .897-.116 1.207-.348.31-.233.572-.558.785-.974l1.25.465c-.291.688-.712 1.216-1.265 1.584-.552.368-1.216.553-1.991.553zm1.86-4.652c-.038-.611-.227-1.076-.567-1.395-.329-.33-.77-.495-1.322-.495-.582 0-1.057.165-1.425.495-.368.319-.606.784-.712 1.395h4.026zm5.235 4.593c-.503 0-.944-.097-1.322-.29a2.127 2.127 0 01-.843-.814 2.22 2.22 0 01-.291-1.12c0-.717.276-1.279.828-1.686.553-.407 1.318-.61 2.297-.61h1.701v-.625c0-.388-.136-.703-.407-.945-.262-.252-.635-.378-1.119-.378-.446 0-.81.116-1.091.349-.271.223-.46.533-.567.93l-1.497-.247c.117-.504.32-.93.611-1.279.29-.349.649-.611 1.075-.785a3.788 3.788 0 011.483-.276c.62 0 1.158.111 1.614.334.455.223.804.533 1.046.93.252.388.378.843.378 1.367v4.971h-1.526v-1.265a2.666 2.666 0 01-.945 1.047c-.397.262-.872.392-1.425.392zm.437-1.221c.377 0 .712-.092 1.003-.276.29-.194.518-.441.683-.741.164-.31.247-.635.247-.974v-.32h-1.41c-.611 0-1.081.102-1.41.305a.977.977 0 00-.48.873c0 .348.126.625.378.828.252.204.582.305.989.305zm8.807 1.265c-.746 0-1.405-.165-1.977-.494a3.395 3.395 0 01-1.308-1.381c-.31-.591-.465-1.265-.465-2.021 0-.746.15-1.414.451-2.006.31-.6.746-1.07 1.308-1.41.572-.339 1.235-.508 1.991-.508.572 0 1.081.106 1.527.319.455.204.828.499 1.119.887.291.378.499.819.625 1.323l-1.468.291a2.227 2.227 0 00-.64-1.062c-.3-.271-.688-.407-1.163-.407-.455 0-.848.117-1.177.349-.32.223-.562.528-.727.916a3.273 3.273 0 00-.247 1.294c0 .484.082.92.247 1.308.165.388.407.693.727.916.329.223.722.334 1.177.334.465 0 .853-.131 1.163-.392.32-.272.538-.616.654-1.032l1.454.276a3.239 3.239 0 01-.596 1.294 2.99 2.99 0 01-1.119.886c-.446.213-.965.32-1.556.32zm4.778-.218v-10.539h1.541v4.259c.243-.416.562-.741.96-.974a2.767 2.767 0 011.395-.348c.833 0 1.483.266 1.948.799.465.533.698 1.27.698 2.21v4.593h-1.556v-4.463c0-.591-.131-1.041-.392-1.351-.262-.311-.649-.466-1.163-.466-.378 0-.707.102-.989.306-.281.193-.503.47-.668.828-.155.359-.233.775-.233 1.25v3.896h-1.541zm7.762 1.788a10.019 10.019 0 001.323-2.864c.301-1.046.451-2.122.451-3.227 0-1.114-.15-2.199-.451-3.256a10.576 10.576 0 00-1.337-2.951l1.163-.785a12.274 12.274 0 011.526 3.329 12.97 12.97 0 01.523 3.663c0 1.241-.174 2.452-.523 3.634a11.39 11.39 0 01-1.512 3.242l-1.163-.785z"/><path stroke="#000" stroke-opacity="0.25" stroke-width="0.303" d="M0.758 233.129L322.242 233.129"/><path fill="#fff" d="M1 233.28h321v26.88c0 6.627-5.373 12-12 12H13c-6.627 0-12-5.373-12-12v-26.88z"/><path fill="#088FE9" d="M112.436 258.453c-1.027 0-1.923-.228-2.689-.684a4.621 4.621 0 01-1.773-1.889c-.407-.814-.611-1.74-.611-2.777 0-1.027.204-1.943.611-2.747a4.54 4.54 0 011.744-1.904c.766-.465 1.667-.698 2.704-.698.756 0 1.429.131 2.02.392a3.96 3.96 0 011.483 1.12 4.76 4.76 0 01.916 1.671l-1.527.393c-.232-.659-.591-1.168-1.075-1.526-.485-.359-1.091-.538-1.817-.538-.717 0-1.333.169-1.846.509a3.177 3.177 0 00-1.178 1.366c-.261.581-.392 1.235-.392 1.962 0 .766.131 1.439.392 2.021a3.138 3.138 0 001.163 1.337c.514.32 1.129.48 1.846.48.485 0 .921-.083 1.308-.247.388-.175.713-.412.974-.713.262-.31.465-.678.611-1.104l1.497.378a4.51 4.51 0 01-.872 1.686 4.165 4.165 0 01-1.483 1.119c-.591.262-1.26.393-2.006.393zm8.45 0c-.823 0-1.468-.267-1.933-.8-.465-.533-.698-1.269-.698-2.209v-4.594h1.556v4.463c0 .591.131 1.042.392 1.352.262.31.649.465 1.163.465.368 0 .693-.097.974-.291.291-.203.514-.484.669-.843.164-.359.247-.775.247-1.25v-3.896h1.555v7.37h-1.555v-1.09a2.616 2.616 0 01-.974.974c-.397.232-.863.349-1.396.349zm8.777 0c-.873 0-1.595-.204-2.166-.611a2.892 2.892 0 01-1.105-1.686l1.439-.349c.126.446.344.795.654 1.047.32.252.717.378 1.192.378s.848-.097 1.119-.291c.272-.204.407-.456.407-.756 0-.262-.097-.456-.29-.582-.184-.125-.533-.251-1.047-.377l-.262-.059a24.58 24.58 0 00-.276-.058c-.61-.135-1.105-.286-1.482-.45-.378-.165-.669-.388-.873-.669-.193-.281-.29-.644-.29-1.09 0-.456.121-.853.363-1.192a2.284 2.284 0 011.018-.8c.445-.193.954-.29 1.526-.29.795 0 1.434.179 1.919.537.484.359.823.858 1.017 1.498l-1.381.378c-.126-.378-.315-.669-.567-.873-.252-.213-.576-.319-.974-.319-.407 0-.741.087-1.003.261-.252.175-.378.402-.378.683 0 .252.112.441.335.567.232.117.644.243 1.235.378.039 0 .073.005.102.015.029.01.063.019.102.029.659.136 1.182.286 1.57.451.387.164.683.392.886.683.214.281.32.659.32 1.134 0 .474-.126.896-.378 1.264-.252.359-.61.64-1.075.843-.465.204-1.018.306-1.657.306zm7.206-.088c-.746 0-1.284-.174-1.613-.523-.33-.359-.495-.862-.495-1.512v-4.201h-1.177v-1.279h1.177v-1.904h1.556v1.904h1.555v1.279h-1.555v4.129c0 .281.077.484.232.61.155.116.388.175.698.175.155 0 .359-.02.61-.059v1.251c-.339.087-.668.13-.988.13zm5.711.088c-.726 0-1.371-.165-1.933-.495a3.485 3.485 0 01-1.323-1.381c-.319-.591-.479-1.269-.479-2.035 0-.756.155-1.429.465-2.02a3.473 3.473 0 011.323-1.396c.571-.339 1.225-.508 1.962-.508.717 0 1.357.169 1.919.508.562.33.998.795 1.308 1.396.32.591.48 1.264.48 2.02s-.16 1.435-.48 2.035a3.383 3.383 0 01-1.308 1.381c-.562.33-1.207.495-1.934.495zm0-1.323c.437 0 .814-.102 1.134-.305.32-.214.562-.514.727-.902.174-.387.262-.848.262-1.381s-.088-.993-.262-1.381c-.165-.397-.407-.697-.727-.901-.32-.213-.697-.32-1.134-.32-.436 0-.814.107-1.133.32a2.08 2.08 0 00-.742.901c-.174.388-.261.848-.261 1.381 0 .524.087.979.261 1.367.175.387.422.688.742.901.329.213.707.32 1.133.32zm5.446 1.09v-7.37h1.555v.989c.214-.388.49-.688.829-.902a2.27 2.27 0 011.207-.319c.533 0 .983.121 1.351.363.369.233.63.577.785 1.032.223-.436.524-.775.902-1.017.377-.252.823-.378 1.337-.378.736 0 1.303.208 1.701.625.397.416.596 1.032.596 1.846v5.131h-1.556v-4.811c0-.485-.106-.848-.32-1.091-.203-.252-.518-.378-.944-.378a1.41 1.41 0 00-.8.233c-.232.155-.417.388-.552.698-.126.31-.189.683-.189 1.119v4.23h-1.556v-4.811c0-.485-.101-.848-.305-1.091-.203-.252-.513-.378-.93-.378-.31 0-.582.078-.814.233-.233.155-.417.388-.553.698-.126.3-.189.668-.189 1.104v4.245h-1.555zm15.129 0l3.954-10.233h1.817l3.954 10.233h-1.715l-.945-2.457h-4.463l-.93 2.457h-1.672zm3.14-3.867h3.387l-1.686-4.419-1.701 4.419zm8.007 3.867v-7.37h1.555v.989c.213-.388.489-.688.829-.902a2.266 2.266 0 011.206-.319c.533 0 .984.121 1.352.363.368.233.63.577.785 1.032a2.56 2.56 0 01.901-1.017c.378-.252.824-.378 1.337-.378.737 0 1.304.208 1.701.625.397.416.596 1.032.596 1.846v5.131h-1.555v-4.811c0-.485-.107-.848-.32-1.091-.204-.252-.518-.378-.945-.378-.3 0-.567.078-.799.233-.233.155-.417.388-.553.698-.126.31-.189.683-.189 1.119v4.23h-1.555v-4.811c0-.485-.102-.848-.305-1.091-.204-.252-.514-.378-.931-.378-.31 0-.581.078-.814.233-.232.155-.416.388-.552.698-.126.3-.189.668-.189 1.104v4.245h-1.555zm15.592.233c-.727 0-1.372-.165-1.934-.495a3.485 3.485 0 01-1.323-1.381c-.319-.591-.479-1.269-.479-2.035 0-.756.155-1.429.465-2.02a3.473 3.473 0 011.323-1.396c.571-.339 1.226-.508 1.962-.508.717 0 1.357.169 1.919.508.562.33.998.795 1.308 1.396.32.591.48 1.264.48 2.02s-.16 1.435-.48 2.035a3.383 3.383 0 01-1.308 1.381c-.562.33-1.207.495-1.933.495zm0-1.323c.436 0 .814-.102 1.133-.305.32-.214.562-.514.727-.902.175-.387.262-.848.262-1.381s-.087-.993-.262-1.381c-.165-.397-.407-.697-.727-.901-.319-.213-.697-.32-1.133-.32-.437 0-.814.107-1.134.32a2.08 2.08 0 00-.742.901c-.174.388-.261.848-.261 1.381 0 .524.087.979.261 1.367.175.387.422.688.742.901.329.213.707.32 1.134.32zm7.945 1.323c-.823 0-1.468-.267-1.933-.8-.465-.533-.698-1.269-.698-2.209v-4.594h1.556v4.463c0 .591.131 1.042.392 1.352.262.31.65.465 1.163.465.368 0 .693-.097.974-.291.291-.203.514-.484.669-.843.164-.359.247-.775.247-1.25v-3.896h1.555v7.37h-1.555v-1.09a2.616 2.616 0 01-.974.974c-.397.232-.863.349-1.396.349zm6.131-.233v-7.37h1.555v1.09c.243-.416.562-.741.96-.974.407-.232.877-.348 1.41-.348.823 0 1.468.266 1.933.799.465.533.698 1.27.698 2.21v4.593h-1.556v-4.463c0-.591-.13-1.041-.392-1.351-.262-.311-.649-.466-1.163-.466-.368 0-.698.102-.988.306-.281.193-.504.47-.669.828-.155.359-.233.775-.233 1.25v3.896h-1.555zm10.988.145c-.747 0-1.284-.174-1.614-.523-.329-.359-.494-.862-.494-1.512v-4.201h-1.177v-1.279h1.177v-1.904h1.555v1.904h1.556v1.279h-1.556v4.129c0 .281.078.484.233.61.155.116.387.175.698.175.155 0 .358-.02.61-.059v1.251a3.97 3.97 0 01-.988.13z"/></svg>