<svg width="21" height="28" xmlns="http://www.w3.org/2000/svg"><path d="M14.12 14.054l-.743 1.083c3.777 2.652 6.101 6.93 6.304 11.544H1.318c.203-4.614 2.527-8.892 6.303-11.543.359-.251.73-.488 1.148-.728l.37-.215c.449-.25.89-.526 1.31-.82 1.645-1.143 5.47-4.203 5.47-7.92 0-3.008-2.42-5.455-5.394-5.455-2.973 0-5.392 2.447-5.392 5.456 0 1.656.773 3.379 2.298 5.119l.976-.874c-1.289-1.471-1.97-2.94-1.97-4.245 0-2.282 1.834-4.137 4.088-4.137 2.255 0 4.09 1.855 4.09 4.137 0 3.176-3.753 6.033-4.904 6.832-.387.27-.792.523-1.212.759l-.418.24c-.408.236-.813.493-1.202.767C2.571 17.077 0 22.044 0 27.34V28h21v-.66c0-5.296-2.573-10.263-6.88-13.286" fill="#FFF" fill-rule="evenodd"/></svg>