<svg class="_17595mk3" xmlns="http://www.w3.org/2000/svg" fill="none" viewBox="-10 0 100 84"><rect width="83" height="83" y="0.326" fill="#fff" rx="12"/><path fill="#192852" d="M55.394 23.834a1.11 1.11 0 01-.55-.143c-4.587-2.366-8.553-3.37-13.308-3.37-4.731 0-9.223 1.124-13.309 3.37-.573.31-1.29.095-1.625-.478a1.21 1.21 0 01.478-1.625c4.444-2.413 9.319-3.656 14.456-3.656 5.09 0 9.533 1.123 14.408 3.632a1.17 1.17 0 01.502 1.601c-.215.43-.622.67-1.052.67zM21.202 36.38a1.191 1.191 0 01-.98-1.888c2.366-3.345 5.377-5.974 8.96-7.814 7.503-3.87 17.109-3.894 24.635-.023 3.584 1.84 6.595 4.444 8.96 7.765.383.526.263 1.29-.286 1.673-.55.382-1.29.263-1.673-.287-2.15-3.01-4.874-5.376-8.1-7.025-6.857-3.512-15.626-3.512-22.46.024-3.25 1.673-5.973 4.062-8.124 7.073-.191.334-.55.502-.932.502zm14.934 28.84c-.31 0-.621-.12-.837-.359-2.078-2.079-3.201-3.417-4.802-6.308-1.649-2.939-2.509-6.523-2.509-10.37 0-7.096 6.07-12.879 13.524-12.879 7.455 0 13.524 5.783 13.524 12.879 0 .67-.526 1.195-1.195 1.195a1.183 1.183 0 01-1.194-1.195c0-5.782-4.994-10.49-11.135-10.49-6.14 0-11.135 4.708-11.135 10.49 0 3.44.765 6.619 2.223 9.2 1.529 2.747 2.58 3.918 4.42 5.782a1.227 1.227 0 010 1.696 1.31 1.31 0 01-.884.358zm17.132-4.421c-2.844 0-5.352-.717-7.407-2.127-3.56-2.413-5.687-6.331-5.687-10.489 0-.669.526-1.195 1.195-1.195s1.194.526 1.194 1.195c0 3.37 1.72 6.547 4.636 8.506 1.696 1.147 3.68 1.697 6.069 1.697.573 0 1.529-.072 2.485-.24.645-.119 1.266.311 1.386.98.119.646-.311 1.267-.98 1.386a16.318 16.318 0 01-2.891.287zm-4.803 4.922c-.096 0-.215-.024-.31-.048-3.8-1.051-6.285-2.46-8.89-5.017-3.344-3.322-5.184-7.742-5.184-12.473 0-3.87 3.297-7.025 7.36-7.025 4.061 0 7.359 3.154 7.359 7.025 0 2.557 2.222 4.636 4.97 4.636 2.747 0 4.97-2.08 4.97-4.636 0-9.008-7.766-16.32-17.324-16.32-6.785 0-12.998 3.776-15.793 9.63-.932 1.935-1.41 4.205-1.41 6.69 0 1.864.167 4.803 1.6 8.626a1.166 1.166 0 01-.692 1.529 1.185 1.185 0 01-1.53-.693c-1.17-3.13-1.744-6.236-1.744-9.462 0-2.867.55-5.472 1.625-7.742C26.65 33.774 33.7 29.45 41.416 29.45c10.872 0 19.713 8.386 19.713 18.708 0 3.871-3.297 7.025-7.36 7.025-4.061 0-7.359-3.154-7.359-7.025 0-2.556-2.222-4.635-4.97-4.635-2.747 0-4.97 2.078-4.97 4.635 0 4.086 1.577 7.909 4.468 10.776 2.27 2.246 4.445 3.489 7.814 4.42.645.168 1.003.837.836 1.458-.12.55-.621.908-1.123.908z"/></svg>