<svg xmlns="http://www.w3.org/2000/svg" xmlns:xlink="http://www.w3.org/1999/xlink" fill="none" viewBox="0 0 322 116"><g><g><g><path fill="#fff" d="M115.159 0H315.04A6.96 6.96 0 01322 6.96v101.236a6.959 6.959 0 01-6.96 6.959H115.159V0z"/><g><g fill="#2C1C49"><path d="M127.826 25.31V15.244h2.101l3.217 7.963 3.202-7.963h2.087v10.064h-1.572v-7.534l-3.059 7.534h-1.316l-3.088-7.548v7.548h-1.572zM144.075 25.538c-.715 0-1.349-.162-1.901-.486a3.43 3.43 0 01-1.301-1.358c-.315-.582-.472-1.249-.472-2.002 0-.743.152-1.405.457-1.987a3.418 3.418 0 011.301-1.372c.563-.334 1.206-.5 1.93-.5.706 0 1.335.166 1.887.5.553.324.982.781 1.287 1.372.314.582.472 1.244.472 1.987 0 .744-.158 1.41-.472 2.002a3.336 3.336 0 01-1.287 1.358c-.552.324-1.186.486-1.901.486zm0-1.301c.429 0 .801-.1 1.115-.3.315-.21.553-.505.715-.887.171-.38.257-.833.257-1.358 0-.524-.086-.977-.257-1.358-.162-.39-.4-.686-.715-.886-.314-.21-.686-.314-1.115-.314-.429 0-.801.104-1.115.314-.315.21-.558.505-.729.886-.172.381-.257.834-.257 1.358 0 .515.085.963.257 1.344.171.381.414.677.729.886.324.21.696.315 1.115.315zM149.431 25.31V18.06h1.529v1.073c.239-.41.553-.73.944-.958.4-.23.862-.343 1.386-.343.811 0 1.444.262 1.902.786.457.524.686 1.248.686 2.173v4.517h-1.53V20.92c0-.58-.128-1.024-.386-1.33-.257-.304-.638-.456-1.143-.456-.362 0-.687.1-.972.3-.277.19-.496.462-.658.814-.153.353-.229.763-.229 1.23v3.831h-1.529zM160.237 25.452c-.734 0-1.263-.171-1.587-.515-.324-.352-.486-.848-.486-1.486v-4.132h-1.158v-1.258h1.158V16.19h1.529v1.872h1.53v1.258h-1.53v4.06c0 .277.077.477.229.6.153.115.381.172.686.172.153 0 .353-.019.601-.057v1.23a3.9 3.9 0 01-.972.128zM162.763 25.31V14.944h1.515v4.189c.239-.41.553-.73.944-.958.4-.23.858-.343 1.372-.343.82 0 1.458.262 1.916.786.457.524.686 1.248.686 2.173v4.517h-1.53V20.92c0-.58-.128-1.024-.386-1.33-.257-.304-.638-.456-1.143-.456-.372 0-.696.1-.972.3-.277.19-.496.462-.658.814a3.084 3.084 0 00-.229 1.23v3.831h-1.515zM171.108 25.31V14.944h1.516v10.364h-1.516zM177.588 28.254c-.753 0-1.401-.167-1.944-.5a2.413 2.413 0 01-1.087-1.416l1.401-.414c.133.343.343.605.629.786.295.181.648.272 1.058.272.381 0 .705-.072.972-.215.267-.143.467-.362.6-.657.143-.286.215-.639.215-1.058v-1.087c-.238.41-.553.73-.944.958-.39.229-.843.343-1.358.343-.8 0-1.425-.262-1.872-.786-.448-.524-.672-1.248-.672-2.173v-4.246h1.515v4.117c0 .582.124 1.025.372 1.33.257.295.633.443 1.129.443.362 0 .677-.095.944-.286.276-.19.49-.462.643-.815.162-.352.243-.762.243-1.23v-3.559h1.587v6.948c0 .667-.143 1.244-.429 1.73a2.707 2.707 0 01-1.201 1.13c-.515.256-1.115.385-1.801.385zM186.935 25.31V15.244h4.761c.591 0 1.105.114 1.544.343.438.229.767.543.986.944.229.39.343.829.343 1.315 0 .495-.124.934-.372 1.315a2.287 2.287 0 01-1.015.858c.553.18.982.49 1.287.929.315.438.472.953.472 1.544 0 .534-.124 1.015-.372 1.444a2.679 2.679 0 01-1.043 1.015c-.448.238-.973.357-1.573.357h-5.018zm4.675-1.33c.543 0 .962-.143 1.258-.43.305-.295.457-.69.457-1.186 0-.486-.152-.877-.457-1.172-.296-.295-.71-.443-1.244-.443h-3.102v3.23h3.088zm-.172-4.46c.496 0 .882-.134 1.158-.4.277-.277.415-.64.415-1.087 0-.448-.143-.806-.429-1.073-.276-.266-.667-.4-1.172-.4h-2.888v2.96h2.916zM196.715 25.31V18.06h1.53v7.248h-1.53zm.772-8.292a1 1 0 01-1.015-1.015 1 1 0 011.015-1.015c.276 0 .515.1.715.3.2.2.3.438.3.715 0 .276-.1.514-.3.715-.2.2-.439.3-.715.3zM200.272 25.31V14.944h1.516v10.364h-1.516zM203.706 25.31V14.944h1.516v10.364h-1.516zM209.871 25.538c-.857 0-1.567-.2-2.13-.6-.553-.41-.915-.963-1.086-1.659l1.415-.343c.124.439.338.782.643 1.03.315.247.706.371 1.173.371.467 0 .833-.095 1.1-.286.267-.2.401-.448.401-.743 0-.258-.096-.448-.286-.572-.181-.124-.524-.248-1.03-.372l-.257-.057c-.086-.019-.176-.038-.272-.057-.6-.134-1.086-.281-1.458-.443-.371-.162-.657-.381-.857-.658-.191-.276-.286-.634-.286-1.072 0-.448.119-.839.357-1.172a2.244 2.244 0 011.001-.787c.438-.19.939-.285 1.501-.285.781 0 1.41.176 1.887.529.476.352.81.843 1.001 1.472l-1.359.372c-.123-.372-.309-.658-.557-.858-.248-.21-.567-.315-.958-.315-.4 0-.729.086-.986.258-.248.171-.372.395-.372.672 0 .247.11.433.329.557.229.114.634.238 1.215.372a.32.32 0 01.1.014c.029.01.062.02.1.029.648.133 1.163.28 1.544.443.381.162.672.386.872.672.21.276.315.648.315 1.115 0 .467-.124.881-.372 1.244-.248.352-.601.629-1.058.829-.457.2-1.001.3-1.63.3z"/></g><g><g fill="#7A708C"><path d="M130.384 47.61c-.696 0-1.309-.123-1.839-.366a3.247 3.247 0 01-1.279-1.057c-.313-.461-.513-1-.6-1.618l1.056-.209c.061.478.209.892.444 1.24.235.347.539.613.914.795.374.183.804.275 1.291.275.714 0 1.292-.157 1.736-.47.452-.313.678-.748.678-1.305 0-.348-.091-.63-.274-.848-.182-.218-.465-.396-.848-.535-.383-.14-.926-.283-1.631-.43-.705-.14-1.274-.305-1.709-.497-.435-.2-.766-.46-.992-.783-.226-.33-.339-.743-.339-1.24 0-.521.139-.973.417-1.356.287-.383.679-.674 1.175-.875a4.396 4.396 0 011.696-.313c.609 0 1.144.113 1.605.34.461.217.835.522 1.122.913.296.383.505.835.627 1.357l-.992.222c-.157-.583-.435-1.044-.835-1.383-.4-.348-.909-.522-1.527-.522-.67 0-1.209.143-1.618.43-.409.287-.613.661-.613 1.123 0 .304.082.552.248.743.165.192.413.353.743.483.34.13.814.257 1.423.379.774.173 1.4.36 1.879.56.478.192.848.462 1.109.81.269.348.404.8.404 1.357 0 .556-.148 1.044-.443 1.461-.287.418-.696.744-1.227.979-.522.226-1.122.34-1.801.34zM137.434 47.596c-.488 0-.901-.091-1.24-.274a1.912 1.912 0 01-.744-.744 2.075 2.075 0 01-.248-1.005c0-.626.244-1.117.731-1.474.496-.357 1.187-.535 2.075-.535h1.67v-.652c0-.41-.148-.749-.444-1.018-.295-.27-.7-.405-1.213-.405-.47 0-.848.118-1.135.353-.287.234-.492.56-.614.978l-.939-.182c.104-.435.283-.8.535-1.097.252-.304.565-.53.939-.678a3.383 3.383 0 011.253-.222c.522 0 .974.096 1.357.287.391.183.692.448.9.796.209.34.314.735.314 1.188v4.501h-.953V46.2a2.62 2.62 0 01-.9 1.018c-.374.252-.822.378-1.344.378zm.221-.822c.409 0 .766-.1 1.07-.3.305-.2.535-.466.692-.796.165-.33.248-.687.248-1.07v-.326h-1.527c-.635 0-1.122.108-1.461.326a1.045 1.045 0 00-.496.926c0 .383.135.688.404.914.279.217.635.326 1.07.326zM144.405 47.413l-2.636-6.563h1.018l2.114 5.376 2.101-5.376h1.017l-2.622 6.563h-.992zM149.331 47.413V40.85h.979v6.563h-.979zm.496-7.66c-.2 0-.369-.069-.509-.208a.693.693 0 01-.208-.509c0-.2.069-.37.208-.509a.694.694 0 01.509-.209c.2 0 .37.07.509.21.139.138.209.308.209.508s-.07.37-.209.509a.693.693 0 01-.509.209zM152.454 47.413V40.85h.966v1.083c.235-.4.543-.713.926-.94.383-.235.831-.352 1.344-.352.731 0 1.301.235 1.709.705.409.46.614 1.1.614 1.918v4.15h-.979v-4.007c0-.635-.135-1.113-.404-1.435-.261-.322-.657-.483-1.188-.483-.391 0-.739.105-1.044.313a2.099 2.099 0 00-.717.888c-.174.374-.261.813-.261 1.318v3.405h-.966zM162.893 50.101c-.731 0-1.357-.156-1.879-.47a2.405 2.405 0 01-1.057-1.33l.914-.274c.156.4.408.704.756.913.348.218.775.326 1.279.326.426 0 .796-.078 1.109-.235a1.55 1.55 0 00.718-.678c.174-.305.261-.679.261-1.122v-1.214c-.261.4-.596.713-1.005.94a2.844 2.844 0 01-1.357.326 2.97 2.97 0 01-1.566-.418 2.888 2.888 0 01-1.083-1.174c-.252-.505-.378-1.079-.378-1.723 0-.643.126-1.217.378-1.722a2.92 2.92 0 011.07-1.174c.461-.287.988-.43 1.579-.43.496 0 .948.112 1.357.338.409.227.744.535 1.005.927V40.85h.966v6.368c0 .591-.127 1.104-.379 1.54a2.458 2.458 0 01-1.07.991c-.461.235-1 .352-1.618.352zm-.091-3.627c.435 0 .817-.1 1.148-.3.331-.21.587-.5.77-.874.183-.383.274-.827.274-1.331 0-.766-.196-1.375-.587-1.827-.392-.453-.927-.679-1.605-.679-.67 0-1.205.226-1.605.679-.4.452-.6 1.061-.6 1.826 0 .505.091.949.274 1.331.182.374.439.666.769.875.34.2.727.3 1.162.3zM174.602 47.61c-.696 0-1.309-.123-1.84-.366a3.247 3.247 0 01-1.279-1.057c-.313-.461-.513-1-.6-1.618l1.057-.209c.061.478.209.892.444 1.24.235.347.539.613.913.795.374.183.805.275 1.292.275.713 0 1.292-.157 1.735-.47.453-.313.679-.748.679-1.305 0-.348-.091-.63-.274-.848-.183-.218-.465-.396-.848-.535-.383-.14-.927-.283-1.631-.43-.705-.14-1.275-.305-1.71-.497-.435-.2-.765-.46-.991-.783-.227-.33-.34-.743-.34-1.24 0-.521.14-.973.418-1.356.287-.383.678-.674 1.174-.875a4.4 4.4 0 011.697-.313c.609 0 1.144.113 1.605.34.461.217.835.522 1.122.913.296.383.504.835.626 1.357l-.992.222c-.156-.583-.435-1.044-.835-1.383-.4-.348-.909-.522-1.526-.522-.67 0-1.21.143-1.618.43-.409.287-.614.661-.614 1.123 0 .304.083.552.248.743.165.192.413.353.744.483.339.13.813.257 1.422.379.775.173 1.401.36 1.879.56.479.192.848.462 1.109.81.27.348.405.8.405 1.357 0 .556-.148 1.044-.444 1.461-.287.418-.696.744-1.226.979-.522.226-1.122.34-1.801.34zM180.017 49.893V40.85h.965v1.135a2.844 2.844 0 011.005-.978 2.627 2.627 0 011.37-.366c.6 0 1.131.148 1.592.444.461.295.818.709 1.07 1.24.261.53.392 1.135.392 1.813 0 .67-.131 1.27-.392 1.8-.252.531-.613.945-1.083 1.24a2.86 2.86 0 01-1.579.444c-.504 0-.961-.117-1.37-.352a2.96 2.96 0 01-1.005-.992v3.615h-.965zm3.171-3.132c.443 0 .83-.105 1.161-.313.339-.218.6-.522.783-.914.183-.4.274-.865.274-1.396 0-.809-.2-1.448-.6-1.918-.401-.478-.94-.718-1.618-.718-.67 0-1.205.24-1.605.718-.401.47-.601 1.11-.601 1.918 0 .53.092.996.274 1.396.183.392.44.696.77.914.34.209.727.313 1.162.313zM189.909 47.596c-.488 0-.901-.091-1.24-.274a1.905 1.905 0 01-.744-.744 2.075 2.075 0 01-.248-1.005c0-.626.244-1.117.731-1.474.496-.357 1.187-.535 2.075-.535h1.67v-.652c0-.41-.148-.749-.444-1.018-.295-.27-.7-.405-1.213-.405-.47 0-.848.118-1.135.353-.288.234-.492.56-.614.978l-.939-.182c.104-.435.282-.8.535-1.097.252-.304.565-.53.939-.678a3.383 3.383 0 011.253-.222c.522 0 .974.096 1.357.287.391.183.692.448.9.796.209.34.313.735.313 1.188v4.501h-.952V46.2a2.628 2.628 0 01-.9 1.018c-.374.252-.822.378-1.344.378zm.221-.822c.409 0 .766-.1 1.07-.3.305-.2.535-.466.692-.796.165-.33.248-.687.248-1.07v-.326h-1.527c-.635 0-1.122.108-1.461.326a1.045 1.045 0 00-.496.926c0 .383.135.688.404.914.279.217.635.326 1.07.326zM197.948 47.622c-.644 0-1.214-.148-1.71-.444a3.126 3.126 0 01-1.135-1.24c-.27-.53-.404-1.134-.404-1.813 0-.67.13-1.266.391-1.788.27-.53.648-.943 1.135-1.24.496-.304 1.066-.456 1.71-.456.487 0 .926.091 1.318.274.391.183.717.44.978.77s.444.718.548 1.161l-.913.196c-.122-.461-.348-.83-.679-1.11-.322-.286-.739-.43-1.252-.43-.461 0-.862.118-1.201.353-.33.226-.587.539-.77.94a3.245 3.245 0 00-.261 1.33c0 .496.087.944.261 1.344.183.4.44.713.77.94.339.226.74.339 1.201.339.504 0 .922-.14 1.252-.418.34-.278.57-.64.692-1.083l.913.17a3.04 3.04 0 01-.548 1.161c-.252.33-.574.587-.965.77a3.113 3.113 0 01-1.331.274zM205.16 47.622c-.653 0-1.222-.148-1.71-.444a3.105 3.105 0 01-1.135-1.252c-.261-.53-.391-1.135-.391-1.814 0-.661.13-1.253.391-1.775.261-.53.635-.943 1.122-1.24.488-.304 1.053-.456 1.697-.456.609 0 1.135.144 1.579.43.443.28.783.675 1.017 1.188.235.505.353 1.087.353 1.749 0 .113-.005.213-.013.3h-5.168c.026.809.24 1.426.64 1.853.4.417.939.626 1.618.626.504 0 .909-.117 1.213-.352.313-.244.583-.583.809-1.018l.796.3c-.243.6-.609 1.07-1.096 1.41-.478.33-1.052.495-1.722.495zm1.944-4.071c-.017-.653-.209-1.161-.574-1.527-.357-.365-.822-.548-1.396-.548-.627 0-1.131.187-1.514.561-.383.366-.613.87-.692 1.514h4.176z"/></g></g></g><g><g><text fill="#000" xml:space="preserve" style="white-space:pre" font-family="Universal Sans" font-size="17.517" font-weight="850" letter-spacing="0"><tspan x="126.468" y="89.49">£475.00</tspan></text><g fill="#7A708C"><text xml:space="preserve" style="white-space:pre" font-family="Universal Sans" font-size="13.046" font-weight="450" letter-spacing="0"><tspan x="278" y="89.39">100</tspan></text><path d="M301.683 89l5.415-9.185h.874L302.557 89h-.874zm5.428.091c-.34 0-.657-.082-.953-.247a1.811 1.811 0 01-.678-.679 1.924 1.924 0 01-.248-.952c0-.34.083-.648.248-.927.165-.287.391-.513.678-.678.296-.165.613-.248.953-.248a1.85 1.85 0 011.617.926c.166.279.248.587.248.927 0 .339-.082.656-.248.952a1.85 1.85 0 01-1.617.926zm0-.77c.295 0 .548-.104.756-.313a1.08 1.08 0 00.326-.795c0-.305-.108-.561-.326-.77a1.01 1.01 0 00-.756-.326c-.296 0-.553.108-.77.326a1.045 1.045 0 00-.313.77c0 .313.104.578.313.796.217.208.474.313.77.313zm-4.515-4.814a1.92 1.92 0 01-.952-.248 1.811 1.811 0 01-.678-.678 1.914 1.914 0 01-.248-.952c0-.34.082-.648.248-.927.165-.287.391-.513.678-.678.296-.165.613-.248.952-.248a1.85 1.85 0 011.618.926c.165.279.248.588.248.927 0 .339-.083.656-.248.952a1.85 1.85 0 01-1.618.926zm0-.77c.296 0 .548-.104.757-.312a1.08 1.08 0 00.326-.796c0-.305-.108-.561-.326-.77a1.011 1.011 0 00-.757-.326c-.295 0-.552.108-.769.326a1.045 1.045 0 00-.313.77c0 .313.104.578.313.796.217.208.474.313.769.313z"/></g></g><g stroke-linecap="round" stroke-width="3.503"><path stroke="#F0F0F0" d="M126.468 102.971h184.223"/><path stroke="#68EAD0" d="M126 103h185" pathLength="1" stroke-dashoffset="0px" stroke-dasharray="1px 1px"/></g></g></g><g><g><mask id="mask0_7079_195863" style="mask-type:alpha" width="116" height="116" x="0" y="0" maskUnits="userSpaceOnUse"><path fill="red" d="M0 6.96A6.96 6.96 0 016.96 0h108.199v115.155H6.959A6.959 6.959 0 010 108.196V6.959z"/></mask><g mask="url(#mask0_7079_195863)"><path fill="url(#pattern0)" d="M0 7.058A6.96 6.96 0 016.96.098h108.199v115.159H6.959A6.959 6.959 0 010 108.298V7.058z"/></g></g></g></g></g><defs><pattern id="pattern0" width="1" height="1" patternContentUnits="objectBoundingBox"><use transform="matrix(.00327 0 0 .00327 -.042 0)" xlink:href="#image0_7079_195863"/><image id="image0_7079_195863" width="332" height="306" data-name="Rectangle 12.png" href="/images/homepage/door.jpg" xlink:href="/images/homepage/door.jpg"/></pattern></defs></svg>