<svg viewBox="-5 0 212 321" fill="none" xmlns="http://www.w3.org/2000/svg" class="fs789u2"><path d="M190.118 0C196.681 0 202 5.32 202 11.882v297.061c0 6.563-5.321 11.882-11.882 11.882H11.882C5.319 320.825 0 315.504 0 308.943V11.882C0 5.32 5.32 0 11.882 0h178.236Z" fill="#008065"/><path d="M146.281 53.904c.239.323.428.681.552 1.065a3.8 3.8 0 0 1 0 2.457 3.712 3.712 0 0 1-.554 1.064.99.99 0 0 0 .205 1.382.987.987 0 0 0 1.38-.207 6.01 6.01 0 0 0 .845-1.61 5.96 5.96 0 0 0 0-3.718 6.009 6.009 0 0 0-.845-1.61.987.987 0 0 0-1.583 1.177ZM149.656 52.065a7.81 7.81 0 0 1 1.172 4.13c0 1.52-.428 2.928-1.172 4.13a.994.994 0 0 0 .325 1.357.988.988 0 0 0 1.357-.322 9.79 9.79 0 0 0 1.459-5.165 9.802 9.802 0 0 0-1.459-5.165.986.986 0 0 0-1.357-.323.992.992 0 0 0-.325 1.358ZM153.241 50.193a11.835 11.835 0 0 1 1.623 6.004c0 2.194-.591 4.241-1.626 6.002a.991.991 0 0 0 .357 1.352.984.984 0 0 0 1.348-.356 13.826 13.826 0 0 0 1.887-6.998c0-2.547-.686-4.944-1.887-6.996a.984.984 0 0 0-1.346-.354.979.979 0 0 0-.356 1.346Z" fill="#19D3C5"/><path d="M156.812 48.313a15.889 15.889 0 0 1 2.078 7.882 15.906 15.906 0 0 1-2.078 7.884.982.982 0 0 0 .372 1.342.983.983 0 0 0 1.343-.368 17.858 17.858 0 0 0 2.338-8.858c0-3.22-.85-6.245-2.338-8.858a.983.983 0 0 0-1.343-.368.985.985 0 0 0-.372 1.344ZM21.804 285.225c.433 0 .803.077 1.11.232.306.153.567.359.777.609v-3.168h1.725v8.922h-1.691v-.708a2.444 2.444 0 0 1-.79.631c-.313.162-.691.243-1.133.243a3.009 3.009 0 0 1-2.218-.967 3.27 3.27 0 0 1-.652-1.071 3.768 3.768 0 0 1-.235-1.341c0-.48.08-.929.235-1.342a3.26 3.26 0 0 1 .651-1.071c.278-.299.607-.536.988-.71a2.952 2.952 0 0 1 1.233-.259Zm.318 1.612c-.25 0-.48.047-.685.14a1.568 1.568 0 0 0-.855.94 2.048 2.048 0 0 0-.117.69c0 .248.038.478.117.692.077.214.187.401.331.559.145.16.318.286.524.379.205.092.435.14.685.14.248 0 .473-.045.676-.133.203-.088.377-.212.523-.372.147-.16.26-.348.339-.564.078-.216.12-.451.12-.703 0-.251-.042-.485-.12-.702a1.673 1.673 0 0 0-.339-.563 1.548 1.548 0 0 0-.523-.372 1.667 1.667 0 0 0-.676-.131Zm7.943-1.612c.464 0 .886.081 1.27.246.382.164.71.394.984.69.275.295.487.651.64 1.066.152.415.228.873.228 1.373a4.852 4.852 0 0 1-.033.584h-4.555c.045.234.118.433.219.6.101.164.223.302.367.415.145.11.305.191.488.241.18.049.374.076.577.076.277 0 .559-.054.845-.16.284-.106.546-.257.78-.457l1.015 1.113a3.53 3.53 0 0 1-1.236.74 4.565 4.565 0 0 1-1.501.237c-.492 0-.94-.082-1.35-.244a3.042 3.042 0 0 1-1.054-.681 3.044 3.044 0 0 1-.685-1.062 3.675 3.675 0 0 1-.246-1.375c0-.503.08-.965.24-1.382.157-.419.38-.776.664-1.075.284-.298.627-.53 1.024-.697a3.403 3.403 0 0 1 1.319-.248Zm-.014 1.49c-.41 0-.735.115-.976.343-.239.228-.395.541-.471.945h2.843c-.08-.415-.24-.733-.476-.954-.239-.221-.546-.334-.92-.334Zm8.14-1.49a2.975 2.975 0 0 1 2.22.967c.277.3.496.656.656 1.071.158.413.239.861.239 1.342 0 .482-.079.928-.234 1.341a3.288 3.288 0 0 1-.652 1.071c-.277.3-.609.537-.988.708a2.938 2.938 0 0 1-1.233.259c-.446 0-.825-.081-1.136-.243a2.415 2.415 0 0 1-.785-.632v.708h-1.69v-8.921h1.722v3.168c.212-.253.471-.456.776-.609.302-.153.671-.23 1.104-.23Zm-.319 1.612c-.248 0-.47.045-.672.133-.2.088-.374.212-.52.372a1.683 1.683 0 0 0-.338.564c-.08.216-.12.451-.12.701 0 .252.038.487.12.703a1.589 1.589 0 0 0 .859.936c.2.088.426.133.671.133.257 0 .487-.047.69-.14.203-.092.377-.219.521-.379.144-.157.253-.345.331-.559.077-.214.115-.444.115-.692 0-.243-.038-.473-.115-.69a1.658 1.658 0 0 0-.331-.563 1.593 1.593 0 0 0-1.21-.519Zm6.525 4.983h-1.73v-6.424h1.73v6.424Zm6.396-4.884h-2.326v2.347c0 .199.024.368.074.507.05.14.12.251.205.339a.802.802 0 0 0 .304.189c.118.041.244.061.375.061.207 0 .417-.043.627-.129.21-.085.403-.182.579-.288l.636 1.353a4.341 4.341 0 0 1-.936.482c-.34.129-.737.194-1.193.194-.8 0-1.4-.219-1.803-.656-.404-.438-.602-1.073-.602-1.908v-2.484h-1.24v-1.538h1.24v-1.907h1.729v1.907h2.327v1.531h.004Zm-7.27-4.685a1.094 1.094 0 0 1 1.105 1.114 1.108 1.108 0 0 1-.321.785 1.114 1.114 0 0 1-.785.315c-.155 0-.3-.027-.435-.083a1.065 1.065 0 0 1-.352-.232 1.088 1.088 0 0 1-.313-.785c0-.156.027-.3.081-.437a1.07 1.07 0 0 1 .584-.591c.135-.059.28-.086.435-.086Zm-16.9-4.288 1.816-5.244h1.152l-2.302 6.396h-1.312l-1.83-5.203-1.827 5.203h-1.294l-2.302-6.396h1.177l1.81 5.23 1.825-5.23h1.246l1.84 5.244Zm6.97-5.379c.485 0 .934.083 1.346.252.413.169.771.401 1.073.701.302.3.54.652.71 1.058.172.408.258.847.258 1.323s-.086.918-.258 1.324a3.244 3.244 0 0 1-.71 1.057c-.302.298-.66.532-1.073.699a3.516 3.516 0 0 1-1.346.252c-.485 0-.933-.085-1.346-.252a3.221 3.221 0 0 1-1.07-.699 3.232 3.232 0 0 1-.706-1.057 3.373 3.373 0 0 1-.257-1.324c0-.476.085-.915.257-1.323.171-.406.405-.758.705-1.058.3-.297.659-.532 1.071-.701a3.554 3.554 0 0 1 1.346-.252Zm0 1.037a2.251 2.251 0 0 0-1.607.647 2.1 2.1 0 0 0-.474.723c-.115.28-.171.589-.171.925 0 .338.056.647.171.926.115.28.273.524.474.729a2.21 2.21 0 0 0 1.607.649c.32 0 .616-.056.893-.171a2.16 2.16 0 0 0 1.193-1.207c.115-.279.171-.588.171-.926 0-.336-.056-.645-.171-.925a2.137 2.137 0 0 0-1.193-1.197 2.271 2.271 0 0 0-.893-.173Zm8.374-1.037c.227 0 .437.015.629.047.191.032.372.083.54.162l-.268 1.085a2.073 2.073 0 0 0-.525-.185 2.67 2.67 0 0 0-.573-.063 1.64 1.64 0 0 0-.67.135c-.204.09-.38.219-.527.388-.148.169-.264.37-.342.606a2.434 2.434 0 0 0-.122.796v3.562H39.01v-6.396h1.084v.841c.224-.313.499-.555.819-.724.32-.169.672-.254 1.053-.254Zm3.94 6.531H44.81v-8.937h1.098v8.937Zm5.01-6.498c.503 0 .94.091 1.315.269a2.8 2.8 0 0 1 .942.728v-3.404h1.105v8.937h-1.105v-.855c-.257.3-.57.541-.942.722-.372.18-.81.27-1.315.27-.448 0-.868-.083-1.258-.25a3.101 3.101 0 0 1-1.017-.694 3.266 3.266 0 0 1-.676-1.053 3.53 3.53 0 0 1-.246-1.337c0-.485.081-.929.246-1.337a3.119 3.119 0 0 1 2.951-1.996Zm.129 1.035c-.332 0-.634.059-.907.178a2.11 2.11 0 0 0-.696.492c-.194.21-.34.453-.444.73-.104.28-.154.578-.154.895 0 .318.052.618.158.895.106.28.255.524.449.731.194.21.426.374.696.496.273.122.573.183.9.183.322 0 .62-.059.89-.176.269-.118.501-.28.693-.485.194-.207.342-.451.45-.73.109-.28.163-.584.163-.914 0-.326-.054-.629-.162-.908a2.286 2.286 0 0 0-.451-.728 2.081 2.081 0 0 0-.692-.485 2.268 2.268 0 0 0-.893-.174Z" fill="#19D3C5"/><path d="M28.73 152.404c-2.22 0-4.194-.381-5.914-1.138-1.72-.758-3.102-1.815-4.144-3.17-1.044-1.355-1.727-2.927-2.054-4.715l4.958-1.26c.244 1.22.683 2.264 1.321 3.129a6.239 6.239 0 0 0 2.44 1.991c.987.46 2.106.692 3.352.692 1.842 0 3.353-.365 4.532-1.098 1.18-.732 1.768-1.774 1.768-3.129 0-.866-.25-1.558-.753-2.072-.5-.514-1.26-.94-2.277-1.281-1.017-.338-2.485-.696-4.41-1.077-2.221-.487-4.043-1.044-5.468-1.666-1.422-.623-2.525-1.47-3.312-2.541-.787-1.071-1.179-2.444-1.179-4.126 0-1.761.46-3.278 1.382-4.552.92-1.274 2.2-2.241 3.84-2.906 1.639-.663 3.528-.997 5.67-.997 1.95 0 3.67.338 5.16 1.017 1.49.679 2.71 1.619 3.66 2.825.947 1.206 1.625 2.609 2.031 4.207l-4.714 1.342c-.46-1.626-1.218-2.873-2.275-3.741-1.057-.866-2.385-1.301-3.984-1.301-1.68 0-3.041.341-4.083 1.017-1.044.679-1.565 1.572-1.565 2.683 0 .758.237 1.375.713 1.849.473.473 1.166.868 2.072 1.179.906.311 2.227.658 3.961 1.037 2.41.487 4.37 1.057 5.873 1.707 1.504.649 2.683 1.537 3.538 2.662.852 1.125 1.28 2.609 1.28 4.451 0 1.815-.489 3.4-1.463 4.755-.976 1.355-2.322 2.399-4.042 3.129-1.723.731-3.693 1.098-5.914 1.098ZM51.528 152.199c-2.169 0-3.727-.501-4.673-1.504-.95-1.001-1.423-2.439-1.423-4.308v-11.463h-3.249v-3.819h3.251v-5.366h4.674v5.366h4.306v3.819h-4.306v11.217c0 .733.216 1.26.649 1.585.433.325 1.069.487 1.91.487.432 0 1.016-.041 1.747-.122v3.698c-1.001.275-1.964.41-2.886.41ZM66.039 152.404c-1.87 0-3.522-.467-4.958-1.402-1.436-.936-2.561-2.228-3.373-3.88-.812-1.653-1.22-3.536-1.22-5.65 0-2.14.406-4.045 1.22-5.711.812-1.666 1.937-2.967 3.373-3.901 1.436-.935 3.088-1.402 4.958-1.402 1.382 0 2.655.305 3.819.916a8.724 8.724 0 0 1 2.967 2.54v-2.804h4.674v20.645h-4.674v-2.805c-.812 1.112-1.802 1.964-2.967 2.559-1.164.595-2.437.895-3.82.895Zm1.016-4.024c1.164 0 2.18-.278 3.048-.835.866-.554 1.538-1.354 2.012-2.396.473-1.044.712-2.268.712-3.677 0-2.167-.514-3.874-1.544-5.12-1.03-1.247-2.426-1.869-4.187-1.869-1.788 0-3.206.624-4.248 1.869-1.044 1.246-1.564 2.953-1.564 5.12 0 1.409.236 2.635.712 3.677.474 1.044 1.152 1.842 2.032 2.396.879.557 1.889.835 3.027.835ZM81.318 151.753v-20.646h4.673v3.617c.541-1.22 1.28-2.16 2.214-2.825.936-.663 2.038-.997 3.312-.997.27 0 .508.007.713.021.203.013.426.047.671.101v4.43a7.114 7.114 0 0 0-1.382-.121c-1.652 0-2.987.568-4.001 1.706-1.017 1.139-1.524 2.697-1.524 4.674v10.037h-4.676v.003ZM95.706 151.753v-29.465h4.633v29.465h-4.633ZM106.558 128.262c-.841 0-1.552-.297-2.133-.895a2.963 2.963 0 0 1-.875-2.153c0-.839.291-1.565.875-2.173a2.837 2.837 0 0 1 2.133-.916c.838 0 1.564.305 2.173.916.611.608.915 1.334.915 2.173 0 .841-.304 1.558-.915 2.153a2.996 2.996 0 0 1-2.173.895Zm-2.359 2.845h4.715v20.646h-4.715v-20.646ZM112.776 151.753v-20.646h4.673v3.008c.677-1.166 1.572-2.065 2.683-2.703 1.109-.636 2.383-.956 3.819-.956 2.329 0 4.151.751 5.468 2.254 1.314 1.504 1.97 3.585 1.97 6.239v12.801h-4.714v-12.476c0-1.572-.352-2.771-1.058-3.597-.703-.827-1.747-1.24-3.129-1.24-.976 0-1.842.264-2.599.794-.76.528-1.355 1.267-1.788 2.214-.435.949-.652 2.058-.652 3.332v10.973h-4.673v.003ZM145.045 160.124c-2.412 0-4.491-.528-6.238-1.585-1.747-1.058-2.906-2.548-3.474-4.471l4.47-1.179c.406 1.109 1.069 1.95 1.991 2.52.92.569 2.045.853 3.373.853 1.138 0 2.106-.203 2.906-.609a4.151 4.151 0 0 0 1.829-1.808c.419-.801.629-1.781.629-2.947v-2.723a8.528 8.528 0 0 1-2.947 2.398c-1.152.569-2.419.855-3.801.855-1.845 0-3.481-.44-4.918-1.321-1.436-.88-2.561-2.113-3.372-3.698-.812-1.585-1.22-3.393-1.22-5.427 0-2.033.406-3.846 1.22-5.444.811-1.599 1.936-2.846 3.372-3.741 1.437-.895 3.073-1.341 4.918-1.341 1.382 0 2.655.284 3.819.852a7.94 7.94 0 0 1 2.926 2.44v-2.643h4.633v19.712c0 1.923-.414 3.582-1.24 4.978-.827 1.396-2.004 2.464-3.535 3.21-1.528.747-3.309 1.119-5.341 1.119Zm-.243-12.518c1.165 0 2.173-.27 3.028-.811.852-.541 1.517-1.308 1.99-2.298.474-.989.713-2.16.713-3.515 0-2.058-.507-3.684-1.524-4.876-1.017-1.193-2.406-1.788-4.167-1.788-1.79 0-3.197.597-4.227 1.788-1.03 1.192-1.544 2.818-1.544 4.876 0 1.355.236 2.528.712 3.515.473.99 1.143 1.754 2.013 2.298.864.541 1.867.811 3.006.811ZM18.65 169.437h13.737c1.68 0 3.143.325 4.39.977 1.246.649 2.193 1.544 2.845 2.682.651 1.139.976 2.397.976 3.781 0 1.382-.352 2.609-1.057 3.678-.704 1.07-1.667 1.875-2.886 2.419 1.598.543 2.825 1.429 3.677 2.662.852 1.234 1.28 2.69 1.28 4.37 0 1.517-.345 2.892-1.034 4.126-.69 1.233-1.673 2.193-2.947 2.885-1.274.693-2.764 1.037-4.47 1.037H18.65v-28.617Zm12.925 12.071c1.328 0 2.37-.372 3.13-1.118.757-.746 1.138-1.727 1.138-2.947 0-1.246-.381-2.22-1.139-2.926-.76-.704-1.828-1.058-3.21-1.058h-8.006v8.047h8.087v.002Zm.487 12.518c1.463 0 2.609-.393 3.434-1.18.827-.784 1.24-1.855 1.24-3.21s-.413-2.439-1.24-3.251c-.828-.812-1.97-1.22-3.434-1.22h-8.576v8.861h8.576ZM53.4 198.699c-1.87 0-3.522-.466-4.959-1.402-1.436-.936-2.558-2.227-3.372-3.88-.812-1.653-1.218-3.535-1.218-5.65 0-2.139.406-4.045 1.218-5.711.814-1.666 1.936-2.967 3.372-3.9 1.437-.936 3.09-1.402 4.958-1.402 1.382 0 2.656.304 3.82.915a8.726 8.726 0 0 1 2.967 2.541v-2.805h4.673v20.645h-4.673v-2.805c-.814 1.112-1.804 1.964-2.968 2.559-1.165.598-2.437.895-3.819.895Zm1.014-4.022c1.166 0 2.18-.277 3.048-.834.868-.555 1.538-1.355 2.013-2.397.474-1.043.713-2.268.713-3.677 0-2.166-.517-3.873-1.545-5.12-1.03-1.246-2.425-1.869-4.186-1.869-1.788 0-3.204.625-4.248 1.869-1.044 1.247-1.565 2.954-1.565 5.12 0 1.409.237 2.636.713 3.677.473 1.044 1.152 1.842 2.031 2.397.88.555 1.887.834 3.026.834ZM68.678 198.05v-20.645h4.674v3.005c.677-1.165 1.572-2.065 2.683-2.703 1.11-.636 2.383-.956 3.82-.956 2.328 0 4.15.751 5.467 2.255 1.314 1.503 1.97 3.584 1.97 6.238v12.801h-4.714v-12.472c0-1.571-.352-2.771-1.058-3.596-.703-.827-1.747-1.24-3.129-1.24-.976 0-1.842.264-2.602.794-.76.527-1.355 1.267-1.788 2.214-.435.949-.651 2.058-.651 3.332v10.973h-4.671ZM91.154 198.05v-29.465h4.633v16.663l8.047-7.843h5.893l-8.698 8.574 8.901 12.071h-5.526l-6.583-8.901-2.031 1.991v6.908h-4.636v.002ZM180.27 45.506c0-.807.214-1.432.643-1.871.428-.44 1.03-.66 1.806-.66h.403v.914h-.403c-.53 0-.931.138-1.2.415-.268.278-.403.677-.403 1.2 0 .523.135.927.403 1.213.269.284.67.428 1.2.428h6.108v.916h-6.108c-.776 0-1.378-.224-1.806-.672-.429-.447-.643-1.074-.643-1.883ZM180.27 52.685c0-.57.136-1.078.404-1.522a2.82 2.82 0 0 1 1.123-1.046c.48-.253 1.028-.381 1.646-.381.617 0 1.167.124 1.652.374.483.25.859.597 1.13 1.046.268.447.403.96.403 1.54 0 .57-.135 1.075-.403 1.515-.268.44-.645.782-1.13 1.028-.482.246-1.035.368-1.652.368-.618 0-1.166-.124-1.646-.368a2.748 2.748 0 0 1-1.123-1.028c-.268-.44-.404-.95-.404-1.526Zm.785 0c0 .412.095.768.284 1.068.189.3.464.532.825.695.361.162.787.243 1.279.243.491 0 .919-.08 1.282-.243.366-.163.643-.395.839-.695.194-.302.291-.658.291-1.068a1.92 1.92 0 0 0-.298-1.076 1.952 1.952 0 0 0-.838-.708c-.361-.167-.787-.25-1.279-.25-.482 0-.904.083-1.265.25-.36.167-.638.402-.832.708a1.982 1.982 0 0 0-.288 1.076ZM180.46 57.14h5.977v.89h-5.977v-.89Zm6.976.45c0-.182.063-.335.189-.464a.632.632 0 0 1 .464-.19c.183 0 .336.064.465.19a.633.633 0 0 1 .189.465.637.637 0 0 1-.189.464.633.633 0 0 1-.465.19.635.635 0 0 1-.464-.19.633.633 0 0 1-.189-.464ZM180.46 59.98h5.977v.88h-.985c.365.214.651.496.861.843.209.35.315.755.315 1.224 0 .665-.212 1.184-.635 1.556-.424.372-1.008.559-1.752.559h-3.779v-.89h3.646c.577 0 1.014-.122 1.307-.364.294-.24.44-.604.44-1.086 0-.356-.095-.674-.284-.952a1.905 1.905 0 0 0-.803-.654c-.345-.157-.746-.236-1.206-.236h-3.102v-.88ZM180.377 68.642c0-.545.133-.94.399-1.181.266-.241.631-.363 1.1-.363h3.803v-1.01h.76v1.01h1.508v.88h-1.508v1.33h-.76v-1.33h-3.758c-.284 0-.483.067-.595.202-.111.135-.167.352-.167.654 0 .135.011.293.036.476h-.737a3.315 3.315 0 0 1-.081-.668Z" fill="#fff"/><path d="M158.798 264.708h-18.217v32.739h18.217v-32.739Z" fill="#EA560D"/><path d="M141.738 281.077c0-6.642 3.109-12.556 7.952-16.369a20.732 20.732 0 0 0-12.867-4.45c-11.498 0-20.819 9.323-20.819 20.821 0 11.498 9.321 20.821 20.819 20.821 4.856 0 9.325-1.664 12.867-4.451-4.843-3.817-7.952-9.731-7.952-16.372Z" fill="#E30613"/><path d="M183.375 281.077c0 11.498-9.32 20.821-20.819 20.821a20.733 20.733 0 0 1-12.866-4.451c4.842-3.812 7.951-9.726 7.951-16.368 0-6.642-3.109-12.556-7.951-16.368a20.721 20.721 0 0 1 12.866-4.451c11.499-.004 20.819 9.318 20.819 20.817Z" fill="#F59E00"/><path d="M103.666 38.272a3.99 3.99 0 0 1 3.991-3.991h21.024a3.991 3.991 0 0 1 3.991 3.99v31.932a3.991 3.991 0 0 1-3.991 3.991h-21.024a3.99 3.99 0 0 1-3.991-3.99V38.271Z" fill="#A4A167"/><path d="M114.976 34.535a.87.87 0 0 0-.869.87V46.47c0 .48.389.87.869.87h6.402a.87.87 0 0 0 .869-.87V35.405a.87.87 0 0 0-.869-.87h-6.402Z" fill="url(#jca_svg__a)"/><path d="M122.635 46.531V35.466c0-.696.606-.896.909-.909h4.821a4.03 4.03 0 0 1 4.031 4.03v5.968c0 1.581-1.318 1.976-1.976 1.976h-3.399c-.566.026-1.802.135-2.213.356-.514.276-.711.276-1.264.276-.443 0-.909 0-.909-.632Z" fill="url(#jca_svg__b)"/><path d="M113.664 35.466v11.065c0 .568-.466.633-.909.633-.553 0-.751 0-1.265-.277-.411-.221-1.646-.33-2.213-.356h-3.398c-.659 0-1.976-.395-1.976-1.976v-5.967a4.03 4.03 0 0 1 4.031-4.03h4.821c.303.012.909.212.909.908Z" fill="url(#jca_svg__c)"/><path d="M103.942 48.981c0-1.58 1.37-2.028 2.055-2.055h3.32c.869 0 2.137.26 2.371.435.474.356 1.317.343 1.818.316h9.369c.5.027 1.343.04 1.818-.316.234-.175 1.501-.435 2.371-.435h3.319c.685.027 2.055.475 2.055 2.055v10.394c0 1.58-1.37 2.028-2.055 2.055h-1.86c-.092 0-.277.055-.277.276 0 .168.106.225.197.237h1.977c.658 0 1.976.396 1.976 1.976v5.968a4.03 4.03 0 0 1-4.031 4.03h-4.821c-.303-.013-.909-.213-.909-.908V62.062c0-.57-.317-1.067-1.028-1.067-.711 0-8.101-.04-8.101-.04-.501-.026-1.344-.04-1.818.317-.234.175-1.502.434-2.371.434h-3.32c-.685-.026-2.055-.474-2.055-2.055v-10.67Z" fill="url(#jca_svg__d)"/><path d="M113.664 73.088V62.022c0-.538-.466-.632-.909-.632-.553 0-.751 0-1.265.277-.411.221-1.646.33-2.213.355h-3.398c-.659 0-1.976.396-1.976 1.976v5.968a4.03 4.03 0 0 0 4.031 4.03h4.821c.303-.013.909-.213.909-.908Z" fill="url(#jca_svg__e)"/><path d="M114.099 62.18c0-.48.389-.869.869-.869h6.402c.48 0 .869.39.869.87v10.907a.87.87 0 0 1-.869.869h-6.402a.87.87 0 0 1-.869-.87V62.18Z" fill="url(#jca_svg__f)"/><defs><linearGradient id="jca_svg__a" x1="118.169" y1="61.324" x2="118.169" y2="73.957" gradientUnits="userSpaceOnUse"><stop stop-color="#EAD283"/><stop offset="1" stop-color="#F3E18D"/></linearGradient><linearGradient id="jca_svg__b" x1="118.169" y1="61.324" x2="118.169" y2="73.957" gradientUnits="userSpaceOnUse"><stop stop-color="#EAD283"/><stop offset="1" stop-color="#F3E18D"/></linearGradient><linearGradient id="jca_svg__c" x1="118.169" y1="61.324" x2="118.169" y2="73.957" gradientUnits="userSpaceOnUse"><stop stop-color="#EAD283"/><stop offset="1" stop-color="#F3E18D"/></linearGradient><linearGradient id="jca_svg__d" x1="118.169" y1="61.324" x2="118.169" y2="73.957" gradientUnits="userSpaceOnUse"><stop stop-color="#EAD283"/><stop offset="1" stop-color="#F3E18D"/></linearGradient><linearGradient id="jca_svg__e" x1="118.169" y1="61.324" x2="118.169" y2="73.957" gradientUnits="userSpaceOnUse"><stop stop-color="#EAD283"/><stop offset="1" stop-color="#F3E18D"/></linearGradient><linearGradient id="jca_svg__f" x1="118.169" y1="61.324" x2="118.169" y2="73.957" gradientUnits="userSpaceOnUse"><stop stop-color="#EAD283"/><stop offset="1" stop-color="#F3E18D"/></linearGradient></defs></svg>