<svg xmlns="http://www.w3.org/2000/svg" fill="none" viewBox="-50 0 395 67"><rect width="295" height="66.704" fill="#fff" rx="12.711"/><path fill="#000" fill-rule="evenodd" d="M32.708 23.218a4.343 4.343 0 00-4.343 4.343v3.62a.724.724 0 11-1.448 0v-3.62a5.79 5.79 0 0111.582 0 .724.724 0 01-1.448 0 4.343 4.343 0 00-4.343-4.343z" clip-rule="evenodd"/><path fill="#000" fill-rule="evenodd" d="M26.193 31.904c-.4 0-.724.325-.724.724v10.134c0 .4.325.724.724.724h13.03c.4 0 .723-.324.723-.724V32.628c0-.4-.324-.724-.724-.724H26.193zm-2.171.724c0-1.199.972-2.171 2.171-2.171h13.03c1.199 0 2.171.972 2.171 2.171v10.134c0 1.2-.972 2.172-2.172 2.172H26.193c-1.199 0-2.171-.972-2.171-2.172V32.628z" clip-rule="evenodd"/><path fill="#000" d="M65.388 39.64c-1.272 0-2.382-.282-3.33-.846a5.736 5.736 0 01-2.196-2.34c-.504-1.008-.756-2.154-.756-3.438 0-1.272.252-2.406.756-3.402a5.628 5.628 0 012.16-2.358c.948-.576 2.064-.864 3.348-.864.936 0 1.77.162 2.502.486a4.903 4.903 0 011.836 1.386 5.88 5.88 0 011.134 2.07l-1.89.486c-.288-.816-.732-1.446-1.332-1.89-.6-.444-1.35-.666-2.25-.666-.888 0-1.65.21-2.286.63a3.938 3.938 0 00-1.458 1.692c-.324.72-.486 1.53-.486 2.43 0 .948.162 1.782.486 2.502.336.708.816 1.26 1.44 1.656.636.396 1.398.594 2.286.594.6 0 1.14-.102 1.62-.306.48-.216.882-.51 1.206-.882.324-.384.576-.84.756-1.368l1.854.468a5.58 5.58 0 01-1.08 2.088 5.166 5.166 0 01-1.836 1.386c-.732.324-1.56.486-2.484.486zm9.745-.072c-.624 0-1.17-.12-1.638-.36a2.641 2.641 0 01-1.044-1.008c-.24-.42-.36-.882-.36-1.386 0-.888.342-1.584 1.026-2.088.684-.504 1.632-.756 2.844-.756h2.106v-.774c0-.48-.168-.87-.504-1.17-.324-.312-.786-.468-1.386-.468-.552 0-1.002.144-1.35.432-.336.276-.57.66-.702 1.152l-1.854-.306c.144-.624.396-1.152.756-1.584.36-.432.804-.756 1.332-.972.54-.228 1.152-.342 1.836-.342.768 0 1.434.138 1.998.414.564.276.996.66 1.296 1.152.312.48.468 1.044.468 1.692v6.156h-1.89v-1.566c-.276.54-.666.972-1.17 1.296-.492.324-1.08.486-1.764.486zm.54-1.512c.468 0 .882-.114 1.242-.342a2.536 2.536 0 001.152-2.124v-.396h-1.746c-.756 0-1.338.126-1.746.378a1.207 1.207 0 00-.594 1.08c0 .432.156.774.468 1.026.312.252.72.378 1.224.378zm6.857 1.296v-9.126h1.926v1.602c.24-.528.564-.942.972-1.242.42-.3.918-.45 1.494-.45.108 0 .204.006.288.018.096 0 .192.012.288.036v1.818a3.034 3.034 0 00-.594-.054c-.732 0-1.326.258-1.782.774-.444.516-.666 1.218-.666 2.106v4.518H82.53zm10.28.288c-.828 0-1.566-.204-2.214-.612-.636-.42-1.134-.996-1.494-1.728-.348-.732-.522-1.566-.522-2.502 0-.936.174-1.77.522-2.502.36-.744.858-1.32 1.494-1.728.648-.42 1.38-.63 2.196-.63.636 0 1.212.144 1.728.432.528.276.972.666 1.332 1.17v-5.238h1.908v13.05h-1.908v-1.296c-.36.492-.804.882-1.332 1.17a3.568 3.568 0 01-1.71.414zm.396-1.656c.528 0 .99-.126 1.386-.378.408-.264.72-.636.936-1.116.216-.48.324-1.044.324-1.692 0-.984-.24-1.764-.72-2.34-.468-.576-1.11-.864-1.926-.864-.816 0-1.464.288-1.944.864-.468.576-.702 1.356-.702 2.34 0 .648.108 1.212.324 1.692.216.48.522.852.918 1.116.408.252.876.378 1.404.378zm16.939 1.656c-1.716 0-3-.438-3.852-1.314-.852-.888-1.278-2.088-1.278-3.6V26.68h1.98v8.028c0 .984.252 1.758.756 2.322.504.552 1.302.828 2.394.828 1.104 0 1.902-.276 2.394-.828.504-.552.756-1.326.756-2.322V26.68h1.98v8.046c0 1.512-.426 2.712-1.278 3.6-.852.876-2.136 1.314-3.852 1.314zm7.98-.288v-9.126h1.926v1.35c.3-.516.696-.918 1.188-1.206.504-.288 1.086-.432 1.746-.432 1.02 0 1.818.33 2.394.99.576.66.864 1.572.864 2.736v5.688h-1.926v-5.526c0-.732-.162-1.29-.486-1.674-.324-.384-.804-.576-1.44-.576-.456 0-.864.126-1.224.378-.348.24-.624.582-.828 1.026-.192.444-.288.96-.288 1.548v4.824h-1.926zm10.526 0v-13.05h1.908v13.05h-1.908zm8.518.288c-.9 0-1.698-.204-2.394-.612a4.323 4.323 0 01-1.638-1.71c-.396-.732-.594-1.572-.594-2.52 0-.936.192-1.77.576-2.502a4.293 4.293 0 011.638-1.728c.708-.42 1.518-.63 2.43-.63.888 0 1.68.21 2.376.63a4.174 4.174 0 011.62 1.728c.396.732.594 1.566.594 2.502 0 .936-.198 1.776-.594 2.52a4.2 4.2 0 01-1.62 1.71c-.696.408-1.494.612-2.394.612zm0-1.638c.54 0 1.008-.126 1.404-.378.396-.264.696-.636.9-1.116.216-.48.324-1.05.324-1.71 0-.66-.108-1.23-.324-1.71-.204-.492-.504-.864-.9-1.116-.396-.264-.864-.396-1.404-.396-.54 0-1.008.132-1.404.396a2.57 2.57 0 00-.918 1.116c-.216.48-.324 1.05-.324 1.71 0 .648.108 1.212.324 1.692.216.48.522.852.918 1.116.408.264.876.396 1.404.396zm10.793 1.62c-.924 0-1.74-.204-2.448-.612a4.2 4.2 0 01-1.62-1.71c-.384-.732-.576-1.566-.576-2.502 0-.924.186-1.752.558-2.484a4.295 4.295 0 011.62-1.746c.708-.42 1.53-.63 2.466-.63.708 0 1.338.132 1.89.396a3.47 3.47 0 011.386 1.098c.36.468.618 1.014.774 1.638l-1.818.36c-.156-.54-.42-.978-.792-1.314-.372-.336-.852-.504-1.44-.504-.564 0-1.05.144-1.458.432a2.571 2.571 0 00-.9 1.134 4.056 4.056 0 00-.306 1.602c0 .6.102 1.14.306 1.62.204.48.504.858.9 1.134.408.276.894.414 1.458.414.576 0 1.056-.162 1.44-.486.396-.336.666-.762.81-1.278l1.8.342a4.002 4.002 0 01-.738 1.602 3.69 3.69 0 01-1.386 1.098c-.552.264-1.194.396-1.926.396zm5.917-.27v-13.05h1.908v7.506l3.672-3.582h2.43l-3.852 3.798 3.942 5.328h-2.268l-2.988-4.032-.936.918v3.114h-1.908zm13.594.288c-.924 0-1.734-.204-2.43-.612a4.323 4.323 0 01-1.62-1.728c-.372-.744-.558-1.584-.558-2.52 0-.912.18-1.734.54-2.466.372-.744.9-1.326 1.584-1.746.696-.42 1.512-.63 2.448-.63.888 0 1.65.198 2.286.594.636.396 1.116.96 1.44 1.692.324.72.486 1.56.486 2.52 0 .18-.006.342-.018.486h-6.894c.06.936.33 1.644.81 2.124.48.468 1.128.702 1.944.702.612 0 1.11-.144 1.494-.432.384-.288.708-.69.972-1.206l1.548.576c-.36.852-.882 1.506-1.566 1.962-.684.456-1.506.684-2.466.684zm2.304-5.76c-.048-.756-.282-1.332-.702-1.728-.408-.408-.954-.612-1.638-.612-.72 0-1.308.204-1.764.612-.456.396-.75.972-.882 1.728h4.986zm7.707 5.76c-.828 0-1.566-.204-2.214-.612-.636-.42-1.134-.996-1.494-1.728-.348-.732-.522-1.566-.522-2.502 0-.936.174-1.77.522-2.502.36-.744.858-1.32 1.494-1.728.648-.42 1.38-.63 2.196-.63.636 0 1.212.144 1.728.432.528.276.972.666 1.332 1.17v-5.238h1.908v13.05h-1.908v-1.296c-.36.492-.804.882-1.332 1.17a3.568 3.568 0 01-1.71.414zm.396-1.656c.528 0 .99-.126 1.386-.378.408-.264.72-.636.936-1.116.216-.48.324-1.044.324-1.692 0-.984-.24-1.764-.72-2.34-.468-.576-1.11-.864-1.926-.864-.816 0-1.464.288-1.944.864-.468.576-.702 1.356-.702 2.34 0 .648.108 1.212.324 1.692.216.48.522.852.918 1.116.408.252.876.378 1.404.378z"/><g clip-path="url(#clip0_6976_182092)"><path fill="#19D3C5" d="M230.493 33.257c0-7.375 5.978-13.352 13.352-13.352h17.803c7.374 0 13.352 5.977 13.352 13.352 0 7.374-5.978 13.352-13.352 13.352h-17.803c-7.374 0-13.352-5.978-13.352-13.352z"/><g style="mix-blend-mode:multiply" filter="url(#filter0_d_6976_182092)"><path fill="#000" fill-opacity="0.01" d="M272.329 33.256c0 5.9-4.782 10.682-10.681 10.682-5.899 0-10.682-4.782-10.682-10.682 0-5.899 4.783-10.681 10.682-10.681s10.681 4.782 10.681 10.681z"/></g><path fill="#fff" d="M274.11 33.256c0 6.883-5.58 12.462-12.462 12.462-6.883 0-12.462-5.58-12.462-12.462s5.579-12.462 12.462-12.462c6.882 0 12.462 5.58 12.462 12.462z"/></g><defs><filter id="filter0_d_6976_182092" width="35.605" height="35.605" x="243.845" y="19.014" color-interpolation-filters="sRGB" filterUnits="userSpaceOnUse"><feFlood flood-opacity="0" result="BackgroundImageFix"/><feColorMatrix in="SourceAlpha" result="hardAlpha" values="0 0 0 0 0 0 0 0 0 0 0 0 0 0 0 0 0 0 127 0"/><feOffset dy="3.561"/><feGaussianBlur stdDeviation="3.561"/><feColorMatrix values="0 0 0 0 0.219735 0 0 0 0 0.376656 0 0 0 0 0.647702 0 0 0 0.15 0"/><feBlend in2="BackgroundImageFix" result="effect1_dropShadow_6976_182092"/><feBlend in="SourceGraphic" in2="effect1_dropShadow_6976_182092" result="shape"/></filter><clipPath id="clip0_6976_182092"><path fill="#fff" d="M0 0H44.507V26.704H0z" transform="translate(230.493 20)"/></clipPath></defs></svg>